<svg width="21" height="24" viewBox="0 0 21 24" fill="none" xmlns="http://www.w3.org/2000/svg">
<path d="M15.6408 5.78011C15.6408 7.36852 15.0712 8.74345 13.9475 9.86737C12.8237 10.9911 11.4486 11.5607 9.8602 11.5607H9.85743C8.27099 11.5602 6.89681 10.9905 5.77307 9.86737C4.6492 8.74345 4.07971 7.36852 4.07971 5.78011C4.07971 4.19222 4.6492 2.81709 5.77307 1.69336C6.89624 0.57 8.27048 0.0005625 9.85743 0H9.8602C11.4481 0 12.8232 0.569625 13.9475 1.69336C15.0712 2.81709 15.6408 4.19222 15.6408 5.78011Z" fill="#FFBB85"/>
<path d="M20.0235 19.8721C20.0235 21.1253 19.6249 22.1399 18.8397 22.8871C18.0637 23.6256 17.0374 23.9996 15.7896 23.9996H4.23342C2.98552 23.9996 1.95923 23.6256 1.18373 22.8871C0.398156 22.1393 0 21.1249 0 19.8721C0 19.3901 0.0159375 18.9133 0.0478125 18.4549C0.0801563 17.9861 0.145781 17.476 0.242437 16.9378C0.339844 16.3953 0.465094 15.8824 0.615094 15.4136C0.770719 14.9284 0.981281 14.4498 1.24181 13.9913C1.51247 13.5154 1.83033 13.1008 2.18663 12.7595C2.56022 12.4023 3.01683 12.1154 3.54473 11.9063C4.07081 11.6982 4.65398 11.5928 5.27803 11.5928C5.52281 11.5928 5.75991 11.6929 6.21694 11.9907C6.54246 12.2027 6.86894 12.4132 7.19639 12.6222C7.51064 12.8225 7.93617 13.0104 8.4622 13.1801C8.92458 13.3297 9.39384 13.4132 9.85748 13.4276C9.90858 13.4295 9.95967 13.4305 10.0108 13.4305C10.5256 13.4305 11.0464 13.346 11.5598 13.1801C12.0859 13.0104 12.512 12.8225 12.826 12.6222C13.1533 12.4134 13.4797 12.2031 13.8051 11.9913C14.2625 11.6929 14.4992 11.5928 14.7446 11.5928C15.368 11.5928 15.9512 11.6983 16.4776 11.9063C17.0055 12.1153 17.4622 12.4029 17.8354 12.7595C18.1923 13.1008 18.5101 13.5154 18.7806 13.9913C19.0413 14.4502 19.2523 14.9284 19.4073 15.4131C19.5575 15.8824 19.6831 16.3953 19.7805 16.9382C19.8766 17.4769 19.9424 17.987 19.9746 18.4545C20.007 18.9115 20.0229 19.3883 20.0235 19.8721Z" fill="#6AA9FF"/>
<path d="M9.86031 11.5607H9.85754V0H9.86031C11.4482 0 12.8233 0.569625 13.9476 1.69336C15.0713 2.81709 15.6409 4.19222 15.6409 5.78011C15.6409 7.36852 15.0713 8.74345 13.9476 9.86737C12.8238 10.9911 11.4487 11.5607 9.86031 11.5607Z" fill="#F5A86C"/>
<path d="M20.0234 19.872C20.0234 21.1252 19.6248 22.1398 18.8397 22.887C18.0637 23.6255 17.0373 23.9996 15.7895 23.9996H9.85742V13.4276C9.90852 13.4295 9.95961 13.4304 10.0107 13.4304C10.5256 13.4304 11.0463 13.346 11.5597 13.1801C12.0858 13.0104 12.5119 12.8225 12.8259 12.6221C13.1533 12.4133 13.4796 12.203 13.805 11.9912C14.2624 11.6929 14.4991 11.5928 14.7445 11.5928C15.368 11.5928 15.9512 11.6982 16.4776 11.9062C17.0055 12.1153 17.4621 12.4028 17.8353 12.7595C18.1922 13.1008 18.5101 13.5154 18.7805 13.9912C19.0413 14.4501 19.2522 14.9284 19.4073 15.413C19.5575 15.8824 19.683 16.3952 19.7804 16.9381C19.8766 17.4769 19.9423 17.9869 19.9745 18.4544C20.0069 18.9115 20.0229 19.3883 20.0234 19.872Z" fill="#2682FF"/>
</svg>
