<svg width="24" height="24" viewBox="0 0 24 24" fill="none" xmlns="http://www.w3.org/2000/svg">
<circle cx="12" cy="12" r="12" fill="#D9ECCD"/>
<g clip-path="url(#clip0_1998_11402)">
<path d="M12.0015 12C12.8285 12 13.5015 11.327 13.5015 10.5C13.5015 9.67301 12.8285 9.00001 12.0015 9.00001C11.1745 9.00001 10.5015 9.67301 10.5015 10.5C10.5015 11.327 11.1745 12 12.0015 12ZM12.0015 9.50001C12.553 9.50001 13.0015 9.94851 13.0015 10.5C13.0015 11.0515 12.553 11.5 12.0015 11.5C11.45 11.5 11.0015 11.0515 11.0015 10.5C11.0015 9.94851 11.45 9.50001 12.0015 9.50001ZM14.2415 13.8885C14.303 14.0125 14.2525 14.162 14.129 14.2235C14.093 14.2415 14.0555 14.2495 14.018 14.2495C13.926 14.2495 13.8375 14.1985 13.794 14.111C13.4535 13.4255 12.7665 12.9995 12.002 12.9995C11.2505 12.9995 10.5695 13.4145 10.224 14.0825C10.161 14.205 10.0095 14.253 9.88701 14.19C9.76401 14.1265 9.71651 13.9755 9.77951 13.853C10.211 13.018 11.0625 12.4995 12.0015 12.4995C12.9575 12.4995 13.816 13.0315 14.2415 13.888V13.8885ZM16.751 13.2525L16.3765 13.0405C16.4595 12.6945 16.5015 12.3455 16.5015 11.9995C16.5015 11.6535 16.4595 11.3045 16.3765 10.9585L16.7505 10.747C17.041 10.5825 17.25 10.3145 17.339 9.99301C17.428 9.67151 17.3865 9.33401 17.222 9.04351C17.0575 8.75301 16.79 8.54351 16.468 8.45451C16.146 8.36451 15.809 8.40651 15.5185 8.57151L15.143 8.78401C14.6115 8.26401 13.9635 7.88651 13.251 7.68051V7.24951C13.251 6.56051 12.69 5.99951 12.001 5.99951C11.312 5.99951 10.751 6.56051 10.751 7.24951V7.68051C10.0385 7.88651 9.39101 8.26401 8.85901 8.78401L8.48351 8.57151C8.19251 8.40701 7.85551 8.36551 7.53401 8.45451C7.21201 8.54351 6.94451 8.75301 6.78001 9.04301C6.61551 9.33401 6.57401 9.67101 6.66301 9.99251C6.75201 10.314 6.96101 10.582 7.25201 10.7465L7.62601 10.958C7.54301 11.304 7.50101 11.6535 7.50101 11.999C7.50101 12.3445 7.54301 12.694 7.62601 13.04L7.25151 13.252C6.65201 13.592 6.44051 14.356 6.78001 14.9555C7.11951 15.555 7.88301 15.7675 8.48351 15.4275L8.85901 15.215C9.39101 15.7355 10.0385 16.113 10.751 16.3185V16.7495C10.751 17.4385 11.312 17.9995 12.001 17.9995C12.69 17.9995 13.251 17.4385 13.251 16.7495V16.3185C13.963 16.113 14.611 15.735 15.143 15.215L15.5185 15.4275C16.1175 15.767 16.8825 15.555 17.222 14.9555C17.5615 14.356 17.3495 13.5915 16.7505 13.252L16.751 13.2525ZM16.7875 14.71C16.584 15.069 16.1245 15.196 15.7655 14.993L15.223 14.6855C15.123 14.6285 14.9965 14.648 14.9175 14.732C14.3825 15.3025 13.6995 15.701 12.943 15.8835C12.831 15.9105 12.752 16.011 12.752 16.1265V16.75C12.752 17.1635 12.4155 17.5 12.002 17.5C11.5885 17.5 11.252 17.1635 11.252 16.75V16.1265C11.252 16.011 11.173 15.9105 11.061 15.8835C10.3045 15.7005 9.62151 15.3025 9.08651 14.732C9.03801 14.68 8.97151 14.653 8.90401 14.653C8.86201 14.653 8.81951 14.6635 8.78051 14.6855L8.23801 14.993C7.87851 15.1965 7.41951 15.0695 7.21551 14.71C7.01201 14.35 7.13901 13.8915 7.49851 13.6875L8.04001 13.381C8.14051 13.324 8.18851 13.206 8.15701 13.095C8.05351 12.7315 8.00101 12.363 8.00101 12C8.00101 11.637 8.05351 11.2685 8.15701 10.9045C8.18851 10.7935 8.14001 10.6755 8.03951 10.6185L7.49851 10.312C7.32401 10.213 7.19851 10.0525 7.14501 9.85951C7.09151 9.66651 7.11651 9.46401 7.21551 9.28951C7.31401 9.11551 7.47501 8.99001 7.66801 8.93651C7.86051 8.88301 8.06301 8.90801 8.23751 9.00651L8.78001 9.31401C8.88051 9.37151 9.00701 9.35201 9.08551 9.26751C9.62001 8.69701 10.303 8.29901 11.06 8.11601C11.172 8.08901 11.251 7.98851 11.251 7.87301V7.24951C11.251 6.83601 11.5875 6.49951 12.001 6.49951C12.4145 6.49951 12.751 6.83601 12.751 7.24951V7.87301C12.751 7.98851 12.83 8.08901 12.942 8.11601C13.699 8.29901 14.3815 8.69701 14.9165 9.26751C14.9955 9.35151 15.122 9.37101 15.222 9.31401L15.7645 9.00651C15.9395 8.90801 16.1425 8.88301 16.334 8.93651C16.527 8.99001 16.688 9.11551 16.7865 9.29001C16.885 9.46451 16.9105 9.66651 16.857 9.85951C16.8035 10.0525 16.678 10.2135 16.5035 10.312L15.962 10.6185C15.8615 10.6755 15.813 10.7935 15.8445 10.9045C15.948 11.2685 16.0005 11.637 16.0005 12C16.0005 12.363 15.948 12.7315 15.8445 13.095C15.813 13.206 15.8615 13.324 15.9615 13.381L16.503 13.6875C16.863 13.8915 16.99 14.35 16.786 14.71H16.7875Z" fill="#338000"/>
</g>
<defs>
<clipPath id="clip0_1998_11402">
<rect width="12" height="12" fill="white" transform="translate(6 6)"/>
</clipPath>
</defs>
</svg>
