<svg width="25" height="24" viewBox="0 0 25 24" fill="none" xmlns="http://www.w3.org/2000/svg">
<path fill-rule="evenodd" clip-rule="evenodd" d="M4.86437 15.4645C5.80205 14.5268 7.07382 14 8.3999 14H16.3999C17.726 14 18.9978 14.5268 19.9354 15.4645C20.8731 16.4021 21.3999 17.6739 21.3999 19V21C21.3999 21.5523 20.9522 22 20.3999 22C19.8476 22 19.3999 21.5523 19.3999 21V19C19.3999 18.2044 19.0838 17.4413 18.5212 16.8787C17.9586 16.3161 17.1956 16 16.3999 16H8.3999C7.60425 16 6.84119 16.3161 6.27858 16.8787C5.71597 17.4413 5.3999 18.2044 5.3999 19V21C5.3999 21.5523 4.95219 22 4.3999 22C3.84762 22 3.3999 21.5523 3.3999 21V19C3.3999 17.6739 3.92669 16.4021 4.86437 15.4645Z" fill="#42A004"/>
<path fill-rule="evenodd" clip-rule="evenodd" d="M12.3999 4C10.743 4 9.3999 5.34315 9.3999 7C9.3999 8.65685 10.743 10 12.3999 10C14.0568 10 15.3999 8.65685 15.3999 7C15.3999 5.34315 14.0568 4 12.3999 4ZM7.3999 7C7.3999 4.23858 9.63848 2 12.3999 2C15.1613 2 17.3999 4.23858 17.3999 7C17.3999 9.76142 15.1613 12 12.3999 12C9.63848 12 7.3999 9.76142 7.3999 7Z" fill="#42A004"/>
</svg>
