<svg width="25" height="24" viewBox="0 0 25 24" fill="none" xmlns="http://www.w3.org/2000/svg">
<g clip-path="url(#clip0_714_4924)">
<path d="M13.2991 1C10.8808 1.01177 8.53477 1.82542 6.62851 3.31348C4.72225 4.80153 3.36348 6.87992 2.76508 9.223L2.03308 8.116C1.96378 8.0001 1.87173 7.89944 1.76247 7.82009C1.65321 7.74073 1.52902 7.68433 1.39737 7.65428C1.26572 7.62422 1.12935 7.62114 0.996484 7.64522C0.863614 7.6693 0.736997 7.72004 0.624269 7.79438C0.511541 7.86872 0.415037 7.96512 0.340577 8.07777C0.266117 8.19042 0.215242 8.31699 0.191022 8.44983C0.166802 8.58267 0.169737 8.71905 0.199652 8.85073C0.229566 8.9824 0.285839 9.10666 0.365078 9.216L2.56508 12.55C2.7179 12.7638 2.94321 12.9149 3.19908 12.975C3.46035 13.0268 3.73153 12.9748 3.95508 12.83L7.25508 10.607C7.36886 10.5359 7.46718 10.4427 7.54419 10.3329C7.6212 10.2231 7.67533 10.0989 7.70334 9.96767C7.73136 9.83648 7.7327 9.701 7.70728 9.56929C7.68185 9.43758 7.63019 9.31233 7.55536 9.20099C7.48054 9.08966 7.38408 8.99451 7.27172 8.92123C7.15937 8.84794 7.03341 8.79801 6.90136 8.77441C6.76931 8.7508 6.63386 8.75401 6.50308 8.78383C6.37229 8.81365 6.24884 8.86948 6.14008 8.948L4.63908 9.96C5.03856 8.33839 5.88581 6.86172 7.08416 5.69847C8.28252 4.53521 9.78371 3.73222 11.4165 3.38111C13.0492 3.03 14.7478 3.14491 16.3184 3.71272C17.889 4.28054 19.2684 5.27839 20.2992 6.59244C21.3299 7.90649 21.9706 9.48382 22.148 11.1445C22.3255 12.8051 22.0326 14.4822 21.3027 15.9843C20.5729 17.4865 19.4355 18.7533 18.0203 19.6401C16.6051 20.527 14.9692 20.9982 13.2991 21C11.8674 20.9961 10.4579 20.6466 9.19023 19.9812C7.92259 19.3158 6.83437 18.3542 6.01808 17.178C5.94497 17.0657 5.85005 16.9693 5.73896 16.8944C5.62786 16.8196 5.50286 16.7678 5.37136 16.7422C5.23987 16.7166 5.10456 16.7176 4.97349 16.7453C4.84241 16.773 4.71823 16.8267 4.60833 16.9033C4.49842 16.9799 4.40502 17.0778 4.33368 17.1912C4.26235 17.3046 4.21452 17.4312 4.19304 17.5634C4.17157 17.6956 4.17688 17.8308 4.20866 17.961C4.24045 18.0911 4.29806 18.2136 4.37808 18.321C5.70514 20.2342 7.61091 21.6712 9.81529 22.4209C12.0197 23.1706 14.4064 23.1934 16.6247 22.4859C18.843 21.7785 20.7759 20.3782 22.1393 18.4907C23.5026 16.6033 24.2246 14.3282 24.1991 12C24.2089 9.09691 23.0669 6.30844 21.0235 4.24629C18.9801 2.18413 16.2021 1.01667 13.2991 1Z" fill="#42A004"/>
<path d="M13.1992 5.9502C12.934 5.9502 12.6796 6.05555 12.4921 6.24309C12.3046 6.43063 12.1992 6.68498 12.1992 6.9502V12.0002C12.2035 12.2645 12.3082 12.5173 12.4922 12.7072L15.4922 15.7342C15.6805 15.9195 15.9337 16.0239 16.1978 16.0252C16.4619 16.0265 16.7161 15.9246 16.9062 15.7412C17.0945 15.5545 17.2009 15.3006 17.202 15.0354C17.2031 14.7703 17.0989 14.5155 16.9122 14.3272L14.1992 11.5892V6.9502C14.1992 6.68498 14.0939 6.43063 13.9063 6.24309C13.7188 6.05555 13.4644 5.9502 13.1992 5.9502Z" fill="#42A004"/>
</g>
<defs>
<clipPath id="clip0_714_4924">
<rect width="24" height="24" fill="white" transform="translate(0.199219)"/>
</clipPath>
</defs>
</svg>
