<svg width="32" height="32" viewBox="0 0 32 32" fill="none" xmlns="http://www.w3.org/2000/svg">
<circle cx="16" cy="16" r="16" fill="#D9ECCD"/>
<g clip-path="url(#clip0_1998_12601)">
<path d="M22.6641 15.6667C22.6641 15.8507 22.5147 16 22.3307 16H20.4174C19.8361 16 19.2894 15.6907 18.9894 15.1927C18.9894 15.1927 17.7367 13.1133 17.7241 13.0953L15.8581 17.14C15.8021 17.262 15.6807 17.334 15.5547 17.334C15.5081 17.334 15.4607 17.324 15.4154 17.3033C15.2481 17.226 15.1754 17.028 15.2521 16.8607L17.1701 12.704C17.0841 12.68 16.9947 12.6673 16.9034 12.6673H15.1747L13.3927 16.5667C13.2134 17.004 13.3781 17.5193 13.7887 17.7787L17.1627 19.7113C17.2667 19.7707 17.3301 19.8813 17.3301 20.0007V23.6673C17.3301 23.8513 17.1807 24.0007 16.9967 24.0007C16.8127 24.0007 16.6634 23.8513 16.6634 23.6673V20.194L13.4447 18.35C12.7474 17.9093 12.4734 17.0513 12.7807 16.3013L14.4414 12.6673H12.4874C12.1067 12.6673 11.7641 12.8793 11.5934 13.22L10.6287 15.15C10.5461 15.3147 10.3461 15.3807 10.1814 15.2993C10.0167 15.2167 9.95006 15.0167 10.0321 14.852L10.9967 12.922C11.2814 12.3533 11.8521 12.0007 12.4874 12.0007H16.9034C17.4847 12.0007 18.0314 12.31 18.3314 12.808L19.5607 14.8493C19.7407 15.148 20.0687 15.334 20.4174 15.334H22.3307C22.5147 15.334 22.6641 15.4833 22.6641 15.6673V15.6667ZM12.4561 19.1853C12.2867 19.1167 12.0907 19.1993 12.0227 19.3713C11.8701 19.7533 11.5054 20 11.0941 20H8.9974C8.8134 20 8.66406 20.1493 8.66406 20.3333C8.66406 20.5173 8.8134 20.6667 8.9974 20.6667H11.0947C11.7801 20.6667 12.3874 20.2553 12.6421 19.6187C12.7107 19.448 12.6274 19.254 12.4561 19.1853ZM15.3307 9.66667C15.3307 8.748 16.0787 8 16.9974 8C17.9161 8 18.6641 8.748 18.6641 9.66667C18.6641 10.5853 17.9161 11.3333 16.9974 11.3333C16.0787 11.3333 15.3307 10.5853 15.3307 9.66667ZM15.9974 9.66667C15.9974 10.218 16.4461 10.6667 16.9974 10.6667C17.5487 10.6667 17.9974 10.218 17.9974 9.66667C17.9974 9.11533 17.5487 8.66667 16.9974 8.66667C16.4461 8.66667 15.9974 9.11533 15.9974 9.66667Z" fill="#42A004"/>
</g>
<defs>
<clipPath id="clip0_1998_12601">
<rect width="16" height="16" fill="white" transform="translate(8 8)"/>
</clipPath>
</defs>
</svg>
