<svg width="24" height="24" viewBox="0 0 24 24" fill="none" xmlns="http://www.w3.org/2000/svg">
<path d="M12 24C11.6892 24 11.3911 23.8765 11.1714 23.6568C10.9516 23.437 10.8281 23.1389 10.8281 22.8281V1.17188C10.8281 0.861074 10.9516 0.563003 11.1714 0.343234C11.3911 0.123465 11.6892 0 12 0C12.3108 0 12.6089 0.123465 12.8286 0.343234C13.0484 0.563003 13.1719 0.861074 13.1719 1.17188V22.8281C13.1719 23.1389 13.0484 23.437 12.8286 23.6568C12.6089 23.8765 12.3108 24 12 24Z" fill="white"/>
<path d="M22.8281 13.1719H1.17188C0.861074 13.1719 0.563003 13.0484 0.343234 12.8286C0.123465 12.6089 0 12.3108 0 12C0 11.6892 0.123465 11.3911 0.343234 11.1714C0.563003 10.9516 0.861074 10.8281 1.17188 10.8281H22.8281C23.1389 10.8281 23.437 10.9516 23.6568 11.1714C23.8765 11.3911 24 11.6892 24 12C24 12.3108 23.8765 12.6089 23.6568 12.8286C23.437 13.0484 23.1389 13.1719 22.8281 13.1719Z" fill="white"/>
</svg>
