<svg width="32" height="32" viewBox="0 0 32 32" fill="none" xmlns="http://www.w3.org/2000/svg">
<path d="M15.9987 1.33398C13.0979 1.33398 10.2623 2.19417 7.85034 3.80576C5.43842 5.41736 3.55856 7.70798 2.44847 10.388C1.33839 13.0679 1.04794 16.0169 1.61385 18.862C2.17977 21.707 3.57664 24.3204 5.62781 26.3715C7.67898 28.4227 10.2923 29.8196 13.1374 30.3855C15.9824 30.9514 18.9314 30.661 21.6114 29.5509C24.2914 28.4408 26.582 26.5609 28.1936 24.149C29.8052 21.7371 30.6654 18.9014 30.6654 16.0007C30.6608 12.1122 29.1141 8.38436 26.3645 5.63482C23.615 2.88528 19.8871 1.33857 15.9987 1.33398ZM22.6654 17.334H17.332V22.6673C17.332 23.0209 17.1916 23.3601 16.9415 23.6101C16.6915 23.8602 16.3523 24.0007 15.9987 24.0007C15.6451 24.0007 15.3059 23.8602 15.0559 23.6101C14.8058 23.3601 14.6654 23.0209 14.6654 22.6673V17.334H9.33204C8.97842 17.334 8.63928 17.1935 8.38923 16.9435C8.13918 16.6934 7.9987 16.3543 7.9987 16.0007C7.9987 15.647 8.13918 15.3079 8.38923 15.0578C8.63928 14.8078 8.97842 14.6673 9.33204 14.6673H14.6654V9.33398C14.6654 8.98036 14.8058 8.64122 15.0559 8.39118C15.3059 8.14113 15.6451 8.00065 15.9987 8.00065C16.3523 8.00065 16.6915 8.14113 16.9415 8.39118C17.1916 8.64122 17.332 8.98036 17.332 9.33398V14.6673H22.6654C23.019 14.6673 23.3581 14.8078 23.6082 15.0578C23.8582 15.3079 23.9987 15.647 23.9987 16.0007C23.9987 16.3543 23.8582 16.6934 23.6082 16.9435C23.3581 17.1935 23.019 17.334 22.6654 17.334Z" fill="#42A004"/>
</svg>
