<svg width="53" height="53" viewBox="0 0 53 53" fill="none" xmlns="http://www.w3.org/2000/svg">
<g clip-path="url(#clip0_885_26327)">
<path d="M45.9891 2.51465H7.00964L12.0637 50.8602V50.8627C12.0637 51.815 17.6788 52.5852 26.5004 52.5852C35.322 52.5852 40.9371 51.8138 40.9371 50.8627V50.8531L45.9891 2.51465Z" fill="#F0F5F9"/>
<path d="M26.5008 4.61763C37.2648 4.61763 45.9907 3.67663 45.9907 2.51584C45.9907 1.35506 37.2648 0.414062 26.5008 0.414062C15.7368 0.414062 7.01086 1.35506 7.01086 2.51584C7.01086 3.67663 15.7368 4.61763 26.5008 4.61763Z" fill="#F0F5F9"/>
<path d="M26.5003 5.03138C21.8844 5.05987 17.2701 4.85368 12.6751 4.4136C6.59753 3.75813 6.59753 2.94988 6.59753 2.51553C6.59753 2.08118 6.59753 1.27335 12.6751 0.617885C17.2701 0.177432 21.8844 -0.0288998 26.5003 -0.000310407C31.1167 -0.0289561 35.7316 0.177376 40.3271 0.617885C46.4047 1.27335 46.4047 2.08118 46.4047 2.51553C46.4047 2.94988 46.4047 3.75772 40.3271 4.4136C35.7316 4.85374 31.1167 5.05993 26.5003 5.03138ZM7.48404 2.51553C8.41692 3.23186 15.4092 4.20325 26.5011 4.20325C37.593 4.20325 44.5853 3.23186 45.5182 2.51553C44.5857 1.79962 37.5934 0.827815 26.5003 0.827815C15.4071 0.827815 8.41651 1.79962 7.48404 2.51553Z" fill="#2F3A5A"/>
<path d="M26.5 52.9999C22.9674 53.0368 19.4356 52.8673 15.9227 52.4923C12.2343 52.0335 11.6716 51.431 11.6505 50.8965L6.59806 2.55799C6.59041 2.50297 6.59391 2.44696 6.60836 2.39332C6.6228 2.33967 6.6479 2.28948 6.68214 2.24573C6.71639 2.20199 6.75909 2.16558 6.8077 2.13868C6.85631 2.11178 6.90984 2.09494 6.96509 2.08916C7.02035 2.08338 7.0762 2.08878 7.12932 2.10503C7.18245 2.12129 7.23176 2.14807 7.27432 2.18378C7.31688 2.21949 7.35182 2.26339 7.37706 2.31289C7.40229 2.36238 7.41731 2.41645 7.42122 2.47187L12.4728 50.7859C12.4745 50.7936 12.4757 50.8013 12.4765 50.8091C12.8773 51.2662 16.7505 52.1718 26.5 52.1718C36.2304 52.1718 40.1069 51.27 40.5226 50.8124L45.5775 2.47187C45.5814 2.41645 45.5964 2.36238 45.6216 2.31289C45.6469 2.26339 45.6818 2.21949 45.7244 2.18378C45.7669 2.14807 45.8163 2.12129 45.8694 2.10503C45.9225 2.08878 45.9784 2.08338 46.0336 2.08916C46.0889 2.09494 46.1424 2.11178 46.191 2.13868C46.2396 2.16558 46.2823 2.20199 46.3166 2.24573C46.3508 2.28948 46.3759 2.33967 46.3903 2.39332C46.4048 2.44696 46.4083 2.50297 46.4006 2.55799L41.3512 50.8596V50.8629C41.3512 51.4054 40.8435 52.0223 37.078 52.4919C33.5649 52.8671 30.0329 53.0367 26.5 52.9999Z" fill="#2F3A5A"/>
<path d="M26 17C24.0222 17 22.0888 17.5865 20.4443 18.6853C18.7998 19.7841 17.5181 21.3459 16.7612 23.1732C16.0043 25.0004 15.8063 27.0111 16.1922 28.9509C16.578 30.8907 17.5304 32.6725 18.9289 34.0711C20.3275 35.4696 22.1093 36.422 24.0491 36.8078C25.9889 37.1937 27.9996 36.9957 29.8268 36.2388C31.6541 35.4819 33.2159 34.2002 34.3147 32.5557C35.4135 30.9112 36 28.9778 36 27C35.9969 24.3488 34.9423 21.8071 33.0676 19.9324C31.1929 18.0577 28.6512 17.0031 26 17ZM30.5455 27.9091H26.9091V31.5455C26.9091 31.7866 26.8133 32.0178 26.6428 32.1883C26.4723 32.3588 26.2411 32.4545 26 32.4545C25.7589 32.4545 25.5277 32.3588 25.3572 32.1883C25.1867 32.0178 25.0909 31.7866 25.0909 31.5455V27.9091H21.4545C21.2134 27.9091 20.9822 27.8133 20.8117 27.6428C20.6412 27.4723 20.5455 27.2411 20.5455 27C20.5455 26.7589 20.6412 26.5277 20.8117 26.3572C20.9822 26.1867 21.2134 26.0909 21.4545 26.0909H25.0909V22.4545C25.0909 22.2134 25.1867 21.9822 25.3572 21.8117C25.5277 21.6412 25.7589 21.5455 26 21.5455C26.2411 21.5455 26.4723 21.6412 26.6428 21.8117C26.8133 21.9822 26.9091 22.2134 26.9091 22.4545V26.0909H30.5455C30.7866 26.0909 31.0178 26.1867 31.1883 26.3572C31.3588 26.5277 31.4545 26.7589 31.4545 27C31.4545 27.2411 31.3588 27.4723 31.1883 27.6428C31.0178 27.8133 30.7866 27.9091 30.5455 27.9091Z" fill="#42A004"/>
</g>
<defs>
<clipPath id="clip0_885_26327">
<rect width="53" height="53" fill="white"/>
</clipPath>
</defs>
</svg>
