<svg width="24" height="24" viewBox="0 0 24 24" fill="none" xmlns="http://www.w3.org/2000/svg">
<circle cx="12" cy="12" r="12" fill="#D9ECCD"/>
<g clip-path="url(#clip0_1998_11388)">
<path d="M15.75 6.5H8.25C7.01 6.5 6 7.51 6 8.75V15.25C6 16.49 7.01 17.5 8.25 17.5H15.75C16.99 17.5 18 16.49 18 15.25V8.75C18 7.51 16.99 6.5 15.75 6.5ZM8.25 7H15.75C16.715 7 17.5 7.785 17.5 8.75V10H6.5V8.75C6.5 7.785 7.285 7 8.25 7ZM15.75 17H8.25C7.285 17 6.5 16.215 6.5 15.25V10.5H17.5V15.25C17.5 16.215 16.715 17 15.75 17ZM15.5 8.5C15.5 8.225 15.725 8 16 8C16.275 8 16.5 8.225 16.5 8.5C16.5 8.775 16.275 9 16 9C15.725 9 15.5 8.775 15.5 8.5ZM14 8.5C14 8.225 14.225 8 14.5 8C14.775 8 15 8.225 15 8.5C15 8.775 14.775 9 14.5 9C14.225 9 14 8.775 14 8.5ZM12.5 8.5C12.5 8.225 12.725 8 13 8C13.275 8 13.5 8.225 13.5 8.5C13.5 8.775 13.275 9 13 9C12.725 9 12.5 8.775 12.5 8.5Z" fill="#338000"/>
</g>
<defs>
<clipPath id="clip0_1998_11388">
<rect width="12" height="12" fill="white" transform="translate(6 6)"/>
</clipPath>
</defs>
</svg>
