<svg width="26" height="32" viewBox="0 0 26 32" fill="none" xmlns="http://www.w3.org/2000/svg">
<path d="M25.1846 10.9176C23.0544 12.2353 21.7388 14.4941 21.7388 17.0039C21.7388 19.8275 23.4303 22.4 25.999 23.4667C25.4978 25.098 24.746 26.6039 23.8063 27.9843C22.4279 29.9294 20.987 31.9373 18.8569 31.9373C16.7267 31.9373 16.1002 30.6824 13.5942 30.6824C11.1508 30.6824 10.2737 32 8.2689 32C6.26408 32 4.88577 30.1804 3.31951 27.9216C1.25204 24.7843 0.061674 21.1451 -0.000976562 17.3176C-0.000976562 11.1059 4.00866 7.78039 8.0183 7.78039C10.1484 7.78039 11.9026 9.16078 13.2183 9.16078C14.4713 9.16078 16.4761 7.71765 18.8569 7.71765C21.3629 7.6549 23.7436 8.84706 25.1846 10.9176ZM17.7291 5.08235C18.7942 3.82745 19.3581 2.25882 19.4207 0.627451C19.4207 0.439216 19.4207 0.188235 19.3581 0C17.5412 0.188235 15.8496 1.06667 14.6593 2.44706C13.5942 3.63922 12.9677 5.1451 12.905 6.77647C12.905 6.96471 12.905 7.15294 12.9677 7.34118C13.093 7.34118 13.281 7.40392 13.4063 7.40392C15.0978 7.27843 16.6641 6.4 17.7291 5.08235Z" fill="black"/>
</svg>
