<svg width="30" height="30" viewBox="0 0 30 30" fill="none" xmlns="http://www.w3.org/2000/svg">
<circle cx="14.8909" cy="14.8909" r="14.8909" fill="#D9ECCD"/>
<path d="M18.7925 22.5004H18.7833C18.4508 22.4971 18.1658 22.2787 18.075 21.9587L14.9725 8.61456L11.8992 20.2962C11.7958 20.6179 11.53 20.8204 11.2142 20.8329C10.8933 20.8379 10.6158 20.6637 10.4967 20.3721L9.16167 15.8062C8.99167 15.3337 8.51917 15.0004 7.9925 15.0004H5.41667C5.18667 15.0004 5 14.8137 5 14.5837C5 14.3537 5.18667 14.1671 5.41667 14.1671H7.9925C8.87 14.1671 9.65833 14.7229 9.95417 15.5487L11.1808 19.7537L14.2642 8.0379C14.3725 7.70123 14.66 7.48956 14.9925 7.5004C15.3225 7.50623 15.6042 7.72373 15.695 8.04123L18.7917 21.3612L20.0958 15.7237C20.3433 14.8012 21.1708 14.1662 22.1117 14.1662H24.5833C24.8133 14.1662 25 14.3529 25 14.5829C25 14.8129 24.8133 14.9996 24.5833 14.9996H22.1117C21.5467 14.9996 21.0508 15.3804 20.905 15.9254L19.5108 21.9462C19.4058 22.2896 19.1208 22.5004 18.7925 22.5004Z" fill="#338000"/>
</svg>
