<svg width="24" height="24" viewBox="0 0 24 24" fill="none" xmlns="http://www.w3.org/2000/svg">
<path d="M15.7901 18.7108C15.8839 18.6178 15.9583 18.5072 16.009 18.3854C16.0598 18.2635 16.0859 18.1328 16.0859 18.0008C16.0859 17.8688 16.0598 17.7381 16.009 17.6162C15.9583 17.4944 15.8839 17.3838 15.7901 17.2908L11.2101 12.7108C11.1164 12.6178 11.042 12.5072 10.9912 12.3854C10.9405 12.2635 10.9143 12.1328 10.9143 12.0008C10.9143 11.8688 10.9405 11.7381 10.9912 11.6162C11.042 11.4944 11.1164 11.3838 11.2101 11.2908L15.7901 6.71079C15.8839 6.61783 15.9583 6.50723 16.009 6.38537C16.0598 6.26351 16.0859 6.1328 16.0859 6.00079C16.0859 5.86878 16.0598 5.73807 16.009 5.61622C15.9583 5.49436 15.8839 5.38376 15.7901 5.29079C15.6028 5.10454 15.3493 5 15.0851 5C14.821 5 14.5675 5.10454 14.3801 5.29079L9.79014 9.88079C9.22834 10.4433 8.91278 11.2058 8.91278 12.0008C8.91278 12.7958 9.22834 13.5583 9.79014 14.1208L14.3801 18.7108C14.5675 18.897 14.821 19.0016 15.0851 19.0016C15.3493 19.0016 15.6028 18.897 15.7901 18.7108Z" fill="#5E5F60"/>
</svg>
