<svg width="24" height="14" viewBox="0 0 24 14" fill="none" xmlns="http://www.w3.org/2000/svg">
<path d="M0.88029 9.09088L4.75029 13.0009C4.84325 13.0946 4.95385 13.169 5.07571 13.2198C5.19757 13.2705 5.32828 13.2967 5.46029 13.2967C5.5923 13.2967 5.72301 13.2705 5.84487 13.2198C5.96673 13.169 6.07733 13.0946 6.17029 13.0009C6.26402 12.9079 6.33841 12.7973 6.38918 12.6755C6.43995 12.5536 6.46609 12.4229 6.46609 12.2909C6.46609 12.1589 6.43995 12.0282 6.38918 11.9063C6.33841 11.7844 6.26402 11.6738 6.17029 11.5809L2.61029 8.00088H23.0003C23.2655 8.00088 23.5199 7.89552 23.7074 7.70798C23.8949 7.52045 24.0003 7.26609 24.0003 7.00088C24.0003 6.73566 23.8949 6.48131 23.7074 6.29377C23.5199 6.10623 23.2655 6.00088 23.0003 6.00088H2.55029L6.17029 2.38088C6.34758 2.1949 6.44648 1.94782 6.44648 1.69088C6.44648 1.43394 6.34758 1.18685 6.17029 1.00088C6.07733 0.907148 5.96673 0.832753 5.84487 0.781985C5.72301 0.731216 5.5923 0.705078 5.46029 0.705078C5.32828 0.705078 5.19757 0.731216 5.07571 0.781985C4.95385 0.832753 4.84325 0.907148 4.75029 1.00088L0.88029 4.85088C0.318488 5.41338 0.00292969 6.17587 0.00292969 6.97088C0.00292969 7.76588 0.318488 8.52838 0.88029 9.09088Z" fill="black"/>
</svg>
