<svg width="40" height="40" viewBox="0 0 40 40" fill="none" xmlns="http://www.w3.org/2000/svg">
<path d="M19.9785 39.7354C30.8905 39.7354 39.7363 30.8895 39.7363 19.9775C39.7363 9.0656 30.8905 0.219727 19.9785 0.219727C9.06658 0.219727 0.220703 9.0656 0.220703 19.9775C0.220703 30.8895 9.06658 39.7354 19.9785 39.7354Z" fill="#E4E4E4"/>
<path d="M13.832 18.0234C15.0445 18.0234 16.0273 17.0406 16.0273 15.8281C16.0273 14.6157 15.0445 13.6328 13.832 13.6328C12.6196 13.6328 11.6367 14.6157 11.6367 15.8281C11.6367 17.0406 12.6196 18.0234 13.832 18.0234Z" fill="#3E4347"/>
<path d="M26.125 18.0234C27.3374 18.0234 28.3203 17.0406 28.3203 15.8281C28.3203 14.6157 27.3374 13.6328 26.125 13.6328C24.9126 13.6328 23.9297 14.6157 23.9297 15.8281C23.9297 17.0406 24.9126 18.0234 26.125 18.0234Z" fill="#3E4347"/>
<path d="M27.9199 29.7884C27.7749 29.7887 27.632 29.7529 27.5042 29.6844C27.3764 29.6159 27.2676 29.5168 27.1875 29.3959C25.5757 26.9683 22.8808 25.5189 19.9786 25.5189C17.0764 25.5189 14.381 26.9683 12.77 29.3959C12.6412 29.5899 12.4406 29.7249 12.2124 29.771C11.9841 29.8172 11.7468 29.7708 11.5527 29.642C11.3587 29.5132 11.2237 29.3126 11.1776 29.0843C11.1314 28.856 11.1778 28.6187 11.3066 28.4247C13.2442 25.5053 16.4863 23.7627 19.9786 23.7627C23.4709 23.7627 26.7129 25.5053 28.6505 28.4242C28.7384 28.5565 28.7887 28.71 28.7963 28.8686C28.8038 29.0272 28.7682 29.1849 28.6932 29.3248C28.6183 29.4648 28.5068 29.5818 28.3706 29.6635C28.2344 29.7451 28.0787 29.7883 27.9199 29.7884Z" fill="#3E4347"/>
<path d="M36.4798 9.11426C37.4722 11.5968 37.9814 14.2459 37.9801 16.9195C37.9801 28.5502 28.5512 37.9791 16.9204 37.9791C14.2469 37.9805 11.5977 37.4712 9.11523 36.4788C12.3379 38.6077 16.1162 39.7403 19.9785 39.7354C30.8905 39.7354 39.7363 30.8896 39.7363 19.9775C39.7413 16.1152 38.6087 12.3369 36.4798 9.11426Z" fill="#E4E4E4"/>
</svg>
