<svg width="40" height="40" viewBox="0 0 40 40" fill="none" xmlns="http://www.w3.org/2000/svg">
<path d="M20 40C31.0457 40 40 31.0457 40 20C40 8.9543 31.0457 0 20 0C8.9543 0 0 8.9543 0 20C0 31.0457 8.9543 40 20 40Z" fill="#FFCA28"/>
<path d="M40 20C40 31.0453 31.0453 40 20 40C8.95469 40 0 31.0453 0 20C0 19.207 0.0460938 18.425 0.135937 17.6562C1.29609 27.5969 9.74766 35.3125 20 35.3125C30.2523 35.3125 38.7039 27.5969 39.8641 17.6562C39.9548 18.4342 40.0002 19.2168 40 20Z" fill="#FFCA28"/>
<path d="M12.2039 17.999H27.7953C28.9906 17.999 29.9609 18.9693 29.9609 20.1646V20.2029C29.9609 25.6795 25.5148 30.1256 20.0383 30.1256H20C14.5023 30.1256 10.0391 25.6623 10.0391 20.1646C10.0391 18.9693 11.0094 17.999 12.2047 17.999H12.2039Z" fill="#473535"/>
<path d="M26.1559 28.0166C24.4699 29.3377 22.3465 30.126 20.0379 30.126H19.9996C17.6801 30.126 15.5465 29.3338 13.8535 28.0041C15.2434 26.1213 17.4793 24.8994 19.9996 24.8994C22.5199 24.8994 24.766 26.126 26.1559 28.0166Z" fill="#FF7E27"/>
<path d="M28.8773 18.2898V18.8656C28.8773 20.3 27.7141 21.4641 26.2789 21.4641H13.7195C12.2844 21.4641 11.1211 20.3 11.1211 18.8656V18.2898C11.4398 18.1055 11.8094 18 12.2039 18H27.7953C28.1891 18 28.5594 18.1055 28.8781 18.2898H28.8773Z" fill="white"/>
<path d="M23.4307 13.2152C23.1846 13.2152 22.9361 13.1488 22.7111 13.0098C22.0689 12.6121 21.8721 11.7684 22.2689 11.1262C22.4736 10.7957 24.3447 7.89648 27.008 7.89648C29.6713 7.89648 31.5424 10.7957 31.7471 11.1262C32.1447 11.7684 31.9463 12.6105 31.3041 13.0082C30.6627 13.4051 29.8221 13.2082 29.4244 12.5684C29.0275 11.9355 27.915 10.6301 27.0088 10.6301C26.1025 10.6301 24.99 11.9355 24.5932 12.5684C24.4708 12.7663 24.2998 12.9297 24.0964 13.0429C23.8931 13.1561 23.6642 13.2154 23.4314 13.2152H23.4307ZM9.41347 13.2152C9.16738 13.2152 8.91894 13.1488 8.69394 13.0098C8.05176 12.6121 7.85488 11.7684 8.25176 11.1262C8.45644 10.7957 10.3275 7.89648 12.9908 7.89648C15.6541 7.89648 17.5252 10.7957 17.7299 11.1262C18.1275 11.7684 17.9291 12.6105 17.2869 13.0082C16.6447 13.4059 15.8025 13.2074 15.4049 12.5652C15.0103 11.9363 13.8978 10.6309 12.9916 10.6309C12.0853 10.6309 10.9728 11.9363 10.576 12.5691C10.4536 12.7671 10.2826 12.9304 10.0792 13.0437C9.87591 13.1569 9.64699 13.2162 9.41426 13.216L9.41347 13.2152Z" fill="#3E4347"/>
</svg>
