<svg width="32" height="32" viewBox="0 0 32 32" fill="none" xmlns="http://www.w3.org/2000/svg">
<path d="M30.4783 22.8062C30.5237 23.4989 20.2412 28 16 28C11 28 9.5 26.5 9.5 26.5L8 30.5H1.5V17C1.5 17 3 15.5 6.5 15.5C10 15.5 13.5 18 13.5 18C13.5 18 15 17 17 17C19 17 20.5 18.5 20.5 18.5C20.5 18.5 20.5 14.5 21.5 13L19.0528 8.10556C18.8867 7.77335 18.6314 7.49396 18.3154 7.29869C17.9995 7.10342 17.6354 7 17.2639 7H12C11.7348 7 11.4804 6.89464 11.2929 6.70711C11.1054 6.51957 11 6.26522 11 6V5L13.5 1.5H15L22.5 4.5C22.5 4.5 30 15.5 30.4783 22.8062Z" fill="#F5CBAA"/>
<path d="M21.9995 22C21.9009 22 21.8046 21.9708 21.7226 21.9159C20.0196 20.7806 20 18.5926 20 18.5C19.9998 18.3674 20.0524 18.2401 20.146 18.1463C20.2396 18.0524 20.3668 17.9995 20.4994 17.9993C20.632 17.9992 20.7592 18.0517 20.8531 18.1453C20.947 18.239 20.9998 18.3661 21 18.4987C21 18.525 21.0285 20.2514 22.2774 21.084C22.3667 21.1436 22.4345 21.2303 22.4707 21.3313C22.5069 21.4324 22.5096 21.5424 22.4785 21.6451C22.4473 21.7479 22.3839 21.8378 22.2977 21.9018C22.2114 21.9657 22.1069 22.0001 21.9995 22ZM11.5 26C11.4011 26 11.3045 25.9707 11.2222 25.9157C11.14 25.8608 11.0759 25.7827 11.0381 25.6913C11.0002 25.6 10.9903 25.4994 11.0096 25.4025C11.0289 25.3055 11.0765 25.2164 11.1465 25.1464L13.8896 22.4033C14.0644 22.2288 14.1934 22.0138 14.265 21.7774C14.3365 21.541 14.3485 21.2906 14.2998 21.0484L14.0097 19.5981C13.9968 19.5337 13.9968 19.4674 14.0095 19.403C14.0222 19.3385 14.0476 19.2773 14.084 19.2226C14.1204 19.168 14.1672 19.1211 14.2218 19.0845C14.2763 19.048 14.3376 19.0226 14.402 19.0097C14.4663 18.9968 14.5326 18.9967 14.5971 19.0095C14.6615 19.0222 14.7227 19.0475 14.7774 19.084C14.832 19.1204 14.8789 19.1672 14.9155 19.2218C14.952 19.2763 14.9775 19.3375 14.9903 19.4019L15.2804 20.8524C15.3615 21.2559 15.3416 21.6733 15.2223 22.0673C15.103 22.4613 14.8881 22.8196 14.5968 23.1104L11.8536 25.8536C11.8072 25.9001 11.7521 25.9369 11.6914 25.9621C11.6307 25.9872 11.5657 26.0001 11.5 26ZM14.5 5.5H11.5C11.3674 5.5 11.2402 5.44732 11.1465 5.35355C11.0527 5.25979 11 5.13261 11 5C11 4.86739 11.0527 4.74021 11.1465 4.64645C11.2402 4.55268 11.3674 4.5 11.5 4.5H14.5C14.6326 4.5 14.7598 4.55268 14.8536 4.64645C14.9473 4.74021 15 4.86739 15 5C15 5.13261 14.9473 5.25979 14.8536 5.35355C14.7598 5.44732 14.6326 5.5 14.5 5.5Z" fill="#DEB89A"/>
</svg>
