<svg width="24" height="24" viewBox="0 0 24 24" fill="none" xmlns="http://www.w3.org/2000/svg">
<circle cx="12" cy="12" r="12" fill="#D9ECCD"/>
<path d="M14.25 6H9.75C8.5095 6 7.5 7.0095 7.5 8.25V17.5C7.5 17.6855 7.602 17.855 7.767 17.9425C7.929 18.0275 8.1315 18.016 8.282 17.9125L9.335 17.1925L10.388 17.9125C10.5595 18.0295 10.7815 18.029 10.953 17.912L12.0035 17.1925L13.0535 17.912C13.1395 17.9705 13.238 18 13.336 18C13.435 18 13.534 17.9705 13.619 17.9115L14.6685 17.1925L15.717 17.9115C15.871 18.0165 16.068 18.0285 16.233 17.9415C16.3975 17.8545 16.4995 17.685 16.4995 17.499V8.25C16.4995 7.0095 15.4905 6 14.25 6ZM16 17.5L14.8105 16.684C14.7245 16.6255 14.6125 16.6255 14.528 16.684L13.3355 17.5L12.145 16.684C12.0595 16.626 11.9475 16.626 11.8625 16.684L10.6705 17.5005L9.4765 16.6845C9.3915 16.6265 9.279 16.6265 9.1945 16.6845L8.0005 17.5005V8.25C8.0005 7.285 8.7855 6.5 9.7505 6.5H14.2505C15.2155 6.5 16.0005 7.285 16.0005 8.25L16 17.5ZM14.5 9.75C14.5 9.888 14.388 10 14.25 10H9.75C9.612 10 9.5 9.888 9.5 9.75C9.5 9.612 9.612 9.5 9.75 9.5H14.25C14.388 9.5 14.5 9.612 14.5 9.75ZM14.5 11.25C14.5 11.388 14.388 11.5 14.25 11.5H9.75C9.612 11.5 9.5 11.388 9.5 11.25C9.5 11.112 9.612 11 9.75 11H14.25C14.388 11 14.5 11.112 14.5 11.25ZM13 12.75C13 12.888 12.888 13 12.75 13H9.75C9.612 13 9.5 12.888 9.5 12.75C9.5 12.612 9.612 12.5 9.75 12.5H12.75C12.888 12.5 13 12.612 13 12.75Z" fill="#338000"/>
</svg>
