<svg width="22" height="22" viewBox="0 0 22 22" fill="none" xmlns="http://www.w3.org/2000/svg">
<path d="M2.5 0.25C1.90326 0.25 1.33097 0.487053 0.90901 0.90901C0.487053 1.33097 0.25 1.90326 0.25 2.5V7C0.25259 7.19811 0.332439 7.38737 0.472534 7.52747C0.612629 7.66756 0.801893 7.74741 1 7.75H4C4.19811 7.74741 4.38737 7.66756 4.52747 7.52747C4.66756 7.38737 4.74741 7.19811 4.75 7V2.5C4.75 1.90326 4.51295 1.33097 4.09099 0.90901C3.66903 0.487053 3.09674 0.25 2.5 0.25Z" fill="#FAA701"/>
<path d="M2.5 0.25H5V2.25H2.5V0.25Z" fill="#FAA701"/>
<path d="M18.7501 4.99953V20.9995C18.7475 21.1976 18.6677 21.3869 18.5276 21.527C18.3875 21.6671 18.1982 21.7469 18.0001 21.7495H7.5001C6.63896 21.7469 5.81384 21.4036 5.20491 20.7947C4.59599 20.1858 4.25274 19.3607 4.2501 18.4995V1.86953C4.25101 1.47826 4.1094 1.10005 3.85175 0.805585C3.5941 0.511123 3.23803 0.320566 2.8501 0.269531H14.0001C15.2564 0.26952 16.4616 0.767219 17.3518 1.6537C18.242 2.54017 18.7448 3.74322 18.7501 4.99953Z" fill="#F9CD16"/>
<path d="M14.5 5.75H8.5C8.30109 5.75 8.11032 5.67098 7.96967 5.53033C7.82902 5.38968 7.75 5.19891 7.75 5C7.75 4.80109 7.82902 4.61032 7.96967 4.46967C8.11032 4.32902 8.30109 4.25 8.5 4.25H14.5C14.6989 4.25 14.8897 4.32902 15.0303 4.46967C15.171 4.61032 15.25 4.80109 15.25 5C15.25 5.19891 15.171 5.38968 15.0303 5.53033C14.8897 5.67098 14.6989 5.75 14.5 5.75ZM11.5 12.75H8.5C8.30109 12.75 8.11032 12.671 7.96967 12.5303C7.82902 12.3897 7.75 12.1989 7.75 12C7.75 11.8011 7.82902 11.6103 7.96967 11.4697C8.11032 11.329 8.30109 11.25 8.5 11.25H11.5C11.6989 11.25 11.8897 11.329 12.0303 11.4697C12.171 11.6103 12.25 11.8011 12.25 12C12.25 12.1989 12.171 12.3897 12.0303 12.5303C11.8897 12.671 11.6989 12.75 11.5 12.75ZM14.5 9.25H8.5C8.30109 9.25 8.11032 9.17098 7.96967 9.03033C7.82902 8.88968 7.75 8.69891 7.75 8.5C7.75 8.30109 7.82902 8.11032 7.96967 7.96967C8.11032 7.82902 8.30109 7.75 8.5 7.75H14.5C14.6989 7.75 14.8897 7.82902 15.0303 7.96967C15.171 8.11032 15.25 8.30109 15.25 8.5C15.25 8.69891 15.171 8.88968 15.0303 9.03033C14.8897 9.17098 14.6989 9.25 14.5 9.25Z" fill="white"/>
<path d="M21.75 16.5V18.5C21.7474 19.3611 21.4041 20.1863 20.7952 20.7952C20.1863 21.4041 19.3612 21.7474 18.5 21.75H7.91003C8.29489 21.6465 8.63484 21.4189 8.87712 21.1025C9.11941 20.7861 9.25049 20.3985 9.25003 20V16.5C9.25003 16.1685 9.38173 15.8505 9.61615 15.6161C9.85057 15.3817 10.1685 15.25 10.5 15.25H20.5C20.8316 15.25 21.1495 15.3817 21.3839 15.6161C21.6183 15.8505 21.75 16.1685 21.75 16.5Z" fill="#FAA701"/>
</svg>
