<svg width="32" height="32" viewBox="0 0 32 32" fill="none" xmlns="http://www.w3.org/2000/svg">
<g clip-path="url(#clip0_727_14881)">
<path d="M27.3103 27.3137C33.5587 21.0653 33.5587 10.9347 27.3103 4.68629C21.0619 -1.5621 10.9312 -1.5621 4.68285 4.68629C-1.56554 10.9347 -1.56554 21.0653 4.68285 27.3137C10.9312 33.5621 21.0619 33.5621 27.3103 27.3137Z" fill="#FFD741"/>
<path fill-rule="evenodd" clip-rule="evenodd" d="M20.6459 19.1576L10.8359 21.7863C10.7086 21.8199 10.5892 21.8783 10.4846 21.9581C10.3799 22.038 10.2921 22.1377 10.226 22.2516C10.16 22.3654 10.1171 22.4912 10.0998 22.6217C10.0825 22.7522 10.0911 22.8848 10.1252 23.0119C10.1592 23.1391 10.2181 23.2583 10.2983 23.3626C10.3785 23.467 10.4785 23.5545 10.5926 23.6201C10.7067 23.6857 10.8327 23.7281 10.9632 23.745C11.0938 23.7618 11.2264 23.7527 11.3534 23.7182L21.1634 21.0894C21.2907 21.0558 21.41 20.9974 21.5147 20.9176C21.6193 20.8378 21.7072 20.7381 21.7732 20.6242C21.8393 20.5103 21.8821 20.3845 21.8995 20.2541C21.9168 20.1236 21.9081 19.9909 21.8741 19.8638C21.84 19.7367 21.7812 19.6175 21.701 19.5131C21.6208 19.4088 21.5207 19.3213 21.4066 19.2557C21.2925 19.19 21.1666 19.1476 21.036 19.1308C20.9055 19.1139 20.7729 19.123 20.6459 19.1576ZM13.3148 11.4851C13.3148 11.089 13.1974 10.7018 12.9774 10.3724C12.7573 10.0431 12.4446 9.78639 12.0787 9.63479C11.7127 9.4832 11.3101 9.44352 10.9216 9.52077C10.5331 9.59802 10.1763 9.78874 9.89619 10.0688C9.61611 10.3489 9.42536 10.7057 9.34807 11.0942C9.27078 11.4826 9.31042 11.8853 9.46198 12.2512C9.61354 12.6172 9.87021 12.93 10.1995 13.15C10.5289 13.3701 10.916 13.4875 11.3121 13.4876C11.843 13.4869 12.352 13.2757 12.7275 12.9003C13.1029 12.5249 13.3141 12.016 13.3148 11.4851ZM22.6898 11.4851C22.6896 11.8811 22.5721 12.2682 22.352 12.5975C22.1319 12.9267 21.8191 13.1833 21.4532 13.3348C21.0872 13.4863 20.6846 13.5258 20.2962 13.4485C19.9078 13.3712 19.551 13.1804 19.271 12.9003C18.991 12.6203 18.8003 12.2634 18.7231 11.875C18.6458 11.4866 18.6855 11.084 18.8371 10.7181C18.9887 10.3522 19.2453 10.0394 19.5746 9.81942C19.9039 9.59939 20.2911 9.48195 20.6871 9.48193C21.2182 9.48246 21.7273 9.69369 22.1028 10.0693C22.4783 10.4448 22.6894 10.954 22.6898 11.4851Z" fill="#4E4258"/>
</g>
<defs>
<clipPath id="clip0_727_14881">
<rect width="32" height="32" fill="white"/>
</clipPath>
</defs>
</svg>
