<svg width="32" height="32" viewBox="0 0 32 32" fill="none" xmlns="http://www.w3.org/2000/svg">
<path fill-rule="evenodd" clip-rule="evenodd" d="M27.176 11.6949C28.1917 14.4259 28.1762 17.4336 27.1325 20.1539C26.259 21.9624 29.1515 23.3019 29.924 21.2634C30.0425 20.9504 30.217 20.5294 30.3475 20.1034C31.4005 16.5784 31.0885 12.7539 29.4755 9.40093L29.8505 9.02543C29.929 8.92443 29.976 8.82393 29.997 8.72643C30.0735 8.39093 29.861 8.09343 29.5785 8.00143L25.474 6.90393C24.918 6.83093 24.6405 7.27593 24.721 7.65193L25.8195 11.7459C26.034 12.2624 26.5605 12.2799 26.8465 12.0244L27.176 11.6949Z" fill="#F55C7A"/>
<path fill-rule="evenodd" clip-rule="evenodd" d="M24.4246 15.8845C24.4246 12.0065 21.7986 8.74 18.2226 7.7595C17.4908 7.55894 16.7353 7.4577 15.9766 7.4585C11.3106 7.4585 7.52856 11.2305 7.52856 15.8845C7.52856 20.533 11.3071 24.3105 15.9766 24.3105C20.6426 24.3105 24.4246 20.5385 24.4246 15.8845Z" fill="#76A8FA"/>
<path fill-rule="evenodd" clip-rule="evenodd" d="M22.121 15.8844C22.121 12.4999 19.3695 9.75745 15.9765 9.75745C12.5835 9.75745 9.8335 12.4999 9.8335 15.8844C9.8335 19.2689 12.583 22.0129 15.9765 22.0129C19.37 22.0129 22.121 19.2684 22.121 15.8844Z" fill="#F0F0F0"/>
<path fill-rule="evenodd" clip-rule="evenodd" d="M16.2521 7.83395C19.8281 8.81495 22.4541 12.081 22.4541 15.959C22.4541 20.1695 19.3576 23.66 15.3106 24.286C15.5301 24.3015 15.7536 24.3105 15.9766 24.3105C20.6426 24.3105 24.4246 20.5385 24.4246 15.8845C24.4246 12.0065 21.7986 8.73995 18.2226 7.75945C17.0666 7.4432 15.8568 7.37505 14.6726 7.55945C15.2146 7.60095 15.7431 7.69295 16.2521 7.83395Z" fill="#5694F7"/>
<path d="M14.9144 17.6315C14.817 17.6315 14.7218 17.6032 14.6403 17.5499C14.5588 17.4965 14.4947 17.4206 14.4557 17.3313C14.4168 17.2421 14.4048 17.1434 14.4212 17.0474C14.4376 16.9514 14.4816 16.8623 14.5479 16.791L15.4759 15.794V13.116C15.4759 13.0503 15.4889 12.9853 15.514 12.9246C15.5391 12.864 15.5759 12.8088 15.6224 12.7624C15.6688 12.716 15.7239 12.6792 15.7846 12.654C15.8452 12.6289 15.9103 12.616 15.9759 12.616C16.0416 12.616 16.1066 12.6289 16.1673 12.654C16.2279 12.6792 16.283 12.716 16.3295 12.7624C16.3759 12.8088 16.4127 12.864 16.4379 12.9246C16.463 12.9853 16.4759 13.0503 16.4759 13.116V15.991C16.4759 16.1173 16.428 16.239 16.3419 16.3315L15.2799 17.4725C15.2333 17.5227 15.1767 17.5628 15.1138 17.5902C15.0509 17.6175 14.983 17.6316 14.9144 17.6315Z" fill="#6E6565"/>
<path fill-rule="evenodd" clip-rule="evenodd" d="M16.3915 10.14C18.5275 11.1 20.0145 13.2425 20.0145 15.7315C20.0145 18.9105 17.5875 21.5245 14.4785 21.829C14.958 21.949 15.46 22.0135 15.9765 22.0135C19.3695 22.0135 22.121 19.269 22.121 15.885C22.121 12.713 19.7045 10.104 16.6075 9.78951C16.1954 9.74793 15.7802 9.74726 15.368 9.78751C15.722 9.87551 16.0635 9.99401 16.3915 10.14Z" fill="#DBDBDB"/>
<path fill-rule="evenodd" clip-rule="evenodd" d="M27.7791 9.61299C29.3921 12.966 29.7056 16.7905 28.6526 20.3155C28.5201 20.7415 28.3476 21.1625 28.2291 21.4755C28.1261 21.745 27.9886 21.954 27.8261 22.112C28.5481 22.4705 29.5226 22.3225 29.9236 21.2635C30.0421 20.9505 30.2166 20.5295 30.3471 20.1035C31.4001 16.5785 31.0881 12.754 29.4751 9.40099L29.8501 9.02549C29.9286 8.92449 29.9756 8.82398 29.9966 8.72648C30.0731 8.39098 29.8606 8.09349 29.5781 8.00149L27.8831 7.54749C28.1656 7.63949 28.6871 8.24649 28.6101 8.58249C28.5833 8.69151 28.5333 8.79349 28.4636 8.88149L27.7791 9.61299Z" fill="#EB4163"/>
<path fill-rule="evenodd" clip-rule="evenodd" d="M11.816 4.77496C14.5555 3.76197 17.5695 3.77743 20.2985 4.81846C22.112 5.68996 23.4525 2.80446 21.411 2.03396C21.097 1.91546 20.675 1.74196 20.248 1.61146C16.714 0.560962 12.88 0.872462 9.51801 2.48096L9.14151 2.10696C9.05344 2.03686 8.95102 1.98701 8.84151 1.96096C8.50501 1.88446 8.20701 2.09646 8.11451 2.37846L7.01451 6.47396C6.94151 7.02696 7.38751 7.30346 7.76451 7.22546L11.869 6.12796C12.387 5.91396 12.4045 5.38896 12.146 5.10346L11.816 4.77496Z" fill="#F55C7A"/>
<path fill-rule="evenodd" clip-rule="evenodd" d="M9.73092 4.17295C13.0924 2.56445 16.9269 2.25145 20.4614 3.30145C20.8884 3.43345 21.3104 3.60595 21.6244 3.72395C21.8929 3.82645 22.1039 3.96395 22.2624 4.12545C22.6199 3.40545 22.4734 2.43345 21.4114 2.03345C21.0974 1.91495 20.6754 1.74145 20.2484 1.61095C16.7139 0.560954 12.8799 0.872454 9.51792 2.48095L9.14142 2.10695C9.05336 2.03685 8.95093 1.987 8.84142 1.96095C8.50492 1.88445 8.20692 2.09645 8.11442 2.37845L7.65942 4.06895C7.75192 3.78745 8.36042 3.26745 8.69692 3.34395C8.79442 3.36645 8.89592 3.41345 8.99492 3.48995L9.73092 4.17295Z" fill="#EB4163"/>
<path fill-rule="evenodd" clip-rule="evenodd" d="M4.82401 20.2529C3.80827 17.5213 3.82374 14.513 4.86751 11.7919C5.74101 9.98344 2.84851 8.64594 2.07601 10.6824C1.95751 10.9954 1.78301 11.4164 1.65251 11.8424C0.59951 15.3674 0.91151 19.1919 2.52451 22.5449L2.14951 22.9204C2.0793 23.0081 2.02928 23.1102 2.00301 23.2194C1.92651 23.5549 2.13901 23.8524 2.42151 23.9444L6.52751 25.0419C7.08201 25.1149 7.35901 24.6699 7.28051 24.2939L6.18051 20.1999C5.96601 19.6834 5.43951 19.6659 5.15351 19.9214L4.82401 20.2529Z" fill="#F55C7A"/>
<path fill-rule="evenodd" clip-rule="evenodd" d="M3.61746 11.0705C2.57296 13.787 2.12296 17.161 3.80396 21.4705L4.13346 21.142C4.41946 20.8845 4.94596 20.902 5.15896 21.4185L6.08146 24.9245L6.52796 25.043C7.08246 25.116 7.35946 24.671 7.28096 24.295L6.18096 20.201C5.96646 19.6845 5.43996 19.667 5.15396 19.9225L4.82446 20.253C3.80872 17.5213 3.82419 14.513 4.86796 11.792C5.40846 10.672 4.50546 9.73295 3.55496 9.66345C3.80396 10.041 3.87546 10.535 3.61746 11.0705Z" fill="#EB4163"/>
<path fill-rule="evenodd" clip-rule="evenodd" d="M20.0375 27.225C17.2979 28.238 14.2839 28.2225 11.555 27.1815C9.74345 26.31 8.40095 29.1955 10.4425 29.966C10.7565 30.0845 11.1785 30.258 11.6055 30.3885C15.14 31.439 18.974 31.1275 22.3375 29.517L22.7125 29.8925C22.8135 29.969 22.915 30.016 23.0125 30.0385C23.349 30.115 23.647 29.903 23.7395 29.621L24.8395 25.5255C24.9125 24.9725 24.4665 24.696 24.0895 24.774L19.985 25.8715C19.467 26.0855 19.4515 26.609 19.708 26.894L20.0375 27.225Z" fill="#F55C7A"/>
<path fill-rule="evenodd" clip-rule="evenodd" d="M22.1245 27.8269C18.761 29.4354 14.927 29.7484 11.3925 28.6984C10.9655 28.5664 10.5435 28.3939 10.2295 28.2739C9.96095 28.1729 9.74995 28.0354 9.59145 27.8739C9.23395 28.5939 9.38045 29.5659 10.4425 29.9659C10.7565 30.0844 11.1785 30.2579 11.6055 30.3884C15.14 31.4389 18.974 31.1274 22.3375 29.5169L22.7125 29.8924C22.8135 29.9689 22.915 30.0159 23.0125 30.0384C23.349 30.1149 23.647 29.9029 23.7395 29.6209L24.1945 27.9289C24.102 28.2124 23.4935 28.7324 23.159 28.6559C23.0495 28.6297 22.9471 28.5799 22.859 28.5099L22.1245 27.8269Z" fill="#EB4163"/>
<path d="M15.9765 9.25745C12.3135 9.25745 9.3335 12.2304 9.3335 15.8844C9.3335 19.5394 12.3135 22.5129 15.9765 22.5129C19.64 22.5129 22.621 19.5394 22.621 15.8844C22.621 12.2304 19.64 9.25745 15.9765 9.25745ZM16.4765 21.4874V21.1239C16.4765 20.9913 16.4238 20.8642 16.3301 20.7704C16.2363 20.6766 16.1091 20.6239 15.9765 20.6239C15.8439 20.6239 15.7167 20.6766 15.6229 20.7704C15.5292 20.8642 15.4765 20.9913 15.4765 21.1239V21.4874C12.764 21.2484 10.599 19.0894 10.359 16.3844H10.7235C10.8561 16.3844 10.9833 16.3318 11.077 16.238C11.1708 16.1442 11.2235 16.0171 11.2235 15.8844C11.2235 15.7518 11.1708 15.6247 11.077 15.5309C10.9833 15.4371 10.8561 15.3844 10.7235 15.3844H10.359C10.5995 12.6799 12.764 10.5219 15.4765 10.2829V10.6444C15.4765 10.7771 15.5292 10.9042 15.6229 10.998C15.7167 11.0918 15.8439 11.1444 15.9765 11.1444C16.1091 11.1444 16.2363 11.0918 16.3301 10.998C16.4238 10.9042 16.4765 10.7771 16.4765 10.6444V10.2829C19.1895 10.5219 21.355 12.6799 21.5955 15.3844H21.23C21.0974 15.3844 20.9702 15.4371 20.8764 15.5309C20.7827 15.6247 20.73 15.7518 20.73 15.8844C20.73 16.0171 20.7827 16.1442 20.8764 16.238C20.9702 16.3318 21.0974 16.3844 21.23 16.3844H21.5955C21.3555 19.0899 19.1895 21.2484 16.4765 21.4874Z" fill="#BDE0FE"/>
</svg>
