<svg width="32" height="32" viewBox="0 0 32 32" fill="none" xmlns="http://www.w3.org/2000/svg">
<g clip-path="url(#clip0_727_14959)">
<path d="M0.5 7.62H19.1133V31.4733H0.5V7.62Z" fill="#FFB044"/>
<path d="M19.1133 7.62V29.9H6.53331C5.67742 29.8996 4.85671 29.5594 4.25163 28.9541C3.64655 28.3487 3.30664 27.5279 3.30664 26.672V7.62H19.1133Z" fill="#FFC261"/>
<path d="M9.27344 14.0399H31.5001V31.4733H9.27344V14.0399Z" fill="#EE6148"/>
<path d="M31.5003 14.0399V29.8999H15.3003C14.4441 29.8999 13.6231 29.5598 13.0177 28.9545C12.4124 28.3491 12.0723 27.528 12.0723 26.6719V14.0399H31.5003Z" fill="#FF6E56"/>
<path d="M14.6667 9.5473H14.4154V4.63863C14.4154 4.03332 14.2961 3.43394 14.0645 2.87471C13.8329 2.31548 13.4933 1.80736 13.0653 1.37934C12.6373 0.951323 12.1292 0.611802 11.5699 0.380161C11.0107 0.148521 10.4113 0.0292969 9.80603 0.0292969C9.20072 0.0292969 8.60134 0.148521 8.04211 0.380161C7.48288 0.611802 6.97475 0.951323 6.54674 1.37934C6.11872 1.80736 5.7792 2.31548 5.54756 2.87471C5.31592 3.43394 5.19669 4.03332 5.19669 4.63863V9.5473H4.94336C4.81075 9.5473 4.68357 9.59998 4.58981 9.69374C4.49604 9.78751 4.44336 9.91469 4.44336 10.0473C4.44336 10.1799 4.49604 10.3071 4.58981 10.4009C4.68357 10.4946 4.81075 10.5473 4.94336 10.5473H6.44669C6.5793 10.5473 6.70648 10.4946 6.80025 10.4009C6.89401 10.3071 6.94669 10.1799 6.94669 10.0473C6.94669 9.91469 6.89401 9.78751 6.80025 9.69374C6.70648 9.59998 6.5793 9.5473 6.44669 9.5473H6.20003V4.63863C6.20003 3.68138 6.58029 2.76333 7.25718 2.08645C7.93406 1.40956 8.8521 1.0293 9.80936 1.0293C10.7666 1.0293 11.6847 1.40956 12.3615 2.08645C13.0384 2.76333 13.4187 3.68138 13.4187 4.63863V9.5473H13.1674C13.0348 9.5473 12.9076 9.59998 12.8138 9.69374C12.72 9.78751 12.6674 9.91469 12.6674 10.0473C12.6674 10.1799 12.72 10.3071 12.8138 10.4009C12.9076 10.4946 13.0348 10.5473 13.1674 10.5473H14.6667C14.7993 10.5473 14.9265 10.4946 15.0202 10.4009C15.114 10.3071 15.1667 10.1799 15.1667 10.0473C15.1667 9.91469 15.114 9.78751 15.0202 9.69374C14.9265 9.59998 14.7993 9.5473 14.6667 9.5473ZM25.0834 16.218H23.6307C23.4981 16.218 23.3709 16.2706 23.2771 16.3644C23.1834 16.4582 23.1307 16.5854 23.1307 16.718C23.1307 16.8506 23.1834 16.9777 23.2771 17.0715C23.3709 17.1653 23.4981 17.218 23.6307 17.218H23.8574V18.1366C23.8447 19.0489 23.4735 19.9195 22.8239 20.5601C22.1743 21.2007 21.2987 21.5599 20.3864 21.5599C19.474 21.5599 18.5984 21.2007 17.9488 20.5601C17.2993 19.9195 16.928 19.0489 16.9154 18.1366V17.218H17.1414C17.274 17.218 17.4011 17.1653 17.4949 17.0715C17.5887 16.9777 17.6414 16.8506 17.6414 16.718C17.6414 16.5854 17.5887 16.4582 17.4949 16.3644C17.4011 16.2706 17.274 16.218 17.1414 16.218H15.6894C15.5568 16.218 15.4296 16.2706 15.3358 16.3644C15.242 16.4582 15.1894 16.5854 15.1894 16.718C15.1894 16.8506 15.242 16.9777 15.3358 17.0715C15.4296 17.1653 15.5568 17.218 15.6894 17.218H15.9154V18.1366C15.9297 19.313 16.4071 20.4362 17.244 21.263C18.0809 22.0897 19.2099 22.5534 20.3864 22.5534C21.5628 22.5534 22.6918 22.0897 23.5287 21.263C24.3656 20.4362 24.843 19.313 24.8574 18.1366V17.218H25.0834C25.216 17.218 25.3431 17.1653 25.4369 17.0715C25.5307 16.9777 25.5834 16.8506 25.5834 16.718C25.5834 16.5854 25.5307 16.4582 25.4369 16.3644C25.3431 16.2706 25.216 16.218 25.0834 16.218Z" fill="#51454E"/>
</g>
<defs>
<clipPath id="clip0_727_14959">
<rect width="32" height="32" fill="white"/>
</clipPath>
</defs>
</svg>
