<svg width="22" height="24" viewBox="0 0 22 24" fill="none" xmlns="http://www.w3.org/2000/svg">
<path d="M20.3596 2.52806H18.1078V1.5225C18.1078 1.01048 17.5687 0.609375 16.881 0.609375C16.1924 0.609375 15.6529 1.01048 15.6529 1.5225V2.52806H12.2283V1.5225C12.2283 1.01048 11.6888 0.609375 11.0002 0.609375C10.3116 0.609375 9.77208 1.01048 9.77208 1.5225V2.52806H6.3487V1.5225C6.3487 1.01048 5.80931 0.609375 5.12058 0.609375C4.43184 0.609375 3.89245 1.01048 3.89245 1.5225V2.52806H1.64212C1.24715 2.5285 0.868479 2.68559 0.589187 2.96487C0.309894 3.24416 0.15279 3.62282 0.152344 4.0178V21.9008C0.152803 22.2958 0.309909 22.6745 0.589198 22.9538C0.868486 23.2331 1.24715 23.3902 1.64212 23.3906H20.3596C20.7544 23.3901 21.1329 23.2329 21.4119 22.9536C21.691 22.6743 21.8478 22.2957 21.8481 21.9008V4.0178C21.8478 3.62299 21.691 3.24439 21.4119 2.9651C21.1329 2.68581 20.7544 2.52863 20.3596 2.52806ZM16.403 1.52812C16.426 1.47891 16.5985 1.35938 16.8811 1.35938C17.163 1.35938 17.335 1.47909 17.3579 1.52812V2.52806H16.403V1.52812ZM10.5221 1.52855C10.5455 1.47919 10.7182 1.35938 11.0002 1.35938C11.2822 1.35938 11.4549 1.47919 11.4783 1.52855V2.52806H10.5221V1.52855ZM4.64255 1.52855C4.66598 1.47919 4.83862 1.35938 5.12067 1.35938C5.40272 1.35938 5.57536 1.47919 5.5988 1.52855V2.52806H4.64255V1.52855Z" fill="white"/>
<path d="M10.1622 9.61719V11.3007C10.1622 11.4001 10.1227 11.4955 10.0523 11.5658C9.98201 11.6361 9.88663 11.6757 9.78717 11.6757H7.87936C7.7799 11.6757 7.68452 11.6361 7.61419 11.5658C7.54387 11.4955 7.50436 11.4001 7.50436 11.3007V9.61719C7.50436 9.51773 7.54387 9.42235 7.61419 9.35202C7.68452 9.2817 7.7799 9.24219 7.87936 9.24219H9.78717C9.88663 9.24219 9.98201 9.2817 10.0523 9.35202C10.1227 9.42235 10.1622 9.51773 10.1622 9.61719ZM14.1214 9.24219H12.2136C12.1142 9.24219 12.0188 9.2817 11.9484 9.35202C11.8781 9.42235 11.8386 9.51773 11.8386 9.61719V11.3007C11.8386 11.4001 11.8781 11.4955 11.9484 11.5658C12.0188 11.6361 12.1142 11.6757 12.2136 11.6757H14.1214C14.2209 11.6757 14.3163 11.6361 14.3866 11.5658C14.4569 11.4955 14.4964 11.4001 14.4964 11.3007V9.61719C14.4964 9.51773 14.4569 9.42235 14.3866 9.35202C14.3163 9.2817 14.2209 9.24219 14.1214 9.24219ZM5.45423 13.3611H3.54492C3.44547 13.3611 3.35008 13.4007 3.27976 13.471C3.20943 13.5413 3.16992 13.6367 3.16992 13.7361V15.4196C3.16992 15.5191 3.20943 15.6144 3.27976 15.6848C3.35008 15.7551 3.44547 15.7946 3.54492 15.7946H5.45428C5.55374 15.7946 5.64912 15.7551 5.71945 15.6848C5.78977 15.6144 5.82928 15.5191 5.82928 15.4196V13.7361C5.82928 13.6367 5.78977 13.5413 5.71945 13.471C5.64912 13.4007 5.55369 13.3611 5.45423 13.3611ZM9.78712 13.3611H7.87931C7.77986 13.3611 7.68447 13.4007 7.61415 13.471C7.54382 13.5413 7.50431 13.6367 7.50431 13.7361V15.4196C7.50431 15.5191 7.54382 15.6144 7.61415 15.6848C7.68447 15.7551 7.77986 15.7946 7.87931 15.7946H9.78712C9.88658 15.7946 9.98196 15.7551 10.0523 15.6848C10.1226 15.6144 10.1621 15.5191 10.1621 15.4196V13.7361C10.1621 13.6367 10.1226 13.5413 10.0523 13.471C9.98199 13.4007 9.88662 13.3612 9.78717 13.3611H9.78712ZM14.1214 13.3611H12.2136C12.1141 13.3611 12.0187 13.4007 11.9484 13.471C11.8781 13.5413 11.8386 13.6367 11.8386 13.7361V15.4196C11.8386 15.5191 11.8781 15.6144 11.9484 15.6848C12.0187 15.7551 12.1141 15.7946 12.2136 15.7946H14.1214C14.2208 15.7946 14.3162 15.7551 14.3865 15.6848C14.4569 15.6144 14.4964 15.5191 14.4964 15.4196V13.7361C14.4964 13.6367 14.4569 13.5413 14.3866 13.471C14.3162 13.4007 14.2209 13.3612 14.1214 13.3611H14.1214ZM5.45419 17.4815H3.54492C3.44547 17.4815 3.35008 17.521 3.27976 17.5913C3.20943 17.6616 3.16992 17.757 3.16992 17.8565V19.5386C3.16992 19.638 3.20943 19.7334 3.27976 19.8037C3.35008 19.8741 3.44547 19.9136 3.54492 19.9136H5.45428C5.55374 19.9136 5.64912 19.8741 5.71945 19.8037C5.78977 19.7334 5.82928 19.638 5.82928 19.5386V17.8565C5.82928 17.757 5.78977 17.6617 5.71945 17.5913C5.64912 17.521 5.55374 17.4815 5.45428 17.4815L5.45419 17.4815ZM9.78708 17.4815H7.87927C7.77981 17.4815 7.68443 17.521 7.6141 17.5913C7.54377 17.6616 7.50427 17.757 7.50427 17.8565V19.5386C7.50427 19.638 7.54377 19.7334 7.6141 19.8037C7.68443 19.8741 7.77981 19.9136 7.87927 19.9136H9.78708C9.88653 19.9136 9.98192 19.8741 10.0522 19.8037C10.1226 19.7334 10.1621 19.638 10.1621 19.5386V17.8565C10.1621 17.7571 10.1226 17.6617 10.0523 17.5914C9.98197 17.521 9.88661 17.4815 9.78717 17.4815L9.78708 17.4815ZM5.45428 9.24219H3.54492C3.44547 9.24219 3.35008 9.2817 3.27976 9.35202C3.20943 9.42235 3.16992 9.51773 3.16992 9.61719V11.3007C3.16992 11.4001 3.20943 11.4955 3.27976 11.5658C3.35008 11.6361 3.44547 11.6757 3.54492 11.6757H5.45428C5.55374 11.6757 5.64912 11.6361 5.71945 11.5658C5.78977 11.4955 5.82928 11.4001 5.82928 11.3007V9.61719C5.82928 9.51773 5.78977 9.42235 5.71945 9.35202C5.64912 9.2817 5.55374 9.24219 5.45428 9.24219ZM18.4557 13.3611H16.5479C16.4484 13.3611 16.353 13.4007 16.2827 13.471C16.2124 13.5413 16.1729 13.6367 16.1729 13.7361V15.4196C16.1729 15.5191 16.2124 15.6144 16.2827 15.6848C16.353 15.7551 16.4484 15.7946 16.5479 15.7946H18.4557C18.5551 15.7946 18.6505 15.7551 18.7208 15.6848C18.7912 15.6144 18.8307 15.5191 18.8307 15.4196V13.7361C18.8307 13.6367 18.7912 13.5413 18.7208 13.471C18.6505 13.4007 18.5551 13.3611 18.4557 13.3611ZM14.1214 17.4815H12.2136C12.1142 17.4815 12.0188 17.521 11.9484 17.5913C11.8781 17.6616 11.8386 17.757 11.8386 17.8565V19.5386C11.8386 19.638 11.8781 19.7334 11.9484 19.8037C12.0188 19.8741 12.1142 19.9136 12.2136 19.9136H14.1214C14.2209 19.9136 14.3163 19.8741 14.3866 19.8037C14.4569 19.7334 14.4964 19.638 14.4964 19.5386V17.8565C14.4964 17.757 14.4569 17.6617 14.3866 17.5913C14.3163 17.521 14.2209 17.4815 14.1214 17.4815Z" fill="#484868"/>
<path d="M5.45508 9.24219H4.98633C5.08578 9.24219 5.18117 9.2817 5.25149 9.35202C5.32182 9.42235 5.36133 9.51773 5.36133 9.61719V11.3007C5.36133 11.4001 5.32182 11.4955 5.25149 11.5658C5.18117 11.6361 5.08578 11.6757 4.98633 11.6757H5.45508C5.55453 11.6757 5.64992 11.6361 5.72024 11.5658C5.79057 11.4955 5.83008 11.4001 5.83008 11.3007V9.61719C5.83008 9.51773 5.79057 9.42235 5.72024 9.35202C5.64992 9.2817 5.55453 9.24219 5.45508 9.24219ZM9.78797 17.4815H9.31922C9.41867 17.4815 9.51406 17.521 9.58438 17.5913C9.65471 17.6617 9.69422 17.757 9.69422 17.8565V19.5386C9.69422 19.6381 9.65471 19.7334 9.58438 19.8038C9.51406 19.8741 9.41867 19.9136 9.31922 19.9136H9.78797C9.88742 19.9136 9.98281 19.8741 10.0531 19.8038C10.1235 19.7334 10.163 19.6381 10.163 19.5386V17.8565C10.163 17.757 10.1235 17.6617 10.0531 17.5913C9.98281 17.521 9.88742 17.4815 9.78797 17.4815ZM9.78797 13.3611H9.31922C9.41867 13.3611 9.51406 13.4007 9.58438 13.471C9.65471 13.5413 9.69422 13.6367 9.69422 13.7361V15.4196C9.69422 15.5191 9.65471 15.6144 9.58438 15.6848C9.51406 15.7551 9.41867 15.7946 9.31922 15.7946H9.78797C9.88742 15.7946 9.98281 15.7551 10.0531 15.6848C10.1235 15.6144 10.163 15.5191 10.163 15.4196V13.7361C10.163 13.6367 10.1235 13.5413 10.0531 13.471C9.98281 13.4007 9.88742 13.3611 9.78797 13.3611ZM5.45508 17.4815H4.98633C5.08578 17.4815 5.18117 17.521 5.25149 17.5913C5.32182 17.6617 5.36133 17.757 5.36133 17.8565V19.5386C5.36133 19.6381 5.32182 19.7334 5.25149 19.8038C5.18117 19.8741 5.08578 19.9136 4.98633 19.9136H5.45508C5.55453 19.9136 5.64992 19.8741 5.72024 19.8038C5.79057 19.7334 5.83008 19.6381 5.83008 19.5386V17.8565C5.83008 17.757 5.79057 17.6617 5.72024 17.5913C5.64992 17.521 5.55453 17.4815 5.45508 17.4815ZM5.45508 13.3611H4.98633C5.08578 13.3611 5.18117 13.4007 5.25149 13.471C5.32182 13.5413 5.36133 13.6367 5.36133 13.7361V15.4196C5.36133 15.5191 5.32182 15.6144 5.25149 15.6848C5.18117 15.7551 5.08578 15.7946 4.98633 15.7946H5.45508C5.55453 15.7946 5.64992 15.7551 5.72024 15.6848C5.79057 15.6144 5.83008 15.5191 5.83008 15.4196V13.7361C5.83008 13.6367 5.79057 13.5413 5.72024 13.471C5.64992 13.4007 5.55453 13.3611 5.45508 13.3611ZM14.1222 17.4815H13.6535C13.7529 17.4815 13.8483 17.521 13.9186 17.5913C13.989 17.6617 14.0285 17.757 14.0285 17.8565V19.5386C14.0285 19.6381 13.989 19.7334 13.9186 19.8038C13.8483 19.8741 13.7529 19.9136 13.6535 19.9136H14.1222C14.2217 19.9136 14.3171 19.8741 14.3874 19.8038C14.4577 19.7334 14.4972 19.6381 14.4972 19.5386V17.8565C14.4972 17.757 14.4577 17.6617 14.3874 17.5913C14.3171 17.521 14.2217 17.4815 14.1222 17.4815ZM14.1222 9.24219H13.6535C13.7529 9.24219 13.8483 9.2817 13.9186 9.35202C13.989 9.42235 14.0285 9.51773 14.0285 9.61719V11.3007C14.0285 11.4001 13.989 11.4955 13.9186 11.5658C13.8483 11.6361 13.7529 11.6757 13.6535 11.6757H14.1222C14.2217 11.6757 14.3171 11.6361 14.3874 11.5658C14.4577 11.4955 14.4972 11.4001 14.4972 11.3007V9.61719C14.4972 9.51773 14.4577 9.42235 14.3874 9.35202C14.3171 9.2817 14.2217 9.24219 14.1222 9.24219ZM9.78797 9.24219H9.31922C9.41867 9.24219 9.51406 9.2817 9.58438 9.35202C9.65471 9.42235 9.69422 9.51773 9.69422 9.61719V11.3007C9.69422 11.4001 9.65471 11.4955 9.58438 11.5658C9.51406 11.6361 9.41867 11.6757 9.31922 11.6757H9.78797C9.88742 11.6757 9.98281 11.6361 10.0531 11.5658C10.1235 11.4955 10.163 11.4001 10.163 11.3007V9.61719C10.163 9.51773 10.1235 9.42235 10.0531 9.35202C9.98281 9.2817 9.88742 9.24219 9.78797 9.24219ZM18.4565 13.3611H17.9877C18.0872 13.3611 18.1826 13.4007 18.2529 13.471C18.3232 13.5413 18.3627 13.6367 18.3627 13.7361V15.4196C18.3627 15.5191 18.3232 15.6144 18.2529 15.6848C18.1826 15.7551 18.0872 15.7946 17.9877 15.7946H18.4565C18.5559 15.7946 18.6513 15.7551 18.7216 15.6848C18.792 15.6144 18.8315 15.5191 18.8315 15.4196V13.7361C18.8315 13.6367 18.792 13.5413 18.7216 13.471C18.6513 13.4007 18.5559 13.3611 18.4565 13.3611ZM14.1222 13.3611H13.6535C13.7529 13.3611 13.8483 13.4007 13.9186 13.471C13.989 13.5413 14.0285 13.6367 14.0285 13.7361V15.4196C14.0285 15.5191 13.989 15.6144 13.9186 15.6848C13.8483 15.7551 13.7529 15.7946 13.6535 15.7946H14.1222C14.2217 15.7946 14.3171 15.7551 14.3874 15.6848C14.4577 15.6144 14.4972 15.5191 14.4972 15.4196V13.7361C14.4972 13.6367 14.4577 13.5413 14.3874 13.471C14.3171 13.4007 14.2217 13.3611 14.1222 13.3611Z" fill="#3D3D54"/>
<path d="M17.2655 11.5678C17.1667 11.5678 17.0718 11.5288 17.0016 11.4592L16.2309 10.6951C16.1608 10.625 16.1213 10.5299 16.1211 10.4308C16.1209 10.3316 16.16 10.2364 16.2298 10.1659C16.2996 10.0955 16.3945 10.0556 16.4937 10.055C16.5929 10.0543 16.6882 10.093 16.759 10.1625L17.2418 10.641L18.2233 9.48223C18.2876 9.40634 18.3794 9.3591 18.4785 9.35089C18.5776 9.34268 18.6759 9.37419 18.7518 9.43847C18.8277 9.50276 18.875 9.59456 18.8832 9.69368C18.8914 9.7928 18.8599 9.89112 18.7956 9.96701L17.5519 11.4352C17.5185 11.4747 17.4772 11.5068 17.4308 11.5296C17.3843 11.5523 17.3337 11.5652 17.282 11.5675C17.2765 11.5677 17.271 11.5678 17.2655 11.5678Z" fill="#D22E2E"/>
<path d="M18.568 22.1828C18.5332 22.2177 18.4918 22.2453 18.4463 22.2642C18.4008 22.283 18.352 22.2927 18.3028 22.2928H1.64212C1.24715 22.2923 0.868486 22.1352 0.589198 21.8559C0.309909 21.5766 0.152803 21.1979 0.152344 20.803V21.9005C0.152803 22.2954 0.309909 22.6741 0.589198 22.9534C0.868486 23.2327 1.24715 23.3898 1.64212 23.3902H20.3596C20.7544 23.3897 21.1329 23.2325 21.4119 22.9532C21.691 22.6739 21.8478 22.2953 21.8481 21.9005V18.7461C21.8481 18.8455 21.8086 18.9409 21.7383 19.0112L18.568 22.1828Z" fill="#D1C9C9"/>
<path d="M21.8487 18.7464V18.6973H19.0137C18.8148 18.6973 18.624 18.7763 18.4833 18.9169C18.3427 19.0576 18.2637 19.2484 18.2637 19.4473V22.2931H18.3034C18.3526 22.2931 18.4014 22.2834 18.4469 22.2645C18.4924 22.2457 18.5338 22.218 18.5686 22.1832L21.7389 19.0115C21.8092 18.9412 21.8487 18.8459 21.8487 18.7464Z" fill="#BCB3B3"/>
<path d="M20.3596 2.52734H16.403V3.94681C16.425 3.99603 16.597 4.11645 16.8811 4.11645C16.9806 4.11645 17.076 4.15596 17.1463 4.22629C17.2166 4.29661 17.2561 4.392 17.2561 4.49145C17.2561 4.59091 17.2166 4.68629 17.1463 4.75662C17.076 4.82694 16.9806 4.86645 16.8811 4.86645C16.1925 4.86645 15.653 4.46478 15.653 3.95197V2.52734H10.5221V3.94653C10.5445 3.99594 10.7167 4.11645 11.0002 4.11645C11.0997 4.11645 11.195 4.15596 11.2654 4.22629C11.3357 4.29661 11.3752 4.392 11.3752 4.49145C11.3752 4.59091 11.3357 4.68629 11.2654 4.75662C11.195 4.82694 11.0997 4.86645 11.0002 4.86645C10.3116 4.86645 9.77208 4.46478 9.77208 3.95197V2.52734H4.64264V3.94653C4.66505 3.99594 4.83722 4.11645 5.12077 4.11645C5.22022 4.11645 5.3156 4.15596 5.38593 4.22629C5.45626 4.29661 5.49577 4.392 5.49577 4.49145C5.49577 4.59091 5.45626 4.68629 5.38593 4.75662C5.3156 4.82694 5.22022 4.86645 5.12077 4.86645C4.43217 4.86645 3.89264 4.46478 3.89264 3.95197V2.52734H1.64212C1.24715 2.52778 0.868479 2.68487 0.589187 2.96415C0.309894 3.24344 0.15279 3.6221 0.152344 4.01708V7.21428H21.8481V4.01708C21.8478 3.62227 21.691 3.24368 21.4119 2.96438C21.1329 2.68509 20.7544 2.52791 20.3596 2.52734Z" fill="#D22E2E"/>
<path d="M0.152344 7.21484H21.8481V7.80041H0.152344V7.21484Z" fill="#D1C9C9"/>
<path d="M11.3752 4.49217C11.3752 4.59163 11.3357 4.68701 11.2654 4.75734C11.1951 4.82766 11.0997 4.86717 11.0002 4.86717C10.3116 4.86717 9.77211 4.4655 9.77211 3.95269V1.5225C9.77211 1.01048 10.3116 0.609375 11.0002 0.609375C11.6889 0.609375 12.2284 1.01048 12.2284 1.5225V2.52806H11.4784V1.52855C11.4549 1.47919 11.2822 1.35938 11.0002 1.35938C10.7183 1.35938 10.5455 1.47919 10.5221 1.52855V3.9473C10.5445 3.9967 10.7167 4.11722 11.0002 4.11722C11.0997 4.11722 11.1951 4.15672 11.2654 4.22704C11.3357 4.29735 11.3752 4.39272 11.3752 4.49217ZM5.1207 4.11717C4.83725 4.11717 4.66508 3.99666 4.64258 3.94725V1.5285C4.66602 1.47914 4.83866 1.35933 5.1207 1.35933C5.40275 1.35933 5.57539 1.47914 5.59883 1.5285V2.52806H6.34883V1.5225C6.34883 1.01048 5.80944 0.609375 5.1207 0.609375C4.43197 0.609375 3.89258 1.01048 3.89258 1.5225V3.95269C3.89258 4.4655 4.43202 4.86717 5.1207 4.86717C5.22016 4.86717 5.31554 4.82766 5.38587 4.75734C5.45619 4.68701 5.4957 4.59163 5.4957 4.49217C5.4957 4.39272 5.45619 4.29733 5.38587 4.22701C5.31554 4.15668 5.22016 4.11717 5.1207 4.11717ZM16.8811 4.11717C16.597 4.11717 16.4251 3.99675 16.403 3.94753V1.52812C16.4259 1.47891 16.5984 1.35938 16.8811 1.35938C17.1629 1.35938 17.3349 1.47909 17.3578 1.52812V2.52806H18.1078V1.5225C18.1078 1.01048 17.5687 0.609375 16.8811 0.609375C16.1924 0.609375 15.653 1.01048 15.653 1.5225V3.95269C15.653 4.4655 16.1923 4.86717 16.8811 4.86717C16.9805 4.86717 17.0759 4.82766 17.1462 4.75734C17.2166 4.68701 17.2561 4.59163 17.2561 4.49217C17.2561 4.39272 17.2166 4.29733 17.1462 4.22701C17.0759 4.15668 16.9805 4.11717 16.8811 4.11717Z" fill="#484868"/>
<path d="M5.12239 3.78911C4.95032 3.78912 4.78429 3.85253 4.65603 3.96723C4.70609 4.0232 4.86945 4.11723 5.12009 4.11723C5.21955 4.11723 5.31493 4.15674 5.38526 4.22707C5.45559 4.2974 5.49509 4.39278 5.49509 4.49223C5.49509 4.59169 5.45559 4.68707 5.38526 4.7574C5.31493 4.82773 5.21955 4.86723 5.12009 4.86723C4.89289 4.86931 4.66795 4.82186 4.46094 4.7282C4.50424 4.84946 4.58002 4.95649 4.68002 5.03761C4.78001 5.11873 4.90037 5.17081 5.02795 5.18818C5.15553 5.20556 5.28543 5.18754 5.40347 5.13611C5.5215 5.08468 5.62315 5.0018 5.69729 4.89654C5.77144 4.79127 5.81523 4.66766 5.82391 4.53919C5.83258 4.41073 5.80579 4.28235 5.74647 4.16807C5.68714 4.05379 5.59756 3.95801 5.48751 3.89118C5.37745 3.82435 5.25115 3.78904 5.12239 3.78911ZM10.9996 3.78911C10.8281 3.78906 10.6627 3.85196 10.5345 3.96588C10.5832 4.0217 10.7471 4.11719 10.9996 4.11719C11.099 4.11719 11.1944 4.1567 11.2647 4.22702C11.3351 4.29735 11.3746 4.39273 11.3746 4.49219C11.3746 4.59164 11.3351 4.68703 11.2647 4.75735C11.1944 4.82768 11.099 4.86719 10.9996 4.86719C10.7713 4.86929 10.5453 4.82138 10.3376 4.72684C10.3806 4.84827 10.4562 4.95554 10.5561 5.03691C10.6559 5.11828 10.7763 5.17064 10.9039 5.18825C11.0315 5.20586 11.1615 5.18805 11.2797 5.13676C11.3979 5.08548 11.4997 5.0027 11.574 4.89746C11.6483 4.79222 11.6923 4.66858 11.7011 4.54006C11.7098 4.41153 11.6831 4.28305 11.6239 4.16868C11.5646 4.0543 11.475 3.95842 11.3649 3.89152C11.2548 3.82462 11.1284 3.78928 10.9996 3.78934V3.78911ZM16.8798 3.78911C16.7084 3.78905 16.543 3.85188 16.415 3.96569C16.4629 4.02128 16.6268 4.11719 16.8804 4.11719C16.9799 4.11719 17.0753 4.1567 17.1456 4.22702C17.2159 4.29735 17.2554 4.39273 17.2554 4.49219C17.2554 4.59164 17.2159 4.68703 17.1456 4.75735C17.0753 4.82768 16.9799 4.86719 16.8804 4.86719C16.6519 4.86932 16.4256 4.82132 16.2176 4.72656C16.2606 4.84799 16.3362 4.95525 16.4361 5.03662C16.536 5.11799 16.6563 5.17035 16.7839 5.18796C16.9115 5.20558 17.0415 5.18778 17.1597 5.1365C17.2779 5.08523 17.3797 5.00246 17.454 4.89724C17.5283 4.79201 17.5723 4.66838 17.5811 4.53986C17.5899 4.41134 17.5632 4.28287 17.5039 4.16849C17.4447 4.05411 17.3551 3.95822 17.245 3.89131C17.1349 3.82439 17.0086 3.78907 16.8798 3.78911Z" fill="#AD1E1E"/>
</svg>
