<svg width="24" height="24" viewBox="0 0 24 24" fill="none" xmlns="http://www.w3.org/2000/svg">
<g clip-path="url(#clip0_567_2993)">
<path d="M0.799805 19.1992V22.3993C0.799805 23.2829 1.51613 23.9992 2.39979 23.9992H21.5998C22.4834 23.9992 23.1997 23.2829 23.1997 22.3993V19.1992H0.799805Z" fill="#B5DBFF"/>
<path d="M22.0892 19.1992V22.3993C22.0892 23.2829 21.3729 23.9992 20.4893 23.9992H21.5999C22.4836 23.9992 23.1999 23.2829 23.1999 22.3993V19.1992H22.0892Z" fill="#97D0FF"/>
<path d="M0.799805 6.40039V20.8004C0.799805 21.684 1.51613 22.4003 2.39974 22.4003H21.5998C22.4834 22.4003 23.1997 21.684 23.1997 20.8004V6.40039H0.799805Z" fill="#EDF5FF"/>
<path d="M22.0892 6.40039V20.8004C22.0892 21.684 21.3729 22.4003 20.4893 22.4003H21.5999C22.4836 22.4003 23.1999 21.684 23.1999 20.8004V6.40039H22.0892Z" fill="#D5E8FE"/>
<path d="M23.1997 7.19958V3.19955C23.1997 2.31589 22.4834 1.59961 21.5998 1.59961H2.39974C1.51609 1.59961 0.799805 2.31594 0.799805 3.19955V7.19958H23.1997Z" fill="#FF435B"/>
<path d="M5.59969 3.56224H4.79967C4.70362 3.56224 4.6115 3.52408 4.54358 3.45616C4.47566 3.38824 4.4375 3.29612 4.4375 3.20006C4.4375 3.10401 4.47566 3.01189 4.54358 2.94397C4.6115 2.87605 4.70362 2.83789 4.79967 2.83789H5.59969C5.69574 2.83789 5.78786 2.87605 5.85578 2.94397C5.9237 3.01189 5.96186 3.10401 5.96186 3.20006C5.96186 3.29612 5.9237 3.38824 5.85578 3.45616C5.78786 3.52408 5.69574 3.56224 5.59969 3.56224ZM7.99969 3.56224H7.19967C7.10362 3.56224 7.0115 3.52408 6.94358 3.45616C6.87566 3.38824 6.8375 3.29612 6.8375 3.20006C6.8375 3.10401 6.87566 3.01189 6.94358 2.94397C7.0115 2.87605 7.10362 2.83789 7.19967 2.83789H7.99964C8.09569 2.83788 8.18782 2.87604 8.25574 2.94395C8.32367 3.01187 8.36183 3.10399 8.36184 3.20004C8.36184 3.29609 8.32369 3.38822 8.25578 3.45614C8.18786 3.52407 8.09574 3.56223 7.99969 3.56224ZM16.7997 3.56224H15.9997C15.9037 3.56224 15.8115 3.52408 15.7436 3.45616C15.6757 3.38824 15.6375 3.29612 15.6375 3.20006C15.6375 3.10401 15.6757 3.01189 15.7436 2.94397C15.8115 2.87605 15.9037 2.83789 15.9997 2.83789H16.7997C16.8957 2.83789 16.9878 2.87605 17.0558 2.94397C17.1237 3.01189 17.1618 3.10401 17.1618 3.20006C17.1618 3.29612 17.1237 3.38824 17.0558 3.45616C16.9878 3.52408 16.8957 3.56224 16.7997 3.56224ZM19.1997 3.56224H18.3997C18.3036 3.56224 18.2115 3.52408 18.1436 3.45616C18.0756 3.38824 18.0375 3.29612 18.0375 3.20006C18.0375 3.10401 18.0756 3.01189 18.1436 2.94397C18.2115 2.87605 18.3036 2.83789 18.3997 2.83789H19.1997C19.2957 2.83789 19.3878 2.87605 19.4558 2.94397C19.5237 3.01189 19.5618 3.10401 19.5618 3.20006C19.5618 3.29612 19.5237 3.38824 19.4558 3.45616C19.3878 3.52408 19.2957 3.56224 19.1997 3.56224Z" fill="#E3374E"/>
<path d="M5.59966 3.20002C5.59966 3.64182 5.95782 4.00003 6.39967 4.00003C6.84152 4.00003 7.19969 3.64187 7.19969 3.20002V0.800016C7.19964 0.358165 6.84148 0 6.39963 0C5.95782 0 5.59961 0.358165 5.59961 0.800016L5.59966 3.20002ZM16.7996 3.20002C16.7996 3.64182 17.1578 4.00003 17.5997 4.00003C18.0415 4.00003 18.3997 3.64187 18.3997 3.20002V0.800016C18.3997 0.358165 18.0415 0 17.5997 0C17.1578 0 16.7996 0.358165 16.7996 0.800016V3.20002Z" fill="#596C76"/>
<path d="M21.5999 1.59961H20.4893C21.3729 1.59961 22.0892 2.31594 22.0892 3.19955V7.19963H23.1999V3.19959C23.1999 2.31594 22.4836 1.59961 21.5999 1.59961Z" fill="#E3374E"/>
<path d="M0.799805 5.23828H23.1998V5.96263H0.799805V5.23828Z" fill="#E3374E"/>
<path d="M6.39941 14.4004H17.5994V19.4418H6.39941V14.4004Z" fill="#FF7B4A"/>
<path d="M15.1997 10.7618C15.1037 10.7618 15.0115 10.7237 14.9436 10.6558C14.8757 10.5878 14.8375 10.4957 14.8375 10.3997V9.59964C14.8375 9.39963 14.9996 9.23747 15.1997 9.23747C15.3998 9.23747 15.5619 9.39963 15.5619 9.59964V10.3997C15.5619 10.4957 15.5237 10.5878 15.4558 10.6558C15.3879 10.7237 15.2958 10.7618 15.1997 10.7618ZM8.79967 10.7618C8.70362 10.7618 8.6115 10.7237 8.54358 10.6558C8.47566 10.5878 8.4375 10.4957 8.4375 10.3997V9.59964C8.4375 9.39963 8.59961 9.23747 8.79967 9.23747C8.99974 9.23747 9.16185 9.39963 9.16185 9.59964V10.3997C9.16185 10.4957 9.12369 10.5878 9.05577 10.6558C8.98785 10.7237 8.89573 10.7618 8.79967 10.7618ZM11.9997 9.96181C11.9036 9.96181 11.8115 9.92366 11.7436 9.85574C11.6757 9.78782 11.6375 9.6957 11.6375 9.59964V8.79967C11.6375 8.59966 11.7996 8.4375 11.9997 8.4375C12.1998 8.4375 12.3619 8.59966 12.3619 8.79967V9.59964C12.3619 9.6957 12.3237 9.78782 12.2558 9.85574C12.1879 9.92366 12.0957 9.96181 11.9997 9.96181Z" fill="#FDBF00"/>
<path d="M12.8 13.0411H11.2V9.98593C11.2 9.88347 11.2407 9.78521 11.3132 9.71276C11.3856 9.64031 11.4839 9.59961 11.5863 9.59961H12.4137C12.5161 9.59961 12.6144 9.64031 12.6868 9.71276C12.7593 9.78521 12.8 9.88347 12.8 9.98593V13.0411ZM16 13.0411H14.4V10.7859C14.4 10.6835 14.4407 10.5852 14.5131 10.5128C14.5856 10.4403 14.6838 10.3996 14.7863 10.3996H15.6136C15.7161 10.3996 15.8144 10.4403 15.8868 10.5128C15.9593 10.5852 16 10.6835 16 10.7859V13.0411ZM9.59998 13.0411H8V10.7859C8 10.6835 8.0407 10.5852 8.11315 10.5128C8.1856 10.4403 8.28386 10.3996 8.38632 10.3996H9.21367C9.31612 10.3996 9.41438 10.4403 9.48683 10.5128C9.55928 10.5852 9.59998 10.6835 9.59998 10.7859V13.0411Z" fill="#76E2F8"/>
<path d="M16.4893 14.4004H17.5999V19.4418H16.4893V14.4004Z" fill="#FF624A"/>
<path d="M18.0133 20.7992H5.98593C5.88347 20.7992 5.78521 20.7585 5.71276 20.6861C5.64031 20.6136 5.59961 20.5153 5.59961 20.4129V19.5855C5.59961 19.4831 5.64031 19.3848 5.71276 19.3124C5.78521 19.2399 5.88347 19.1992 5.98593 19.1992H18.0133C18.1158 19.1992 18.214 19.2399 18.2865 19.3124C18.3589 19.3848 18.3996 19.4831 18.3996 19.5855V20.4129C18.3996 20.4636 18.3896 20.5139 18.3702 20.5607C18.3508 20.6076 18.3223 20.6502 18.2865 20.6861C18.2506 20.7219 18.208 20.7504 18.1611 20.7698C18.1142 20.7892 18.064 20.7992 18.0133 20.7992Z" fill="#FDBF00"/>
<path d="M18.013 19.1992H16.9023C17.0048 19.1992 17.1031 19.2399 17.1755 19.3124C17.248 19.3848 17.2887 19.4831 17.2887 19.5855V20.4129C17.2887 20.5153 17.248 20.6136 17.1755 20.6861C17.1031 20.7585 17.0048 20.7992 16.9023 20.7992H18.013C18.1155 20.7992 18.2137 20.7585 18.2862 20.6861C18.3586 20.6136 18.3993 20.5153 18.3993 20.4129V19.5855C18.3993 19.4831 18.3586 19.3848 18.2862 19.3124C18.2137 19.2399 18.1155 19.1992 18.013 19.1992Z" fill="#FF9100"/>
<path d="M16.8268 12.8008H7.17205C6.74531 12.8008 6.39941 13.1467 6.39941 13.5734V14.3697C6.39941 15.1444 7.01545 15.7957 7.79021 15.8007C8.39354 15.8046 8.90884 15.4267 9.10953 14.8945C9.12349 14.8575 9.15985 14.8338 9.19945 14.8338C9.23904 14.8338 9.27541 14.8575 9.28936 14.8946C9.48904 15.4241 10.0001 15.8008 10.5995 15.8008C11.1988 15.8008 11.7099 15.4241 11.9096 14.8946C11.9235 14.8575 11.9599 14.8338 11.9995 14.8338C12.039 14.8338 12.0754 14.8575 12.0894 14.8946C12.2891 15.4241 12.8002 15.8008 13.3995 15.8008C13.9988 15.8008 14.5099 15.4241 14.7096 14.8946C14.7235 14.8575 14.7599 14.8338 14.7995 14.8338C14.8391 14.8338 14.8755 14.8575 14.8894 14.8945C15.0901 15.4267 15.6054 15.8046 16.2087 15.8007C16.9835 15.7958 17.5995 15.1445 17.5995 14.3697V13.5734C17.5994 13.1467 17.2535 12.8008 16.8268 12.8008Z" fill="#FF435B"/>
<path d="M16.8267 12.8008H15.7161C16.1428 12.8008 16.4887 13.1467 16.4887 13.5734V14.3697C16.4887 14.9509 16.1419 15.4627 15.6416 15.6842C15.8203 15.7623 16.0135 15.802 16.2086 15.8007C16.9833 15.7958 17.5994 15.1445 17.5994 14.3697V13.5734C17.5994 13.1467 17.2534 12.8008 16.8267 12.8008Z" fill="#E3374E"/>
<path d="M6.39941 17.9626H7.99945C8.19951 17.9626 8.36162 17.8005 8.36162 17.6005C8.36162 17.4004 8.19951 17.2383 7.99945 17.2383H6.39941V17.9626ZM17.5994 17.2383H15.9994C15.7993 17.2383 15.6372 17.4004 15.6372 17.6005C15.6372 17.8005 15.7993 17.9626 15.9994 17.9626H17.5994V17.2383Z" fill="#FF624A"/>
</g>
<defs>
<clipPath id="clip0_567_2993">
<rect width="24" height="24" fill="white"/>
</clipPath>
</defs>
</svg>
