<svg width="24" height="30" viewBox="0 0 24 30" fill="none" xmlns="http://www.w3.org/2000/svg">
<path d="M11.8988 29.8057C5.4498 29.8057 0.203125 24.5462 0.203125 18.0815C0.203125 13.0538 2.48804 8.57073 5.84281 4.88891C8.60199 1.86072 11.3328 0.193229 11.4476 0.12378C12.0529 -0.242388 12.8653 0.256508 12.8653 0.931212V8.96275L16.9744 5.12765C17.331 4.79472 17.8957 4.81777 18.2227 5.18749C19.7844 6.95284 21.0276 8.81704 21.9176 10.7284C26.8818 21.3888 20.0387 29.8057 11.8988 29.8057Z" fill="#A1D082"/>
<path d="M21.9205 10.7278C21.0304 8.8165 19.7873 6.9523 18.2256 5.18695C17.8986 4.81717 17.3339 4.79418 16.9772 5.12711L12.8681 8.96221V0.930672C12.8681 0.422694 12.4077 0.0145536 11.9219 0V29.805C20.0528 29.791 26.8805 21.3794 21.9205 10.7278Z" fill="#42A004"/>
<path d="M11.8978 29.8042C9.44696 29.8042 7.45312 27.8055 7.45312 25.3488C7.45312 21.3789 11.3074 19.0284 11.4714 18.9302C11.6122 18.846 11.774 18.8032 11.938 18.8069C12.102 18.8105 12.2617 18.8603 12.3987 18.9506C12.5597 19.0568 16.3424 21.5939 16.3424 25.3488C16.3424 27.8055 14.3486 29.8042 11.8978 29.8042Z" fill="#D9ECCD"/>
<path d="M16.3463 25.3484C16.3463 21.5936 12.5636 19.0564 12.4026 18.9502C12.2599 18.8562 12.0927 18.8063 11.9219 18.8066V29.8033C14.3633 29.7923 16.3463 27.7982 16.3463 25.3484Z" fill="#D9ECCD"/>
</svg>
