<svg width="24" height="24" viewBox="0 0 24 24" fill="none" xmlns="http://www.w3.org/2000/svg">
<path d="M14.4 20H0.8C0.588022 19.9994 0.384906 19.9149 0.235014 19.765C0.0851219 19.6151 0.000633091 19.412 0 19.2V0.8C0.000633091 0.588022 0.0851219 0.384906 0.235014 0.235014C0.384906 0.0851219 0.588022 0.000633091 0.8 0H13.6C13.812 0.000633091 14.0151 0.0851219 14.165 0.235014C14.3149 0.384906 14.3994 0.588022 14.4 0.8V20Z" fill="#547580"/>
<path d="M11.296 7.19961H1.99998C1.89389 7.19961 1.79215 7.15747 1.71713 7.08245C1.64212 7.00744 1.59998 6.9057 1.59998 6.79961V1.99961C1.59998 1.89352 1.64212 1.79178 1.71713 1.71677C1.79215 1.64175 1.89389 1.59961 1.99998 1.59961H12.4C12.5061 1.59961 12.6078 1.64175 12.6828 1.71677C12.7578 1.79178 12.8 1.89352 12.8 1.99961V5.50761L11.296 7.19961Z" fill="#9FC9D3"/>
<path d="M6.40005 14.9395C6.3801 14.0374 6.6259 13.1494 7.10685 12.3859C7.13272 12.3472 7.16805 12.3158 7.20949 12.2946C7.25093 12.2733 7.2971 12.2631 7.34362 12.2647C7.39014 12.2664 7.43547 12.2799 7.47531 12.3039C7.51515 12.328 7.54817 12.3619 7.57125 12.4023C7.74631 12.7263 8.00505 12.9974 8.32052 13.1873C8.63598 13.3773 8.99662 13.4792 9.36485 13.4823C9.32953 11.5645 9.81604 9.67315 10.7724 8.01042C11.7287 6.3477 13.119 4.97612 14.7945 4.04232C14.8415 4.01416 14.8952 3.99921 14.95 3.99903C15.0048 3.99884 15.0587 4.01344 15.1059 4.04128C15.1531 4.06912 15.1919 4.10918 15.2183 4.15723C15.2446 4.20528 15.2575 4.25954 15.2557 4.31432C15.1061 8.59432 18.7721 8.32832 19.2469 12.9943C19.2469 12.9943 20.59 12.9943 21.1456 10.8983C21.1563 10.8593 21.1764 10.8236 21.2043 10.7943C21.2321 10.765 21.2668 10.743 21.3052 10.7304C21.3436 10.7178 21.3846 10.7149 21.4244 10.722C21.4642 10.7291 21.5016 10.746 21.5333 10.7711C22.0533 11.1771 23.0609 12.2419 23.1865 14.4699C23.3083 16.4745 22.6907 18.4541 21.4508 20.0338C20.2108 21.6135 18.4346 22.6837 16.4585 23.0415C15.2495 23.2907 14.0003 23.2694 12.8005 22.9792C11.6007 22.6889 10.48 22.1368 9.5187 21.3624C8.55738 20.5881 7.77924 19.6107 7.24007 18.5002C6.7009 17.3898 6.41404 16.1738 6.40005 14.9395Z" fill="#F29C1F"/>
<path d="M13.6 16.0002C13.706 16.0002 13.8078 16.0423 13.8828 16.1174C13.9578 16.1924 14 16.2941 14 16.4002C14 16.5063 14.0421 16.608 14.1171 16.683C14.1921 16.7581 14.2939 16.8002 14.4 16.8002C14.506 16.8002 14.6078 16.7581 14.6828 16.683C14.7578 16.608 14.8 16.5063 14.8 16.4002C14.8 16.0819 14.6735 15.7767 14.4485 15.5517C14.2234 15.3266 13.9182 15.2002 13.6 15.2002C13.2817 15.2002 12.9765 15.3266 12.7514 15.5517C12.5264 15.7767 12.4 16.0819 12.4 16.4002V18.0002C12.4 18.3185 12.5264 18.6237 12.7514 18.8487C12.9765 19.0738 13.2817 19.2002 13.6 19.2002C13.9182 19.2002 14.2234 19.0738 14.4485 18.8487C14.6735 18.6237 14.8 18.3185 14.8 18.0002C14.8 17.8941 14.7578 17.7924 14.6828 17.7174C14.6078 17.6423 14.506 17.6002 14.4 17.6002C14.2939 17.6002 14.1921 17.6423 14.1171 17.7174C14.0421 17.7924 14 17.8941 14 18.0002C14 18.1063 13.9578 18.208 13.8828 18.283C13.8078 18.3581 13.706 18.4002 13.6 18.4002C13.4939 18.4002 13.3921 18.3581 13.3171 18.283C13.2421 18.208 13.2 18.1063 13.2 18.0002V16.4002C13.2 16.2941 13.2421 16.1924 13.3171 16.1174C13.3921 16.0423 13.4939 16.0002 13.6 16.0002ZM16.8 15.2002C16.4817 15.2002 16.1765 15.3266 15.9514 15.5517C15.7264 15.7767 15.6 16.0819 15.6 16.4002V18.8002C15.6 18.9063 15.6421 19.008 15.7171 19.083C15.7921 19.1581 15.8939 19.2002 16 19.2002C16.106 19.2002 16.2078 19.1581 16.2828 19.083C16.3578 19.008 16.4 18.9063 16.4 18.8002V17.6002H17.2V18.8002C17.2 18.9063 17.2421 19.008 17.3171 19.083C17.3921 19.1581 17.4939 19.2002 17.6 19.2002C17.706 19.2002 17.8078 19.1581 17.8828 19.083C17.9578 19.008 18 18.9063 18 18.8002V16.4002C18 16.0819 17.8735 15.7767 17.6485 15.5517C17.4234 15.3266 17.1182 15.2002 16.8 15.2002ZM16.4 16.8002V16.4002C16.4 16.2941 16.4421 16.1924 16.5171 16.1174C16.5921 16.0423 16.6939 16.0002 16.8 16.0002C16.906 16.0002 17.0078 16.0423 17.0828 16.1174C17.1578 16.1924 17.2 16.2941 17.2 16.4002V16.8002H16.4ZM20.8 18.4002H19.6V15.6002C19.6 15.4941 19.5578 15.3924 19.4828 15.3174C19.4078 15.2423 19.306 15.2002 19.2 15.2002C19.0939 15.2002 18.9921 15.2423 18.9171 15.3174C18.8421 15.3924 18.8 15.4941 18.8 15.6002V18.8002C18.8 18.9063 18.8421 19.008 18.9171 19.083C18.9921 19.1581 19.0939 19.2002 19.2 19.2002H20.8C20.906 19.2002 21.0078 19.1581 21.0828 19.083C21.1578 19.008 21.2 18.9063 21.2 18.8002C21.2 18.6941 21.1578 18.5924 21.0828 18.5174C21.0078 18.4423 20.906 18.4002 20.8 18.4002ZM11.4828 15.3174C11.4077 15.2424 11.306 15.2003 11.2 15.2003C11.0939 15.2003 10.9922 15.2424 10.9172 15.3174L9.99995 16.2346V15.6002C9.99995 15.4941 9.95781 15.3924 9.88279 15.3174C9.80778 15.2423 9.70604 15.2002 9.59995 15.2002C9.49386 15.2002 9.39212 15.2423 9.31711 15.3174C9.24209 15.3924 9.19995 15.4941 9.19995 15.6002V18.8002C9.19995 18.9063 9.24209 19.008 9.31711 19.083C9.39212 19.1581 9.49386 19.2002 9.59995 19.2002C9.70604 19.2002 9.80778 19.1581 9.88279 19.083C9.95781 19.008 9.99995 18.9063 9.99995 18.8002V18.1658L10.9172 19.083C10.9926 19.1559 11.0936 19.1962 11.1985 19.1953C11.3034 19.1944 11.4037 19.1523 11.4779 19.0781C11.552 19.004 11.5941 18.9036 11.595 18.7988C11.5959 18.6939 11.5556 18.5928 11.4828 18.5174L10.1656 17.2002L11.4828 15.883C11.5577 15.808 11.5999 15.7063 11.5999 15.6002C11.5999 15.4941 11.5577 15.3924 11.4828 15.3174Z" fill="white"/>
<path d="M4 8.7998H2.4C2.17909 8.7998 2 8.97889 2 9.1998V10.3998C2 10.6207 2.17909 10.7998 2.4 10.7998H4C4.22091 10.7998 4.4 10.6207 4.4 10.3998V9.1998C4.4 8.97889 4.22091 8.7998 4 8.7998Z" fill="#35495E"/>
<path d="M8 8.7998H6.4C6.17909 8.7998 6 8.97889 6 9.1998V10.3998C6 10.6207 6.17909 10.7998 6.4 10.7998H8C8.22091 10.7998 8.4 10.6207 8.4 10.3998V9.1998C8.4 8.97889 8.22091 8.7998 8 8.7998Z" fill="#35495E"/>
<path d="M4 12.4004H2.4C2.17909 12.4004 2 12.5795 2 12.8004V14.0004C2 14.2213 2.17909 14.4004 2.4 14.4004H4C4.22091 14.4004 4.4 14.2213 4.4 14.0004V12.8004C4.4 12.5795 4.22091 12.4004 4 12.4004Z" fill="#35495E"/>
<path d="M4 16H2.4C2.17909 16 2 16.1791 2 16.4V17.6C2 17.8209 2.17909 18 2.4 18H4C4.22091 18 4.4 17.8209 4.4 17.6V16.4C4.4 16.1791 4.22091 16 4 16Z" fill="#35495E"/>
</svg>
