<svg width="32" height="32" viewBox="0 0 32 32" fill="none" xmlns="http://www.w3.org/2000/svg">
<path d="M15.3516 2.85628L13.6715 1.84961L13.3517 3.78161C12.8427 6.83228 10.759 9.66694 8.46049 11.6589C3.9609 15.5603 2.97602 19.8003 4.36972 23.3003C5.7034 26.6496 9.08764 28.9429 12.5223 29.3256L13.317 29.4136C11.3516 28.2123 10.0899 25.4056 10.5297 23.3083C10.9642 21.2469 12.4466 19.3163 15.2944 17.5349L16.7304 16.6389L17.2665 18.2456C17.5826 19.1949 18.1294 19.9576 18.6854 20.7323C18.9522 21.1056 19.2229 21.4829 19.4709 21.8843C20.3284 23.2776 20.5552 24.8269 20.002 26.3643C19.4982 27.7616 18.6676 28.8603 17.5224 29.4696L18.8157 29.3256C22.0396 28.9669 24.4062 27.8643 25.9433 26.0203C27.4671 24.1923 28.0016 21.8389 28.0013 19.3336C28.0011 17.0003 27.0421 14.5949 25.9113 12.5936C24.5857 10.2496 22.8561 8.30294 20.9679 6.41628C20.6413 7.06961 20.6667 7.33361 19.9948 8.38294C19.1219 6.06555 17.4838 4.11571 15.3516 2.85628Z" fill="#FE5339"/>
</svg>
