<svg width="32" height="32" viewBox="0 0 32 32" fill="none" xmlns="http://www.w3.org/2000/svg">
<circle cx="16" cy="16" r="16" fill="#D9ECCD"/>
<path fill-rule="evenodd" clip-rule="evenodd" d="M15.5136 10.1203C15.5083 10.1203 15.503 10.1203 15.503 10.1203C15.4977 10.1203 15.4924 10.1203 15.4924 10.1203C13.6998 10.1256 11.9178 10.7701 10.6025 11.9956L13.0104 14.769C13.7635 14.3094 14.6279 14.0664 15.5136 14.0664C16.1395 14.0664 16.7547 14.1879 17.3328 14.4257C17.8896 14.6528 18.3988 14.9856 18.8284 15.4029C18.9185 15.4875 18.9185 15.6301 18.8337 15.7199C18.7488 15.8097 18.6056 15.8097 18.5155 15.7252C17.704 14.9486 16.638 14.5155 15.5083 14.5155C13.2755 14.5155 11.3769 16.2534 11.1912 18.4721C11.1806 18.5884 11.0852 18.6782 10.9685 18.6782C10.9632 18.6782 10.9579 18.6782 10.9473 18.6782C10.8253 18.6676 10.7351 18.5567 10.7404 18.4352C10.8253 17.3945 11.2496 16.4172 11.9496 15.6459L9.80699 12.8778C9.68501 13.0469 9.56833 13.2212 9.46757 13.4008C9.29785 13.6966 8.97964 13.8815 8.6349 13.8815C8.50231 13.8815 8.37503 13.8551 8.25305 13.8023C8.00378 13.6966 7.80755 13.4853 7.72269 13.2265C7.63253 12.9676 7.66435 12.6771 7.80224 12.4394C8.55005 11.1346 9.6638 10.0728 10.9791 9.34905C11.6526 8.97927 12.3739 8.69401 13.1217 8.50383C13.8961 8.30838 14.6916 8.20801 15.4924 8.20801H15.4977C15.4977 8.20801 15.4977 8.20801 15.503 8.20801C16.2986 8.20801 17.0994 8.30838 17.8737 8.50383C18.6215 8.69401 19.3428 8.97927 20.0164 9.34905C21.337 10.0781 22.4507 11.1346 23.1985 12.4394C23.3364 12.6771 23.3629 12.9676 23.2781 13.2265C23.1932 13.4853 22.997 13.6966 22.7477 13.8023C22.2969 13.9925 21.7719 13.8234 21.5279 13.4008C20.9445 12.3866 20.0588 11.5783 19.0352 11.0184C17.9639 10.432 16.7388 10.1256 15.5189 10.1256L15.5136 10.1203ZM19.5603 14.8377V14.3675C19.5603 14.0928 19.7883 13.8657 20.0641 13.8657H21.6923C21.9681 13.8657 22.1962 14.0928 22.1962 14.3675V14.8377L23.2834 16.5704V16.5757L23.2887 16.5862C23.2887 16.5862 23.2887 16.5915 23.294 16.5915L23.2993 16.6074V16.6127L23.3046 16.6179L23.3099 16.6338L23.3152 16.6444V16.6496V16.6549V16.6655V16.6708V16.676V16.6813V16.6866V16.6919V16.6972V23.3216C23.3152 23.5857 23.1031 23.797 22.8379 23.797H18.9185C18.6534 23.797 18.4412 23.5857 18.4412 23.3216V16.6972C18.4412 16.676 18.4412 16.6549 18.4518 16.6338C18.4571 16.6127 18.4677 16.5968 18.4783 16.5757L19.555 14.8377H19.5603ZM13.4824 18.3454L13.5036 18.3242L14.2037 17.6269C14.2885 17.5424 14.4317 17.5424 14.5219 17.6269C14.6067 17.7114 14.6067 17.8541 14.5219 17.9439L13.9491 18.5144L14.5378 19.3015C14.612 19.4019 14.5908 19.5392 14.4954 19.6132C14.4582 19.6449 14.4105 19.6554 14.3628 19.6554C14.2938 19.6554 14.2249 19.6237 14.1824 19.5656L13.6309 18.8314L13.4877 18.974V19.4283C13.4877 19.5498 13.3869 19.6502 13.2649 19.6502C13.1429 19.6502 13.0422 19.5498 13.0422 19.4283V17.7854C13.0422 17.6639 13.1429 17.5635 13.2649 17.5635C13.3869 17.5635 13.4877 17.6639 13.4877 17.7854V18.3454H13.4824ZM15.2219 18.5619C15.0894 18.6042 15.0098 18.7521 15.0098 18.8842C15.0098 19.011 15.0894 19.1694 15.2219 19.2064C15.3704 19.254 15.4765 19.1325 15.572 19.0374C15.6568 18.9529 15.8 18.9529 15.8902 19.0374C15.9751 19.1219 15.9751 19.2645 15.8902 19.3543C15.7258 19.5181 15.5402 19.666 15.2962 19.666C15.2273 19.666 15.1583 19.6554 15.0947 19.6343C14.9303 19.5868 14.7977 19.4758 14.7022 19.3332C14.6173 19.2011 14.5696 19.0427 14.5696 18.8842C14.5696 18.7257 14.6173 18.5672 14.7022 18.4352C14.7977 18.2925 14.9303 18.1869 15.0947 18.134C15.2591 18.0865 15.4182 18.0971 15.572 18.171C15.694 18.2291 15.7947 18.3189 15.8902 18.414C15.9804 18.5038 15.9804 18.6412 15.8902 18.731C15.8053 18.8155 15.6621 18.8155 15.572 18.731C15.4765 18.6359 15.3651 18.5197 15.2219 18.5619ZM17.0411 19.5973C16.9509 19.6396 16.8554 19.666 16.7547 19.666C16.6857 19.666 16.6168 19.6554 16.5531 19.6343C16.3887 19.5868 16.2561 19.4758 16.1607 19.3332C16.0758 19.2011 16.0281 19.0427 16.0281 18.8842C16.0281 18.7257 16.0758 18.5672 16.1607 18.4352C16.2561 18.2925 16.3887 18.1869 16.5531 18.134C16.7176 18.0865 16.8767 18.0971 17.0305 18.171C17.0305 18.171 17.0358 18.171 17.0358 18.1763C17.0782 18.1393 17.1312 18.1182 17.1896 18.1182C17.3116 18.1182 17.4123 18.2186 17.4123 18.3401V19.4389C17.4123 19.5604 17.3116 19.6607 17.1896 19.6607C17.1312 19.6607 17.0782 19.6396 17.0358 19.6026L17.0411 19.5973ZM17.5449 17.7907C17.5449 17.6692 17.6457 17.5688 17.7677 17.5688C17.8896 17.5688 17.9904 17.6692 17.9904 17.7907V19.4336C17.9904 19.5551 17.8896 19.6554 17.7677 19.6554C17.6457 19.6554 17.5449 19.5551 17.5449 19.4336V17.7907ZM11.0533 19.8984C11.0427 19.7452 11.0003 19.5973 10.9154 19.4653C10.873 19.4019 10.8041 19.3068 10.7404 19.2645H10.7351L10.7139 19.2434C10.6344 19.1747 10.6078 19.0585 10.6556 18.9687C10.6556 18.9634 10.6609 18.9634 10.6609 18.9634C10.7298 18.8525 10.873 18.8208 10.9791 18.8947C11.0958 18.974 11.2071 19.1061 11.2814 19.2223C11.4087 19.423 11.4776 19.6607 11.4935 19.8984C11.5254 19.8879 11.5625 19.8773 11.5943 19.8667C11.8383 19.7875 12.0663 19.7188 12.3262 19.7664C12.6444 19.8192 12.9255 19.983 13.1323 20.2365C13.2437 20.3739 13.3233 20.5324 13.3763 20.7014C13.4399 20.8916 13.4612 21.0976 13.4612 21.2983C13.4612 21.7949 13.3445 22.3337 13.1058 22.7722C12.8459 23.2635 12.4376 23.6333 11.8807 23.7548C11.6579 23.8023 11.4564 23.7865 11.2496 23.6861C11.1276 23.7495 10.995 23.7812 10.8571 23.7812C10.7775 23.7812 10.698 23.7706 10.6184 23.7548C10.0669 23.6333 9.65849 23.2582 9.39332 22.7722C9.15465 22.3337 9.03798 21.7949 9.03798 21.2983C9.03798 21.0976 9.06449 20.8969 9.12814 20.7014C9.18117 20.5324 9.26603 20.3739 9.3721 20.2365C9.57364 19.983 9.85473 19.8245 10.1782 19.7664C10.4381 19.7188 10.6662 19.7875 10.9101 19.8667C10.9526 19.8773 10.9897 19.8932 11.0321 19.9037L11.0533 19.8984ZM15.5189 15.6142C13.7369 15.6142 12.2891 17.0564 12.2891 18.8314C12.2891 18.9951 12.2997 19.1589 12.3262 19.3174C12.3421 19.4389 12.2626 19.5551 12.1406 19.5709C12.13 19.5709 12.1194 19.5709 12.1087 19.5709C11.9974 19.5709 11.9019 19.4917 11.886 19.3807C11.8595 19.1959 11.8436 19.011 11.8436 18.8261C11.8436 18.3348 11.939 17.8541 12.1353 17.3998C12.3209 16.9613 12.5861 16.5704 12.9255 16.2323C13.2596 15.8995 13.6574 15.6301 14.0976 15.4452C14.5537 15.255 15.0363 15.1547 15.5296 15.1547C16.0546 15.1547 16.5691 15.2656 17.0464 15.4822C17.5078 15.6882 17.9162 15.9893 18.2556 16.3644C18.3405 16.4542 18.3298 16.5968 18.2397 16.6813C18.1495 16.7659 18.0063 16.7553 17.9215 16.6655C17.3116 15.9946 16.4365 15.609 15.5243 15.609L15.5189 15.6142ZM17.9851 22.3813C18.0859 22.3126 18.2291 22.339 18.298 22.4394C18.367 22.5398 18.3405 22.6771 18.2397 22.7511C17.4388 23.3057 16.4948 23.5963 15.5189 23.5963C15.1424 23.5963 14.7711 23.554 14.4052 23.4642C14.0552 23.3797 13.7104 23.2582 13.3869 23.0944C13.2755 23.0416 13.2331 22.9043 13.2861 22.7933C13.3392 22.6824 13.4771 22.6401 13.5884 22.693C14.1931 22.9941 14.8454 23.1473 15.5189 23.1473C16.4046 23.1473 17.2585 22.8831 17.9851 22.3813ZM13.7316 22.0326C13.6256 21.9745 13.5831 21.8372 13.6468 21.7315C13.7051 21.6259 13.843 21.5836 13.9491 21.647C14.4264 21.9111 14.9727 22.0538 15.5189 22.0538C16.4471 22.0538 17.3275 21.6576 17.9427 20.9655C18.0222 20.8757 18.1654 20.8652 18.2609 20.9444C18.3511 21.0236 18.3617 21.1663 18.2821 21.2614C17.9427 21.647 17.529 21.9534 17.0623 22.17C16.5797 22.3918 16.0546 22.5028 15.5243 22.5028C15.206 22.5028 14.8931 22.4605 14.5855 22.3813C14.2885 22.302 14.0021 22.1911 13.7369 22.0379L13.7316 22.0326ZM12.6444 15.0279L10.2896 12.3179L9.95549 12.1224L10.0563 12.4024C10.0563 12.4077 10.0616 12.413 10.0616 12.413L10.0881 12.4816L12.2838 15.3237C12.4004 15.218 12.5171 15.1177 12.6444 15.0279ZM15.7364 8.65703V9.68186C16.9721 9.71884 18.1919 10.0411 19.2739 10.6327C20.3664 11.2297 21.3052 12.096 21.931 13.179C22.0636 13.4061 22.3447 13.4959 22.5833 13.3955C22.7212 13.3374 22.822 13.2265 22.8644 13.0891C22.9121 12.9465 22.8962 12.7933 22.822 12.6613C21.3794 10.1414 18.6056 8.7257 15.7417 8.65703H15.7364ZM9.60016 12.4394L9.33498 11.6893C9.31907 11.647 9.31907 11.5994 9.32967 11.5572C9.34028 11.5149 9.3668 11.4727 9.40392 11.4463C9.44105 11.4198 9.48348 11.3987 9.53121 11.3987C9.57894 11.3934 9.62137 11.404 9.6638 11.4304L10.2207 11.7632C10.5283 11.4674 10.8624 11.2033 11.2177 10.9655C11.6314 10.6908 12.0663 10.4637 12.5224 10.2735C12.9891 10.0833 13.4771 9.93542 13.9703 9.84034C14.4052 9.75582 14.8454 9.70299 15.2909 9.69242V8.66231C12.427 8.73099 9.65319 10.1467 8.21062 12.6665C8.13637 12.7933 8.12046 12.9518 8.16819 13.0944C8.21592 13.2371 8.31669 13.3427 8.44928 13.4008C8.68794 13.5012 8.96903 13.4114 9.10162 13.1842C9.25012 12.9254 9.41983 12.6771 9.60016 12.4447V12.4394ZM21.0347 16.4753H22.7106L21.8673 15.1282H20.202L21.04 16.4753H21.0347ZM19.7989 15.329L19.0883 16.4753H20.5096L19.7989 15.329ZM20.0217 14.6792H21.7666V14.3675C21.7666 14.3358 21.74 14.3094 21.7082 14.3094H20.08C20.0482 14.3094 20.0217 14.3358 20.0217 14.3675V14.6792ZM20.6846 23.348V16.919H18.9079V23.3216C18.9079 23.3374 18.9238 23.3533 18.9398 23.3533H20.6846V23.348ZM22.8856 16.919H21.1301V23.348H22.8538C22.8697 23.348 22.8856 23.3321 22.8856 23.3163V16.9138V16.919ZM16.9721 19.1008V18.6623C16.8926 18.5884 16.8024 18.5197 16.6857 18.5567C16.5531 18.5989 16.4736 18.7468 16.4736 18.8789C16.4736 19.0057 16.5531 19.1642 16.6857 19.2011C16.8077 19.2381 16.8873 19.1747 16.9721 19.0955V19.1008ZM11.4352 23.2582L11.4564 23.2688C11.5731 23.3321 11.6739 23.3321 11.8011 23.3057C12.6709 23.1156 13.0263 22.0749 13.0263 21.2825C13.0263 20.7701 12.8088 20.2894 12.2572 20.1943C12.0822 20.1626 11.9019 20.226 11.7375 20.2788C11.5837 20.3316 11.4299 20.3792 11.2655 20.3792C11.1011 20.3792 10.9473 20.3263 10.7935 20.2788C10.6556 20.2365 10.5124 20.1837 10.3692 20.1837C10.3374 20.1837 10.3055 20.1837 10.2737 20.189C9.72214 20.2841 9.50469 20.7648 9.50469 21.2772C9.50469 22.0696 9.86003 23.105 10.7298 23.3005C10.8571 23.3269 10.9579 23.3269 11.0745 23.2635L11.1594 23.2212C11.1912 23.2054 11.2284 23.1948 11.2655 23.1948C11.3026 23.1948 11.3397 23.2054 11.3716 23.2212L11.4352 23.2529V23.2582ZM12.2042 20.4373C12.4323 20.4795 12.5861 20.638 12.6656 20.8493C12.7134 20.9867 12.7346 21.1346 12.7346 21.2825C12.7346 21.7579 12.5967 22.3232 12.2944 22.6982C12.2519 22.7511 12.1883 22.7828 12.1194 22.7828C12.0663 22.7828 12.0186 22.7669 11.9762 22.7352C11.8807 22.656 11.8648 22.5186 11.9443 22.4235C12.183 22.133 12.2838 21.6576 12.2838 21.2878C12.2838 21.1821 12.2626 20.9074 12.1247 20.881C12.0027 20.8599 11.9231 20.7437 11.9443 20.6222C11.9656 20.5007 12.0822 20.4214 12.2042 20.4426V20.4373Z" fill="#338000"/>
</svg>
