<svg width="24" height="24" viewBox="0 0 24 24" fill="none" xmlns="http://www.w3.org/2000/svg">
<circle cx="12" cy="12" r="12" fill="#D9ECCD"/>
<g clip-path="url(#clip0_2013_29616)">
<path d="M12.153 19.3067C9.05747 19.3067 6.53906 16.7822 6.53906 13.6791C6.53906 11.2658 7.63582 9.11395 9.24611 7.34668C10.5705 5.89315 11.8813 5.09275 11.9364 5.05941C12.227 4.88365 12.6169 5.12312 12.6169 5.44698V9.30212L14.5893 7.46127C14.7605 7.30147 15.0315 7.31253 15.1885 7.49C15.9381 8.33736 16.5348 9.23218 16.962 10.1496C19.3448 15.2666 16.0601 19.3067 12.153 19.3067Z" fill="#A1D082"/>
<path d="M16.9634 10.1494C16.5362 9.23192 15.9394 8.3371 15.1898 7.48974C15.0329 7.31224 14.7618 7.30121 14.5906 7.46101L12.6183 9.30186V5.44672C12.6183 5.20289 12.3973 5.00699 12.1641 5V19.3064C16.0669 19.2997 19.3442 15.2621 16.9634 10.1494Z" fill="#42A004"/>
<path d="M12.1569 19.3062C10.9805 19.3062 10.0234 18.3468 10.0234 17.1676C10.0234 15.2621 11.8735 14.1338 11.9522 14.0867C12.0198 14.0462 12.0974 14.0257 12.1762 14.0274C12.2549 14.0292 12.3316 14.0531 12.3973 14.0964C12.4746 14.1474 14.2903 15.3652 14.2903 17.1676C14.2903 18.3468 13.3333 19.3062 12.1569 19.3062Z" fill="#D9ECCD"/>
<path d="M14.2878 17.1674C14.2878 15.3651 12.4721 14.1472 12.3948 14.0963C12.3263 14.0512 12.2461 14.0272 12.1641 14.0273V19.3057C13.336 19.3004 14.2878 18.3433 14.2878 17.1674Z" fill="#D9ECCD"/>
</g>
<defs>
<clipPath id="clip0_2013_29616">
<rect width="14.3067" height="14.3067" fill="white" transform="translate(5 5)"/>
</clipPath>
</defs>
</svg>
