<svg width="12" height="12" viewBox="0 0 12 12" fill="none" xmlns="http://www.w3.org/2000/svg">
<path d="M10.2555 2.625H8.64525L8.45775 2.0625C8.36738 1.78938 8.19314 1.55173 7.95983 1.3834C7.72653 1.21507 7.44606 1.12465 7.15838 1.125H4.84163C4.55401 1.12478 4.27366 1.21526 4.04044 1.38358C3.80723 1.55189 3.63303 1.78947 3.54262 2.0625L3.35475 2.625H1.7445C1.38141 2.6254 1.0333 2.76981 0.776556 3.02656C0.519811 3.2833 0.375397 3.63141 0.375 3.9945V9.507C0.375794 9.86983 0.520383 10.2176 0.777085 10.474C1.03379 10.7304 1.38167 10.8746 1.7445 10.875H10.257C10.6198 10.8742 10.9676 10.7296 11.224 10.4729C11.4804 10.2162 11.6246 9.86833 11.625 9.5055V3.993C11.6242 3.63017 11.4796 3.28245 11.2229 3.02603C10.9662 2.7696 10.6183 2.6254 10.2555 2.625ZM10.875 9.5055C10.8748 9.66974 10.8095 9.8272 10.6933 9.94333C10.5772 10.0595 10.4197 10.1248 10.2555 10.125H1.7445C1.58026 10.1248 1.4228 10.0595 1.30667 9.94333C1.19053 9.8272 1.1252 9.66974 1.125 9.5055V3.993C1.12559 3.82902 1.1911 3.67195 1.30719 3.55614C1.42329 3.44032 1.58052 3.3752 1.7445 3.375H3.62512C3.7038 3.37494 3.78046 3.35014 3.84426 3.30411C3.90806 3.25807 3.95576 3.19314 3.98062 3.1185L4.254 2.29838C4.29505 2.17502 4.37391 2.06773 4.4794 1.99173C4.58488 1.91573 4.71162 1.87489 4.84163 1.875H7.15838C7.28844 1.87486 7.41524 1.91573 7.52074 1.99181C7.62624 2.06789 7.70506 2.17529 7.746 2.29875L8.01937 3.1185C8.04424 3.19314 8.09194 3.25807 8.15574 3.30411C8.21954 3.35014 8.2962 3.37494 8.37488 3.375H10.2555C10.4197 3.3752 10.5772 3.44053 10.6933 3.55667C10.8095 3.6728 10.8748 3.83026 10.875 3.9945V9.5055Z" fill="#FF7300"/>
<path d="M6 3.75C5.44374 3.75 4.89997 3.91495 4.43746 4.22399C3.97495 4.53303 3.61446 4.97229 3.40159 5.4862C3.18872 6.00012 3.13302 6.56562 3.24154 7.11119C3.35006 7.65676 3.61793 8.1579 4.01126 8.55124C4.4046 8.94457 4.90574 9.21244 5.45131 9.32096C5.99688 9.42948 6.56238 9.37378 7.0763 9.16091C7.59022 8.94804 8.02947 8.58755 8.33851 8.12504C8.64755 7.66253 8.8125 7.11876 8.8125 6.5625C8.81171 5.81682 8.51514 5.10191 7.98786 4.57464C7.46059 4.04737 6.74568 3.75079 6 3.75ZM6 8.625C5.59208 8.625 5.19331 8.50404 4.85414 8.27741C4.51496 8.05078 4.25061 7.72866 4.0945 7.35178C3.93839 6.97491 3.89755 6.56021 3.97713 6.16013C4.05671 5.76004 4.25315 5.39254 4.54159 5.10409C4.83004 4.81565 5.19754 4.61921 5.59763 4.53963C5.99771 4.46005 6.41241 4.50089 6.78929 4.657C7.16616 4.8131 7.48828 5.07746 7.71491 5.41664C7.94154 5.75581 8.0625 6.15458 8.0625 6.5625C8.06191 7.10933 7.84442 7.63358 7.45775 8.02025C7.07109 8.40691 6.54683 8.6244 6 8.625Z" fill="#FF7300"/>
<path d="M9.75 4.875C9.95711 4.875 10.125 4.70711 10.125 4.5C10.125 4.29289 9.95711 4.125 9.75 4.125C9.54289 4.125 9.375 4.29289 9.375 4.5C9.375 4.70711 9.54289 4.875 9.75 4.875Z" fill="#FF7300"/>
</svg>
