<svg width="20" height="20" viewBox="0 0 20 20" fill="none" xmlns="http://www.w3.org/2000/svg">
<path d="M1.43492 18.5642C1.49296 18.6223 1.5619 18.6684 1.63777 18.6999C1.71364 18.7314 1.79497 18.7475 1.87711 18.7475C1.95924 18.7475 2.04057 18.7314 2.11644 18.6999C2.19232 18.6684 2.26125 18.6223 2.31929 18.5642L10.0005 10.883L17.6849 18.5642C17.8022 18.6815 17.9613 18.7474 18.1271 18.7474C18.293 18.7474 18.452 18.6815 18.5693 18.5642C18.6866 18.447 18.7525 18.2879 18.7525 18.1221C18.7525 17.9562 18.6866 17.7971 18.5693 17.6799L10.8849 9.99861L18.5662 2.31424C18.6834 2.19696 18.7493 2.0379 18.7493 1.87205C18.7493 1.7062 18.6834 1.54714 18.5662 1.42986C18.4489 1.31259 18.2898 1.2467 18.124 1.2467C17.9581 1.2467 17.7991 1.31259 17.6818 1.42986L10.0005 9.11424L2.31617 1.43299C2.19661 1.3306 2.04281 1.27709 1.88551 1.28317C1.72821 1.28925 1.579 1.35445 1.46769 1.46576C1.35638 1.57707 1.29118 1.72628 1.2851 1.88358C1.27902 2.04088 1.33253 2.19468 1.43492 2.31424L9.11617 9.99861L1.43492 17.683C1.31851 17.8001 1.25317 17.9585 1.25317 18.1236C1.25317 18.2887 1.31851 18.4471 1.43492 18.5642Z" fill="black"/>
</svg>
