<svg width="18" height="18" viewBox="0 0 18 18" fill="none" xmlns="http://www.w3.org/2000/svg">
<path d="M0.434431 17.5656C0.492477 17.6237 0.561407 17.6698 0.637281 17.7012C0.713154 17.7327 0.794484 17.7489 0.876618 17.7489C0.958753 17.7489 1.04008 17.7327 1.11596 17.7012C1.19183 17.6698 1.26076 17.6237 1.31881 17.5656L9.00006 9.88433L16.6844 17.5656C16.8017 17.6829 16.9608 17.7487 17.1266 17.7487C17.2925 17.7487 17.4515 17.6829 17.5688 17.5656C17.6861 17.4483 17.752 17.2892 17.752 17.1234C17.752 16.9575 17.6861 16.7985 17.5688 16.6812L9.88443 8.99996L17.5657 1.31558C17.683 1.19831 17.7488 1.03925 17.7488 0.873394C17.7488 0.707542 17.683 0.548482 17.5657 0.431207C17.4484 0.313931 17.2893 0.248047 17.1235 0.248047C16.9576 0.248047 16.7986 0.313931 16.6813 0.431207L9.00006 8.11558L1.31568 0.434332C1.19612 0.33194 1.04232 0.278437 0.885023 0.284512C0.727725 0.290588 0.578513 0.355796 0.467204 0.467105C0.355895 0.578414 0.290687 0.727626 0.284611 0.884924C0.278536 1.04222 0.332039 1.19602 0.434431 1.31558L8.11568 8.99996L0.434431 16.6843C0.318024 16.8014 0.252686 16.9598 0.252686 17.125C0.252686 17.2901 0.318024 17.4485 0.434431 17.5656Z" fill="black"/>
</svg>
