<svg width="32" height="32" viewBox="0 0 32 32" fill="none" xmlns="http://www.w3.org/2000/svg">
<g clip-path="url(#clip0_727_14925)">
<path d="M16.6041 15.6319L12.5199 22.0143L0.000618631 31.8357H0L2.87367 24.4301L3.67281 23.778L3.59988 22.5587L4.26225 20.8518L4.99588 20.374L4.98122 18.9991L5.64668 17.2842L6.64292 16.6846L6.35359 15.4625L7.03081 13.7173L8.03881 13.2509L7.72794 11.9208L8.8953 8.91235L10.4048 10.0797C12.6024 11.7785 14.6743 13.634 16.6041 15.6319Z" fill="#FFDD55"/>
<path d="M31.2395 16.5713C30.9246 16.7129 30.7625 16.6623 30.3708 16.5398C29.8825 16.3872 29.1447 16.1565 28.1873 16.5869C27.2297 17.0174 26.9126 17.7223 26.7027 18.1888C26.5343 18.563 26.4646 18.7179 26.1496 18.8595C25.8347 19.0011 25.6725 18.9504 25.2811 18.828C24.7927 18.6753 24.0549 18.4447 23.0977 18.8751L23.8586 20.5677C24.1736 20.4261 24.3357 20.4769 24.7271 20.5993C25.0065 20.6867 25.3675 20.7996 25.8046 20.7996C26.1315 20.7996 26.501 20.7364 26.9106 20.5523C27.8681 20.1218 28.1852 19.4169 28.3952 18.9504C28.5636 18.5762 28.6333 18.4213 28.9482 18.2797C29.2632 18.138 29.4255 18.1887 29.817 18.3112C30.3053 18.4638 31.043 18.6944 32.0005 18.264L31.2395 16.5713Z" fill="#00CB76"/>
<path d="M15.7365 0.164429C15.5555 0.53901 15.3616 0.628093 14.9754 0.805516C14.4748 1.03546 13.7893 1.35041 13.318 2.32549C12.8468 3.30058 13.0259 4.03341 13.1568 4.56853C13.2578 4.9814 13.3085 5.18864 13.1274 5.56329C12.9464 5.93774 12.7526 6.02676 12.3664 6.20413C11.8658 6.43401 11.1803 6.74889 10.709 7.72392L12.38 8.53154C12.561 8.15708 12.7549 8.06806 13.141 7.8907C13.6416 7.66082 14.3272 7.34593 14.7984 6.37085C15.2697 5.39576 15.0905 4.66293 14.9596 4.12781C14.8586 3.71494 14.808 3.5077 14.989 3.13312C15.1701 2.75854 15.3639 2.66945 15.7501 2.49203C16.2507 2.26208 16.9363 1.94714 17.4076 0.972052L15.7365 0.164429Z" fill="#8BBBFF"/>
<path d="M17.4688 4.60044H19.3246V6.45633H17.4688V4.60044ZM22.1085 0.27002H23.9644V2.12591H22.1085V0.27002Z" fill="#1F7099"/>
<path d="M24.8926 12.3333H26.7485V14.1684H24.8926V12.3333ZM29.5323 9.54944H31.3882V11.3845H29.5323V9.54944Z" fill="#284866"/>
<path d="M7.26172 4.90975H9.11761V6.71789H7.26172V4.90975ZM9.11761 0.27002H10.9735V2.07815H9.11761V0.27002Z" fill="#1F7099"/>
<path d="M25.8203 23.5165H27.6762V25.3246H25.8203V23.5165ZM29.5321 20.6848H31.388V22.4929H29.5321V20.6848Z" fill="#284866"/>
<path d="M14.3892 17.7939L13.061 19.09C11.2057 17.1462 9.1921 15.3522 7.03122 13.7172L7.72842 11.9207C10.125 13.6961 12.349 15.6578 14.3892 17.7939ZM11.6938 20.4244L10.3656 21.7204C8.88281 20.1488 7.30722 18.6675 5.64735 17.2842L6.35382 15.4623C8.23971 16.9986 10.0235 18.6561 11.6938 20.4244ZM9.05848 22.996L7.7309 24.292C6.61968 23.101 5.4628 21.9534 4.26285 20.8518L4.9817 18.999C6.39775 20.2697 7.75874 21.6047 9.05848 22.996ZM6.52271 25.4705L5.19451 26.7672C4.43881 25.9707 3.66511 25.1914 2.87402 24.43L3.6003 22.5586C4.59877 23.5002 5.57435 24.4714 6.52271 25.4705Z" fill="#FFF69E"/>
<path d="M16.6044 15.6318C18.7894 17.8949 20.7852 20.3332 22.5717 22.9224L23.2696 23.9332L20.1392 24.9964L18.6232 24.6629L18.3199 25.6142L16.4875 26.2365L15.1393 26.0128L14.6482 26.8612L12.8709 27.4648L11.6937 27.335L11.0083 28.0973L9.37633 28.6515L7.73077 28.4251L7.48394 29.2942L0.000976562 31.8356" fill="#FFB555"/>
<path d="M20.1392 24.9967L18.3198 25.6141C16.7442 23.2862 14.9873 21.108 13.0609 19.09L14.3891 17.7939C16.5091 20.0124 18.43 22.4176 20.1392 24.9967ZM16.4875 26.2364L14.6483 26.8612C13.3281 25.0609 11.8978 23.344 10.3655 21.7204L11.6937 20.4244C13.4202 22.252 15.0218 24.1937 16.4875 26.2364ZM12.8709 27.465L11.0082 28.0972C9.9667 26.7858 8.87333 25.5164 7.73072 24.292L9.05831 22.996C10.3964 24.4275 11.6689 25.9197 12.8709 27.465ZM9.37628 28.6515L7.48389 29.2943C6.74067 28.4341 5.97728 27.5914 5.19434 26.7672L6.52254 25.4705C7.50492 26.5043 8.45762 27.5665 9.37628 28.6515Z" fill="#FFDD55"/>
<path d="M31.4281 1.62425C31.1664 1.87912 31.1509 2.06533 31.1169 2.47301C31.0711 3.01555 31.0086 3.75853 30.2496 4.49717C29.4905 5.2352 28.7463 5.27727 28.2025 5.30758C27.7936 5.33047 27.6074 5.34099 27.3451 5.59586C27.0834 5.85012 27.068 6.03633 27.0339 6.44462C26.9882 6.98716 26.9257 7.73014 26.1666 8.46817C25.4076 9.20619 24.6633 9.24826 24.1196 9.27857C23.7113 9.30146 23.5244 9.31198 23.2628 9.56685C23.0011 9.82111 22.9856 10.0073 22.951 10.4156C22.9058 10.9582 22.8433 11.7011 22.0843 12.4392C21.3252 13.1772 20.581 13.2193 20.0372 13.2496C19.6289 13.2725 19.4421 13.283 19.1804 13.5378L18.9707 13.3226L25.4588 6.71793L31.1992 1.38855L31.4281 1.62425Z" fill="#DF6666"/>
<path d="M31.1987 1.38855L18.9702 13.3226L17.8857 12.2072C18.6448 11.4691 19.389 11.4271 19.9328 11.3968C20.3417 11.3739 20.5279 11.3634 20.7896 11.1085C21.0513 10.8542 21.0674 10.668 21.1014 10.2603C21.1472 9.7178 21.2096 8.97482 21.9681 8.23618C22.7271 7.49815 23.472 7.45608 24.0151 7.42577C24.4241 7.40288 24.6109 7.39236 24.8719 7.13749C25.1342 6.88323 25.1497 6.69702 25.1837 6.28935C25.2295 5.74681 25.292 5.00383 26.0511 4.26518C26.8101 3.52716 27.5543 3.48509 28.0981 3.45478C28.5064 3.43189 28.6932 3.42137 28.9549 3.16649C29.2166 2.91224 29.2327 2.72603 29.2667 2.31773C29.3125 1.77519 29.375 1.03222 30.134 0.294189L31.1987 1.38855Z" fill="#E69768"/>
</g>
<defs>
<clipPath id="clip0_727_14925">
<rect width="32" height="32" fill="white"/>
</clipPath>
</defs>
</svg>
