<svg width="32" height="32" viewBox="0 0 32 32" fill="none" xmlns="http://www.w3.org/2000/svg">
<path d="M16 1.49414C24.3962 1.49417 31.2021 8.30107 31.2021 16.6973C31.2021 19.164 30.6147 21.493 29.5723 23.5527H2.42773C1.38523 21.493 0.796761 19.164 0.796875 16.6973L0.801758 16.3047C1.00994 8.08988 7.73502 1.49414 16 1.49414Z" fill="#FFD304" stroke="black" stroke-width="0.2"/>
<path d="M16.7657 1.91588C16.3458 1.58447 16.1435 1.25069 16.1644 0.923587C16.1967 0.421039 16.7502 0.083758 16.7558 0.0803852L16.8239 0.0395992L16.8084 0H14.3911C12.776 0 11.3509 0.851509 10.54 2.12712C10.5595 2.33155 10.6393 2.71648 10.9591 2.96282C11.268 3.20073 11.7146 3.24364 12.2878 3.09086C12.3139 3.04933 12.3422 3.00861 12.3734 2.96913C12.8445 2.37283 13.5738 1.98946 14.3911 1.98946H16.862C16.8298 1.96522 16.7977 1.94105 16.7657 1.91588Z" fill="#6C5475"/>
<path d="M12.6186 4.92538C12.0192 4.4417 11.896 3.57351 12.3735 2.96915C10.5816 3.51049 10.6274 2.00591 10.6278 1.99316C10.1253 2.72588 9.83018 3.61055 9.83018 4.56106C9.83018 4.75493 9.7548 4.94206 9.61707 5.07847C9.22189 5.46972 8.97081 6.00593 8.9502 6.60092C10.1609 5.91845 11.4648 5.41627 12.8205 5.11026C12.757 5.04462 12.6896 4.98288 12.6186 4.92538Z" fill="#543E5B"/>
<path d="M22.3848 5.08093C22.3164 5.01279 22.2621 4.93179 22.2251 4.8426C22.1881 4.7534 22.1692 4.65777 22.1693 4.5612C22.1697 3.87313 22.0131 3.19403 21.7113 2.57568C21.701 2.60566 21.6906 2.63558 21.6801 2.66525C21.5693 2.97649 21.3833 3.18947 21.1276 3.29821C20.575 3.53337 19.8651 3.21839 19.858 3.21508L19.8442 3.20883L19.8292 3.20727C19.8275 3.20709 19.8076 3.20477 19.7731 3.19984C20.066 3.77796 19.9102 4.49974 19.384 4.92284C19.3118 4.98102 19.2432 5.04356 19.1787 5.1101C20.5343 5.41608 21.8381 5.91819 23.0488 6.60057C23.0282 6.00708 22.7785 5.47186 22.3848 5.08093Z" fill="#6C5475"/>
<path d="M19.6265 2.96926C19.7057 3.07 19.7704 3.18145 19.8184 3.30029L19.8198 3.30048C19.8198 3.30048 21.3113 3.97691 21.7681 2.69831C21.0522 1.11178 19.4545 0 17.6087 0H16.7078C16.7078 0 15.2712 0.855943 16.7078 1.98946H17.6087C18.4261 1.98946 19.1553 2.37283 19.6265 2.96926Z" fill="#81698C"/>
<path d="M30.3199 19.8999C30.0836 20.1362 29.8608 20.2379 29.6583 20.2017C29.3314 20.1433 29.1439 19.7443 29.1417 19.7394C29.095 19.6401 24.4667 9.79329 24.0513 8.67027C23.9406 8.37153 23.9428 8.1428 24.0574 7.99052C24.2213 7.77279 24.5779 7.75006 24.7196 7.75006C24.756 7.75006 24.7782 7.75155 24.7792 7.75162L24.8211 7.75474L24.8609 7.71639C22.4184 5.80413 19.3424 4.66406 15.9999 4.66406C12.547 4.66406 9.37855 5.88102 6.8991 7.90883C6.86493 8.07278 6.84051 8.35741 7.00209 8.58901C7.14619 8.7955 7.40096 8.90905 7.76029 8.92735C7.74517 9.10823 7.7501 9.47381 7.98982 9.72671C8.17539 9.92245 8.45764 10.0062 8.83015 9.97686C8.68612 10.6679 8.12973 13.942 9.95929 16.1251C11.2447 17.659 13.4082 18.3367 16.3897 18.1399C16.3073 18.7528 16.0425 21.6089 17.8855 23.6614C19.3987 25.3465 21.9149 26.0781 25.3642 25.836C25.3852 26.0031 25.4619 26.3392 25.7423 26.5192C25.9867 26.676 26.3198 26.6735 26.7337 26.5118C26.7657 26.6442 26.8472 26.8511 27.0541 26.9948C27.1096 27.0331 27.1697 27.0643 27.2329 27.0877C28.1816 26.0626 28.9925 24.9081 29.6342 23.6525C30.0406 22.4482 30.2913 21.1724 30.3638 19.8491C30.3484 19.8685 30.3337 19.8861 30.3199 19.8999Z" fill="#E4E5EA"/>
<path d="M24.7847 7.65816C24.7557 7.6561 23.5466 7.57665 23.9632 8.70279C24.3849 9.84261 29.0568 19.7794 29.0568 19.7794C29.0568 19.7794 29.521 20.7933 30.3551 19.9955C30.3754 19.683 30.386 19.368 30.386 19.0504C30.386 14.4131 28.1913 10.2891 24.7847 7.65816Z" fill="#F7F7F7"/>
<path d="M26.8065 26.3796C25.4651 26.974 25.4497 25.7357 25.4497 25.7357C14.9366 26.5223 16.4992 18.0382 16.4992 18.0382C6.6931 18.7545 8.9497 9.86912 8.9497 9.86912C7.62531 10.0571 7.8659 8.8361 7.8659 8.8361C6.66131 8.8361 7.01239 7.83663 7.02233 7.80908C3.7256 10.4453 1.61328 14.5008 1.61328 19.0502C1.61328 20.6597 1.87773 22.2074 2.36529 23.6524C4.27592 27.3904 7.67877 30.2386 11.788 31.4125H20.2111C22.9737 30.6233 25.4162 29.0765 27.3014 27.0122C26.8282 26.8609 26.8065 26.3796 26.8065 26.3796Z" fill="#D2D3DE"/>
<path d="M7.75996 8.92719C7.74485 9.10807 7.74978 9.47365 7.9895 9.72655C8.17507 9.9223 8.45732 10.0061 8.82983 9.9767C8.6858 10.6677 8.12941 13.9419 9.95897 16.1249C11.2444 17.6589 13.4079 18.3366 16.3894 18.1398C16.307 18.7526 16.0421 21.6088 17.8852 23.6612C19.3984 25.3464 21.9146 26.078 25.3639 25.8358C25.3849 26.003 25.4616 26.339 25.742 26.519C25.9817 26.6728 26.3069 26.673 26.7098 26.5204C28.189 24.4038 29.0567 21.8284 29.0567 19.0502C29.0567 11.839 23.2109 5.99316 15.9997 5.99316C12.8723 5.99316 10.0023 7.09314 7.75391 8.92663C7.75597 8.92676 7.75784 8.92707 7.75996 8.92719Z" fill="#6C5475"/>
<path d="M25.4496 25.7358C14.9365 26.5224 16.4991 18.0383 16.4991 18.0383C6.69301 18.7546 8.9496 9.86919 8.9496 9.86919C7.62846 10.0568 7.86462 8.84242 7.86574 8.83643C4.86551 11.2287 2.94238 14.9147 2.94238 19.0502C2.94238 24.7875 6.64285 29.6603 11.7871 31.4126C13.1253 31.7949 14.5384 31.9999 15.9994 31.9999C17.4604 31.9999 18.8734 31.7949 20.2116 31.4126C22.9197 30.4901 25.2273 28.7026 26.8059 26.3798C25.465 26.9737 25.4496 25.7358 25.4496 25.7358Z" fill="#543E5B"/>
<path d="M8.83008 9.97679C8.68605 10.6678 8.12966 13.942 9.95922 16.125C10.9145 17.2649 12.3545 17.932 14.2549 18.1187C15.3716 18.2284 16.2528 19.1049 16.3959 20.2178C16.5343 21.2949 16.9217 22.588 17.8855 23.6613C19.3987 25.3464 21.9149 26.078 25.3642 25.8358L25.3663 25.8512C26.761 23.9337 27.582 21.572 27.575 19.0178C27.5576 12.6592 22.3516 7.47129 15.9928 7.4751C13.2793 7.47672 10.7846 8.41243 8.81184 9.97753C8.81803 9.97716 8.82377 9.97729 8.83008 9.97679Z" fill="#FF8719"/>
<path d="M25.45 25.7359C18.3316 26.2684 16.7495 22.5507 16.47 20.0943C16.3447 18.9941 15.4693 18.1326 14.3663 18.035C7.07689 17.3902 8.93138 9.94351 8.94986 9.87012C6.18204 11.9989 4.40363 15.3507 4.425 19.1174C4.46128 25.512 9.73467 30.6946 16.129 30.6247C19.9781 30.5826 23.3763 28.6617 25.45 25.7359Z" fill="#FF6124"/>
<path d="M24.1004 22.5766C24.1004 21.5928 23.4338 20.7653 22.5278 20.5197C23.0123 20.0565 23.3145 19.4044 23.3145 18.6812C23.3145 17.2765 22.1757 16.1376 20.7709 16.1376C20.2865 16.1371 19.812 16.2756 19.404 16.5367C18.8792 15.6736 17.9299 15.0971 16.846 15.0971C16.6677 15.0971 16.4933 15.1136 16.3235 15.1435C16.4001 14.9167 16.4392 14.6789 16.4391 14.4396C16.4391 13.2233 15.4532 12.2373 14.2369 12.2373C13.3199 12.2373 12.534 12.7979 12.2027 13.595C11.8468 13.4364 11.4615 13.3545 11.0718 13.3548C9.53494 13.3548 8.28906 14.6006 8.28906 16.1375C8.28906 17.6744 9.53494 18.9203 11.0718 18.9203C12.4507 18.9203 13.5946 17.9172 13.8154 16.601C13.9489 16.6269 14.0867 16.6409 14.2277 16.6415C13.9824 17.0843 13.8539 17.5823 13.8546 18.0884C13.8546 19.6455 15.0444 20.9243 16.5644 21.0663C16.3863 21.4443 16.2942 21.857 16.2947 22.2748C16.2947 23.8435 17.5664 25.1152 19.1351 25.1152C19.2601 25.1152 19.3828 25.1062 19.5036 25.0906C19.4757 25.2274 19.4617 25.3667 19.4618 25.5063C19.4618 26.6492 20.3883 27.5758 21.5313 27.5758C22.6742 27.5758 23.6008 26.6492 23.6008 25.5063C23.6013 25.0753 23.4666 24.6551 23.2157 24.3047C23.7514 23.9178 24.1004 23.2881 24.1004 22.5766Z" fill="#FF6124"/>
<path d="M12.7544 18.0422V15.0073C12.7544 14.662 13.0369 14.3794 13.3823 14.3794H11.8896C11.5443 14.3794 11.2617 14.662 11.2617 15.0073V18.0422C11.2617 18.3875 11.5443 18.6701 11.8896 18.6701H13.3823C13.0369 18.6701 12.7544 18.3875 12.7544 18.0422Z" fill="#FFC43F"/>
<path d="M14.6843 18.0844V14.9642C14.6843 14.7055 14.8389 14.4817 15.06 14.3789H13.2773C12.932 14.3789 12.6494 14.6615 12.6494 15.0068V18.0417C12.6494 18.387 12.932 18.6696 13.2773 18.6696H15.06C14.8389 18.5669 14.6843 18.3431 14.6843 18.0844Z" fill="#FFDA59"/>
<path d="M16.3125 14.3789H14.9978C14.7767 14.4817 14.6221 14.7055 14.6221 14.9642V18.0844C14.6221 18.3431 14.7767 18.5669 14.9978 18.6697H16.3125C16.6578 18.6697 16.9404 18.3871 16.9404 18.0418V15.0069C16.9404 14.6615 16.6579 14.3789 16.3125 14.3789Z" fill="#FCE4A1"/>
<path d="M18.8666 19.0044L19.9984 21.8204C20.1272 22.1408 19.9704 22.5084 19.65 22.6372L21.0349 22.0805C21.3553 21.9517 21.5122 21.5841 21.3834 21.2637L20.2516 18.4477C20.1228 18.1273 19.7552 17.9705 19.4348 18.0993L18.0498 18.656C18.3702 18.5272 18.7378 18.684 18.8666 19.0044Z" fill="#FFC43F"/>
<path d="M18.1888 22.6342L17.0143 19.7121C16.9159 19.4674 16.9785 19.1965 17.1507 19.0171L15.331 19.7485C15.0106 19.8773 14.8538 20.2449 14.9826 20.5653L16.1144 23.3812C16.2432 23.7017 16.6108 23.8585 16.9312 23.7297L18.6715 23.0302C18.4611 22.9894 18.2742 22.8468 18.1888 22.6342Z" fill="#FFDA59"/>
<path d="M20.0958 21.7813L18.964 18.9653C18.8352 18.6449 18.4676 18.4881 18.1472 18.6168L17.0532 19.0566C16.9079 19.2348 16.8606 19.4849 16.952 19.7123L18.1265 22.6345C18.2179 22.8618 18.4251 23.0097 18.6534 23.0378L19.7473 22.5981C20.0677 22.4693 20.2246 22.1018 20.0958 21.7813Z" fill="#FCE4A1"/>
<path d="M13.6184 9.58828L14.5983 12.0264C14.7098 12.3038 14.5741 12.6221 14.2966 12.7335L15.4958 12.2516C15.7732 12.1401 15.9089 11.8219 15.7974 11.5444L14.8175 9.10635C14.706 8.8289 14.3877 8.69311 14.1103 8.80467L12.9111 9.28667C13.1886 9.17511 13.5068 9.31084 13.6184 9.58828Z" fill="#FFC43F"/>
<path d="M12.9942 12.6853L11.9788 10.159C11.9077 9.98222 11.9338 9.78972 12.031 9.64062L10.5575 10.2329C10.28 10.3444 10.1443 10.6626 10.2558 10.9401L11.2357 13.3782C11.3472 13.6556 11.6655 13.7914 11.9429 13.6799L13.5419 13.0372C13.31 13.0469 13.0853 12.9121 12.9942 12.6853Z" fill="#FFDA59"/>
<path d="M14.6818 11.9927L13.7019 9.55459C13.5904 9.27714 13.2722 9.14136 12.9947 9.25291L12.0065 9.65009C11.8781 9.80443 11.8357 10.0229 11.9154 10.2213L12.9308 12.7476C13.0106 12.9461 13.1924 13.0744 13.3919 13.097L14.3801 12.6998C14.6576 12.5884 14.7933 12.2701 14.6818 11.9927Z" fill="#FCE4A1"/>
<path d="M25.6003 22.5581L22.9833 22.321C22.6855 22.294 22.464 22.0283 22.491 21.7305L22.3743 23.0176C22.3473 23.3154 22.5689 23.5811 22.8667 23.6081L25.4836 23.8452C25.7814 23.8722 26.0471 23.6507 26.0741 23.3529L26.1908 22.0658C26.1638 22.3636 25.8981 22.5851 25.6003 22.5581Z" fill="#FFC43F"/>
<path d="M26.2916 20.2007L26.2833 20.2924C26.2605 20.5435 26.0375 20.7294 25.7864 20.7068L23.133 20.4662C22.8817 20.4435 22.6957 20.2205 22.7185 19.9693L22.7273 19.8729L22.6598 19.8667L22.4827 21.8206C22.4557 22.1184 22.6773 22.3841 22.9751 22.4111L25.592 22.6483C25.8898 22.6752 26.1555 22.4537 26.1825 22.1559L26.3591 20.2068L26.2916 20.2007Z" fill="#FFDA59"/>
<path d="M25.927 18.9484L23.3101 18.7112C23.0122 18.6842 22.7465 18.9058 22.7196 19.2036L22.6357 20.1286C22.6863 20.3567 22.8799 20.5373 23.1242 20.5595L25.7776 20.8C26.0219 20.8222 26.2448 20.6792 26.3356 20.4639L26.4194 19.5389C26.4463 19.2412 26.2248 18.9754 25.927 18.9484Z" fill="#FCE4A1"/>
<path d="M9.06608 19.7246L6.44916 19.4875C6.15135 19.4605 5.92981 19.1947 5.95679 18.897L5.84012 20.1841C5.81313 20.4819 6.03468 20.7476 6.33248 20.7746L8.94941 21.0117C9.24721 21.0387 9.51291 20.8172 9.5399 20.5194L9.65657 19.2323C9.62959 19.5301 9.36389 19.7516 9.06608 19.7246Z" fill="#FFC43F"/>
<path d="M7.68001 19.1961L7.92748 16.4655C7.94578 16.2638 8.06926 16.0962 8.2384 16.0107L6.77616 15.8782C6.47836 15.8512 6.21266 16.0728 6.18567 16.3706L5.94851 18.9875C5.92153 19.2853 6.14308 19.551 6.44088 19.578L7.92161 19.7122C7.76002 19.5992 7.66103 19.4054 7.68001 19.1961Z" fill="#FFDA59"/>
<path d="M9.39308 16.1153L8.18568 16.0059C8.01154 16.0897 7.88369 16.2599 7.86501 16.4654L7.61755 19.196C7.59893 19.4015 7.69412 19.5918 7.85033 19.7056L9.05774 19.8151C9.35554 19.8421 9.62124 19.6205 9.64823 19.3227L9.88545 16.7058C9.91243 16.408 9.69089 16.1423 9.39308 16.1153Z" fill="#FCE4A1"/>
<path d="M16.7308 28.127L16.5447 25.0978C16.5236 24.7531 16.7883 24.4537 17.133 24.4326L15.6431 24.5241C15.2984 24.5453 15.0337 24.8447 15.0549 25.1893L15.241 28.2185C15.2621 28.5632 15.5615 28.8279 15.9062 28.8068L17.396 28.7153C17.0513 28.7364 16.752 28.4717 16.7308 28.127Z" fill="#FFC43F"/>
<path d="M18.8315 28.0186L18.6434 24.9568C18.6252 24.6607 18.816 24.3985 19.0874 24.313L17.0289 24.4394C16.6842 24.4606 16.4195 24.7599 16.4406 25.1046L16.6267 28.1338C16.6479 28.4785 16.9472 28.7432 17.292 28.7221L19.3209 28.5975C19.0553 28.5349 18.849 28.3041 18.8315 28.0186Z" fill="#FFDA59"/>
<path d="M20.9087 27.8706L20.7227 24.8414C20.7015 24.4967 20.4021 24.232 20.0574 24.2531L19.0097 24.3175C18.7461 24.4077 18.5624 24.6658 18.5803 24.9566L18.7684 28.0184C18.7862 28.3092 19.0001 28.5429 19.2727 28.6002L20.3204 28.5359C20.6651 28.5146 20.9299 28.2153 20.9087 27.8706Z" fill="#FCE4A1"/>
<path d="M18.8111 13.5272L20.833 11.2638C21.0631 11.0063 21.462 10.9838 21.7196 11.2139L20.6065 10.2195C20.3489 9.98935 19.9499 10.0118 19.7198 10.2694L17.698 12.5328C17.4679 12.7903 17.4904 13.1893 17.7479 13.4194L18.8611 14.4138C18.6036 14.1837 18.5811 13.7848 18.8111 13.5272Z" fill="#FFC43F"/>
<path d="M22.4734 14.8696L20.1172 12.7648C19.9348 12.6019 19.866 12.3577 19.9157 12.1338L18.7331 13.4576C18.503 13.7152 18.5255 14.1141 18.7831 14.3442L21.0464 16.3661C21.304 16.5962 21.7029 16.5737 21.933 16.3161L23.1048 15.0044C22.8922 15.0707 22.6507 15.028 22.4734 14.8696Z" fill="#FFDA59"/>
<path d="M23.905 13.1661L21.6417 11.1443C21.3842 10.9142 20.9852 10.9366 20.7551 11.1942L19.8516 12.2056C19.8058 12.4269 19.875 12.6665 20.0548 12.8272L22.4111 14.932C22.5909 15.0927 22.8367 15.1345 23.0515 15.0641L23.955 14.0527C24.185 13.7952 24.1625 13.3962 23.905 13.1661Z" fill="#FCE4A1"/>
<path d="M12.2631 25.5934L9.67459 24.0089C9.38004 23.8286 9.2866 23.4401 9.46685 23.1455L8.68755 24.4186C8.50723 24.7132 8.60073 25.1017 8.89529 25.282L11.4838 26.8665C11.7783 27.0468 12.1668 26.9533 12.3472 26.6587L13.1265 25.3856C12.9462 25.6802 12.5577 25.7737 12.2631 25.5934Z" fill="#FFC43F"/>
<path d="M13.4222 23.7463L10.773 22.1247C10.555 21.9912 10.4453 21.7462 10.4708 21.5068L9.41313 23.2346C9.23281 23.5292 9.32632 23.9177 9.62087 24.098L12.2094 25.6825C12.5039 25.8628 12.8924 25.7693 13.0728 25.4748L14.1604 23.698C13.9547 23.8627 13.659 23.8913 13.4222 23.7463Z" fill="#FFDA59"/>
<path d="M14.4488 22.023L11.8603 20.4385C11.5658 20.2582 11.1773 20.3517 10.9969 20.6463L10.4105 21.6043C10.3732 21.8523 10.4835 22.1111 10.7099 22.2497L13.3591 23.8714C13.5855 24.01 13.8661 23.9905 14.0701 23.8444L14.6566 22.8863C14.8369 22.5918 14.7434 22.2033 14.4488 22.023Z" fill="#FCE4A1"/>
<path d="M17.1163 20.3576C17.084 20.6447 16.7815 20.8045 16.5176 20.687C16.1284 20.5139 15.5668 20.4483 14.9932 21.012C13.9502 22.0369 13.2779 22.7727 12.8061 22.2911C12.3628 21.8388 12.9044 21.385 12.9044 21.385C12.9044 21.385 11.3654 22.0042 11.8784 20.5439C11.8784 20.5439 10.0064 21.0159 9.95041 19.9583C9.89376 18.8883 11.8735 19.2304 11.8735 19.2304C11.8735 19.2304 11.275 18.2961 11.7942 17.9072C12.2757 17.5464 13.0778 18.6419 13.0778 18.6419C13.0778 18.6419 12.634 17.6636 13.3178 17.5309C14.0017 17.3982 14.741 18.9643 15.4091 19.4153C15.8211 19.6934 16.3917 19.8303 16.7687 19.8945C16.9886 19.9319 17.1417 20.1324 17.1168 20.354L17.1163 20.3576Z" fill="#84BD36"/>
<path d="M16.5999 20.1516C16.7845 20.0139 16.7729 19.7414 16.5859 19.6069C16.3102 19.4085 16.0393 19.0482 16.1967 18.4266C16.4831 17.2964 16.7193 16.5377 16.1981 16.4064C15.7084 16.2831 15.6137 16.8385 15.6137 16.8385C15.6137 16.8385 15.4212 15.5299 14.622 16.4702C14.622 16.4702 14.1944 14.9915 13.4437 15.3782C12.6842 15.7693 13.7157 16.995 13.7157 16.995C13.7157 16.995 12.8318 16.9585 12.7728 17.4724C12.718 17.949 13.7948 18.0608 13.7948 18.0608C13.7948 18.0608 12.9427 18.1485 13.1264 18.6728C13.31 19.197 14.6855 19.0763 15.2647 19.355C15.6219 19.5268 15.9456 19.8647 16.1413 20.0985C16.2555 20.2348 16.4551 20.2596 16.5977 20.1533L16.5999 20.1516ZM19.042 18.4725C19.2687 18.5131 19.4596 18.3183 19.4299 18.09C19.3861 17.7531 19.4637 17.309 20.0249 16.9989C21.0454 16.4349 21.7606 16.0885 21.4999 15.6184C21.255 15.1768 20.7851 15.4875 20.7851 15.4875C20.7851 15.4875 21.6083 14.4521 20.3756 14.512C20.3756 14.512 21.1621 13.1888 20.3667 12.9055C19.5619 12.6188 19.373 14.2095 19.373 14.2095C19.373 14.2095 18.7952 13.5397 18.3798 13.848C17.9946 14.1338 18.6494 14.996 18.6494 14.996C18.6494 14.996 18.0027 14.4343 17.7457 14.9268C17.4888 15.4192 18.5175 16.3404 18.7102 16.9536C18.829 17.3316 18.8039 17.7989 18.7671 18.1016C18.7457 18.2781 18.8641 18.4407 19.0391 18.472L19.042 18.4725ZM11.7035 15.7469C11.5194 15.8853 11.2612 15.7975 11.1848 15.5802C11.072 15.2598 10.8026 14.8983 10.1617 14.8745C8.99661 14.831 8.202 14.8442 8.22287 14.307C8.24242 13.8024 8.80193 13.868 8.80193 13.868C8.80193 13.868 7.60046 13.3148 8.72773 12.8127C8.72773 12.8127 7.4292 11.9861 8.01157 11.3746C8.60075 10.7559 9.48642 12.0908 9.48642 12.0908C9.48642 12.0908 9.70022 11.2324 10.21 11.3204C10.6827 11.4019 10.4869 12.4667 10.4869 12.4667C10.4869 12.4667 10.811 11.6738 11.2623 11.9975C11.7137 12.3213 11.2106 13.6073 11.315 14.2415C11.3794 14.6325 11.6123 15.0383 11.7816 15.2919C11.8803 15.4398 11.8479 15.6383 11.7058 15.7452L11.7035 15.7469Z" fill="#9BD146"/>
<path d="M15.8164 17.7754C15.9216 18.1661 15.7998 18.5386 15.5443 18.6073C15.2889 18.6761 14.9965 18.4152 14.8913 18.0245C14.7861 17.6339 14.908 17.2614 15.1635 17.1926C15.4189 17.1239 15.7112 17.3848 15.8164 17.7754Z" fill="#B2E456"/>
<path d="M18.5409 26.5193C18.8509 26.5193 19.1023 26.2679 19.1023 25.9579C19.1023 25.6478 18.8509 25.3965 18.5409 25.3965C18.2308 25.3965 17.9795 25.6478 17.9795 25.9579C17.9795 26.2679 18.2308 26.5193 18.5409 26.5193Z" fill="#FFC43F"/>
<path d="M23.8768 21.5676C24.1869 21.5676 24.4382 21.3163 24.4382 21.0062C24.4382 20.6962 24.1869 20.4448 23.8768 20.4448C23.5668 20.4448 23.3154 20.6962 23.3154 21.0062C23.3154 21.3163 23.5668 21.5676 23.8768 21.5676Z" fill="#FFC43F"/>
<path d="M22.3719 14.3166C22.682 14.3166 22.9333 14.0653 22.9333 13.7552C22.9333 13.4452 22.682 13.1938 22.3719 13.1938C22.0619 13.1938 21.8105 13.4452 21.8105 13.7552C21.8105 14.0653 22.0619 14.3166 22.3719 14.3166Z" fill="#FFC43F"/>
<path d="M13.4627 10.8392C13.5123 10.5332 13.3044 10.2449 12.9983 10.1953C12.6923 10.1457 12.404 10.3536 12.3544 10.6597C12.3048 10.9658 12.5128 11.2541 12.8188 11.3036C13.1249 11.3532 13.4132 11.1453 13.4627 10.8392Z" fill="#FFC43F"/>
<path d="M19.8225 27.2687C19.8225 27.3643 19.7846 27.456 19.7169 27.5236C19.6493 27.5912 19.5577 27.6292 19.462 27.6292C19.3664 27.6292 19.2747 27.5912 19.2071 27.5236C19.1395 27.456 19.1016 27.3643 19.1016 27.2687C19.1016 27.1731 19.1395 27.0814 19.2071 27.0138C19.2747 26.9462 19.3664 26.9082 19.462 26.9082C19.5577 26.9082 19.6493 26.9462 19.7169 27.0138C19.7846 27.0814 19.8225 27.1731 19.8225 27.2687Z" fill="#FFC43F"/>
<path d="M10.8624 23.7976C11.0615 23.7976 11.2229 23.6362 11.2229 23.4371C11.2229 23.238 11.0615 23.0767 10.8624 23.0767C10.6633 23.0767 10.502 23.238 10.502 23.4371C10.502 23.6362 10.6633 23.7976 10.8624 23.7976Z" fill="#FFC43F"/>
<path d="M25.4503 20.6086C25.6494 20.6086 25.8107 20.4472 25.8107 20.2481C25.8107 20.0491 25.6494 19.8877 25.4503 19.8877C25.2512 19.8877 25.0898 20.0491 25.0898 20.2481C25.0898 20.4472 25.2512 20.6086 25.4503 20.6086Z" fill="#FFC43F"/>
<path d="M15.7143 15.3141C15.7143 15.4097 15.6763 15.5014 15.6087 15.569C15.5411 15.6366 15.4494 15.6745 15.3538 15.6745C15.2582 15.6745 15.1665 15.6366 15.0989 15.569C15.0313 15.5014 14.9933 15.4097 14.9933 15.3141C14.9933 15.2185 15.0313 15.1268 15.0989 15.0592C15.1665 14.9916 15.2582 14.9536 15.3538 14.9536C15.4494 14.9536 15.5411 14.9916 15.6087 15.0592C15.6763 15.1268 15.7143 15.2185 15.7143 15.3141ZM8.99831 17.0388C8.99831 17.1344 8.96033 17.2261 8.89273 17.2937C8.82513 17.3613 8.73343 17.3993 8.63783 17.3993C8.54222 17.3993 8.45053 17.3613 8.38293 17.2937C8.31532 17.2261 8.27734 17.1344 8.27734 17.0388C8.27734 16.9432 8.31532 16.8515 8.38293 16.7839C8.45053 16.7163 8.54222 16.6783 8.63783 16.6783C8.73343 16.6783 8.82513 16.7163 8.89273 16.7839C8.96033 16.8515 8.99831 16.9432 8.99831 17.0388ZM12.3954 12.2374C12.3954 12.333 12.3574 12.4247 12.2898 12.4923C12.2222 12.5599 12.1305 12.5979 12.0349 12.5979C11.9393 12.5979 11.8476 12.5599 11.78 12.4923C11.7124 12.4247 11.6744 12.333 11.6744 12.2374C11.6744 12.1418 11.7124 12.0501 11.78 11.9825C11.8476 11.9149 11.9393 11.877 12.0349 11.877C12.1305 11.877 12.2222 11.9149 12.2898 11.9825C12.3574 12.0501 12.3954 12.1418 12.3954 12.2374Z" fill="#FFC43F"/>
<path d="M18.1066 22.0906C18.406 22.0906 18.6487 21.8479 18.6487 21.5485C18.6487 21.2491 18.406 21.0063 18.1066 21.0063C17.8072 21.0063 17.5645 21.2491 17.5645 21.5485C17.5645 21.8479 17.8072 22.0906 18.1066 22.0906Z" fill="#FFC43F"/>
<path d="M7.96144 18.8097C8.23811 18.6953 8.36958 18.3782 8.2551 18.1015C8.14061 17.8248 7.82352 17.6934 7.54685 17.8078C7.27018 17.9223 7.13871 18.2394 7.25319 18.5161C7.36768 18.7928 7.68477 18.9242 7.96144 18.8097Z" fill="#FFC43F"/>
<path d="M12.6496 23.9793C12.949 23.9793 13.1917 23.7366 13.1917 23.4372C13.1917 23.1377 12.949 22.895 12.6496 22.895C12.3502 22.895 12.1074 23.1377 12.1074 23.4372C12.1074 23.7366 12.3502 23.9793 12.6496 23.9793Z" fill="#FFC43F"/>
<path d="M22.484 21.756L22.875 21.4381C22.9169 21.404 22.9517 21.362 22.9774 21.3144C23.0031 21.2669 23.0192 21.2147 23.0247 21.1609C23.0303 21.1072 23.0252 21.0528 23.0097 21.001C22.9942 20.9492 22.9687 20.901 22.9346 20.8591L22.6167 20.4681C22.5826 20.4261 22.5406 20.3913 22.493 20.3656C22.4455 20.3399 22.3933 20.3238 22.3395 20.3183C22.2858 20.3127 22.2314 20.3178 22.1796 20.3333C22.1278 20.3487 22.0796 20.3742 22.0377 20.4083L21.6467 20.7263C21.6047 20.7604 21.5699 20.8024 21.5442 20.8499C21.5185 20.8975 21.5024 20.9497 21.4969 21.0034C21.4913 21.0572 21.4964 21.1115 21.5119 21.1633C21.5273 21.2151 21.5528 21.2634 21.5869 21.3053L21.9049 21.6963C21.939 21.7383 21.981 21.7731 22.0286 21.7988C22.0761 21.8245 22.1283 21.8406 22.1821 21.8461C22.2358 21.8517 22.2902 21.8466 22.342 21.8311C22.3938 21.8157 22.442 21.7901 22.484 21.756ZM8.81937 22.2224L9.21037 21.9044C9.25231 21.8703 9.28712 21.8283 9.31281 21.7807C9.33851 21.7332 9.35459 21.681 9.36013 21.6273C9.36566 21.5735 9.36056 21.5192 9.3451 21.4674C9.32964 21.4156 9.30412 21.3673 9.27002 21.3254L8.9521 20.9344C8.918 20.8924 8.87597 20.8576 8.82841 20.8319C8.78086 20.8062 8.72871 20.7901 8.67493 20.7846C8.62116 20.779 8.56683 20.7841 8.51503 20.7996C8.46323 20.8151 8.41498 20.8406 8.37304 20.8747L7.98204 21.1926C7.9401 21.2267 7.90528 21.2687 7.87958 21.3163C7.85388 21.3638 7.83779 21.416 7.83225 21.4697C7.8267 21.5235 7.83181 21.5779 7.84726 21.6297C7.86272 21.6815 7.88823 21.7297 7.92233 21.7716L8.24025 22.1626C8.30914 22.2473 8.40884 22.3012 8.51745 22.3124C8.62605 22.3236 8.73465 22.2912 8.81937 22.2224ZM19.6754 23.3249L20.1484 23.4986C20.2509 23.5362 20.3642 23.5315 20.4633 23.4857C20.5623 23.4398 20.6391 23.3564 20.6767 23.2539L20.8504 22.7809C20.869 22.7301 20.8774 22.6762 20.8752 22.6222C20.873 22.5682 20.8602 22.5151 20.8374 22.4661C20.8147 22.417 20.7826 22.3729 20.7428 22.3363C20.703 22.2997 20.6565 22.2713 20.6057 22.2526L20.1326 22.0791C20.0819 22.0604 20.028 22.052 19.9739 22.0542C19.9199 22.0564 19.8669 22.0692 19.8178 22.092C19.7688 22.1147 19.7247 22.1468 19.688 22.1866C19.6514 22.2264 19.623 22.273 19.6044 22.3237L19.4308 22.7968C19.4122 22.8475 19.4037 22.9014 19.4059 22.9554C19.4081 23.0095 19.4209 23.0625 19.4437 23.1115C19.4664 23.1606 19.4985 23.2047 19.5383 23.2413C19.578 23.2779 19.6246 23.3063 19.6754 23.3249ZM14.1246 27.1566L14.5977 27.3302C14.7002 27.3678 14.8134 27.3632 14.9125 27.3173C15.0116 27.2714 15.0883 27.1881 15.126 27.0856L15.2995 26.6125C15.3182 26.5617 15.3266 26.5078 15.3244 26.4538C15.3222 26.3998 15.3093 26.3468 15.2866 26.2977C15.2639 26.2487 15.2317 26.2046 15.192 26.1679C15.1522 26.1313 15.1056 26.1029 15.0549 26.0843L14.5818 25.9106C14.4793 25.873 14.3661 25.8777 14.267 25.9236C14.1679 25.9694 14.0911 26.0528 14.0535 26.1553L13.88 26.6284C13.8424 26.7309 13.847 26.8441 13.8929 26.9432C13.9388 27.0422 14.0221 27.119 14.1246 27.1566ZM15.5768 13.4077L15.9678 13.0898C16.0097 13.0557 16.0445 13.0137 16.0702 12.9661C16.0959 12.9185 16.112 12.8664 16.1175 12.8126C16.1231 12.7588 16.118 12.7045 16.1025 12.6527C16.0871 12.6009 16.0615 12.5527 16.0274 12.5107L15.7095 12.1197C15.6754 12.0778 15.6334 12.043 15.5858 12.0173C15.5383 11.9916 15.4861 11.9755 15.4324 11.9699C15.3786 11.9644 15.3242 11.9695 15.2724 11.985C15.2206 12.0004 15.1724 12.0259 15.1305 12.06L14.7395 12.3779C14.6975 12.412 14.6627 12.4541 14.637 12.5016C14.6113 12.5492 14.5952 12.6013 14.5897 12.6551C14.5841 12.7089 14.5892 12.7632 14.6047 12.815C14.6201 12.8668 14.6456 12.9151 14.6797 12.957L14.9977 13.348C15.0318 13.39 15.0738 13.4248 15.1214 13.4505C15.1689 13.4762 15.2211 13.4923 15.2749 13.4978C15.3286 13.5034 15.383 13.4983 15.4348 13.4828C15.4866 13.4673 15.5348 13.4418 15.5768 13.4077Z" fill="#9BD146"/>
</svg>
