<svg width="32" height="32" viewBox="0 0 32 32" fill="none" xmlns="http://www.w3.org/2000/svg">
<g clip-path="url(#clip0_813_249)">
<path d="M2.36577 23.6525H29.6343C30.701 21.5657 31.3028 19.2018 31.3028 16.6973C31.3028 8.24582 24.4515 1.39453 16.0001 1.39453C7.54865 1.39453 0.697418 8.24576 0.697418 16.6972C0.697293 19.2018 1.29909 21.5657 2.36577 23.6525Z" fill="#FFD304"/>
<path d="M16.7658 1.91588C16.3459 1.58447 16.1436 1.25069 16.1645 0.923587C16.1968 0.421039 16.7503 0.083758 16.7559 0.0803852L16.824 0.0395992L16.8085 0H14.3912C12.7761 0 11.3511 0.851509 10.5401 2.12712C10.5596 2.33155 10.6395 2.71648 10.9592 2.96282C11.2681 3.20073 11.7147 3.24364 12.2879 3.09086C12.3141 3.04933 12.3423 3.00861 12.3735 2.96913C12.8446 2.37283 13.5739 1.98946 14.3912 1.98946H16.8621C16.8299 1.96522 16.7978 1.94105 16.7658 1.91588Z" fill="#6C5475"/>
<path d="M12.6186 4.92538C12.0192 4.4417 11.8959 3.57351 12.3735 2.96915C10.5816 3.51049 10.6273 2.00591 10.6278 1.99316C10.1253 2.72587 9.83017 3.61055 9.83017 4.56106C9.83017 4.75493 9.75478 4.94206 9.61706 5.07847C9.22187 5.46972 8.97079 6.00593 8.95018 6.60092C10.1609 5.91845 11.4647 5.41627 12.8205 5.11026C12.757 5.04462 12.6896 4.98288 12.6186 4.92538Z" fill="#543E5B"/>
<path d="M22.3854 5.08081C22.317 5.01267 22.2627 4.93167 22.2257 4.84247C22.1887 4.75328 22.1697 4.65765 22.1698 4.56108C22.1703 3.87301 22.0136 3.1939 21.7118 2.57556C21.7016 2.60554 21.6912 2.63546 21.6806 2.66513C21.5698 2.97636 21.3839 3.18935 21.1282 3.29809C20.5756 3.53325 19.8656 3.21827 19.8585 3.21496L19.8447 3.20871L19.8298 3.20715C19.8281 3.20696 19.8081 3.20465 19.7737 3.19972C20.0666 3.77784 19.9107 4.49962 19.3845 4.92272C19.3124 4.9809 19.2438 5.04344 19.1793 5.10998C20.5349 5.41596 21.8386 5.91807 23.0493 6.60044C23.0288 6.00695 22.7791 5.47174 22.3854 5.08081Z" fill="#6C5475"/>
<path d="M19.6265 2.96926C19.7058 3.07 19.7704 3.18145 19.8185 3.30029L19.8199 3.30048C19.8199 3.30048 21.3113 3.97691 21.7682 2.69831C21.0522 1.11178 19.4545 0 17.6088 0H16.7079C16.7079 0 15.2713 0.855943 16.7079 1.98946H17.6087C18.4261 1.98946 19.1554 2.37283 19.6265 2.96926Z" fill="#81698C"/>
<path d="M30.32 19.8999C30.0837 20.1362 29.861 20.2379 29.6585 20.2017C29.3316 20.1433 29.144 19.7443 29.1419 19.7394C29.0951 19.6401 24.4668 9.79329 24.0514 8.67027C23.9408 8.37153 23.9429 8.1428 24.0575 7.99052C24.2214 7.77279 24.5781 7.75006 24.7197 7.75006C24.7561 7.75006 24.7783 7.75155 24.7794 7.75162L24.8212 7.75474L24.8611 7.71639C22.4186 5.80413 19.3425 4.66406 16.0001 4.66406C12.5471 4.66406 9.37871 5.88102 6.89926 7.90883C6.86509 8.07278 6.84067 8.35741 7.00226 8.58901C7.14635 8.7955 7.40112 8.90905 7.76045 8.92735C7.74533 9.10823 7.75027 9.47381 7.98999 9.72671C8.17555 9.92246 8.45781 10.0062 8.83032 9.97686C8.68628 10.6679 8.1299 13.942 9.95946 16.1251C11.2449 17.659 13.4083 18.3367 16.3898 18.1399C16.3075 18.7528 16.0426 21.6089 17.8857 23.6614C19.3989 25.3465 21.9151 26.0781 25.3644 25.836C25.3854 26.0031 25.4621 26.3392 25.7425 26.5192C25.9869 26.676 26.3199 26.6735 26.7339 26.5118C26.7658 26.6442 26.8473 26.8511 27.0543 26.9948C27.1098 27.0331 27.1698 27.0643 27.2331 27.0877C28.1818 26.0626 28.9926 24.9081 29.6344 23.6525C30.0408 22.4482 30.2915 21.1725 30.3639 19.8491C30.3486 19.8685 30.3338 19.8861 30.32 19.8999Z" fill="#E4E5EA"/>
<path d="M24.7849 7.6581C24.756 7.65604 23.5469 7.57659 23.9635 8.70273C24.3851 9.84255 29.057 19.7793 29.057 19.7793C29.057 19.7793 29.5212 20.7932 30.3553 19.9955C30.3756 19.683 30.3863 19.3679 30.3863 19.0503C30.3863 14.4131 28.1916 10.289 24.7849 7.6581Z" fill="#F7F7F7"/>
<path d="M26.807 26.3797C25.4656 26.9741 25.4501 25.7359 25.4501 25.7359C14.9371 26.5225 16.4997 18.0384 16.4997 18.0384C6.69358 18.7546 8.95018 9.86924 8.95018 9.86924C7.62579 10.0572 7.86638 8.83622 7.86638 8.83622C6.66179 8.83622 7.01288 7.83675 7.02281 7.8092C3.72608 10.4454 1.61376 14.5009 1.61376 19.0503C1.61376 20.6598 1.87821 22.2075 2.36577 23.6525C4.27641 27.3905 7.67925 30.2387 11.7885 31.4127H20.2115C22.9742 30.6234 25.4167 29.0766 27.3019 27.0123C26.8287 26.8611 26.807 26.3797 26.807 26.3797Z" fill="#D2D3DE"/>
<path d="M7.76032 8.92731C7.74521 9.1082 7.75014 9.47377 7.98986 9.72667C8.17543 9.92242 8.45768 10.0062 8.83019 9.97682C8.68616 10.6679 8.12977 13.942 9.95933 16.1251C11.2447 17.659 13.4082 18.3367 16.3897 18.1399C16.3073 18.7527 16.0425 21.6089 17.8856 23.6614C19.3988 25.3465 21.9149 26.0781 25.3642 25.8359C25.3852 26.0031 25.4619 26.3391 25.7424 26.5191C25.9821 26.6729 26.3073 26.6731 26.7102 26.5205C28.1893 24.4039 29.057 21.8285 29.057 19.0503C29.057 11.8391 23.2112 5.99329 16 5.99329C12.8727 5.99329 10.0026 7.09326 7.75426 8.92675C7.75633 8.92688 7.7582 8.92719 7.76032 8.92731Z" fill="#6C5475"/>
<path d="M25.4501 25.7359C14.9371 26.5225 16.4997 18.0384 16.4997 18.0384C6.69358 18.7547 8.95017 9.86925 8.95017 9.86925C7.62903 10.0568 7.86519 8.84248 7.86631 8.83649C4.86608 11.2288 2.94296 14.9147 2.94296 19.0503C2.94296 24.7875 6.64342 29.6603 11.7877 31.4126C13.1259 31.795 14.539 32 16 32C17.4609 32 18.874 31.795 20.2122 31.4126C22.9203 30.4902 25.2278 28.7026 26.8064 26.3798C25.4656 26.9738 25.4501 25.7359 25.4501 25.7359Z" fill="#543E5B"/>
<path d="M8.83019 9.97685C8.68616 10.6679 8.12977 13.942 9.95933 16.1251C10.9146 17.265 12.3546 17.932 14.255 18.1187C15.3717 18.2285 16.2529 19.105 16.396 20.2178C16.5344 21.2949 16.9218 22.588 17.8856 23.6613C19.3988 25.3465 21.915 26.0781 25.3643 25.8359L25.3664 25.8513C26.7612 23.9338 27.5821 21.5721 27.5751 19.0179C27.5577 12.6592 22.3517 7.47135 15.9929 7.47516C13.2794 7.47678 10.7847 8.41249 8.81195 9.9776C8.81813 9.97722 8.82388 9.97735 8.83019 9.97685Z" fill="#FF8719"/>
<path d="M25.4501 25.7359C18.3317 26.2685 16.7496 22.5507 16.4701 20.0943C16.3449 18.9941 15.4694 18.1326 14.3664 18.035C7.07702 17.3902 8.9315 9.94351 8.94999 9.87012C6.18216 11.9989 4.40376 15.3507 4.42512 19.1174C4.46141 25.512 9.73479 30.6946 16.1291 30.6247C19.9783 30.5826 23.3764 28.6617 25.4501 25.7359Z" fill="#FF6124"/>
<path d="M24.1007 22.5764C24.1007 21.5927 23.4341 20.7651 22.5281 20.5195C23.0126 20.0563 23.3148 19.4042 23.3148 18.6811C23.3148 17.2763 22.176 16.1375 20.7712 16.1375C20.2868 16.1369 19.8123 16.2754 19.4043 16.5365C18.8795 15.6734 17.9302 15.0969 16.8463 15.0969C16.668 15.0969 16.4936 15.1134 16.3238 15.1433C16.4004 14.9165 16.4395 14.6787 16.4394 14.4394C16.4394 13.2231 15.4534 12.2371 14.2372 12.2371C13.3201 12.2371 12.5343 12.7978 12.203 13.5949C11.8471 13.4362 11.4618 13.3543 11.0721 13.3546C9.53523 13.3546 8.28936 14.6005 8.28936 16.1373C8.28936 17.6742 9.53523 18.9201 11.0721 18.9201C12.451 18.9201 13.5949 17.917 13.8157 16.6008C13.9492 16.6268 14.087 16.6408 14.228 16.6413C13.9827 17.0841 13.8542 17.5821 13.8549 18.0883C13.8549 19.6454 15.0446 20.9241 16.5647 21.0661C16.3866 21.4441 16.2945 21.8568 16.295 22.2746C16.295 23.8433 17.5667 25.115 19.1354 25.115C19.2603 25.115 19.3831 25.1061 19.5039 25.0904C19.476 25.2272 19.462 25.3665 19.4621 25.5061C19.4621 26.6491 20.3886 27.5756 21.5316 27.5756C22.6745 27.5756 23.6011 26.6491 23.6011 25.5061C23.6016 25.0752 23.4669 24.6549 23.216 24.3045C23.7517 23.9176 24.1007 23.2879 24.1007 22.5764Z" fill="#FF6124"/>
<path d="M12.7541 18.042V15.0071C12.7541 14.6618 13.0367 14.3792 13.382 14.3792H11.8894C11.544 14.3792 11.2615 14.6618 11.2615 15.0071V18.042C11.2615 18.3874 11.544 18.6699 11.8894 18.6699H13.382C13.0367 18.6699 12.7541 18.3874 12.7541 18.042Z" fill="#FFC43F"/>
<path d="M14.6844 18.0846V14.9645C14.6844 14.7058 14.839 14.4819 15.0601 14.3792H13.2774C12.9321 14.3792 12.6495 14.6617 12.6495 15.0071V18.042C12.6495 18.3873 12.9321 18.6699 13.2774 18.6699H15.0601C14.839 18.5672 14.6844 18.3433 14.6844 18.0846Z" fill="#FFDA59"/>
<path d="M16.3123 14.3792H14.9976C14.7765 14.4819 14.6219 14.7058 14.6219 14.9645V18.0846C14.6219 18.3433 14.7765 18.5672 14.9976 18.6699H16.3123C16.6577 18.6699 16.9402 18.3874 16.9402 18.042V15.0071C16.9403 14.6617 16.6577 14.3792 16.3123 14.3792Z" fill="#FCE4A1"/>
<path d="M18.8667 19.0043L19.9985 21.8203C20.1273 22.1407 19.9705 22.5083 19.65 22.6371L21.035 22.0804C21.3554 21.9516 21.5123 21.584 21.3835 21.2636L20.2516 18.4476C20.1228 18.1272 19.7553 17.9704 19.4349 18.0991L18.0499 18.6558C18.3703 18.5271 18.7379 18.6839 18.8667 19.0043Z" fill="#FFC43F"/>
<path d="M18.1888 22.6345L17.0143 19.7123C16.9159 19.4676 16.9785 19.1967 17.1507 19.0173L15.331 19.7487C15.0106 19.8775 14.8538 20.2451 14.9826 20.5655L16.1144 23.3815C16.2432 23.7019 16.6108 23.8587 16.9312 23.73L18.6715 23.0305C18.4611 22.9897 18.2742 22.847 18.1888 22.6345Z" fill="#FFDA59"/>
<path d="M20.0956 21.7813L18.9638 18.9653C18.835 18.6449 18.4674 18.4881 18.147 18.6168L17.053 19.0566C16.9077 19.2348 16.8605 19.4849 16.9518 19.7123L18.1263 22.6345C18.2177 22.8618 18.4249 23.0097 18.6532 23.0378L19.7472 22.5981C20.0676 22.4693 20.2244 22.1018 20.0956 21.7813Z" fill="#FCE4A1"/>
<path d="M13.6184 9.58853L14.5983 12.0266C14.7098 12.3041 14.5741 12.6223 14.2966 12.7338L15.4958 12.2519C15.7732 12.1404 15.909 11.8221 15.7975 11.5447L14.8175 9.10659C14.706 8.82915 14.3878 8.69336 14.1103 8.80491L12.9112 9.28691C13.1886 9.17536 13.5068 9.31108 13.6184 9.58853Z" fill="#FFC43F"/>
<path d="M12.9939 12.6855L11.9785 10.1592C11.9074 9.9824 11.9335 9.7899 12.0307 9.64081L10.5572 10.2331C10.2797 10.3446 10.144 10.6628 10.2555 10.9403L11.2354 13.3784C11.3469 13.6558 11.6652 13.7916 11.9426 13.6801L13.5416 13.0373C13.3097 13.0471 13.0851 12.9122 12.9939 12.6855Z" fill="#FFDA59"/>
<path d="M14.6824 11.9928L13.7025 9.55471C13.591 9.27727 13.2727 9.14148 12.9953 9.25303L12.0071 9.65021C11.8786 9.80455 11.8362 10.023 11.916 10.2215L12.9314 12.7478C13.0112 12.9462 13.193 13.0745 13.3925 13.0971L14.3807 12.6999C14.6582 12.5885 14.7939 12.2703 14.6824 11.9928Z" fill="#FCE4A1"/>
<path d="M25.6002 22.5579L22.9832 22.3207C22.6854 22.2937 22.4639 22.028 22.4909 21.7302L22.3742 23.0173C22.3472 23.3151 22.5688 23.5808 22.8666 23.6078L25.4835 23.845C25.7813 23.872 26.047 23.6504 26.074 23.3526L26.1907 22.0655C26.1637 22.3633 25.898 22.5849 25.6002 22.5579Z" fill="#FFC43F"/>
<path d="M26.2916 20.2005L26.2833 20.2922C26.2605 20.5433 26.0375 20.7293 25.7864 20.7066L23.133 20.4661C22.8817 20.4433 22.6957 20.2203 22.7185 19.9691L22.7273 19.8728L22.6598 19.8665L22.4827 21.8204C22.4557 22.1182 22.6772 22.3839 22.9751 22.4109L25.592 22.6481C25.8898 22.6751 26.1555 22.4535 26.1825 22.1557L26.3591 20.2066L26.2916 20.2005Z" fill="#FFDA59"/>
<path d="M25.9273 18.9483L23.3104 18.7111C23.0126 18.6841 22.7469 18.9056 22.7199 19.2035L22.6361 20.1285C22.6867 20.3566 22.8802 20.5372 23.1245 20.5594L25.778 20.7999C26.0223 20.822 26.2452 20.6791 26.3359 20.4638L26.4197 19.5388C26.4467 19.2411 26.2251 18.9753 25.9273 18.9483Z" fill="#FCE4A1"/>
<path d="M9.06597 19.7249L6.44905 19.4877C6.15124 19.4607 5.9297 19.195 5.95668 18.8972L5.84001 20.1843C5.81303 20.4821 6.03457 20.7478 6.33238 20.7748L8.9493 21.012C9.24711 21.0389 9.51281 20.8174 9.53979 20.5196L9.65646 19.2325C9.62948 19.5303 9.36378 19.7518 9.06597 19.7249Z" fill="#FFC43F"/>
<path d="M7.68007 19.196L7.92753 16.4654C7.94583 16.2637 8.06931 16.0961 8.23845 16.0106L6.77622 15.8781C6.47841 15.8511 6.21271 16.0726 6.18573 16.3704L5.94857 18.9874C5.92159 19.2852 6.14313 19.5509 6.44094 19.5779L7.92166 19.7121C7.76008 19.5991 7.66108 19.4053 7.68007 19.196Z" fill="#FFDA59"/>
<path d="M9.39314 16.1154L8.18574 16.0059C8.0116 16.0898 7.88374 16.2599 7.86507 16.4654L7.6176 19.196C7.59899 19.4015 7.69418 19.5919 7.85039 19.7057L9.05779 19.8151C9.3556 19.8421 9.6213 19.6206 9.64828 19.3228L9.8855 16.7058C9.91249 16.408 9.69094 16.1423 9.39314 16.1154Z" fill="#FCE4A1"/>
<path d="M16.7311 28.1271L16.545 25.0979C16.5238 24.7532 16.7885 24.4539 17.1332 24.4327L15.6434 24.5242C15.2987 24.5454 15.034 24.8448 15.0551 25.1894L15.2412 28.2187C15.2624 28.5634 15.5617 28.8281 15.9064 28.8069L17.3962 28.7154C17.0516 28.7366 16.7523 28.4719 16.7311 28.1271Z" fill="#FFC43F"/>
<path d="M18.8314 28.0184L18.6434 24.9565C18.6252 24.6605 18.8159 24.3983 19.0873 24.3127L17.0289 24.4392C16.6841 24.4603 16.4194 24.7597 16.4406 25.1044L16.6267 28.1336C16.6479 28.4783 16.9472 28.743 17.2919 28.7218L19.3209 28.5972C19.0553 28.5347 18.849 28.3038 18.8314 28.0184Z" fill="#FFDA59"/>
<path d="M20.9093 27.8705L20.7233 24.8413C20.7021 24.4966 20.4027 24.2319 20.058 24.2531L19.0103 24.3174C18.7467 24.4076 18.563 24.6657 18.5809 24.9565L18.769 28.0184C18.7868 28.3091 19.0007 28.5429 19.2733 28.6001L20.321 28.5358C20.6657 28.5146 20.9305 28.2152 20.9093 27.8705Z" fill="#FCE4A1"/>
<path d="M18.8111 13.5272L20.833 11.2639C21.0631 11.0063 21.462 10.9838 21.7196 11.2139L20.6065 10.2195C20.3489 9.98941 19.95 10.0119 19.7199 10.2695L17.698 12.5328C17.4679 12.7904 17.4904 13.1893 17.748 13.4194L18.8612 14.4138C18.6036 14.1837 18.5811 13.7848 18.8111 13.5272Z" fill="#FFC43F"/>
<path d="M22.4734 14.8695L20.1172 12.7646C19.9348 12.6017 19.866 12.3576 19.9157 12.1337L18.7331 13.4575C18.503 13.7151 18.5255 14.114 18.7831 14.3441L21.0464 16.366C21.304 16.5961 21.7029 16.5736 21.933 16.316L23.1048 15.0043C22.8922 15.0706 22.6507 15.0279 22.4734 14.8695Z" fill="#FFDA59"/>
<path d="M23.9049 13.1661L21.6416 11.1442C21.3841 10.9141 20.9851 10.9366 20.755 11.1942L19.8515 12.2055C19.8057 12.4269 19.8749 12.6665 20.0547 12.8271L22.411 14.932C22.5908 15.0926 22.8366 15.1344 23.0514 15.064L23.9549 14.0527C24.185 13.7952 24.1625 13.3962 23.9049 13.1661Z" fill="#FCE4A1"/>
<path d="M12.2637 25.5934L9.6752 24.0089C9.38065 23.8286 9.28721 23.4401 9.46746 23.1455L8.68816 24.4186C8.50784 24.7132 8.60134 25.1017 8.8959 25.282L11.4844 26.8665C11.779 27.0468 12.1675 26.9533 12.3478 26.6587L13.1271 25.3856C12.9468 25.6802 12.5583 25.7737 12.2637 25.5934Z" fill="#FFC43F"/>
<path d="M13.422 23.7465L10.7727 22.1249C10.5547 21.9914 10.445 21.7464 10.4705 21.507L9.41287 23.2348C9.23255 23.5294 9.32606 23.9179 9.62061 24.0982L12.2091 25.6827C12.5037 25.863 12.8922 25.7695 13.0725 25.4749L14.1601 23.6982C13.9545 23.8629 13.6587 23.8915 13.422 23.7465Z" fill="#FFDA59"/>
<path d="M14.4492 22.0231L11.8607 20.4386C11.5661 20.2583 11.1776 20.3518 10.9973 20.6463L10.4108 21.6044C10.3735 21.8524 10.4838 22.1112 10.7102 22.2498L13.3594 23.8714C13.5858 24.01 13.8665 23.9905 14.0704 23.8445L14.6569 22.8864C14.8372 22.5919 14.7437 22.2034 14.4492 22.0231Z" fill="#FCE4A1"/>
<path d="M17.1169 20.3576C17.0846 20.6447 16.7821 20.8045 16.5183 20.687C16.129 20.5139 15.5674 20.4483 14.9938 21.012C13.9508 22.0369 13.2785 22.7727 12.8067 22.2911C12.3635 21.8388 12.905 21.385 12.905 21.385C12.905 21.385 11.366 22.0042 11.879 20.5439C11.879 20.5439 10.0071 21.0159 9.95103 19.9583C9.89438 18.8883 11.8741 19.2304 11.8741 19.2304C11.8741 19.2304 11.2756 18.2961 11.7948 17.9072C12.2763 17.5464 13.0784 18.6419 13.0784 18.6419C13.0784 18.6419 12.6346 17.6636 13.3185 17.5309C14.0023 17.3982 14.7417 18.9643 15.4097 19.4153C15.8217 19.6934 16.3923 19.8303 16.7693 19.8945C16.9892 19.9319 17.1423 20.1324 17.1174 20.354L17.1169 20.3576Z" fill="#84BD36"/>
<path d="M16.5999 20.1517C16.7845 20.014 16.7729 19.7416 16.586 19.607C16.3102 19.4087 16.0393 19.0483 16.1968 18.4267C16.4831 17.2965 16.7194 16.5378 16.1981 16.4065C15.7084 16.2833 15.6138 16.8386 15.6138 16.8386C15.6138 16.8386 15.4213 15.53 14.622 16.4703C14.622 16.4703 14.1944 14.9916 13.4437 15.3783C12.6842 15.7695 13.7158 16.9951 13.7158 16.9951C13.7158 16.9951 12.8318 16.9586 12.7728 17.4725C12.718 17.9491 13.7948 18.0609 13.7948 18.0609C13.7948 18.0609 12.9428 18.1487 13.1264 18.6729C13.31 19.1971 14.6856 19.0764 15.2648 19.3551C15.6219 19.527 15.9456 19.8648 16.1414 20.0986C16.2555 20.2349 16.4551 20.2597 16.5977 20.1534L16.5999 20.1517ZM19.042 18.4726C19.2688 18.5132 19.4597 18.3184 19.4299 18.0901C19.3861 17.7532 19.4638 17.3092 20.025 16.999C21.0454 16.435 21.7607 16.0886 21.4999 15.6185C21.255 15.1769 20.7851 15.4876 20.7851 15.4876C20.7851 15.4876 21.6083 14.4523 20.3756 14.5122C20.3756 14.5122 21.1622 13.189 20.3667 12.9056C19.5619 12.6189 19.373 14.2097 19.373 14.2097C19.373 14.2097 18.7952 13.5398 18.3799 13.8481C17.9947 14.134 18.6494 14.9962 18.6494 14.9962C18.6494 14.9962 18.0027 14.4345 17.7458 14.9269C17.4888 15.4193 18.5175 16.3405 18.7102 16.9537C18.829 17.3318 18.8039 17.799 18.7672 18.1017C18.7457 18.2782 18.8642 18.4408 19.0392 18.4721L19.042 18.4726ZM11.7035 15.747C11.5194 15.8855 11.2612 15.7976 11.1848 15.5803C11.072 15.2599 10.8026 14.8985 10.1618 14.8746C8.99664 14.8311 8.20204 14.8443 8.2229 14.3072C8.24245 13.8026 8.80196 13.8681 8.80196 13.8681C8.80196 13.8681 7.60049 13.3149 8.72776 12.8128C8.72776 12.8128 7.42923 11.9862 8.0116 11.3747C8.60078 10.756 9.48645 12.0909 9.48645 12.0909C9.48645 12.0909 9.70025 11.2325 10.21 11.3205C10.6827 11.4021 10.4869 12.4668 10.4869 12.4668C10.4869 12.4668 10.811 11.6739 11.2624 11.9977C11.7137 12.3215 11.2106 13.6074 11.315 14.2416C11.3794 14.6326 11.6124 15.0384 11.7816 15.292C11.8803 15.4399 11.8479 15.6384 11.7058 15.7453L11.7035 15.747Z" fill="#9BD146"/>
<path d="M15.8163 17.7756C15.9215 18.1663 15.7997 18.5388 15.5442 18.6075C15.2887 18.6763 14.9964 18.4154 14.8912 18.0247C14.786 17.634 14.9079 17.2616 15.1633 17.1928C15.4188 17.1241 15.7111 17.3849 15.8163 17.7756Z" fill="#B2E456"/>
<path d="M18.5403 26.5191C18.8503 26.5191 19.1016 26.2678 19.1016 25.9577C19.1016 25.6477 18.8503 25.3964 18.5403 25.3964C18.2302 25.3964 17.9789 25.6477 17.9789 25.9577C17.9789 26.2678 18.2302 26.5191 18.5403 26.5191Z" fill="#FFC43F"/>
<path d="M23.8762 21.5677C24.1863 21.5677 24.4376 21.3163 24.4376 21.0063C24.4376 20.6962 24.1863 20.4449 23.8762 20.4449C23.5662 20.4449 23.3148 20.6962 23.3148 21.0063C23.3148 21.3163 23.5662 21.5677 23.8762 21.5677Z" fill="#FFC43F"/>
<path d="M22.3719 14.3165C22.682 14.3165 22.9333 14.0652 22.9333 13.7551C22.9333 13.4451 22.682 13.1937 22.3719 13.1937C22.0619 13.1937 21.8106 13.4451 21.8106 13.7551C21.8106 14.0652 22.0619 14.3165 22.3719 14.3165Z" fill="#FFC43F"/>
<path d="M13.4621 10.8388C13.5116 10.5328 13.3037 10.2445 12.9976 10.1949C12.6916 10.1454 12.4033 10.3533 12.3537 10.6593C12.3042 10.9654 12.5121 11.2537 12.8181 11.3033C13.1242 11.3528 13.4125 11.1449 13.4621 10.8388Z" fill="#FFC43F"/>
<path d="M19.8225 27.2686C19.8225 27.3642 19.7845 27.4559 19.7169 27.5235C19.6493 27.5911 19.5576 27.629 19.462 27.629C19.3664 27.629 19.2747 27.5911 19.2071 27.5235C19.1395 27.4559 19.1015 27.3642 19.1015 27.2686C19.1015 27.173 19.1395 27.0813 19.2071 27.0137C19.2747 26.9461 19.3664 26.9081 19.462 26.9081C19.5576 26.9081 19.6493 26.9461 19.7169 27.0137C19.7845 27.0813 19.8225 27.173 19.8225 27.2686Z" fill="#FFC43F"/>
<path d="M10.8617 23.7973C11.0608 23.7973 11.2222 23.6359 11.2222 23.4369C11.2222 23.2378 11.0608 23.0764 10.8617 23.0764C10.6627 23.0764 10.5013 23.2378 10.5013 23.4369C10.5013 23.6359 10.6627 23.7973 10.8617 23.7973Z" fill="#FFC43F"/>
<path d="M25.4501 20.6083C25.6492 20.6083 25.8106 20.4469 25.8106 20.2478C25.8106 20.0488 25.6492 19.8874 25.4501 19.8874C25.2511 19.8874 25.0897 20.0488 25.0897 20.2478C25.0897 20.4469 25.2511 20.6083 25.4501 20.6083Z" fill="#FFC43F"/>
<path d="M15.7142 15.3138C15.7142 15.4094 15.6762 15.5011 15.6086 15.5687C15.541 15.6363 15.4493 15.6743 15.3537 15.6743C15.2581 15.6743 15.1664 15.6363 15.0988 15.5687C15.0312 15.5011 14.9932 15.4094 14.9932 15.3138C14.9932 15.2182 15.0312 15.1265 15.0988 15.0589C15.1664 14.9913 15.2581 14.9533 15.3537 14.9533C15.4493 14.9533 15.541 14.9913 15.6086 15.0589C15.6762 15.1265 15.7142 15.2182 15.7142 15.3138ZM8.99821 17.0386C8.99821 17.1342 8.96023 17.2259 8.89263 17.2935C8.82502 17.3611 8.73333 17.3991 8.63773 17.3991C8.54212 17.3991 8.45043 17.3611 8.38282 17.2935C8.31522 17.2259 8.27724 17.1342 8.27724 17.0386C8.27724 16.943 8.31522 16.8513 8.38282 16.7837C8.45043 16.7161 8.54212 16.6781 8.63773 16.6781C8.73333 16.6781 8.82502 16.7161 8.89263 16.7837C8.96023 16.8513 8.99821 16.943 8.99821 17.0386ZM12.3953 12.2372C12.3953 12.3328 12.3573 12.4245 12.2897 12.4921C12.2221 12.5597 12.1304 12.5977 12.0348 12.5977C11.9392 12.5977 11.8475 12.5597 11.7799 12.4921C11.7123 12.4245 11.6743 12.3328 11.6743 12.2372C11.6743 12.1416 11.7123 12.0499 11.7799 11.9823C11.8475 11.9147 11.9392 11.8767 12.0348 11.8767C12.1304 11.8767 12.2221 11.9147 12.2897 11.9823C12.3573 12.0499 12.3953 12.1416 12.3953 12.2372Z" fill="#FFC43F"/>
<path d="M18.1065 22.0906C18.4059 22.0906 18.6486 21.8479 18.6486 21.5485C18.6486 21.2491 18.4059 21.0063 18.1065 21.0063C17.8071 21.0063 17.5643 21.2491 17.5643 21.5485C17.5643 21.8479 17.8071 22.0906 18.1065 22.0906Z" fill="#FFC43F"/>
<path d="M7.96113 18.8095C8.2378 18.695 8.36927 18.3779 8.25478 18.1013C8.1403 17.8246 7.8232 17.6931 7.54654 17.8076C7.26987 17.9221 7.1384 18.2392 7.25288 18.5158C7.36737 18.7925 7.68446 18.924 7.96113 18.8095Z" fill="#FFC43F"/>
<path d="M12.6495 23.979C12.9489 23.979 13.1917 23.7363 13.1917 23.4369C13.1917 23.1374 12.9489 22.8947 12.6495 22.8947C12.3501 22.8947 12.1074 23.1374 12.1074 23.4369C12.1074 23.7363 12.3501 23.979 12.6495 23.979Z" fill="#FFC43F"/>
<path d="M22.4841 21.756L22.8751 21.4381C22.9171 21.4039 22.9519 21.3619 22.9776 21.3144C23.0033 21.2668 23.0193 21.2146 23.0249 21.1609C23.0304 21.1071 23.0253 21.0528 23.0098 21.001C22.9944 20.9492 22.9689 20.9009 22.9348 20.859L22.6168 20.468C22.5827 20.426 22.5407 20.3912 22.4932 20.3655C22.4456 20.3398 22.3935 20.3237 22.3397 20.3182C22.2859 20.3127 22.2316 20.3178 22.1798 20.3332C22.128 20.3487 22.0797 20.3742 22.0378 20.4083L21.6468 20.7262C21.6048 20.7603 21.57 20.8023 21.5443 20.8499C21.5186 20.8974 21.5025 20.9496 21.497 21.0034C21.4915 21.0571 21.4966 21.1115 21.512 21.1633C21.5275 21.2151 21.553 21.2633 21.5871 21.3053L21.905 21.6963C21.9391 21.7382 21.9811 21.773 22.0287 21.7987C22.0763 21.8245 22.1284 21.8405 22.1822 21.8461C22.236 21.8516 22.2903 21.8465 22.3421 21.8311C22.3939 21.8156 22.4422 21.7901 22.4841 21.756ZM8.81951 22.2223L9.2105 21.9044C9.25244 21.8703 9.28726 21.8282 9.31295 21.7807C9.33865 21.7331 9.35472 21.681 9.36026 21.6272C9.3658 21.5734 9.3607 21.5191 9.34523 21.4673C9.32977 21.4155 9.30426 21.3673 9.27015 21.3253L8.95223 20.9343C8.91814 20.8924 8.87611 20.8576 8.82855 20.8319C8.781 20.8062 8.72884 20.7901 8.67507 20.7845C8.6213 20.779 8.56696 20.7841 8.51516 20.7995C8.46336 20.815 8.41512 20.8405 8.37317 20.8746L7.98218 21.1925C7.94023 21.2266 7.90542 21.2687 7.87971 21.3162C7.85401 21.3638 7.83793 21.4159 7.83239 21.4697C7.82684 21.5235 7.83194 21.5778 7.8474 21.6296C7.86286 21.6814 7.88836 21.7296 7.92247 21.7716L8.24039 22.1626C8.30927 22.2473 8.40898 22.3012 8.51758 22.3124C8.62618 22.3235 8.73479 22.2912 8.81951 22.2223ZM19.6755 23.3249L20.1486 23.4985C20.2511 23.5361 20.3643 23.5315 20.4634 23.4856C20.5625 23.4397 20.6392 23.3564 20.6769 23.2539L20.8505 22.7808C20.8691 22.7301 20.8776 22.6761 20.8753 22.6221C20.8731 22.5681 20.8603 22.5151 20.8376 22.466C20.8149 22.417 20.7827 22.3729 20.7429 22.3363C20.7032 22.2996 20.6566 22.2712 20.6058 22.2526L20.1328 22.079C20.082 22.0604 20.0281 22.0519 19.9741 22.0541C19.9201 22.0564 19.867 22.0692 19.818 22.0919C19.7689 22.1146 19.7248 22.1468 19.6882 22.1865C19.6515 22.2263 19.6231 22.2729 19.6045 22.3237L19.4309 22.7967C19.4123 22.8475 19.4038 22.9014 19.406 22.9554C19.4083 23.0094 19.4211 23.0624 19.4438 23.1115C19.4665 23.1605 19.4987 23.2046 19.5384 23.2412C19.5782 23.2779 19.6248 23.3063 19.6755 23.3249ZM14.1247 27.1566L14.5978 27.3302C14.7003 27.3678 14.8136 27.3631 14.9126 27.3172C15.0117 27.2714 15.0885 27.188 15.1261 27.0855L15.2997 26.6124C15.3183 26.5617 15.3267 26.5078 15.3245 26.4538C15.3223 26.3997 15.3095 26.3467 15.2867 26.2977C15.264 26.2486 15.2319 26.2045 15.1921 26.1679C15.1523 26.1313 15.1058 26.1028 15.055 26.0842L14.5819 25.9106C14.4795 25.873 14.3662 25.8776 14.2671 25.9235C14.1681 25.9694 14.0913 26.0527 14.0537 26.1552L13.8801 26.6283C13.8425 26.7308 13.8472 26.844 13.893 26.9431C13.9389 27.0422 14.0223 27.119 14.1247 27.1566ZM15.5769 13.4076L15.9679 13.0897C16.0099 13.0556 16.0447 13.0136 16.0704 12.966C16.0961 12.9185 16.1121 12.8663 16.1177 12.8126C16.1232 12.7588 16.1181 12.7044 16.1027 12.6527C16.0872 12.6009 16.0617 12.5526 16.0276 12.5107L15.7097 12.1197C15.6756 12.0777 15.6335 12.0429 15.586 12.0172C15.5384 11.9915 15.4863 11.9754 15.4325 11.9699C15.3787 11.9643 15.3244 11.9694 15.2726 11.9849C15.2208 12.0004 15.1725 12.0259 15.1306 12.06L14.7396 12.3779C14.6977 12.412 14.6628 12.454 14.6371 12.5016C14.6114 12.5491 14.5953 12.6013 14.5898 12.655C14.5843 12.7088 14.5894 12.7632 14.6048 12.815C14.6203 12.8668 14.6458 12.915 14.6799 12.9569L14.9978 13.3479C15.0319 13.3899 15.0739 13.4247 15.1215 13.4504C15.1691 13.4761 15.2212 13.4922 15.275 13.4978C15.3288 13.5033 15.3831 13.4982 15.4349 13.4827C15.4867 13.4673 15.535 13.4418 15.5769 13.4076Z" fill="#9BD146"/>
</g>
<defs>
<clipPath id="clip0_813_249">
<rect width="32" height="32" fill="white"/>
</clipPath>
</defs>
</svg>
