<svg width="32" height="32" viewBox="0 0 32 32" fill="none" xmlns="http://www.w3.org/2000/svg">
<circle cx="16" cy="16" r="16" fill="#D9ECCD"/>
<path fill-rule="evenodd" clip-rule="evenodd" d="M21.103 11.2199L20.3362 10.4392C19.9716 10.0679 19.3923 10.0055 18.9595 10.29L18.0291 10.9007L18.0121 10.8903C17.276 10.5364 16.4786 10.3559 15.6641 10.3559C12.6176 10.3559 10.1367 12.8819 10.1367 15.9839C10.1367 16.8097 10.3139 17.6251 10.6615 18.3711L10.6717 18.3884L10.0719 19.3357C9.79249 19.7763 9.85723 20.3662 10.2185 20.7375L10.992 21.5251C11.1999 21.7368 11.4828 21.8547 11.7758 21.8547C11.9871 21.8547 12.1916 21.7957 12.3722 21.6778L13.3025 21.0671L13.3196 21.0775C14.0556 21.4314 14.8531 21.6118 15.6675 21.6118C18.7141 21.6118 21.195 19.0859 21.195 15.9839C21.195 15.1581 21.0178 14.3427 20.6702 13.5932L20.66 13.5759L21.2597 12.6286C21.5392 12.188 21.4744 11.5981 21.1132 11.2268L21.1098 11.2234L21.103 11.2199ZM12.1439 21.3239C11.8712 21.5008 11.51 21.4626 11.2817 21.2302L10.5081 20.4425C10.2798 20.2101 10.2423 19.8388 10.4161 19.5647L10.8898 18.8152L10.9205 18.8673C11.3907 19.6653 12.0484 20.335 12.8322 20.8138L12.8834 20.845L12.1473 21.3273L12.1439 21.3239ZM15.6607 21.1885C12.8391 21.1885 10.5456 18.8534 10.5456 15.9804C10.5456 13.1075 12.8391 10.7723 15.6607 10.7723C18.4824 10.7723 20.7758 13.1075 20.7758 15.9804C20.7758 18.8534 18.4824 21.1885 15.6607 21.1885ZM20.9087 12.3962L20.435 13.1456L20.4044 13.0936C19.9341 12.2955 19.2764 11.6259 18.4926 11.147L18.4415 11.1158L19.1776 10.6335C19.4502 10.4566 19.8114 10.4947 20.0397 10.7272L20.8133 11.5148C21.0416 11.7473 21.0791 12.1186 20.9053 12.3927L20.9087 12.3962ZM17.075 18.9332C17.075 18.6799 16.8739 18.4787 16.6285 18.4787C16.3798 18.4787 16.1821 18.6834 16.1821 18.9332C16.1821 19.1865 16.3832 19.3877 16.6285 19.3877C16.8773 19.3877 17.075 19.183 17.075 18.9332ZM12.3109 15.4842C12.3109 15.7341 12.5119 15.9388 12.7573 15.9388C13.0026 15.9388 13.2037 15.7341 13.2037 15.4842C13.2037 15.2344 13.0026 15.0297 12.7573 15.0297C12.5085 15.0297 12.3109 15.2344 12.3109 15.4842ZM16.1071 15.977C16.1071 15.7237 15.9061 15.5224 15.6607 15.5224C15.4119 15.5224 15.2143 15.7271 15.2143 15.977C15.2143 16.2268 15.4154 16.4315 15.6607 16.4315C15.9061 16.4315 16.1071 16.2268 16.1071 15.977ZM17.6304 13.5134C17.6304 13.7667 17.8315 13.968 18.0768 13.968C18.3222 13.968 18.5233 13.7632 18.5233 13.5134C18.5233 13.2636 18.3222 13.0589 18.0768 13.0589C17.8315 13.0589 17.6304 13.2636 17.6304 13.5134ZM14.6554 19.3877V16.9971H12.3109V17.2052C12.3109 18.4058 13.2718 19.3843 14.4509 19.3843H14.6554V19.3877ZM14.2431 17.4169V18.9575L14.2022 18.9505C13.4456 18.8395 12.8459 18.2288 12.7368 17.4585L12.73 17.4169H14.2431ZM17.0613 16.716L18.7209 18.4058L18.8675 18.2566C19.273 17.8437 19.4945 17.2989 19.4945 16.716C19.4945 16.1331 19.273 15.5849 18.8675 15.1754L18.7209 15.0262L17.0613 16.716ZM18.7141 17.8055L17.6441 16.716L18.7141 15.6265L18.738 15.6612C18.9629 15.9665 19.0821 16.3343 19.0821 16.716C19.0821 17.0977 18.9629 17.4655 18.738 17.7708L18.7141 17.8055ZM16.1071 12.0735H13.7626V14.4607H13.967C15.1461 14.4607 16.1071 13.4822 16.1071 12.2817V12.0735ZM14.1715 12.4933H15.6846L15.6778 12.5349C15.5687 13.3052 14.9689 13.9159 14.2124 14.0269L14.1715 14.0339V12.4933Z" fill="#338000"/>
</svg>
