<svg width="59" height="58" viewBox="0 0 59 58" fill="none" xmlns="http://www.w3.org/2000/svg">
<rect width="59" height="58" rx="29" fill="#D9ECCD"/>
<path d="M28.667 21.4658C28.7913 21.4659 28.9126 21.5115 29.0039 21.5957C29.0957 21.6804 29.1494 21.7984 29.1494 21.9238C29.1493 22.0491 29.0956 22.1663 29.0039 22.251C28.9126 22.3352 28.7913 22.3808 28.667 22.3809H24C23.4173 22.3809 22.8608 22.5954 22.4521 22.9727C22.0439 23.3495 21.8165 23.8575 21.8164 24.3848V34.2305C21.8164 34.7579 22.0439 35.2667 22.4521 35.6436C22.8608 36.0207 23.4173 36.2344 24 36.2344H34.666C35.2488 36.2344 35.8061 36.0208 36.2148 35.6436C36.623 35.2667 36.8496 34.7578 36.8496 34.2305V32.3848C36.8496 32.2593 36.9043 32.1414 36.9961 32.0566C37.0874 31.9725 37.2087 31.9268 37.333 31.9268C37.4575 31.9268 37.5795 31.9723 37.6709 32.0566C37.7627 32.1414 37.8164 32.2593 37.8164 32.3848V34.2305C37.8164 35.0086 37.4814 35.7525 36.8896 36.2988C36.2982 36.8448 35.4977 37.1504 34.666 37.1504H24C23.1683 37.1504 22.3688 36.8448 21.7773 36.2988C21.1855 35.7525 20.8496 35.0087 20.8496 34.2305V24.3848C20.8497 23.6066 21.1855 22.8627 21.7773 22.3164C22.3688 21.7707 23.1685 21.4658 24 21.4658H28.667ZM32.7588 20.8584C32.8503 20.8753 32.9357 20.9174 33.0039 20.9805L39.0039 26.5195C39.0956 26.6042 39.1504 26.7214 39.1504 26.8467C39.1504 26.9721 39.0957 27.0901 39.0039 27.1748L33.0039 32.7129C32.9357 32.7759 32.8503 32.8181 32.7588 32.835C32.6673 32.8518 32.5722 32.8428 32.4854 32.8096C32.3984 32.7763 32.3221 32.719 32.2676 32.6436C32.2131 32.568 32.1835 32.478 32.1836 32.3848V29.1582C29.2279 29.242 27.3054 30.0866 26.1191 30.9082H26.1182C25.6221 31.2474 25.176 31.6452 24.7939 32.0918L24.7949 32.0928C24.6614 32.2518 24.5662 32.3819 24.5059 32.4707L24.5068 32.4717C24.4766 32.517 24.4566 32.5489 24.4453 32.5684L24.4443 32.5703L24.4297 32.5947C24.3807 32.6846 24.3022 32.7546 24.209 32.7969C24.1158 32.8392 24.011 32.852 23.9102 32.834C23.8094 32.8159 23.7158 32.7677 23.6445 32.6943C23.5793 32.6273 23.5376 32.5423 23.5234 32.4502L23.5225 32.4482V32.4453C23.5214 32.4381 23.5192 32.4311 23.5186 32.4238L23.5049 32.2715L23.5117 32.2705C23.5091 32.2028 23.5059 32.1351 23.5059 32.0674C23.5059 31.8505 23.5174 31.5442 23.5615 31.1787C23.6382 30.5407 23.8168 29.7105 24.2178 28.8525L24.4033 28.4834C25.0099 27.3498 25.9577 26.404 27.1309 25.7588L27.375 25.6299C28.5905 25.012 30.1603 24.6054 32.1836 24.5498V21.3086C32.1834 21.2151 32.213 21.1244 32.2676 21.0488C32.322 20.9735 32.3985 20.917 32.4854 20.8838C32.5723 20.8505 32.6672 20.8416 32.7588 20.8584ZM33.1494 25C33.1494 25.1254 33.0957 25.2434 33.0039 25.3281C32.9125 25.4125 32.7905 25.458 32.666 25.458C30.5426 25.4581 28.9863 25.8513 27.8428 26.4307L27.6191 26.5498C26.6027 27.1082 25.785 27.9256 25.2637 28.9014L25.2627 28.9023C24.8692 29.6289 24.6686 30.3599 24.5684 30.9639C24.8714 30.6754 25.1987 30.4093 25.5479 30.1689C26.9649 29.1881 29.2315 28.2354 32.666 28.2354C32.7905 28.2354 32.9125 28.2809 33.0039 28.3652C33.0955 28.4499 33.1494 28.5671 33.1494 28.6924V31.2998L37.9736 26.8467L33.1494 22.3926V25Z" fill="#42A004" stroke="#42A004" stroke-width="0.3"/>
</svg>
