<svg width="24" height="18" viewBox="0 0 24 18" fill="none" xmlns="http://www.w3.org/2000/svg">
<path d="M2.12779 12.7327L0.759043 3.83618C0.657793 3.17918 1.40629 2.73068 1.93804 3.12968L6.20254 6.32768C6.31339 6.41072 6.44 6.47029 6.57464 6.50277C6.70928 6.53525 6.84912 6.53994 6.98564 6.51657C7.12215 6.4932 7.25247 6.44225 7.36864 6.36683C7.48481 6.29141 7.58438 6.19311 7.66129 6.07793L11.2118 0.75293C11.5868 0.19043 12.4133 0.19043 12.7883 0.75293L16.3388 6.07793C16.4157 6.19311 16.5153 6.29141 16.6314 6.36683C16.7476 6.44225 16.8779 6.4932 17.0145 6.51657C17.151 6.53994 17.2908 6.53525 17.4254 6.50277C17.5601 6.47029 17.6867 6.41072 17.7975 6.32768L22.062 3.12968C22.5945 2.73068 23.3423 3.17918 23.241 3.83618L21.8723 12.7327H2.12779ZM20.8425 17.6692H3.15754C3.02231 17.6692 2.88841 17.6425 2.76347 17.5908C2.63854 17.539 2.52502 17.4632 2.4294 17.3676C2.23628 17.1745 2.12779 16.9125 2.12779 16.6394V14.3782H21.8723V16.6394C21.8723 17.2079 21.411 17.6692 20.8425 17.6692Z" fill="#FFB743"/>
</svg>
