<svg width="32" height="32" viewBox="0 0 32 32" fill="none" xmlns="http://www.w3.org/2000/svg">
<circle cx="16" cy="16" r="16" fill="#D9ECCD"/>
<g clip-path="url(#clip0_2013_29635)">
<path d="M15 16.667H14.3333C14.1493 16.667 14 16.8163 14 17.0003C14 17.1843 14.1493 17.3337 14.3333 17.3337H15C15.184 17.3337 15.3333 17.1843 15.3333 17.0003C15.3333 16.8163 15.184 16.667 15 16.667Z" fill="#338000"/>
<path d="M17.6641 16.667H16.9974C16.8134 16.667 16.6641 16.8163 16.6641 17.0003C16.6641 17.1843 16.8134 17.3337 16.9974 17.3337H17.6641C17.8481 17.3337 17.9974 17.1843 17.9974 17.0003C17.9974 16.8163 17.8481 16.667 17.6641 16.667Z" fill="#338000"/>
<path d="M20.3359 16.667H19.6693C19.4853 16.667 19.3359 16.8163 19.3359 17.0003C19.3359 17.1843 19.4853 17.3337 19.6693 17.3337H20.3359C20.5199 17.3337 20.6693 17.1843 20.6693 17.0003C20.6693 16.8163 20.5199 16.667 20.3359 16.667Z" fill="#338000"/>
<path d="M15 20H14.3333C14.1493 20 14 20.1493 14 20.3333C14 20.5173 14.1493 20.6667 14.3333 20.6667H15C15.184 20.6667 15.3333 20.5173 15.3333 20.3333C15.3333 20.1493 15.184 20 15 20Z" fill="#338000"/>
<path d="M12.3359 16.667H11.6693C11.4853 16.667 11.3359 16.8163 11.3359 17.0003C11.3359 17.1843 11.4853 17.3337 11.6693 17.3337H12.3359C12.5199 17.3337 12.6693 17.1843 12.6693 17.0003C12.6693 16.8163 12.5199 16.667 12.3359 16.667Z" fill="#338000"/>
<path d="M12.3359 20H11.6693C11.4853 20 11.3359 20.1493 11.3359 20.3333C11.3359 20.5173 11.4853 20.6667 11.6693 20.6667H12.3359C12.5199 20.6667 12.6693 20.5173 12.6693 20.3333C12.6693 20.1493 12.5199 20 12.3359 20Z" fill="#338000"/>
<path d="M17.6641 20H16.9974C16.8134 20 16.6641 20.1493 16.6641 20.3333C16.6641 20.5173 16.8134 20.6667 16.9974 20.6667H17.6641C17.8481 20.6667 17.9974 20.5173 17.9974 20.3333C17.9974 20.1493 17.8481 20 17.6641 20Z" fill="#338000"/>
<path d="M20.3359 20H19.6693C19.4853 20 19.3359 20.1493 19.3359 20.3333C19.3359 20.5173 19.4853 20.6667 19.6693 20.6667H20.3359C20.5199 20.6667 20.6693 20.5173 20.6693 20.3333C20.6693 20.1493 20.5199 20 20.3359 20Z" fill="#338000"/>
<path d="M21 9.33333H20V8.33333C20 8.14933 19.8507 8 19.6667 8C19.4827 8 19.3333 8.14933 19.3333 8.33333V9.33333H12.6667V8.33333C12.6667 8.14933 12.5173 8 12.3333 8C12.1493 8 12 8.14933 12 8.33333V9.33333H11C9.346 9.33333 8 10.6793 8 12.3333V21C8 22.654 9.346 24 11 24H21C22.654 24 24 22.654 24 21V12.3333C24 10.6793 22.654 9.33333 21 9.33333ZM11 10H21C22.2867 10 23.3333 11.0467 23.3333 12.3333V13.3333H8.66667V12.3333C8.66667 11.0467 9.71333 10 11 10ZM21 23.3333H11C9.71333 23.3333 8.66667 22.2867 8.66667 21V14H23.3333V21C23.3333 22.2867 22.2867 23.3333 21 23.3333Z" fill="#338000"/>
</g>
<defs>
<clipPath id="clip0_2013_29635">
<rect width="16" height="16" fill="white" transform="translate(8 8)"/>
</clipPath>
</defs>
</svg>
