<svg width="32" height="32" viewBox="0 0 32 32" fill="none" xmlns="http://www.w3.org/2000/svg">
<circle cx="16" cy="16" r="16" fill="#FFE2E2"/>
<path d="M21.8563 11.1723C21.789 11.1563 20.7803 10.9243 19.2957 10.7457L18.7277 9.10766C18.6883 8.99499 18.5923 8.91166 18.4743 8.88966C18.427 8.88033 17.285 8.66699 15.999 8.66699C14.713 8.66699 13.571 8.88099 13.523 8.88966C13.4057 8.91233 13.3097 8.99499 13.2703 9.10833L12.7023 10.7457C11.2183 10.9243 10.209 11.1563 10.141 11.1723C9.961 11.2137 9.84967 11.393 9.89167 11.5723C9.92767 11.7263 10.065 11.8303 10.2163 11.8303C10.241 11.8303 10.2663 11.8277 10.2917 11.8217C10.2983 11.8203 10.469 11.781 10.7683 11.723C10.6357 12.841 10.5117 14.5803 10.5117 16.215C10.5117 19.7523 11.0883 22.3417 11.113 22.4503C11.1397 22.5677 11.2277 22.6623 11.3437 22.6963C11.431 22.7223 13.5223 23.3337 15.9977 23.3337C18.473 23.3337 20.5643 22.7223 20.6517 22.6963C20.7677 22.6623 20.8563 22.5677 20.883 22.4497C20.907 22.3397 21.4837 19.7223 21.4837 16.215C21.4837 14.575 21.3603 12.837 21.2283 11.723C21.527 11.781 21.697 11.8203 21.7037 11.8217C21.8843 11.8637 22.0617 11.7523 22.1043 11.573C22.1457 11.3937 22.035 11.2143 21.855 11.1723H21.8563ZM13.8363 9.51299C14.205 9.45433 15.0697 9.33366 15.999 9.33366C16.9283 9.33366 17.7917 9.45366 18.1623 9.51299L18.5623 10.667C17.7837 10.593 16.9123 10.5403 15.999 10.5403C15.0857 10.5403 14.215 10.5923 13.4357 10.667L13.8363 9.51299ZM20.819 16.2157C20.819 19.111 20.4063 21.439 20.2743 22.1097C19.7077 22.257 17.9543 22.6677 15.9997 22.6677C14.045 22.6677 12.2903 22.257 11.7243 22.1097C11.5923 21.4437 11.1803 19.1337 11.1803 16.2157C11.1803 14.515 11.323 12.649 11.4577 11.6003C12.5183 11.4243 14.1917 11.2077 15.9997 11.2077C17.8077 11.2077 19.4837 11.4243 20.543 11.6003C20.6817 12.6757 20.819 14.499 20.819 16.2157Z" fill="#EE5A5A"/>
<path d="M14.3724 14.0791C14.1884 14.0791 14.0391 14.2284 14.0391 14.4124V19.7738C14.0391 19.9578 14.1884 20.1071 14.3724 20.1071C14.5564 20.1071 14.7057 19.9578 14.7057 19.7738V14.4124C14.7057 14.2284 14.5564 14.0791 14.3724 14.0791Z" fill="#EE5A5A"/>
<path d="M17.6302 20.1071C17.8142 20.1071 17.9635 19.9578 17.9635 19.7738V14.4124C17.9635 14.2284 17.8142 14.0791 17.6302 14.0791C17.4462 14.0791 17.2969 14.2284 17.2969 14.4124V19.7738C17.2969 19.9578 17.4462 20.1071 17.6302 20.1071Z" fill="#EE5A5A"/>
</svg>
