<svg width="16" height="16" viewBox="0 0 16 16" fill="none" xmlns="http://www.w3.org/2000/svg">
<rect width="16" height="16" rx="4" fill="#A7A7A7"/>
<g clip-path="url(#clip0_1253_21418)">
<path d="M5.8125 8.625H3.9375C3.76491 8.625 3.625 8.76491 3.625 8.9375V12.0625C3.625 12.2351 3.76491 12.375 3.9375 12.375H5.8125C5.98509 12.375 6.125 12.2351 6.125 12.0625V8.9375C6.125 8.76491 5.98509 8.625 5.8125 8.625Z" fill="white"/>
<path d="M12.0625 6.125H10.1875C10.0149 6.125 9.875 6.26491 9.875 6.4375V12.0625C9.875 12.2351 10.0149 12.375 10.1875 12.375H12.0625C12.2351 12.375 12.375 12.2351 12.375 12.0625V6.4375C12.375 6.26491 12.2351 6.125 12.0625 6.125Z" fill="white"/>
<path d="M8.9375 3.625H7.0625C6.88991 3.625 6.75 3.76491 6.75 3.9375V12.0625C6.75 12.2351 6.88991 12.375 7.0625 12.375H8.9375C9.11009 12.375 9.25 12.2351 9.25 12.0625V3.9375C9.25 3.76491 9.11009 3.625 8.9375 3.625Z" fill="white"/>
</g>
<defs>
<clipPath id="clip0_1253_21418">
<rect width="10" height="10" fill="white" transform="translate(3 3)"/>
</clipPath>
</defs>
</svg>
