<svg width="33" height="33" viewBox="0 0 33 33" fill="none" xmlns="http://www.w3.org/2000/svg">
<circle cx="16.2371" cy="16.2371" r="15.9871" fill="#D9ECCD"/>
<g clip-path="url(#clip0_1998_25823)">
<path d="M20.4475 14.6392C20.8292 15.0133 21.3317 15.2 21.8333 15.2C22.335 15.2 22.8375 15.0133 23.2192 14.6392L24.7792 13.1133C25.5667 12.3267 26 11.28 26 10.1667C26 9.05333 25.5667 8.0075 24.7792 7.22C23.9925 6.43333 22.9458 6 21.8333 6C20.7208 6 19.6742 6.43333 18.8867 7.22C17.2617 8.845 17.2617 11.4883 18.89 13.1158L20.4475 14.6392ZM19.4758 7.81C20.1058 7.18083 20.9425 6.83417 21.8333 6.83417C22.7242 6.83417 23.5608 7.18083 24.19 7.81C24.82 8.43917 25.1667 9.27667 25.1667 10.1675C25.1667 11.0583 24.82 11.895 24.1933 12.5217L22.6367 14.0442C22.1942 14.4775 21.4733 14.4775 21.03 14.0442L19.4758 12.525C18.1758 11.225 18.1758 9.11 19.4758 7.81083V7.81ZM7.66667 22.6667C6.7475 22.6667 6 23.4142 6 24.3333C6 25.2525 6.7475 26 7.66667 26C8.58583 26 9.33333 25.2525 9.33333 24.3333C9.33333 23.4142 8.58583 22.6667 7.66667 22.6667ZM7.66667 25.1667C7.2075 25.1667 6.83333 24.7925 6.83333 24.3333C6.83333 23.8742 7.2075 23.5 7.66667 23.5C8.12583 23.5 8.5 23.8742 8.5 24.3333C8.5 24.7925 8.12583 25.1667 7.66667 25.1667ZM14.75 19.3333C14.75 20.2525 15.4975 21 16.4167 21C17.3358 21 18.0833 20.2525 18.0833 19.3333C18.0833 18.4142 17.3358 17.6667 16.4167 17.6667C15.4975 17.6667 14.75 18.4142 14.75 19.3333ZM17.25 19.3333C17.25 19.7925 16.8758 20.1667 16.4167 20.1667C15.9575 20.1667 15.5833 19.7925 15.5833 19.3333C15.5833 18.8742 15.9575 18.5 16.4167 18.5C16.8758 18.5 17.25 18.8742 17.25 19.3333ZM13.0833 20.1667H10.5833C8.975 20.1667 7.66667 18.8583 7.66667 17.25C7.66667 15.6417 8.975 14.3333 10.5833 14.3333H18.0833C18.3133 14.3333 18.5 14.52 18.5 14.75C18.5 14.98 18.3133 15.1667 18.0833 15.1667H10.5833C9.435 15.1667 8.5 16.1017 8.5 17.25C8.5 18.3983 9.435 19.3333 10.5833 19.3333H13.0833C13.3133 19.3333 13.5 19.52 13.5 19.75C13.5 19.98 13.3133 20.1667 13.0833 20.1667ZM26 22.25C26 23.8583 24.6917 25.1667 23.0833 25.1667H11.4167C11.1867 25.1667 11 24.98 11 24.75C11 24.52 11.1867 24.3333 11.4167 24.3333H23.0833C24.2317 24.3333 25.1667 23.3983 25.1667 22.25C25.1667 21.1017 24.2317 20.1667 23.0833 20.1667H19.75C19.52 20.1667 19.3333 19.98 19.3333 19.75C19.3333 19.52 19.52 19.3333 19.75 19.3333H23.0833C24.6917 19.3333 26 20.6417 26 22.25ZM22.6675 9.98917C22.6675 10.4492 22.2942 10.8225 21.8342 10.8225C21.3742 10.8225 21.0008 10.4492 21.0008 9.98917C21.0008 9.52917 21.3742 9.15583 21.8342 9.15583C22.2942 9.15583 22.6675 9.52917 22.6675 9.98917Z" fill="#338000"/>
</g>
<defs>
<clipPath id="clip0_1998_25823">
<rect width="20" height="20" fill="white" transform="translate(6 6)"/>
</clipPath>
</defs>
</svg>
