<svg width="20" height="11" viewBox="0 0 20 11" fill="none" xmlns="http://www.w3.org/2000/svg">
<path d="M18.9466 0.947132C18.8226 0.822161 18.6752 0.722968 18.5127 0.655277C18.3502 0.587585 18.1759 0.552734 17.9999 0.552734C17.8239 0.552734 17.6496 0.587585 17.4871 0.655277C17.3247 0.722968 17.1772 0.822161 17.0533 0.947132L10.9466 7.0538C10.8226 7.17877 10.6752 7.27796 10.5127 7.34565C10.3502 7.41335 10.1759 7.4482 9.99992 7.4482C9.8239 7.4482 9.64963 7.41335 9.48715 7.34565C9.32467 7.27796 9.1772 7.17877 9.05325 7.0538L2.94658 0.947132C2.82263 0.822161 2.67517 0.722968 2.51269 0.655277C2.35021 0.587585 2.17593 0.552734 1.99992 0.552734C1.8239 0.552734 1.64963 0.587585 1.48715 0.655277C1.32467 0.722968 1.1772 0.822161 1.05325 0.947132C0.804916 1.19695 0.665527 1.53488 0.665527 1.88713C0.665527 2.23938 0.804916 2.57732 1.05325 2.82713L7.17325 8.94713C7.92325 9.6962 8.93991 10.1169 9.99992 10.1169C11.0599 10.1169 12.0766 9.6962 12.8266 8.94713L18.9466 2.82713C19.1949 2.57732 19.3343 2.23938 19.3343 1.88713C19.3343 1.53488 19.1949 1.19695 18.9466 0.947132Z" fill="black"/>
</svg>
