<svg width="20" height="11" viewBox="0 0 20 11" fill="none" xmlns="http://www.w3.org/2000/svg">
<path d="M1.05342 10.0529C1.17737 10.1778 1.32483 10.277 1.48731 10.3447C1.64979 10.4124 1.82407 10.4473 2.00008 10.4473C2.1761 10.4473 2.35037 10.4124 2.51285 10.3447C2.67533 10.277 2.8228 10.1778 2.94675 10.0529L9.05342 3.9462C9.17737 3.82123 9.32483 3.72204 9.48731 3.65435C9.64979 3.58665 9.82407 3.5518 10.0001 3.5518C10.1761 3.5518 10.3504 3.58665 10.5129 3.65435C10.6753 3.72204 10.8228 3.82123 10.9467 3.9462L17.0534 10.0529C17.1774 10.1778 17.3248 10.277 17.4873 10.3447C17.6498 10.4124 17.8241 10.4473 18.0001 10.4473C18.1761 10.4473 18.3504 10.4124 18.5129 10.3447C18.6753 10.277 18.8228 10.1778 18.9467 10.0529C19.1951 9.80305 19.3345 9.46512 19.3345 9.11287C19.3345 8.76062 19.1951 8.42268 18.9467 8.17287L12.8267 2.05287C12.0767 1.3038 11.0601 0.883054 10.0001 0.883054C8.94008 0.883054 7.92342 1.3038 7.17342 2.05287L1.05342 8.17287C0.805082 8.42268 0.665691 8.76062 0.665691 9.11287C0.665691 9.46512 0.805082 9.80305 1.05342 10.0529Z" fill="black"/>
</svg>
