<svg width="32" height="32" viewBox="0 0 32 32" fill="none" xmlns="http://www.w3.org/2000/svg">
<circle cx="16" cy="16" r="16" fill="#D9ECCD"/>
<g clip-path="url(#clip0_1998_25793)">
<path d="M19.9595 22.0887C19.7535 23.196 18.7875 24 17.6622 24H10.3369C9.66419 24 9.02352 23.7087 8.58019 23.202C8.13486 22.6933 7.93086 22.018 8.02086 21.348C8.34686 18.9107 10.1929 17.2947 11.8002 16.0007C10.1929 14.7053 8.34686 13.09 8.02086 10.6527C7.93086 9.98133 8.13486 9.30467 8.58019 8.796C9.02219 8.29 9.66152 8 10.3329 8H17.6669C18.7922 8 19.7562 8.804 19.9602 9.91133C19.9942 10.092 19.8742 10.266 19.6935 10.3C19.5155 10.334 19.3389 10.214 19.3055 10.0327C19.1589 9.24133 18.4702 8.66667 17.6669 8.66667H10.3329C9.85352 8.66667 9.39819 8.874 9.08152 9.23467C8.76286 9.59867 8.61752 10.0833 8.68086 10.564C8.99419 12.9027 10.9609 14.476 12.5409 15.74C12.6195 15.8033 12.6662 15.8993 12.6662 16.0007C12.6662 16.102 12.6202 16.1973 12.5409 16.2613C10.9609 17.5253 8.99419 19.0987 8.68086 21.4373C8.61686 21.9167 8.76286 22.4 9.08152 22.764C9.39886 23.126 9.85619 23.334 10.3369 23.334H17.6622C18.4662 23.334 19.1569 22.76 19.3049 21.968C19.3382 21.786 19.5149 21.6687 19.6935 21.7013C19.8742 21.7353 19.9935 21.9093 19.9595 22.09V22.0887ZM19.9995 15.862V13.6667C19.9995 13.4827 19.8502 13.3333 19.6662 13.3333C19.4822 13.3333 19.3329 13.4827 19.3329 13.6667V16C19.3329 16.0887 19.3682 16.1733 19.4302 16.236L20.7635 17.5693C20.8289 17.6347 20.9142 17.6667 20.9995 17.6667C21.0849 17.6667 21.1702 17.634 21.2355 17.5693C21.3655 17.4393 21.3655 17.228 21.2355 17.098L19.9995 15.862ZM14.0202 17.6327C14.1029 17.6327 14.1802 17.6667 14.2409 17.722C14.2389 17.7193 14.2415 17.7207 14.2589 17.734C15.5509 18.7667 17.1915 20.098 17.6009 21.578C17.6289 21.678 17.6082 21.786 17.5449 21.8687C17.4822 21.952 17.3842 22 17.2802 22H10.7589C10.6549 22 10.5569 21.9507 10.4942 21.8687C10.4309 21.786 10.4102 21.6787 10.4375 21.5787C10.8389 20.1067 12.4235 18.82 13.7822 17.7327C13.7995 17.7187 13.8015 17.718 13.7989 17.7213C13.8602 17.666 13.9369 17.6327 14.0202 17.6327ZM14.0202 18.416C12.8882 19.3213 11.7229 20.2533 11.2335 21.3333H16.8029C16.2995 20.2393 15.0962 19.2773 14.0202 18.4167V18.416ZM23.9995 16C23.9995 18.3893 22.0555 20.3333 19.6662 20.3333C17.2769 20.3333 15.3329 18.3893 15.3329 16C15.3329 13.6107 17.2769 11.6667 19.6662 11.6667C22.0555 11.6667 23.9995 13.6107 23.9995 16ZM23.3329 16C23.3329 13.978 21.6875 12.3333 19.6662 12.3333C17.6449 12.3333 15.9995 13.978 15.9995 16C15.9995 18.022 17.6449 19.6667 19.6662 19.6667C21.6875 19.6667 23.3329 18.022 23.3329 16Z" fill="#338000"/>
</g>
<defs>
<clipPath id="clip0_1998_25793">
<rect width="16" height="16" fill="white" transform="translate(8 8)"/>
</clipPath>
</defs>
</svg>
