<svg width="32" height="32" viewBox="0 0 32 32" fill="none" xmlns="http://www.w3.org/2000/svg">
<circle cx="16" cy="16" r="16" fill="#D9ECCD"/>
<path fill-rule="evenodd" clip-rule="evenodd" d="M19.3124 18.3882C19.3303 18.4138 19.3406 18.442 19.3483 18.4728C19.3534 18.5036 19.3534 18.5344 19.3483 18.5626C19.3432 18.5934 19.3303 18.6216 19.3149 18.6472L18.2912 20.1835C18.2707 20.2143 18.2399 20.2425 18.2065 20.2605C18.1732 20.2784 18.1347 20.2887 18.0988 20.2887C17.9166 20.2938 17.7986 20.0758 17.9038 19.9271L18.9275 18.3907C18.9429 18.3651 18.966 18.342 18.9917 18.3266C19.0173 18.3087 19.0455 18.2984 19.0763 18.2907C19.1071 18.2856 19.1353 18.2856 19.1687 18.2907C19.1995 18.2958 19.2277 18.3087 19.2508 18.3266C19.2765 18.3446 19.297 18.3651 19.3149 18.3907L19.3124 18.3882ZM14.4708 19.1987C14.2835 19.2038 14.1681 18.9755 14.2809 18.8293L15.5484 17.0724C15.5843 17.0237 15.6382 16.9903 15.6998 16.9827C15.7614 16.9724 15.823 16.9878 15.8717 17.0237C15.9205 17.0596 15.9538 17.1135 15.9641 17.1725C15.9743 17.2314 15.9615 17.2956 15.9256 17.3443L14.6581 19.1012C14.6376 19.132 14.6094 19.1551 14.5734 19.173C14.5401 19.1884 14.5042 19.1987 14.4708 19.1987ZM17.0545 18.5344C16.8724 18.5395 16.7543 18.3189 16.8595 18.1727L17.5959 17.0801C17.6139 17.0545 17.6344 17.034 17.66 17.016C17.6857 16.998 17.7139 16.9878 17.7447 16.9827C17.7755 16.9775 17.8063 16.9775 17.8345 16.9827C17.8653 16.9878 17.8935 17.0006 17.9166 17.0186C17.9423 17.0365 17.9628 17.057 17.9808 17.0827C17.9987 17.1083 18.009 17.1365 18.0141 17.1673C18.0192 17.1981 18.0192 17.2289 18.0141 17.2571C18.009 17.2879 17.9962 17.3161 17.9782 17.3417L17.2418 18.4343C17.2213 18.4651 17.1931 18.4908 17.1572 18.5113C17.1238 18.5292 17.0853 18.5369 17.0494 18.5369L17.0545 18.5344ZM16.6209 19.2346C16.4644 19.2346 16.3387 19.1063 16.3387 18.9524C16.3387 18.796 16.467 18.6703 16.6209 18.6703C16.7774 18.6703 16.9057 18.796 16.9057 18.9524C16.9057 19.1089 16.7774 19.2346 16.6209 19.2346ZM22.8275 21.3711C22.6709 21.3711 22.5452 21.2428 22.5452 21.0889C22.5452 20.9325 22.6709 20.8068 22.8275 20.8068C22.984 20.8068 23.1097 20.9325 23.1097 21.0889C23.1097 21.2454 22.984 21.3711 22.8275 21.3711ZM13.1597 20.7683C13.3291 21.0607 13.4317 21.3864 13.465 21.7224H13.8063C13.5985 21.189 13.3162 20.2938 13.8756 19.9271H13.8781H13.8807C14.1809 19.7578 14.5298 19.9091 14.789 20.0963C14.9044 19.6988 15.1559 19.1551 15.6177 19.1551C16.0795 19.1551 16.3335 19.6988 16.449 20.0963C16.7081 19.9117 17.0545 19.7604 17.3547 19.9271C17.7601 20.1297 17.7037 20.7375 17.6292 21.1018C17.6241 21.1325 17.6113 21.1607 17.5933 21.1864C17.5754 21.212 17.5548 21.2326 17.5292 21.2505C17.5035 21.2659 17.4753 21.2787 17.4445 21.2839C17.4137 21.289 17.3829 21.289 17.3547 21.2839C17.3239 21.2787 17.2957 21.2659 17.2726 21.2479C17.247 21.23 17.2264 21.2095 17.2085 21.1838C17.1905 21.1582 17.1802 21.13 17.1751 21.1018C17.17 21.071 17.17 21.0402 17.1751 21.0094C17.2059 20.8555 17.2316 20.676 17.2136 20.5195C17.2085 20.4811 17.1879 20.3605 17.1495 20.3426C17.1443 20.34 17.1366 20.3374 17.1315 20.3323C17.0725 20.299 16.9622 20.3374 16.9083 20.3631C16.7492 20.4349 16.5953 20.5683 16.4772 20.6888C16.3515 20.8248 16.1052 20.7478 16.0821 20.5631C16.0436 20.3246 15.9743 20.0527 15.8538 19.8424C15.8153 19.7757 15.7126 19.6193 15.6228 19.6193C15.533 19.6193 15.4304 19.7757 15.3919 19.8424C15.2713 20.0527 15.2046 20.3246 15.1661 20.5606C15.143 20.7452 14.8993 20.8248 14.771 20.6888C14.6504 20.5657 14.4965 20.4349 14.3374 20.3631C14.2861 20.34 14.1809 20.3015 14.1219 20.3297C13.8576 20.6247 14.1706 21.3762 14.3194 21.725H17.7806C17.8935 20.5631 18.848 19.627 20.0359 19.627C21.2239 19.627 22.1783 20.5631 22.2912 21.725H23.7665C23.7973 21.725 23.8281 21.7301 23.8563 21.743C23.8845 21.7532 23.9102 21.7712 23.9307 21.7943C23.9513 21.8148 23.9692 21.8404 23.982 21.8686C23.9923 21.8968 24 21.9276 24 21.9584C24 23.0844 23.084 24 21.9577 24H10.0423C8.91597 24 8 23.0844 8 21.9584C8 21.9276 8.00513 21.8968 8.01796 21.8686C8.03079 21.8404 8.04618 21.8148 8.06928 21.7943C8.0898 21.7712 8.11802 21.7558 8.14625 21.743C8.17447 21.7301 8.20526 21.725 8.23605 21.725H8.96472C9.02117 21.1505 9.28287 20.617 9.70622 20.2246C9.49326 20.0579 9.28544 19.8886 9.08531 19.7116C8.73894 19.4192 8.71328 18.8575 9.0263 18.5344C9.92688 17.5726 11.043 16.6621 12.2284 16.0798C12.526 15.9336 12.8313 15.808 13.1443 15.7028C13.9423 14.6076 15.2431 13.9356 16.5927 13.8741C17.3727 13.8382 18.145 14.0049 18.8275 14.3819C18.9788 14.4589 18.9942 14.6846 18.8531 14.7769C18.5478 14.9924 18.2758 15.2514 18.0449 15.5489C18.0064 15.5977 17.95 15.6259 17.891 15.6336C17.8319 15.6413 17.7704 15.6233 17.7216 15.5874C17.6729 15.5489 17.6421 15.4951 17.6344 15.4361C17.6267 15.3745 17.6421 15.313 17.678 15.2642C17.855 15.0334 18.0577 14.8231 18.2784 14.6358C17.5574 14.3332 16.7672 14.2486 16 14.3973C15.2174 14.5486 14.5067 14.9334 13.95 15.4976C14.2373 15.4463 14.5273 15.4181 14.8198 15.4156C16.431 15.4079 17.7935 15.6746 19.179 16.4979L21.8294 15.2796C22.009 15.1898 22.2091 15.177 22.4015 15.2437C22.8428 15.3976 23.1046 15.9157 22.8736 16.3466L21.8012 18.5267C21.7781 18.5728 21.7678 18.6241 21.7678 18.6754C21.7678 18.7267 21.7832 18.778 21.8089 18.8242L22.5452 20.1682C22.5606 20.1938 22.5683 20.2246 22.5734 20.2554C22.576 20.2861 22.5734 20.3169 22.5657 20.3451C22.5581 20.3759 22.5427 20.4041 22.5247 20.4272C22.5067 20.4503 22.4811 20.4708 22.4554 20.4862C22.4298 20.5016 22.399 20.5093 22.3682 20.5144C22.3374 20.517 22.3066 20.5144 22.2784 20.5067C22.2502 20.499 22.2219 20.4836 22.1988 20.4631C22.1758 20.4452 22.1552 20.4195 22.1398 20.3939L21.4035 19.0499C21.3419 18.9396 21.3085 18.8139 21.306 18.6883C21.3034 18.5626 21.3316 18.4369 21.3855 18.3215L22.458 16.1414C22.5863 15.8439 22.3246 15.5823 22.0269 15.7028L19.2662 16.9724C19.2328 16.9878 19.1944 16.9955 19.1559 16.9929C19.1174 16.9903 19.0815 16.9801 19.0481 16.9596C17.7088 16.1363 16.3951 15.8747 14.8275 15.8823C14.0808 15.8849 13.3496 16.085 12.6722 16.3876C13.4599 17.6982 13.6472 19.3166 13.1751 20.7735L13.1597 20.7683ZM18.2399 21.7224H21.8165C21.7062 20.8171 20.9596 20.0887 20.0282 20.0887C19.0969 20.0887 18.3502 20.8171 18.2399 21.7224ZM10.0834 19.9348C10.4246 19.7321 10.8121 19.6244 11.2097 19.6244C11.8204 19.6244 12.39 19.8758 12.8108 20.3067C13.1264 19.0473 12.9185 17.6957 12.2386 16.5877C11.1764 17.1442 10.1732 17.9752 9.35471 18.8498C9.21873 18.9883 9.23156 19.232 9.38037 19.3577C9.60872 19.5577 9.84221 19.7501 10.0834 19.9322V19.9348ZM9.42142 21.7224H12.9981C12.8877 20.8171 12.1411 20.0887 11.2097 20.0887C10.2784 20.0887 9.53175 20.8171 9.42142 21.7224ZM23.5099 22.1867H8.47466C8.58756 22.9536 9.25208 23.5306 10.0346 23.5306H21.95C22.7325 23.5306 23.397 22.9536 23.5099 22.1867ZM12.3951 9.03941C12.5439 8.97016 12.7287 9.08814 12.721 9.25486C12.6953 10.014 12.6979 10.3859 13.2085 10.9912L13.211 10.9938C14.0115 12.0249 13.3958 13.6869 12.1103 13.9305H12.1052H12.1001C11.9538 13.9331 11.8358 13.7869 11.8717 13.6458V13.6433C12.0795 12.9508 11.9538 12.466 11.4971 11.9146L11.4945 11.912C10.7582 10.9348 11.2457 9.43696 12.3926 9.03941H12.3951ZM12.2514 9.63188C11.6023 10.0448 11.4073 11.0118 11.8743 11.6376C12.2643 12.1069 12.5234 12.7071 12.4208 13.3201C12.5645 13.238 12.6902 13.1277 12.7928 12.9944C13.1751 12.507 13.2264 11.7709 12.839 11.2708C12.4105 10.7578 12.2258 10.2808 12.2489 9.63188H12.2514ZM16.0257 8.02118C16.1745 7.94936 16.3592 8.06991 16.3541 8.23662C16.3284 8.99581 16.331 9.36771 16.8416 9.973L16.8441 9.97557C17.6446 11.0066 17.0289 12.6686 15.7434 12.9123H15.7383H15.7332C15.5869 12.9174 15.4689 12.7712 15.5048 12.6276V12.625V12.6225C15.7126 11.93 15.5869 11.4452 15.1302 10.8938L15.1276 10.8912C14.3913 9.91401 14.8788 8.41872 16.0257 8.01861V8.02118ZM15.882 8.61365C15.2328 9.02659 15.0378 9.99352 15.5048 10.6193C15.8948 11.0887 16.1539 11.6889 16.0513 12.3019C16.195 12.2198 16.3207 12.1095 16.4233 11.9787C16.8082 11.4914 16.8595 10.7527 16.4695 10.2551C16.0411 9.73961 15.8563 9.26511 15.8794 8.61622L15.882 8.61365ZM19.6562 9.03941C19.805 8.97016 19.9897 9.08814 19.9846 9.25486C19.9589 10.014 19.9615 10.3859 20.4721 10.9912L20.4747 10.9938C21.2752 12.0249 20.662 13.6869 19.374 13.9305H19.3688H19.3637C19.2174 13.9331 19.0994 13.7895 19.1353 13.6458V13.6433C19.3432 12.9508 19.2174 12.466 18.7607 11.9146L18.7582 11.912C18.0244 10.9348 18.5093 9.43696 19.6562 9.03941ZM19.5125 9.63188C18.8634 10.0448 18.6658 11.0118 19.1353 11.6376C19.5253 12.1069 19.7845 12.7071 19.6818 13.3201C19.8281 13.2355 19.9538 13.1252 20.059 12.9918C20.4413 12.5045 20.4901 11.7709 20.1026 11.2708C19.6742 10.7578 19.4894 10.2808 19.5125 9.63188Z" fill="#338000"/>
</svg>
