<svg width="32" height="32" viewBox="0 0 32 32" fill="none" xmlns="http://www.w3.org/2000/svg">
<g clip-path="url(#clip0_1876_49588)">
<path d="M15.8923 29.601C23.4041 29.601 29.4936 23.5115 29.4936 15.9997C29.4936 8.48794 23.4041 2.39844 15.8923 2.39844C8.38052 2.39844 2.29102 8.48794 2.29102 15.9997C2.29102 23.5115 8.38052 29.601 15.8923 29.601Z" fill="#D8EEF5"/>
<path d="M26.4773 24.0237C31.0221 18.0427 29.9654 9.59174 24.1173 5.14793C18.2692 0.704122 9.84405 1.95024 5.29931 7.93122C0.754558 13.9122 1.81117 22.3632 7.65931 26.807C13.5075 31.2508 21.9326 30.0047 26.4773 24.0237Z" fill="#F1F7F8"/>
<path d="M16.2305 15.6628H27.1309C27.045 12.799 25.869 10.076 23.8431 8.05002C21.8172 6.02402 19.0943 4.84784 16.2305 4.76172V15.6628Z" fill="#F2D382"/>
<path d="M15.5554 18.8795V4.76172C13.8629 4.81324 12.2039 5.24618 10.702 6.02827C9.20015 6.81035 7.89422 7.92139 6.8816 9.27854C5.86898 10.6357 5.1758 12.2039 4.85376 13.8663C4.53172 15.5287 4.58912 17.2424 5.02168 18.8795H15.5554Z" fill="#8BC782"/>
<path d="M15.5561 19.5508H5.22266C5.95089 21.7359 7.33235 23.6448 9.18036 25.0195C11.0284 26.3943 13.2539 27.1686 15.5561 27.2378V19.5508Z" fill="#F8CAD6"/>
<path d="M16.2305 16.3369V27.238C19.0943 27.1519 21.8172 25.9757 23.8431 23.9497C25.869 21.9237 27.045 19.2007 27.1309 16.3369H16.2305Z" fill="#F6AB43"/>
<path d="M8.50124 12.3336C8.59836 12.223 8.67332 12.0948 8.72204 11.956C8.93443 12.1462 9.20984 12.251 9.49499 12.2499C9.78013 12.2488 10.0548 12.1421 10.2657 11.9502L10.276 11.9419C10.3753 11.849 10.4572 11.7392 10.5179 11.6174C10.5636 11.6417 10.6109 11.6631 10.6593 11.6814C10.8163 11.7443 10.9853 11.7718 11.1541 11.762C11.323 11.7521 11.4876 11.7053 11.6363 11.6247C11.785 11.5441 11.9141 11.4318 12.0145 11.2957C12.1149 11.1595 12.184 11.003 12.2171 10.8371C12.2502 10.6713 12.2463 10.5002 12.2058 10.3359C12.1653 10.1717 12.0891 10.0185 11.9827 9.88702C11.8763 9.75557 11.7422 9.64917 11.59 9.57536C11.4379 9.50156 11.2713 9.46217 11.1022 9.45998C11.0811 9.43374 11.0593 9.40686 11.0382 9.3819C10.9029 9.23753 10.7327 9.13043 10.5441 9.07092C10.3554 9.01142 10.1545 9.0015 9.96092 9.04215C9.76729 9.08279 9.58739 9.17261 9.43856 9.30297C9.28972 9.43332 9.17697 9.5998 9.11116 9.78639C8.95421 9.63697 8.75817 9.53501 8.54571 9.49232C8.33326 9.44962 8.11305 9.46792 7.91056 9.5451C7.70807 9.62228 7.53155 9.7552 7.40141 9.92848C7.27128 10.1018 7.19284 10.3083 7.17516 10.5243C7.01936 10.59 6.87992 10.6892 6.76676 10.8148C6.65359 10.9404 6.56947 11.0894 6.52036 11.2512C6.47125 11.413 6.45836 11.5837 6.48261 11.751C6.50685 11.9183 6.56763 12.0783 6.66064 12.2195C6.75365 12.3607 6.8766 12.4797 7.02077 12.568C7.16493 12.6564 7.32678 12.7119 7.49482 12.7307C7.66286 12.7495 7.83297 12.731 7.99308 12.6767C8.15319 12.6223 8.29937 12.5334 8.42124 12.4161C8.44748 12.3912 8.47564 12.363 8.50124 12.3336Z" fill="#00834E"/>
<path d="M10.66 11.6807L10.2895 12.2567L10.2664 11.9501C10.1499 12.0568 10.0127 12.1382 9.86321 12.1893C9.71376 12.2404 9.55536 12.2601 9.39795 12.2471L9.45299 12.5447L9.06067 12.1658C8.93662 12.1161 8.82224 12.0451 8.72275 11.9559C8.67403 12.0947 8.59907 12.2229 8.50195 12.3335L9.57907 13.3523L9.66547 13.817C9.68121 13.9026 9.72556 13.9803 9.79126 14.0374C9.85696 14.0945 9.94011 14.1276 10.0271 14.1312C10.1627 14.1343 10.2957 14.0932 10.406 14.0141C10.4629 13.9743 10.508 13.9197 10.5364 13.8563C10.5648 13.7928 10.5755 13.7228 10.5672 13.6538L10.4616 12.7578L11.0946 11.7581C10.9461 11.7605 10.7985 11.7342 10.66 11.6807Z" fill="white"/>
<path opacity="0.2" d="M8.79361 10.655C8.82458 10.6259 8.84624 10.5883 8.85585 10.5469C8.86546 10.5055 8.8626 10.4622 8.84762 10.4224C8.83265 10.3827 8.80623 10.3482 8.7717 10.3235C8.73717 10.2987 8.69608 10.2848 8.65361 10.2833C8.61115 10.2819 8.56921 10.2931 8.5331 10.3155C8.49698 10.3379 8.46831 10.3704 8.4507 10.4091C8.43308 10.4478 8.42732 10.4908 8.43413 10.5327C8.44094 10.5747 8.46003 10.6136 8.48897 10.6447C8.50822 10.6656 8.53141 10.6823 8.55718 10.6941C8.58296 10.7059 8.61082 10.7125 8.63915 10.7134C8.66749 10.7144 8.69572 10.7097 8.72224 10.6997C8.74875 10.6896 8.77301 10.6745 8.79361 10.655ZM7.23969 11.5158C7.20872 11.5449 7.18706 11.5825 7.17745 11.6239C7.16784 11.6653 7.1707 11.7086 7.18568 11.7483C7.20066 11.7881 7.22708 11.8225 7.26161 11.8473C7.29614 11.872 7.33723 11.886 7.37969 11.8874C7.42216 11.8889 7.46409 11.8777 7.50021 11.8553C7.53632 11.8329 7.56499 11.8003 7.58261 11.7617C7.60022 11.723 7.60599 11.68 7.59917 11.638C7.59236 11.5961 7.57328 11.5571 7.54433 11.526C7.50527 11.4843 7.45125 11.4598 7.39413 11.4579C7.33701 11.456 7.28146 11.4768 7.23969 11.5158Z" fill="white"/>
<path d="M20.371 17.1953C20.0646 17.2015 19.7603 17.2469 19.4654 17.3304C19.2765 17.3849 19.1011 17.4785 18.9507 17.6052C18.8003 17.7318 18.6782 17.8886 18.5923 18.0655C18.5064 18.2423 18.4585 18.4353 18.452 18.6318C18.4454 18.8283 18.4801 19.024 18.554 19.2062C18.8049 19.8161 19.258 20.4939 20.0849 20.8958C21.3009 21.4891 23.0078 21.3259 23.9563 21.1659C23.9976 21.5365 24.106 21.8965 24.2763 22.2283C24.3066 22.2868 24.3559 22.3332 24.4161 22.36C24.4763 22.3867 24.5438 22.3922 24.6075 22.3754C24.6712 22.3586 24.7274 22.3207 24.7666 22.2677C24.8059 22.2148 24.8259 22.1501 24.8235 22.0843L24.7799 21.0705L25.5659 20.5585C25.8372 20.3819 25.6574 19.9652 25.3406 20.035C24.9989 20.1187 24.67 20.2479 24.3627 20.419C23.9147 19.58 22.9796 18.1003 21.7425 17.4974C21.3157 17.29 20.8454 17.1879 20.371 17.1998" fill="#EA5442"/>
<path d="M19.3822 19.9115C19.3822 19.9115 19.9422 21.2785 22.7742 21.0116C22.7735 21.0116 20.6187 21.1729 19.3822 19.9115ZM19.4545 18.1502C19.4682 18.1221 19.4732 18.0905 19.469 18.0596C19.4648 18.0286 19.4514 17.9995 19.4307 17.9761C19.41 17.9527 19.3827 17.936 19.3525 17.9281C19.3222 17.9201 19.2903 17.9213 19.2608 17.9316C19.2312 17.9418 19.2053 17.9605 19.1864 17.9854C19.1675 18.0103 19.1564 18.0403 19.1546 18.0715C19.1527 18.1027 19.1601 18.1338 19.1759 18.1608C19.1917 18.1878 19.2152 18.2095 19.2433 18.2232C19.281 18.2415 19.3244 18.2441 19.364 18.2304C19.4036 18.2167 19.4361 18.1879 19.4545 18.1502ZM19.9249 19.3131C19.9249 19.3131 21.0903 18.5816 20.3697 17.1953C20.5037 17.5542 20.533 17.9438 20.4542 18.3187C20.3755 18.6936 20.1919 19.0384 19.9249 19.3131Z" fill="white"/>
<path d="M20.5647 8.21758L17.5791 8.79358C17.4605 8.81652 17.3476 8.86259 17.2468 8.92916C17.146 8.99574 17.0593 9.08152 16.9917 9.1816C16.924 9.28168 16.8768 9.39411 16.8526 9.51246C16.8284 9.6308 16.8278 9.75275 16.8508 9.87134L17.0229 10.7513C17.0321 10.8009 17.0511 10.8482 17.0786 10.8905C17.1061 10.9328 17.1417 10.9692 17.1833 10.9978C17.2249 11.0263 17.2717 11.0463 17.321 11.0568C17.3704 11.0672 17.4213 11.0678 17.4709 11.0585L17.8728 13.1398C17.9047 13.305 18.001 13.4507 18.1403 13.5449C18.2796 13.6391 18.4507 13.6741 18.6159 13.6422L21.4063 13.1027C21.5713 13.0706 21.7169 12.9744 21.811 12.835C21.905 12.6957 21.94 12.5247 21.908 12.3597L21.5055 10.2784C21.5553 10.269 21.6027 10.2498 21.6451 10.2219C21.6874 10.194 21.7239 10.1581 21.7522 10.1161C21.7806 10.0741 21.8004 10.0268 21.8104 9.97715C21.8205 9.92746 21.8206 9.87628 21.8108 9.82654L21.6405 8.9459C21.5942 8.70679 21.4549 8.49582 21.2532 8.35928C21.0515 8.22274 20.8039 8.17178 20.5647 8.21758ZM21.6149 9.75358C21.6238 9.7996 21.6236 9.84693 21.6142 9.89285C21.6048 9.93878 21.5864 9.9824 21.5602 10.0212C21.5339 10.06 21.5002 10.0933 21.4611 10.1191C21.4219 10.1449 21.3781 10.1627 21.332 10.1715L21.7397 12.2777C21.7544 12.3535 21.754 12.4314 21.7386 12.5069C21.7231 12.5825 21.6929 12.6543 21.6497 12.7182C21.6065 12.7821 21.5511 12.8369 21.4867 12.8793C21.4223 12.9218 21.3502 12.9512 21.2744 12.9657L18.6908 13.4656C18.615 13.4803 18.5371 13.4799 18.4616 13.4644C18.386 13.449 18.3142 13.4188 18.2503 13.3756C18.1864 13.3324 18.1316 13.277 18.0892 13.2126C18.0467 13.1482 18.0173 13.0761 18.0028 13.0003L17.5951 10.8941C17.5491 10.903 17.5018 10.9028 17.4559 10.8934C17.41 10.8841 17.3664 10.8657 17.3276 10.8395C17.2888 10.8133 17.2556 10.7797 17.2297 10.7407C17.2039 10.7016 17.186 10.6578 17.1772 10.6118L17.0453 9.92958C17.024 9.81977 17.0246 9.70684 17.047 9.59725C17.0694 9.48766 17.1132 9.38356 17.1758 9.2909C17.2384 9.19823 17.3187 9.11883 17.4121 9.05721C17.5055 8.9956 17.61 8.95299 17.7199 8.93183L20.4853 8.39678C20.707 8.35416 20.9366 8.40125 21.1237 8.52771C21.3108 8.65418 21.44 8.84969 21.4831 9.07134L21.6149 9.75358Z" fill="#7F4F21"/>
<path d="M17.748 10.287C17.8116 10.287 17.8632 10.2355 17.8632 10.1718C17.8632 10.1082 17.8116 10.0566 17.748 10.0566C17.6844 10.0566 17.6328 10.1082 17.6328 10.1718C17.6328 10.2355 17.6844 10.287 17.748 10.287Z" fill="#7F4F21"/>
<path d="M19.3359 9.9804C19.3995 9.9804 19.4511 9.92882 19.4511 9.8652C19.4511 9.80158 19.3995 9.75 19.3359 9.75C19.2723 9.75 19.2207 9.80158 19.2207 9.8652C19.2207 9.92882 19.2723 9.9804 19.3359 9.9804Z" fill="#7F4F21"/>
<path d="M20.0468 9.40227C20.1105 9.40227 20.162 9.3507 20.162 9.28707C20.162 9.22345 20.1105 9.17188 20.0468 9.17188C19.9832 9.17188 19.9316 9.22345 19.9316 9.28707C19.9316 9.3507 19.9832 9.40227 20.0468 9.40227Z" fill="#7F4F21"/>
<path d="M20.9218 9.67376C20.9855 9.67376 21.037 9.62218 21.037 9.55856C21.037 9.49494 20.9855 9.44336 20.9218 9.44336C20.8582 9.44336 20.8066 9.49494 20.8066 9.55856C20.8066 9.62218 20.8582 9.67376 20.9218 9.67376Z" fill="#7F4F21"/>
<path d="M18.4589 9.70306C18.5226 9.70306 18.5742 9.65148 18.5742 9.58786C18.5742 9.52423 18.5226 9.47266 18.4589 9.47266C18.3953 9.47266 18.3438 9.52423 18.3438 9.58786C18.3438 9.65148 18.3953 9.70306 18.4589 9.70306Z" fill="#7F4F21"/>
<path d="M20.4848 8.39619L17.7194 8.93123C17.6096 8.9524 17.505 8.99501 17.4116 9.05662C17.3183 9.11823 17.238 9.19764 17.1753 9.2903C17.1127 9.38297 17.0689 9.48707 17.0465 9.59666C17.0241 9.70625 17.0236 9.81918 17.0448 9.92899L17.1767 10.6112C17.1856 10.6572 17.2034 10.701 17.2293 10.7401C17.2551 10.7791 17.2884 10.8127 17.3272 10.8389C17.366 10.8652 17.4096 10.8835 17.4555 10.8928C17.5013 10.9022 17.5486 10.9024 17.5946 10.8935L18.0023 12.9997C18.0169 13.0755 18.0462 13.1476 18.0887 13.212C18.1312 13.2764 18.1859 13.3318 18.2498 13.375C18.3137 13.4182 18.3855 13.4484 18.4611 13.4638C18.5367 13.4793 18.6146 13.4797 18.6903 13.465L21.274 12.9652C21.3497 12.9506 21.4219 12.9212 21.4862 12.8787C21.5506 12.8363 21.606 12.7815 21.6492 12.7176C21.6924 12.6537 21.7226 12.5819 21.7381 12.5063C21.7535 12.4308 21.7539 12.3529 21.7392 12.2772L21.3316 10.1709C21.3776 10.1621 21.4214 10.1443 21.4606 10.1185C21.4997 10.0927 21.5334 10.0594 21.5597 10.0206C21.586 9.9818 21.6043 9.93818 21.6137 9.89226C21.6231 9.84634 21.6234 9.79901 21.6144 9.75299L21.4826 9.07075C21.4395 8.8491 21.3103 8.65358 21.1232 8.52712C20.9362 8.40065 20.7066 8.35356 20.4848 8.39619ZM17.7693 10.2842C17.747 10.2885 17.7238 10.286 17.7029 10.2771C17.6819 10.2683 17.664 10.2534 17.6515 10.2343C17.639 10.2153 17.6324 10.193 17.6325 10.1702C17.6327 10.1475 17.6396 10.1253 17.6524 10.1064C17.6652 10.0876 17.6832 10.0729 17.7043 10.0643C17.7254 10.0557 17.7486 10.0536 17.7709 10.0582C17.7932 10.0628 17.8136 10.0738 17.8297 10.09C17.8457 10.1062 17.8565 10.1268 17.8608 10.1492C17.8637 10.164 17.8636 10.1793 17.8606 10.1942C17.8575 10.209 17.8516 10.2231 17.8431 10.2357C17.8346 10.2482 17.8237 10.2589 17.811 10.2673C17.7984 10.2756 17.7842 10.2814 17.7693 10.2842ZM18.4797 9.70115C18.4574 9.70554 18.4342 9.7032 18.4132 9.69442C18.3921 9.68565 18.3742 9.67082 18.3616 9.65184C18.3489 9.63285 18.3423 9.61055 18.3423 9.58775C18.3424 9.56496 18.3492 9.5427 18.362 9.52379C18.3747 9.50488 18.3927 9.49017 18.4138 9.48152C18.4349 9.47288 18.4581 9.47068 18.4804 9.47521C18.5028 9.47974 18.5233 9.4908 18.5393 9.50698C18.5554 9.52316 18.5663 9.54374 18.5706 9.56611C18.5764 9.59607 18.5701 9.62711 18.5531 9.65243C18.5361 9.67775 18.5097 9.69527 18.4797 9.70115ZM19.3559 9.97763C19.3335 9.9819 19.3104 9.97944 19.2894 9.97057C19.2684 9.96169 19.2506 9.9468 19.2381 9.92778C19.2255 9.90875 19.2189 9.88645 19.2191 9.86368C19.2193 9.8409 19.2262 9.81869 19.2389 9.79984C19.2517 9.78099 19.2698 9.76635 19.2909 9.75777C19.312 9.74918 19.3351 9.74704 19.3574 9.75162C19.3798 9.75619 19.4002 9.76728 19.4162 9.78347C19.4322 9.79966 19.4431 9.82023 19.4474 9.84259C19.4503 9.85747 19.4502 9.87277 19.4472 9.88761C19.4441 9.90246 19.4382 9.91656 19.4297 9.9291C19.4212 9.94165 19.4103 9.95239 19.3976 9.96072C19.3849 9.96904 19.3708 9.97479 19.3559 9.97763ZM20.0676 9.40163C20.0452 9.40602 20.022 9.40368 20.001 9.3949C19.98 9.38613 19.962 9.3713 19.9494 9.35232C19.9368 9.33333 19.9301 9.31103 19.9302 9.28823C19.9302 9.26544 19.9371 9.24318 19.9498 9.22427C19.9625 9.20536 19.9806 9.19065 20.0017 9.182C20.0227 9.17336 20.0459 9.17116 20.0683 9.17569C20.0906 9.18022 20.1111 9.19127 20.1271 9.20746C20.1432 9.22364 20.1541 9.24422 20.1584 9.26659C20.1639 9.29635 20.1574 9.32707 20.1404 9.3521C20.1234 9.37713 20.0972 9.39446 20.0676 9.40035V9.40163ZM20.9424 9.67235C20.9201 9.67662 20.8969 9.67416 20.876 9.66529C20.855 9.65641 20.8371 9.64152 20.8246 9.6225C20.8121 9.60347 20.8055 9.58117 20.8057 9.5584C20.8058 9.53562 20.8127 9.51341 20.8255 9.49456C20.8383 9.47571 20.8563 9.46107 20.8774 9.45249C20.8985 9.4439 20.9217 9.44176 20.944 9.44634C20.9663 9.45091 20.9868 9.462 21.0028 9.47819C21.0188 9.49438 21.0296 9.51495 21.034 9.53731C21.0394 9.56717 21.0328 9.59796 21.0157 9.62301C20.9986 9.64805 20.9722 9.66532 20.9424 9.67107V9.67235Z" fill="white"/>
<path d="M24.9361 11.8164C24.9403 11.781 24.9366 11.745 24.9255 11.7111C24.9143 11.6772 24.8959 11.6461 24.8716 11.62C24.8473 11.5939 24.8175 11.5734 24.7845 11.5599C24.7514 11.5464 24.7158 11.5402 24.6801 11.5419C24.7678 10.3681 24.6398 9.53612 24.0504 9.355C23.4609 9.17388 22.8945 9.7806 22.2968 10.8404C22.2706 10.8098 22.2373 10.7861 22.1998 10.7714C22.1623 10.7566 22.1218 10.7513 22.0818 10.7559C22.0418 10.7606 22.0035 10.7749 21.9703 10.7978C21.9372 10.8207 21.9102 10.8514 21.8917 10.8872C20.0837 14.3963 22.0241 15.0235 22.2757 15.0881C22.5157 15.1739 24.476 15.7371 24.9361 11.8164ZM23.1678 10.8481C23.4287 10.9651 23.7023 11.051 23.9832 11.1041C23.9452 11.3704 23.9013 11.6355 23.8513 11.8996C23.485 11.8364 23.1291 11.7233 22.7934 11.5636C22.8984 11.3166 23.0095 11.0725 23.1269 10.8315L23.1678 10.8481ZM23.1889 10.7777L23.1589 10.7636C23.2655 10.5465 23.3771 10.3319 23.4936 10.1198C23.681 10.2028 23.8767 10.2658 24.0773 10.308C24.0638 10.4424 24.0497 10.5768 24.0337 10.7105C24.0216 10.8168 24.0075 10.923 23.9928 11.0305C23.7159 10.978 23.4461 10.8931 23.1889 10.7777ZM22.4849 14.3944C22.5462 14.1269 22.5936 13.8565 22.627 13.5841C22.691 13.6065 22.755 13.627 22.819 13.6481C22.6951 13.8911 22.5836 14.1401 22.4849 14.3944ZM22.8517 13.5822C22.7787 13.5604 22.707 13.5368 22.6347 13.5112C22.6712 13.1868 22.6817 12.86 22.6661 12.5339C22.8931 12.6263 23.1264 12.7024 23.3643 12.7617C23.1722 13.0214 23.0008 13.2957 22.8517 13.5822ZM23.868 12.18C23.8821 12.116 23.8961 12.0468 23.9096 11.9803C23.9595 11.9873 24.0094 11.9918 24.06 11.9969C23.9998 12.0532 23.9358 12.114 23.868 12.18ZM23.772 12.2785C23.6448 12.4119 23.525 12.552 23.4129 12.6984C23.1565 12.6373 22.9052 12.5559 22.6616 12.4552C22.6507 12.2952 22.6341 12.1467 22.6129 12.0072C22.6289 11.9668 22.643 11.9252 22.659 11.8849C22.6936 11.7985 22.7294 11.7128 22.7653 11.6289C23.0808 11.779 23.4138 11.8893 23.7566 11.9572C23.7835 11.9624 23.8104 11.9656 23.8373 11.97C23.8168 12.0718 23.7944 12.1748 23.772 12.2785ZM22.5918 11.8657C22.5675 11.7335 22.5408 11.6106 22.5118 11.4971C22.5374 11.5112 22.563 11.5259 22.5886 11.5393L22.7013 11.5956C22.6616 11.6852 22.6257 11.7761 22.5918 11.8657ZM24.4894 11.6372C24.3845 11.7217 24.2648 11.8177 24.1355 11.9316C24.0651 11.9252 23.9947 11.9188 23.9249 11.908C23.9753 11.6447 24.0194 11.3804 24.0574 11.115C24.2126 11.1402 24.3694 11.1539 24.5265 11.156C24.5169 11.3083 24.5041 11.4696 24.4875 11.6372H24.4894ZM24.5297 11.0824C24.3749 11.0801 24.2205 11.0667 24.0677 11.042C24.1009 10.8023 24.1287 10.5618 24.1509 10.3208C24.2675 10.3423 24.3856 10.3556 24.5041 10.3604C24.5323 10.6 24.5402 10.8415 24.5278 11.0824H24.5297ZM24.4926 10.2868C24.3804 10.2806 24.2686 10.2675 24.1579 10.2478C24.1694 10.1198 24.1803 9.98732 24.1886 9.85676C24.1931 9.78764 24.1976 9.71852 24.2014 9.6494C24.3499 9.7806 24.4427 9.99884 24.4907 10.2868H24.4926ZM23.9953 9.53612C24.0428 9.55123 24.0881 9.57276 24.1297 9.60012C24.1208 9.8126 24.1048 10.0251 24.0843 10.2369C23.8937 10.1959 23.7076 10.1361 23.5288 10.0584C23.5889 9.94828 23.651 9.83884 23.7137 9.73004C23.756 9.65772 23.7989 9.5854 23.8417 9.51372C23.8937 9.5143 23.9454 9.52183 23.9953 9.53612ZM23.7528 9.51564C23.6512 9.68332 23.5537 9.85399 23.4603 10.0276C23.3602 9.98232 23.2625 9.93169 23.1678 9.87596C23.3643 9.66412 23.5576 9.5406 23.7528 9.515V9.51564ZM23.1173 9.92972C23.2171 9.98881 23.3201 10.0424 23.4257 10.0904C23.3617 10.2139 23.2933 10.338 23.2293 10.4628C23.1832 10.5531 23.1384 10.6433 23.0936 10.7348C22.9559 10.6709 22.8227 10.5977 22.6949 10.516C22.8189 10.3088 22.9602 10.1125 23.1173 9.92908V9.92972ZM22.6558 10.578C22.785 10.6611 22.92 10.7349 23.0597 10.7988C22.9428 11.0395 22.8314 11.2831 22.7256 11.5297C22.643 11.4888 22.5624 11.4446 22.483 11.4017C22.4497 11.2782 22.4158 11.1656 22.3845 11.0638C22.4773 10.8878 22.5675 10.7259 22.6558 10.578Z" fill="#7F4F21"/>
<path d="M23.771 12.2781C23.7934 12.1744 23.8158 12.0713 23.835 11.9677C23.8081 11.9632 23.7812 11.96 23.7544 11.9549C23.4116 11.887 23.0786 11.7767 22.763 11.6265C22.7272 11.7129 22.6913 11.7987 22.6568 11.8825C22.6408 11.9229 22.6267 11.9645 22.6107 12.0048C22.6318 12.1437 22.6484 12.2921 22.6593 12.4528C22.903 12.5536 23.1542 12.6349 23.4107 12.696C23.5232 12.5503 23.6435 12.4108 23.771 12.2781ZM23.9086 11.9798C23.8952 12.0438 23.8811 12.1129 23.867 12.1795C23.931 12.1155 23.995 12.0515 24.059 11.9965C24.0084 11.9913 23.9585 11.9869 23.9086 11.9798ZM23.1668 10.8477L23.1259 10.8291C23.0086 11.0702 22.8974 11.3142 22.7924 11.5613C23.1281 11.721 23.4841 11.834 23.8504 11.8973C23.9011 11.6332 23.9451 11.368 23.9822 11.1017C23.7014 11.0492 23.4278 10.964 23.1668 10.8477ZM23.3633 12.7613C23.1255 12.702 22.8921 12.6258 22.6651 12.5334C22.6807 12.8595 22.6702 13.1863 22.6337 13.5107C22.706 13.5363 22.7777 13.56 22.8507 13.5817C22.9998 13.2952 23.1712 13.0209 23.3633 12.7613ZM24.5236 11.1555C24.3665 11.1534 24.2097 11.1397 24.0545 11.1145C24.0166 11.3799 23.9724 11.6443 23.922 11.9075C23.9918 11.9184 24.0622 11.9248 24.1326 11.9312C24.2606 11.8173 24.3816 11.7213 24.4865 11.6368C24.5032 11.4691 24.516 11.3078 24.5236 11.1555ZM23.06 10.7984C22.9203 10.7344 22.7853 10.6606 22.6561 10.5776C22.5665 10.7254 22.4763 10.8873 22.3848 11.0608C22.4161 11.1625 22.4488 11.2752 22.4833 11.3987C22.5627 11.4441 22.6433 11.4883 22.7259 11.5267C22.8317 11.2822 22.9431 11.0395 23.06 10.7984ZM22.5857 11.5389C22.5601 11.5254 22.5345 11.5107 22.5089 11.4966C22.5375 11.6101 22.5642 11.733 22.5889 11.8653C22.6248 11.775 22.6606 11.6848 22.6984 11.5952L22.5857 11.5389ZM24.0628 11.0416C24.2157 11.0662 24.3701 11.0797 24.5249 11.0819C24.5367 10.841 24.5282 10.5995 24.4993 10.36C24.3808 10.3551 24.2627 10.3418 24.146 10.3203C24.1251 10.5618 24.0974 10.8022 24.0628 11.0416ZM23.2308 10.4617C23.2948 10.3369 23.3588 10.2128 23.4273 10.0893C23.3217 10.0413 23.2187 9.98772 23.1188 9.92863C22.9618 10.1118 22.8205 10.3079 22.6964 10.5149C22.8243 10.5967 22.9575 10.6698 23.0952 10.7337C23.1376 10.6417 23.1828 10.551 23.2308 10.4617ZM23.5278 10.0553C23.7066 10.1331 23.8927 10.1929 24.0833 10.2339C24.1038 10.0221 24.1198 9.80959 24.1288 9.59711C24.0871 9.56975 24.0419 9.54822 23.9944 9.53311C23.9445 9.51817 23.8928 9.50999 23.8408 9.50879C23.7979 9.58047 23.755 9.65279 23.7128 9.72511C23.65 9.83583 23.588 9.94527 23.5278 10.0553ZM24.155 10.2473C24.2657 10.2671 24.3775 10.2801 24.4897 10.2864C24.4417 9.99839 24.3489 9.78015 24.1985 9.64639C24.1947 9.71551 24.1902 9.78463 24.1857 9.85375C24.1774 9.98687 24.1665 10.1168 24.155 10.2473ZM23.9918 11.0288C24.0065 10.9225 24.0206 10.8163 24.0328 10.7088C24.0488 10.575 24.0628 10.4406 24.0763 10.3062C23.8757 10.2641 23.68 10.201 23.4926 10.1181C23.3761 10.3314 23.2646 10.546 23.1579 10.7619L23.188 10.776C23.4451 10.8914 23.7149 10.9762 23.9918 11.0288ZM23.7518 9.51455C23.5566 9.54015 23.3633 9.66559 23.1668 9.87359C23.2616 9.92932 23.3592 9.97995 23.4593 10.0253C23.5528 9.85247 23.6503 9.68223 23.7518 9.51455ZM22.8168 13.6464C22.7528 13.6265 22.6888 13.6061 22.6248 13.5824C22.5914 13.8547 22.544 14.1252 22.4827 14.3926C22.5814 14.1384 22.6929 13.8893 22.8168 13.6464Z" fill="white"/>
<path d="M14.8937 23.7749C14.8143 23.6945 14.7517 23.5991 14.7093 23.4943C14.6669 23.3895 14.6456 23.2774 14.6467 23.1644V23.0876C14.6467 22.1813 14.175 21.4473 13.5932 21.4473C13.5647 21.4473 13.5363 21.4492 13.5081 21.453C12.9667 21.5202 12.5404 22.2261 12.5404 23.0876V23.1573C12.5413 23.271 12.5196 23.3837 12.4765 23.4888C12.4335 23.594 12.3699 23.6895 12.2895 23.7698C12.2126 23.8502 12.1526 23.9452 12.113 24.0492C12.0734 24.1532 12.0551 24.2641 12.0591 24.3753C12.0677 24.5446 12.1273 24.7073 12.2301 24.8421C12.3329 24.9769 12.4741 25.0774 12.6351 25.1305C12.7689 25.1738 12.9111 25.1845 13.0499 25.1618L13.3916 25.1132C13.5209 25.0953 13.6521 25.0953 13.7814 25.1132L14.1238 25.1618C14.2621 25.1845 14.4038 25.1739 14.5372 25.1311C14.6975 25.0782 14.8381 24.9783 14.9408 24.8444C15.0435 24.7106 15.1036 24.5489 15.1132 24.3804C15.1187 24.2699 15.1021 24.1595 15.0644 24.0556C15.0267 23.9516 14.9687 23.8562 14.8937 23.7749Z" fill="#C8203D"/>
<path opacity="0.3" d="M14.6703 23.711C14.617 23.6107 14.5794 23.5027 14.559 23.391C14.5398 23.0556 14.5212 22.1865 14.0156 21.7686C14.0156 21.7686 14.4636 22.3958 14.3695 23.4095C14.3612 23.5017 14.8079 24.2217 14.7011 24.694C14.7011 24.6921 14.991 24.3068 14.6703 23.711Z" fill="white"/>
<path d="M10.2421 24.5433C10.2314 24.6376 10.2445 24.7332 10.2803 24.8212C10.3161 24.9092 10.3735 24.9867 10.4471 25.0468C10.5207 25.1068 10.6082 25.1474 10.7015 25.1649C10.7949 25.1823 10.8912 25.176 10.9815 25.1465C11.0718 25.117 11.1532 25.0653 11.2183 24.9962C11.2835 24.927 11.3302 24.8426 11.3542 24.7507C11.3782 24.6588 11.3787 24.5624 11.3557 24.4702C11.3327 24.3781 11.287 24.2931 11.2226 24.2233C11.3652 24.1762 11.4832 24.0744 11.5507 23.9404C11.6183 23.8064 11.6299 23.651 11.5829 23.5084C11.5613 23.4425 11.5274 23.3813 11.4831 23.3279C11.6236 23.2799 11.7396 23.1786 11.8062 23.0458C11.8728 22.9131 11.8845 22.7595 11.8389 22.6182C11.8175 22.5554 11.7854 22.4967 11.7442 22.4447C11.8692 22.3878 11.9691 22.2872 12.0251 22.1619C12.0812 22.0365 12.0896 21.895 12.0487 21.7639C12.0079 21.6328 11.9206 21.5211 11.8033 21.4498C11.6859 21.3785 11.5466 21.3524 11.4114 21.3766C11.4094 21.3279 11.401 21.2797 11.3865 21.2332C11.3464 21.1102 11.2655 21.0045 11.157 20.9339C11.0486 20.8633 10.9193 20.8319 10.7906 20.845C10.6619 20.8581 10.5415 20.9149 10.4495 21.0059C10.3575 21.0969 10.2995 21.2166 10.285 21.3452C10.1863 21.2384 10.0506 21.1734 9.9055 21.1634L9.76406 20.7308L10.0533 20.6361C10.1043 20.6195 10.1465 20.5834 10.1708 20.5357C10.1951 20.488 10.1995 20.4326 10.1829 20.3817C10.1664 20.3308 10.1303 20.2885 10.0826 20.2642C10.0349 20.2399 9.97946 20.2355 9.92854 20.2521L8.94934 20.5721C8.92413 20.5805 8.90082 20.5938 8.88074 20.6112C8.86066 20.6286 8.84421 20.6498 8.83232 20.6736C8.82044 20.6973 8.81335 20.7232 8.81147 20.7497C8.80958 20.7762 8.81294 20.8029 8.82134 20.8281C8.82975 20.8533 8.84304 20.8766 8.86045 20.8967C8.87786 20.9168 8.89906 20.9332 8.92283 20.9451C8.94661 20.957 8.97249 20.9641 8.999 20.966C9.02551 20.9678 9.05213 20.9645 9.07734 20.9561L9.36662 20.8614L9.50742 21.294C9.39619 21.3878 9.32499 21.5206 9.30838 21.6652C9.22088 21.57 9.10344 21.5076 8.97558 21.4884C8.84772 21.4692 8.71714 21.4943 8.60553 21.5596C8.49392 21.6249 8.40799 21.7263 8.36203 21.8472C8.31607 21.968 8.31283 22.101 8.35286 22.2239C8.36782 22.2678 8.38802 22.3097 8.41302 22.3487L8.3951 22.3532C8.32429 22.3763 8.25873 22.4131 8.20216 22.4616C8.14558 22.51 8.09911 22.5692 8.06538 22.6356C8.03165 22.702 8.01134 22.7744 8.0056 22.8487C7.99985 22.9229 8.00879 22.9976 8.0319 23.0684C8.05502 23.1392 8.09185 23.2048 8.1403 23.2613C8.18875 23.3179 8.24787 23.3644 8.31428 23.3981C8.38069 23.4318 8.4531 23.4522 8.52736 23.4579C8.60163 23.4636 8.67629 23.4547 8.7471 23.4316C8.75862 23.4278 8.76822 23.4214 8.77974 23.4169C8.77697 23.4819 8.78563 23.5469 8.80534 23.6089C8.85135 23.7499 8.95088 23.8673 9.08253 23.9358C9.21418 24.0043 9.36743 24.0183 9.50934 23.975C9.50496 24.0442 9.51365 24.1137 9.53494 24.1798C9.58159 24.321 9.68186 24.4382 9.81415 24.5062C9.94643 24.5742 10.1001 24.5875 10.2421 24.5433Z" fill="#C8203D"/>
<path opacity="0.3" d="M10.9345 20.9916C10.8997 21.003 10.8691 21.0243 10.8464 21.0531C10.8238 21.0818 10.8102 21.1167 10.8073 21.1531C10.8045 21.1896 10.8125 21.2261 10.8304 21.258C10.8483 21.29 10.8753 21.3159 10.9079 21.3324C10.9405 21.349 10.9773 21.3555 11.0137 21.3512C11.05 21.3469 11.0842 21.3318 11.112 21.308C11.1398 21.2842 11.1599 21.2527 11.1698 21.2174C11.1797 21.1822 11.1789 21.1448 11.1675 21.11C11.16 21.0869 11.1481 21.0655 11.1323 21.0471C11.1165 21.0286 11.0973 21.0134 11.0756 21.0024C11.054 20.9914 11.0304 20.9848 11.0062 20.983C10.9819 20.9811 10.9576 20.9841 10.9345 20.9916ZM11.5592 21.5094C11.5244 21.5207 11.4937 21.5421 11.4711 21.5708C11.4484 21.5996 11.4348 21.6344 11.4319 21.6709C11.4291 21.7074 11.4371 21.7439 11.455 21.7758C11.4729 21.8077 11.4999 21.8336 11.5325 21.8502C11.5652 21.8668 11.602 21.8733 11.6383 21.869C11.6747 21.8646 11.7089 21.8496 11.7367 21.8258C11.7645 21.802 11.7846 21.7704 11.7944 21.7352C11.8043 21.7 11.8035 21.6626 11.7921 21.6278C11.7768 21.5813 11.7437 21.5428 11.7 21.5207C11.6564 21.4985 11.6058 21.4944 11.5592 21.5094ZM10.5038 21.8537H10.4974C10.4636 21.8664 10.4343 21.8888 10.4131 21.918C10.3919 21.9472 10.3797 21.9821 10.3781 22.0181C10.3765 22.0542 10.3856 22.09 10.4041 22.121C10.4227 22.152 10.4499 22.1768 10.4825 22.1924C10.515 22.2081 10.5515 22.2138 10.5873 22.2089C10.623 22.204 10.6566 22.1887 10.6838 22.1649C10.7109 22.1411 10.7305 22.1098 10.74 22.075C10.7496 22.0401 10.7487 22.0032 10.7374 21.9689L10.7329 21.9593C10.7152 21.916 10.6817 21.881 10.6392 21.8614C10.5967 21.8418 10.5483 21.8391 10.5038 21.8537ZM9.95214 21.3116C9.91704 21.3227 9.88607 21.3441 9.86325 21.3729C9.84042 21.4018 9.8268 21.4369 9.82414 21.4736C9.82215 21.4976 9.82498 21.5217 9.83246 21.5446C9.84377 21.5794 9.86515 21.6101 9.8939 21.6327C9.92265 21.6554 9.95747 21.669 9.99395 21.6718C10.0304 21.6747 10.0669 21.6667 10.0989 21.6487C10.1308 21.6308 10.1567 21.6039 10.1733 21.5712C10.1898 21.5386 10.1964 21.5018 10.192 21.4655C10.1877 21.4291 10.1726 21.3949 10.1488 21.3671C10.125 21.3393 10.0935 21.3192 10.0583 21.3093C10.023 21.2995 9.98564 21.3003 9.95086 21.3116H9.95214ZM8.8987 21.6553C8.86397 21.6667 8.83339 21.6882 8.81084 21.717C8.7883 21.7458 8.77478 21.7806 8.77202 21.817C8.76925 21.8535 8.77735 21.89 8.79529 21.9218C8.81323 21.9537 8.84021 21.9795 8.87283 21.996C8.90544 22.0125 8.94222 22.019 8.97852 22.0147C9.01482 22.0103 9.04901 21.9953 9.07678 21.9715C9.10455 21.9477 9.12464 21.9162 9.13452 21.881C9.1444 21.8458 9.14363 21.8085 9.1323 21.7737C9.11693 21.7271 9.08372 21.6885 9.03994 21.6663C8.99617 21.6441 8.94538 21.6402 8.8987 21.6553Z" fill="white"/>
<path d="M13.1765 15.4357C11.8721 17.2533 10.0129 18.5474 9.15086 17.6149C8.68366 17.11 8.89486 16.582 9.11438 16.26C9.52462 15.661 10.5486 15.3404 11.396 14.1589C12.6997 12.3413 13.3435 10.5711 14.3573 11.2981C15.371 12.0252 14.4801 13.6181 13.1765 15.4357Z" fill="#00834E"/>
<path d="M14.8341 11.6117C14.8246 11.4445 14.7567 11.2859 14.6421 11.1637L14.6485 11.1593C14.7694 11.0178 14.8654 10.7529 14.8987 10.6441C14.9083 10.6151 14.9063 10.5835 14.8932 10.556C14.8801 10.5285 14.8568 10.507 14.8283 10.4962C14.8141 10.4914 14.799 10.4895 14.784 10.4905C14.769 10.4915 14.7544 10.4955 14.7409 10.5023C14.7275 10.509 14.7155 10.5183 14.7057 10.5297C14.6959 10.5411 14.6884 10.5543 14.6837 10.5685C14.6197 10.7346 14.5388 10.8938 14.4424 11.0434C14.2235 10.9705 13.892 10.9986 13.3954 11.2265C13.3372 11.2463 13.2775 11.2611 13.2168 11.2706L13.3582 11.3762C13.6078 11.4997 13.9694 11.4165 13.9694 11.4165C13.8536 11.5714 13.901 11.9215 13.901 11.9215C14.1877 11.9215 14.5154 11.6757 14.5154 11.6757C14.4859 12.1877 14.925 12.1877 14.925 12.1877C14.8392 11.926 14.8514 11.7897 14.8341 11.6117Z" fill="white"/>
<path opacity="0.2" d="M10.6598 15.2912C10.8057 15.1632 10.928 15.0058 11.0662 14.8669C11.7024 14.2269 12.2886 13.4813 12.5721 12.8356C12.5721 12.8356 12.6361 12.5872 12.7449 12.6167C12.8326 12.641 12.8473 12.7575 12.8326 12.8471C12.8121 12.9712 12.6336 13.3591 12.3846 13.6759C12.3846 13.6759 11.3465 15.2829 10.7424 15.5639C10.7285 15.5709 10.7132 15.5749 10.6977 15.5757C10.6822 15.5765 10.6666 15.574 10.6521 15.5684C10.6329 15.5595 10.6159 15.5464 10.6025 15.53C10.5891 15.5136 10.5796 15.4943 10.5748 15.4737C10.57 15.4531 10.5699 15.4316 10.5747 15.411C10.5794 15.3903 10.5888 15.3711 10.6022 15.3546C10.6196 15.3319 10.6388 15.3107 10.6598 15.2912ZM9.61275 16.1047C9.72475 15.9914 10.0934 15.6336 10.3321 15.6048C10.3508 15.6027 10.3698 15.6044 10.3878 15.61C10.408 15.6136 10.4272 15.6217 10.4439 15.6336C10.4606 15.6456 10.4745 15.6611 10.4844 15.6791C10.5056 15.7335 10.455 15.8071 10.4032 15.8525C10.2451 15.9927 9.90075 16.2807 9.71067 16.3108C9.71067 16.3108 9.57755 16.3248 9.56859 16.2186C9.56741 16.1976 9.57074 16.1765 9.57835 16.1569C9.58597 16.1372 9.5977 16.1194 9.61275 16.1047Z" fill="white"/>
<path d="M18.3809 22.7572C18.3809 23.2974 18.9044 23.7351 19.5508 23.7351C20.1972 23.7351 20.7207 23.2974 20.7207 22.7572C20.7207 22.2171 20.1972 21.7793 19.5508 21.7793C18.9044 21.7793 18.3809 22.2171 18.3809 22.7572ZM19.0503 22.2407C18.8801 22.4327 18.7303 22.731 18.9037 23.1041C18.9396 23.1815 18.8724 23.33 18.7725 23.202C18.5908 22.9684 18.5268 22.434 18.9492 22.1287C19.042 22.0628 19.1879 22.0852 19.0503 22.2407Z" fill="#EA5442"/>
<path d="M17.8607 21.8875C16.9558 22.0155 16.8066 22.8667 16.8066 23.5361C16.8066 24.6926 18.127 24.8967 19.6431 24.8967C21.1593 24.8967 22.2978 24.6926 22.2978 23.5361C22.2978 22.3796 21.0684 21.4395 19.5522 21.4395C18.9142 21.4395 18.3772 21.8107 17.8607 21.8875ZM20.7222 22.7591C20.7222 23.2993 20.1986 23.7371 19.5522 23.7371C18.9058 23.7371 18.3823 23.2993 18.3823 22.7591C18.3823 22.219 18.9058 21.7812 19.5522 21.7812C20.1986 21.7812 20.7222 22.2164 20.7222 22.7566V22.7591Z" fill="white"/>
<path d="M18.9497 22.1286C18.5273 22.4307 18.5913 22.9683 18.7731 23.2019C18.8729 23.3299 18.9401 23.1814 18.9043 23.104C18.7295 22.7308 18.8806 22.4326 19.0508 22.2406C19.1884 22.0851 19.0425 22.0627 18.9497 22.1286Z" fill="white"/>
<path d="M4.64283 10.8706C4.82971 12.422 2.83995 13.9375 2.83995 13.9375C2.83995 13.9375 0.546834 12.9384 0.359954 11.3871C0.173074 9.83571 0.626194 8.50707 2.16283 8.32019C3.69947 8.13331 4.45595 9.31923 4.64283 10.8706Z" fill="#7F4F21"/>
<path d="M2.11523 12.8403L3.29027 12.6982L4.82627 25.4086C4.83568 25.4858 4.82979 25.5641 4.80894 25.6389C4.78809 25.7138 4.75268 25.7838 4.70474 25.845C4.65681 25.9062 4.59728 25.9574 4.52957 25.9955C4.46185 26.0337 4.38728 26.0581 4.31011 26.0675C4.15438 26.0863 3.99755 26.0425 3.87412 25.9457C3.75069 25.8488 3.67077 25.707 3.65194 25.5512L2.11594 12.8408L2.11523 12.8403Z" fill="#7F4F21"/>
<path opacity="0.3" d="M0.896028 9.95703C0.896028 9.95703 0.711068 12.679 2.48963 12.983C2.48771 12.983 0.394268 13.1628 0.896028 9.95703Z" fill="white"/>
<path d="M28.0403 8.31933L27.5891 12.4083C27.5628 12.6472 27.5838 12.8889 27.6509 13.1196C27.718 13.3504 27.8299 13.5656 27.9802 13.7531C28.1305 13.9406 28.3163 14.0967 28.5269 14.2124C28.7375 14.3281 28.9688 14.4012 29.2077 14.4275C29.69 14.4807 30.1737 14.3401 30.5523 14.0367C30.931 13.7333 31.1736 13.2919 31.2269 12.8096L31.68 8.71741C31.6897 8.62924 31.664 8.54083 31.6086 8.47159C31.5531 8.40235 31.4725 8.35795 31.3843 8.34813L31.3203 8.34109C31.2767 8.3362 31.2325 8.33998 31.1904 8.35221C31.1482 8.36444 31.1088 8.38488 31.0746 8.41235C31.0403 8.43982 31.0119 8.47379 30.9908 8.5123C30.9697 8.55082 30.9564 8.59312 30.9517 8.63677L30.6215 11.6288C30.6115 11.7169 30.567 11.7974 30.4978 11.8528C30.4286 11.9082 30.3403 11.934 30.2522 11.9245C30.2085 11.9196 30.1663 11.9062 30.1279 11.885C30.0894 11.8638 30.0555 11.8353 30.0281 11.801C30.0007 11.7667 29.9804 11.7273 29.9682 11.6851C29.956 11.643 29.9522 11.5988 29.9571 11.5552L30.3411 8.07293C30.3507 7.9848 30.3249 7.89647 30.2695 7.82727C30.2141 7.75807 30.1335 7.71363 30.0455 7.70365L29.9123 7.68957C29.8687 7.68468 29.8245 7.68846 29.7824 7.70069C29.7402 7.71292 29.7008 7.73336 29.6666 7.76083C29.6323 7.7883 29.6039 7.82227 29.5828 7.86078C29.5617 7.8993 29.5484 7.9416 29.5437 7.98525L29.1597 11.4675C29.1549 11.5111 29.1416 11.5534 29.1205 11.5918C29.0994 11.6303 29.0709 11.6642 29.0366 11.6917C29.0024 11.7192 28.9631 11.7396 28.921 11.7519C28.8788 11.7641 28.8347 11.768 28.7911 11.7632L28.7424 11.7574C28.6986 11.7532 28.656 11.7405 28.6171 11.7198C28.5782 11.6991 28.5438 11.6709 28.5159 11.6369C28.4879 11.6029 28.467 11.5637 28.4542 11.5215C28.4415 11.4794 28.4372 11.4351 28.4416 11.3913L28.7712 8.39933C28.7809 8.31116 28.7552 8.22275 28.6998 8.15351C28.6443 8.08427 28.5637 8.03987 28.4755 8.03005L28.4115 8.02301C28.3677 8.01785 28.3232 8.02145 28.2807 8.03358C28.2383 8.04572 28.1986 8.06616 28.1641 8.09371C28.1296 8.12127 28.1009 8.1554 28.0796 8.19413C28.0584 8.23285 28.045 8.27541 28.0403 8.31933Z" fill="#7F4F21"/>
<path d="M28.7323 13.5557L29.8526 13.6797L28.5118 25.796C28.5036 25.8695 28.4811 25.9407 28.4455 26.0055C28.4098 26.0703 28.3617 26.1275 28.304 26.1737C28.2462 26.2199 28.18 26.2544 28.1089 26.275C28.0379 26.2956 27.9635 26.302 27.8899 26.2938C27.8164 26.2857 27.7452 26.2632 27.6804 26.2275C27.6156 26.1919 27.5585 26.1438 27.5122 26.0861C27.466 26.0283 27.4316 25.9621 27.411 25.891C27.3904 25.82 27.384 25.7456 27.3921 25.6721L28.7329 13.5558L28.7323 13.5557H28.7323Z" fill="#7F4F21"/>
<path opacity="0.3" d="M29.3247 13.9981C29.3247 13.9981 27.2248 13.9469 28.0728 10.8154C28.0728 10.8154 27.5903 13.5002 29.3247 13.9981Z" fill="white"/>
</g>
<defs>
<clipPath id="clip0_1876_49588">
<rect width="32" height="32" fill="white"/>
</clipPath>
</defs>
</svg>
