<svg width="32" height="32" viewBox="0 0 32 32" fill="none" xmlns="http://www.w3.org/2000/svg">
<circle cx="16" cy="16" r="16" fill="#D9ECCD"/>
<g clip-path="url(#clip0_1948_86864)">
<path d="M16 8.33333V13C16 14.5413 14.8313 15.8153 13.3333 15.9813V23.6667C13.3333 23.8507 13.184 24 13 24C12.816 24 12.6667 23.8507 12.6667 23.6667V15.9813C11.1687 15.8147 10 14.5413 10 13V8.33333C10 8.14933 10.1493 8 10.3333 8C10.5173 8 10.6667 8.14933 10.6667 8.33333V13C10.6667 14.1733 11.5373 15.1473 12.6667 15.3093V8.33333C12.6667 8.14933 12.816 8 13 8C13.184 8 13.3333 8.14933 13.3333 8.33333V15.3093C14.4627 15.1473 15.3333 14.1733 15.3333 13V8.33333C15.3333 8.14933 15.4827 8 15.6667 8C15.8507 8 16 8.14933 16 8.33333ZM22 13.8447C22 17.4087 19.2793 20.1 18.6667 20.6613V23.6673C18.6667 23.8513 18.5173 24.0007 18.3333 24.0007C18.1493 24.0007 18 23.8513 18 23.6673V9.24933C18 8.68733 18.3487 8.21933 18.8887 8.05533C19.4213 7.896 19.9647 8.08733 20.2727 8.548C21.1307 9.834 22 12.066 22 13.844V13.8447ZM21.3333 13.8447C21.3333 12.2173 20.5013 10.0913 19.718 8.918C19.5947 8.73333 19.42 8.66733 19.2587 8.66733C19.1967 8.66733 19.1367 8.67733 19.082 8.69333C18.8813 8.75467 18.6667 8.932 18.6667 9.24933V19.7167C19.586 18.7387 21.3333 16.5253 21.3333 13.844V13.8447Z" fill="#338000"/>
</g>
<defs>
<clipPath id="clip0_1948_86864">
<rect width="16" height="16" fill="white" transform="translate(8 8)"/>
</clipPath>
</defs>
</svg>
