<svg width="24" height="24" viewBox="0 0 24 24" fill="none" xmlns="http://www.w3.org/2000/svg">
<g clip-path="url(#clip0_1876_47940)">
<path d="M12 24C18.6274 24 24 18.6274 24 12C24 5.37258 18.6274 0 12 0C5.37258 0 0 5.37258 0 12C0 18.6274 5.37258 24 12 24Z" fill="#42A004"/>
<path d="M16.1791 11.1345L16.1725 11.128L12.865 7.81813C12.865 7.81813 8.83377 11.8494 6.89127 13.8322C6.6494 14.0788 6.46612 14.4219 6.35737 14.7538C6.03862 15.7283 5.77471 16.7225 5.48127 17.7069C5.40252 17.9708 5.41846 18.2033 5.62518 18.4002C5.82018 18.5877 6.03955 18.5942 6.29268 18.5183C7.23018 18.237 8.17377 17.9694 9.11549 17.6999C9.59975 17.5595 10.0387 17.2946 10.3886 16.9316C12.2392 15.0697 16.1791 11.1345 16.1791 11.1345ZM18.1099 7.02219L16.9788 5.8911C16.6887 5.60128 16.2955 5.43848 15.8854 5.43848C15.4754 5.43848 15.0821 5.60128 14.7921 5.8911L13.51 7.17172L16.8283 10.4909L18.1103 9.20891C18.4001 8.91879 18.5628 8.52549 18.5627 8.11546C18.5626 7.70542 18.3998 7.31219 18.1099 7.02219Z" fill="white"/>
</g>
<defs>
<clipPath id="clip0_1876_47940">
<rect width="24" height="24" fill="white"/>
</clipPath>
</defs>
</svg>
