<svg width="41" height="53" viewBox="0 0 41 53" fill="none" xmlns="http://www.w3.org/2000/svg">
<path d="M20.5003 5.03138C15.8844 5.05987 11.2701 4.85368 6.67514 4.4136C0.597534 3.75813 0.597534 2.94988 0.597534 2.51553C0.597534 2.08118 0.597534 1.27335 6.67514 0.617885C11.2701 0.177432 15.8844 -0.0288998 20.5003 -0.000310407C25.1167 -0.0289561 29.7316 0.177376 34.3271 0.617885C40.4047 1.27335 40.4047 2.08118 40.4047 2.51553C40.4047 2.94988 40.4047 3.75772 34.3271 4.4136C29.7316 4.85374 25.1167 5.05993 20.5003 5.03138ZM1.48404 2.51553C2.41692 3.23186 9.4092 4.20325 20.5011 4.20325C31.593 4.20325 38.5853 3.23186 39.5182 2.51553C38.5857 1.79962 31.5934 0.827815 20.5003 0.827815C9.40713 0.827815 2.41651 1.79962 1.48404 2.51553Z" fill="#2F3A5A"/>
<path d="M20.5 52.9999C16.9674 53.0368 13.4356 52.8673 9.92275 52.4923C6.23428 52.0335 5.67157 51.431 5.65045 50.8965L0.598061 2.55799C0.590411 2.50297 0.593912 2.44696 0.608357 2.39332C0.622803 2.33967 0.647896 2.28948 0.682143 2.24573C0.71639 2.20199 0.75909 2.16558 0.8077 2.13868C0.85631 2.11178 0.909837 2.09494 0.965092 2.08916C1.02035 2.08338 1.0762 2.08878 1.12932 2.10503C1.18245 2.12129 1.23176 2.14807 1.27432 2.18378C1.31688 2.21949 1.35182 2.26339 1.37706 2.31289C1.40229 2.36238 1.41731 2.41645 1.42122 2.47187L6.47278 50.7859C6.47446 50.7936 6.4757 50.8013 6.47651 50.8091C6.87732 51.2662 10.7505 52.1718 20.5 52.1718C30.2304 52.1718 34.1069 51.27 34.5226 50.8124L39.5775 2.47187C39.5814 2.41645 39.5964 2.36238 39.6216 2.31289C39.6469 2.26339 39.6818 2.21949 39.7244 2.18378C39.7669 2.14807 39.8163 2.12129 39.8694 2.10503C39.9225 2.08878 39.9784 2.08338 40.0336 2.08916C40.0889 2.09494 40.1424 2.11178 40.191 2.13868C40.2396 2.16558 40.2823 2.20199 40.3166 2.24573C40.3508 2.28948 40.3759 2.33967 40.3903 2.39332C40.4048 2.44696 40.4083 2.50297 40.4006 2.55799L35.3512 50.8596V50.8629C35.3512 51.4054 34.8435 52.0223 31.078 52.4919C27.5649 52.8671 24.0329 53.0367 20.5 52.9999Z" fill="#2F3A5A"/>
</svg>
