<svg width="18" height="18" viewBox="0 0 18 18" fill="none" xmlns="http://www.w3.org/2000/svg">
<path d="M13.5009 0.884766H4.45994C2.46713 0.884766 0.846191 2.48945 0.846191 4.46195V13.5032C0.846191 15.496 2.46744 17.1173 4.45994 17.1173H13.5012C15.4946 17.1173 17.1165 15.496 17.1165 13.5032V4.46195C17.1165 2.48945 15.4943 0.884766 13.5009 0.884766ZM13.6837 9.66477C13.6837 9.83053 13.6178 9.9895 13.5006 10.1067C13.3834 10.2239 13.2245 10.2898 13.0587 10.2898C12.8929 10.2898 12.734 10.2239 12.6167 10.1067C12.4995 9.9895 12.4337 9.83053 12.4337 9.66477V8.1857L9.62494 10.9929C9.50774 11.1101 9.34879 11.1759 9.18307 11.1759C9.01734 11.1759 8.8584 11.1101 8.74119 10.9929L7.41213 9.66383L5.34432 11.7316C5.22213 11.8538 5.06244 11.9148 4.90244 11.9148C4.74244 11.9148 4.58275 11.8538 4.46057 11.7316C4.3434 11.6144 4.27758 11.4555 4.27758 11.2898C4.27758 11.124 4.3434 10.9651 4.46057 10.8479L6.97025 8.33789C7.08746 8.22072 7.2464 8.1549 7.41213 8.1549C7.57786 8.1549 7.7368 8.22072 7.854 8.33789L9.18307 9.66727L11.5493 7.30227H10.0693C9.90356 7.30227 9.74458 7.23642 9.62737 7.11921C9.51016 7.002 9.44432 6.84303 9.44432 6.67727C9.44432 6.51151 9.51016 6.35253 9.62737 6.23532C9.74458 6.11811 9.90356 6.05227 10.0693 6.05227H13.0587C13.1408 6.05197 13.2222 6.06801 13.298 6.09945C13.3739 6.13089 13.4427 6.1771 13.5006 6.23539C13.5588 6.29325 13.605 6.3621 13.6365 6.43796C13.6679 6.51381 13.6839 6.59516 13.6837 6.67727V9.66477Z" fill="white"/>
</svg>
