<svg width="32" height="32" viewBox="0 0 32 32" fill="none" xmlns="http://www.w3.org/2000/svg">
<path d="M17.6321 7.97241L16.7857 8.02535L13.0117 8.93016L9.01562 14.6054V20.5262L13.0275 25.4102L16.7698 26.5123L17.632 26.5387C22.2068 25.92 25.7336 22 25.7336 17.2555C25.7337 12.5111 22.2069 8.59104 17.6321 7.97241Z" fill="#DBEDFF"/>
<path d="M2.45405 17.3759H4.20517C4.22198 17.3759 4.23848 17.3768 4.25486 17.3784V10.9281H2.4043V17.3784C2.42083 17.3768 2.43743 17.376 2.45405 17.3759ZM29.2241 16.0649V18.6127C29.2405 18.6109 29.2571 18.6099 29.2739 18.6099H31.025C31.0418 18.6099 31.0583 18.611 31.0747 18.6127V16.0649H29.2241Z" fill="#8BCAFF"/>
<path d="M9.53034 17.2555C9.53034 12.5111 13.0572 8.59097 17.632 7.97234C17.212 7.91541 16.7887 7.88681 16.3648 7.88672C11.1907 7.88672 6.99609 12.0812 6.99609 17.2555C6.99609 22.4297 11.1906 26.6242 16.3648 26.6242C16.7947 26.6242 17.2175 26.5946 17.632 26.5385C13.0572 25.9199 9.53034 21.9998 9.53034 17.2555Z" fill="#B5DCFF"/>
<path d="M5.17791 27.2549L4.73591 17.7474C4.72867 17.6117 4.66965 17.4839 4.57099 17.3903C4.47233 17.2968 4.34155 17.2446 4.20559 17.2446H2.45453C2.31857 17.2446 2.1878 17.2968 2.08914 17.3903C1.99048 17.4839 1.93145 17.6117 1.92422 17.7474L1.48216 27.2549C1.42584 28.314 2.26947 29.2036 3.33003 29.2036C4.39066 29.2036 5.23428 28.314 5.17791 27.2549Z" fill="#FFAA5B"/>
<path d="M2.4044 9.83838C2.34193 9.83839 2.28007 9.82609 2.22235 9.80219C2.16463 9.77828 2.11219 9.74325 2.06802 9.69907C2.02385 9.6549 1.98881 9.60246 1.9649 9.54474C1.941 9.48702 1.9287 9.42516 1.92871 9.36269V3.49375C1.92871 3.36759 1.97883 3.2466 2.06804 3.15739C2.15725 3.06818 2.27824 3.01807 2.4044 3.01807C2.53056 3.01807 2.65155 3.06818 2.74076 3.15739C2.82997 3.2466 2.88009 3.36759 2.88009 3.49375V9.36263C2.8801 9.4251 2.86781 9.48697 2.84391 9.5447C2.82001 9.60242 2.78497 9.65487 2.7408 9.69905C2.69663 9.74323 2.64418 9.77827 2.58646 9.80218C2.52874 9.82609 2.46687 9.83839 2.4044 9.83838Z" fill="#B5DCFF"/>
<path d="M4.25498 9.83838C4.19251 9.83839 4.13065 9.82609 4.07294 9.80219C4.01522 9.77828 3.96278 9.74325 3.9186 9.69907C3.87443 9.6549 3.83939 9.60246 3.81549 9.54474C3.79159 9.48702 3.77929 9.42516 3.7793 9.36269V3.49375C3.7793 3.36759 3.82941 3.2466 3.91862 3.15739C4.00783 3.06818 4.12882 3.01807 4.25498 3.01807C4.38114 3.01807 4.50214 3.06818 4.59135 3.15739C4.68056 3.2466 4.73067 3.36759 4.73067 3.49375V9.36263C4.73067 9.48879 4.68056 9.60979 4.59135 9.69901C4.50214 9.78823 4.38115 9.83836 4.25498 9.83838Z" fill="#DBEDFF"/>
<path d="M2.8803 8.93018L2.74805 9.04949V9.92924L3.10073 10.9282H4.76517C5.54867 10.9282 6.1838 10.2931 6.1838 9.50961V8.93024L2.8803 8.93018Z" fill="#DBEDFF"/>
<path d="M2.88002 9.48586V8.93018H0.475586V9.50955C0.475586 10.2931 1.11077 10.9282 1.89421 10.9282H3.42671C3.08677 10.5441 2.88002 10.0392 2.88002 9.48586Z" fill="#B5DCFF"/>
<path d="M31.9973 27.2548L31.5553 18.9441C31.5481 18.8083 31.489 18.6805 31.3904 18.587C31.2917 18.4934 31.1609 18.4413 31.025 18.4413H29.2739C29.1379 18.4413 29.0071 18.4934 28.9085 18.587C28.8098 18.6805 28.7508 18.8083 28.7436 18.9441L28.3015 27.2548C28.2452 28.314 29.0888 29.2036 30.1494 29.2036C31.2101 29.2036 32.0537 28.314 31.9973 27.2548Z" fill="#FFAA5B"/>
<path d="M3.04028 27.2549L3.48234 17.7475C3.48956 17.6117 3.54858 17.4839 3.64724 17.3903C3.7459 17.2968 3.87669 17.2446 4.01266 17.2446H2.45453C2.31857 17.2446 2.18779 17.2968 2.08913 17.3904C1.99047 17.4839 1.93145 17.6117 1.92422 17.7475L1.48216 27.2549C1.42584 28.3141 2.26947 29.2037 3.33003 29.2037C3.60897 29.2037 3.87259 29.1416 4.10909 29.0317C3.44641 28.7236 2.99878 28.0356 3.04028 27.2549ZM29.8601 27.2549L30.3022 18.9442C30.3094 18.8084 30.3684 18.6806 30.4671 18.587C30.5657 18.4935 30.6965 18.4414 30.8325 18.4414H29.2743C29.1384 18.4414 29.0076 18.4935 28.9089 18.5871C28.8103 18.6806 28.7513 18.8084 28.744 18.9442L28.302 27.2549C28.2457 28.3141 29.0893 29.2037 30.1498 29.2037C30.4288 29.2037 30.6924 29.1416 30.9289 29.0317C30.2662 28.7236 29.8186 28.0356 29.8601 27.2549Z" fill="#FF9838"/>
<path d="M31.6283 3.25061L29.9369 4.48917L28.8057 7.05805V14.7647L29.7095 15.2536L30.1499 16.0147L30.5374 16.206H31.2885C31.4437 16.206 31.5925 16.1444 31.7022 16.0346C31.8119 15.9249 31.8735 15.7761 31.8735 15.621V3.50799C31.8735 3.41624 31.8565 3.32967 31.826 3.25061H31.6283Z" fill="#DBEDFF"/>
<path d="M30.2096 15.811C30.0505 15.3323 29.718 14.9304 29.2776 14.6845C29.1863 14.6339 29.1103 14.5598 29.0573 14.47C29.0043 14.3801 28.9762 14.2777 28.976 14.1734V8.13695C28.976 6.08933 30.0869 4.23433 31.8251 3.25058C31.6923 2.90727 31.3023 2.70527 30.9265 2.83702C28.6753 3.6262 27.1683 5.75139 27.1683 8.13695V14.1734C27.1684 14.2777 27.1965 14.3801 27.2495 14.47C27.3025 14.5598 27.3786 14.6339 27.4698 14.6845C27.9103 14.9305 28.2427 15.3323 28.4018 15.811C28.4803 16.0481 28.7048 16.206 28.9546 16.206H30.7624C30.5126 16.206 30.288 16.0481 30.2096 15.811ZM17.6314 10.4701H16.2301L13.4075 12.5816L11.5205 16.065V19.5007L13.5469 22.7016L16.3643 24.0676L17.6314 24.0409C20.838 23.4458 23.2663 20.6345 23.2663 17.2555C23.2663 13.8765 20.838 11.0651 17.6314 10.4701Z" fill="#B5DCFF"/>
<path d="M11.9971 17.2556C11.9971 13.8766 14.4253 11.0652 17.6319 10.4701C17.214 10.3926 16.7898 10.3536 16.3648 10.3536C12.553 10.3536 9.46289 13.4437 9.46289 17.2555C9.46289 21.0673 12.553 24.1574 16.3648 24.1574C16.7976 24.1574 17.2211 24.1171 17.6319 24.0409C14.4253 23.4459 11.9971 20.6345 11.9971 17.2556Z" fill="#8BCAFF"/>
<path d="M6.18342 3.01807C6.12095 3.01806 6.05909 3.03036 6.00137 3.05426C5.94366 3.07816 5.89121 3.1132 5.84704 3.15737C5.80287 3.20155 5.76783 3.25399 5.74393 3.31171C5.72002 3.36942 5.70773 3.43128 5.70773 3.49375V9.5095C5.70773 10.0294 5.28473 10.4524 4.7648 10.4524H3.10623L3.03711 10.6048L3.59211 11.3025L3.81842 11.4039H4.7648C5.80936 11.4039 6.65917 10.5541 6.65917 9.50957V3.49375C6.65916 3.36759 6.60902 3.2466 6.51981 3.15739C6.43059 3.06818 6.30959 3.01807 6.18342 3.01807Z" fill="#DBEDFF"/>
<path d="M3.10637 10.4525H1.89437C1.37444 10.4525 0.951437 10.0295 0.951437 9.50955V3.49373C0.950002 3.36851 0.89925 3.2489 0.810191 3.16086C0.721133 3.07282 0.600951 3.02344 0.475719 3.02344C0.350487 3.02344 0.230305 3.07282 0.141246 3.16086C0.0521875 3.2489 0.00143536 3.36851 0 3.49373L0 9.50948C0 10.554 0.849813 11.4039 1.89437 11.4039H4.02606C3.62859 11.1893 3.30731 10.857 3.10637 10.4525Z" fill="#B5DCFF"/>
</svg>
