<svg width="32" height="32" viewBox="0 0 32 32" fill="none" xmlns="http://www.w3.org/2000/svg">
<g clip-path="url(#clip0_833_12132)">
<path d="M31.277 16.9898L29.3715 8.88003L28.899 6.54654C28.7484 5.86866 28.071 5.44629 27.396 5.60916L26.1995 5.89803C25.5358 6.05816 25.1261 6.72441 25.2825 7.38891L25.477 8.18416C25.5227 8.37826 25.6144 8.55851 25.7445 8.70964C25.8745 8.86078 26.0391 8.97835 26.2243 9.05241C26.4228 9.13181 26.5974 9.26115 26.7313 9.4279C26.8652 9.59465 26.9537 9.79315 26.9883 10.0042L28.047 16.8378C28.0693 16.9737 28.0458 17.1132 27.9802 17.2343C27.9146 17.3554 27.8106 17.4513 27.6846 17.5069L25.1719 18.3682L26.3834 22.2823L30.5019 20.4592C30.7994 20.3274 31.0504 20.1093 31.2225 19.8332C31.4277 19.5035 31.4644 19.2254 31.473 18.911C31.4908 18.2648 31.4249 17.6191 31.277 16.9898Z" fill="#F9D0B4"/>
<path d="M26.4779 22.5874L25.1576 18.322C25.137 18.2553 25.1034 18.1934 25.0587 18.1398C25.014 18.0863 24.9591 18.0421 24.8972 18.0098C24.8353 17.9776 24.7677 17.9579 24.6981 17.952C24.6286 17.9461 24.5586 17.954 24.4921 17.9753L19.8323 19.4678C19.826 19.5511 19.7902 19.6295 19.7313 19.6889L17.8584 21.5618C17.7919 21.6283 17.7016 21.6656 17.6076 21.6656C17.5135 21.6656 17.4233 21.6283 17.3568 21.5618L16.5186 20.7236C16.4816 20.6864 16.4534 20.6414 16.436 20.5919C16.4186 20.5424 16.4125 20.4897 16.4181 20.4375H15.4568C15.4624 20.4897 15.4562 20.5424 15.4388 20.5919C15.4215 20.6414 15.3932 20.6864 15.3563 20.7236L14.5181 21.5618C14.4516 21.6283 14.3614 21.6656 14.2673 21.6656C14.1732 21.6656 14.083 21.6283 14.0165 21.5618L12.1438 19.6888C12.1096 19.6545 12.0828 19.6136 12.0651 19.5686C12.0474 19.5235 12.0392 19.4754 12.0409 19.427L7.50788 17.9751C7.44143 17.9538 7.37141 17.9459 7.30189 17.9519C7.23236 17.9578 7.1647 17.9775 7.10281 18.0097C7.04093 18.0419 6.98605 18.0861 6.94135 18.1397C6.89665 18.1933 6.86301 18.2552 6.84238 18.3219L5.52213 22.5873C5.48235 22.7158 5.49316 22.8547 5.55236 22.9756C5.61155 23.0965 5.71467 23.1902 5.84063 23.2376L8.93813 24.4031C9.12836 24.4747 9.29223 24.6026 9.40792 24.7697C9.5236 24.9368 9.5856 25.1353 9.58563 25.3385V31.4995C9.58563 31.6034 9.66976 31.6875 9.77363 31.6875H22.2264C22.3303 31.6875 22.4144 31.6034 22.4144 31.4995V25.3385C22.4143 25.1352 22.4763 24.9368 22.592 24.7697C22.7077 24.6025 22.8716 24.4747 23.0619 24.4031L26.1594 23.2376C26.2854 23.1903 26.3885 23.0966 26.4477 22.9757C26.5069 22.8549 26.5177 22.7159 26.4779 22.5874Z" fill="#70D6F9"/>
<path d="M0.722759 16.9898L2.62826 8.88003L3.10076 6.54654C3.25138 5.86866 3.92876 5.44629 4.60376 5.60916L5.80026 5.89803C6.46401 6.05816 6.87363 6.72441 6.71726 7.38891L6.52276 8.18416C6.4771 8.37826 6.38536 8.55851 6.25528 8.70964C6.12521 8.86078 5.96064 8.97835 5.77551 9.05241C5.57697 9.13181 5.40231 9.26115 5.26846 9.4279C5.1346 9.59465 5.04609 9.79315 5.01151 10.0042L3.95276 16.8378C3.93048 16.9737 3.95398 17.1132 4.01957 17.2343C4.08516 17.3554 4.18913 17.4513 4.31513 17.5069L6.82788 18.3682L5.61638 22.2823L1.49788 20.4592C1.20038 20.3274 0.949316 20.1093 0.777259 19.8332C0.572009 19.5035 0.535384 19.2254 0.526759 18.911C0.508989 18.2648 0.574869 17.6191 0.722759 16.9898Z" fill="#F9D0B4"/>
<path d="M9.01201 3.10625C8.44951 3.00625 8.01201 2.56875 7.89951 2.01875C7.89951 1.99375 7.84951 1.99375 7.84951 2.01875C7.73701 2.56875 7.29951 3.00625 6.73701 3.10625C6.71201 3.10625 6.71201 3.14375 6.73701 3.15625C7.29951 3.25625 7.73701 3.69375 7.84951 4.24375C7.84951 4.26875 7.89951 4.26875 7.89951 4.24375C8.01201 3.69375 8.44951 3.25625 9.01201 3.15625C9.03701 3.14375 9.03701 3.10625 9.01201 3.10625Z" fill="#F5C84C"/>
<path d="M24.4889 14.7424C24.3266 14.7131 24.1769 14.6358 24.059 14.5205C23.9411 14.4053 23.8604 14.2573 23.8274 14.0958C23.8274 14.0809 23.7977 14.0809 23.7977 14.0958C23.7647 14.2573 23.684 14.4053 23.5661 14.5205C23.4482 14.6358 23.2984 14.7131 23.1362 14.7424C23.1213 14.7424 23.1213 14.7646 23.1362 14.7721C23.2984 14.8014 23.4482 14.8787 23.5661 14.994C23.684 15.1092 23.7647 15.2572 23.7977 15.4188C23.7977 15.4336 23.8274 15.4336 23.8274 15.4188C23.8604 15.2572 23.9411 15.1092 24.059 14.994C24.1769 14.8787 24.3266 14.8014 24.4889 14.7721C24.5038 14.7648 24.5038 14.7424 24.4889 14.7424Z" fill="#FC657E"/>
<path d="M11.2619 0.85C11.4966 0.85 11.6869 0.659721 11.6869 0.425C11.6869 0.190279 11.4966 0 11.2619 0C11.0272 0 10.8369 0.190279 10.8369 0.425C10.8369 0.659721 11.0272 0.85 11.2619 0.85Z" fill="#87D147"/>
<path d="M24.7619 29.725C24.9966 29.725 25.1869 29.5347 25.1869 29.3C25.1869 29.0653 24.9966 28.875 24.7619 28.875C24.5272 28.875 24.3369 29.0653 24.3369 29.3C24.3369 29.5347 24.5272 29.725 24.7619 29.725Z" fill="#F5C84C"/>
<path d="M27.2496 26.4375H26.9621V26.15C26.9621 25.9375 26.7871 25.75 26.5621 25.75C26.3371 25.75 26.1621 25.925 26.1621 26.15V26.4375H25.8746C25.6621 26.4375 25.4746 26.6125 25.4746 26.8375C25.4746 27.0625 25.6496 27.2375 25.8746 27.2375H26.1621V27.525C26.1621 27.7375 26.3371 27.925 26.5621 27.925C26.7871 27.925 26.9621 27.75 26.9621 27.525V27.2375H27.2496C27.4621 27.2375 27.6496 27.0625 27.6496 26.8375C27.6496 26.6125 27.4746 26.4375 27.2496 26.4375Z" fill="#70D6F9"/>
<path d="M15.356 20.222L13.4832 18.3491C13.4166 18.2826 13.3264 18.2452 13.2324 18.2452C13.1383 18.2452 13.0481 18.2826 12.9815 18.3491L12.1434 19.1872C12.0769 19.2538 12.0396 19.344 12.0396 19.438C12.0396 19.5321 12.0769 19.6223 12.1434 19.6889L14.0163 21.5617C14.0828 21.6282 14.173 21.6656 14.2671 21.6656C14.3612 21.6656 14.4514 21.6282 14.5179 21.5617L15.356 20.7236C15.4226 20.6571 15.4599 20.5669 15.4599 20.4728C15.4599 20.3787 15.4226 20.2885 15.356 20.222ZM16.5185 20.222L18.3914 18.3491C18.4579 18.2826 18.5482 18.2452 18.6422 18.2452C18.7363 18.2452 18.8265 18.2826 18.893 18.3491L19.7312 19.1872C19.7977 19.2538 19.835 19.344 19.835 19.438C19.835 19.5321 19.7977 19.6223 19.7312 19.6889L17.8583 21.5617C17.7918 21.6282 17.7016 21.6656 17.6075 21.6656C17.5134 21.6656 17.4232 21.6282 17.3567 21.5617L16.5185 20.7236C16.452 20.6571 16.4147 20.5669 16.4147 20.4728C16.4147 20.3787 16.452 20.2885 16.5185 20.222Z" fill="#9BE5F9"/>
<path d="M16.6341 7.09656C14.935 9.23331 12.4286 8.93169 11.5859 8.75531C11.4328 8.72331 11.2858 8.83869 11.2856 8.99519V12.7403C11.2856 15.2988 13.379 17.3922 15.9375 17.3922C18.496 17.3922 20.5894 15.2988 20.5894 12.7403V8.59656C20.5894 8.57231 20.5891 8.54806 20.5886 8.52381C20.5875 8.46008 20.5619 8.39922 20.5173 8.35375C20.4726 8.30827 20.4122 8.28163 20.3485 8.27931C18.416 8.22269 17.3978 7.45669 17.0065 7.07319C16.9814 7.04849 16.9514 7.02936 16.9184 7.01705C16.8855 7.00473 16.8502 6.99951 16.8151 7.00171C16.78 7.00392 16.7457 7.01351 16.7145 7.02985C16.6833 7.04619 16.6559 7.06892 16.6341 7.09656Z" fill="#F9D0B4"/>
<path d="M10.987 9.1951C11.0886 9.1951 11.1881 9.20373 11.2855 9.21873V8.99523C11.2856 8.83873 11.4326 8.72335 11.5858 8.75535C12.4285 8.93173 14.935 9.23323 16.634 7.0966C16.6558 7.06895 16.6832 7.0462 16.7144 7.02985C16.7456 7.01349 16.7798 7.0039 16.815 7.00169C16.8501 6.99949 16.8853 7.00472 16.9183 7.01704C16.9513 7.02937 16.9813 7.04851 17.0064 7.07323C17.3976 7.45673 18.4159 8.22273 20.3484 8.27935C20.4803 8.28323 20.5859 8.39198 20.5885 8.52385C20.589 8.5481 20.5893 8.57235 20.5893 8.5966V9.21885C20.8852 9.17241 21.1879 9.19533 21.4735 9.28581C21.759 9.37628 22.0197 9.53184 22.2349 9.74023V6.2466C22.2349 4.7851 21.0391 3.58935 19.5776 3.58935C19.0819 3.58935 18.6185 3.72948 18.2203 3.96823C17.755 3.19185 16.9075 2.6676 15.9415 2.6676H14.577C11.9361 2.6676 9.77539 4.82835 9.77539 7.46923V9.62073C10.1189 9.34488 10.5464 9.19471 10.987 9.1951Z" fill="#754E34"/>
<path d="M20.8879 9.19507C20.7863 9.19507 20.6868 9.20369 20.5894 9.21869V12.7403C20.5894 12.8452 20.5847 12.9491 20.5777 13.0523C20.6789 13.0686 20.782 13.0794 20.8879 13.0794C21.9605 13.0794 22.83 12.2099 22.83 11.1373C22.83 10.0647 21.9605 9.19507 20.8879 9.19507ZM11.2857 12.7403V9.21869C11.1869 9.20315 11.0871 9.19525 10.9872 9.19507C9.91455 9.19507 9.04492 10.0647 9.04492 11.1373C9.04492 12.2099 9.91442 13.0794 10.9872 13.0794C11.093 13.0794 11.1962 13.0687 11.2974 13.0523C11.29 12.9485 11.2861 12.8444 11.2857 12.7403Z" fill="#F9D0B4"/>
<path d="M17.5093 13.1329H14.3656C14.1521 13.1329 14.0018 13.3444 14.0731 13.5457C14.3451 14.3134 15.0796 14.8673 15.9375 14.8673C16.7953 14.8673 17.5298 14.3134 17.8018 13.5457C17.8731 13.3444 17.7228 13.1329 17.5093 13.1329Z" fill="#FC657E"/>
<path d="M15.4568 20.4375H16.4182C16.4256 20.3562 16.4611 20.28 16.5187 20.222L18.3052 18.4355C18.1587 18.1892 18.0812 17.9081 18.0805 17.6215V16.8644C17.4195 17.2113 16.684 17.3925 15.9374 17.3923C15.1908 17.3925 14.4554 17.2114 13.7943 16.8644V17.6215C13.7943 17.9143 13.7144 18.1946 13.5713 18.4371L15.3563 20.2221C15.4165 20.2823 15.4489 20.3589 15.4568 20.4375Z" fill="#F9D0B4"/>
<path d="M18.7045 11.4034C18.6588 11.4035 18.6137 11.3935 18.5723 11.3742C18.5309 11.3549 18.4942 11.3267 18.4649 11.2917C18.3804 11.1909 18.2261 11.1283 18.0624 11.1283C17.8986 11.1283 17.7444 11.1909 17.6599 11.2917C17.6335 11.3231 17.6012 11.3491 17.5648 11.368C17.5285 11.387 17.4887 11.3986 17.4478 11.4022C17.4069 11.4058 17.3657 11.4013 17.3266 11.389C17.2874 11.3767 17.2511 11.3568 17.2196 11.3304C17.1882 11.3041 17.1622 11.2718 17.1433 11.2354C17.1243 11.199 17.1127 11.1592 17.1091 11.1183C17.1055 11.0774 17.11 11.0363 17.1223 10.9971C17.1346 10.958 17.1545 10.9216 17.1809 10.8902C17.384 10.6479 17.7135 10.5033 18.0624 10.5033C18.4113 10.5033 18.7409 10.6479 18.9439 10.8902C18.9821 10.9357 19.0065 10.9913 19.0142 11.0502C19.022 11.1092 19.0128 11.1691 18.9876 11.223C18.9625 11.2769 18.9225 11.3225 18.8724 11.3545C18.8222 11.3864 18.764 11.4034 18.7045 11.4034ZM14.4545 11.4034C14.4088 11.4035 14.3637 11.3935 14.3223 11.3742C14.2809 11.3549 14.2442 11.3267 14.2149 11.2917C14.1304 11.1909 13.9761 11.1283 13.8124 11.1283C13.6486 11.1283 13.4944 11.1909 13.4099 11.2917C13.3835 11.3231 13.3512 11.3491 13.3148 11.368C13.2785 11.387 13.2387 11.3986 13.1978 11.4022C13.1569 11.4058 13.1157 11.4013 13.0766 11.389C13.0374 11.3767 13.0011 11.3568 12.9696 11.3304C12.9382 11.3041 12.9122 11.2718 12.8933 11.2354C12.8743 11.199 12.8627 11.1592 12.8591 11.1183C12.8555 11.0774 12.86 11.0363 12.8723 10.9971C12.8846 10.958 12.9045 10.9216 12.9309 10.8902C13.134 10.6479 13.4635 10.5033 13.8124 10.5033C14.1613 10.5033 14.4909 10.6479 14.6939 10.8902C14.7321 10.9357 14.7565 10.9913 14.7642 11.0502C14.772 11.1092 14.7628 11.1691 14.7376 11.223C14.7125 11.2769 14.6725 11.3225 14.6224 11.3545C14.5722 11.3864 14.514 11.4034 14.4545 11.4034ZM14.2671 21.9778C14.1796 21.978 14.0928 21.9608 14.0118 21.9273C13.9309 21.8938 13.8574 21.8447 13.7955 21.7827L11.9226 19.9098C11.7977 19.7846 11.7275 19.6149 11.7275 19.438C11.7275 19.2612 11.7977 19.0915 11.9226 18.9663L12.7608 18.1282C12.886 18.0032 13.0556 17.9331 13.2325 17.9331C13.4094 17.9331 13.5791 18.0032 13.7043 18.1282L15.5771 20.001C15.7031 20.127 15.7726 20.2945 15.7726 20.4728C15.7726 20.651 15.7031 20.8185 15.5771 20.9445L14.7391 21.7827C14.6772 21.8447 14.6036 21.8938 14.5226 21.9273C14.4416 21.9608 14.3548 21.9779 14.2671 21.9778ZM13.2324 18.5578C13.2212 18.5578 13.2104 18.5622 13.2025 18.5702L12.3644 19.4083C12.3565 19.4163 12.3521 19.427 12.3521 19.4382C12.3521 19.4494 12.3565 19.4601 12.3644 19.468L14.2373 21.3409C14.2452 21.3488 14.256 21.3532 14.2671 21.3532C14.2783 21.3532 14.2891 21.3488 14.297 21.3409L15.135 20.5028C15.139 20.4989 15.1422 20.4943 15.1443 20.4892C15.1465 20.4841 15.1476 20.4786 15.1475 20.473C15.1476 20.4675 15.1466 20.462 15.1444 20.4569C15.1423 20.4518 15.1391 20.4471 15.1351 20.4433L13.2623 18.5702C13.2543 18.5622 13.2436 18.5578 13.2324 18.5578ZM17.6074 21.9778C17.5198 21.9779 17.433 21.9608 17.3521 21.9273C17.2711 21.8938 17.1976 21.8447 17.1356 21.7827L16.2975 20.9445C16.1726 20.8194 16.1024 20.6497 16.1024 20.4729C16.1024 20.296 16.1726 20.1264 16.2975 20.0012L18.1704 18.1283C18.2956 18.0034 18.4653 17.9332 18.6421 17.9332C18.819 17.9332 18.9887 18.0034 19.1139 18.1283L19.952 18.9665C20.0142 19.0283 20.0634 19.1019 20.097 19.1828C20.1305 19.2638 20.1477 19.3506 20.1474 19.4383C20.1476 19.5259 20.1304 19.6128 20.0969 19.6937C20.0633 19.7747 20.0141 19.8482 19.9519 19.91L18.079 21.7829C18.0171 21.8448 17.9436 21.8939 17.8626 21.9274C17.7817 21.9608 17.695 21.978 17.6074 21.9778ZM18.6421 18.5578C18.6309 18.5578 18.6202 18.5622 18.6123 18.5702L16.7394 20.443C16.7315 20.451 16.7271 20.4617 16.7271 20.4729C16.7271 20.484 16.7315 20.4947 16.7394 20.5027L17.5775 21.3408C17.5855 21.3487 17.5962 21.3531 17.6074 21.3531C17.6186 21.3531 17.6293 21.3487 17.6373 21.3408L19.5101 19.4679C19.5141 19.464 19.5172 19.4594 19.5194 19.4542C19.5215 19.4491 19.5226 19.4436 19.5225 19.438C19.5226 19.4325 19.5216 19.427 19.5194 19.4219C19.5173 19.4168 19.5141 19.4121 19.5101 19.4083L18.672 18.57C18.6641 18.5622 18.6533 18.5578 18.6421 18.5578Z" fill="black"/>
<path d="M15.9375 17.7047C13.2001 17.7047 10.9732 15.4777 10.9732 12.7404V8.99836C10.9728 8.91508 10.9911 8.83279 11.0268 8.75754C11.0624 8.68229 11.1146 8.61602 11.1793 8.56361C11.2442 8.51065 11.3202 8.4729 11.4016 8.45315C11.483 8.4334 11.5678 8.43215 11.6498 8.44948C12.5544 8.63873 14.827 8.86686 16.3895 6.90198C16.4387 6.84012 16.5003 6.78926 16.5703 6.75268C16.6404 6.7161 16.7173 6.69461 16.7962 6.68961C16.8749 6.6849 16.9537 6.69671 17.0276 6.72429C17.1015 6.75186 17.1688 6.79459 17.2251 6.84973C17.5493 7.16748 18.5033 7.91236 20.3575 7.96673C20.5015 7.97114 20.6383 8.03081 20.7395 8.13335C20.8407 8.23589 20.8985 8.37344 20.901 8.51748C20.9015 8.54361 20.9018 8.56998 20.9018 8.59648V12.7404C20.9019 15.4777 18.6749 17.7047 15.9375 17.7047ZM11.5982 9.07661V12.7405C11.5982 15.1332 13.5448 17.0799 15.9375 17.0799C18.3303 17.0799 20.2769 15.1332 20.2769 12.7405V8.58948C18.3826 8.51911 17.3238 7.80098 16.8368 7.34323C15.0634 9.51786 12.4718 9.24536 11.5982 9.07661Z" fill="black"/>
<path d="M22.235 9.9726C22.1521 9.9726 22.0726 9.93968 22.014 9.88107C21.9554 9.82247 21.9225 9.74298 21.9225 9.6601V6.2466C21.9225 4.95373 20.8706 3.90185 19.5778 3.90185C19.1598 3.90185 18.7459 4.01748 18.381 4.23623C18.3458 4.25738 18.3068 4.27139 18.2662 4.27744C18.2256 4.28349 18.1842 4.28148 18.1444 4.2715C18.1045 4.26153 18.0671 4.24379 18.0341 4.21932C18.0011 4.19484 17.9733 4.1641 17.9523 4.12885C17.5278 3.42035 16.7573 2.9801 15.9416 2.9801H14.5771C12.1018 2.9801 10.0879 4.99398 10.0879 7.46935V9.54685C10.0879 9.62973 10.055 9.70922 9.99636 9.76782C9.93776 9.82643 9.85827 9.85935 9.77539 9.85935C9.69251 9.85935 9.61302 9.82643 9.55442 9.76782C9.49581 9.70922 9.46289 9.62973 9.46289 9.54685V7.46935C9.46289 4.64935 11.7571 2.3551 14.5771 2.3551H15.9416C16.8768 2.3551 17.7643 2.81023 18.3225 3.55985C18.7149 3.37405 19.1436 3.2774 19.5778 3.27685C21.2154 3.27685 22.5475 4.6091 22.5475 6.2466V9.6601C22.5475 9.74298 22.5146 9.82247 22.456 9.88107C22.3974 9.93968 22.3179 9.9726 22.235 9.9726Z" fill="black"/>
<path d="M20.8879 13.392C20.8045 13.392 20.7194 13.3865 20.6277 13.3753C20.5454 13.3652 20.4705 13.3228 20.4195 13.2574C20.3685 13.1921 20.3455 13.1092 20.3557 13.0269C20.3658 12.9446 20.4082 12.8698 20.4735 12.8188C20.5389 12.7678 20.6218 12.7448 20.704 12.7549C20.7703 12.763 20.8304 12.767 20.8879 12.767C21.7865 12.767 22.5177 12.0359 22.5177 11.1373C22.5177 10.2387 21.7865 9.50754 20.8879 9.50754C20.8389 9.50754 20.7904 9.50991 20.7425 9.51441C20.6605 9.52129 20.579 9.4955 20.5159 9.44264C20.4527 9.38978 20.413 9.31413 20.4053 9.23213C20.3976 9.15013 20.4226 9.06842 20.4749 9.00476C20.5271 8.9411 20.6024 8.90063 20.6843 8.89216C22.0167 8.76829 23.1425 9.82716 23.1425 11.1373C23.1427 12.3805 22.1312 13.392 20.8879 13.392ZM10.9872 13.392C9.74392 13.392 8.73242 12.3805 8.73242 11.1373C8.73242 9.89404 9.74392 8.88254 10.9872 8.88254C11.0622 8.88254 11.1388 8.88654 11.215 8.89454C11.2975 8.90314 11.3731 8.94414 11.4253 9.00851C11.4775 9.07288 11.502 9.15535 11.4934 9.23779C11.4848 9.32022 11.4438 9.39586 11.3794 9.44806C11.3151 9.50027 11.2326 9.52476 11.1502 9.51616C11.096 9.51052 11.0416 9.50764 10.9872 9.50754C10.0885 9.50754 9.35742 10.2387 9.35742 11.1373C9.35742 12.0359 10.0885 12.767 10.9872 12.767C11.0353 12.767 11.0847 12.7643 11.1382 12.7587C11.2206 12.75 11.3031 12.7744 11.3675 12.8266C11.4319 12.8787 11.473 12.9544 11.4817 13.0368C11.4903 13.1192 11.4659 13.2017 11.4138 13.2661C11.3616 13.3306 11.286 13.3716 11.2035 13.3803C11.128 13.3882 11.0573 13.392 10.9872 13.392ZM15.9375 15.1798C14.9704 15.1798 14.1028 14.565 13.7785 13.65C13.7454 13.5563 13.7353 13.456 13.749 13.3575C13.7626 13.259 13.7997 13.1652 13.857 13.084C13.9146 13.0027 13.9908 12.9363 14.0793 12.8905C14.1677 12.8446 14.2659 12.8206 14.3655 12.8205H17.5093C17.6089 12.8204 17.707 12.8442 17.7955 12.89C17.8839 12.9357 17.9601 13.002 18.0177 13.0832C18.0752 13.1645 18.1123 13.2584 18.126 13.3571C18.1397 13.4557 18.1295 13.5562 18.0963 13.65C17.7723 14.5649 16.9047 15.1798 15.9375 15.1798ZM14.3657 13.4454C14.6037 14.1072 15.2345 14.5548 15.9375 14.5548C16.639 14.5548 17.2688 14.1093 17.5058 13.4454H14.3657ZM13.601 18.6967C13.547 18.6966 13.4938 18.6825 13.4468 18.6558C13.3998 18.629 13.3605 18.5905 13.3328 18.5441C13.3051 18.4976 13.29 18.4447 13.2889 18.3906C13.2878 18.3366 13.3007 18.2831 13.3264 18.2355C13.4282 18.0469 13.4817 17.8359 13.4819 17.6215V16.9219C13.4819 16.839 13.5148 16.7595 13.5735 16.7009C13.6321 16.6423 13.7115 16.6094 13.7944 16.6094C13.8773 16.6094 13.9568 16.6423 14.0154 16.7009C14.074 16.7595 14.1069 16.839 14.1069 16.9219V17.6215C14.1066 17.9397 14.0274 18.2528 13.8763 18.5328C13.8495 18.5824 13.8097 18.6238 13.7613 18.6527C13.7128 18.6815 13.6574 18.6967 13.601 18.6967ZM18.2855 18.713C18.2298 18.7131 18.1751 18.6983 18.1271 18.6701C18.079 18.6419 18.0394 18.6013 18.0123 18.5527C17.8531 18.2681 17.7691 17.9476 17.7682 17.6215V16.9219C17.7682 16.839 17.8011 16.7595 17.8597 16.7009C17.9183 16.6423 17.9978 16.6094 18.0807 16.6094C18.1636 16.6094 18.243 16.6423 18.3016 16.7009C18.3602 16.7595 18.3932 16.839 18.3932 16.9219V17.6215C18.3932 17.838 18.4503 18.0548 18.5582 18.2483C18.5847 18.2958 18.5983 18.3495 18.5978 18.4039C18.5972 18.4584 18.5824 18.5117 18.5548 18.5587C18.5273 18.6056 18.4879 18.6446 18.4407 18.6716C18.3935 18.6987 18.34 18.713 18.2855 18.713ZM16.3568 20.75H15.5365C15.4537 20.75 15.3742 20.7171 15.3156 20.6585C15.257 20.5999 15.224 20.5204 15.224 20.4375C15.224 20.3547 15.257 20.2752 15.3156 20.2166C15.3742 20.158 15.4537 20.125 15.5365 20.125H16.3568C16.4397 20.125 16.5192 20.158 16.5778 20.2166C16.6364 20.2752 16.6693 20.3547 16.6693 20.4375C16.6693 20.5204 16.6364 20.5999 16.5778 20.6585C16.5192 20.7171 16.4397 20.75 16.3568 20.75ZM26.4664 22.558C26.3947 22.5581 26.3252 22.5335 26.2695 22.4884C26.2138 22.4433 26.1753 22.3804 26.1605 22.3103C26.1456 22.2402 26.1553 22.1671 26.1879 22.1033C26.2206 22.0395 26.2741 21.9888 26.3397 21.9598L30.3754 20.1733C30.6158 20.0673 30.8187 19.8911 30.9573 19.6679C31.1175 19.4105 31.1524 19.2003 31.1607 18.9023C31.1777 18.2831 31.1146 17.6644 30.973 17.0614L29.0675 8.95141L28.593 6.60841C28.5663 6.48889 28.5158 6.37594 28.4447 6.2762C28.3736 6.17646 28.2833 6.09196 28.179 6.02766C28.0745 5.96205 27.9578 5.91809 27.836 5.89838C27.7141 5.87866 27.5896 5.88361 27.4697 5.91291L26.273 6.20179C25.778 6.32129 25.4703 6.82166 25.5869 7.31729L25.7807 8.10991C25.8147 8.25561 25.8834 8.39096 25.9809 8.5045C26.0783 8.61804 26.2017 8.70642 26.3405 8.76216C26.5886 8.86227 26.8068 9.02437 26.9742 9.23295C27.1416 9.44153 27.2527 9.6896 27.2968 9.95341L28.356 16.7898C28.389 16.9937 28.3534 17.2028 28.2547 17.3843C28.1561 17.5658 28 17.7094 27.8109 17.7927C27.8028 17.7963 27.7945 17.7996 27.786 17.8024L25.3645 18.6323C25.2862 18.6592 25.2003 18.6538 25.1259 18.6174C25.0514 18.5809 24.9945 18.5164 24.9677 18.438C24.9408 18.3596 24.9462 18.2738 24.9826 18.1994C25.019 18.1249 25.0835 18.068 25.1619 18.0412L27.5685 17.2163C27.6285 17.1872 27.6774 17.1396 27.708 17.0805C27.7387 17.0214 27.7494 16.954 27.7387 16.8883L26.6794 10.0519C26.6275 9.73554 26.4085 9.46266 26.1083 9.34254C25.8766 9.24971 25.6707 9.10251 25.5079 8.91337C25.3451 8.72422 25.2302 8.49868 25.1729 8.25579L24.9792 7.46316C24.7834 6.63129 25.2984 5.79404 26.1264 5.59429L27.3229 5.30541C27.5235 5.25634 27.7319 5.24805 27.9358 5.28103C28.1396 5.31401 28.3348 5.38759 28.5097 5.49741C28.6853 5.60616 28.8372 5.74906 28.9565 5.91763C29.0759 6.08621 29.1601 6.27704 29.2043 6.47879L29.678 8.81804L31.5815 16.9184C31.7355 17.5739 31.8041 18.2465 31.7855 18.9195C31.7772 19.2239 31.7464 19.5832 31.4879 19.9983C31.2832 20.328 30.9836 20.5882 30.6285 20.7448L26.5928 22.5313C26.553 22.549 26.51 22.5581 26.4664 22.558Z" fill="black"/>
<path d="M22.2362 32H9.77386C9.64116 31.9999 9.51393 31.9471 9.4201 31.8533C9.32626 31.7595 9.27349 31.6322 9.27336 31.4995V25.3385C9.27287 25.1989 9.23009 25.0628 9.15065 24.948C9.0712 24.8332 8.95883 24.7452 8.82836 24.6955L5.73086 23.53C5.53049 23.4544 5.3665 23.3052 5.2723 23.1128C5.1781 22.9205 5.16078 22.6995 5.22386 22.4948L6.54411 18.2293C6.57662 18.123 6.63004 18.0244 6.70122 17.939C6.7724 17.8537 6.85991 17.7835 6.95861 17.7324C7.057 17.6808 7.16471 17.6493 7.27543 17.6399C7.38615 17.6304 7.49764 17.6432 7.60336 17.6774L12.0715 19.1088C12.1106 19.1213 12.1468 19.1414 12.1781 19.168C12.2094 19.1945 12.2352 19.2269 12.254 19.2634C12.2728 19.2999 12.2842 19.3397 12.2876 19.3806C12.291 19.4215 12.2863 19.4627 12.2737 19.5018C12.2612 19.5409 12.2411 19.5771 12.2146 19.6084C12.188 19.6398 12.1556 19.6655 12.1191 19.6843C12.0826 19.7031 12.0428 19.7145 12.0019 19.7179C11.961 19.7213 11.9198 19.7166 11.8807 19.704L7.41273 18.2728C7.38564 18.264 7.35706 18.2607 7.32868 18.2631C7.30029 18.2656 7.27269 18.2737 7.24748 18.2869C7.22216 18.3 7.19971 18.318 7.18144 18.3399C7.16318 18.3618 7.14946 18.3871 7.14111 18.4143L5.82086 22.6798C5.78711 22.7885 5.84436 22.9052 5.95086 22.9453L9.04836 24.1108C9.55673 24.302 9.89823 24.7955 9.89823 25.3387V31.375H22.1021V25.3385C22.1021 24.7953 22.4436 24.3019 22.952 24.1107L26.0495 22.9452C26.1009 22.9258 26.143 22.8875 26.1671 22.8382C26.1913 22.7889 26.1957 22.7322 26.1795 22.6797L24.8592 18.4142C24.8421 18.3588 24.8044 18.3135 24.7529 18.2867C24.7014 18.2598 24.6427 18.2549 24.5876 18.2725L20.0304 19.7322C19.9514 19.7575 19.8657 19.7504 19.792 19.7124C19.7183 19.6745 19.6627 19.6089 19.6374 19.5299C19.6121 19.451 19.6192 19.3652 19.6571 19.2915C19.695 19.2178 19.7607 19.1622 19.8396 19.1369L24.3969 17.6773C24.5026 17.6431 24.6141 17.6303 24.7248 17.6397C24.8355 17.6492 24.9432 17.6807 25.0416 17.7323C25.1403 17.7833 25.2278 17.8536 25.299 17.939C25.3702 18.0243 25.4236 18.123 25.4561 18.2293L26.7764 22.4947C26.8395 22.6993 26.8222 22.9204 26.728 23.1127C26.6338 23.3051 26.4697 23.4543 26.2694 23.5299L23.1719 24.6954C23.0414 24.745 22.929 24.833 22.8495 24.9478C22.7701 25.0626 22.7273 25.1988 22.7269 25.3384V31.4994C22.7267 31.6242 22.68 31.7444 22.5959 31.8365C22.5119 31.9287 22.3964 31.9862 22.2722 31.9978C22.2603 31.9993 22.2483 32.0001 22.2362 32Z" fill="black"/>
<path d="M5.49749 22.542C5.45524 22.542 5.41224 22.5334 5.37112 22.5152L1.37137 20.7446C1.01628 20.5879 0.716758 20.3277 0.511992 19.998C0.253492 19.583 0.222742 19.2236 0.214367 18.9194C0.195899 18.2463 0.264467 17.5737 0.418367 16.9182L2.32399 8.80849L2.79437 6.48449C2.88674 6.06836 3.13337 5.71986 3.49012 5.49736C3.66504 5.38758 3.86022 5.31402 4.06409 5.28104C4.26796 5.24806 4.47638 5.25633 4.67699 5.30536L5.87349 5.59424C6.70162 5.79411 7.21649 6.63136 7.02149 7.46061L6.82637 8.25849C6.76887 8.50091 6.65393 8.72595 6.49122 8.91463C6.32852 9.10331 6.12282 9.2501 5.89149 9.34261C5.74324 9.40245 5.61283 9.49936 5.51276 9.62405C5.41269 9.74874 5.34632 9.89704 5.31999 10.0547L4.26162 16.8856C4.25032 16.9517 4.26075 17.0196 4.29133 17.0792C4.32191 17.1389 4.371 17.187 4.43124 17.2164L6.83687 18.0409C6.87569 18.0542 6.91151 18.075 6.94228 18.1021C6.97305 18.1293 6.99817 18.1622 7.01621 18.1991C7.03425 18.2359 7.04485 18.276 7.04741 18.3169C7.04997 18.3579 7.04443 18.3989 7.03112 18.4377C7.01786 18.4766 6.99707 18.5124 6.96994 18.5432C6.9428 18.574 6.90986 18.5992 6.87299 18.6172C6.83612 18.6353 6.79606 18.6459 6.75509 18.6484C6.71412 18.6509 6.67305 18.6454 6.63424 18.632L4.21387 17.8024C4.2055 17.7995 4.19724 17.7963 4.18912 17.7927C3.9997 17.7092 3.8434 17.5651 3.74479 17.3831C3.64619 17.201 3.61086 16.9914 3.64437 16.7871L4.70274 9.95624C4.79074 9.41961 5.15712 8.96311 5.65937 8.76224C5.79787 8.70678 5.921 8.6188 6.01834 8.50573C6.11567 8.39266 6.18437 8.25782 6.21862 8.11261L6.41374 7.31474C6.52974 6.82174 6.22187 6.32124 5.72687 6.20174L4.53037 5.91286C4.28599 5.85374 4.03412 5.89461 3.82087 6.02761C3.60762 6.16061 3.46024 6.36886 3.40574 6.61424L2.93449 8.94199L1.02687 17.0611C0.885214 17.6641 0.822149 18.2829 0.839242 18.9021C0.847492 19.2001 0.882367 19.4104 1.04262 19.6677C1.18125 19.891 1.38406 20.0672 1.62449 20.1732L5.62424 21.9439C5.68971 21.9729 5.7432 22.0236 5.77577 22.0874C5.80834 22.1512 5.81802 22.2242 5.80317 22.2943C5.78832 22.3643 5.74985 22.4272 5.69421 22.4723C5.63856 22.5174 5.56912 22.542 5.49749 22.542Z" fill="black"/>
<path d="M18.6935 23.5482C18.0419 22.8965 16.9855 22.8965 16.3339 23.5482L16.204 23.678C16.1748 23.7073 16.1401 23.7304 16.1019 23.7463C16.0637 23.7621 16.0228 23.7702 15.9815 23.7702C15.9402 23.7702 15.8992 23.7621 15.8611 23.7463C15.8229 23.7304 15.7882 23.7073 15.759 23.678L15.6291 23.5482C14.9775 22.8965 13.9211 22.8965 13.2695 23.5482C12.6179 24.1998 12.6179 25.2562 13.2695 25.9078L15.4729 28.1112C15.6077 28.246 15.7907 28.3218 15.9814 28.3218C16.1722 28.3218 16.3551 28.246 16.49 28.1112L18.6934 25.9078C19.3451 25.2562 19.3451 24.1997 18.6935 23.5482Z" fill="#FC657E"/>
<path d="M15.8418 27.0977H15.8412C15.7794 27.0976 15.719 27.0791 15.6677 27.0447C15.6164 27.0102 15.5765 26.9613 15.553 26.9042L14.8288 25.1456L14.5778 25.632C14.5515 25.6829 14.5117 25.7257 14.4627 25.7556C14.4137 25.7854 14.3575 25.8012 14.3001 25.8012H12.356C12.2731 25.8012 12.1936 25.7683 12.135 25.7097C12.0764 25.6511 12.0435 25.5716 12.0435 25.4887C12.0435 25.4058 12.0764 25.3263 12.135 25.2677C12.1936 25.2091 12.2731 25.1762 12.356 25.1762H14.1097L14.5831 24.2591C14.6106 24.2062 14.6526 24.1623 14.7041 24.1324C14.7557 24.1025 14.8147 24.0879 14.8742 24.0902C14.9338 24.0928 14.9914 24.1123 15.0402 24.1466C15.089 24.1808 15.127 24.2283 15.1497 24.2835L15.8436 25.9687L16.2543 24.9831C16.2765 24.93 16.3128 24.884 16.3594 24.8502C16.406 24.8165 16.461 24.7962 16.5183 24.7917C16.5757 24.787 16.6333 24.7983 16.6846 24.8244C16.7359 24.8505 16.7789 24.8903 16.809 24.9395L17.114 25.4351L17.1938 25.3153C17.2224 25.2725 17.261 25.2374 17.3064 25.2132C17.3517 25.1889 17.4024 25.1762 17.4538 25.1762H19.6442C19.7271 25.1762 19.8066 25.2091 19.8652 25.2677C19.9238 25.3263 19.9567 25.4058 19.9567 25.4887C19.9567 25.5716 19.9238 25.6511 19.8652 25.7097C19.8066 25.7683 19.7271 25.8012 19.6442 25.8012H17.621L17.3633 26.1877C17.3346 26.2316 17.2951 26.2675 17.2486 26.2918C17.2021 26.3162 17.1502 26.3282 17.0977 26.3268C17.0453 26.3259 16.994 26.3118 16.9485 26.2858C16.903 26.2598 16.8648 26.2228 16.8373 26.1782L16.5965 25.787L16.1303 26.9056C16.1066 26.9625 16.0665 27.0111 16.0152 27.0453C15.9638 27.0795 15.9035 27.0977 15.8418 27.0977Z" fill="black"/>
<path d="M15.9819 28.6337C15.8464 28.6339 15.7122 28.6074 15.587 28.5557C15.4618 28.5039 15.3481 28.4279 15.2524 28.3321L13.049 26.1287C12.6747 25.7546 12.4688 25.2571 12.4688 24.728C12.4688 24.1988 12.6747 23.7013 13.049 23.3271C13.8212 22.5547 15.0781 22.5546 15.8505 23.3271L15.9804 23.457L16.1132 23.3271C16.4874 22.9528 16.9849 22.7468 17.514 22.7468C18.0431 22.7468 18.5406 22.9528 18.9149 23.3271C19.289 23.7012 19.4951 24.1987 19.4951 24.7278C19.4951 25.257 19.2891 25.7545 18.9149 26.1286L16.7115 28.332C16.6157 28.4278 16.502 28.5038 16.3768 28.5556C16.2516 28.6074 16.1174 28.6339 15.9819 28.6337ZM14.4497 23.3724C14.2717 23.3721 14.0953 23.407 13.9308 23.475C13.7662 23.5431 13.6167 23.643 13.4909 23.7689C13.3646 23.8946 13.2644 24.044 13.1963 24.2086C13.1281 24.3732 13.0933 24.5497 13.0938 24.7278C13.0938 25.09 13.2348 25.4306 13.4909 25.6867L15.6943 27.8901C15.7706 27.9662 15.8741 28.0089 15.9819 28.0089C16.0897 28.0089 16.1931 27.9662 16.2695 27.8901L18.4729 25.6867C18.729 25.4306 18.87 25.0901 18.87 24.7278C18.87 24.3656 18.729 24.0251 18.4729 23.7691C18.3472 23.6428 18.1978 23.5426 18.0332 23.4745C17.8686 23.4063 17.6921 23.3715 17.514 23.372C17.3359 23.3715 17.1594 23.4063 16.9948 23.4745C16.8302 23.5426 16.6808 23.6428 16.5551 23.7691L16.4253 23.899C16.3075 24.0164 16.1481 24.0823 15.9818 24.0823C15.8156 24.0823 15.6561 24.0164 15.5384 23.899L15.4085 23.7691C15.2827 23.6431 15.1332 23.5432 14.9687 23.4751C14.8042 23.407 14.6278 23.3722 14.4497 23.3724Z" fill="black"/>
</g>
<defs>
<clipPath id="clip0_833_12132">
<rect width="32" height="32" fill="white"/>
</clipPath>
</defs>
</svg>
