<svg width="18" height="26" viewBox="0 0 18 26" fill="none" xmlns="http://www.w3.org/2000/svg">
<path d="M8.61068 0.253906C3.89203 0.253906 0.0507812 4.0914 0.0507812 8.81005C0.0507812 12.9905 3.07347 16.48 7.02987 17.2222V19.8081H4.78695C3.99467 19.8081 3.35383 20.4515 3.35383 21.2425C3.35383 22.0335 3.99467 22.6769 4.78695 22.6769H7.02987V24.2877C7.02987 25.08 7.67321 25.7221 8.46549 25.7221C9.25777 25.7221 9.90236 25.0775 9.90236 24.2877V22.6769H12.2579C13.0502 22.6769 13.6923 22.031 13.6923 21.2425C13.6923 20.4477 13.0502 19.8081 12.2579 19.8081H9.90236V17.2686C14.0215 16.6427 17.1656 13.0881 17.1656 8.81005C17.1656 4.0914 13.3293 0.253906 8.61068 0.253906ZM8.61068 14.4962C5.47284 14.4962 2.92202 11.9441 2.92202 8.80754C2.92202 5.67096 5.47284 3.11889 8.61068 3.11889C11.746 3.11889 14.2981 5.67096 14.2981 8.80754C14.2981 11.9441 11.7473 14.4962 8.61068 14.4962Z" fill="#131313"/>
</svg>
