<svg width="41" height="53" viewBox="0 0 41 53" fill="none" xmlns="http://www.w3.org/2000/svg">
<path d="M39.9892 2.51465H1.00977L6.06381 50.8602V50.8627C6.06381 51.815 11.6789 52.5852 20.5005 52.5852C29.3221 52.5852 34.9372 51.8138 34.9372 50.8627V50.8531L39.9892 2.51465Z" fill="#F0F5F9"/>
<path d="M4.13745 17.6586L7.52697 51.6117C8.86936 52.037 13.0655 52.586 20.5 52.586C27.9345 52.586 32.126 52.0386 33.4709 51.6113L36.86 17.6582L4.13745 17.6586Z" fill="#5FC4F8"/>
<path d="M20.4996 19.2183C29.5359 19.2183 36.8613 18.5202 36.8613 17.659C36.8613 16.7978 29.5359 16.0996 20.4996 16.0996C11.4633 16.0996 4.13794 16.7978 4.13794 17.659C4.13794 18.5202 11.4633 19.2183 20.4996 19.2183Z" fill="#3DBCE9"/>
<path opacity="0.5" d="M23.083 52.5707C22.4122 52.5812 21.7209 52.5863 21.009 52.586C17.4944 52.6224 13.9808 52.4532 10.486 52.0792C7.97676 51.7666 6.5735 51.3363 6.5735 50.8602L1.51904 2.51465H5.67209L10.7282 50.8602C10.7282 51.3363 12.1311 51.7666 14.6353 52.0792C17.4408 52.389 20.2605 52.553 23.083 52.5707Z" fill="white"/>
<path opacity="0.5" d="M30.5411 52.5756C30.1063 52.586 29.6604 52.586 29.2099 52.586C25.6952 52.6224 22.1814 52.4532 18.6865 52.0792C16.1773 51.7666 14.7744 51.3363 14.7744 50.8602L9.71997 2.51465H12.3017L17.3553 50.8602C17.3553 51.3363 18.7581 51.7666 21.2673 52.0792C24.3472 52.4146 27.4431 52.5803 30.5411 52.5756Z" fill="white"/>
<path d="M20.5009 4.61763C31.2649 4.61763 39.9908 3.67663 39.9908 2.51584C39.9908 1.35506 31.2649 0.414062 20.5009 0.414062C9.73692 0.414062 1.01099 1.35506 1.01099 2.51584C1.01099 3.67663 9.73692 4.61763 20.5009 4.61763Z" fill="#F0F5F9"/>
<path d="M20.5004 5.03138C15.8845 5.05987 11.2702 4.85368 6.67527 4.4136C0.597656 3.75813 0.597656 2.94988 0.597656 2.51553C0.597656 2.08118 0.597656 1.27335 6.67527 0.617885C11.2702 0.177432 15.8845 -0.0288998 20.5004 -0.000310407C25.1168 -0.0289561 29.7317 0.177376 34.3272 0.617885C40.4048 1.27335 40.4048 2.08118 40.4048 2.51553C40.4048 2.94988 40.4048 3.75772 34.3272 4.4136C29.7317 4.85374 25.1168 5.05993 20.5004 5.03138ZM1.48416 2.51553C2.41705 3.23186 9.40932 4.20325 20.5012 4.20325C31.5931 4.20325 38.5854 3.23186 39.5183 2.51553C38.5858 1.79962 31.5935 0.827815 20.5004 0.827815C9.40725 0.827815 2.41663 1.79962 1.48416 2.51553Z" fill="#2F3A5A"/>
<path d="M20.5001 52.9999C16.9675 53.0368 13.4357 52.8673 9.92287 52.4923C6.2344 52.0335 5.67169 51.431 5.65057 50.8965L0.598183 2.55799C0.590533 2.50297 0.594034 2.44696 0.60848 2.39332C0.622925 2.33967 0.648018 2.28948 0.682265 2.24573C0.716512 2.20199 0.759212 2.16558 0.807822 2.13868C0.856432 2.11178 0.909959 2.09494 0.965214 2.08916C1.02047 2.08338 1.07632 2.08878 1.12945 2.10503C1.18257 2.12129 1.23188 2.14807 1.27444 2.18378C1.317 2.21949 1.35194 2.26339 1.37718 2.31289C1.40241 2.36238 1.41743 2.41645 1.42134 2.47187L6.4729 50.7859C6.47458 50.7936 6.47582 50.8013 6.47663 50.8091C6.87744 51.2662 10.7506 52.1718 20.5001 52.1718C30.2306 52.1718 34.107 51.27 34.5227 50.8124L39.5776 2.47187C39.5815 2.41645 39.5965 2.36238 39.6218 2.31289C39.647 2.26339 39.6819 2.21949 39.7245 2.18378C39.7671 2.14807 39.8164 2.12129 39.8695 2.10503C39.9226 2.08878 39.9785 2.08338 40.0337 2.08916C40.089 2.09494 40.1425 2.11178 40.1911 2.13868C40.2397 2.16558 40.2824 2.20199 40.3167 2.24573C40.3509 2.28948 40.376 2.33967 40.3905 2.39332C40.4049 2.44696 40.4084 2.50297 40.4008 2.55799L35.3513 50.8596V50.8629C35.3513 51.4054 34.8436 52.0223 31.0781 52.4919C27.565 52.8671 24.033 53.0367 20.5001 52.9999Z" fill="#2F3A5A"/>
</svg>
