<svg width="28" height="32" viewBox="0 0 28 32" fill="none" xmlns="http://www.w3.org/2000/svg">
<path d="M1.38841 15.6062C1.38841 15.6062 2.65266 17.4636 5.30241 19.0357C5.30241 19.0357 3.38335 2.81681 15.8873 0C12.6837 11.7576 19.9623 15.0734 22.6155 8.86162C27.0463 14.7773 23.6821 19.9384 23.6821 19.9384C25.4989 20.2002 27.025 18.2153 27.025 18.2153C27.0387 18.4598 27.0463 18.706 27.0463 18.9539C27.0464 26.1591 21.2054 32 14.0002 32C6.79504 32 0.954102 26.1591 0.954102 18.9539C0.954102 17.7965 1.1056 16.6746 1.38841 15.6062Z" fill="#FF6536"/>
<path d="M27.0249 18.2153C27.0249 18.2153 25.4987 20.2002 23.6819 19.9384C23.6819 19.9384 27.0461 14.7773 22.6153 8.86162C19.9621 15.0734 12.6836 11.7576 15.8871 0C15.2174 0.150875 14.5894 0.340437 14 0.563625V32C21.2052 32 27.0461 26.1591 27.0461 18.9539C27.0461 18.7059 27.0385 18.4598 27.0249 18.2153Z" fill="#FF421D"/>
<path d="M8.27832 26.2785C8.27832 29.4383 10.8399 32 13.9998 32C17.1597 32 19.7213 29.4383 19.7213 26.2785C19.7213 24.5871 18.9875 23.0673 17.8208 22.0198C15.6087 25.0251 12.4563 20.4663 14.9131 17.1372C14.9131 17.1372 8.27832 17.9686 8.27832 26.2785Z" fill="#FBBF00"/>
<path d="M19.7215 26.2785C19.7215 24.5871 18.9877 23.0673 17.821 22.0198C15.6089 25.0251 12.4565 20.4663 14.9132 17.1372C14.9132 17.1372 14.5527 17.1825 14 17.357V32C17.1599 32 19.7215 29.4383 19.7215 26.2785Z" fill="#FFA900"/>
</svg>
