<svg width="24" height="24" viewBox="0 0 24 24" fill="none" xmlns="http://www.w3.org/2000/svg">
<path d="M6.25 3.75V6.172C6.25799 6.42691 6.27902 6.68124 6.313 6.934C6.313 6.957 6.3 6.977 6.3 7C6.30447 7.05373 6.31521 7.10676 6.332 7.158C6.50096 8.47202 7.01009 9.71915 7.809 10.776C8.09644 11.1574 8.25131 11.6224 8.25 12.1V19.5C8.25079 20.0965 8.4881 20.6683 8.90989 21.0901C9.33167 21.5119 9.90351 21.7492 10.5 21.75H13.5C14.0965 21.7492 14.6683 21.5119 15.0901 21.0901C15.5119 20.6683 15.7492 20.0965 15.75 19.5V12.1C15.7483 11.6217 15.9031 11.156 16.191 10.774C16.9899 9.71715 17.499 8.47002 17.668 7.156C17.6846 7.1054 17.6954 7.05306 17.7 7C17.7 6.977 17.689 6.957 17.687 6.934C17.721 6.68124 17.742 6.42691 17.75 6.172V3.75C17.75 3.35218 17.592 2.97064 17.3107 2.68934C17.0294 2.40804 16.6478 2.25 16.25 2.25H7.75C7.35218 2.25 6.97064 2.40804 6.68934 2.68934C6.40804 2.97064 6.25 3.35218 6.25 3.75ZM14.25 12.102V19.502C14.2497 19.7008 14.1706 19.8914 14.03 20.032C13.8894 20.1726 13.6988 20.2517 13.5 20.252H10.5C10.3012 20.2517 10.1106 20.1726 9.96996 20.032C9.82937 19.8914 9.75026 19.7008 9.75 19.502V12.1C9.7506 11.2928 9.48721 10.5076 9 9.864C8.52567 9.23242 8.1792 8.51433 7.98 7.75H16.02C15.8208 8.51433 15.4743 9.23242 15 9.864C14.5128 10.5076 14.2494 11.2928 14.25 12.1V12.102ZM16.25 3.75V6.172C16.25 6.198 16.244 6.224 16.244 6.25H7.756C7.756 6.224 7.75 6.198 7.75 6.172V3.75H16.25ZM12 12.25C12.1989 12.25 12.3897 12.329 12.5303 12.4697C12.671 12.6103 12.75 12.8011 12.75 13V15C12.75 15.1989 12.671 15.3897 12.5303 15.5303C12.3897 15.671 12.1989 15.75 12 15.75C11.8011 15.75 11.6103 15.671 11.4697 15.5303C11.329 15.3897 11.25 15.1989 11.25 15V13C11.25 12.8011 11.329 12.6103 11.4697 12.4697C11.6103 12.329 11.8011 12.25 12 12.25Z" fill="white"/>
</svg>
