<svg width="32" height="32" viewBox="0 0 32 32" fill="none" xmlns="http://www.w3.org/2000/svg">
<g clip-path="url(#clip0_727_15405)">
<mask id="mask0_727_15405" style="mask-type:luminance" maskUnits="userSpaceOnUse" x="0" y="0" width="32" height="32">
<path d="M0 9.34601e-05H31.9999V32H0V9.34601e-05Z" fill="white"/>
</mask>
<g mask="url(#mask0_727_15405)">
<path d="M31.9999 16C31.9999 24.8366 24.8365 32 16 32C7.16342 32 0 24.8366 0 16C0 7.16351 7.16342 9.34601e-05 16 9.34601e-05C24.8365 9.34601e-05 31.9999 7.16351 31.9999 16Z" fill="#FFCF11"/>
<path d="M26.9374 16C26.9374 22.0406 22.0406 26.9375 16 26.9375C9.95936 26.9375 5.0625 22.0406 5.0625 16C5.0625 9.95943 9.95936 5.06257 16 5.06257C22.0406 5.06257 26.9374 9.95943 26.9374 16Z" fill="#FFE854"/>
<path d="M20.079 25.7019L16 24.3769L11.9211 25.7019C11.9211 25.7019 -0.479096 25.6667 1.91021 30.6709H30.0898C32.4791 25.6667 20.079 25.7019 20.079 25.7019Z" fill="#0C99E6"/>
<path d="M30.09 30.6709C29.7054 31.4615 26.8878 32.1947 21.455 31.7972C16.0223 31.3997 11.0312 30.2512 11.0312 30.2512V29.3576C11.0312 29.3576 21.19 28.3079 25.0106 28.3741C28.8312 28.4404 30.4875 29.8537 30.09 30.6709Z" fill="#FFAEA1"/>
<path d="M25.2516 28.4574C25.2531 28.4329 25.2538 28.4073 25.2541 28.381C25.1735 28.3783 25.0932 28.3754 25.0106 28.374C21.19 28.3077 11.0312 29.3576 11.0312 29.3576V30.2512C11.0312 30.2512 13.9131 30.9142 17.6805 31.407C18.0808 31.3199 18.4787 31.232 18.8717 31.1438C20.4398 30.7919 21.7708 30.4699 22.7208 30.2125C23.2523 30.0685 23.6542 29.948 23.9496 29.8441C24.3225 29.7129 25.1958 29.4057 25.2516 28.4574Z" fill="#F4958C"/>
<path d="M1.91014 30.6709C2.33401 31.4415 4.05232 32.5481 9.30837 31.6867C14.5644 30.8254 23.9065 28.7551 23.9286 28.3796C23.9507 28.0042 23.0669 27.2919 21.9185 27.2919C20.7701 27.2919 20.5935 27.6259 19.9309 27.6259C19.2684 27.6259 18.4292 26.5853 17.7225 26.7288C17.0158 26.8724 16.5962 28.3079 16.5962 28.3079C16.5962 28.3079 9.90468 27.8662 6.34906 28.087C2.79351 28.3079 1.42427 29.7875 1.91014 30.6709Z" fill="#FFCFC2"/>
<path d="M4.56026 30.6708C4.07438 29.7874 5.44363 28.3078 8.99918 28.0869C9.36812 28.064 9.77118 28.0483 10.1967 28.0384C8.80831 28.0139 7.433 28.0196 6.34906 28.0869C2.79351 28.3078 1.42427 29.7874 1.91014 30.6708C2.27539 31.3349 3.60238 32.2484 7.32619 31.9369C5.56963 31.7439 4.82057 31.1441 4.56026 30.6708Z" fill="#FFAEA1"/>
<path d="M1.28516 26.0994V25.0725C1.28516 24.8626 1.59434 24.8406 1.68266 25.0725C1.77103 25.3043 1.74484 26.1224 1.8739 26.3483V26.7288L1.28516 26.0994Z" fill="#F4958C"/>
<path d="M30.7147 26.0994V25.0725C30.7147 24.8626 30.4055 24.8406 30.3172 25.0725C30.2289 25.3043 30.255 26.1224 30.126 26.3483V26.7288L30.7147 26.0994Z" fill="#F4958C"/>
<path d="M31.325 25.528C31.2753 25.3872 31.06 25.4452 30.8943 25.6274C30.7786 25.7547 30.3394 26.1568 30.0542 26.4131C29.9869 26.4736 29.9 26.5077 29.8095 26.509C29.719 26.5103 29.6311 26.4789 29.562 26.4204C29.3623 26.2517 29.3917 25.9353 29.6196 25.8075C29.944 25.6254 30.324 25.3774 30.3974 25.1802C30.5299 24.824 30.207 24.7826 30.033 24.9069C29.8591 25.0311 27.6672 25.6357 27.6672 25.6357L24.03 20.7329C24.03 20.7329 23.8091 13.6659 22.9257 12.9371C22.0424 12.2084 17.4577 11.4355 17.4577 11.4355V9.84533H14.5425V11.4355C14.5425 11.4355 9.95785 12.2084 9.07447 12.9371C8.1911 13.6659 7.97023 20.7329 7.97023 20.7329L4.33299 25.6357C4.33299 25.6357 2.14112 25.0311 1.96718 24.9069C1.79325 24.7826 1.47031 24.824 1.60281 25.1802C1.67618 25.3774 2.05612 25.6254 2.38062 25.8075C2.60849 25.9353 2.63793 26.2517 2.43824 26.4204C2.36916 26.4789 2.28124 26.5103 2.19075 26.509C2.10026 26.5077 2.01331 26.4736 1.946 26.4131C1.66081 26.1568 1.22162 25.7547 1.10587 25.6274C0.94025 25.4452 0.724937 25.3872 0.675249 25.528C0.625562 25.6688 1.36262 26.7288 1.53656 26.969C1.71043 27.2092 2.47237 27.706 2.94443 27.615C3.41649 27.5238 5.06174 26.6294 5.06174 26.6294C5.06174 26.6294 9.78779 23.0739 10.2295 21.815C10.6712 20.5562 11.0245 16.3094 11.0245 16.3094H20.9757C20.9757 16.3094 21.3291 20.5562 21.7708 21.815C22.2124 23.0739 26.9385 26.6294 26.9385 26.6294C26.9385 26.6294 28.5837 27.5238 29.0558 27.615C29.5279 27.706 30.2898 27.2092 30.4637 26.969C30.6376 26.7288 31.3747 25.6688 31.325 25.528Z" fill="#FFAEA1"/>
<path d="M14.542 11.4355C14.542 11.4355 16.7725 11.6122 16.9934 9.84546H14.542V11.4355Z" fill="#F4958C"/>
<path d="M18.7917 4.7924C18.7917 4.7924 18.9464 3.63852 18.3907 2.99428C18.3075 2.89778 18.1494 2.96346 18.1595 3.09046L18.1661 3.17215C18.1661 3.17215 17.8472 2.55003 17.0265 2.30578C16.9126 2.27184 16.8167 2.39715 16.8774 2.49946L16.9148 2.56259C16.9148 2.56259 16.4201 2.0679 14.7806 2.03372C14.6601 2.03122 14.6005 2.17915 14.6884 2.2614L14.7824 2.34922C14.7824 2.34922 14.165 2.45809 13.3471 2.95328C13.2462 3.01434 13.2713 3.16759 13.3864 3.1939L13.4533 3.20921C13.1368 3.57321 12.9618 3.95227 12.8726 4.19652C12.8338 4.30271 12.9377 4.40502 13.0433 4.36458C13.0433 4.36458 12.792 5.53033 13.0963 6.53614L16.0004 7.19214L18.9045 6.53614C18.9045 6.53614 19.0804 5.69077 18.7917 4.7924Z" fill="#8C4F5C"/>
<path d="M14.812 4.73436C13.9564 4.55086 13.3476 4.21498 13.0428 4.36473C13.0428 4.36473 12.7915 5.53042 13.0958 6.53629L14.8884 6.94116L14.812 4.73436Z" fill="#7B3C47"/>
<path d="M18.2159 7.09194C18.2159 7.09194 18.5013 6.39694 19.0101 6.55831C19.519 6.71962 18.9979 8.22568 18.0049 8.32056L18.2159 7.09194Z" fill="#FFAEA1"/>
<path d="M13.7842 7.09194C13.7842 7.09194 13.4988 6.39694 12.9899 6.55831C12.4811 6.71962 13.0022 8.22568 13.9952 8.32056L13.7842 7.09194Z" fill="#F4958C"/>
<path d="M18.2877 6.21482C18.2586 6.14394 18.2351 6.04244 18.2129 5.92519L16.0004 5.28351L13.7878 5.92519C13.7656 6.04244 13.7421 6.14394 13.713 6.21482C13.5822 6.53369 13.418 6.59863 13.3961 6.60607C13.3945 6.65626 13.3936 6.70647 13.3936 6.75669C13.3936 8.67625 14.5607 10.9275 16.0004 10.9275C17.44 10.9275 18.6071 8.67625 18.6071 6.75669C18.607 6.70647 18.6062 6.65626 18.6045 6.60607C18.5827 6.59863 18.4184 6.53369 18.2877 6.21482Z" fill="#FFCFC2"/>
<path d="M14.29 6.75663C14.29 6.39894 14.331 6.06044 14.4064 5.74576L13.7878 5.92513C13.7656 6.04238 13.7421 6.14388 13.713 6.21475C13.5822 6.53363 13.418 6.59863 13.3962 6.606C13.3946 6.65588 13.3936 6.706 13.3936 6.75663C13.3936 8.67618 14.5607 10.9275 16.0004 10.9275C16.1532 10.9275 16.3029 10.9019 16.4485 10.8542C15.2225 10.4529 14.29 8.47243 14.29 6.75663Z" fill="#FFAEA1"/>
<path d="M15.9996 4.93136C15.0884 4.93136 14.7237 4.64249 14.4084 4.64174H14.4081C14.3488 4.64128 14.29 4.65247 14.235 4.67468C13.9399 4.79305 13.8723 5.47636 13.7871 5.92505H18.2121C18.1268 5.47636 18.0593 4.79305 17.7642 4.67468C17.7092 4.65247 17.6504 4.64128 17.5911 4.64174H17.5908C17.2755 4.64249 16.9109 4.93136 15.9996 4.93136Z" fill="white"/>
<path d="M15.5028 5.42842C15.5028 5.29664 15.5551 5.17026 15.6483 5.07708C15.7415 4.98389 15.8679 4.93155 15.9997 4.93155C15.0884 4.93155 14.7237 4.64267 14.4085 4.64192H14.4081C14.3488 4.64149 14.29 4.6527 14.235 4.67492C13.9399 4.79323 13.8724 5.47654 13.7871 5.92529H15.9997C15.8679 5.92529 15.7415 5.87294 15.6483 5.77976C15.5551 5.68658 15.5028 5.5602 15.5028 5.42842Z" fill="#EBF0F3"/>
<path d="M20.9756 16.3094L20.2045 18.9453C20.1211 19.2303 20.0787 19.5258 20.0788 19.8228V25.7019H11.9213V19.8228C11.9213 19.5258 11.879 19.2304 11.7955 18.9453L11.0244 16.3094C11.4282 16.3094 11.755 15.9826 11.755 15.5788V12.0026C12.3844 11.8526 13.0125 11.7226 13.5125 11.6251V13.3251C13.5125 14.6989 14.6262 15.8126 16 15.8126C17.3738 15.8126 18.4875 14.6989 18.4875 13.3251V11.6251C18.9875 11.7226 19.6156 11.8526 20.245 12.0026V15.5788C20.245 15.9826 20.5719 16.3094 20.9756 16.3094Z" fill="#3E4A68"/>
<path d="M15.9105 19.1875C13.571 19.1875 12.8634 18.8425 12.4388 18.2577L11.0244 16.3094L11.7955 18.9453C11.879 19.2303 11.9213 19.5258 11.9213 19.8227V25.7019H13.25V20.0331C13.2497 19.8612 13.2274 19.69 13.1838 19.5237C15.16 19.4737 15.9105 19.1875 15.9105 19.1875Z" fill="#303A59"/>
</g>
</g>
<defs>
<clipPath id="clip0_727_15405">
<rect width="32" height="32" fill="white"/>
</clipPath>
</defs>
</svg>
