<svg width="9" height="14" viewBox="0 0 9 14" fill="none" xmlns="http://www.w3.org/2000/svg">
<path d="M1.20986 0.289208C1.11613 0.382172 1.04174 0.492771 0.990969 0.614631C0.940201 0.73649 0.914063 0.867196 0.914063 0.999207C0.914063 1.13122 0.940201 1.26192 0.990969 1.38378C1.04174 1.50564 1.11613 1.61624 1.20986 1.70921L5.78986 6.28921C5.88359 6.38217 5.95798 6.49277 6.00875 6.61463C6.05952 6.73649 6.08566 6.8672 6.08566 6.99921C6.08566 7.13122 6.05952 7.26193 6.00875 7.38378C5.95798 7.50564 5.88359 7.61624 5.78986 7.70921L1.20986 12.2892C1.11613 12.3822 1.04174 12.4928 0.990969 12.6146C0.940201 12.7365 0.914063 12.8672 0.914063 12.9992C0.914062 13.1312 0.940201 13.2619 0.990969 13.3838C1.04174 13.5056 1.11613 13.6162 1.20986 13.7092C1.39722 13.8955 1.65067 14 1.91486 14C2.17905 14 2.4325 13.8955 2.61986 13.7092L7.20986 9.11921C7.77166 8.55671 8.08722 7.79421 8.08722 6.99921C8.08722 6.20421 7.77166 5.44171 7.20986 4.87921L2.61986 0.289208C2.4325 0.102958 2.17905 -0.00158596 1.91486 -0.00158596C1.65067 -0.00158596 1.39722 0.102958 1.20986 0.289208Z" fill="#42A004"/>
</svg>
