<svg width="32" height="32" viewBox="0 0 32 32" fill="none" xmlns="http://www.w3.org/2000/svg">
<circle cx="16" cy="16" r="16" fill="#D9ECCD"/>
<g clip-path="url(#clip0_1948_86771)">
<path d="M22.5913 14.076C22.2467 14.0247 21.8353 14 21.3333 14C19.6193 14 18.046 15.8693 17.7227 16.268C17.3267 16.0987 16.8673 15.9767 16.326 15.9847C15.028 16.014 13.8707 16.658 13.0947 17.23C13.4087 15.9887 13.3767 14.6813 13.348 13.5747C13.332 12.94 13.3167 12.3753 13.3793 12.0007H14.3753C14.884 12.0007 15.3407 11.718 15.568 11.264L15.866 10.6673H15.9927C16.422 10.6673 16.6593 10.3273 16.666 10.0007C16.6667 9.03267 15.852 8.004 14.342 8H14.33C13.2207 8.00467 12.346 8.76467 12.3267 8.78333C8.006 12.1073 8.00133 17.4213 8 19.1673C8 19.974 8.33133 20.7547 8.91067 21.3087C10.2093 22.55 12.8447 24 16 24C19.074 24 21.3393 23.2033 22.698 22.534C23.5013 22.1387 24 21.336 24 20.4393V15.7233C24 14.9027 23.394 14.194 22.5913 14.076ZM23.3333 20.4393C23.3333 21.08 22.9773 21.6533 22.4033 21.936C21.108 22.5733 18.9453 23.3333 16 23.3333C13.0547 23.3333 10.5807 21.9833 9.372 20.8267C8.91667 20.3913 8.666 19.802 8.66667 19.1673C8.668 17.5027 8.672 12.436 12.75 9.298C12.7573 9.29133 13.4813 8.668 14.3367 8.66667C15.548 8.668 16 9.48533 15.9933 10H14.9933C14.7253 10 14.664 9.81733 14.66 9.66333C14.658 9.48133 14.5093 9.33333 14.3267 9.33333C14.1427 9.33333 13.9933 9.48267 13.9933 9.66667C13.9933 10.0687 14.2593 10.6667 14.9933 10.6667H15.1207L14.972 10.9647C14.8587 11.192 14.6293 11.3333 14.3753 11.3333H13.1193C12.978 11.3333 12.8527 11.4227 12.8047 11.5553C12.6407 12.02 12.658 12.7133 12.6807 13.5913C12.7173 15.006 12.77 16.7627 12.0433 18.1773C12.0173 18.2247 11.9993 18.276 11.9993 18.334C11.9993 18.518 12.1487 18.6673 12.3327 18.6673C12.4327 18.6673 12.5167 18.6293 12.5773 18.56C12.5947 18.5413 14.3107 16.7127 16.3327 16.6673C17.822 16.6673 18.6887 17.8027 18.722 17.852C18.824 18.0047 19.0313 18.0447 19.184 17.944C19.3367 17.842 19.3787 17.636 19.2773 17.4833C19.254 17.4487 18.9213 16.9927 18.3227 16.592C18.8853 15.9233 20.104 14.6673 21.3327 14.6673C21.8013 14.6673 22.1807 14.6893 22.4927 14.7367C22.972 14.8067 23.3327 15.2313 23.3327 15.724V20.44L23.3333 20.4393Z" fill="#338000"/>
</g>
<defs>
<clipPath id="clip0_1948_86771">
<rect width="16" height="16" fill="white" transform="translate(8 8)"/>
</clipPath>
</defs>
</svg>
