<svg width="31" height="32" viewBox="0 0 31 32" fill="none" xmlns="http://www.w3.org/2000/svg">
<path d="M29.8628 16.7434C29.8628 16.7434 24.1074 12.0344 19.3987 18.313C19.3987 18.313 15.2129 14.6506 10.5039 18.313L9.98058 9.41832C9.98058 9.41832 9.74943 9.10064 9.39082 8.63718L9.677 8.66631C9.677 8.66631 11.5308 8.66631 11.8395 7.97376L12.8682 8.92191C13.2747 9.26381 13.8798 9.22043 14.2336 8.82404L16.7773 5.97216C16.9269 5.80455 17.0145 5.59069 17.0255 5.36626C17.0365 5.14184 16.9702 4.92043 16.8377 4.73898L14.0019 1.04688L5.66077 4.85663C5.66077 4.85663 5.35113 4.9929 5.27158 5.23271C4.74811 6.80228 0.5625 21.9755 0.5625 23.0217V24.2363C0.5625 24.4624 0.663668 24.6744 0.841862 24.8135C1.06872 24.9913 2.19775 25.3027 2.65553 25.6378C4.63023 27.082 7.70345 29.6082 11.0269 30.3468C15.7357 31.3932 21.4911 29.8234 21.4911 29.8234C21.4911 29.8234 25.1538 31.9165 29.8625 31.3931V16.7434" fill="#F6BF9B"/>
<path d="M30.1942 16.3379C30.1726 16.3208 29.6263 15.8754 28.7253 15.4269C27.8248 14.9799 26.5653 14.5257 25.1162 14.5246C24.1513 14.5239 23.1032 14.7305 22.0547 15.2736C21.0054 15.8161 19.9605 16.6903 18.9801 17.9986L19.3985 18.3127L19.7432 17.919C19.7198 17.8989 19.224 17.4672 18.3774 17.0331C17.5316 16.6002 16.3295 16.1624 14.9027 16.1616C13.477 16.1592 11.8349 16.6115 10.1826 17.8998L10.5041 18.3127L11.0262 18.2818L10.5029 9.38743C10.497 9.28731 10.4625 9.19098 10.4035 9.10983C10.4014 9.10684 10.1673 8.78533 9.80478 8.31681L9.39075 8.6368L9.33803 9.1572L9.6239 9.18648L9.67694 9.18924C9.69434 9.18862 10.1775 9.18977 10.7314 9.09496C11.0095 9.04637 11.3053 8.97602 11.5855 8.85124C11.7256 8.78801 11.863 8.71076 11.9912 8.60537C12.1184 8.50037 12.2387 8.36287 12.3175 8.18629L11.8397 7.97338L11.4849 8.35812L12.5136 9.30619L12.5316 9.32213C12.8026 9.55043 13.1457 9.67545 13.5001 9.67507C13.7124 9.67525 13.9223 9.6305 14.1161 9.54377C14.3098 9.45704 14.483 9.33028 14.6243 9.17184L17.1681 6.31989C17.4143 6.04407 17.5503 5.68726 17.5502 5.31755C17.5503 4.99858 17.449 4.68784 17.261 4.43019L17.2532 4.41969L14.4174 0.727961C14.3453 0.634181 14.2436 0.567572 14.1287 0.538975C14.0139 0.510378 13.8928 0.521475 13.7851 0.570461L5.44366 4.38014L5.66102 4.85617L5.44994 4.37746C5.42772 4.38765 5.32149 4.43432 5.18706 4.53227C5.05654 4.63222 4.87627 4.78106 4.77572 5.06693C4.70444 5.28046 4.58258 5.68789 4.41703 6.2585C3.83922 8.25006 2.75036 12.1758 1.80397 15.7233C1.33094 17.4971 0.893842 19.1755 0.573859 20.4718C0.413982 21.12 0.283383 21.6724 0.191795 22.0969C0.145733 22.3095 0.109481 22.49 0.0840356 22.6382C0.0585902 22.7906 0.0414989 22.8951 0.0400427 23.0214V24.236C0.039123 24.618 0.214022 24.9863 0.519673 25.2252C0.60076 25.2875 0.665753 25.3204 0.736724 25.356C0.97562 25.4716 1.29146 25.5812 1.60968 25.7075C1.92162 25.8278 2.23302 25.9721 2.34706 26.0599C3.32311 26.7733 4.59814 27.7768 6.05649 28.6989C7.516 29.6208 9.16228 30.4669 10.914 30.8572C12.1403 31.1297 13.4189 31.2294 14.6491 31.2294C18.3376 31.2278 21.6038 30.3339 21.6293 30.3282L21.4913 29.8234L21.2317 30.2776C21.2763 30.3004 24.2378 31.9964 28.3355 32.0002C28.8475 32.0002 29.3771 31.9733 29.9205 31.9132C30.0584 31.8978 30.1846 31.8283 30.2713 31.7199C30.358 31.6116 30.398 31.4732 30.3827 31.3353C30.3752 31.267 30.3542 31.2009 30.3211 31.1407C30.2879 31.0805 30.2433 31.0274 30.1896 30.9845C30.1359 30.9415 30.0743 30.9096 30.0083 30.8905C29.9423 30.8714 29.8732 30.8655 29.8049 30.8731C29.317 30.927 28.8264 30.9538 28.3355 30.9536C26.4336 30.9539 24.7768 30.5545 23.6002 30.1545C23.0118 29.9549 22.5439 29.7555 22.226 29.6073C22.1043 29.551 21.984 29.492 21.865 29.4303L21.7757 29.3828L21.755 29.3713L21.7508 29.369C21.6302 29.3007 21.4875 29.2826 21.3536 29.3187L21.321 29.3273C20.9772 29.4187 17.9502 30.1845 14.6485 30.183C13.4753 30.1833 12.2685 30.0866 11.1404 29.8358C9.56857 29.4875 8.01655 28.7013 6.61483 27.8146C5.21227 26.9278 3.96315 25.9461 2.96411 25.2153C2.79887 25.0953 2.61861 25.0039 2.42731 24.9162C2.14227 24.7869 1.83455 24.6731 1.58248 24.5755C1.45678 24.5274 1.34534 24.4833 1.26449 24.4476L1.17228 24.4043L1.15404 24.3941L1.09419 24.4911L1.16454 24.4016L1.15404 24.3941L1.09419 24.4911L1.16454 24.4016C1.11419 24.3614 1.08637 24.3061 1.08576 24.236V23.0213H1.08606C1.08637 22.9959 1.10315 22.8693 1.1355 22.7025C1.25644 22.0615 1.58002 20.7289 2.00072 19.0943C2.6321 16.6387 3.48475 13.4811 4.22489 10.8025C4.59484 9.46339 4.93674 8.24339 5.20859 7.29133C5.47953 6.34142 5.68401 5.64926 5.76816 5.3978L5.67389 5.36607L5.7595 5.41757L5.76816 5.39749L5.67389 5.36607L5.7595 5.41757L5.74571 5.40914L5.75858 5.41872L5.7592 5.41757L5.7454 5.40945L5.75858 5.41872L5.82741 5.36124L5.86879 5.33671L5.87715 5.3325L5.79361 5.15798L5.87148 5.33488L5.87715 5.3325L5.79361 5.15768L5.87148 5.33488L5.87776 5.33219L13.8408 1.69558L16.423 5.05735L16.8377 4.73852L16.4149 5.04693C16.4725 5.12535 16.5035 5.22017 16.5032 5.31748C16.5035 5.43031 16.462 5.53927 16.3867 5.62328L13.8429 8.47516C13.7513 8.57755 13.6279 8.62813 13.4998 8.62875C13.3917 8.62919 13.2871 8.59109 13.2046 8.52129L12.8678 8.92183L13.2226 8.53708L12.1939 7.58871C12.1328 7.53253 12.0592 7.49165 11.9792 7.46943C11.8992 7.44721 11.8151 7.44427 11.7337 7.46087C11.6524 7.4778 11.5762 7.51375 11.5115 7.56579C11.4468 7.61782 11.3953 7.68446 11.3612 7.76023L11.3562 7.76774C11.3406 7.7935 11.2328 7.87458 11.0634 7.93444C10.8113 8.0291 10.4509 8.08865 10.1658 8.11501C10.0231 8.12904 9.89759 8.13594 9.80953 8.13954L9.70806 8.1426L9.67663 8.14283V8.66615L9.72967 8.14552L9.44341 8.11647C9.34156 8.10583 9.23883 8.12544 9.14805 8.17283C9.05727 8.22022 8.98246 8.29331 8.93297 8.38295C8.88315 8.47235 8.86073 8.57443 8.86849 8.67648C8.87626 8.77852 8.91388 8.87603 8.97665 8.95685C9.11943 9.14159 9.26076 9.32743 9.40064 9.51435C9.50181 9.64963 9.55722 9.72596 9.55745 9.72596L9.98052 9.41786L9.45835 9.44875L9.98175 18.3435C9.98755 18.4386 10.0191 18.5303 10.0731 18.6089C10.127 18.6874 10.2013 18.7497 10.288 18.7893C10.3749 18.8284 10.4708 18.8431 10.5654 18.8319C10.66 18.8207 10.7498 18.7839 10.825 18.7255C12.3125 17.5723 13.6929 17.2107 14.9027 17.208C16.1114 17.2074 17.1574 17.5834 17.9005 17.9642C18.2714 18.1543 18.566 18.3447 18.7645 18.4851C18.8404 18.5389 18.9148 18.5946 18.9878 18.6522L19.0414 18.6959L19.0531 18.7055L19.0549 18.707L19.1855 18.556L19.054 18.7063L19.0549 18.707L19.1852 18.556L19.0537 18.7063C19.1079 18.7538 19.1713 18.7895 19.24 18.8113C19.3087 18.8331 19.3811 18.8405 19.4527 18.833C19.5244 18.8255 19.5937 18.8033 19.6564 18.7677C19.719 18.7322 19.7736 18.6841 19.8168 18.6264C20.7198 17.4232 21.6422 16.6651 22.5353 16.2032C23.4289 15.7416 24.2978 15.5715 25.1159 15.5709C26.3417 15.5697 27.4554 15.9631 28.2595 16.3637C28.6609 16.5637 28.9846 16.764 29.205 16.9121C29.2897 16.9688 29.373 17.0277 29.4547 17.0888L29.5157 17.1355L29.5295 17.1463L29.5313 17.1478C29.7549 17.331 30.0846 17.2977 30.2678 17.0741C30.3557 16.9667 30.3972 16.8288 30.3834 16.6907C30.3696 16.5527 30.3015 16.4258 30.1941 16.3379H30.1942Z" fill="black"/>
<path d="M9.4574 20.9292C9.54477 20.9304 9.6756 20.9038 9.80674 20.8277C10.0062 20.7125 10.2022 20.508 10.4013 20.1472C10.6004 19.7841 10.8073 19.2548 11.0115 18.4402C11.0295 18.3731 11.0339 18.303 11.0246 18.2342C11.0153 18.1654 10.9923 18.0991 10.9571 18.0392C10.9218 17.9793 10.875 17.9271 10.8194 17.8855C10.7638 17.8439 10.7004 17.8137 10.633 17.7969C10.5656 17.78 10.4955 17.7768 10.4269 17.7873C10.3582 17.7978 10.2923 17.8219 10.233 17.8581C10.1738 17.8943 10.1223 17.942 10.0817 17.9984C10.041 18.0547 10.012 18.1186 9.99627 18.1862C9.74626 19.1931 9.49687 19.6593 9.36573 19.8305L9.29568 19.911L9.28495 19.9203L9.28281 19.9218L9.4574 20.1816V19.8826C9.35677 19.8808 9.2861 19.9176 9.28281 19.9218L9.4574 20.1816V19.8826C9.31861 19.8826 9.1855 19.9377 9.08736 20.0358C8.98922 20.134 8.93408 20.2671 8.93408 20.4059C8.93408 20.5447 8.98922 20.6778 9.08736 20.7759C9.1855 20.8741 9.31861 20.9292 9.4574 20.9292ZM21.4911 20.9292C21.4963 20.7963 21.4232 19.5907 19.7682 17.9432C19.6694 17.8486 19.5374 17.7964 19.4006 17.7979C19.2637 17.7994 19.1329 17.8545 19.0362 17.9513C18.9395 18.048 18.8845 18.1788 18.883 18.3157C18.8816 18.4525 18.9338 18.5845 19.0285 18.6833C19.7721 19.4272 20.1229 20.0248 20.2909 20.4162C20.3748 20.6119 20.4128 20.7562 20.4304 20.8439L20.4442 20.9317L20.4448 20.9418L20.7128 20.9292H20.4448V20.9418L20.7128 20.9289H20.4448C20.4448 21.0677 20.4999 21.2007 20.5979 21.2989C20.696 21.397 20.8291 21.4522 20.9678 21.4523C21.0365 21.4523 21.1046 21.4389 21.1681 21.4126C21.2316 21.3863 21.2893 21.3478 21.3379 21.2992C21.3865 21.2506 21.4251 21.193 21.4514 21.1295C21.4777 21.066 21.4912 20.9979 21.4911 20.9292ZM26.2002 24.5916C26.1999 24.6569 26.2137 24.8021 26.2976 24.9826C26.4223 25.2562 26.6995 25.5901 27.2318 25.89C27.7657 26.1918 28.5579 26.4738 29.7767 26.6774C29.8447 26.6894 29.9145 26.6878 29.9819 26.6727C30.0494 26.6575 30.1131 26.6292 30.1696 26.5893C30.226 26.5494 30.2739 26.4987 30.3106 26.4401C30.3473 26.3816 30.3721 26.3163 30.3834 26.2482C30.3948 26.18 30.3925 26.1103 30.3768 26.043C30.361 25.9757 30.3321 25.9122 30.2916 25.8561C30.2512 25.8001 30.2 25.7526 30.1412 25.7165C30.0823 25.6803 30.0168 25.6562 29.9485 25.6455C28.4327 25.3942 27.7343 25.0182 27.4507 24.7784C27.307 24.6584 27.2624 24.5758 27.2475 24.5443L27.2412 24.529L27.2373 24.5306L27.2412 24.5293V24.529L27.2373 24.5306L27.2412 24.5293L26.9768 24.5919H27.2465L27.2415 24.5293L26.9768 24.5919H27.2466C27.245 24.4542 27.1892 24.3227 27.0912 24.226C26.9933 24.1292 26.8612 24.0749 26.7235 24.0749C26.5859 24.0748 26.4537 24.1291 26.3558 24.2258C26.2578 24.3225 26.2019 24.454 26.2002 24.5916Z" fill="black"/>
<path d="M29.8628 5.84259L25.6648 0.523438L21.4668 5.84259H23.5844V7.84818H27.77V5.84259H29.8628Z" fill="#8AC03F"/>
<path d="M29.8628 5.84247L30.2736 5.51827L26.0755 0.199119C26.0266 0.136962 25.9642 0.0867366 25.893 0.0522409C25.8219 0.0177451 25.7438 -0.000118396 25.6647 9.04128e-07C25.5856 -0.00014639 25.5075 0.0177052 25.4364 0.0522035C25.3652 0.0867018 25.3028 0.136942 25.254 0.199119L21.0562 5.51827C20.9954 5.59547 20.9576 5.68818 20.9469 5.78583C20.9363 5.88349 20.9533 5.98217 20.996 6.07064C21.0389 6.15901 21.1059 6.23352 21.1891 6.28567C21.2724 6.33782 21.3687 6.3655 21.4669 6.36556H23.0611V7.84806C23.0615 7.98679 23.1166 8.11976 23.2144 8.21816C23.3128 8.31591 23.4457 8.37097 23.5845 8.37145H27.7701C27.9088 8.37103 28.0417 8.31595 28.1399 8.21816C28.2377 8.11973 28.2928 7.98678 28.2932 7.84806V6.36556H29.8629C29.9611 6.36552 30.0574 6.33784 30.1407 6.28569C30.224 6.23354 30.2909 6.15902 30.3338 6.07064C30.3765 5.98216 30.3935 5.88348 30.3829 5.78582C30.3722 5.68817 30.3344 5.59547 30.2736 5.51827L29.8629 5.84247V5.31916H27.7701C27.6314 5.31959 27.4984 5.37467 27.4 5.47244C27.3023 5.57086 27.2473 5.70378 27.2468 5.84247V7.32505H24.1075V5.84247C24.1072 5.70374 24.0521 5.57074 23.9542 5.47244C23.8559 5.37465 23.723 5.31957 23.5844 5.31916H22.5464L25.6648 1.36792L29.4521 6.16675L29.8628 5.84247Z" fill="black"/>
<path d="M23.5845 9.41797H27.7702V10.9876H23.5845V9.41797Z" fill="#8AC03F"/>
<path d="M27.77 10.9873V10.4642H24.1074V9.94086H27.2467V10.9872L27.77 10.9873L28.2931 10.9872V9.41754C28.2928 9.2789 28.2377 9.146 28.1398 9.04782C28.0416 8.94992 27.9087 8.89481 27.77 8.89453H23.5844C23.4456 8.89483 23.3126 8.94992 23.2143 9.04782C23.1166 9.14608 23.0615 9.27893 23.061 9.41754V10.9872C23.0615 11.1259 23.1165 11.2588 23.2143 11.3572C23.3127 11.4549 23.4457 11.51 23.5844 11.5105H27.77C27.9087 11.5101 28.0416 11.455 28.1398 11.3572C28.2376 11.2588 28.2926 11.1259 28.2931 10.9872L27.77 10.9873ZM23.5844 13.0802H27.77C27.9088 13.0802 28.0419 13.025 28.14 12.9269C28.238 12.8287 28.2931 12.6957 28.2931 12.5569C28.2931 12.4181 28.238 12.2851 28.14 12.1869C28.0419 12.0888 27.9088 12.0336 27.77 12.0336H23.5844C23.4456 12.0336 23.3125 12.0888 23.2144 12.1869C23.1162 12.285 23.0611 12.4181 23.061 12.5569C23.0611 12.6957 23.1162 12.8288 23.2144 12.9269C23.3125 13.025 23.4456 13.0802 23.5844 13.0802Z" fill="black"/>
<path d="M6.84064 23.545C6.74601 23.5449 6.65314 23.5707 6.57208 23.6195C6.51313 23.6548 6.46173 23.7014 6.42079 23.7566C6.37986 23.8118 6.3502 23.8746 6.33352 23.9412C6.31684 24.0079 6.31345 24.0772 6.32356 24.1452C6.33367 24.2132 6.35707 24.2785 6.39243 24.3374C6.4155 24.3745 7.04274 25.4142 8.38637 26.4595C9.72639 27.5031 11.7996 28.5477 14.6439 28.5477H14.6504C15.5039 28.5477 16.4255 28.4542 17.4153 28.2423C17.4824 28.2279 17.5461 28.2004 17.6027 28.1614C17.6593 28.1224 17.7076 28.0727 17.7449 28.015C17.7822 27.9573 17.8078 27.8928 17.8202 27.8252C17.8325 27.7576 17.8315 27.6883 17.817 27.6211C17.788 27.4854 17.7062 27.3669 17.5898 27.2915C17.4733 27.2161 17.3317 27.19 17.1961 27.219C16.2746 27.4166 15.4276 27.5013 14.6504 27.5013C12.0625 27.4995 10.2333 26.5666 9.02856 25.6331C8.42768 25.1664 7.98698 24.6991 7.69988 24.3527C7.5886 24.2191 7.48282 24.0811 7.38281 23.9389C7.35761 23.9027 7.33295 23.866 7.30885 23.829L7.29245 23.8033L7.28938 23.7988C7.24292 23.7213 7.17716 23.6572 7.09851 23.6127C7.01986 23.5682 6.93101 23.5448 6.84064 23.5449" fill="#F6BF9B"/>
</svg>
