<svg width="32" height="32" viewBox="0 0 32 32" fill="none" xmlns="http://www.w3.org/2000/svg">
<path d="M27.6907 3.25293H4.30829C3.23664 3.25406 2.20919 3.6802 1.45132 4.43787C0.693447 5.19554 0.267037 6.22288 0.265625 7.29453V24.7036C0.266754 25.7754 0.69304 26.803 1.45094 27.5609C2.20884 28.3188 3.23646 28.7451 4.30829 28.7463H27.6907C28.7623 28.7449 29.7897 28.3184 30.5474 27.5606C31.305 26.8027 31.7312 25.7752 31.7323 24.7036V7.29453C31.7306 6.22315 31.3042 5.19614 30.5467 4.43856C29.7891 3.68098 28.7621 3.25462 27.6907 3.25293ZM30.1323 24.7036C30.1317 25.3511 29.8743 25.9719 29.4166 26.4298C28.9589 26.8878 28.3382 27.1454 27.6907 27.1463H4.30829C3.66063 27.1457 3.03966 26.8882 2.58169 26.4302C2.12372 25.9722 1.86619 25.3513 1.86563 24.7036V20.9596L9.21603 13.6145C9.63416 13.206 10.3638 13.1943 10.7552 13.6465L20.3872 24.1553C21.0934 24.9223 22.2731 23.8492 21.567 23.0737L19.3856 20.6929L22.239 17.6135C22.6283 17.1719 23.3632 17.1633 23.7718 17.5836L30.1323 23.9569V24.7036ZM30.1323 21.6945L24.9056 16.4583C24.652 16.2049 24.3498 16.0053 24.0172 15.8713C23.6846 15.7374 23.3285 15.6719 22.97 15.6788C22.6115 15.6856 22.2581 15.7647 21.9309 15.9113C21.6037 16.0579 21.3094 16.2689 21.0656 16.5319L18.3019 19.5185L11.9339 12.5724C10.9686 11.4599 9.09549 11.4033 8.08536 12.4849L1.86563 18.6972V7.29453C1.86647 6.64705 2.12413 6.02635 2.58207 5.56862C3.04 5.11088 3.66081 4.85349 4.30829 4.85293H27.6907C28.3379 4.85406 28.9583 5.11166 29.4159 5.5693C29.8736 6.02695 30.1312 6.64732 30.1323 7.29453V21.6945Z" fill="white"/>
<path d="M17.991 7.58594C13.9184 7.6894 13.9216 13.6489 17.9888 13.7598C22.0603 13.6585 22.0614 7.69047 17.991 7.58594ZM17.991 12.1598C16.0347 12.1267 16.0379 9.2254 17.9888 9.18487V9.18594C19.944 9.21794 19.9451 12.1257 17.991 12.1598Z" fill="white"/>
</svg>
