<svg width="24" height="24" viewBox="0 0 24 24" fill="none" xmlns="http://www.w3.org/2000/svg">
<g clip-path="url(#clip0_1060_34972)">
<path fill-rule="evenodd" clip-rule="evenodd" d="M2.40423 23.9995C2.17928 23.9995 2.03868 23.7605 2.15116 23.5777L5.20213 18.3053C5.3849 17.9819 5.87699 18.2631 5.68016 18.5865L2.64325 23.8589C2.58701 23.9433 2.48859 23.9995 2.40423 23.9995ZM21.4693 23.9995C21.3708 23.9995 21.2724 23.9433 21.2162 23.8589L18.1793 18.5865C17.9824 18.2631 18.4745 17.9819 18.6573 18.3053L21.7083 23.5777C21.8208 23.7605 21.6802 23.9995 21.4693 23.9995Z" fill="#464655"/>
<path fill-rule="evenodd" clip-rule="evenodd" d="M4.20383 23.9999H0.604534C0.224921 23.9999 0.224921 23.4375 0.604534 23.4375H4.20383C4.56938 23.4375 4.56938 23.9999 4.20383 23.9999ZM23.2548 23.9999H19.6696C19.2899 23.9999 19.2899 23.4375 19.6696 23.4375H23.2548C23.6344 23.4375 23.6344 23.9999 23.2548 23.9999Z" fill="#464655"/>
<path fill-rule="evenodd" clip-rule="evenodd" d="M11.9367 21.357C6.63615 21.357 2.33386 17.0406 2.33386 11.7542C2.33386 6.45365 6.63615 2.15137 11.9367 2.15137C17.2231 2.15137 21.5254 6.45365 21.5254 11.7542C21.5254 17.0406 17.2231 21.357 11.9367 21.357Z" fill="#FF6464"/>
<path fill-rule="evenodd" clip-rule="evenodd" d="M11.9367 19.1208C7.85934 19.1208 4.5553 15.8167 4.5553 11.7534C4.5553 7.69017 7.85934 4.37207 11.9367 4.37207C15.9999 4.37207 19.304 7.69017 19.304 11.7534C19.304 15.8167 15.9999 19.1208 11.9367 19.1208Z" fill="#E65A5A"/>
<path fill-rule="evenodd" clip-rule="evenodd" d="M11.9367 18.7555C8.07026 18.7555 4.93494 15.6061 4.93494 11.7537C4.93494 7.88728 8.07026 4.75195 11.9367 4.75195C15.7891 4.75195 18.9244 7.88728 18.9244 11.7537C18.9244 15.6061 15.7891 18.7555 11.9367 18.7555Z" fill="white"/>
<path fill-rule="evenodd" clip-rule="evenodd" d="M11.9367 16.8437C9.12475 16.8437 6.83301 14.566 6.83301 11.7541C6.83301 8.94213 9.12475 6.65039 11.9367 6.65039C14.7346 6.65039 17.0263 8.94213 17.0263 11.7541C17.0263 14.566 14.7346 16.8437 11.9367 16.8437Z" fill="#E6E6E6"/>
<path fill-rule="evenodd" clip-rule="evenodd" d="M11.9367 16.4775C9.32161 16.4775 7.21265 14.3544 7.21265 11.7534C7.21265 9.15232 9.32161 7.0293 11.9367 7.0293C14.5378 7.0293 16.6467 9.15232 16.6467 11.7534C16.6467 14.3544 14.5378 16.4775 11.9367 16.4775Z" fill="#FF6464"/>
<path fill-rule="evenodd" clip-rule="evenodd" d="M11.9367 14.0878C10.6432 14.0878 9.60278 13.0333 9.60278 11.7538C9.60278 10.4603 10.6432 9.41992 11.9367 9.41992C13.2161 9.41992 14.2566 10.4603 14.2566 11.7538C14.2566 13.0333 13.2161 14.0878 11.9367 14.0878Z" fill="#E65A5A"/>
<path fill-rule="evenodd" clip-rule="evenodd" d="M11.9367 13.7084C10.8541 13.7084 9.96838 12.8367 9.96838 11.7541C9.96838 10.6715 10.8541 9.7998 11.9367 9.7998C13.0053 9.7998 13.8911 10.6715 13.8911 11.7541C13.8911 12.8367 13.0053 13.7084 11.9367 13.7084Z" fill="white"/>
<path fill-rule="evenodd" clip-rule="evenodd" d="M22.0737 3.57098L20.4709 3.48663C20.0913 3.48663 20.2038 2.95236 20.1476 2.30561C20.0913 1.53232 20.0351 0.857452 20.5553 0.337241C21.3005 -0.407926 22.5799 0.196644 22.4815 1.19489C23.9296 1.06835 24.3514 3.57098 22.0737 3.57098Z" fill="#FF6464"/>
<path fill-rule="evenodd" clip-rule="evenodd" d="M20.2741 3.00829L21.905 1.37735C22.1721 1.11022 22.5658 1.51795 22.2987 1.77103L20.6818 3.40196L12.1335 11.9503C12.0772 12.0065 12.0069 12.0346 11.9366 12.0346C11.6836 12.0346 11.557 11.7253 11.7257 11.5566L20.2741 3.00829Z" fill="#464655"/>
</g>
<defs>
<clipPath id="clip0_1060_34972">
<rect width="24" height="24" fill="white"/>
</clipPath>
</defs>
</svg>
