<svg width="32" height="32" viewBox="0 0 32 32" fill="none" xmlns="http://www.w3.org/2000/svg">
<circle cx="16" cy="16" r="16" fill="#D9ECCD"/>
<g clip-path="url(#clip0_2013_42822)">
<path d="M22.3333 16.6676H19.6667C18.7473 16.6676 18 17.4156 18 18.3343V19.6683C17.7213 19.459 17.3747 19.3343 17 19.3343H15.3333V18.0576C15.3333 17.6156 15.0493 17.231 14.626 17.1016L13.188 16.661L14.2153 12.6676H15.0613C15.5233 12.6676 15.9713 12.5323 16.3553 12.2756L17.852 11.2783C18.0047 11.1763 18.0467 10.9696 17.9447 10.8163C17.842 10.6623 17.634 10.6216 17.4827 10.7236L15.986 11.721C15.7113 11.9043 15.3913 12.001 15.0613 12.001H12.3107C11.6867 12.001 11.1387 12.4436 11.01 13.041L10.522 14.9403C10.3573 15.6903 10.7233 16.4336 11.39 16.7756L10.8353 18.4396C10.79 18.5763 10.6627 18.6676 10.5187 18.6676H8.33267C8.14867 18.6676 8 18.817 8 19.001C8 19.185 8.14933 19.3343 8.33333 19.3343H10.5193C10.95 19.3343 11.3313 19.0596 11.468 18.651L12.018 16.9996L14.4307 17.7396C14.5713 17.783 14.6667 17.911 14.6667 18.0583V19.335H14.3333C13.4147 19.335 12.6667 20.083 12.6667 21.0016V21.677C12.3873 21.4656 12.0433 21.335 11.6667 21.335H9.666C8.74733 21.3343 8 22.0823 8 23.001V23.6676C8 23.8516 8.14933 24.001 8.33333 24.001C8.51733 24.001 8.66667 23.8516 8.66667 23.6676V23.001C8.66667 22.4496 9.11533 22.001 9.66667 22.001H11.6667C12.218 22.001 12.6667 22.4496 12.6667 23.001V23.6676C12.6667 23.8516 12.816 24.001 13 24.001C13.184 24.001 13.3333 23.8516 13.3333 23.6676V21.001C13.3333 20.4496 13.782 20.001 14.3333 20.001H17C17.5513 20.001 18 20.4496 18 21.001V23.6676C18 23.8516 18.1493 24.001 18.3333 24.001C18.5173 24.001 18.6667 23.8516 18.6667 23.6676V18.3343C18.6667 17.783 19.1153 17.3343 19.6667 17.3343H22.3333C22.8847 17.3343 23.3333 17.783 23.3333 18.3343V23.6676C23.3333 23.8516 23.4827 24.001 23.6667 24.001C23.8507 24.001 24 23.8516 24 23.6676V18.3343C24 17.4156 23.2527 16.6676 22.3333 16.6676ZM11.17 15.0943L11.6587 13.1943C11.7247 12.889 11.9987 12.6676 12.3107 12.6676H13.5267L12.55 16.465L11.8393 16.247C11.3493 16.0863 11.062 15.5856 11.17 15.0943ZM13.666 11.3343C14.5847 11.3343 15.3327 10.5863 15.3327 9.66764C15.3327 8.74898 14.5853 8.00098 13.666 8.00098C12.7467 8.00098 11.9993 8.74898 11.9993 9.66764C11.9993 10.5863 12.7473 11.3343 13.666 11.3343ZM13.666 8.66764C14.2173 8.66764 14.666 9.11631 14.666 9.66764C14.666 10.219 14.2173 10.6676 13.666 10.6676C13.1147 10.6676 12.666 10.219 12.666 9.66764C12.666 9.11631 13.1147 8.66764 13.666 8.66764ZM19.666 15.3343C19.85 15.3343 19.9993 15.185 19.9993 15.001V11.9943L22.958 10.6303C23.1893 10.505 23.3327 10.2636 23.3327 10.001C23.3327 9.73831 23.1887 9.49698 22.9453 9.36498L20.23 8.03498C20.1847 8.01298 20.0507 8.00098 20 8.00098C19.71 8.00098 19.3333 8.20498 19.3333 8.75098V15.001C19.3333 15.185 19.482 15.3343 19.666 15.3343ZM19.9993 8.73231C19.9993 8.70031 20.032 8.67764 20.0673 8.69498L22.6527 9.96364C22.6527 9.96364 22.7207 10.0056 22.6473 10.0396L19.9993 11.269V8.73298V8.73231Z" fill="#338000"/>
</g>
<defs>
<clipPath id="clip0_2013_42822">
<rect width="16" height="16" fill="white" transform="translate(8 8)"/>
</clipPath>
</defs>
</svg>
