<svg width="40" height="40" viewBox="0 0 40 40" fill="none" xmlns="http://www.w3.org/2000/svg">
<path d="M20 40C31.0457 40 40 31.0457 40 20C40 8.9543 31.0457 0 20 0C8.9543 0 0 8.9543 0 20C0 31.0457 8.9543 40 20 40Z" fill="#E4E4E4"/>
<path d="M40.0004 20.0004C40.0004 31.0504 31.0441 40.0004 20.0004 40.0004C13.7129 40.0004 8.10039 37.1004 4.43164 32.5566C7.86289 35.3316 12.2316 36.9879 16.9879 36.9879C28.0316 36.9879 36.9879 28.0379 36.9879 16.9879C36.9879 12.2316 35.3316 7.86289 32.5566 4.43164C37.0941 8.10039 40.0004 13.7129 40.0004 20.0004Z" fill="#E4E4E4"/>
<path d="M27.3575 20.7638C29.091 20.7638 30.4962 19.3586 30.4962 17.6251C30.4962 15.8916 29.091 14.4863 27.3575 14.4863C25.624 14.4863 24.2188 15.8916 24.2188 17.6251C24.2188 19.3586 25.624 20.7638 27.3575 20.7638Z" fill="#3E4347"/>
<path d="M28.4974 15.6721C28.0178 15.4594 27.5174 15.5387 27.3797 15.8492C27.242 16.1597 27.5191 16.5838 27.9988 16.7965C28.4784 17.0092 28.9788 16.9299 29.1165 16.6194C29.2542 16.309 28.977 15.8848 28.4974 15.6721Z" fill="#5A5F63"/>
<path d="M12.6427 20.7638C14.3761 20.7638 15.7814 19.3586 15.7814 17.6251C15.7814 15.8916 14.3761 14.4863 12.6427 14.4863C10.9092 14.4863 9.50391 15.8916 9.50391 17.6251C9.50391 19.3586 10.9092 20.7638 12.6427 20.7638Z" fill="#3E4347"/>
<path d="M13.7826 15.6721C13.303 15.4594 12.8025 15.5387 12.6648 15.8492C12.5271 16.1597 12.8043 16.5838 13.2839 16.7965C13.7635 17.0092 14.264 16.9299 14.4017 16.6194C14.5394 16.309 14.2622 15.8848 13.7826 15.6721Z" fill="#5A5F63"/>
<path d="M11.8068 27.8951C11.4293 27.5401 11.4118 26.9463 11.7668 26.5701C12.1218 26.1938 12.7143 26.1751 13.0918 26.5301C16.9656 30.1763 23.0331 30.1763 26.9068 26.5301C27.2843 26.1751 27.8768 26.1938 28.2318 26.5701C28.5868 26.9476 28.5693 27.5401 28.1918 27.8951C23.5981 32.2201 16.4006 32.2201 11.8068 27.8951Z" fill="#3E4347"/>
</svg>
