<svg width="32" height="32" viewBox="0 0 32 32" fill="none" xmlns="http://www.w3.org/2000/svg">
<g clip-path="url(#clip0_727_14031)">
<path d="M19.2 14.08V4.79996H18.08C17.9857 4.79546 17.8946 4.76467 17.8168 4.71107C17.7391 4.65747 17.6779 4.5832 17.6402 4.49665C17.6025 4.4101 17.5897 4.31472 17.6033 4.22129C17.617 4.12787 17.6565 4.04012 17.7174 3.96796L20.4374 0.703964C20.4813 0.650281 20.5367 0.607029 20.5994 0.577331C20.6621 0.547632 20.7306 0.532227 20.8 0.532227C20.8694 0.532227 20.938 0.547632 21.0007 0.577331C21.0634 0.607029 21.1187 0.650281 21.1627 0.703964L23.8827 3.96796C23.9436 4.04012 23.9831 4.12787 23.9967 4.22129C24.0104 4.31472 23.9976 4.4101 23.9599 4.49665C23.9222 4.5832 23.861 4.65747 23.7832 4.71107C23.7055 4.76467 23.6143 4.79546 23.52 4.79996H22.4V10.5658L19.2 14.08Z" fill="#F0C419"/>
<path d="M13.3333 29.3332H14.9333C15.5337 29.3325 16.1166 29.5356 16.5866 29.9092L17.8026 30.8799C18.2802 31.2602 18.8727 31.4671 19.4832 31.4666H27.6432C28.0588 31.4755 28.4625 31.3281 28.7746 31.0535C29.0867 30.7789 29.2844 30.3972 29.3285 29.9839C29.3446 29.7645 29.3154 29.5442 29.2425 29.3367C29.1697 29.1291 29.0548 28.9388 28.9051 28.7777C28.7554 28.6165 28.5741 28.4879 28.3725 28.4C28.1709 28.3121 27.9533 28.2666 27.7333 28.2666H29.2426C29.6582 28.2755 30.062 28.1281 30.3741 27.8535C30.6862 27.5789 30.8838 27.1972 30.928 26.7839C30.9441 26.5646 30.9148 26.3443 30.842 26.1368C30.7692 25.9293 30.6544 25.739 30.5048 25.5779C30.3551 25.4167 30.1739 25.2881 29.9723 25.2002C29.7708 25.1122 29.5532 25.0667 29.3333 25.0666H29.7546C30.1324 25.0753 30.5022 24.9571 30.8048 24.7309C31.1075 24.5046 31.3255 24.1834 31.424 23.8186C31.4732 23.5851 31.4703 23.3435 31.4152 23.1113C31.3602 22.8791 31.2544 22.6619 31.1056 22.4754C30.9568 22.2888 30.7685 22.1375 30.5543 22.0322C30.3401 21.927 30.1053 21.8704 29.8666 21.8666H29.3333C29.5508 21.8669 29.7661 21.8229 29.966 21.7372C30.1659 21.6515 30.3462 21.5259 30.496 21.3682C30.6457 21.2105 30.7617 21.0239 30.8369 20.8198C30.9121 20.6157 30.9449 20.3984 30.9333 20.1812C30.8958 19.7627 30.7013 19.3739 30.3888 19.0929C30.0764 18.812 29.6692 18.6596 29.249 18.6666H21.8442C21.749 18.6669 21.6554 18.6415 21.5734 18.5931C21.4913 18.5447 21.4238 18.4751 21.378 18.3916C21.3322 18.3081 21.3097 18.2138 21.3129 18.1186C21.3161 18.0234 21.3449 17.9308 21.3962 17.8506C22.5085 15.9776 23.0365 13.8153 22.9125 11.6404C22.8922 11.238 22.7208 10.858 22.4324 10.5764C22.1441 10.2948 21.7602 10.1324 21.3573 10.1217C20.9545 10.1109 20.5624 10.2525 20.2595 10.5183C19.9565 10.784 19.765 11.1543 19.7232 11.5551C19.1925 17.146 15.36 19.2607 13.2416 19.1999L13.3333 29.3332Z" fill="#FDD7AD"/>
<path d="M1.06666 18.1333H11.7333C12.1577 18.1333 12.5646 18.3019 12.8647 18.6019C13.1648 18.902 13.3333 19.309 13.3333 19.7333V29.3333C13.3333 29.7576 13.1648 30.1646 12.8647 30.4647C12.5646 30.7647 12.1577 30.9333 11.7333 30.9333H1.06666C0.92521 30.9333 0.789554 30.8771 0.689535 30.7771C0.589515 30.6771 0.533325 30.5414 0.533325 30.4V18.6666C0.533325 18.5252 0.589515 18.3895 0.689535 18.2895C0.789554 18.1895 0.92521 18.1333 1.06666 18.1333Z" fill="#3B97D3"/>
<path d="M7.73337 21.3172L8.4027 22.7258L9.8987 22.9514C10.0663 22.9825 10.2222 23.0586 10.3498 23.1717C10.4773 23.2847 10.5717 23.4303 10.6228 23.5929C10.6739 23.7555 10.6798 23.9289 10.6398 24.0946C10.5998 24.2602 10.5154 24.4119 10.3958 24.5332L9.3131 25.6292L9.56857 27.1759C9.60331 27.3428 9.59002 27.5161 9.53026 27.6757C9.47049 27.8353 9.3667 27.9747 9.23091 28.0777C9.09513 28.1807 8.93292 28.2431 8.76311 28.2577C8.59329 28.2722 8.42283 28.2383 8.2715 28.1599L6.93337 27.4271L5.59523 28.1599C5.44435 28.2378 5.27453 28.2715 5.10534 28.2571C4.93615 28.2427 4.77447 28.1808 4.63892 28.0785C4.50337 27.9762 4.39947 27.8377 4.33919 27.679C4.2789 27.5203 4.26468 27.3477 4.29817 27.1812L4.55363 25.6346L3.47097 24.5332C3.35075 24.412 3.26586 24.2604 3.22543 24.0945C3.185 23.9287 3.19057 23.7549 3.24153 23.592C3.2925 23.4291 3.38692 23.2831 3.51465 23.1699C3.64238 23.0566 3.79858 22.9803 3.96643 22.9492L5.46243 22.7236L6.13337 21.3172C6.20357 21.1641 6.31627 21.0342 6.45808 20.9432C6.5999 20.8522 6.76486 20.8039 6.93337 20.8039C7.10187 20.8039 7.26683 20.8522 7.40865 20.9432C7.55046 21.0342 7.66317 21.1641 7.73337 21.3172ZM16.5867 9.59991H15.4667V15.4666C15.4659 15.7492 15.3532 16.02 15.1533 16.2199C14.9535 16.4197 14.6827 16.5324 14.4 16.5332H13.3334C13.0507 16.5324 12.7799 16.4197 12.5801 16.2199C12.3802 16.02 12.2675 15.7492 12.2667 15.4666V9.59991H11.1467C11.0524 9.59541 10.9612 9.56462 10.8835 9.51102C10.8058 9.45742 10.7446 9.38315 10.7069 9.2966C10.6691 9.21005 10.6564 9.11467 10.67 9.02124C10.6836 8.92781 10.7231 8.84006 10.784 8.76791L13.504 5.50444C13.548 5.45068 13.6033 5.40735 13.666 5.37759C13.7287 5.34783 13.7973 5.3324 13.8667 5.3324C13.9361 5.3324 14.0047 5.34783 14.0674 5.37759C14.1301 5.40735 14.1855 5.45068 14.2294 5.50444L16.9494 8.76791C17.0103 8.84006 17.0498 8.92781 17.0634 9.02124C17.077 9.11467 17.0643 9.21005 17.0265 9.2966C16.9888 9.38315 16.9276 9.45742 16.8499 9.51102C16.7722 9.56462 16.681 9.59541 16.5867 9.59991ZM30.4534 9.59991H29.3334V15.4666C29.3325 15.7492 29.2199 16.02 29.02 16.2199C28.8202 16.4197 28.5493 16.5324 28.2667 16.5332H27.2C26.9174 16.5324 26.6466 16.4197 26.4467 16.2199C26.2469 16.02 26.1342 15.7492 26.1334 15.4666V9.59991H25.0134C24.9191 9.59541 24.8279 9.56462 24.7502 9.51102C24.6724 9.45742 24.6112 9.38315 24.5735 9.2966C24.5358 9.21005 24.523 9.11467 24.5367 9.02124C24.5503 8.92781 24.5898 8.84006 24.6507 8.76791L27.3707 5.50444C27.4146 5.45068 27.4699 5.40735 27.5327 5.37759C27.5954 5.34783 27.6639 5.3324 27.7334 5.3324C27.8028 5.3324 27.8713 5.34783 27.9341 5.37759C27.9968 5.40735 28.0521 5.45068 28.096 5.50444L30.816 8.76791C30.8769 8.84006 30.9164 8.92781 30.9301 9.02124C30.9437 9.11467 30.9309 9.21005 30.8932 9.2966C30.8555 9.38315 30.7943 9.45742 30.7166 9.51102C30.6388 9.56462 30.5477 9.59541 30.4534 9.59991Z" fill="#F0C419"/>
</g>
<defs>
<clipPath id="clip0_727_14031">
<rect width="32" height="32" fill="white"/>
</clipPath>
</defs>
</svg>
