<svg width="24" height="24" viewBox="0 0 24 24" fill="none" xmlns="http://www.w3.org/2000/svg">
<path fill-rule="evenodd" clip-rule="evenodd" d="M12 0C5.38125 0 0 5.38125 0 12C0 18.6187 5.38125 24 12 24C18.6187 24 24 18.6187 24 12C24 5.38125 18.6187 0 12 0Z" fill="#4BAE4F"/>
<path fill-rule="evenodd" clip-rule="evenodd" d="M17.8027 7.95391C18.0934 8.24453 18.0934 8.72266 17.8027 9.01328L10.7715 16.0445C10.6262 16.1898 10.434 16.2648 10.2418 16.2648C10.0496 16.2648 9.85742 16.1898 9.71211 16.0445L6.19648 12.5289C5.90586 12.2383 5.90586 11.7602 6.19648 11.4695C6.48711 11.1789 6.96523 11.1789 7.25586 11.4695L10.2418 14.4555L16.7434 7.95391C17.034 7.65859 17.5121 7.65859 17.8027 7.95391Z" fill="white"/>
</svg>
