<svg width="32" height="32" viewBox="0 0 32 32" fill="none" xmlns="http://www.w3.org/2000/svg">
<g clip-path="url(#clip0_727_14686)">
<path d="M16 32C24.8366 32 32 24.8366 32 16C32 7.16344 24.8366 0 16 0C7.16344 0 0 7.16344 0 16C0 24.8366 7.16344 32 16 32Z" fill="#32BA7C"/>
<path d="M11.9121 23.2176L20.1392 31.4447C26.9531 29.6277 32.0004 23.4195 32.0004 15.9999V15.5457L25.5399 9.58984L11.9121 23.2176Z" fill="#0AA06E"/>
<path d="M16.4034 19.5836C17.11 20.2902 17.11 21.5015 16.4034 22.2082L14.9397 23.6719C14.233 24.3785 13.0217 24.3785 12.3151 23.6719L5.90497 17.2113C5.19834 16.5047 5.19834 15.2933 5.90497 14.5867L7.36869 13.123C8.07532 12.4164 9.28667 12.4164 9.9933 13.123L16.4034 19.5836Z" fill="white"/>
<path d="M22.0061 8.42914C22.7128 7.72251 23.9241 7.72251 24.6307 8.42914L26.0945 9.89286C26.8011 10.5995 26.8011 11.8108 26.0945 12.5175L14.9904 23.5711C14.2837 24.2777 13.0724 24.2777 12.3658 23.5711L10.902 22.1074C10.1954 21.4007 10.1954 20.1894 10.902 19.4828L22.0061 8.42914Z" fill="white"/>
</g>
<defs>
<clipPath id="clip0_727_14686">
<rect width="32" height="32" fill="white"/>
</clipPath>
</defs>
</svg>
