<svg width="32" height="32" viewBox="0 0 32 32" fill="none" xmlns="http://www.w3.org/2000/svg">
<path d="M16 32C24.8366 32 32 24.8366 32 16C32 7.16344 24.8366 0 16 0C7.16344 0 0 7.16344 0 16C0 24.8366 7.16344 32 16 32Z" fill="#FFD93B"/>
<path d="M15.9999 25.6128C14.0752 25.6131 12.1984 25.0131 10.6307 23.8964C9.06304 22.7797 7.88264 21.202 7.25387 19.3829C7.20059 19.2455 7.17555 19.0987 7.18024 18.9514C7.18494 18.804 7.21927 18.6592 7.28119 18.5254C7.34311 18.3917 7.43135 18.2717 7.54064 18.1728C7.64992 18.0739 7.77802 17.9981 7.91728 17.9497C8.05654 17.9014 8.20411 17.8817 8.35117 17.8917C8.49823 17.9017 8.64177 17.9412 8.77322 18.0079C8.90467 18.0746 9.02134 18.1671 9.11625 18.2798C9.21116 18.3926 9.28238 18.5234 9.32564 18.6643C9.80296 20.055 10.7028 21.2618 11.8994 22.1163C13.096 22.9707 14.5296 23.43 15.9999 23.43C17.4703 23.43 18.9039 22.9707 20.1005 22.1163C21.2971 21.2618 22.1969 20.055 22.6742 18.6643C22.7175 18.5234 22.7887 18.3926 22.8836 18.2798C22.9785 18.1671 23.0952 18.0746 23.2266 18.0079C23.3581 17.9412 23.5016 17.9017 23.6487 17.8917C23.7958 17.8817 23.9433 17.9014 24.0826 17.9497C24.2218 17.9981 24.3499 18.0739 24.4592 18.1728C24.5685 18.2717 24.6568 18.3917 24.7187 18.5254C24.7806 18.6592 24.8149 18.804 24.8196 18.9514C24.8243 19.0987 24.7993 19.2455 24.746 19.3829C24.1172 21.202 22.9368 22.7797 21.3692 23.8964C19.8015 25.0131 17.9246 25.6131 15.9999 25.6128Z" fill="#3E4347"/>
<path d="M21.3028 14.2025C22.4642 14.2025 23.4057 13.2611 23.4057 12.0997C23.4057 10.9383 22.4642 9.99683 21.3028 9.99683C20.1414 9.99683 19.2 10.9383 19.2 12.0997C19.2 13.2611 20.1414 14.2025 21.3028 14.2025Z" fill="#3E4347"/>
<path d="M10.6971 14.2025C11.8585 14.2025 12.8 13.2611 12.8 12.0997C12.8 10.9383 11.8585 9.99683 10.6971 9.99683C9.53572 9.99683 8.59424 10.9383 8.59424 12.0997C8.59424 13.2611 9.53572 14.2025 10.6971 14.2025Z" fill="#3E4347"/>
</svg>
