<svg width="32" height="32" viewBox="0 0 32 32" fill="none" xmlns="http://www.w3.org/2000/svg">
<path d="M24 3.0459C19.5817 3.0459 16 6.62765 16 11.0459C16 6.62765 12.4183 3.0459 8 3.0459C3.58175 3.0459 0 6.62765 0 11.0459C0 19.6349 11.753 26.8385 15.1128 28.7222C15.3838 28.8742 15.6893 28.9541 16 28.9541C16.3107 28.9541 16.6162 28.8742 16.8872 28.7222C20.247 26.8385 32 19.6349 32 11.0459C32 6.62765 28.4183 3.0459 24 3.0459Z" fill="url(#paint0_linear_727_14025)"/>
<path d="M15.1128 28.7222C15.3837 28.8742 15.6892 28.9541 16 28.9541C16.3107 28.9541 16.6162 28.8742 16.8871 28.7222C19.3642 27.3333 26.403 23.0524 29.9309 17.4569H29.9297C29.9646 17.4015 29.9998 17.3461 30.0341 17.2903L30.0345 17.2896H22.9034C22.3128 17.2896 21.7596 17.5154 21.3443 17.9107C21.3413 17.9084 21.3385 17.9059 21.3355 17.9036L18.1581 14.7262C17.9822 14.4978 17.7079 14.3654 17.4045 14.3776C17.0157 14.3933 16.6895 14.6433 16.5735 15.0145L16.2007 16.2063L12.7346 12.7497C12.5717 12.5354 12.3181 12.4023 12.0315 12.3963C11.6108 12.3866 11.2561 12.6506 11.1396 13.0511L10.1632 16.4063C10.0118 16.9264 9.52783 17.2897 8.98608 17.2897H1.96533C2.1244 17.548 2.28981 17.8024 2.46139 18.0526C2.46946 18.0643 2.47746 18.0761 2.48552 18.0878C2.54129 18.1688 2.59764 18.2495 2.65458 18.3297H2.70496L9.03577 24.7063C11.5273 26.6291 13.8827 28.0326 15.1128 28.7222Z" fill="#E0442E"/>
<path d="M30.0346 17.2898H22.9034C22.123 17.2898 21.4075 17.6834 20.9896 18.3426L20.1734 19.6302L18.2841 14.9461C18.1386 14.5853 17.7952 14.3621 17.4045 14.3779C17.0158 14.3936 16.6896 14.6436 16.5735 15.0148L14.7794 20.7507L12.8951 13.0881C12.7955 12.6831 12.4484 12.4051 12.0315 12.3964C11.6107 12.3867 11.2561 12.6507 11.1395 13.0512L10.1631 16.4064C10.0118 16.9266 9.52777 17.2898 8.98602 17.2898H1.96533C2.18349 17.644 2.41337 17.9909 2.65458 18.3298H8.98602C9.98727 18.3298 10.8819 17.6584 11.1618 16.697L12.0018 13.8104L13.8815 21.4545C13.98 21.8554 14.3234 22.1333 14.7359 22.1462C14.7458 22.1464 14.7556 22.1466 14.7655 22.1466C15.1656 22.1466 15.5115 21.8934 15.6318 21.5089L17.4566 15.6747L19.3044 20.2557C19.3666 20.411 19.4706 20.546 19.6049 20.6458C19.7391 20.7456 19.8984 20.8062 20.065 20.821C20.2316 20.8366 20.3992 20.8057 20.5493 20.7319C20.6994 20.658 20.8261 20.5439 20.9153 20.4024L21.8681 18.8992C21.9783 18.7243 22.1311 18.5803 22.3122 18.4807C22.4933 18.381 22.6968 18.3291 22.9035 18.3296H29.3454C29.5866 17.9908 29.8164 17.644 30.0346 17.2898Z" fill="white"/>
<defs>
<linearGradient id="paint0_linear_727_14025" x1="16" y1="3.0459" x2="16" y2="28.9541" gradientUnits="userSpaceOnUse">
<stop stop-color="#FF7A97"/>
<stop offset="1" stop-color="#E0442E"/>
</linearGradient>
</defs>
</svg>
