<svg width="24" height="24" viewBox="0 0 24 24" fill="none" xmlns="http://www.w3.org/2000/svg">
<circle cx="12" cy="12" r="12" fill="#D9ECCD"/>
<g clip-path="url(#clip0_1998_11328)">
<path d="M12.5 15C12.5 15.276 12.276 15.5 12 15.5C11.724 15.5 11.5 15.276 11.5 15C11.5 14.724 11.724 14.5 12 14.5C12.276 14.5 12.5 14.724 12.5 15ZM12.468 8.5535C11.8575 8.414 11.233 8.5535 10.754 8.936C10.275 9.318 10 9.888 10 10.5C10 10.638 10.112 10.75 10.25 10.75C10.388 10.75 10.5 10.638 10.5 10.5C10.5 10.041 10.706 9.6135 11.0655 9.3265C11.425 9.0395 11.896 8.9355 12.3565 9.0405C12.8935 9.163 13.3365 9.606 13.459 10.143C13.6125 10.8155 13.3165 11.487 12.7225 11.8145C12.1135 12.1505 11.7495 12.7305 11.7495 13.366V13.5C11.7495 13.638 11.8615 13.75 11.9995 13.75C12.1375 13.75 12.2495 13.638 12.2495 13.5V13.366C12.2495 12.9155 12.5165 12.4995 12.9635 12.2525C13.755 11.8165 14.15 10.924 13.946 10.032C13.7795 9.301 13.199 8.72 12.468 8.5535ZM18 12C18 15.3085 15.3085 18 12 18C8.6915 18 6 15.3085 6 12C6 8.6915 8.6915 6 12 6C15.3085 6 18 8.6915 18 12ZM17.5 12C17.5 8.9675 15.0325 6.5 12 6.5C8.9675 6.5 6.5 8.9675 6.5 12C6.5 15.0325 8.9675 17.5 12 17.5C15.0325 17.5 17.5 15.0325 17.5 12Z" fill="#338000"/>
</g>
<defs>
<clipPath id="clip0_1998_11328">
<rect width="12" height="12" fill="white" transform="translate(6 6)"/>
</clipPath>
</defs>
</svg>
