<svg width="25" height="24" viewBox="0 0 25 24" fill="none" xmlns="http://www.w3.org/2000/svg">
<g clip-path="url(#clip0_633_4977)">
<path d="M13.3001 1C10.8818 1.01177 8.53575 1.82542 6.62949 3.31348C4.72323 4.80153 3.36446 6.87992 2.76606 9.223L2.03405 8.116C1.96476 8.0001 1.8727 7.89944 1.76345 7.82009C1.65419 7.74073 1.52999 7.68433 1.39835 7.65428C1.2667 7.62422 1.13033 7.62114 0.99746 7.64522C0.86459 7.6693 0.737974 7.72004 0.625246 7.79438C0.512518 7.86872 0.416014 7.96512 0.341554 8.07777C0.267093 8.19042 0.216219 8.31699 0.191999 8.44983C0.167778 8.58267 0.170714 8.71905 0.200628 8.85073C0.230542 8.9824 0.286816 9.10666 0.366055 9.216L2.56606 12.55C2.71887 12.7638 2.94419 12.9149 3.20006 12.975C3.46132 13.0268 3.7325 12.9748 3.95606 12.83L7.25606 10.607C7.36984 10.5359 7.46816 10.4427 7.54517 10.3329C7.62218 10.2231 7.6763 10.0989 7.70432 9.96767C7.73234 9.83648 7.73368 9.701 7.70825 9.56929C7.68283 9.43758 7.63117 9.31233 7.55634 9.20099C7.48151 9.08966 7.38505 8.99451 7.2727 8.92123C7.16034 8.84794 7.03439 8.79801 6.90234 8.77441C6.77029 8.7508 6.63484 8.75401 6.50405 8.78383C6.37327 8.81365 6.24982 8.86948 6.14106 8.948L4.64006 9.96C5.03954 8.33839 5.88679 6.86172 7.08514 5.69847C8.28349 4.53521 9.78469 3.73222 11.4175 3.38111C13.0502 3.03 14.7488 3.14491 16.3194 3.71272C17.89 4.28054 19.2694 5.27839 20.3002 6.59244C21.3309 7.90649 21.9716 9.48382 22.149 11.1445C22.3265 12.8051 22.0335 14.4822 21.3037 15.9843C20.5738 17.4865 19.4364 18.7533 18.0213 19.6401C16.6061 20.527 14.9701 20.9982 13.3001 21C11.8684 20.9961 10.4588 20.6466 9.1912 19.9812C7.92357 19.3158 6.83535 18.3542 6.01905 17.178C5.94595 17.0657 5.85103 16.9693 5.73993 16.8944C5.62884 16.8196 5.50383 16.7678 5.37234 16.7422C5.24084 16.7166 5.10554 16.7176 4.97446 16.7453C4.84339 16.773 4.71921 16.8267 4.6093 16.9033C4.49939 16.9799 4.406 17.0778 4.33466 17.1912C4.26332 17.3046 4.21549 17.4312 4.19402 17.5634C4.17254 17.6956 4.17785 17.8308 4.20964 17.961C4.24143 18.0911 4.29904 18.2136 4.37906 18.321C5.70612 20.2342 7.61189 21.6712 9.81627 22.4209C12.0206 23.1706 14.4074 23.1934 16.6257 22.4859C18.844 21.7785 20.7768 20.3782 22.1402 18.4907C23.5036 16.6033 24.2256 14.3282 24.2001 12C24.2099 9.09691 23.0679 6.30844 21.0244 4.24629C18.981 2.18413 16.2031 1.01667 13.3001 1Z" fill="#484C52"/>
<path d="M13.1992 5.94922C12.934 5.94922 12.6796 6.05458 12.4921 6.24211C12.3046 6.42965 12.1992 6.684 12.1992 6.94922V11.9992C12.2035 12.2636 12.3082 12.5164 12.4922 12.7062L15.4922 15.7332C15.6805 15.9185 15.9337 16.0229 16.1978 16.0242C16.4619 16.0256 16.7161 15.9236 16.9062 15.7402C17.0945 15.5535 17.2009 15.2996 17.202 15.0345C17.2031 14.7693 17.0989 14.5145 16.9122 14.3262L14.1992 11.5882V6.94922C14.1992 6.684 14.0939 6.42965 13.9063 6.24211C13.7188 6.05458 13.4644 5.94922 13.1992 5.94922Z" fill="#484C52"/>
</g>
<defs>
<clipPath id="clip0_633_4977">
<rect width="24" height="24" fill="white" transform="translate(0.199219)"/>
</clipPath>
</defs>
</svg>
