<svg width="25" height="24" viewBox="0 0 25 24" fill="none" xmlns="http://www.w3.org/2000/svg">
<path fill-rule="evenodd" clip-rule="evenodd" d="M11.9857 1.21065C12.3468 0.929784 12.8524 0.929784 13.2135 1.21065L22.2136 8.21065C22.4571 8.4001 22.5996 8.69141 22.5996 9V20C22.5996 20.7957 22.2835 21.5587 21.7209 22.1213C21.1583 22.6839 20.3953 23 19.5996 23H5.59961C4.80396 23 4.0409 22.6839 3.47829 22.1213C2.91568 21.5587 2.59961 20.7957 2.59961 20V9C2.59961 8.69141 2.74208 8.4001 2.98567 8.21065L11.9857 1.21065ZM4.59961 9.48908V20C4.59961 20.2652 4.70497 20.5196 4.8925 20.7071C5.08004 20.8946 5.33439 21 5.59961 21H19.5996C19.8648 21 20.1192 20.8946 20.3067 20.7071C20.4943 20.5196 20.5996 20.2652 20.5996 20V9.48908L12.5996 3.26686L4.59961 9.48908Z" fill="#484C52"/>
<path fill-rule="evenodd" clip-rule="evenodd" d="M8.59961 12C8.59961 11.4477 9.04732 11 9.59961 11H15.5996C16.1519 11 16.5996 11.4477 16.5996 12V22C16.5996 22.5523 16.1519 23 15.5996 23C15.0473 23 14.5996 22.5523 14.5996 22V13H10.5996V22C10.5996 22.5523 10.1519 23 9.59961 23C9.04732 23 8.59961 22.5523 8.59961 22V12Z" fill="#484C52"/>
</svg>
