<svg width="18" height="18" viewBox="0 0 18 18" fill="none" xmlns="http://www.w3.org/2000/svg">
<path d="M8.99935 17.9583C13.9469 17.9583 17.9577 13.9475 17.9577 8.99996C17.9577 4.05241 13.9469 0.041626 8.99935 0.041626C4.0518 0.041626 0.0410156 4.05241 0.0410156 8.99996C0.0410156 13.9475 4.0518 17.9583 8.99935 17.9583Z" fill="#FFCB27"/>
<path d="M8.16584 11.9166C7.94492 11.9162 7.73312 11.8284 7.57667 11.6725L5.07667 9.17246C4.99708 9.09558 4.9336 9.00363 4.88992 8.90196C4.84625 8.80029 4.82326 8.69094 4.8223 8.58029C4.82134 8.46964 4.84242 8.35991 4.88432 8.25749C4.92622 8.15508 4.9881 8.06204 5.06634 7.98379C5.14459 7.90555 5.23763 7.84367 5.34004 7.80177C5.44246 7.75987 5.55219 7.73879 5.66284 7.73975C5.77349 7.74071 5.88284 7.7637 5.98451 7.80737C6.08618 7.85105 6.17813 7.91453 6.25501 7.99412L8.13751 9.87579L11.7167 5.93996C11.7888 5.85395 11.8776 5.78341 11.9777 5.73257C12.0778 5.68173 12.1871 5.65164 12.2991 5.64409C12.4111 5.63655 12.5235 5.65172 12.6295 5.68869C12.7355 5.72565 12.8329 5.78365 12.916 5.85921C12.999 5.93477 13.0659 6.02632 13.1127 6.12838C13.1594 6.23043 13.1851 6.34089 13.1881 6.45311C13.1912 6.56533 13.1715 6.677 13.1303 6.78142C13.0891 6.88585 13.0272 6.98087 12.9483 7.06079L8.78167 11.6441C8.70579 11.7275 8.6138 11.7946 8.51125 11.8415C8.4087 11.8883 8.29771 11.9139 8.18501 11.9166H8.16584Z" fill="#42A004"/>
</svg>
