<svg width="14" height="12" viewBox="0 0 14 12" fill="none" xmlns="http://www.w3.org/2000/svg">
<path d="M12.4438 5.62587C12.3146 6.84989 11.7981 8.00401 10.9653 8.91689L10.767 9.12294C9.68348 10.1988 8.2188 10.8035 6.69184 10.8036C5.26003 10.8036 3.88222 10.2723 2.8227 9.31923L2.61567 9.12294C1.66692 8.18088 1.0781 6.94409 0.938911 5.62587H12.4438Z" stroke="#284268" stroke-width="1.125"/>
<path d="M6.69141 4.03906C8.41181 4.03909 9.95076 4.21424 11.043 4.4873C11.5931 4.62486 11.9986 4.77939 12.2529 4.92969C12.3479 4.98581 12.4032 5.0324 12.4365 5.06348C12.4032 5.09455 12.3478 5.14117 12.2529 5.19727C11.9986 5.34756 11.5931 5.5021 11.043 5.63965C9.95076 5.91271 8.41181 6.08786 6.69141 6.08789C4.97082 6.08789 3.43117 5.91274 2.33887 5.63965C1.78877 5.50209 1.38327 5.34756 1.12891 5.19727C1.03347 5.14085 0.977593 5.09458 0.944336 5.06348C0.977588 5.03238 1.03343 4.98612 1.12891 4.92969C1.38327 4.77939 1.78876 4.62486 2.33887 4.4873C3.43117 4.21421 4.97082 4.03906 6.69141 4.03906Z" fill="#E1E6E9" stroke="#284268" stroke-width="1.125"/>
<path d="M12.718 5.06342C12.718 5.22182 12.4316 5.43462 11.878 5.63942C11.8751 5.64119 11.8718 5.64229 11.8684 5.64262C11.8188 5.66182 11.7676 5.67942 11.7148 5.69702C11.0657 5.90406 10.3989 6.05081 9.72283 6.13542C9.57243 6.15782 9.41883 6.17702 9.25723 6.19462C9.14843 6.20742 9.03643 6.21862 8.92123 6.22982C8.91012 6.23168 8.89889 6.23275 8.88763 6.23302C8.84443 6.23782 8.79963 6.24102 8.75323 6.24582C8.59003 6.26022 8.42043 6.27302 8.24763 6.28262C7.85243 6.30822 7.43323 6.32422 6.99003 6.32742C6.89083 6.33062 6.79163 6.33062 6.69083 6.33062H6.62363C6.60763 6.33062 6.59163 6.33062 6.57563 6.32902C6.32923 6.32902 6.09083 6.32422 5.85883 6.31782C5.84443 6.31782 5.82843 6.31622 5.81403 6.31622C5.56603 6.30822 5.32603 6.29542 5.09563 6.28102C4.52283 6.24422 4.00443 6.18822 3.53883 6.11782C3.48283 6.11142 3.42683 6.10182 3.37243 6.09382C2.91859 6.02522 2.46926 5.92959 2.02683 5.80742C1.12923 5.55622 0.663628 5.26502 0.663628 5.06342C0.663628 4.91142 0.929228 4.70822 1.44443 4.50982C1.87175 4.35261 2.31103 4.23008 2.75803 4.14342L2.83483 4.12902C3.60805 3.98067 4.39033 3.88424 5.17643 3.84038C5.39723 3.82758 5.62443 3.81638 5.86123 3.80838C5.90123 3.80678 5.94123 3.80678 5.98283 3.80518L6.20683 3.80038C6.24843 3.79878 6.29003 3.79878 6.33323 3.79878C6.45003 3.79718 6.57003 3.79558 6.69163 3.79558C6.76363 3.79558 6.83403 3.79558 6.90443 3.79718C7.77197 3.79995 8.63857 3.85445 9.49963 3.96038C9.54443 3.96518 9.58763 3.97158 9.63083 3.97798C9.70283 3.98598 9.77323 3.99558 9.84363 4.00678C10.0868 4.04198 10.3156 4.08198 10.5284 4.12358C10.546 4.12678 10.5636 4.12998 10.5812 4.13478C10.584 4.13436 10.5868 4.13493 10.5892 4.13638C10.6548 4.14918 10.7172 4.16198 10.7796 4.17478C11.1409 4.25134 11.4969 4.35129 11.8452 4.47398C11.9985 4.5283 12.1482 4.59243 12.2932 4.66598C12.574 4.81062 12.718 4.95142 12.718 5.06342Z" fill="#D5D6DB"/>
<path d="M7.01598 6.03809C7.01707 6.13523 7.00849 6.23224 6.99039 6.32769C6.89119 6.33089 6.79198 6.33089 6.69118 6.33089H6.62399C6.60799 6.33089 6.59198 6.33089 6.57598 6.32929C6.32958 6.32929 6.09119 6.32449 5.85918 6.31809C5.84478 6.31809 5.82878 6.31649 5.81438 6.31649C5.56638 6.30849 5.32638 6.29569 5.09598 6.28129C4.52318 6.24449 4.00478 6.18849 3.53918 6.11809C3.48318 6.11169 3.42718 6.10209 3.37278 6.09409C2.91895 6.0255 2.46962 5.92986 2.02718 5.80769C1.91838 5.61249 1.81918 5.41249 1.72638 5.20929C1.64958 5.03809 1.57598 4.86529 1.50878 4.68929C1.48638 4.63009 1.46398 4.57089 1.44478 4.51009C1.39528 4.37219 1.3667 4.22765 1.35998 4.08129C1.35426 3.9763 1.37213 3.87135 1.41227 3.77417C1.45242 3.67699 1.51383 3.59003 1.59198 3.51969C1.59308 3.34924 1.63353 3.18135 1.7102 3.02911C1.78686 2.87687 1.89766 2.7444 2.03394 2.64203C2.17023 2.53966 2.32832 2.47016 2.49589 2.43894C2.66346 2.40773 2.83598 2.41565 2.99998 2.46209C3.12206 2.2238 3.31338 2.02803 3.54878 1.90049C3.66972 1.83196 3.79871 1.77876 3.93278 1.74209C3.96958 1.73249 4.00638 1.72289 4.04318 1.71649H4.04478C4.40716 1.65086 4.77917 1.66066 5.13758 1.74529C5.28478 1.77569 5.43198 1.81569 5.57598 1.86049C5.70249 1.9008 5.826 1.94999 5.94559 2.00769C6.11579 2.0849 6.26994 2.19346 6.39998 2.32769C6.59183 2.5442 6.72464 2.8065 6.78559 3.08929C6.79403 3.11879 6.80097 3.14869 6.80639 3.17889V3.18049C6.8429 3.34092 6.87015 3.50332 6.88799 3.66689C6.89279 3.71009 6.89919 3.75489 6.90399 3.79809C6.93439 4.06209 6.95838 4.32609 6.97598 4.59169C7.01065 5.07329 7.02398 5.55542 7.01598 6.03809Z" fill="#65B54E"/>
<path d="M6.63448 6.16718C6.63288 6.22158 6.62968 6.27598 6.62328 6.33038C6.60728 6.33038 6.59128 6.33038 6.57528 6.32878C6.57729 6.08123 6.54772 5.83444 6.48728 5.59438C6.44088 5.40558 6.38648 5.21998 6.32248 5.03438C6.26328 4.86158 6.20088 4.68718 6.13688 4.51438C6.13368 4.50318 6.12888 4.49358 6.12568 4.48238C6.10328 4.41838 6.07928 4.35278 6.05528 4.28878C6.01048 4.17038 5.96408 4.05358 5.91608 3.93678C5.89848 3.89358 5.87928 3.85038 5.86008 3.80878C5.79916 3.67492 5.73078 3.54458 5.65528 3.41838C5.58605 3.30969 5.50143 3.2116 5.40408 3.12718C5.15607 2.91295 4.88634 2.72526 4.59928 2.56718C4.78168 2.64238 5.20088 2.77998 5.34968 2.91278C5.38328 2.94318 5.41688 2.97678 5.44888 3.00878C5.55573 3.11868 5.65165 3.23871 5.73528 3.36718C5.82853 3.50677 5.91091 3.65334 5.98168 3.80558C5.99448 3.83278 6.00888 3.86158 6.02168 3.89038C6.05048 3.95598 6.07928 4.02158 6.10488 4.08718C6.13048 4.15278 6.15608 4.21518 6.18168 4.28078C6.20088 4.33358 6.22168 4.38798 6.24088 4.44078C6.30648 4.62638 6.37208 4.81038 6.43288 4.99918C6.49296 5.18777 6.54264 5.37953 6.58168 5.57358C6.62001 5.76905 6.6377 5.96801 6.63448 6.16718ZM3.53848 6.11758C3.48248 6.11118 3.42648 6.10158 3.37208 6.09358C3.27448 5.97038 3.17848 5.84398 3.08728 5.71278C2.96798 5.54222 2.87068 5.35729 2.79768 5.16238C2.72991 4.96427 2.69795 4.75568 2.70328 4.54638C2.7069 4.41041 2.72513 4.27524 2.75768 4.14318C2.77368 4.07278 2.79448 4.00558 2.81688 3.93838C2.85048 3.84238 2.89208 3.74958 2.92408 3.65358C2.95991 3.5596 2.97782 3.45975 2.97688 3.35918C2.99076 3.46087 2.98368 3.56432 2.95608 3.66318C2.93208 3.76398 2.89848 3.85998 2.87448 3.95598C2.85848 4.01358 2.84568 4.07118 2.83448 4.12878C2.80867 4.26645 2.79635 4.40631 2.79768 4.54638C2.79994 4.67361 2.81604 4.80022 2.84568 4.92398C2.86056 4.99216 2.88089 5.05904 2.90648 5.12398C2.9783 5.30837 3.0729 5.48306 3.18808 5.64398C3.29688 5.80558 3.41848 5.96078 3.53848 6.11758ZM2.82408 3.09838C2.75938 3.0663 2.68828 3.04924 2.61608 3.04846C2.48998 3.04008 2.36358 3.0593 2.24568 3.10478C2.1346 3.1477 2.0291 3.20384 1.93144 3.27198C1.83688 3.33822 1.74872 3.4027 1.646 3.48174C1.76785 3.51457 1.8958 3.5177 2.01912 3.49086C2.12979 3.46842 2.23914 3.43984 2.34664 3.40526C2.44904 3.3723 2.53208 3.36046 2.65064 3.32302C2.67832 3.3139 2.70152 3.30446 2.7236 3.29566L2.96216 3.25454C2.9355 3.18813 2.88672 3.13297 2.82408 3.09838ZM3.1956 2.47246C3.16632 2.45488 3.13318 2.44478 3.09908 2.44305C3.06498 2.44132 3.03098 2.44801 3.00008 2.46254C3.00008 2.54254 3.00136 2.58926 2.99736 2.62574C2.99297 2.6556 2.9951 2.68605 3.0036 2.71502C3.01718 2.75354 3.03834 2.78896 3.06584 2.81918C3.10713 2.86573 3.16078 2.89963 3.22056 2.91694C3.2617 2.87264 3.29257 2.81981 3.31096 2.76222C3.3249 2.71367 3.32361 2.66201 3.30728 2.61422C3.28796 2.55526 3.24839 2.50504 3.1956 2.47246ZM5.14872 1.93934C5.05509 1.96307 4.96641 2.00321 4.8868 2.0579C4.80528 2.11323 4.73529 2.18387 4.68072 2.2659C4.61834 2.35321 4.5899 2.46026 4.60072 2.56702C4.70136 2.51902 4.77672 2.48702 4.85416 2.44878C4.92862 2.41107 5.00042 2.3683 5.06904 2.32078C5.13898 2.27238 5.20509 2.21867 5.2668 2.16014C5.33671 2.09337 5.39926 2.01929 5.45336 1.93918C5.35362 1.91201 5.24842 1.91206 5.14872 1.93934Z" fill="#5FA348"/>
<path d="M4.65301 0.727006C4.5866 0.670445 4.50269 0.638576 4.41547 0.636797C4.32826 0.635019 4.24311 0.66344 4.17445 0.717246C4.04014 0.829093 3.93431 0.971231 3.86565 1.13197C3.66277 1.52045 3.45349 1.94541 3.52869 2.37725C3.54864 2.4575 3.56139 2.53937 3.56677 2.62189C3.569 2.66332 3.56073 2.70464 3.54275 2.74203C3.52477 2.77942 3.49765 2.81168 3.46389 2.83581C3.44655 2.84644 3.42709 2.85312 3.40687 2.85539C3.38666 2.85766 3.3662 2.85546 3.34693 2.84894C3.32766 2.84242 3.31007 2.83175 3.29538 2.81767C3.2807 2.80359 3.2693 2.78646 3.26197 2.76749C3.23245 2.89488 3.16895 3.01189 3.07824 3.10607C2.98752 3.20025 2.87297 3.26809 2.74677 3.30237C2.89606 3.30211 3.04271 3.26307 3.17237 3.18909C3.30169 3.11541 3.44366 3.06657 3.59093 3.04509C3.66488 3.03565 3.73994 3.04932 3.80582 3.08421C3.8717 3.11909 3.92518 3.1735 3.95893 3.23997C4.00295 3.0842 4.08435 2.94154 4.19606 2.8244C4.30776 2.70726 4.44639 2.61917 4.59989 2.56781C4.42656 2.53583 4.27131 2.44053 4.16432 2.30046C4.05733 2.16038 4.00625 1.98553 4.02101 1.80989C4.06261 1.46061 4.52101 1.17965 4.52101 1.17965C4.56479 1.16474 4.60434 1.13951 4.63631 1.10609C4.66828 1.07267 4.69173 1.03204 4.70468 0.987641C4.71763 0.943241 4.71969 0.896375 4.7107 0.851009C4.70171 0.805642 4.68192 0.763109 4.65301 0.727006Z" fill="#5FA348"/>
<path d="M10.783 4.30998C10.7719 4.52702 10.7146 4.73921 10.615 4.93238C10.4904 5.16917 10.3413 5.39225 10.1702 5.59798C10.0262 5.78038 9.87686 5.95958 9.72219 6.13558C9.57179 6.15798 9.41819 6.17718 9.25659 6.19478C9.14779 6.20758 9.03579 6.21878 8.92059 6.22998C8.90299 6.24278 8.88699 6.25558 8.86939 6.26678C8.87463 6.25526 8.8805 6.24404 8.88699 6.23318C8.84379 6.23798 8.79899 6.24118 8.75259 6.24598C8.58939 6.26038 8.41979 6.27318 8.24699 6.28278C7.85179 6.30838 7.43259 6.32438 6.98939 6.32758C6.89019 6.33078 6.79099 6.33078 6.69019 6.33078H6.62299C6.60699 6.33078 6.59099 6.33078 6.57499 6.32918C6.32859 6.32918 6.09019 6.32438 5.85819 6.31798C5.84379 6.31798 5.82779 6.31638 5.81339 6.31638C5.56539 6.30838 5.32539 6.29558 5.09499 6.28118C5.0318 6.17269 4.98591 6.05501 4.95899 5.93238C4.91287 5.68764 4.90424 5.43731 4.93339 5.18998C4.94939 5.00758 4.97179 4.82678 5.00059 4.64758C5.04451 4.37562 5.10299 4.10622 5.17579 3.84054C5.24139 3.59894 5.31819 3.36054 5.40459 3.12694C5.41899 3.08694 5.43339 3.04694 5.44939 3.00854C5.51819 2.82934 5.59179 2.65334 5.67019 2.47894C5.74016 2.30988 5.83274 2.1511 5.94539 2.00694C5.96222 1.98554 5.98039 1.96523 5.99979 1.94614C6.07021 1.86837 6.15731 1.80754 6.25456 1.76819C6.35182 1.72885 6.45671 1.71201 6.56139 1.71894C6.68378 1.60018 6.83194 1.51128 6.99433 1.45919C7.15672 1.40709 7.32894 1.3932 7.49758 1.4186C7.66622 1.444 7.82671 1.50799 7.96655 1.6056C8.1064 1.70321 8.22181 1.8318 8.30379 1.98134C8.55809 1.90056 8.83092 1.89889 9.08619 1.97654C9.08779 1.97814 9.08779 1.97814 9.08779 1.97654C9.22239 2.01388 9.35149 2.06875 9.47179 2.13974C9.50379 2.15894 9.53579 2.17814 9.56619 2.20054C9.86755 2.41306 10.1219 2.68539 10.3134 3.00054C10.3948 3.12777 10.4696 3.25915 10.5374 3.39414C10.6409 3.59047 10.7158 3.8006 10.7598 4.01814V4.01974C10.7645 4.0381 10.7678 4.05684 10.7694 4.07574C10.7743 4.10862 10.7775 4.14173 10.779 4.17494C10.7803 4.18608 10.7809 4.19731 10.7806 4.20854C10.7846 4.2422 10.7854 4.27616 10.783 4.30998Z" fill="#FCD462"/>
<path d="M9.63002 3.97182V3.97822C9.63644 4.17537 9.6187 4.37257 9.57722 4.56542C9.56442 4.62942 9.54842 4.69342 9.53082 4.75582C9.4952 4.88482 9.45301 5.01192 9.40442 5.13662C9.33882 5.30302 9.26522 5.46622 9.18842 5.62942C9.18202 5.64542 9.17402 5.66302 9.16602 5.67902C9.07962 5.85502 8.99482 6.03262 8.90202 6.20702C8.89722 6.21502 8.89242 6.22462 8.88762 6.23262C8.84442 6.23742 8.79962 6.24062 8.75322 6.24542C8.76922 6.21502 8.78522 6.18462 8.79962 6.15422C8.85722 6.04062 8.91322 5.92382 8.96762 5.80862C8.99802 5.74782 9.02682 5.68702 9.05562 5.62622C9.14042 5.45022 9.22362 5.27262 9.29722 5.09342C9.34522 4.97822 9.38842 4.86142 9.42522 4.74302C9.44762 4.67742 9.46682 4.61022 9.48442 4.54462C9.52347 4.35231 9.52835 4.15462 9.49882 3.96062C9.46783 3.70241 9.4181 3.44681 9.35002 3.19582C9.42522 3.37598 9.62042 3.77342 9.63002 3.97182ZM7.64922 2.59198C7.58597 2.67343 7.5071 2.74142 7.41722 2.79198C7.32922 2.84478 7.23642 2.88798 7.15002 2.93918C7.02751 3.00731 6.91225 3.08772 6.80602 3.17918C6.76122 3.21758 6.71802 3.25758 6.67642 3.29918C6.53742 3.43908 6.42373 3.60203 6.34042 3.78078C6.33722 3.78718 6.33562 3.79198 6.33242 3.79838C6.26436 3.95275 6.21391 4.11431 6.18202 4.27998C6.17562 4.30238 6.17242 4.32318 6.16762 4.34558C6.15642 4.40158 6.14682 4.45758 6.13722 4.51358C6.11322 4.65598 6.09402 4.79998 6.07322 4.94398C6.04442 5.14398 6.01722 5.34558 5.98522 5.54558C5.94682 5.80318 5.90522 6.06078 5.85882 6.31678C5.84442 6.31678 5.82842 6.31518 5.81402 6.31518C5.83642 6.05438 5.86362 5.79358 5.89082 5.53278C5.91162 5.33118 5.93562 5.12958 5.95962 4.92798C5.98362 4.72638 6.00762 4.52478 6.04762 4.32318C6.05082 4.31198 6.05242 4.29918 6.05562 4.28798C6.07002 4.22078 6.08602 4.15358 6.10522 4.08638C6.13161 3.98853 6.16531 3.89279 6.20602 3.79998C6.21562 3.77598 6.22522 3.75358 6.23642 3.73118C6.32913 3.5425 6.45608 3.37269 6.61082 3.23038C6.66564 3.179 6.72391 3.13142 6.78522 3.08798C6.89048 3.0093 7.00362 2.94174 7.12282 2.88638C7.21562 2.84158 7.31002 2.80638 7.40122 2.76318C7.49343 2.72135 7.57742 2.66337 7.64922 2.59198ZM7.70442 2.31534C7.67912 2.25275 7.64052 2.19641 7.5913 2.15022C7.50726 2.06079 7.40704 1.9881 7.29594 1.93598C7.18903 1.88691 7.07777 1.84791 6.96362 1.8195L6.62762 1.73134C6.6997 1.8293 6.79127 1.91128 6.89658 1.97214C6.99258 2.03214 7.09034 2.0803 7.18154 2.1291L7.71242 2.51022C7.72908 2.4459 7.7263 2.37808 7.70442 2.31534ZM8.30346 1.9811C8.26858 2.03534 8.24842 2.07374 8.22746 2.10286C8.20879 2.12891 8.19169 2.15605 8.17626 2.18414C8.15734 2.21996 8.14299 2.25802 8.13354 2.29742C8.1204 2.34998 8.12067 2.40499 8.13434 2.45742C8.18676 2.44817 8.23658 2.42776 8.28042 2.39758C8.32083 2.36937 8.35378 2.33175 8.37642 2.28798C8.40388 2.23649 8.41328 2.17728 8.40314 2.11982C8.39783 2.09076 8.38613 2.06324 8.3689 2.03925C8.35166 2.01526 8.32931 1.9954 8.30346 1.9811ZM10.1724 3.18126C10.0887 3.13771 9.99903 3.10651 9.90634 3.08862C9.81237 3.06982 9.71597 3.06636 9.6209 3.07838C9.52076 3.08779 9.42619 3.12874 9.35082 3.19534C9.44986 3.2147 9.53018 3.23598 9.61418 3.2563C9.69818 3.27662 9.77962 3.29486 9.86346 3.3107C9.9473 3.32654 10.0321 3.34046 10.1195 3.35038C10.2115 3.36112 10.3042 3.36551 10.3969 3.3635C10.3366 3.28676 10.2599 3.22449 10.1724 3.18126Z" fill="#F7BE56"/>
<path d="M10.7001 1.94266C10.6938 1.85568 10.6577 1.77353 10.5978 1.71013C10.5379 1.64674 10.4579 1.606 10.3714 1.59482C10.1976 1.57745 10.0221 1.60163 9.85944 1.66538C9.44008 1.79338 8.99048 1.94186 8.73544 2.29834C8.6921 2.36881 8.64263 2.43531 8.5876 2.49706C8.55969 2.52762 8.52456 2.55067 8.48541 2.56409C8.44627 2.57751 8.40438 2.58087 8.3636 2.57386C8.34383 2.56897 8.32539 2.55978 8.30958 2.54696C8.29376 2.53414 8.28096 2.51799 8.27209 2.49966C8.26322 2.48134 8.25849 2.46128 8.25824 2.44093C8.25799 2.42057 8.26222 2.4004 8.27064 2.38186C8.15912 2.45015 8.03119 2.48694 7.90044 2.48832C7.76969 2.4897 7.64101 2.45562 7.52808 2.3897C7.633 2.49587 7.76365 2.57305 7.90728 2.6137C8.05065 2.65408 8.18522 2.72088 8.30408 2.81066C8.36257 2.8568 8.40538 2.91989 8.42666 2.99128C8.44794 3.06268 8.44664 3.13891 8.42296 3.20954C8.56482 3.13187 8.72351 3.09 8.88523 3.08757C9.04695 3.08515 9.20682 3.12224 9.35096 3.19562C9.25229 3.04963 9.21141 2.87217 9.23625 2.69773C9.26108 2.52328 9.34987 2.36428 9.48536 2.25162C9.7636 2.03642 10.2854 2.16618 10.2854 2.16618C10.3267 2.18683 10.3724 2.19724 10.4185 2.19653C10.4647 2.19581 10.5101 2.184 10.5507 2.16208C10.5914 2.14017 10.6262 2.10879 10.6522 2.0706C10.6782 2.03241 10.6946 1.98853 10.7001 1.94266Z" fill="#5FA348"/>
<path d="M10.5579 3.87633C10.5368 3.8249 10.5042 3.77899 10.4626 3.74211C10.421 3.70522 10.3715 3.67834 10.3179 3.66353C10.2795 3.64913 10.2395 3.63633 10.2011 3.62193C10.1237 3.56213 10.0365 3.51613 9.9435 3.48593C9.90015 3.47613 9.85485 3.47958 9.81348 3.49584C9.77211 3.5121 9.73658 3.54042 9.7115 3.57713C9.69352 3.62176 9.68746 3.67031 9.69391 3.718C9.70036 3.76568 9.71911 3.81087 9.7483 3.84913C9.7787 3.90193 9.8155 3.95313 9.8427 4.00753C9.85761 4.03838 9.86786 4.07127 9.8731 4.10513C9.8907 4.24753 9.7883 4.39313 9.8363 4.52753C9.84959 4.56255 9.87232 4.5932 9.90198 4.61608C9.93164 4.63896 9.96706 4.65317 10.0043 4.65713C10.0214 4.65902 10.0386 4.65848 10.0555 4.65553C10.0839 4.65054 10.1109 4.63971 10.1348 4.62374C10.1588 4.60776 10.1792 4.58699 10.1947 4.56273C10.2299 4.50513 10.2379 4.42993 10.2875 4.38673C10.324 4.36499 10.362 4.34575 10.4011 4.32913C10.4547 4.29236 10.4937 4.23803 10.5115 4.17553C10.5179 4.15793 10.5227 4.14193 10.5275 4.12433C10.5304 4.11764 10.5325 4.11067 10.5339 4.10353C10.5624 4.03138 10.5707 3.95283 10.5579 3.87633Z" fill="#D5D6DB" fill-opacity="0.0705882"/>
<path d="M12.0089 5.32394C11.9808 5.43745 11.9332 5.5452 11.8681 5.64234C11.8185 5.66154 11.7673 5.67914 11.7145 5.69674C11.0654 5.90378 10.3986 6.05053 9.72251 6.13514C9.57211 6.15754 9.41852 6.17674 9.25692 6.19434C9.14812 6.20714 9.03611 6.21834 8.92091 6.22954C8.90331 6.24234 8.88731 6.25514 8.86971 6.26634C8.87495 6.25482 8.88082 6.2436 8.88731 6.23274C8.84411 6.23754 8.79932 6.24074 8.75292 6.24554C8.58972 6.25994 8.42011 6.27274 8.24731 6.28234C8.49887 6.14278 8.73955 5.98446 8.96731 5.80874C9.04411 5.74954 9.11772 5.69034 9.18812 5.62954C9.47103 5.38766 9.72499 5.11384 9.94491 4.81354C9.98331 4.75914 10.0217 4.70634 10.0553 4.65514C10.0841 4.61194 10.1097 4.57034 10.1353 4.53034C10.2277 4.38134 10.3573 4.25893 10.5113 4.17514C10.5257 4.16554 10.5401 4.15914 10.5545 4.15114L10.5641 4.14634L10.5881 4.13674C10.6457 4.10935 10.7064 4.08894 10.7689 4.07594C10.9674 4.02815 11.1757 4.04051 11.3672 4.11146C11.5586 4.18241 11.7247 4.30873 11.8441 4.47434C11.9314 4.59562 11.9913 4.73438 12.0197 4.88106C12.0482 5.02773 12.0445 5.17883 12.0089 5.32394Z" fill="#FE7058"/>
<path d="M13.6535 3.91117C13.6491 3.93716 13.6394 3.96195 13.6249 3.98397C13.6105 4.00599 13.5916 4.02474 13.5694 4.03905C13.5473 4.05335 13.5224 4.06288 13.4964 4.06704C13.4704 4.07119 13.4438 4.06987 13.4183 4.06317C13.2087 4.00237 12.8311 3.98797 12.3159 4.33197C12.3178 4.44393 12.3098 4.55584 12.2919 4.66637C12.2297 5.01797 12.0879 5.35069 11.8775 5.63917C11.8746 5.64095 11.8713 5.64204 11.8679 5.64237C11.8183 5.66157 11.7671 5.67917 11.7143 5.69677L11.7655 4.91597L10.9959 4.97037L11.3527 4.35277L10.7799 4.20877L10.5559 4.15277C10.5591 4.15117 10.5607 4.14797 10.5639 4.14637C10.5671 4.14477 10.5751 4.13837 10.5799 4.13517C10.6364 4.09194 10.6963 4.05342 10.7591 4.01997C11.1319 3.83986 11.5562 3.7968 11.9575 3.89837C11.9575 3.89837 12.7687 3.31117 13.5511 3.70797C13.5878 3.72624 13.6177 3.75591 13.6361 3.79254C13.6546 3.82917 13.6607 3.87079 13.6535 3.91117Z" fill="#65B54E"/>
<path d="M9.63621 5.80572C9.52368 5.94816 9.39659 6.07847 9.25701 6.19452C9.14821 6.20732 9.03621 6.21852 8.92101 6.22972C9.13416 6.07997 9.32534 5.90118 9.48901 5.69852C9.49599 5.68889 9.50482 5.68074 9.51498 5.67455C9.52514 5.66836 9.53643 5.66426 9.54819 5.66247C9.55995 5.66068 9.57195 5.66125 9.58349 5.66415C9.59503 5.66704 9.60588 5.67219 9.61541 5.67932C9.63472 5.69347 9.64772 5.71464 9.65161 5.73827C9.6555 5.7619 9.64997 5.78611 9.63621 5.80572Z" fill="#EBF0F3"/>
</svg>
