<svg width="32" height="32" viewBox="0 0 32 32" fill="none" xmlns="http://www.w3.org/2000/svg">
<circle cx="16" cy="16" r="16" fill="#D9ECCD"/>
<path fill-rule="evenodd" clip-rule="evenodd" d="M21.895 15.7829C21.8001 15.6154 21.6899 15.456 21.5639 15.3096L21.5618 15.3073L21.5615 15.3042C21.5492 15.1711 21.533 15.0384 21.515 14.9058C21.4775 14.6298 21.5382 14.3573 21.6818 14.1174C21.9479 13.6734 22.126 13.1417 22.1673 12.6286C22.2395 11.7349 21.9076 10.9549 21.2897 10.3049C20.6308 9.70135 19.8395 9.38134 18.9345 9.45428C18.4129 9.4964 17.8722 9.67207 17.4207 9.933C17.1759 10.0745 16.8986 10.1325 16.6172 10.0969C16.4819 10.0796 16.3464 10.0632 16.2107 10.0514L16.2075 10.0511L16.2052 10.0491C16.0456 9.91656 15.8722 9.80382 15.6886 9.70623C14.9954 9.3929 14.2734 9.34205 13.5656 9.63765C13.1581 9.80793 12.7712 10.0907 12.4795 10.4186C12.3291 10.5876 12.1274 10.6947 11.9033 10.7361C11.705 10.7728 11.5088 10.8162 11.3145 10.8694C11.168 10.9094 11.0241 10.9554 10.8797 11.0021L10.7426 11.0466C10.2608 11.2025 9.86819 11.5294 9.63957 11.9747C9.48001 12.2857 9.41436 12.634 9.44993 12.9805C9.4821 13.292 9.40415 13.5984 9.21765 13.8534C9.1601 13.9322 9.10909 14.016 9.06463 14.1028C8.80776 14.6036 8.78578 15.1945 8.99975 15.7138C9.0709 15.8864 9.10386 16.0741 9.05992 16.2578C9.00054 16.5069 8.96575 16.7696 8.93828 17.0239C8.9048 17.332 8.88283 17.6423 8.86635 17.9518C8.83287 18.5769 8.82031 19.2056 8.82031 19.8317V20.6528C8.82031 21.7039 9.69111 22.5586 10.7617 22.5586H11.598C12.1839 22.5586 12.7709 22.5491 13.3563 22.5224C13.7008 22.5068 14.0461 22.4852 14.389 22.451C14.6708 22.423 14.9624 22.3871 15.2381 22.3236C15.4244 22.2808 15.6172 22.3123 15.7921 22.3822C16.3216 22.5933 16.9235 22.572 17.4341 22.319C17.5222 22.2754 17.6065 22.225 17.687 22.1688C17.9476 21.9862 18.2591 21.9104 18.5766 21.9412C18.9282 21.9751 19.2847 21.9114 19.6002 21.755C20.0538 21.5303 20.3865 21.1448 20.5461 20.6718L20.5913 20.5377C20.6389 20.3962 20.6858 20.2552 20.7268 20.1114C20.7812 19.9206 20.8252 19.7277 20.8626 19.5328C20.9047 19.3127 21.0132 19.1146 21.1856 18.9672C21.5204 18.6809 21.8082 18.2995 21.9806 17.8983C22.2811 17.198 22.2238 16.4835 21.9023 15.7993L21.8945 15.7826L21.895 15.7829ZM17.755 10.3537C18.1385 10.1431 18.5774 10.0011 19.0151 9.97255C19.7449 9.92504 20.3794 10.1924 20.9104 10.678C21.408 11.202 21.6876 11.8283 21.641 12.5503C21.6117 13.0046 21.4535 13.4584 21.2191 13.8501C21.0143 14.1924 20.929 14.5817 20.9826 14.9754C21.0028 15.1223 21.0193 15.2695 21.0313 15.418C21.0313 15.4305 21.0323 15.4431 21.0339 15.456C21.052 15.692 21.0548 15.9239 21.0548 16.1602V16.3417C21.0548 16.7853 20.8835 17.2024 20.5639 17.517C20.3423 17.735 20.0614 17.8852 19.7553 17.9518C19.2345 18.065 18.7898 18.3439 18.4746 18.7669C18.4223 18.837 18.3648 18.9025 18.3023 18.9639C17.9334 19.3255 17.4158 19.5112 16.8963 19.4747C16.5497 19.4503 16.201 19.5186 15.9028 19.6976C15.7192 19.8078 15.5222 19.9036 15.3268 19.992C15.0799 20.1039 14.8282 20.2064 14.5753 20.3043C13.982 20.5336 13.3767 20.7396 12.7712 20.9358C11.9239 21.2103 11.0694 21.4656 10.2124 21.7096C10.1667 21.7227 10.1193 21.7294 10.0714 21.7273L10.0489 21.7265L14.7757 17.0858H18.009C18.1576 17.0858 18.2779 16.9676 18.2779 16.8217C18.2779 16.6761 18.1573 16.5577 18.009 16.5577H15.3132L18.1989 13.7245C18.3038 13.6215 18.3038 13.454 18.1989 13.3513C18.094 13.2483 17.9237 13.2483 17.8189 13.3513L14.9331 16.1846V13.5378C14.9331 13.3919 14.8128 13.2737 14.6642 13.2737C14.5156 13.2737 14.3953 13.3919 14.3953 13.5378V16.7123L9.67044 21.3529L9.66939 21.331C9.66704 21.2848 9.67332 21.2381 9.6864 21.1934C9.93516 20.3525 10.1952 19.5138 10.4748 18.6824C10.6746 18.0876 10.8847 17.4928 11.1185 16.9098C11.2182 16.6615 11.3226 16.4139 11.4366 16.1715C11.5266 15.9799 11.6242 15.7862 11.7364 15.6059C11.9187 15.3132 11.9885 14.9711 11.9632 14.6305C11.925 14.1184 12.1125 13.614 12.4827 13.2509C12.5454 13.1892 12.6129 13.1322 12.6846 13.0809C13.1154 12.7714 13.3995 12.3353 13.5149 11.8237C13.5829 11.5227 13.7361 11.2477 13.9585 11.0299C14.2758 10.7191 14.6967 10.5476 15.145 10.5476H15.3404C15.5808 10.5476 15.817 10.5507 16.0579 10.5684C16.0715 10.5704 16.0854 10.5715 16.0998 10.5715C16.2494 10.5833 16.3982 10.5995 16.5468 10.6192C16.9483 10.6732 17.3451 10.5889 17.6941 10.3871L17.7576 10.3503L17.755 10.3532V10.3537ZM9.49623 15.5071C9.34399 15.1303 9.36073 14.7027 9.54671 14.3403C9.57863 14.2779 9.61551 14.2181 9.65684 14.1613C9.91999 13.8 10.0319 13.3693 9.98643 12.9275C9.96105 12.6815 10.0079 12.4332 10.1211 12.2123C10.2846 11.8938 10.5658 11.6601 10.9103 11.5489L11.0505 11.5037C11.1855 11.4601 11.32 11.4169 11.4568 11.3794C11.6372 11.3296 11.8198 11.289 12.004 11.2549C12.3427 11.1922 12.6579 11.0219 12.8852 10.7664C13.0929 10.5329 13.3498 10.3277 13.6307 10.186C14.043 9.97794 14.4861 9.91579 14.9407 10.0103L15.0048 10.0237L14.9394 10.0296C14.4215 10.0755 13.9449 10.2959 13.5774 10.6572C13.2828 10.9467 13.0788 11.3109 12.9891 11.7102C12.903 12.0931 12.6914 12.4234 12.3676 12.6553C12.2737 12.7226 12.1853 12.7971 12.1029 12.8777C11.6221 13.3492 11.377 14.0044 11.4264 14.6693C11.4439 14.9023 11.4016 15.1308 11.2768 15.3314C11.1617 15.5163 11.061 15.7143 10.9679 15.9108C10.8512 16.1568 10.7442 16.408 10.6419 16.6602C10.4036 17.2486 10.1899 17.849 9.98669 18.45C9.7735 19.0805 9.57183 19.7151 9.37774 20.3515L9.35838 20.4149V19.8327C9.35838 19.1339 9.37172 18.4312 9.41723 17.7337C9.43424 17.4718 9.45595 17.209 9.48786 16.9484C9.51114 16.7588 9.53913 16.5649 9.5836 16.379C9.65318 16.087 9.61211 15.7919 9.49832 15.5161L9.49466 15.5076L9.49623 15.5071ZM20.8401 18.5643L20.8403 18.5648L20.8346 18.5699C20.5735 18.7929 20.4006 19.1028 20.3368 19.4357C20.302 19.6165 20.2607 19.7957 20.2102 19.9729C20.1717 20.1073 20.1278 20.2393 20.0833 20.3721L20.0373 20.5097C19.924 20.8477 19.6857 21.124 19.3616 21.2843C19.1367 21.3957 18.8845 21.442 18.6337 21.4165C18.1835 21.3711 17.7456 21.4823 17.3768 21.7399C17.3187 21.7805 17.2578 21.8172 17.1942 21.8485C16.8215 22.0327 16.3825 22.0473 15.9962 21.8935C15.715 21.7815 15.4147 21.7417 15.1175 21.81C14.9284 21.8537 14.7309 21.8811 14.5381 21.904C14.2726 21.9353 14.0053 21.9566 13.7382 21.9733C13.0278 22.0178 12.3116 22.0311 11.5998 22.0311H11.0068L11.0715 22.0121C11.7196 21.8216 12.3657 21.6238 13.0079 21.4148C13.62 21.2152 14.2313 21.0056 14.8309 20.7719C15.0877 20.6718 15.3435 20.5667 15.5941 20.4522C15.7945 20.3608 15.9959 20.2619 16.1845 20.1486C16.3893 20.0256 16.6211 19.985 16.8589 20.0017C17.5345 20.049 18.2042 19.8083 18.6836 19.3373C18.7658 19.2567 18.8411 19.1694 18.9096 19.0772C19.1461 18.7592 19.4822 18.5517 19.8728 18.4669C20.2798 18.3786 20.6504 18.1788 20.9452 17.8894C21.3107 17.5306 21.5343 17.0673 21.5837 16.5626L21.59 16.4981L21.6031 16.5616C21.6952 17.0061 21.6316 17.4404 21.4208 17.8431C21.2785 18.1146 21.0739 18.3627 20.8403 18.564L20.8401 18.5643Z" fill="#66B236"/>
</svg>
