<svg width="32" height="32" viewBox="0 0 32 32" fill="none" xmlns="http://www.w3.org/2000/svg">
<path d="M11.0376 7.6646C11.4228 7.47366 11.8469 7.37453 12.2768 7.37497C12.828 7.37497 13.3415 7.53516 13.7746 7.81053C15.0635 7.32422 15.9805 6.07991 15.9805 4.62085C15.9805 2.73828 14.4543 1.21216 12.5718 1.21216C10.6892 1.21216 9.16309 2.73828 9.16309 4.62085C9.16309 5.95141 9.9259 7.1031 11.0376 7.6646Z" fill="#FFCFAB"/>
<path d="M15.9094 3.91075V3.08463C15.9094 1.63988 14.7382 0.46875 13.2935 0.46875H11.779C10.3343 0.46875 9.16309 1.63994 9.16309 3.08463V3.91075H15.9094Z" fill="#E23C38"/>
<path d="M18.1976 23.1095C18.0917 22.4262 17.6763 21.6076 17.1876 21.1189L14.7425 18.6738H12.5203V20.4688L15.1759 23.1244C15.2495 23.2043 15.3703 23.4425 15.3906 23.5446L16.4342 30.2812C16.4863 30.1808 16.5902 30.111 16.7106 30.111H19.2823L18.1976 23.1095Z" fill="#34A1D7"/>
<path d="M20.375 31.2187C20.375 31.3905 20.2344 31.5312 20.0625 31.5312H16.7107C16.5388 31.5312 16.3982 31.3905 16.3982 31.2187V30.4233C16.3982 30.2515 16.5388 30.1108 16.7107 30.1108H20.0625C20.2344 30.1108 20.375 30.2515 20.375 30.4233V31.2187Z" fill="#08375E"/>
<path d="M9.67987 18.6738V21.4135C9.67537 21.522 9.59237 21.7758 9.5345 21.8625L4.85425 28.2587L4.85937 28.2625C4.96337 28.1936 5.10325 28.1904 5.21125 28.266L7.299 29.728L11.8267 23.54C12.2351 22.982 12.5203 22.1094 12.5203 21.418V18.6739H9.67981L9.67987 18.6738Z" fill="#34A1D7"/>
<path d="M7.57756 31.2753C7.47893 31.4161 7.28312 31.4506 7.14231 31.3521L4.39662 29.4296C4.25581 29.331 4.22131 29.1351 4.31987 28.9944L4.77599 28.3429C4.82369 28.2752 4.89624 28.2291 4.97779 28.2147C5.05934 28.2003 5.14327 28.2188 5.21124 28.2661L7.95687 30.1887C8.09768 30.2872 8.13224 30.4831 8.03356 30.6239L7.57756 31.2753Z" fill="#08375E"/>
<path d="M9.48125 10.1707C9.48105 9.82664 9.54455 9.48554 9.66856 9.16462C9.52237 8.963 9.28568 8.83081 9.019 8.83081H6.691C6.24937 8.83081 5.88818 9.19206 5.88818 9.63356V13.5241C5.96608 13.4994 6.04733 13.4868 6.12906 13.4868H7.17262C7.61412 13.4868 7.97543 13.8481 7.97543 14.2896V17.2599C7.97543 17.5221 7.84737 17.7554 7.65131 17.9021H9.019C9.19087 17.9021 9.35025 17.8468 9.48125 17.7539V10.1707Z" fill="#CB7C52"/>
<path d="M15.0724 18.6739V10.1706C15.0724 8.62669 13.8209 7.375 12.2768 7.375C10.7329 7.375 9.4812 8.62662 9.4812 10.1706V18.6739L15.0724 18.6739Z" fill="#EF5A50"/>
<path d="M13.9183 13.1865L13.7658 13.0339C13.0656 13.5619 12.1946 13.8749 11.25 13.8749C10.6388 13.8755 10.035 13.7417 9.4812 13.4831V15.1706C10.035 15.4292 10.6388 15.563 11.25 15.5624C12.6713 15.5624 13.926 14.8536 14.6828 13.7707C14.3926 13.5966 14.1308 13.3989 13.9183 13.1865Z" fill="#AB5436"/>
<path d="M21.0984 12.5786C21.0984 12.4994 21.1292 12.4277 21.1781 12.3726H17.0961C16.602 12.3726 15.7742 12.0297 15.4248 11.6802L13.756 10.0114C13.3401 9.59549 12.6656 9.59543 12.2495 10.0115C11.8335 10.4275 11.8335 11.1019 12.2495 11.518L13.9183 13.1867C14.6687 13.9372 16.0347 14.5031 17.0961 14.5031H21.0984V12.5786H21.0984Z" fill="#E23C38"/>
<path d="M22.7742 12.2658C22.8118 12.2658 22.8474 12.2736 22.8808 12.2859V11.5565C22.8808 11.165 22.5635 10.8477 22.172 10.8477C21.7805 10.8477 21.4631 11.165 21.4631 11.5565V12.2658H22.7742ZM22.7742 14.9999H21.4631V30.8223C21.4631 31.2138 21.7805 31.5312 22.172 31.5312C22.5635 31.5312 22.8808 31.2138 22.8808 30.8223V14.9798C22.8468 14.9928 22.8107 14.9996 22.7742 14.9999Z" fill="#CB7C52"/>
<path d="M23.0868 14.6874C23.0868 14.8593 22.9462 14.9999 22.7743 14.9999H21.4109C21.239 14.9999 21.0984 14.8593 21.0984 14.6874V12.5784C21.0984 12.4065 21.239 12.2659 21.4109 12.2659H22.7743C22.9462 12.2659 23.0868 12.4065 23.0868 12.5784V14.6874Z" fill="#FFCFAB"/>
<path d="M7.9753 17.2596C7.9753 17.7011 7.61405 18.0624 7.17248 18.0624H6.12892C5.68742 18.0624 5.32617 17.7011 5.32617 17.2596V14.2894C5.32617 13.8479 5.68742 13.4866 6.12898 13.4866H7.17255C7.61405 13.4866 7.97536 13.8478 7.97536 14.2894L7.9753 17.2596Z" fill="#FFBB4A"/>
</svg>
