<svg width="32" height="32" viewBox="0 0 32 32" fill="none" xmlns="http://www.w3.org/2000/svg">
<circle cx="16" cy="16" r="16" fill="#D9ECCD"/>
<path d="M16.0026 21.3333C14.4826 21.3333 13.3359 20.2227 13.3359 18.75C13.3359 16.7653 14.7066 14.6667 16.0026 14.6667C17.2986 14.6667 18.6693 16.7653 18.6693 18.75C18.6693 20.2227 17.5226 21.3333 16.0026 21.3333ZM16.0026 15.3333C15.2506 15.3333 14.0026 16.988 14.0026 18.75C14.0026 19.8607 14.8439 20.6667 16.0026 20.6667C17.1613 20.6667 18.0026 19.8607 18.0026 18.75C18.0026 16.988 16.7553 15.3333 16.0026 15.3333ZM16.0026 24C12.3266 24 9.33594 21.3007 9.33594 17.9833C9.33594 11.524 13.7399 8 16.0026 8C17.7299 8 19.0679 9.01933 19.5806 10.726C19.9493 11.9527 20.5486 13.118 21.3639 14.19C22.3399 15.474 22.6693 16.4313 22.6693 17.9827C22.6693 21.3007 19.6786 24 16.0026 24ZM16.0026 8.66667C14.2086 8.66667 10.0026 11.836 10.0026 17.9833C10.0026 20.9333 12.6946 23.3333 16.0026 23.3333C19.3106 23.3333 22.0026 20.9333 22.0026 17.9833C22.0026 16.582 21.7179 15.7587 20.8326 14.594C19.9693 13.458 19.3333 12.2213 18.9426 10.918C18.5119 9.48733 17.4406 8.66667 16.0026 8.66667Z" fill="#338000"/>
</svg>
