<svg width="18" height="24" viewBox="0 0 18 24" fill="none" xmlns="http://www.w3.org/2000/svg">
<path d="M9 24C4.32314 24 0.796689 19.7509 1.65858 15.1542L3.83527 3.54516C4.22072 1.48955 6.01552 0 8.10694 0H9.89311C11.9845 0 13.7793 1.48955 14.1647 3.54516L16.3414 15.1542C17.2033 19.7509 13.6769 24 9 24Z" fill="#80D261"/>
<path d="M9 22.5C5.25867 22.5 2.44486 19.1004 3.13289 15.4306L5.30958 3.82158C5.56181 2.47636 6.73828 1.5 8.10694 1.5H9.89311C11.2618 1.5 12.4382 2.47636 12.6905 3.82158L14.8672 15.4306C15.5565 19.1078 12.7337 22.5 9 22.5Z" fill="#FFE177"/>
<path d="M9 20.25C11.0711 20.25 12.75 18.5711 12.75 16.5C12.75 14.4289 11.0711 12.75 9 12.75C6.92893 12.75 5.25 14.4289 5.25 16.5C5.25 18.5711 6.92893 20.25 9 20.25Z" fill="#FE860A"/>
<path d="M9.22641 12.7567C10.1894 13.4355 10.8184 14.5563 10.8184 15.824C10.8184 17.895 9.13945 19.574 7.06837 19.574C6.99286 19.574 6.91735 19.5717 6.84197 19.5672C7.45223 19.9973 8.19661 20.25 9 20.25C11.0711 20.25 12.75 18.5711 12.75 16.5C12.75 14.5049 11.1921 12.8738 9.22641 12.7567Z" fill="#FE7701"/>
<path d="M16.0427 3H1.95727C1.29052 3 0.75 3.54052 0.75 4.20727V9.29278C0.75 9.95948 1.29052 10.5 1.95727 10.5H8.15002C8.18172 10.5 8.21312 10.5062 8.24241 10.5184C8.2717 10.5305 8.29832 10.5483 8.32073 10.5707L8.82928 11.0793C8.8517 11.1017 8.87831 11.1195 8.90761 11.1316C8.9369 11.1438 8.96829 11.15 9 11.15C9.03171 11.15 9.0631 11.1438 9.09239 11.1316C9.12169 11.1195 9.1483 11.1017 9.17072 11.0793L9.67927 10.5707C9.70168 10.5483 9.7283 10.5305 9.75759 10.5184C9.78688 10.5062 9.81828 10.5 9.84998 10.5H16.0427C16.7095 10.5 17.25 9.95948 17.25 9.29273V4.20727C17.25 3.54052 16.7095 3 16.0427 3Z" fill="#02C7DD"/>
<path d="M16.0427 3H15.0769C15.7437 3 16.2842 3.54052 16.2842 4.20727V9.29278C16.2842 9.95953 15.7437 10.5 15.0769 10.5H16.0427C16.7095 10.5 17.25 9.95948 17.25 9.29273V4.20727C17.25 3.54052 16.7095 3 16.0427 3Z" fill="#07B2CD"/>
<path d="M4.5 4.14844C4.40676 4.14844 4.31734 4.18548 4.25141 4.25141C4.18548 4.31734 4.14844 4.40676 4.14844 4.5V5.625C4.14844 6.05147 3.80147 6.39844 3.375 6.39844H2.60156V4.5C2.60156 4.3058 2.44416 4.14844 2.25 4.14844C2.05584 4.14844 1.89844 4.3058 1.89844 4.5V9C1.89844 9.1942 2.05584 9.35156 2.25 9.35156C2.44416 9.35156 2.60156 9.1942 2.60156 9V7.10156H3.375C3.80147 7.10156 4.14844 7.44853 4.14844 7.875V9C4.14844 9.1942 4.30584 9.35156 4.5 9.35156C4.69416 9.35156 4.85156 9.1942 4.85156 9V7.875C4.85156 7.42481 4.64902 7.02103 4.33031 6.75C4.64902 6.47897 4.85156 6.07519 4.85156 5.625V4.5C4.85156 4.40676 4.81452 4.31734 4.74859 4.25141C4.68266 4.18548 4.59324 4.14844 4.5 4.14844ZM8.25 4.85156C8.44416 4.85156 8.60156 4.6942 8.60156 4.5C8.60156 4.3058 8.44416 4.14844 8.25 4.14844H6C5.90676 4.14844 5.81734 4.18548 5.75141 4.25141C5.68548 4.31734 5.64844 4.40676 5.64844 4.5V9C5.64844 9.09324 5.68548 9.18266 5.75141 9.24859C5.81734 9.31452 5.90676 9.35156 6 9.35156H8.25C8.44416 9.35156 8.60156 9.1942 8.60156 9C8.60156 8.8058 8.44416 8.64844 8.25 8.64844H6.35156V7.10156H7.125C7.31916 7.10156 7.47656 6.9442 7.47656 6.75C7.47656 6.5558 7.31916 6.39844 7.125 6.39844H6.35156V4.85156H8.25ZM14.625 4.14844C13.8108 4.14844 13.1484 4.81083 13.1484 5.625V7.875C13.1484 8.68917 13.8108 9.35156 14.625 9.35156C15.4392 9.35156 16.1016 8.68917 16.1016 7.875V5.625C16.1016 4.81083 15.4392 4.14844 14.625 4.14844ZM15.3984 7.875C15.3984 8.30147 15.0515 8.64844 14.625 8.64844C14.1985 8.64844 13.8516 8.30147 13.8516 7.875V5.625C13.8516 5.19853 14.1985 4.85156 14.625 4.85156C15.0515 4.85156 15.3984 5.19853 15.3984 5.625V7.875ZM12 4.14844H9.75C9.55584 4.14844 9.39844 4.3058 9.39844 4.5C9.39844 4.6942 9.55584 4.85156 9.75 4.85156H10.5234V9C10.5234 9.1942 10.6808 9.35156 10.875 9.35156C11.0692 9.35156 11.2266 9.1942 11.2266 9V4.85156H12C12.1942 4.85156 12.3516 4.6942 12.3516 4.5C12.3516 4.3058 12.1942 4.14844 12 4.14844Z" fill="#EAF9FA"/>
</svg>
