<svg width="22" height="20" viewBox="0 0 22 20" fill="none" xmlns="http://www.w3.org/2000/svg">
<path d="M9.5 0H2.5C1.11929 0 0 1.11929 0 2.5V9.5C0 10.8807 1.11929 12 2.5 12H9.5C10.8807 12 12 10.8807 12 9.5V2.5C12 1.11929 10.8807 0 9.5 0Z" fill="#0588E2"/>
<path d="M11 10.4993H3C2.60218 10.4993 2.22064 10.3412 1.93934 10.0599C1.65804 9.77861 1.5 9.39707 1.5 8.99925V0.99925C1.5 0.70175 1.561 0.42075 1.656 0.15625C0.6935 0.50425 0 1.41825 0 2.49925V9.49925C0 10.8778 1.1215 11.9993 2.5 11.9993H9.5C10.581 11.9993 11.495 11.3057 11.843 10.3433C11.5732 10.4439 11.2879 10.4967 11 10.4993Z" fill="#0075D3"/>
<path d="M8.95532 8.5427L6.45532 3.0427C6.41554 2.9554 6.3515 2.88139 6.27082 2.82949C6.19015 2.77759 6.09624 2.75 6.00032 2.75C5.90439 2.75 5.81049 2.77759 5.72981 2.82949C5.64913 2.88139 5.58509 2.9554 5.54532 3.0427L3.04532 8.5427C3.01795 8.60251 3.00266 8.66714 3.00032 8.73287C2.99797 8.79861 3.00862 8.86416 3.03165 8.92577C3.05469 8.98738 3.08965 9.04384 3.13454 9.09192C3.17943 9.14 3.23336 9.17875 3.29325 9.20594C3.35314 9.23314 3.41781 9.24826 3.48355 9.25042C3.54929 9.25259 3.61481 9.24176 3.67636 9.21856C3.73791 9.19536 3.79427 9.16024 3.84223 9.11522C3.89018 9.0702 3.92878 9.01616 3.95582 8.9562L4.84532 6.9992H7.15632L8.04582 8.9562C8.07286 9.01607 8.11146 9.07001 8.15942 9.11491C8.20738 9.15981 8.26373 9.19479 8.32525 9.21784C8.38677 9.24088 8.45224 9.25154 8.5179 9.2492C8.58355 9.24686 8.64809 9.23157 8.70782 9.2042C8.82856 9.14936 8.92257 9.04881 8.96917 8.92466C9.01577 8.80051 9.01115 8.66294 8.95632 8.5422L8.95532 8.5427ZM5.29932 5.9997L6.00032 4.4582L6.70132 5.9997H5.29982H5.29932Z" fill="white"/>
<path d="M19.5 8H12.5C11.1193 8 10 9.11929 10 10.5V17.5C10 18.8807 11.1193 20 12.5 20H19.5C20.8807 20 22 18.8807 22 17.5V10.5C22 9.11929 20.8807 8 19.5 8Z" fill="#FFC343"/>
<path d="M21 18.4993H13C12.6022 18.4993 12.2206 18.3412 11.9393 18.0599C11.658 17.7786 11.5 17.3971 11.5 16.9993V8.99925C11.5 8.70175 11.561 8.42075 11.656 8.15625C10.6935 8.50425 10 9.41825 10 10.4993V17.4993C10 18.8778 11.1215 19.9993 12.5 19.9993H19.5C20.581 19.9993 21.495 19.3057 21.843 18.3433C21.5732 18.4439 21.2879 18.4967 21 18.4993Z" fill="#FFA221"/>
<path d="M18.2205 13H18.5C18.6326 13 18.7598 12.9473 18.8536 12.8536C18.9473 12.7598 19 12.6326 19 12.5C19 12.3674 18.9473 12.2402 18.8536 12.1464C18.7598 12.0527 18.6326 12 18.5 12H16.5V11C16.5 10.8674 16.4473 10.7402 16.3536 10.6464C16.2598 10.5527 16.1326 10.5 16 10.5C15.8674 10.5 15.7402 10.5527 15.6464 10.6464C15.5527 10.7402 15.5 10.8674 15.5 11V12H13.5C13.3674 12 13.2402 12.0527 13.1464 12.1464C13.0527 12.2402 13 12.3674 13 12.5C13 12.6326 13.0527 12.7598 13.1464 12.8536C13.2402 12.9473 13.3674 13 13.5 13H17.21C17.0876 13.8494 16.6556 14.6237 15.997 15.174C15.6122 14.8518 15.3013 14.4506 15.0855 13.9975C15.028 13.8789 14.9259 13.7877 14.8015 13.744C14.6771 13.7003 14.5405 13.7074 14.4214 13.7639C14.3022 13.8204 14.2102 13.9217 14.1654 14.0457C14.1206 14.1697 14.1265 14.3064 14.182 14.426C14.4146 14.9077 14.7321 15.3436 15.1195 15.7125C14.6753 15.9025 14.1971 16.0001 13.714 15.9995C13.438 15.9995 13.232 16.2235 13.232 16.4995C13.232 16.7755 13.4735 16.9995 13.75 16.9995C14.574 16.9995 15.345 16.773 16.01 16.3845C16.7017 16.7853 17.4866 16.9974 18.286 16.9995C18.562 16.9995 18.768 16.7755 18.768 16.4995C18.768 16.2235 18.5265 15.9995 18.25 15.9995C17.7822 15.9977 17.3197 15.9014 16.89 15.7165C17.6345 14.9921 18.1047 14.0323 18.2205 13Z" fill="white"/>
<path d="M18 2.49992H15.707L15.8535 2.35342C15.9473 2.25967 15.9999 2.13251 15.9999 1.99992C15.9999 1.86734 15.9473 1.74018 15.8535 1.64642C15.7597 1.55267 15.6326 1.5 15.5 1.5C15.3674 1.5 15.2403 1.55267 15.1465 1.64642L14.1465 2.64642C14.1 2.69282 14.0632 2.74792 14.038 2.80858C14.0128 2.86924 13.9999 2.93426 13.9999 2.99992C13.9999 3.06559 14.0128 3.13061 14.038 3.19127C14.0632 3.25193 14.1 3.30703 14.1465 3.35342L15.1465 4.35342C15.1928 4.40002 15.2479 4.43699 15.3086 4.46222C15.3692 4.48745 15.4343 4.50044 15.5 4.50044C15.5657 4.50044 15.6308 4.48745 15.6914 4.46222C15.7521 4.43699 15.8072 4.40002 15.8535 4.35342C15.9 4.30703 15.9368 4.25193 15.962 4.19127C15.9872 4.13061 16.0001 4.06559 16.0001 3.99992C16.0001 3.93426 15.9872 3.86924 15.962 3.80858C15.9368 3.74792 15.9 3.69282 15.8535 3.64642L15.707 3.49992H18C18.2755 3.49992 18.5 3.72442 18.5 3.99992V5.49992C18.5 5.63253 18.5527 5.75971 18.6464 5.85348C18.7402 5.94725 18.8674 5.99992 19 5.99992C19.1326 5.99992 19.2598 5.94725 19.3536 5.85348C19.4473 5.75971 19.5 5.63253 19.5 5.49992V3.99992C19.5 3.17292 18.827 2.49992 18 2.49992ZM6.8535 15.6464C6.80708 15.6 6.75197 15.5632 6.69131 15.5381C6.63066 15.5129 6.56565 15.5 6.5 15.5C6.43435 15.5 6.36934 15.5129 6.30869 15.5381C6.24803 15.5632 6.19292 15.6 6.1465 15.6464C6.10008 15.6928 6.06325 15.748 6.03813 15.8086C6.01301 15.8693 6.00008 15.9343 6.00008 15.9999C6.00008 16.0656 6.01301 16.1306 6.03813 16.1912C6.06325 16.2519 6.10008 16.307 6.1465 16.3534L6.293 16.4999H4C3.7245 16.4999 3.5 16.2754 3.5 15.9999V14.4999C3.5 14.3673 3.44732 14.2401 3.35355 14.1464C3.25979 14.0526 3.13261 13.9999 3 13.9999C2.86739 13.9999 2.74021 14.0526 2.64645 14.1464C2.55268 14.2401 2.5 14.3673 2.5 14.4999V15.9999C2.5 16.8269 3.173 17.4999 4 17.4999H6.293L6.1465 17.6464C6.10008 17.6928 6.06325 17.748 6.03813 17.8086C6.01301 17.8693 6.00008 17.9343 6.00008 17.9999C6.00008 18.0656 6.01301 18.1306 6.03813 18.1912C6.06325 18.2519 6.10008 18.307 6.1465 18.3534C6.19292 18.3998 6.24803 18.4367 6.30869 18.4618C6.36934 18.4869 6.43435 18.4998 6.5 18.4998C6.56565 18.4998 6.63066 18.4869 6.69131 18.4618C6.75197 18.4367 6.80708 18.3998 6.8535 18.3534L7.8535 17.3534C7.89997 17.307 7.93684 17.2519 7.962 17.1913C7.98715 17.1306 8.0001 17.0656 8.0001 16.9999C8.0001 16.9343 7.98715 16.8692 7.962 16.8086C7.93684 16.7479 7.89997 16.6928 7.8535 16.6464L6.8535 15.6464Z" fill="#AFB4C2"/>
</svg>
