<svg width="32" height="32" viewBox="0 0 32 32" fill="none" xmlns="http://www.w3.org/2000/svg">
<circle cx="16" cy="16" r="16" fill="#D9ECCD"/>
<g clip-path="url(#clip0_1948_36944)">
<path d="M19.9627 9.33333C18.342 9.33333 16.6667 11.0787 16.6667 14C16.6667 14.9807 17.138 15.9867 17.6373 17.0533C18.1433 18.134 18.6667 19.2513 18.6667 20.3333V21.6667C18.6667 22.9533 19.7133 24 21 24C22.2867 24 23.3333 22.9533 23.3333 21.6667V20.3333C23.3333 19.1787 23.5167 18.342 23.6947 17.5327C23.8513 16.818 24 16.1427 24 15.3333C24 9.50133 20.376 9.33333 19.9627 9.33333ZM22.6667 20.3333V21.6667C22.6667 22.5853 21.9193 23.3333 21 23.3333C20.0807 23.3333 19.3333 22.5853 19.3333 21.6667V20.3333C19.3333 20.222 19.3287 20.1107 19.32 20H22.672C22.6687 20.1087 22.6667 20.2193 22.6667 20.3333ZM23.0433 17.39C22.9187 17.9593 22.7813 18.5827 22.712 19.3333H19.2193C19.03 18.4567 18.63 17.6033 18.24 16.77C17.7733 15.7733 17.3327 14.832 17.3327 14C17.3327 11.496 18.67 10 19.962 10C20.3073 10 23.3327 10.15 23.3327 15.3333C23.3327 16.0707 23.192 16.7113 23.0427 17.39H23.0433ZM12.0373 8C11.624 8 8 8.168 8 14C8 14.8093 8.14867 15.4847 8.30533 16.1993C8.48333 17.008 8.66667 17.8447 8.66667 19V20.3333C8.66667 21.62 9.71333 22.6667 11 22.6667C12.2867 22.6667 13.3333 21.62 13.3333 20.3333V19C13.3333 17.918 13.8567 16.8007 14.3627 15.72C14.862 14.654 15.3333 13.6473 15.3333 12.6667C15.3333 9.74533 13.6573 8 12.0373 8ZM12.6667 19V20.3333C12.6667 21.252 11.9193 22 11 22C10.0807 22 9.33333 21.252 9.33333 20.3333V19C9.33333 18.886 9.33133 18.7753 9.328 18.6667H12.68C12.6713 18.7773 12.6667 18.8887 12.6667 19ZM13.7593 15.4367C13.3693 16.27 12.9693 17.1233 12.78 18H9.28733C9.218 17.2493 9.08133 16.626 8.956 16.0567C8.80667 15.378 8.666 14.7373 8.666 14C8.66667 8.81667 11.692 8.66667 12.0373 8.66667C13.3293 8.66667 14.6667 10.1627 14.6667 12.6667C14.6667 13.4987 14.226 14.44 13.7593 15.4367Z" fill="#338000"/>
</g>
<defs>
<clipPath id="clip0_1948_36944">
<rect width="16" height="16" fill="white" transform="translate(8 8)"/>
</clipPath>
</defs>
</svg>
