<svg width="20" height="30" viewBox="0 0 20 30" fill="none" xmlns="http://www.w3.org/2000/svg">
<path d="M11.9758 -0.000244141C11.8994 0.00330951 11.8249 0.024426 11.7581 0.0614633C11.6912 0.0985006 11.6338 0.150461 11.5903 0.213303L0.0908154 16.7113C0.0382724 16.7863 0.00731738 16.8743 0.00131908 16.9657C-0.00467921 17.0571 0.0145091 17.1484 0.0567956 17.2297C0.0990822 17.311 0.162847 17.3791 0.241151 17.4266C0.319455 17.4741 0.409298 17.4993 0.500902 17.4993H8.45696L7.50261 29.4618C7.46482 29.9663 8.1168 30.1988 8.40972 29.7868L19.911 13.2888C19.9636 13.2138 19.9945 13.1258 20.0005 13.0344C20.0065 12.943 19.9874 12.8517 19.9451 12.7704C19.9028 12.6891 19.839 12.621 19.7607 12.5735C19.6824 12.526 19.5926 12.5008 19.501 12.5008H11.5449L12.4992 0.538349C12.5044 0.467675 12.4945 0.396709 12.4702 0.330143C12.4459 0.263576 12.4078 0.202925 12.3583 0.152196C12.3088 0.101467 12.2491 0.0618162 12.1832 0.0358638C12.1173 0.00991146 12.0466 -0.0036413 11.9758 -0.000244141Z" fill="#FFBC42"/>
</svg>
