<svg width="60" height="60" viewBox="0 0 60 60" fill="none" xmlns="http://www.w3.org/2000/svg">
<g clip-path="url(#clip0_948_50563)">
<path d="M25.3112 8.85114C23.9448 7.00593 21.5828 6.2563 19.2808 7.04641L12.5946 9.99695C11.6266 10.4223 10.8071 11.1339 10.2427 12.0389L0.555829 27.533C-0.74378 30.1747 0.313603 33.3992 2.91458 34.7213C4.34368 35.4471 6.11532 35.4593 7.62997 34.7771C9.07196 34.1298 10.1257 32.9388 10.5226 31.5089L24.9611 11.3521C25.737 10.7592 25.8931 9.63934 25.3112 8.85114ZM17.5778 35.2863H10.5465V42.4291C10.5465 44.4016 12.1208 46.0004 14.0622 46.0004C16.004 46.0004 17.5778 44.4016 17.5778 42.4291C17.5778 44.4016 19.1521 46.0004 21.0934 46.0004C23.0352 46.0004 24.609 44.4016 24.609 42.4291V35.2863H17.5778Z" fill="#FFBFAB"/>
<path d="M49.4534 17.4277H46.2423L27.3869 8.14258L11.7772 29.178L52.9691 35.2849L56.4847 20.9994L52.9691 17.4277H49.4534ZM11.1785 40.3593C11.0777 40.5053 10.9277 40.6606 10.7692 40.7657L6.30464 44.1297C5.72831 44.592 4.89886 44.6123 4.26569 44.1619C3.63218 43.7112 3.3671 42.9123 3.59784 42.2041L5.18269 36.7916C5.22569 36.6043 5.31815 36.4084 5.41882 36.2619L10.3151 35.385L11.1785 40.3593Z" fill="#FFCEBF"/>
<path d="M10.3154 35.3867L11.1788 40.3604C11.0775 40.5065 10.928 40.6619 10.7695 40.767L6.30492 44.131C5.72859 44.5932 4.89914 44.6136 4.26562 44.1631L10.3154 35.3867Z" fill="#FFA78F"/>
<path d="M38.4017 0.864971L35.3767 5.25335L30.4805 6.13048L29.6172 1.15651L32.6416 -3.23187C33.2064 -4.05126 34.2836 -4.24376 35.0896 -3.67031L37.97 -1.62189C38.7761 -1.04809 38.9661 0.0460553 38.4017 0.864971Z" fill="#54469D"/>
<path d="M38.4016 0.864412L35.3767 5.25279L30.4805 6.12992L36.5297 -2.64648L37.9695 -1.62245C38.7761 -1.04865 38.966 0.0454962 38.4016 0.864412Z" fill="#392E6E"/>
<path d="M5.41992 36.2625L29.6191 1.1543L35.3791 5.25114L11.1799 40.3594L5.41992 36.2625Z" fill="#F27281"/>
<path d="M8.30078 38.3133L32.4995 3.20508L35.3794 5.2535L11.1805 40.3617L8.30078 38.3133Z" fill="#E63950"/>
<path d="M12.3047 28.1426C9.39246 28.1426 7.03125 30.5406 7.03125 33.4996C7.03125 36.458 9.39246 38.8567 12.3047 38.8567H25.9512L27.8953 39.8435C31.2223 41.5333 34.9488 42.4279 38.6723 42.4279C42.3959 42.4279 46.3568 41.5333 49.6833 39.8435L54.727 37.2812V28.1426H12.3047Z" fill="#FFCEBF"/>
<path d="M55.5125 45.8085L59.2891 42.963C59.5097 42.797 59.6888 42.5808 59.8123 42.3318C59.9357 42.0827 60 41.8077 60 41.5289V19.2134C60 18.2276 59.2131 17.4277 58.2422 17.4277H52.9688V44.2111C52.9688 45.5384 54.3438 46.4019 55.5125 45.8085Z" fill="#463B85"/>
</g>
<defs>
<clipPath id="clip0_948_50563">
<rect width="60" height="60" fill="white"/>
</clipPath>
</defs>
</svg>
