<svg width="60" height="60" viewBox="0 0 60 60" fill="none" xmlns="http://www.w3.org/2000/svg">
<g clip-path="url(#clip0_2013_31615)">
<path d="M58.7531 50L57.8231 49.995H57.7931C55.1981 49.995 52.6056 49.68 50.0881 49.0575L47.8381 48.4975C45.1231 47.825 42.3281 47.4875 39.5306 47.4875H39.4981L27.8481 47.5H27.8406C25.2381 47.5 22.9731 45.715 22.5731 43.345C22.3406 41.975 22.6556 40.61 23.4606 39.505C24.2681 38.4 25.4606 37.6825 26.6381 37.5H43.7456C44.4356 37.5 44.9956 36.94 44.9956 36.25C44.9956 35.56 44.4356 35 43.7456 35L34.0281 35.0075L50.6256 16.3925L58.2231 19.885C58.3931 19.9625 58.5706 20 58.7431 20C59.2156 20 59.6706 19.73 59.8806 19.2725C60.1706 18.645 59.8956 17.9025 59.2681 17.615L52.3656 14.4425L52.8956 13.8475C54.1506 12.5925 54.8431 10.925 54.8431 9.14754C54.8431 7.37004 54.1531 5.70254 52.8956 4.44754C50.3856 1.93504 46.0631 1.87504 43.4406 4.50504L39.6756 8.79254L18.5056 16.835C15.9781 17.8575 13.7331 19.515 12.0031 21.635L1.82813 34.33C-0.609375 36.7675 -0.609375 40.7325 1.82813 43.165C2.27813 43.62 2.79813 44 3.36813 44.2975C3.55313 44.3925 3.75063 44.44 3.94563 44.44C4.39563 44.44 4.83063 44.195 5.05562 43.7675C5.37313 43.155 5.13812 42.4 4.52563 42.08C4.18062 41.9 3.86813 41.6725 3.59563 41.4C2.13313 39.9375 2.13313 37.56 3.68813 35.9975L13.9531 23.2075C15.4106 21.42 17.3106 20.0175 19.4231 19.16L36.1556 12.8025L8.04313 44.8225C6.16062 46.965 5.12312 49.7175 5.12312 52.5725V56.2525C5.12312 56.9425 5.68312 57.5025 6.37312 57.5025H9.13812C12.5981 57.5025 15.8656 55.99 18.1006 53.35L22.6031 48.0575C24.0081 49.2625 25.8531 50.0025 27.8406 50.0025H27.8531L39.5031 49.99H39.5331C42.1281 49.99 44.7231 50.305 47.2406 50.9275L49.4906 51.4875C52.2056 52.16 55.0006 52.4975 57.7906 52.4975H57.8231L58.7456 52.5025H58.7506C59.4381 52.5025 59.9981 51.9475 60.0006 51.26C60.0031 50.57 59.4481 50.0075 58.7556 50.0025L58.7531 50ZM16.1956 51.7275C14.4356 53.8075 11.8656 55 9.14062 55H7.62563V52.57C7.62563 50.325 8.44063 48.1575 9.92313 46.4725L45.2656 6.21504C46.8331 4.64504 49.5631 4.64754 51.1306 6.21504C51.9131 6.99754 52.3456 8.04004 52.3456 9.14754C52.3456 10.255 51.9156 11.295 51.0831 12.13L30.6806 35.01H26.4656C24.4356 35.3025 22.6531 36.375 21.4456 38.0325C20.2381 39.6875 19.7631 41.725 20.1106 43.7625C20.2531 44.605 20.5581 45.3925 20.9756 46.1125L16.1956 51.7275Z" fill="#338000"/>
</g>
<defs>
<clipPath id="clip0_2013_31615">
<rect width="60" height="60" fill="white"/>
</clipPath>
</defs>
</svg>
