<svg width="20" height="20" viewBox="0 0 20 20" fill="none" xmlns="http://www.w3.org/2000/svg">
<path d="M15 18.75H9C8.80109 18.75 8.61032 18.671 8.46967 18.5303C8.32902 18.3897 8.25 18.1989 8.25 18C8.25 17.8011 8.32902 17.6103 8.46967 17.4697C8.61032 17.329 8.80109 17.25 9 17.25H15C15.0663 17.25 15.1299 17.2237 15.1768 17.1768C15.2237 17.1299 15.25 17.0663 15.25 17V15C15.25 14.8011 15.329 14.6103 15.4697 14.4697C15.6103 14.329 15.8011 14.25 16 14.25C16.1989 14.25 16.3897 14.329 16.5303 14.4697C16.671 14.6103 16.75 14.8011 16.75 15V17C16.7474 17.4633 16.5622 17.9069 16.2345 18.2345C15.9069 18.5622 15.4633 18.7474 15 18.75ZM16 5.75C15.8019 5.74741 15.6126 5.66756 15.4725 5.52747C15.3324 5.38737 15.2526 5.19811 15.25 5V3C15.25 2.9337 15.2237 2.87011 15.1768 2.82322C15.1299 2.77634 15.0663 2.75 15 2.75H9C8.80109 2.75 8.61032 2.67098 8.46967 2.53033C8.32902 2.38968 8.25 2.19891 8.25 2C8.25 1.80109 8.32902 1.61032 8.46967 1.46967C8.61032 1.32902 8.80109 1.25 9 1.25H15C15.4633 1.25263 15.9069 1.43784 16.2345 1.76546C16.5622 2.09309 16.7474 2.53668 16.75 3V5C16.7474 5.19811 16.6676 5.38737 16.5275 5.52747C16.3874 5.66756 16.1981 5.74741 16 5.75Z" fill="#EF9A9A"/>
<path d="M19.69 9.70985C19.6521 9.6206 19.5978 9.5392 19.53 9.46985L17.53 7.46985C17.3878 7.33737 17.1998 7.26524 17.0055 7.26867C16.8112 7.2721 16.6258 7.35081 16.4884 7.48823C16.351 7.62564 16.2723 7.81102 16.2688 8.00532C16.2654 8.19963 16.3375 8.38767 16.47 8.52985L17.19 9.24985H12C11.8011 9.24985 11.6103 9.32887 11.4697 9.46952C11.329 9.61017 11.25 9.80093 11.25 9.99985C11.25 10.1988 11.329 10.3895 11.4697 10.5302C11.6103 10.6708 11.8011 10.7498 12 10.7498H17.19L16.47 11.4698C16.3295 11.6105 16.2507 11.8011 16.2507 11.9998C16.2507 12.1986 16.3295 12.3892 16.47 12.5298C16.6106 12.6703 16.8012 12.7492 17 12.7492C17.1988 12.7492 17.3894 12.6703 17.53 12.5298L19.53 10.5298C19.5978 10.4605 19.6521 10.3791 19.69 10.2898C19.7296 10.1983 19.7501 10.0996 19.7501 9.99985C19.7501 9.90009 19.7296 9.80139 19.69 9.70985Z" fill="#424242"/>
<path d="M9.08 0.899916C8.87068 0.736186 8.62682 0.622278 8.36692 0.566833C8.10703 0.511388 7.83791 0.515862 7.58 0.579915L1.58 2.07992C1.20018 2.17382 0.862781 2.39229 0.621695 2.70045C0.380609 3.0086 0.249744 3.38866 0.25 3.77992V16.2199C0.249744 16.6112 0.380609 16.9912 0.621695 17.2994C0.862781 17.6075 1.20018 17.826 1.58 17.9199L7.58 19.4199C7.71961 19.4347 7.86039 19.4347 8 19.4199C8.23018 19.4212 8.45834 19.3769 8.67126 19.2894C8.88418 19.2019 9.07763 19.0731 9.24039 18.9103C9.40316 18.7475 9.53202 18.5541 9.61949 18.3412C9.70697 18.1283 9.75133 17.9001 9.75 17.6699V2.27992C9.74899 2.01437 9.68825 1.75244 9.57227 1.51356C9.45629 1.27467 9.28804 1.06495 9.08 0.899916Z" fill="#EF5350"/>
</svg>
