<svg width="24" height="24" viewBox="0 0 24 24" fill="none" xmlns="http://www.w3.org/2000/svg">
<circle cx="12" cy="12" r="12" fill="#F64650" fill-opacity="0.2"/>
<g clip-path="url(#clip0_1998_11333)">
<path d="M9.9995 6C8.345 6 6.9995 7.3455 6.9995 9C6.9995 10.6545 8.345 12 9.9995 12C11.654 12 12.9995 10.6545 12.9995 9C12.9995 7.3455 11.654 6 9.9995 6ZM9.9995 11.5C8.621 11.5 7.4995 10.3785 7.4995 9C7.4995 7.6215 8.621 6.5 9.9995 6.5C11.378 6.5 12.4995 7.6215 12.4995 9C12.4995 10.3785 11.378 11.5 9.9995 11.5ZM11.9815 13.6345C11.9295 13.762 11.7835 13.8235 11.656 13.7725C11.209 13.592 10.736 13.5 10.25 13.5C8.182 13.5 6.5 15.182 6.5 17.25V17.75C6.5 17.888 6.388 18 6.25 18C6.112 18 6 17.888 6 17.75V17.25C6 14.9065 7.9065 13 10.25 13C10.801 13 11.337 13.104 11.8435 13.309C11.9715 13.361 12.0335 13.5065 11.9815 13.6345ZM15.4995 17.75C15.4995 17.888 15.3875 18 15.2495 18H14.2495C13.56 18 12.9995 17.439 12.9995 16.75V13.75C12.9995 13.061 13.56 12.5 14.2495 12.5H15.2495C15.3875 12.5 15.4995 12.612 15.4995 12.75C15.4995 12.888 15.3875 13 15.2495 13H14.2495C13.836 13 13.4995 13.3365 13.4995 13.75V16.75C13.4995 17.1635 13.836 17.5 14.2495 17.5H15.2495C15.3875 17.5 15.4995 17.612 15.4995 17.75ZM17.9975 15.2605C17.9975 15.4615 17.9145 15.6695 17.757 15.8065L16.415 16.9895C16.3115 17.0805 16.1535 17.0715 16.062 16.9675C15.9705 16.864 15.9805 16.706 16.084 16.6145L17.348 15.5H14.7495C14.6115 15.5 14.4995 15.388 14.4995 15.25C14.4995 15.112 14.6115 15 14.7495 15H17.2805L16.084 13.945C15.9805 13.8535 15.9705 13.6955 16.062 13.592C16.1535 13.488 16.311 13.4785 16.415 13.57L17.759 14.755C17.907 14.882 17.9975 15.0645 17.9975 15.2605Z" fill="#F64650"/>
</g>
<defs>
<clipPath id="clip0_1998_11333">
<rect width="12" height="12" fill="white" transform="translate(6 6)"/>
</clipPath>
</defs>
</svg>
