<svg width="32" height="32" viewBox="0 0 32 32" fill="none" xmlns="http://www.w3.org/2000/svg">
<path d="M16 32C24.8366 32 32 24.8366 32 16C32 7.16344 24.8366 0 16 0C7.16344 0 0 7.16344 0 16C0 24.8366 7.16344 32 16 32Z" fill="#FFD54F"/>
<path d="M29.2667 22.2559L26.8054 19.7812C26.658 19.6419 26.4713 19.5511 26.2707 19.5212C25.7267 21.0786 24.3427 23.7546 20.9854 25.8946C21.0227 25.9519 21.0507 26.0159 21.1014 26.0666L23.2734 28.2386C23.6646 28.6359 24.1312 28.9511 24.646 29.1657C25.1607 29.3802 25.7131 29.4898 26.2707 29.4879C26.8266 29.4899 27.3774 29.3812 27.8909 29.1681C28.4044 28.9549 28.8702 28.6417 29.2614 28.2466C29.6589 27.8552 29.9742 27.3883 30.1887 26.8734C30.4033 26.3584 30.5127 25.8058 30.5107 25.2479C30.5125 24.6916 30.4034 24.1404 30.1898 23.6267C29.9762 23.113 29.6624 22.647 29.2667 22.2559Z" fill="#E53935"/>
<path d="M26.9974 24.56L25.0027 22.5653C24.612 22.1747 23.1974 23.5893 23.588 23.98L25.5827 25.9747C25.6754 26.0677 25.7855 26.1416 25.9068 26.1919C26.028 26.2423 26.1581 26.2682 26.2894 26.2682C26.4207 26.2682 26.5507 26.2423 26.672 26.1919C26.7933 26.1416 26.9034 26.0677 26.996 25.9747C27.0891 25.8819 27.1629 25.7717 27.2133 25.6504C27.2637 25.5291 27.2897 25.399 27.2898 25.2676C27.29 25.1362 27.2642 25.0061 27.214 24.8847C27.1638 24.7633 27.0902 24.653 26.9974 24.56Z" fill="#D32F2F"/>
<path d="M26.8717 18.2759C26.6185 18.1976 26.3445 18.2229 26.11 18.3464C25.8755 18.4699 25.6996 18.6815 25.621 18.9346C24.309 23.1626 20.4597 26.0039 16.0437 26.0039C11.6277 26.0039 7.77832 23.1626 6.46499 18.9346C6.42937 18.8054 6.36816 18.6847 6.28499 18.5797C6.20183 18.4747 6.0984 18.3874 5.98086 18.3231C5.86332 18.2588 5.73405 18.2188 5.60074 18.2054C5.46743 18.1921 5.3328 18.2056 5.20483 18.2453C5.07686 18.285 4.95817 18.35 4.85581 18.4364C4.75344 18.5228 4.66949 18.629 4.60894 18.7485C4.54839 18.868 4.51247 18.9985 4.50331 19.1321C4.49416 19.2658 4.51196 19.3999 4.55565 19.5266C6.13032 24.5973 10.7463 28.0039 16.0437 28.0039C21.341 28.0039 25.9583 24.5973 27.5317 19.5266C27.6096 19.2732 27.5839 18.9993 27.4602 18.7648C27.3364 18.5304 27.1248 18.3546 26.8717 18.2759ZM12.333 13.6666C12.0678 13.6666 11.8134 13.5612 11.6259 13.3737C11.4383 13.1862 11.333 12.9318 11.333 12.6666C11.333 11.9319 10.7343 11.3333 9.99965 11.3333C9.26499 11.3333 8.66632 11.9319 8.66632 12.6666C8.66632 12.9318 8.56096 13.1862 8.37343 13.3737C8.18589 13.5612 7.93154 13.6666 7.66632 13.6666C7.4011 13.6666 7.14675 13.5612 6.95921 13.3737C6.77168 13.1862 6.66632 12.9318 6.66632 12.6666C6.66632 10.8293 8.16232 9.33325 9.99965 9.33325C11.837 9.33325 13.333 10.8293 13.333 12.6666C13.333 12.9318 13.2276 13.1862 13.0401 13.3737C12.8526 13.5612 12.5982 13.6666 12.333 13.6666ZM24.333 13.6666C24.0678 13.6666 23.8134 13.5612 23.6259 13.3737C23.4383 13.1862 23.333 12.9318 23.333 12.6666C23.333 11.9319 22.7343 11.3333 21.9997 11.3333C21.265 11.3333 20.6663 11.9319 20.6663 12.6666C20.6663 12.9318 20.561 13.1862 20.3734 13.3737C20.1859 13.5612 19.9315 13.6666 19.6663 13.6666C19.4011 13.6666 19.1468 13.5612 18.9592 13.3737C18.7717 13.1862 18.6663 12.9318 18.6663 12.6666C18.6663 10.8293 20.1623 9.33325 21.9997 9.33325C23.837 9.33325 25.333 10.8293 25.333 12.6666C25.333 12.9318 25.2276 13.1862 25.0401 13.3737C24.8526 13.5612 24.5982 13.6666 24.333 13.6666Z" fill="#6D4C41"/>
</svg>
