<svg width="29" height="32" viewBox="0 0 29 32" fill="none" xmlns="http://www.w3.org/2000/svg">
<path d="M26.2112 31.8037C26.2112 31.8037 25.1487 29.0686 24.1407 25.2818C23.9532 24.565 23.7752 23.8458 23.6067 23.1243C23.1844 21.3144 22.8607 19.4829 22.637 17.6379L22.4027 14.3689C22.3974 14.1891 22.3974 14.0038 22.3974 13.824C22.3974 12.3201 22.4681 10.9144 22.5934 9.61242C22.6642 8.82785 22.7515 8.08142 22.855 7.38382C23.1683 4.9352 23.7456 2.52764 24.5766 0.203125H3.87273C4.70361 2.5277 5.28081 4.93527 5.59428 7.38389C5.6978 8.08142 5.78498 8.82792 5.8558 9.61249C5.98112 10.9144 6.05215 12.3202 6.05215 13.8241C6.05215 14.0039 6.05215 14.1891 6.04657 14.3689L5.81215 17.638C5.58865 19.483 5.26495 21.3145 4.84247 23.1243C4.67415 23.8459 4.49615 24.5651 4.30853 25.2819C3.30058 29.0687 2.23828 31.8038 2.23828 31.8038L26.2112 31.8037Z" fill="#F6BF9B"/>
<path d="M4.30853 25.2812C3.30058 29.068 2.23828 31.8031 2.23828 31.8031H26.2112C26.2112 31.8031 25.1486 29.068 24.1406 25.2812C20.9544 26.3925 17.5989 26.9402 14.2247 26.8996C10.8504 26.9402 7.49484 26.3926 4.30853 25.2812Z" fill="#8AC03F"/>
<path d="M4.84254 23.123C4.67421 23.8446 4.49621 24.5638 4.30859 25.2806C7.4949 26.3919 10.8505 26.9395 14.2248 26.8989C17.599 26.9395 20.9544 26.3919 24.1406 25.2806C23.9532 24.5638 23.7752 23.8446 23.6067 23.123C20.6003 24.2132 17.4225 24.7539 14.2248 24.7196C11.027 24.754 7.849 24.2132 4.84254 23.123Z" fill="#89B33B"/>
<path d="M27.8454 14.3689H20.2177V12.7344L15.859 16.0034L20.2177 19.2724V17.6379H27.8454V14.3689ZM0.603516 14.3689H8.23125V12.7344L12.59 16.0034L8.23125 19.2724V17.6379H0.603516V14.3689Z" fill="#EC4042"/>
<path d="M24.1496 10.514L25.2361 10.5935C25.2595 10.2782 25.2856 9.96806 25.3151 9.65975C25.3853 8.88343 25.4721 8.14333 25.5732 7.45963C25.8067 5.79559 26.1447 4.1479 26.5852 2.52632L25.5352 2.23633C25.0821 3.9017 24.7347 5.59402 24.4949 7.30319C24.3909 8.00501 24.3015 8.76506 24.2303 9.5595C24.2 9.87737 24.1731 10.1955 24.1496 10.514ZM0.129883 29.9914L1.16079 30.3445C1.28545 29.9795 1.4073 29.6136 1.5263 29.2468L0.491179 28.91C0.373455 29.2714 0.253019 29.6319 0.129883 29.9914ZM2.65616 25.4185C2.84506 24.6965 3.02439 23.972 3.19412 23.2453C3.32229 22.684 3.44289 22.1209 3.5559 21.5563L2.48754 21.3437C2.37694 21.8971 2.25863 22.4489 2.13264 22.999C1.95891 23.7406 1.78013 24.4598 1.6021 25.1403C1.36223 26.0412 1.1052 26.9375 0.831158 27.8286L1.87268 28.1488C2.15085 27.2437 2.41205 26.3334 2.65616 25.4185ZM13.6796 19.8162H14.7693V20.9058H13.6796V19.8162Z" fill="black"/>
<path d="M27.8454 18.1819C27.9899 18.1819 28.1284 18.1245 28.2306 18.0223C28.3328 17.9201 28.3902 17.7815 28.3902 17.637V14.368C28.3902 14.2235 28.3328 14.0849 28.2306 13.9827C28.1284 13.8806 27.9899 13.8232 27.8454 13.8232H22.9418C22.9418 12.3972 23.007 10.9976 23.1357 9.65992C23.2059 8.88366 23.2927 8.14357 23.3938 7.45986C23.7047 5.05458 24.2709 2.68924 25.0828 0.403862L24.0706 0C23.2217 2.36249 22.6334 4.81061 22.3161 7.30084C22.2121 8.00259 22.1226 8.76264 22.0513 9.55701C21.9189 10.9279 21.8521 12.3618 21.8521 13.8231H20.7625V12.7334C20.7624 12.6322 20.7343 12.5331 20.6811 12.447C20.6279 12.3609 20.5517 12.2913 20.4612 12.2461C20.3707 12.2008 20.2694 12.1817 20.1687 12.1907C20.0679 12.1998 19.9716 12.2367 19.8906 12.2974L15.5319 15.5664C15.4643 15.6172 15.4093 15.683 15.3715 15.7587C15.3337 15.8343 15.314 15.9178 15.314 16.0023C15.314 16.0869 15.3337 16.1704 15.3715 16.246C15.4093 16.3217 15.4643 16.3875 15.5319 16.4383L19.8906 19.7073C19.9716 19.768 20.0678 19.805 20.1686 19.814C20.2693 19.8231 20.3707 19.804 20.4611 19.7588C20.5516 19.7135 20.6278 19.644 20.681 19.5579C20.7342 19.4719 20.7624 19.3727 20.7624 19.2715V18.1819H22.1594C22.3419 19.6075 22.6138 21.1447 22.9721 22.7688C20.1563 23.7273 17.1987 24.2028 14.2244 24.1751C11.25 24.2028 8.29224 23.7273 5.47633 22.7688C5.83361 21.1457 6.10603 19.6089 6.28937 18.1819H7.68633V19.2715C7.68633 19.478 7.80279 19.6666 7.98742 19.7589C8.0779 19.8042 8.1792 19.8233 8.27995 19.8142C8.38071 19.8051 8.47693 19.7681 8.5578 19.7073L12.9165 16.4383C12.9842 16.3875 13.0392 16.3218 13.077 16.2461C13.1149 16.1705 13.1347 16.0871 13.1347 16.0025C13.1347 15.8309 13.0538 15.6695 12.9165 15.5664L8.5578 12.2974C8.47686 12.2367 8.3806 12.1997 8.27983 12.1906C8.17905 12.1816 8.07774 12.2007 7.98725 12.246C7.89676 12.2913 7.82067 12.3609 7.76752 12.447C7.71437 12.5331 7.68626 12.6323 7.68633 12.7335V13.8232H6.59666C6.59666 12.3618 6.52957 10.9279 6.3982 9.56232C6.33027 8.80791 6.242 8.05546 6.13348 7.30581C5.81612 4.81392 5.22761 2.36413 4.37841 0L3.36617 0.403862C4.17803 2.69015 4.74422 5.05637 5.05517 7.46252C5.15603 8.14356 5.24246 8.88366 5.31356 9.66319C5.44153 10.9976 5.50698 12.3972 5.50698 13.8232H0.603432C0.458932 13.8232 0.32035 13.8806 0.218173 13.9827C0.115996 14.0849 0.0585938 14.2235 0.0585938 14.368V17.637C0.0585938 17.7815 0.115996 17.9201 0.218173 18.0223C0.32035 18.1245 0.458932 18.1819 0.603432 18.1819H5.19036C4.99354 19.6756 4.70327 21.2872 4.31194 22.9997C4.22637 23.365 4.13849 23.7298 4.04831 24.0939C3.96175 24.4436 3.8728 24.7926 3.78148 25.141C2.79423 28.8514 1.74037 31.5783 1.72948 31.6054L2.74553 31.9999C2.75588 31.9738 3.72638 29.466 4.6825 25.9822C7.76399 26.9787 10.9859 27.4724 14.2244 27.4441C17.4628 27.4724 20.6846 26.9788 23.7659 25.9823C24.7234 29.4649 25.6926 31.9755 25.703 32L26.719 31.6054C26.7081 31.5783 25.6545 28.8514 24.6678 25.1432C24.4814 24.431 24.3044 23.7165 24.1366 22.9997C23.7452 21.2872 23.4544 19.6762 23.2581 18.1824L27.8454 18.1819ZM1.14827 14.9128H8.23117C8.37567 14.9128 8.51425 14.8554 8.61643 14.7533C8.71861 14.6511 8.77601 14.5125 8.77601 14.368V13.8232L11.6816 16.0025L8.77601 18.1819V17.637C8.77601 17.4925 8.71861 17.354 8.61643 17.2518C8.51425 17.1496 8.37567 17.0922 8.23117 17.0922H1.14827V14.9128ZM14.2244 26.3545C11.0805 26.3855 7.95238 25.906 4.96214 24.9346C4.98312 24.8516 5.00389 24.7646 5.02514 24.6806C5.07485 24.4829 5.12437 24.2834 5.17388 24.0815C5.19356 24.0025 5.21324 23.926 5.23211 23.8465C8.1305 24.8132 11.1692 25.2925 14.2244 25.2648C17.28 25.2933 20.3191 24.8145 23.2179 23.8481C23.2371 23.926 23.256 24.0005 23.2751 24.0785C23.3252 24.2834 23.3754 24.4861 23.426 24.6862C23.4467 24.7688 23.467 24.8551 23.4882 24.9373C20.4973 25.908 17.3687 26.3866 14.2244 26.3545ZM20.2176 17.0922C20.0731 17.0922 19.9345 17.1496 19.8324 17.2518C19.7302 17.354 19.6728 17.4925 19.6728 17.637V18.1819L16.7672 16.0025L19.6728 13.8232V14.368C19.6728 14.5125 19.7302 14.6511 19.8324 14.7533C19.9345 14.8554 20.0731 14.9128 20.2176 14.9128H27.3005V17.0922H20.2176Z" fill="black"/>
</svg>
