<svg width="32" height="32" viewBox="0 0 32 32" fill="none" xmlns="http://www.w3.org/2000/svg">
<circle cx="16" cy="16" r="16" fill="#D9ECCD"/>
<g clip-path="url(#clip0_1948_86753)">
<path d="M21.0347 19.6667H20V17.6667C20 17.4827 19.8507 17.3333 19.6667 17.3333C19.4827 17.3333 19.3333 17.4827 19.3333 17.6667V19.6667H18.2947C18.0147 19.6667 17.768 19.8247 17.6507 20.0787C17.5333 20.3333 17.574 20.6233 17.776 20.8573L18.9927 22.0573C19.1767 22.2413 19.4193 22.334 19.6613 22.334C19.9013 22.334 20.142 22.2427 20.3247 22.0613L21.57 20.8387C21.7533 20.6267 21.7953 20.336 21.6787 20.0807C21.562 19.8253 21.3153 19.6667 21.0347 19.6667ZM19.8567 21.5867C19.7487 21.6947 19.572 21.6933 19.464 21.5867L19.4613 21.584L18.198 20.334H21.1487L19.8567 21.5873V21.5867ZM19.6667 15.3333C17.2773 15.3333 15.3333 17.2773 15.3333 19.6667C15.3333 22.056 17.2773 24 19.6667 24C22.056 24 24 22.056 24 19.6667C24 17.2773 22.056 15.3333 19.6667 15.3333ZM19.6667 23.3333C17.6453 23.3333 16 21.688 16 19.6667C16 17.6453 17.6453 16 19.6667 16C21.688 16 23.3333 17.6453 23.3333 19.6667C23.3333 21.688 21.688 23.3333 19.6667 23.3333ZM21 9.33333H19C18.992 9.33333 18.9853 9.33733 18.9773 9.338C18.2447 8.51933 17.1833 8 16 8C14.8167 8 13.756 8.51933 13.0227 9.338C13.0147 9.338 13.008 9.33333 13 9.33333H11C9.346 9.33333 8 10.6793 8 12.3333V21C8 22.654 9.346 24 11 24H15C15.184 24 15.3333 23.8507 15.3333 23.6667C15.3333 23.4827 15.184 23.3333 15 23.3333H11C9.71333 23.3333 8.66667 22.2867 8.66667 21V12.3333C8.66667 11.0467 9.71333 10 11 10H12.5413C12.1993 10.5893 12 11.2713 12 12C12 12.7353 12.598 13.3333 13.3333 13.3333H18.6667C19.402 13.3333 20 12.7353 20 12C20 11.2713 19.8007 10.5893 19.4587 10H21C22.2867 10 23.3333 11.0467 23.3333 12.3333V15C23.3333 15.184 23.4827 15.3333 23.6667 15.3333C23.8507 15.3333 24 15.184 24 15V12.3333C24 10.6793 22.654 9.33333 21 9.33333ZM18.6667 12.6667H16.1587L17.042 10.4573C17.1107 10.2867 17.028 10.0927 16.8567 10.024C16.686 9.95533 16.492 10.0387 16.424 10.21L15.4413 12.6673H13.3333C12.9653 12.6673 12.6667 12.368 12.6667 12.0007C12.6667 10.1627 14.162 8.66733 16 8.66733C17.838 8.66733 19.3333 10.1627 19.3333 12.0007C19.3333 12.368 19.0347 12.6667 18.6667 12.6667Z" fill="#338000"/>
</g>
<defs>
<clipPath id="clip0_1948_86753">
<rect width="16" height="16" fill="white" transform="translate(8 8)"/>
</clipPath>
</defs>
</svg>
