<svg width="54" height="54" viewBox="0 0 54 54" fill="none" xmlns="http://www.w3.org/2000/svg">
<g clip-path="url(#clip0_904_14068)">
<path d="M53.1563 10.125C53.1563 14.5463 51.0469 18.2334 48.2288 19.17L48.9375 51.0469V51.0891C48.9319 51.6362 48.7092 52.1587 48.3184 52.5416C47.9276 52.9246 47.4006 53.1365 46.8535 53.1309C46.3063 53.1253 45.7838 52.9026 45.4009 52.5118C45.018 52.121 44.806 51.594 44.8116 51.0469L45.0732 39.4622V39.4369L45.5204 19.2038C42.6516 18.3178 40.5 14.5884 40.5 10.125C40.4971 9.99259 40.5027 9.86012 40.5169 9.72844C40.6519 4.78406 43.4279 0.84375 46.8282 0.84375C50.3213 0.84375 53.1563 4.995 53.1563 10.125Z" fill="#FBB03B"/>
<path d="M45.5203 19.2037L45.0731 39.4369V39.4622C43.0606 42.3758 40.373 44.7593 37.2397 46.4093C34.1064 48.0592 30.6204 48.9265 27.0793 48.9373C23.5382 48.9481 20.047 48.102 16.9037 46.4711C13.7604 44.8403 11.0584 42.4732 9.02813 39.5719L8.57251 19.2459C9.97091 18.9277 11.2199 18.1443 12.115 17.0238C13.0102 15.9034 13.4985 14.5122 13.5 13.0781V9.71998C17.356 6.70078 22.1126 5.06097 27.0099 5.0625C31.9073 5.06403 36.6628 6.70681 40.5169 9.72841C40.5027 9.8601 40.497 9.99256 40.5 10.125C40.5 14.5884 42.6516 18.3178 45.5203 19.2037Z" fill="#E8E8E8"/>
<path d="M45.5179 19.3279V19.2039C45.4605 19.1862 45.4057 19.16 45.3491 19.1406C45.4073 19.2031 45.4613 19.268 45.5179 19.3279Z" fill="#E8E8E8"/>
<path d="M11.0329 22.6823C11.0224 22.2088 11.1484 21.7422 11.3959 21.3382C11.6433 20.9343 12.0018 20.61 12.4284 20.4042C13.4711 19.8766 14.3471 19.0703 14.9592 18.0749C15.5714 17.0795 15.8957 15.934 15.8963 14.7654L16.0228 8.02641C15.1437 8.53181 14.3007 9.09764 13.5 9.71982V13.0779C13.4985 14.5121 13.0102 15.9032 12.115 17.0237C11.2199 18.1442 9.97091 18.9276 8.57251 19.2458L9.02813 39.5717C9.8377 40.7261 10.7566 41.7998 11.772 42.7779L11.0329 22.6823ZM40.5 10.1248C40.497 9.99241 40.5027 9.85994 40.5169 9.72826C39.711 9.10036 38.862 8.52972 37.9764 8.02051C37.9899 9.68354 38.0109 11.733 38.0109 11.8123C38.0109 15.6252 39.5812 18.8998 41.8264 20.3283C42.1881 20.5534 42.4844 20.8697 42.6853 21.2454C42.8863 21.6211 42.9849 22.043 42.9714 22.4689L42.1959 42.8108C43.2631 41.7922 44.2268 40.6704 45.0731 39.462V39.4367L45.5203 19.2036C42.6516 18.3176 40.5 14.5883 40.5 10.1248Z" fill="#AEAEAE"/>
<path d="M9.37238 19.001C9.11155 19.1004 8.84432 19.1821 8.57251 19.2457L8.58348 19.7367C8.86673 19.5142 9.13064 19.268 9.37238 19.001Z" fill="#AEAEAE"/>
<path d="M13.5 2.10938V13.0781C13.4985 14.5123 13.0102 15.9034 12.115 17.0239C11.2199 18.1443 9.9709 18.9278 8.5725 19.2459L9.28125 51.0469V51.0891C9.27566 51.6362 9.05294 52.1587 8.6621 52.5416C8.27127 52.9246 7.74432 53.1365 7.19719 53.1309C6.65005 53.1253 6.12755 52.9026 5.74463 52.5118C5.3617 52.121 5.14972 51.594 5.15531 51.0469L5.86406 19.2713C4.44442 18.9703 3.17118 18.1909 2.25734 17.0636C1.3435 15.9363 0.844477 14.5293 0.84375 13.0781V2.10938C0.84375 1.77371 0.977092 1.45179 1.21444 1.21444C1.45179 0.977092 1.77371 0.84375 2.10938 0.84375C2.44504 0.84375 2.76696 0.977092 3.00431 1.21444C3.24166 1.45179 3.375 1.77371 3.375 2.10938V10.9688C3.375 11.3044 3.50834 11.6263 3.74569 11.8637C3.98304 12.101 4.30496 12.2344 4.64062 12.2344C4.97629 12.2344 5.29821 12.101 5.53556 11.8637C5.77291 11.6263 5.90625 11.3044 5.90625 10.9688V2.10938C5.90625 1.77371 6.03959 1.45179 6.27694 1.21444C6.51429 0.977092 6.83621 0.84375 7.17188 0.84375C7.50754 0.84375 7.82946 0.977092 8.06681 1.21444C8.30416 1.45179 8.4375 1.77371 8.4375 2.10938V10.9688C8.4375 11.3044 8.57084 11.6263 8.80819 11.8637C9.04554 12.101 9.36746 12.2344 9.70312 12.2344C10.0388 12.2344 10.3607 12.101 10.5981 11.8637C10.8354 11.6263 10.9688 11.3044 10.9688 10.9688V2.10938C10.9688 1.77371 11.1021 1.45179 11.3394 1.21444C11.5768 0.977092 11.8987 0.84375 12.2344 0.84375C12.57 0.84375 12.892 0.977092 13.1293 1.21444C13.3667 1.45179 13.5 1.77371 13.5 2.10938Z" fill="#FBB03B"/>
<path d="M3.375 14.7656V2.10938C3.375 1.77371 3.24166 1.45179 3.00431 1.21444C2.76696 0.977092 2.44504 0.84375 2.10938 0.84375C1.77371 0.84375 1.45179 0.977092 1.21444 1.21444C0.977092 1.45179 0.84375 1.77371 0.84375 2.10938V13.0781C0.844736 14.381 1.24787 15.6519 1.9981 16.7171C2.74833 17.7824 3.80908 18.5901 5.0355 19.0299C3.96666 17.8671 3.37396 16.345 3.375 14.7656ZM46.8281 0.84375C46.0976 0.868843 45.3807 1.04898 44.7251 1.3722C44.0695 1.69543 43.4901 2.15436 43.0253 2.71856C43.4379 2.59482 43.8662 2.53172 44.2969 2.53125C47.79 2.53125 50.625 6.6825 50.625 11.8125C50.5943 14.1978 50.094 16.5537 49.1527 18.7456C51.4949 17.3863 53.1562 14.0468 53.1562 10.125C53.1562 4.995 50.3213 0.84375 46.8281 0.84375Z" fill="#BC842C"/>
<path d="M51.9667 24.1227C52.7286 24.8863 53.1565 25.9211 53.1565 26.9998C53.1565 28.0786 52.7286 29.1133 51.9667 29.877L48.541 33.3027L48.2542 20.4102L51.9667 24.1227Z" fill="#854E1C"/>
<path d="M15.7275 23.3975C15.8625 26.6206 17.5247 29.1603 19.1784 29.1603C20.8322 29.1603 21.87 27.1353 20.3597 23.2119C19.1278 19.9972 22.1737 17.7275 20.52 17.7275C19.1356 17.8512 17.8558 18.516 16.9585 19.5776C16.0612 20.6391 15.6189 22.0118 15.7275 23.3975ZM40.0191 20.225C40.4555 21.6765 40.5915 23.2016 40.4189 24.7074C40.2462 26.2132 39.7686 27.6681 39.015 28.9831C36.9647 33.0247 34.3153 35.8597 28.8141 39.6734C28.5863 39.8337 28.3416 39.994 28.0969 40.1628C27.7728 40.3813 27.3909 40.4981 27 40.4981C26.6091 40.4981 26.2272 40.3813 25.9031 40.1628C25.6584 39.994 25.4138 39.8337 25.1859 39.6734C24.7556 39.3781 24.3422 39.0828 23.9456 38.7959C19.2712 35.4125 16.875 32.7125 14.985 28.9831C14.0528 27.2749 13.5436 25.3683 13.5 23.4228C13.5058 22.3393 13.6678 21.2623 13.9809 20.225C14.1738 19.5499 14.4821 18.9133 14.8922 18.3434C15.2928 17.7755 15.7863 17.2792 16.3519 16.8753C17.5265 16.0305 18.9381 15.5787 20.385 15.5844C21.5992 15.5716 22.7941 15.889 23.8419 16.5028C24.8896 17.1166 25.7508 18.0036 26.3334 19.069L27 20.7987L27.6666 19.069C28.2308 18.0091 29.0816 17.1291 30.1219 16.5294C31.1706 15.9177 32.3615 15.5918 33.5756 15.5844C34.7897 15.577 35.9845 15.8883 37.0406 16.4872C37.2511 16.6036 37.454 16.7332 37.6481 16.8753C38.2137 17.2792 38.7072 17.7755 39.1078 18.3434C39.5179 18.9133 39.8262 19.5499 40.0191 20.225Z" fill="#D83939"/>
<path d="M40.0191 20.2245C39.8262 19.5494 39.5179 18.9128 39.1078 18.3429C38.7072 17.775 38.2138 17.2786 37.6481 16.8748C37.454 16.7327 37.2511 16.6031 37.0406 16.4867C36.4974 16.1756 35.9132 15.9424 35.3051 15.7939C35.7916 16.1645 36.2202 16.6056 36.5766 17.1026C36.9867 17.6725 37.295 18.3091 37.4878 18.9842C37.9242 20.4356 38.0603 21.9608 37.8876 23.4666C37.715 24.9724 37.2373 26.4272 36.4838 27.7423C34.4335 31.7839 31.7841 34.6189 26.2828 38.4326C26.055 38.5929 25.8103 38.7532 25.5656 38.922C25.2706 39.1158 24.9286 39.2263 24.5759 39.2418C24.7793 39.386 24.9742 39.5278 25.186 39.6729C25.4138 39.8332 25.6585 39.9935 25.9031 40.1623C26.2272 40.3808 26.6092 40.4976 27 40.4976C27.3909 40.4976 27.7728 40.3808 28.0969 40.1623C28.3416 39.9935 28.5863 39.8332 28.8141 39.6729C34.3153 35.8592 36.9647 33.0242 39.015 28.9826C39.7686 27.6675 40.2463 26.2127 40.4189 24.7069C40.5915 23.2011 40.4555 21.676 40.0191 20.2245Z" fill="#A22B2B"/>
<path d="M34.0707 6.22703C29.4819 4.67167 24.508 4.67463 19.921 6.23547L24.1229 2.03359C24.8866 1.27165 25.9213 0.84375 27.0001 0.84375C28.0789 0.84375 29.1136 1.27165 29.8773 2.03359L34.0707 6.22703Z" fill="#B26826"/>
<path d="M27.0001 48.9375C29.4083 48.9399 31.8003 48.5436 34.0791 47.7646L29.8773 51.9665C29.1136 52.7285 28.0788 53.1564 27.0001 53.1564C25.9213 53.1564 24.8866 52.7285 24.1229 51.9665L19.9294 47.7731C22.207 48.5445 24.5954 48.9378 27.0001 48.9375Z" fill="#854E1C"/>
<path d="M20.5201 17.7275C22.1738 17.7275 19.1279 19.9972 20.3598 23.2119C21.8701 27.1354 20.8323 29.1604 19.1785 29.1604C17.5248 29.1604 15.8626 26.6207 15.7276 23.3975C15.619 22.0118 16.0613 20.6392 16.9586 19.5776C17.8559 18.5161 19.1356 17.8513 20.5201 17.7275Z" fill="#E88888"/>
<path d="M5.54347 33.3874L2.03347 29.8774C1.27153 29.1137 0.843628 28.079 0.843628 27.0002C0.843628 25.9215 1.27153 24.8867 2.03347 24.123L5.83034 20.3262V20.4105L5.54347 33.303V33.3874Z" fill="#B26826"/>
<path d="M48.5401 33.3027L48.2532 20.4102L48.2279 19.1699L47.7883 19.1758C47.5445 19.1794 47.3119 19.2787 47.1407 19.4524C46.9696 19.6261 46.8737 19.8601 46.8737 20.104V53.1562C47.1486 53.1562 47.4207 53.1014 47.6741 52.9948C47.9276 52.8883 48.1571 52.7322 48.3494 52.5357C48.5416 52.3392 48.6927 52.1063 48.7937 51.8506C48.8947 51.5949 48.9436 51.3216 48.9375 51.0468L48.5401 33.3027ZM7.21406 20.098V53.1562C6.9362 53.156 6.66105 53.1016 6.40406 52.9959C6.28429 52.9395 6.16868 52.8746 6.05813 52.8018H6.04969C5.94542 52.7245 5.84674 52.6399 5.75438 52.5487C5.61972 52.4043 5.50091 52.2459 5.4 52.0762C5.34073 51.9561 5.28998 51.8321 5.24813 51.7049C5.17902 51.4926 5.14761 51.2699 5.15531 51.0468L5.55188 33.3955L5.83875 20.3174L5.86406 19.2712H6.30703C6.42187 19.2614 6.53749 19.2755 6.64663 19.3125C6.75577 19.3495 6.85608 19.4087 6.94125 19.4864C7.02642 19.564 7.09462 19.6585 7.14157 19.7637C7.18852 19.869 7.2132 19.9828 7.21406 20.098Z" fill="#BC842C"/>
</g>
<defs>
<clipPath id="clip0_904_14068">
<rect width="54" height="54" fill="white"/>
</clipPath>
</defs>
</svg>
