<svg width="48" height="48" viewBox="0 0 48 48" fill="none" xmlns="http://www.w3.org/2000/svg">
<circle cx="24" cy="24" r="24" fill="#D9ECCD"/>
<g clip-path="url(#clip0_1983_100682)">
<path d="M35.5 27H35V26C35 20.494 30.93 15.933 25.642 15.136C25.866 14.813 26 14.422 26 14C26 12.897 25.103 12 24 12C22.897 12 22 12.897 22 14C22 14.422 22.133 14.813 22.358 15.136C17.07 15.933 13 20.494 13 26V27H12.5C12.224 27 12 27.224 12 27.5C12 27.776 12.224 28 12.5 28H17.786C15.703 29.11 14.119 31.069 13.53 33.494L13.053 35.459C12.988 35.728 13.153 35.998 13.421 36.063C13.683 36.127 13.96 35.966 14.025 35.695L14.502 33.73C15.321 30.356 18.318 28 21.79 28H25.5C26.405 28 27.142 28.737 27.142 29.643C27.142 30.455 26.536 31.154 25.732 31.268L20.571 32.005C20.298 32.044 20.108 32.297 20.147 32.57C20.186 32.843 20.438 33.023 20.713 32.995L25.873 32.258C26.376 32.186 26.827 31.97 27.195 31.659C27.294 31.63 30.905 28.427 30.985 28.377C31.589 27.829 32.596 27.902 33.117 28.525C33.658 29.147 33.596 30.098 32.971 30.653L28.158 35.133C27.956 35.321 27.945 35.638 28.133 35.84C28.322 36.042 28.638 36.053 28.84 35.865L33.644 31.392C34.628 30.519 34.751 29.031 33.964 27.998H35.499C35.775 27.998 35.999 27.774 35.999 27.498C35.999 27.222 35.775 26.998 35.499 26.998L35.5 27ZM23 14C23 13.448 23.449 13 24 13C24.551 13 25 13.448 25 14C25 14.552 24.551 15 24 15C23.449 15 23 14.552 23 14ZM14 27V26C14 20.486 18.486 16 24 16C29.514 16 34 20.486 34 26V27H14ZM28.131 29.537C28.108 28.955 27.895 28.426 27.553 28H29.896L28.131 29.537Z" fill="#338000"/>
</g>
<defs>
<clipPath id="clip0_1983_100682">
<rect width="24" height="24" fill="white" transform="translate(12 12)"/>
</clipPath>
</defs>
</svg>
