<svg width="21" height="21" viewBox="0 0 21 21" fill="none" xmlns="http://www.w3.org/2000/svg">
<path d="M20.4386 0.576509C20.4312 0.570355 20.4214 0.565432 20.4164 0.559278C20.0841 0.231893 19.6238 0.102663 19.198 0.172816L14.2725 0.236816C13.4934 0.247893 12.8706 0.886663 12.8805 1.66574C12.8903 2.44235 13.4798 3.02205 14.3081 3.05651L15.9574 3.03559L13.5438 5.44912C12.1088 4.39066 10.3808 3.81835 8.56291 3.81835C6.31553 3.81835 4.2023 4.69343 2.61337 6.28235C-0.665395 9.56235 -0.665395 14.9002 2.61337 18.1802C4.2023 19.7691 6.31553 20.6442 8.56291 20.6442C10.8091 20.6442 12.9235 19.7691 14.5125 18.1802C17.4171 15.2731 17.7531 10.7525 15.5106 7.47743L18.0448 4.95066V6.79558C18.0448 7.57466 18.6774 8.20482 19.4552 8.20482C20.2368 8.20482 20.8657 7.57343 20.8657 6.79558V1.57712C20.8657 1.20297 20.7069 0.841124 20.4386 0.576509ZM12.5186 16.1864C10.4066 18.2984 6.72291 18.2984 4.60845 16.1864C2.42753 14.0067 2.42753 10.4571 4.60845 8.2762C5.66568 7.2202 7.06999 6.63805 8.56414 6.63805C10.0595 6.63805 11.4614 7.2202 12.5211 8.2762C14.7008 10.4559 14.7008 14.0067 12.5186 16.1864Z" fill="#131313"/>
</svg>
