<svg width="32" height="32" viewBox="0 0 32 32" fill="none" xmlns="http://www.w3.org/2000/svg">
<circle cx="16" cy="16" r="16" fill="#D9ECCD"/>
<path d="M19.5 17.25V11.375C19.5 11.2375 19.3875 11.125 19.25 11.125H12.75C12.6125 11.125 12.5 11.2375 12.5 11.375V17.25C12.5 17.3875 12.6125 17.5 12.75 17.5H19.25C19.3875 17.5 19.5 17.3875 19.5 17.25ZM19 17H13V11.625H19V17Z" fill="#338000"/>
<path d="M18.75 9H13.25C11.6625 9 10.375 10.2875 10.375 11.875V19.125C10.375 20.7125 11.6625 22 13.25 22H14.25V24.75C14.25 24.8875 14.3625 25 14.5 25H17.5C17.6375 25 17.75 24.8875 17.75 24.75V22H18.75C20.3375 22 21.625 20.7125 21.625 19.125V11.875C21.625 10.2875 20.3375 9 18.75 9ZM17.25 24.5H14.75V20H17.25V24.5ZM21.125 19.125C21.125 20.4375 20.0625 21.5 18.75 21.5H17.75V20H18.25C18.3875 20 18.5 19.8875 18.5 19.75C18.5 19.6125 18.3875 19.5 18.25 19.5H13.75C13.6125 19.5 13.5 19.6125 13.5 19.75C13.5 19.8875 13.6125 20 13.75 20H14.25V21.5H13.25C11.9375 21.5 10.875 20.4375 10.875 19.125V11.875C10.875 10.5625 11.9375 9.5 13.25 9.5H18.75C20.0625 9.5 21.125 10.5625 21.125 11.875V19.125Z" fill="#338000"/>
<path d="M15.9984 23.9999C16.4109 23.9999 16.7484 23.6624 16.7484 23.2499C16.7484 22.8374 16.4109 22.4999 15.9984 22.4999C15.5859 22.4999 15.2484 22.8374 15.2484 23.2499C15.2484 23.6624 15.5859 23.9999 15.9984 23.9999ZM15.9984 22.9999C16.1359 22.9999 16.2484 23.1124 16.2484 23.2499C16.2484 23.3874 16.1359 23.4999 15.9984 23.4999C15.8609 23.4999 15.7484 23.3874 15.7484 23.2499C15.7484 23.1124 15.8609 22.9999 15.9984 22.9999ZM15.9984 16.2499C16.7359 16.2499 17.3484 15.6499 17.3484 14.9124C17.3484 13.5499 16.2109 12.4874 16.1734 12.4499C16.0734 12.3624 15.9234 12.3624 15.8234 12.4624C15.7734 12.5124 14.6484 13.6999 14.6484 14.9124C14.6484 15.6499 15.2609 16.2499 15.9984 16.2499ZM16.0109 12.9999C16.2984 13.3374 16.8484 14.0749 16.8484 14.9124C16.8484 15.3874 16.4609 15.7624 15.9984 15.7624C15.5234 15.7624 15.1484 15.3874 15.1484 14.9124C15.1484 14.1499 15.7109 13.3499 16.0109 12.9999Z" fill="#338000"/>
</svg>
