<svg width="30" height="32" viewBox="0 0 30 32" fill="none" xmlns="http://www.w3.org/2000/svg">
<path d="M27.6907 1.00195H18.7489C18.016 1.00195 17.4219 1.5961 17.4219 2.32902V15.1953C17.4219 15.9282 18.016 16.5224 18.7489 16.5224H27.6907C28.4236 16.5224 29.0177 15.9282 29.0177 15.1953V2.32902C29.0177 1.5961 28.4236 1.00195 27.6907 1.00195Z" fill="#01095E"/>
<path d="M26.9001 1.00195H18.7489C18.016 1.00195 17.4219 1.5961 17.4219 2.32902V15.1953C17.4219 15.9282 18.016 16.5224 18.7489 16.5224H26.9001C27.633 16.5224 28.2272 15.9282 28.2272 15.1953V2.32902C28.2272 1.5961 27.633 1.00195 26.9001 1.00195Z" fill="#283366"/>
<path d="M26.5427 3.18945H19.8976C19.7384 3.18945 19.6094 3.31848 19.6094 3.47764V10.1228C19.6094 10.2819 19.7384 10.411 19.8976 10.411H26.5427C26.7018 10.411 26.8309 10.2819 26.8309 10.1228V3.47764C26.8309 3.31848 26.7018 3.18945 26.5427 3.18945Z" fill="#ECEFF1"/>
<path d="M25.6561 3.18945H19.8976C19.7384 3.18945 19.6094 3.31848 19.6094 3.47764V10.1228C19.6094 10.2819 19.7384 10.411 19.8976 10.411H25.6561C25.8152 10.411 25.9443 10.2819 25.9443 10.1228V3.47764C25.9443 3.31848 25.8152 3.18945 25.6561 3.18945Z" fill="white"/>
<path fill-rule="evenodd" clip-rule="evenodd" d="M14.1377 12.3838C13.8075 14.723 11.7974 16.5223 9.36717 16.5223C7.07861 16.5223 5.16273 14.9268 4.67129 12.7874C4.03161 10.0026 8.03186 3.63083 9.36717 1.00195C10.621 3.47039 14.4956 9.84914 14.1377 12.3839V12.3838Z" fill="#B20604"/>
<path fill-rule="evenodd" clip-rule="evenodd" d="M8.96817 16.5049C6.85861 16.332 5.13386 14.8003 4.6713 12.7865C4.08661 10.2411 7.37811 4.69937 8.96805 1.75781C10.4879 4.58756 13.6665 10.0765 13.3409 12.383C13.0289 14.5932 11.2171 16.3211 8.96823 16.505L8.96817 16.5049Z" fill="#FA1F23"/>
<path d="M24.8323 14.2812H21.63C21.4811 14.2812 21.3604 14.402 21.3604 14.5509V22.0391C21.3604 22.188 21.4811 22.3088 21.63 22.3088H24.8323C24.9812 22.3088 25.1019 22.188 25.1019 22.0391V14.5509C25.1019 14.402 24.9812 14.2812 24.8323 14.2812Z" fill="#1D67AD"/>
<path fill-rule="evenodd" clip-rule="evenodd" d="M24.4284 22.3088H21.63C21.5585 22.3086 21.4901 22.2801 21.4395 22.2296C21.389 22.179 21.3605 22.1106 21.3604 22.0391V14.5509C21.3606 14.4799 21.3887 14.4119 21.4386 14.3614C21.4885 14.311 21.5563 14.2822 21.6272 14.2812H24.4257C24.4971 14.2814 24.5656 14.3099 24.6161 14.3604C24.6666 14.411 24.6951 14.4794 24.6953 14.5509V22.0391C24.6951 22.1101 24.667 22.1781 24.617 22.2286C24.5671 22.279 24.4994 22.3078 24.4284 22.3088Z" fill="#3886CF"/>
<path fill-rule="evenodd" clip-rule="evenodd" d="M25.1019 19.1582V22.0393C25.1017 22.1108 25.0732 22.1792 25.0227 22.2298C24.9722 22.2803 24.9037 22.3088 24.8323 22.309H21.63C21.5585 22.3088 21.4901 22.2803 21.4395 22.2298C21.389 22.1792 21.3605 22.1108 21.3604 22.0393V19.1582H25.1019Z" fill="#8A91B3"/>
<path fill-rule="evenodd" clip-rule="evenodd" d="M24.4284 22.309H21.63C21.5585 22.3088 21.4901 22.2803 21.4395 22.2298C21.389 22.1792 21.3605 22.1108 21.3604 22.0393V19.1582H24.6953V22.0393C24.6951 22.1103 24.667 22.1783 24.617 22.2288C24.5671 22.2792 24.4994 22.308 24.4284 22.309Z" fill="#BCBED6"/>
<path d="M4.67151 19.416H1.45088C1.04923 19.416 0.723633 19.7416 0.723633 20.1433V30.2722C0.723633 30.6739 1.04923 30.9995 1.45088 30.9995H4.67151C5.07316 30.9995 5.39876 30.6739 5.39876 30.2722V20.1433C5.39876 19.7416 5.07316 19.416 4.67151 19.416Z" fill="#C2591D"/>
<path fill-rule="evenodd" clip-rule="evenodd" d="M5.39844 21.4321V29.4246L7.03169 29.4309C7.93044 29.4352 7.71837 29.9272 8.86131 29.9316C10.9057 29.9544 12.9418 29.9447 14.9871 29.9447C15.5663 29.9447 16.0401 29.4708 16.0401 28.8917C16.0401 28.3675 15.6486 27.9194 15.1296 27.8484H15.8351C16.4143 27.8484 16.8881 27.3746 16.8881 26.7954C16.8881 26.2163 16.4142 25.7424 15.8351 25.7424H16.8429C17.4221 25.7424 17.8959 25.2686 17.8959 24.6894C17.8959 24.1301 17.4524 23.6646 16.8938 23.6377L22.3624 23.6219C23.8528 23.6176 23.8513 21.5135 22.3624 21.513L12.7789 21.5095C14.2312 20.9162 15.9991 19.8446 16.201 18.7121C16.3684 17.8759 16.0217 17.0028 15.0205 17.5012L8.34569 20.8235C6.87631 21.5549 7.04125 21.4603 5.39844 21.4323V21.4321Z" fill="#FFBCAB"/>
<path fill-rule="evenodd" clip-rule="evenodd" d="M5.39876 20.1418V29.4987C5.39876 29.8987 5.07151 30.226 4.67151 30.226H1.45088C1.05138 30.226 0.724383 29.8995 0.723633 29.5001V20.1433C0.723633 19.7433 1.05088 19.416 1.45088 19.416H4.67151C5.07101 19.416 5.39795 19.7425 5.39876 20.1418Z" fill="#D6763E"/>
<path d="M27.0707 2.66363H19.8491C19.7497 2.66363 19.6543 2.70313 19.584 2.77346C19.5136 2.84379 19.4741 2.93917 19.4741 3.03863V10.2601C19.4741 10.3596 19.5136 10.455 19.584 10.5253C19.6543 10.5956 19.7497 10.6351 19.8491 10.6351H27.0707C27.1701 10.6351 27.2655 10.5956 27.3358 10.5253C27.4062 10.455 27.4457 10.3596 27.4457 10.2601V3.03863C27.4457 2.93917 27.4062 2.84379 27.3358 2.77346C27.2655 2.70313 27.1701 2.66363 27.0707 2.66363ZM26.6957 9.88513H20.2241V3.41363H26.6957V9.88513ZM27.9307 0.476562H18.9891C18.0506 0.476562 17.2871 1.24013 17.2871 2.17863V15.0449C17.2871 15.9834 18.0506 16.747 18.9891 16.747H21.2255V20.9883L14.0444 20.9856C15.2834 20.49 16.4952 19.8216 16.8041 18.6591C16.9832 17.985 16.85 17.3668 16.4565 17.0457C16.2552 16.8816 15.8109 16.6595 15.094 17.0163L8.41912 20.3386C7.60666 20.7429 6.84841 20.9364 6.14437 20.919L6.01405 20.9158V19.9954C6.01405 19.3876 5.51956 18.8932 4.91174 18.8932H1.69118C1.08337 18.8932 0.588867 19.3877 0.588867 19.9954V30.1243C0.588867 30.7321 1.08337 31.2266 1.69118 31.2266H4.91174C5.51956 31.2266 6.01405 30.7321 6.01405 30.1243V29.6519L7.27049 29.6567C7.59562 29.6583 7.70699 29.7208 7.87568 29.8154C8.10806 29.9457 8.39724 30.1079 9.09774 30.1106L14.4456 30.1704L14.4706 30.1705C15.1908 30.1705 15.8547 29.8244 16.1667 29.2844C16.3837 28.9091 16.3912 28.4961 16.1876 28.1516C16.1582 28.1021 16.1251 28.0548 16.0887 28.0101C16.6721 27.8543 17.0512 27.3686 17.1411 26.8916C17.206 26.5467 17.1331 26.2191 16.9479 25.9527L16.988 25.9526C17.8588 25.9482 18.3355 25.3261 18.4099 24.7499C18.448 24.4543 18.3865 24.1303 18.2017 23.8603L22.6042 23.8476C23.5297 23.8449 24.0375 23.2028 24.0904 22.5338H25.3421C25.4415 22.5338 25.5369 22.4942 25.6072 22.4239C25.6775 22.3536 25.7171 22.2582 25.7171 22.1588V16.747H27.9307C28.8693 16.747 29.6328 15.9834 29.6328 15.0449V2.17863C29.6328 1.24013 28.8692 0.476562 27.9307 0.476562ZM24.9671 14.5063V18.6329H21.9755V14.5063H24.9671ZM4.91174 30.4766H1.69118C1.59778 30.4765 1.50824 30.4393 1.44219 30.3733C1.37614 30.3072 1.33898 30.2177 1.33887 30.1243V19.9954C1.33897 19.902 1.37612 19.8125 1.44217 19.7464C1.50822 19.6804 1.59778 19.6433 1.69118 19.6432H4.91174C5.00514 19.6433 5.09469 19.6804 5.16073 19.7465C5.22678 19.8125 5.26394 19.902 5.26405 19.9954V30.1244C5.26396 30.2178 5.2268 30.3073 5.16075 30.3734C5.0947 30.4394 5.00515 30.4765 4.91174 30.4766V30.4766ZM22.6019 23.0976L13.8612 23.1229C13.7618 23.1228 13.6664 23.1622 13.596 23.2324C13.5255 23.3026 13.4859 23.398 13.4858 23.4974C13.4857 23.5969 13.5251 23.6923 13.5953 23.7627C13.6656 23.8331 13.7609 23.8728 13.8604 23.8729L14.0466 23.8738C15.0616 23.8787 16.5954 23.8862 17.2205 24.0536C17.6895 24.1793 17.6801 24.5448 17.6659 24.6539C17.6309 24.9254 17.4065 25.2004 16.9841 25.2025L14.1607 25.2166C14.0582 25.2154 13.9556 25.2159 13.8531 25.2183C13.7545 25.2208 13.6609 25.262 13.5926 25.3331C13.5242 25.4041 13.4865 25.4991 13.4878 25.5977C13.489 25.6963 13.5289 25.7904 13.599 25.8597C13.6691 25.9291 13.7637 25.968 13.8622 25.9681H13.8642L14.2033 25.9664C14.9287 25.9755 15.7981 26.059 16.0232 26.1502C16.4227 26.3121 16.4332 26.5972 16.4039 26.7528C16.3523 27.0266 16.0941 27.3065 15.7003 27.3115L13.9716 27.3335C13.9332 27.3337 13.8941 27.3342 13.8544 27.335C13.7559 27.3375 13.6624 27.3786 13.594 27.4495C13.5256 27.5204 13.4879 27.6153 13.4889 27.7138C13.4899 27.8123 13.5297 27.9064 13.5995 27.9758C13.6693 28.0452 13.7637 28.0844 13.8622 28.0849H13.8671L13.9812 28.0834C15.1781 28.0787 15.4774 28.4246 15.5418 28.5334C15.6064 28.6427 15.5982 28.7691 15.5172 28.9093C15.3677 29.1679 14.9787 29.4269 14.4537 29.4204L9.10324 29.3606C8.59437 29.3586 8.43124 29.2671 8.24243 29.1612C8.03187 29.0431 7.79318 28.9092 7.27362 28.9067L6.01399 28.9019V21.6659L6.12574 21.6687C7.33262 21.6986 7.40674 21.6802 8.75331 21.0099L15.4282 17.6876C15.5739 17.6151 15.8399 17.5106 15.9822 17.6268C16.113 17.7334 16.1882 18.056 16.0791 18.4664C15.7827 19.5823 14.0939 20.1863 12.7369 20.6717C12.4084 20.7892 12.0981 20.9002 11.8229 21.0126C11.7425 21.0455 11.676 21.1053 11.6347 21.1818C11.5935 21.2583 11.5801 21.3467 11.5968 21.432C11.6136 21.5173 11.6594 21.5941 11.7265 21.6493C11.7936 21.7045 11.8778 21.7347 11.9647 21.7348L22.6029 21.7386C23.1501 21.7388 23.3448 22.1037 23.3452 22.4161C23.3456 22.7294 23.1512 23.0959 22.6019 23.0975L22.6019 23.0976ZM23.952 21.7838C23.7371 21.3351 23.2825 20.989 22.6032 20.9888L21.9755 20.9885V19.3829H24.9671V21.7838H23.952ZM28.8829 15.0449C28.8829 15.5699 28.4557 15.997 27.9308 15.997H25.7171V14.5063H26.0747C26.1742 14.5063 26.2696 14.4667 26.3399 14.3964C26.4102 14.3261 26.4497 14.2307 26.4497 14.1313C26.4497 14.0318 26.4102 13.9364 26.3399 13.8661C26.2696 13.7958 26.1742 13.7563 26.0747 13.7563H20.8452C20.7458 13.7563 20.6504 13.7958 20.5801 13.8661C20.5098 13.9364 20.4702 14.0318 20.4702 14.1313C20.4702 14.2307 20.5098 14.3261 20.5801 14.3964C20.6504 14.4667 20.7458 14.5063 20.8452 14.5063H21.2256V15.997H18.9891C18.4642 15.997 18.0371 15.5699 18.0371 15.0449V2.17863C18.0371 1.65369 18.4642 1.22656 18.9891 1.22656H27.9308C28.4557 1.22656 28.8829 1.65363 28.8829 2.17863V15.0449ZM21.5522 12.1957C21.5522 12.2951 21.5127 12.3905 21.4423 12.4609C21.372 12.5312 21.2766 12.5707 21.1772 12.5707H19.8492C19.7497 12.5707 19.6543 12.5312 19.584 12.4609C19.5137 12.3905 19.4742 12.2951 19.4742 12.1957C19.4742 12.0962 19.5137 12.0008 19.584 11.9305C19.6543 11.8602 19.7497 11.8207 19.8492 11.8207H21.1772C21.2766 11.8207 21.372 11.8602 21.4423 11.9305C21.5127 12.0008 21.5522 12.0962 21.5522 12.1957ZM27.4457 12.1958C27.4457 12.2952 27.4062 12.3906 27.3359 12.4609C27.2656 12.5312 27.1702 12.5708 27.0707 12.5708H25.7427C25.6432 12.5708 25.5478 12.5312 25.4775 12.4609C25.4072 12.3906 25.3677 12.2952 25.3677 12.1958C25.3677 12.0963 25.4072 12.0009 25.4775 11.9306C25.5478 11.8603 25.6432 11.8208 25.7427 11.8208H27.0707C27.1702 11.8208 27.2656 11.8603 27.3359 11.9306C27.4062 12.0009 27.4457 12.0963 27.4457 12.1958ZM24.499 12.1958C24.499 12.2952 24.4595 12.3906 24.3892 12.4609C24.3188 12.5312 24.2235 12.5708 24.124 12.5708H22.796C22.6965 12.5708 22.6012 12.5312 22.5308 12.4609C22.4605 12.3906 22.421 12.2952 22.421 12.1958C22.421 12.0963 22.4605 12.0009 22.5308 11.9306C22.6012 11.8603 22.6965 11.8208 22.796 11.8208H24.124C24.2235 11.8208 24.3188 11.8603 24.3892 11.9306C24.4595 12.0009 24.499 12.0963 24.499 12.1958ZM6.35024 15.5987C7.26868 16.3392 8.42549 16.747 9.60749 16.747C10.8655 16.7474 12.0808 16.2908 13.0273 15.4621C13.9645 14.6414 14.5761 13.5134 14.7494 12.2859C15.0579 10.1009 12.5359 5.473 10.8671 2.41056C10.4948 1.72731 10.1732 1.13719 9.94187 0.68175C9.9105 0.62002 9.86266 0.568177 9.80364 0.531965C9.74463 0.495753 9.67673 0.476585 9.60749 0.476585C9.53825 0.476585 9.47036 0.495753 9.41134 0.531965C9.35233 0.568177 9.30448 0.62002 9.27312 0.68175C9.02912 1.16225 8.69637 1.76656 8.31118 2.46638C6.59143 5.59044 3.99255 10.3116 4.54606 12.721C4.80481 13.8474 5.44562 14.8694 6.35024 15.5987ZM8.96824 2.828C9.20293 2.40175 9.41824 2.0105 9.60706 1.65919C9.78493 1.99194 9.98793 2.36444 10.2086 2.76944C11.7316 5.56425 14.2806 10.2419 14.0067 12.1811C13.6996 14.3565 11.8084 15.997 9.60749 15.997C7.52356 15.997 5.74287 14.5808 5.27706 12.5531C4.78768 10.4226 7.40462 5.6685 8.96824 2.828ZM9.23256 13.897C9.23256 13.7975 9.27207 13.7022 9.34239 13.6318C9.41272 13.5615 9.5081 13.522 9.60756 13.522C10.5539 13.522 11.3673 12.8486 11.5417 11.9206C11.5976 11.6231 11.4984 10.9117 10.7086 9.212C10.6685 9.12207 10.6653 9.01999 10.6999 8.92778C10.7344 8.83557 10.8038 8.76063 10.8931 8.71914C10.9824 8.67765 11.0844 8.67293 11.1771 8.70601C11.2699 8.73909 11.3459 8.80731 11.3887 8.89594C12.1099 10.4478 12.3926 11.4529 12.2787 12.0591C12.0379 13.3414 10.9144 14.272 9.60756 14.272C9.5081 14.272 9.41272 14.2325 9.34239 14.1622C9.27207 14.0918 9.23256 13.9965 9.23256 13.897Z" fill="black"/>
</svg>
