<svg width="30" height="30" viewBox="0 0 30 30" fill="none" xmlns="http://www.w3.org/2000/svg">
<circle cx="14.8909" cy="14.8909" r="14.8909" fill="#D9ECCD"/>
<path d="M21.6667 13.7503C21.6667 13.9803 21.48 14.167 21.25 14.167H18.3958C18.2483 14.167 18.11 14.2462 18.0358 14.3745L17.0708 16.2453C16.8883 16.5212 16.5525 16.6678 16.25 16.6678C15.9242 16.6478 15.6425 16.4612 15.4967 16.1695L13.7783 11.6712L13.6917 11.6678L12.6867 13.5153C12.4675 13.9178 12.0467 14.1687 11.5883 14.1687H8.75083C8.52083 14.1687 8.33417 13.982 8.33417 13.752C8.33417 13.522 8.52083 13.3353 8.75083 13.3353H11.5883C11.7417 13.3353 11.8817 13.252 11.9542 13.1178L12.9592 11.2703C13.16 10.967 13.465 10.8203 13.7867 10.837C14.1125 10.857 14.3942 11.0437 14.54 11.3353L16.2583 15.8337L16.3517 15.827L17.3167 13.957C17.5392 13.5737 17.9533 13.3353 18.3967 13.3353H21.2508C21.4808 13.3353 21.6675 13.522 21.6675 13.752L21.6667 13.7503ZM25 10.417V17.0837C25 19.1512 23.3175 20.8337 21.25 20.8337H15.4167V23.3337H19.5833C19.8133 23.3337 20 23.5203 20 23.7503C20 23.9803 19.8133 24.167 19.5833 24.167H10.4167C10.1867 24.167 10 23.9803 10 23.7503C10 23.5203 10.1867 23.3337 10.4167 23.3337H14.5833V20.8337H8.75C6.6825 20.8337 5 19.1512 5 17.0837V10.417C5 8.34949 6.6825 6.66699 8.75 6.66699H21.25C23.3175 6.66699 25 8.34949 25 10.417ZM24.1667 10.417C24.1667 8.80866 22.8583 7.50033 21.25 7.50033H8.75C7.14167 7.50033 5.83333 8.80866 5.83333 10.417V17.0837C5.83333 18.692 7.14167 20.0003 8.75 20.0003H21.25C22.8583 20.0003 24.1667 18.692 24.1667 17.0837V10.417Z" fill="#338000"/>
</svg>
