<svg width="32" height="26" viewBox="0 0 32 26" fill="none" xmlns="http://www.w3.org/2000/svg">
<path d="M31.5572 12.6093C31.5572 19.2762 24.5936 24.6807 16.0039 24.6807C15.6246 24.6807 15.2485 24.6701 14.8761 24.6494C12.8839 24.5387 10.995 24.1368 9.28067 23.4978C5.1636 25.5614 1.39389 25.4643 1.39389 25.4643C2.89101 24.0242 3.86676 22.2248 4.48076 20.717C1.97659 18.5746 0.450684 15.7306 0.450684 12.6093C0.450684 6.23653 6.81343 1.01727 14.8773 0.569136C15.2491 0.548482 15.6253 0.537842 16.0039 0.537842C24.5936 0.537842 31.5572 5.94236 31.5572 12.6093Z" fill="#FF7300"/>
<path d="M31.5572 12.6093C31.5572 19.2762 24.5936 24.6807 16.0039 24.6807C15.6247 24.6807 15.2485 24.6701 14.8761 24.6494C22.9406 24.2019 29.304 18.9827 29.304 12.6093C29.304 6.23653 22.9413 1.01727 14.8774 0.569136C15.2491 0.548482 15.6253 0.537842 16.0039 0.537842C24.5936 0.537842 31.5572 5.94236 31.5572 12.6093Z" fill="#FFB173"/>
<path d="M11.3265 13.0019C11.3265 14.039 10.487 14.8796 9.45133 14.8796C9.2088 14.8796 8.97691 14.8333 8.76373 14.7488C8.068 14.4746 7.57605 13.7962 7.57605 13.0019C7.57605 12.2077 8.068 11.5292 8.76373 11.2551C8.9826 11.1684 9.21592 11.124 9.45133 11.1243C10.487 11.1243 11.3265 11.9648 11.3265 13.0019Z" fill="white"/>
<path d="M11.3265 13.0019C11.3265 14.039 10.487 14.8796 9.45127 14.8796C9.20874 14.8796 8.97685 14.8333 8.76367 14.7488C9.45941 14.4746 9.95135 13.7962 9.95135 13.0019C9.95135 12.2077 9.45941 11.5292 8.76367 11.2551C8.98254 11.1684 9.21586 11.124 9.45127 11.1243C10.487 11.1243 11.3265 11.9648 11.3265 13.0019Z" fill="#DCECF4"/>
<path d="M17.89 13.0017C17.89 14.0388 17.0505 14.8793 16.0148 14.8793C15.7723 14.8793 15.5404 14.833 15.3272 14.7485C14.6315 14.4744 14.1395 13.7959 14.1395 13.0017C14.1395 12.2074 14.6315 11.529 15.3272 11.2548C15.5461 11.1681 15.7794 11.1238 16.0148 11.124C17.0505 11.124 17.89 11.9646 17.89 13.0017Z" fill="white"/>
<path d="M17.8901 13.0017C17.8901 14.0388 17.0506 14.8793 16.0149 14.8793C15.7723 14.8793 15.5404 14.833 15.3273 14.7485C16.023 14.4744 16.5149 13.7959 16.5149 13.0017C16.5149 12.2074 16.023 11.529 15.3273 11.2548C15.5461 11.1681 15.7795 11.1238 16.0149 11.124C17.0506 11.124 17.8901 11.9646 17.8901 13.0017Z" fill="#DCECF4"/>
<path d="M24.4534 13.0017C24.4534 14.0388 23.6139 14.8793 22.5782 14.8793C22.3356 14.8793 22.1037 14.833 21.8906 14.7485C21.1948 14.4744 20.7029 13.7959 20.7029 13.0017C20.7029 12.2074 21.1948 11.529 21.8906 11.2548C22.1094 11.1681 22.3427 11.1238 22.5782 11.124C23.6139 11.124 24.4534 11.9646 24.4534 13.0017Z" fill="white"/>
<path d="M24.4533 13.0017C24.4533 14.0388 23.6138 14.8793 22.5781 14.8793C22.3356 14.8793 22.1037 14.833 21.8905 14.7485C22.5862 14.4744 23.0782 13.7959 23.0782 13.0017C23.0782 12.2074 22.5862 11.529 21.8905 11.2548C22.1094 11.1681 22.3427 11.1238 22.5781 11.124C23.6138 11.124 24.4533 11.9646 24.4533 13.0017Z" fill="#DCECF4"/>
</svg>
