<svg width="16" height="16" viewBox="0 0 16 16" fill="none" xmlns="http://www.w3.org/2000/svg">
<g clip-path="url(#clip0_1323_21192)">
<path d="M10.8388 5.05732C10.6995 5.05732 10.5748 4.97065 10.5262 4.84065L10.3115 4.26532C10.1895 3.93998 9.93016 3.68332 9.59949 3.56198L9.01749 3.34932C8.88616 3.30132 8.79883 3.17598 8.79883 3.03598C8.79883 2.89598 8.88616 2.77132 9.01749 2.72265L9.59949 2.50998C9.93016 2.38865 10.1902 2.13265 10.3122 1.80598L10.5262 1.23132C10.5748 1.10065 10.6995 1.01465 10.8388 1.01465C10.9775 1.01465 11.1022 1.10065 11.1508 1.23132L11.3662 1.80598C11.4888 2.13265 11.7475 2.38865 12.0788 2.50998L12.6602 2.72265C12.7915 2.77065 12.8788 2.89598 12.8788 3.03598C12.8788 3.17598 12.7915 3.30065 12.6602 3.34932L12.0788 3.56198C11.7475 3.68332 11.4882 3.93932 11.3668 4.26532L11.1508 4.84065C11.1028 4.97065 10.9775 5.05732 10.8388 5.05732ZM10.0548 3.03665C10.3902 3.21198 10.6628 3.48332 10.8388 3.81598C11.0148 3.48332 11.2882 3.21198 11.6235 3.03665C11.2882 2.86132 11.0148 2.58998 10.8388 2.25732C10.6628 2.58998 10.3895 2.86198 10.0548 3.03732V3.03665Z" fill="#42A004"/>
<path d="M8.01541 15.3301C3.96341 15.3301 0.666748 12.0348 0.666748 7.98475C0.666748 4.17609 3.52341 1.03275 7.31275 0.672752C7.45541 0.652752 7.59341 0.740752 7.65075 0.874085C7.70741 1.00742 7.67141 1.16275 7.56141 1.25742C6.70941 1.98942 6.29541 3.21875 6.29541 5.01542C6.29541 8.34608 7.65475 9.70475 10.9867 9.70475C12.8267 9.70475 14.0207 9.30208 14.7447 8.43675C14.8387 8.32475 14.9934 8.28609 15.1287 8.34275C15.2634 8.39875 15.3461 8.53675 15.3327 8.68142C14.9754 12.4721 11.8301 15.3301 8.01608 15.3301H8.01541ZM6.48075 1.48208C3.49075 2.17542 1.33341 4.82875 1.33341 7.98475C1.33341 11.6674 4.33075 14.6634 8.01541 14.6634C11.1701 14.6634 13.8227 12.5128 14.5194 9.52942C13.6781 10.1008 12.5287 10.3714 10.9861 10.3714C8.49142 10.3714 5.62808 9.76275 5.62808 5.01542C5.62808 3.50142 5.90875 2.33542 6.48075 1.48208Z" fill="#42A004"/>
<path d="M12.5459 8.0415C12.822 8.0415 13.0459 7.81765 13.0459 7.5415C13.0459 7.26536 12.822 7.0415 12.5459 7.0415C12.2698 7.0415 12.0459 7.26536 12.0459 7.5415C12.0459 7.81765 12.2698 8.0415 12.5459 8.0415Z" fill="#42A004"/>
<path d="M9.38989 7.62744C9.66603 7.62744 9.88989 7.40358 9.88989 7.12744C9.88989 6.8513 9.66603 6.62744 9.38989 6.62744C9.11375 6.62744 8.88989 6.8513 8.88989 7.12744C8.88989 7.40358 9.11375 7.62744 9.38989 7.62744Z" fill="#42A004"/>
</g>
<defs>
<clipPath id="clip0_1323_21192">
<rect width="16" height="16" fill="white"/>
</clipPath>
</defs>
</svg>
