<svg width="16" height="16" viewBox="0 0 16 16" fill="none" xmlns="http://www.w3.org/2000/svg">
<g clip-path="url(#clip0_1311_19134)">
<path d="M-0.000258914 7.66667C-0.000258914 7.48267 0.149074 7.33333 0.333074 7.33333H3.10374C3.25974 7.33333 3.39441 7.226 3.42374 7.078C3.52374 6.57867 3.71107 6.11533 3.95441 5.69067L1.16574 4.06733C1.00641 3.97467 0.952408 3.77133 1.04507 3.61133C1.13774 3.45267 1.34174 3.39733 1.50107 3.49133L4.33241 5.13933C4.66774 4.71067 5.07174 4.34533 5.53174 4.05667L3.85041 1.16733C3.75774 1.00867 3.81174 0.804667 3.97107 0.711333C4.12907 0.618 4.33374 0.672667 4.42707 0.832667L6.12241 3.74733C6.60374 3.534 7.12307 3.40267 7.66707 3.36267V0.333333C7.66707 0.149333 7.81641 0 8.00041 0C8.18441 0 8.33374 0.149333 8.33374 0.333333V3.36267C8.88107 3.40267 9.40241 3.53533 9.88641 3.75067L11.5837 0.832667C11.6764 0.672 11.8804 0.619333 12.0397 0.711333C12.1991 0.804667 12.2531 1.008 12.1611 1.16733L10.4777 4.06267C10.9357 4.35133 11.3377 4.716 11.6717 5.144L14.5104 3.49133C14.6677 3.39867 14.8731 3.452 14.9664 3.612C15.0597 3.772 15.0057 3.97533 14.8464 4.06867L12.0491 5.69733C12.2911 6.12067 12.4771 6.582 12.5764 7.07933C12.6057 7.22733 12.7404 7.33467 12.8964 7.33467H15.6671C15.8511 7.33467 16.0004 7.484 16.0004 7.668C16.0004 7.852 15.8511 8.00133 15.6671 8.00133H12.8964C12.4237 8.00133 12.0144 7.66867 11.9224 7.21C11.5497 5.35067 9.90107 4.00133 8.00041 4.00133C6.09974 4.00133 4.45107 5.35067 4.07841 7.21067C3.98641 7.66867 3.57707 8.00133 3.10441 8.00133H0.333074C0.149074 8.00133 -0.000258914 7.852 -0.000258914 7.668V7.66667ZM15.4491 14.9027C15.1264 15.18 14.7084 15.3333 14.2724 15.3333C13.4937 15.3333 12.7291 14.8533 12.4937 14.2173C12.3971 13.9553 11.9651 13.9553 11.8684 14.2173C11.6331 14.8533 10.8691 15.3333 10.0904 15.3333C9.31174 15.3333 8.54707 14.8533 8.31174 14.2173C8.21507 13.9553 7.78307 13.9553 7.68641 14.2173C7.45107 14.8533 6.68641 15.3333 5.90841 15.3333C5.13041 15.3333 4.36507 14.8533 4.13041 14.218C4.08174 14.0873 3.95707 14 3.81774 14C3.67841 14 3.55374 14.0867 3.50507 14.2173C3.26974 14.8533 2.50507 15.3333 1.72707 15.3333C1.29107 15.3333 0.873074 15.1807 0.549741 14.9027C0.411074 14.7827 0.200408 14.7987 0.0797411 14.938C-0.0402589 15.078 -0.0242589 15.288 0.115741 15.408C0.559741 15.7893 1.13174 16 1.72707 16C2.55307 16 3.34974 15.604 3.81774 15.004C4.28641 15.604 5.08174 16 5.90841 16C6.73507 16 7.53107 15.604 7.99907 15.004C8.46774 15.604 9.26374 16 10.0904 16C10.9171 16 11.7124 15.604 12.1811 15.004C12.6497 15.604 13.4457 16 14.2724 16C14.8677 16 15.4397 15.79 15.8837 15.408C16.0231 15.288 16.0391 15.078 15.9191 14.938C15.7997 14.7987 15.5897 14.7833 15.4491 14.9027ZM15.4491 10.9027C15.1264 11.18 14.7084 11.3333 14.2724 11.3333C13.4937 11.3333 12.7291 10.8533 12.4937 10.2173C12.3971 9.95533 11.9651 9.95533 11.8684 10.2173C11.6331 10.8533 10.8691 11.3333 10.0904 11.3333C9.31174 11.3333 8.54707 10.8533 8.31174 10.2173C8.21507 9.95533 7.78307 9.95533 7.68641 10.2173C7.45107 10.8533 6.68641 11.3333 5.90841 11.3333C5.13041 11.3333 4.36507 10.8533 4.13041 10.218C4.08174 10.0873 3.95707 10 3.81774 10C3.67841 10 3.55374 10.0867 3.50507 10.2173C3.26974 10.8533 2.50507 11.3333 1.72707 11.3333C1.29107 11.3333 0.873074 11.1807 0.549741 10.9027C0.411074 10.7833 0.200408 10.798 0.0797411 10.938C-0.0402589 11.078 -0.0242589 11.288 0.115741 11.408C0.559741 11.7893 1.13174 12 1.72707 12C2.55307 12 3.34974 11.604 3.81774 11.004C4.28641 11.604 5.08174 12 5.90841 12C6.73507 12 7.53107 11.604 7.99907 11.004C8.46774 11.604 9.26374 12 10.0904 12C10.9171 12 11.7124 11.604 12.1811 11.004C12.6497 11.604 13.4457 12 14.2724 12C14.8677 12 15.4397 11.79 15.8837 11.408C16.0231 11.288 16.0391 11.078 15.9191 10.938C15.7997 10.7987 15.5897 10.784 15.4491 10.9027Z" fill="#42A004"/>
</g>
<defs>
<clipPath id="clip0_1311_19134">
<rect width="16" height="16" fill="white"/>
</clipPath>
</defs>
</svg>
