<svg width="24" height="24" viewBox="0 0 24 24" fill="none" xmlns="http://www.w3.org/2000/svg">
<path d="M11.9999 20.7274C15.5771 20.7274 18.4769 17.8276 18.4769 14.2504C18.4769 10.6733 15.5771 7.77344 11.9999 7.77344C8.4228 7.77344 5.52295 10.6733 5.52295 14.2504C5.52295 17.8276 8.4228 20.7274 11.9999 20.7274Z" fill="#FFC93C"/>
<path fill-rule="evenodd" clip-rule="evenodd" d="M2.52008 19.673C2.40145 19.7716 2.31612 19.9044 2.27571 20.0532C2.23529 20.2021 2.24177 20.3598 2.29425 20.5049C2.34673 20.6499 2.44266 20.7753 2.56897 20.8638C2.69528 20.9524 2.84582 20.9998 3.00008 20.9997H21.0001C21.1542 20.9996 21.3045 20.9521 21.4306 20.8636C21.5567 20.7751 21.6525 20.6499 21.705 20.505C21.7574 20.3601 21.764 20.2026 21.7237 20.0539C21.6835 19.9051 21.5984 19.7724 21.4801 19.6737C18.3233 17.0412 15.1568 15.7505 12.0001 15.752C8.84333 15.7527 5.67683 17.0465 2.52008 19.673Z" fill="#82CD47"/>
<path fill-rule="evenodd" clip-rule="evenodd" d="M22.5 13.5H20.5912C20.3923 13.5 20.2016 13.579 20.0609 13.7197C19.9203 13.8603 19.8412 14.0511 19.8412 14.25C19.8412 14.4489 19.9203 14.6397 20.0609 14.7803C20.2016 14.921 20.3923 15 20.5912 15H22.5C22.6989 15 22.8897 14.921 23.0303 14.7803C23.171 14.6397 23.25 14.4489 23.25 14.25C23.25 14.0511 23.171 13.8603 23.0303 13.7197C22.8897 13.579 22.6989 13.5 22.5 13.5ZM3.40875 13.5H1.5C1.30109 13.5 1.11032 13.579 0.96967 13.7197C0.829018 13.8603 0.75 14.0511 0.75 14.25C0.75 14.4489 0.829018 14.6397 0.96967 14.7803C1.11032 14.921 1.30109 15 1.5 15H3.40875C3.60766 15 3.79843 14.921 3.93908 14.7803C4.07973 14.6397 4.15875 14.4489 4.15875 14.25C4.15875 14.0511 4.07973 13.8603 3.93908 13.7197C3.79843 13.579 3.60766 13.5 3.40875 13.5ZM2.532 9.6495L4.185 10.6042C4.35717 10.7021 4.56107 10.728 4.7522 10.6761C4.94333 10.6242 5.10618 10.4988 5.20521 10.3273C5.30423 10.1558 5.3314 9.95203 5.28078 9.76056C5.23016 9.56909 5.10585 9.40541 4.935 9.30525L3.282 8.3505C3.10983 8.25261 2.90593 8.2268 2.7148 8.27869C2.52367 8.33058 2.36082 8.45596 2.26179 8.62748C2.16277 8.79899 2.1356 9.00272 2.18622 9.19419C2.23684 9.38566 2.36115 9.54934 2.532 9.6495ZM20.718 8.3505L19.065 9.30525C18.8941 9.40541 18.7698 9.56909 18.7192 9.76056C18.6686 9.95203 18.6958 10.1558 18.7948 10.3273C18.8938 10.4988 19.0567 10.6242 19.2478 10.6761C19.4389 10.728 19.6428 10.7021 19.815 10.6042L21.468 9.6495C21.6389 9.54934 21.7632 9.38566 21.8138 9.19419C21.8644 9.00272 21.8372 8.79899 21.7382 8.62748C21.6392 8.45596 21.4763 8.33058 21.2852 8.27869C21.0941 8.2268 20.8902 8.25261 20.718 8.3505ZM6.1005 5.532L7.05525 7.185C7.15541 7.35585 7.31909 7.48016 7.51056 7.53078C7.70203 7.5814 7.90576 7.55423 8.07727 7.45521C8.24879 7.35618 8.37417 7.19333 8.42606 7.0022C8.47795 6.81107 8.45214 6.60717 8.35425 6.435L7.3995 4.782C7.29934 4.61115 7.13566 4.48684 6.94419 4.43622C6.75272 4.3856 6.54899 4.41277 6.37748 4.51179C6.20596 4.61082 6.08058 4.77367 6.02869 4.9648C5.9768 5.15593 6.00261 5.35983 6.1005 5.532ZM16.6005 4.782L15.6458 6.435C15.5479 6.60717 15.522 6.81107 15.5739 7.0022C15.6258 7.19333 15.7512 7.35618 15.9227 7.45521C16.0942 7.55423 16.298 7.5814 16.4894 7.53078C16.6809 7.48016 16.8446 7.35585 16.9447 7.185L17.8995 5.532C17.9974 5.35983 18.0232 5.15593 17.9713 4.9648C17.9194 4.77367 17.794 4.61082 17.6225 4.51179C17.451 4.41277 17.2473 4.3856 17.0558 4.43622C16.8643 4.48684 16.7007 4.61115 16.6005 4.782ZM11.25 3.75V5.65875C11.25 5.85766 11.329 6.04843 11.4697 6.18908C11.6103 6.32973 11.8011 6.40875 12 6.40875C12.1989 6.40875 12.3897 6.32973 12.5303 6.18908C12.671 6.04843 12.75 5.85766 12.75 5.65875V3.75C12.75 3.55109 12.671 3.36032 12.5303 3.21967C12.3897 3.07902 12.1989 3 12 3C11.8011 3 11.6103 3.07902 11.4697 3.21967C11.329 3.36032 11.25 3.55109 11.25 3.75Z" fill="#FEDD87"/>
</svg>
