<svg width="24" height="25" viewBox="0 0 24 25" fill="none" xmlns="http://www.w3.org/2000/svg">
<path d="M9.47424 13.6872C9.47424 14.2532 9.89237 14.7164 10.4036 14.7164C10.4941 14.7164 10.5818 14.702 10.6647 14.6749C10.3396 13.954 10.7555 12.9341 12 12.9341H13.1913V11.0947C13.1913 10.5286 12.7732 10.0654 12.262 10.0654C11.7509 10.0654 11.3328 10.5286 11.3328 11.0947V13.0537V11.6474C11.3328 11.0813 10.9147 10.6181 10.4036 10.6181C9.89237 10.6181 9.47424 11.0813 9.47424 11.6474V12.3361V13.6872Z" fill="#FFCEBF"/>
<path d="M14.3351 12.9338C14.5898 12.9338 14.8299 12.9549 15.0498 13.0067L15.0498 11.3994C15.0498 10.8332 14.6317 10.3701 14.1205 10.3701C13.6094 10.3701 13.1912 10.8332 13.1912 11.3993V12.9338L14.3351 12.9338ZM8.54485 14.7159C9.05602 14.7159 9.47415 14.2528 9.47415 13.6868V12.3357C9.47415 11.7695 9.05602 11.3064 8.54485 11.3064C8.03373 11.3064 7.6156 11.7695 7.6156 12.3357V13.6868C7.61565 14.2528 8.03377 14.7159 8.54485 14.7159Z" fill="#FFCEBF"/>
<path d="M15.0498 13.0076C14.8299 12.9558 14.5898 12.9346 14.3351 12.9346H13.1912H11.9999C10.7554 12.9346 10.3396 13.9545 10.6646 14.6754C10.8423 15.0695 11.2411 15.3744 11.8476 15.3744H14.1734H13.5631H11.8476C11.2411 15.3744 10.8423 15.0695 10.6646 14.6754C10.5803 14.7029 10.4922 14.7169 10.4035 14.7168C9.89227 14.7168 9.47415 14.2536 9.47415 13.6876C9.47415 14.2536 9.05602 14.7168 8.54485 14.7168C8.03373 14.7168 7.6156 14.2536 7.6156 13.6876V15.26C7.6156 18.3479 9.36919 18.7672 9.36919 18.7672V21.9247H14.6306V18.7672C14.6306 18.7672 16.3842 18.3479 16.3842 15.26C16.3842 13.7915 15.8497 13.1961 15.0498 13.0076Z" fill="#FFCEBF"/>
<path d="M8.71316 24.215C8.39928 24.215 8.14246 23.9582 8.14246 23.6443V21.5981C8.14246 21.2842 8.39928 21.0273 8.71316 21.0273H15.2869C15.6008 21.0273 15.8576 21.2842 15.8576 21.5981V23.6443C15.8576 23.9582 15.6008 24.215 15.2869 24.215H8.71316Z" fill="#01D0FB"/>
<path d="M14.134 23.3443C14.5332 23.3443 14.8569 23.0207 14.8569 22.6214C14.8569 22.2221 14.5332 21.8984 14.134 21.8984C13.7347 21.8984 13.411 22.2221 13.411 22.6214C13.411 23.0207 13.7347 23.3443 14.134 23.3443Z" fill="#3A313A"/>
<path d="M12 0.214844L13.0574 2.668L15.7173 2.91559L13.7109 4.67931L14.2974 7.28547L12 5.9223L9.70258 7.28547L10.2891 4.67931L8.28269 2.91559L10.9426 2.668L12 0.214844ZM17.0991 9.22736C16.8587 9.51934 16.4271 9.56116 16.1351 9.32069L16.1058 9.2965C15.8137 9.05603 15.7719 8.62445 16.0123 8.33247L18.4733 5.34363C18.7137 5.05164 19.1454 5.00983 19.4374 5.2503L19.4667 5.27444C19.7588 5.51486 19.8006 5.94653 19.5601 6.23852L17.0991 9.22736ZM19.1588 13.4468C18.7894 13.5282 18.424 13.2948 18.3425 12.9254L18.3343 12.8883C18.2529 12.5188 18.4863 12.1534 18.8557 12.0719L22.6365 11.2384C23.0059 11.157 23.3713 11.3903 23.4528 11.7598L23.461 11.7969C23.5425 12.1663 23.309 12.5318 22.9397 12.6131L19.1588 13.4468ZM6.90081 9.22736C7.14123 9.51934 7.57281 9.56116 7.86484 9.32069L7.89419 9.2965C8.18622 9.05603 8.22803 8.62445 7.98761 8.33247L5.52663 5.34363C5.2862 5.05164 4.85458 5.00983 4.56255 5.2503L4.5332 5.27444C4.24117 5.51486 4.19936 5.94653 4.43983 6.23852L6.90081 9.22736ZM4.84113 13.4468C5.2105 13.5282 5.57598 13.2948 5.65741 12.9254L5.66561 12.8883C5.74708 12.5188 5.51369 12.1534 5.14427 12.0719L1.36342 11.2384C0.994047 11.157 0.628609 11.3903 0.547093 11.7598L0.538937 11.7969C0.457422 12.1663 0.690906 12.5318 1.06028 12.6131L4.84113 13.4468Z" fill="#FFD15B"/>
<path d="M11.9994 10.8566C11.9994 10.5253 12.224 10.2559 12.5001 10.2559C12.7762 10.2559 13.0008 10.5253 13.0008 10.8566V12.2674H12.2381C12.1573 12.2674 12.0776 12.2711 11.9994 12.2786V10.8566ZM10.3679 13.9517C10.2313 13.8443 10.1409 13.6591 10.1409 13.4489V11.4092C10.1409 11.078 10.3655 10.8086 10.6417 10.8086C10.9178 10.8086 11.1423 11.078 11.1423 11.4092V12.5535C11.0373 12.618 10.9398 12.694 10.8517 12.7801C10.5397 13.0857 10.3679 13.4977 10.3679 13.9398V13.9517ZM14.8594 12.2763C14.7642 12.2702 14.6687 12.2673 14.5733 12.2674H13.8579V11.1615C13.8579 10.8304 14.0826 10.5609 14.3587 10.5609C14.6348 10.5609 14.8594 10.8304 14.8594 11.1616L14.8594 12.2763ZM8.78302 14.0496C8.50693 14.0496 8.28235 13.7802 8.28235 13.449V12.098C8.28235 11.7667 8.50697 11.4973 8.78302 11.4973C9.05907 11.4973 9.28374 11.7667 9.28374 12.098V13.449C9.28374 13.7802 9.05911 14.0496 8.78302 14.0496Z" fill="#FFDFCF"/>
<path d="M10.0359 20.3601V18.5282C10.0358 18.4326 10.0038 18.3398 9.94501 18.2645C9.88619 18.1891 9.8039 18.1356 9.71119 18.1124C9.71058 18.1122 9.37046 18.0146 9.03357 17.6282C8.54208 17.0647 8.28235 16.1631 8.28235 15.0211V14.8035C8.44057 14.8712 8.61089 14.9062 8.78302 14.9064C9.1328 14.9064 9.46322 14.7627 9.71232 14.5112C9.96141 14.7627 10.2919 14.9064 10.6417 14.9064C10.6562 14.9064 10.6702 14.9061 10.6838 14.9056C10.9911 15.3212 11.4853 15.5585 12.0657 15.5638C11.7402 15.9875 11.4666 16.6434 11.4666 17.6513C11.4666 17.8876 11.6589 18.0799 11.8952 18.0799C12.1315 18.0799 12.3238 17.8876 12.3238 17.6513C12.3238 15.7145 13.4547 15.5639 13.8013 15.5639H14.4116C14.6479 15.5639 14.8402 15.3717 14.8402 15.1353C14.8402 14.899 14.6479 14.7068 14.4116 14.7068H12.0859C11.4912 14.7068 11.2251 14.3213 11.2251 13.9394C11.2251 13.7295 11.3055 13.535 11.4516 13.3919C11.6304 13.2166 11.9024 13.124 12.2381 13.124H14.5733C14.8121 13.124 15.0137 13.1442 15.1898 13.1857C15.5157 13.2624 16.1938 13.4222 16.1938 15.0209C16.1938 16.163 15.934 17.0646 15.4426 17.6281C15.117 18.0015 14.7883 18.1053 14.7644 18.1124C14.6716 18.1354 14.5893 18.1889 14.5305 18.2642C14.4717 18.3396 14.44 18.4325 14.4403 18.5281V20.3599H10.0359V20.3601Z" fill="#FFDFCF"/>
<path d="M8.95125 23.5483C8.91356 23.5482 8.87742 23.5333 8.85077 23.5066C8.82411 23.48 8.80912 23.4438 8.80908 23.4061V21.3599C8.80912 21.3222 8.82411 21.2861 8.85077 21.2594C8.87742 21.2328 8.91356 21.2178 8.95125 21.2178H15.525C15.5626 21.2178 15.5988 21.2328 15.6254 21.2594C15.6521 21.2861 15.6671 21.3222 15.6671 21.3599V23.4061C15.6671 23.4438 15.6521 23.48 15.6254 23.5066C15.5988 23.5333 15.5626 23.5482 15.525 23.5483H8.95125ZM14.3721 21.2316C13.7371 21.2316 13.2205 21.7481 13.2205 22.383C13.2205 23.0179 13.7371 23.5345 14.3721 23.5345C15.007 23.5345 15.5236 23.0179 15.5236 22.383C15.5236 21.7481 15.007 21.2316 14.3721 21.2316Z" fill="#62DBFB"/>
<path d="M14.3721 22.6775C14.294 22.6774 14.2192 22.6464 14.164 22.5912C14.1088 22.536 14.0777 22.4612 14.0776 22.3832C14.0777 22.3051 14.1088 22.2303 14.164 22.1751C14.2192 22.12 14.294 22.0889 14.3721 22.0889C14.4501 22.0889 14.5249 22.12 14.5801 22.1752C14.6353 22.2303 14.6663 22.3052 14.6664 22.3832C14.6663 22.4612 14.6353 22.536 14.5801 22.5912C14.5249 22.6464 14.4501 22.6774 14.3721 22.6775Z" fill="#685E68"/>
<path d="M10.9453 4.53535C10.9622 4.46027 10.9586 4.38203 10.9349 4.30883C10.9111 4.23563 10.868 4.17019 10.8102 4.11938L9.55056 3.0121L11.2204 2.85671C11.2971 2.8496 11.3704 2.82198 11.4326 2.77674C11.4949 2.73151 11.5438 2.67033 11.5742 2.59965L12.2381 1.05957L12.9019 2.59965C12.9323 2.67033 12.9813 2.7315 13.0435 2.77674C13.1058 2.82197 13.1791 2.8496 13.2557 2.85671L14.9256 3.0121L13.6659 4.11934C13.6081 4.17015 13.5651 4.2356 13.5413 4.3088C13.5175 4.38201 13.5139 4.46026 13.5308 4.53535L13.899 6.17148L12.4567 5.31573C12.3905 5.27644 12.315 5.25571 12.238 5.25572C12.161 5.25572 12.0855 5.27647 12.0193 5.31577L10.5771 6.17148L10.9453 4.53535ZM16.8082 8.8103C16.7488 8.81079 16.6912 8.79006 16.6457 8.75185L16.6163 8.72762C16.5902 8.70628 16.5687 8.67998 16.5528 8.65025C16.537 8.62052 16.5272 8.58795 16.5241 8.55441C16.5207 8.52091 16.5241 8.48708 16.5339 8.45488C16.5438 8.42268 16.5599 8.39275 16.5814 8.36682L19.0424 5.37802C19.0664 5.34873 19.0967 5.32516 19.131 5.309C19.1653 5.29284 19.2027 5.28451 19.2406 5.2846C19.3001 5.28414 19.3577 5.3049 19.4033 5.34315L19.4326 5.36734C19.4587 5.38867 19.4802 5.41494 19.496 5.44465C19.5118 5.47435 19.5216 5.5069 19.5247 5.5404C19.528 5.57391 19.5247 5.60775 19.5149 5.63996C19.505 5.67216 19.4889 5.7021 19.4674 5.72804L17.0064 8.71688C16.9824 8.74617 16.9521 8.76974 16.9178 8.7859C16.8835 8.80206 16.8461 8.81039 16.8082 8.8103ZM19.2488 12.7964C19.1299 12.7964 19.025 12.7117 18.9992 12.5951L18.9911 12.5579C18.9765 12.4915 18.9889 12.4221 19.0255 12.3648C19.0621 12.3076 19.1198 12.2671 19.1862 12.2524L22.967 11.4189C22.9854 11.4148 23.0041 11.4128 23.0229 11.4127C23.1418 11.4127 23.2468 11.4973 23.2725 11.6139L23.2806 11.651C23.2954 11.718 23.2832 11.7866 23.2464 11.8442C23.2096 11.9019 23.1525 11.9418 23.0856 11.9566L19.3047 12.7901C19.2863 12.7943 19.2676 12.7964 19.2488 12.7964ZM7.6681 8.8103C7.63019 8.81039 7.59273 8.80205 7.55843 8.7859C7.52414 8.76974 7.49385 8.74617 7.46977 8.71688L5.00879 5.72804C4.98731 5.7021 4.97119 5.67216 4.96136 5.63996C4.95153 5.60775 4.94818 5.57391 4.95151 5.5404C4.95466 5.50688 4.96443 5.47433 4.98025 5.44461C4.99606 5.4149 5.01762 5.38862 5.04367 5.36729L5.07301 5.34315C5.11851 5.3049 5.17617 5.28414 5.23562 5.2846C5.31273 5.2846 5.38501 5.31863 5.43385 5.37802L7.89484 8.36682C7.91631 8.39276 7.93243 8.4227 7.94226 8.45491C7.95209 8.48712 7.95544 8.52095 7.95212 8.55446C7.94895 8.58799 7.93916 8.62056 7.92332 8.65029C7.90748 8.68001 7.88589 8.70629 7.85982 8.72762L7.83043 8.75185C7.78501 8.79005 7.72745 8.81078 7.6681 8.8103ZM5.22742 12.7964C5.20885 12.7964 5.19015 12.7943 5.17163 12.7902L1.39065 11.9566C1.35776 11.9495 1.32661 11.9359 1.29901 11.9166C1.27141 11.8973 1.24791 11.8728 1.22987 11.8443C1.21165 11.816 1.19924 11.7843 1.19336 11.7512C1.18748 11.718 1.18824 11.684 1.1956 11.6511L1.20381 11.6139C1.22949 11.4975 1.33449 11.4128 1.45342 11.4128C1.47193 11.4128 1.49073 11.4148 1.50924 11.4189L5.29009 12.2525C5.35643 12.2672 5.41423 12.3076 5.4508 12.3649C5.48738 12.4221 5.49974 12.4916 5.48518 12.558L5.47698 12.5951C5.45124 12.7118 5.34634 12.7964 5.22742 12.7964Z" fill="#FEE45A"/>
</svg>
