<svg width="32" height="32" viewBox="0 0 32 32" fill="none" xmlns="http://www.w3.org/2000/svg">
<circle cx="16" cy="16" r="16" fill="#D9ECCD"/>
<g clip-path="url(#clip0_2013_42828)">
<path d="M15.9996 12.6667C17.2862 12.6667 18.3329 11.62 18.3329 10.3333C18.3329 9.04667 17.2862 8 15.9996 8C14.7129 8 13.6662 9.04667 13.6662 10.3333C13.6662 11.62 14.7129 12.6667 15.9996 12.6667ZM15.9996 8.66667C16.9189 8.66667 17.6662 9.41467 17.6662 10.3333C17.6662 11.252 16.9189 12 15.9996 12C15.0802 12 14.3329 11.252 14.3329 10.3333C14.3329 9.41467 15.0809 8.66667 15.9996 8.66667ZM12.6682 16.296C12.8596 14.6067 14.2916 13.3333 15.9996 13.3333C17.7076 13.3333 19.1389 14.6067 19.3309 16.296C19.3516 16.4787 19.2202 16.644 19.0376 16.6647C19.0242 16.666 19.0122 16.6667 18.9989 16.6667C18.8316 16.6667 18.6876 16.5413 18.6682 16.3707C18.5156 15.0193 17.3676 14 15.9996 14C14.6316 14 13.4842 15.0193 13.3309 16.3707C13.3102 16.5533 13.1469 16.686 12.9622 16.664C12.7796 16.6433 12.6476 16.4787 12.6689 16.2953L12.6682 16.296ZM17.9442 20.0787H17.0122L16.6769 19.1373C16.5729 18.8553 16.3009 18.666 15.9996 18.666C15.6982 18.666 15.4269 18.8553 15.3209 19.1407L14.9869 20.078H14.0549C13.7529 20.078 13.4809 20.268 13.3769 20.55C13.2722 20.8327 13.3569 21.1547 13.5929 21.3547L14.3389 21.962L14.0442 22.848C13.9522 23.14 14.0556 23.4593 14.3009 23.6433C14.4269 23.7373 14.5769 23.7867 14.7336 23.7867C14.8769 23.7867 15.0156 23.7447 15.1356 23.6647L16.0056 23.082L16.8929 23.6593C17.1496 23.8267 17.4836 23.812 17.7269 23.6267C17.9702 23.44 18.0696 23.1187 17.9702 22.8213L17.6669 21.9567L18.4096 21.352C18.6409 21.1573 18.7269 20.836 18.6229 20.552C18.5189 20.268 18.2469 20.0773 17.9442 20.0773V20.0787ZM17.0642 21.5893C16.9549 21.678 16.9129 21.8253 16.9602 21.958L17.3409 23.0433L17.2556 23.102L16.1849 22.4047C16.0729 22.3313 15.9289 22.3327 15.8176 22.4067L14.7649 23.1113C14.7529 23.1193 14.7416 23.1207 14.7336 23.1207L14.6789 23.0533L15.0449 21.954C15.0882 21.8227 15.0462 21.6773 14.9389 21.5907L14.0142 20.8387L14.0556 20.7453H15.2222C15.3629 20.7453 15.4889 20.6567 15.5362 20.524L15.9496 19.3653H16.0496L16.4629 20.524C16.5102 20.6567 16.6362 20.7453 16.7769 20.7453H17.9442L17.9842 20.84L17.0642 21.5893ZM23.9562 18.5533C23.8529 18.2693 23.5802 18.0787 23.2776 18.0787H22.3456L22.0102 17.1367C21.9056 16.8553 21.6336 16.666 21.3329 16.666C21.0322 16.666 20.7609 16.8553 20.6542 17.1407L20.3202 18.078H19.3882C19.0869 18.078 18.8142 18.268 18.7109 18.55C18.6062 18.8327 18.6909 19.1547 18.9262 19.3547L19.6722 19.962L19.3776 20.848C19.2856 21.14 19.3889 21.4593 19.6342 21.6433C19.7589 21.736 19.9122 21.7867 20.0662 21.7867C20.2089 21.7867 20.3476 21.7447 20.4682 21.6647L21.3389 21.082L22.2256 21.6593C22.4822 21.8267 22.8162 21.812 23.0596 21.6267C23.3029 21.44 23.4022 21.1187 23.3029 20.8213L22.9996 19.9567L23.7422 19.352C23.9736 19.1573 24.0596 18.836 23.9556 18.552L23.9562 18.5533ZM22.3976 19.5893C22.2882 19.678 22.2462 19.8253 22.2936 19.958L22.6742 21.0433L22.5889 21.102L21.5182 20.4047C21.4069 20.332 21.2622 20.3333 21.1509 20.4067L20.0989 21.1113C20.0889 21.118 20.0789 21.1213 20.0669 21.1213L20.0122 21.054L20.3782 19.9547C20.4216 19.8233 20.3796 19.678 20.2722 19.5913L19.3476 18.8393L19.3889 18.746H20.5562C20.6976 18.746 20.8229 18.6573 20.8702 18.5247L21.2829 17.366H21.3842L21.7969 18.5247C21.8436 18.6573 21.9696 18.746 22.1109 18.746H23.2782L23.3182 18.8407L22.3982 19.5907L22.3976 19.5893ZM12.6109 18.0787H11.6789L11.3436 17.1373C11.2396 16.8553 10.9676 16.666 10.6669 16.666C10.3662 16.666 10.0942 16.8553 9.98823 17.1407L9.65423 18.078H8.72223C8.42023 18.078 8.14823 18.268 8.04423 18.55C7.93957 18.8327 8.02423 19.1547 8.26023 19.3547L9.00623 19.962L8.71157 20.848C8.61957 21.14 8.7229 21.4593 8.96823 21.6433C9.09423 21.7373 9.24423 21.7867 9.4009 21.7867C9.54423 21.7867 9.6829 21.7447 9.8029 21.6647L10.6729 21.082L11.5596 21.66C11.8162 21.8267 12.1516 21.8133 12.3942 21.6267C12.6369 21.4393 12.7356 21.118 12.6369 20.822L12.3336 19.958L13.0762 19.3527C13.3076 19.158 13.3936 18.8367 13.2896 18.5527C13.1856 18.2687 12.9136 18.078 12.6109 18.078V18.0787ZM11.7309 19.5893C11.6222 19.678 11.5802 19.8253 11.6269 19.958L12.0076 21.0433L11.9229 21.102L10.8522 20.4047C10.7402 20.3313 10.5956 20.3333 10.4849 20.4067L9.43223 21.1113C9.42023 21.1193 9.4089 21.1207 9.4009 21.1207L9.34623 21.0533L9.71223 19.954C9.75557 19.8227 9.71357 19.6773 9.60623 19.5907L8.68157 18.8387L8.7229 18.7453H9.88957C10.0302 18.7453 10.1562 18.6567 10.2036 18.524L10.6169 17.3653H10.7169L11.1302 18.524C11.1776 18.6567 11.3036 18.7453 11.4442 18.7453H12.6109L12.6509 18.84L11.7309 19.5893Z" fill="#338000"/>
</g>
<defs>
<clipPath id="clip0_2013_42828">
<rect width="16" height="16" fill="white" transform="translate(8 8)"/>
</clipPath>
</defs>
</svg>
