<svg width="23" height="13" viewBox="0 0 23 13" fill="none" xmlns="http://www.w3.org/2000/svg">
<path d="M21.5539 8.47581L17.9493 12.1177C17.8627 12.205 17.7597 12.2743 17.6462 12.3216C17.5327 12.3689 17.4109 12.3932 17.288 12.3932C17.165 12.3932 17.0432 12.3689 16.9297 12.3216C16.8162 12.2743 16.7132 12.205 16.6266 12.1177C16.5393 12.0311 16.47 11.9281 16.4228 11.8146C16.3755 11.7011 16.3511 11.5793 16.3511 11.4564C16.3511 11.3334 16.3755 11.2117 16.4228 11.0982C16.47 10.9847 16.5393 10.8817 16.6266 10.7951L19.9425 7.46055H0.950695C0.703665 7.46055 0.466751 7.36242 0.292074 7.18775C0.117397 7.01307 0.0192661 6.77616 0.0192661 6.52913C0.0192661 6.2821 0.117397 6.04518 0.292074 5.87051C0.466751 5.69583 0.703665 5.5977 0.950695 5.5977H19.9984L16.6266 2.22593C16.4615 2.0527 16.3694 1.82256 16.3694 1.58324C16.3694 1.34392 16.4615 1.11378 16.6266 0.940554C16.7132 0.853253 16.8162 0.78396 16.9297 0.736672C17.0432 0.689385 17.165 0.665039 17.288 0.665039C17.4109 0.665039 17.5327 0.689385 17.6462 0.736672C17.7597 0.78396 17.8627 0.853253 17.9493 0.940554L21.5539 4.52655C22.0772 5.05048 22.3711 5.76069 22.3711 6.50118C22.3711 7.24167 22.0772 7.95188 21.5539 8.47581Z" fill="#42A004"/>
</svg>
