<svg width="32" height="32" viewBox="0 0 32 32" fill="none" xmlns="http://www.w3.org/2000/svg">
<g clip-path="url(#clip0_714_24547)">
<path d="M16 32C24.8366 32 32 24.8366 32 16C32 7.16344 24.8366 0 16 0C7.16344 0 0 7.16344 0 16C0 24.8366 7.16344 32 16 32Z" fill="#00337A"/>
<path d="M31.8511 18.1812L24.4038 10.7339L24.1949 12.2522L17.6885 5.74573L17.2806 7.50392L13.9962 4.21948C5.65302 9.34917 7.96759 23.7392 7.96759 23.7392L16.3718 31.9953C24.3005 31.8143 30.8034 25.8658 31.8511 18.1812Z" fill="#002659"/>
<path d="M11.0744 11.1612C11.0744 8.44067 12.194 5.98204 13.997 4.21948C8.67941 5.29436 4.67578 9.99342 4.67578 15.6279C4.67578 22.0564 9.88703 27.2676 16.3155 27.2676C16.7803 27.2676 17.2387 27.2398 17.6892 27.1868L20.7262 23.4562L17.6892 20.3655C13.8443 19.0741 11.0744 15.4412 11.0744 11.1612Z" fill="#FFEF4A"/>
<path d="M27.7232 17.9464C25.9606 19.7494 23.5019 20.869 20.7814 20.869C19.7 20.869 18.66 20.6919 17.6885 20.3656V27.1868C22.6997 26.5975 26.737 22.8252 27.7232 17.9464Z" fill="#FFD321"/>
<path d="M14.3027 9.1321L16.5417 10.2796L17.6892 12.5185L18.846 9.1321L17.6892 5.74573L16.5417 7.98466L14.3027 9.1321Z" fill="#FFEF4A"/>
<path d="M18.836 10.2796L21.0749 9.1321L18.836 7.98466L17.6885 5.74573V12.5185L18.836 10.2796ZM24.4039 10.7339L25.4331 12.7422L27.4414 13.7715L25.4331 14.8009L24.4039 16.8092L23.3745 14.8009L21.3662 13.7715L23.3745 12.7422L24.4039 10.7339Z" fill="#FFD321"/>
</g>
<defs>
<clipPath id="clip0_714_24547">
<rect width="32" height="32" fill="white"/>
</clipPath>
</defs>
</svg>
