<svg width="16" height="16" viewBox="0 0 16 16" fill="none" xmlns="http://www.w3.org/2000/svg">
<g clip-path="url(#clip0_1323_21189)">
<path d="M-6.11991e-05 6.33327C-6.11991e-05 6.14927 0.149272 5.99994 0.333272 5.99994H2.01661C2.08594 5.10794 2.43994 4.24461 3.05527 3.52661L1.76394 2.23527C1.63394 2.10527 1.63394 1.89394 1.76394 1.76394C1.89394 1.63394 2.10527 1.63394 2.23527 1.76394L3.52661 3.05527C4.24394 2.43994 5.10794 2.08594 5.99994 2.01661V0.333272C5.99994 0.149272 6.14927 -6.12065e-05 6.33327 -6.12065e-05C6.51727 -6.12065e-05 6.66661 0.149272 6.66661 0.333272V2.02194C7.51527 2.08727 8.35127 2.38994 9.05927 2.96461C9.11261 3.00661 9.19994 2.99527 9.25594 2.93927L10.4313 1.76394C10.5613 1.63394 10.7726 1.63394 10.9026 1.76394C11.0326 1.89394 11.0326 2.10527 10.9026 2.23527L9.72727 3.41061C9.42594 3.71061 8.95927 3.74194 8.63927 3.48194C7.17794 2.29727 5.07194 2.40861 3.74061 3.74061C2.40861 5.07261 2.29794 7.17861 3.48194 8.63994C3.74194 8.95927 3.71127 9.42727 3.41061 9.72727L2.23527 10.9026C2.16994 10.9679 2.08461 10.9999 1.99927 10.9999C1.91394 10.9999 1.82861 10.9673 1.76327 10.9026C1.63327 10.7726 1.63327 10.5613 1.76327 10.4313L2.93861 9.25594C2.99461 9.19994 3.00594 9.11194 2.96394 9.05994C2.38994 8.35194 2.08727 7.51527 2.02194 6.6666H0.333272C0.149272 6.6666 -6.11991e-05 6.51727 -6.11991e-05 6.33327ZM15.9693 0.0306055C15.8393 -0.0993945 15.6279 -0.0993945 15.4979 0.0306055L0.0306055 15.4973C-0.0993945 15.6273 -0.0993945 15.8386 0.0306055 15.9686C0.0959388 16.0339 0.181272 16.0659 0.266605 16.0659C0.351939 16.0659 0.437272 16.0333 0.502605 15.9686L15.9693 0.501939C16.0993 0.371939 16.0993 0.160605 15.9693 0.0306055ZM15.5959 14.1026C14.3539 13.4746 13.5819 12.2219 13.5819 10.8333C13.5819 9.4446 14.3533 8.19194 15.5953 7.56394C15.8439 7.4386 15.9979 7.18394 15.9993 6.90061C15.9999 6.61861 15.8479 6.36394 15.6013 6.23727C14.5739 5.70794 13.4193 5.54127 12.2599 5.75994C12.0793 5.79394 11.9599 5.96794 11.9939 6.1486C12.0279 6.32994 12.2033 6.44994 12.3826 6.41461C13.3939 6.22527 14.4006 6.36861 15.2959 6.82994C15.3273 6.84661 15.3326 6.87994 15.3326 6.8986C15.3326 6.91794 15.3273 6.95261 15.2939 6.96927C13.8266 7.71194 12.9153 9.19194 12.9153 10.8333C12.9153 12.4746 13.8273 13.9559 15.2946 14.6979C15.3279 14.7146 15.3333 14.7493 15.3333 14.7679C15.3333 14.7866 15.3286 14.8199 15.2973 14.8366C14.6579 15.1659 13.9686 15.3333 13.2486 15.3333C10.7659 15.3333 8.71061 13.3866 8.66661 10.9939C8.66261 10.7706 8.67527 10.5439 8.70327 10.3193C8.72661 10.1373 8.59727 9.9706 8.41461 9.9466C8.23527 9.92394 8.06527 10.0526 8.04194 10.2359C8.00994 10.4919 7.99527 10.7499 7.99994 11.0053C8.05061 13.7593 10.4046 15.9993 13.2486 15.9993C14.0766 15.9993 14.8686 15.8073 15.6033 15.4286C15.8493 15.3019 16.0013 15.0473 15.9999 14.7653C15.9986 14.4813 15.8439 14.2279 15.5959 14.1026Z" fill="#42A004"/>
</g>
<defs>
<clipPath id="clip0_1323_21189">
<rect width="16" height="16" fill="white"/>
</clipPath>
</defs>
</svg>
