<svg width="32" height="32" viewBox="0 0 32 32" fill="none" xmlns="http://www.w3.org/2000/svg">
<g clip-path="url(#clip0_727_15338)">
<path d="M16 32C24.8366 32 32 24.8366 32 16C32 7.16344 24.8366 0 16 0C7.16344 0 0 7.16344 0 16C0 24.8366 7.16344 32 16 32Z" fill="#EE4C68"/>
<path d="M26.5748 24.8V19.675C26.1748 18.65 25.7748 18.45 25.7748 18.45C25.2748 17.75 20.1498 15.875 20.1498 15.875L19.6498 16.1L19.5498 16.45L18.6248 19.675H13.3748L12.4498 16.45L12.3498 16.1L11.8498 15.875C11.8498 15.875 6.7248 17.75 6.2248 18.45C6.2248 18.45 5.8248 18.65 5.4248 19.675V24.8H26.5748Z" fill="#353944"/>
<path d="M19.0748 17.2H12.9248C13.4498 15.6 13.4498 13.925 12.9248 12.35H19.0748C18.5498 13.925 18.5498 15.625 19.0748 17.2Z" fill="#F0B97C"/>
<path d="M15.0502 24.7999H17.0002L17.4502 23.4249L18.1752 21.225L19.7502 16.45H12.4502L14.5752 23.275L15.0502 24.7999Z" fill="#FDFEFF"/>
<path d="M17.6752 24.7999L17.4752 23.625L17.4502 23.4249L17.1752 21.7L16.6252 18.325H15.3752L14.8252 21.7L14.5752 23.275L14.5252 23.625L14.3252 24.7999H17.6752Z" fill="#F1592F"/>
<path d="M16 16.45L18.7 15L18 18.05C18 18.05 17.3 17.225 16 16.45Z" fill="#E8E7E8"/>
<path d="M17.3996 17.45L16.6246 18.325H15.3746L14.5996 17.45C14.9246 17.15 15.3996 16.8 15.9996 16.45C16.5996 16.8 17.0496 17.15 17.3996 17.45Z" fill="#E34E30"/>
<path d="M17.9496 24.8L20.3746 19.925L19.3246 19.45L20.5996 18.6L20.1496 15.875L18.6996 14.975L18.6746 15.05L18.3746 16.45H18.3496L18.1996 17.2L17.9996 18.05L17.1746 21.7L16.4746 24.8H17.9496Z" fill="#656D7A"/>
<path d="M15.9998 16.45L13.2998 15L13.9998 18.05C13.9998 18.05 14.6998 17.225 15.9998 16.45Z" fill="#E8E7E8"/>
<path d="M11.6254 19.925L14.0504 24.8H15.5254L14.8254 21.7L14.0004 18.05L13.8004 17.2L13.6504 16.45L13.3254 15.025L13.3004 14.975L11.8504 15.875L11.4004 18.6L12.6754 19.45L11.6254 19.925Z" fill="#656D7A"/>
<path d="M20.2809 10.3759C20.6889 10.4474 21.1414 9.81075 21.2915 8.95396C21.4417 8.09717 21.2327 7.34464 20.8247 7.27314C20.4167 7.20164 19.9642 7.83824 19.8141 8.69503C19.6639 9.55183 19.8729 10.3044 20.2809 10.3759Z" fill="#F0B97C"/>
<path d="M10.6 8.94997C10.75 9.79997 11.2 10.425 11.6 10.375C12 10.3 12.2 9.54997 12.05 8.69997C11.7 6.64997 10.25 6.92497 10.6 8.94997Z" fill="#F0B97C"/>
<path d="M20.6502 7.85C20.6502 11.9 17.6252 15 15.9252 15C14.2502 15 11.2002 11.9 11.2002 7.85C11.2002 5.125 13.3252 1.625 15.9252 1.625C18.5502 1.625 20.6502 5.125 20.6502 7.85Z" fill="#F7CFA3"/>
<path d="M20.3746 6.92502C20.3746 7.45002 20.2746 7.95002 20.0996 8.42502L20.7746 8.32502C21.1246 7.60002 21.3246 6.80002 21.3246 5.95002C21.3246 5.32502 21.2246 4.70002 21.0246 4.15002C20.7496 4.35002 20.3496 4.60002 19.8496 4.82502C20.1746 5.45002 20.3746 6.17502 20.3746 6.92502Z" fill="#353944"/>
<path d="M21.4503 3.72495C21.4503 3.79995 21.3003 3.94995 21.0003 4.17495C20.7253 4.37495 20.3253 4.62495 19.8253 4.84995C16.9753 6.19995 13.5003 5.64995 12.0753 4.74995C11.4253 5.89995 11.3253 7.27495 11.7503 8.44995L11.0753 8.34996C8.22533 2.52496 16.4503 -3.12505 21.4503 3.72495Z" fill="#4D535F"/>
<path d="M26.4252 19.3H5.5752C5.0252 19.3 4.5752 19.75 4.5752 20.3V32H27.4252V20.3C27.4252 19.75 26.9752 19.3 26.4252 19.3Z" fill="#E8E7E8"/>
<path d="M15.9996 27.55C17.049 27.55 17.8996 26.6993 17.8996 25.65C17.8996 24.6007 17.049 23.75 15.9996 23.75C14.9503 23.75 14.0996 24.6007 14.0996 25.65C14.0996 26.6993 14.9503 27.55 15.9996 27.55Z" fill="#D2D2D4"/>
</g>
<defs>
<clipPath id="clip0_727_15338">
<rect width="32" height="32" fill="white"/>
</clipPath>
</defs>
</svg>
