<svg width="24" height="16" viewBox="0 0 24 16" fill="none" xmlns="http://www.w3.org/2000/svg">
<path d="M18.5401 6.55541C19.1598 8.45858 22.0338 7.91441 22.0338 9.74474C22.0338 11.4165 16.877 12.453 15.2012 12.5393L8.21578 12.6693C3.74063 12.6693 0.49786 11.4489 0.49786 7.78161C0.49786 4.11444 3.80625 0.143097 8.53641 0.143097C13.004 0.143097 17.4004 3.05338 18.5402 6.55546L18.5401 6.55541Z" fill="#D87E35"/>
<path d="M20.3099 8.09016C20.01 7.96453 19.661 8.03011 19.433 8.26209C18.23 9.48759 14.3707 10.2297 12.9639 10.3021L5.97839 10.4319C3.93454 10.4319 2.148 10.1772 0.809856 9.55111C1.72228 11.8531 4.55695 12.6692 8.21578 12.6692L15.2012 12.5392C16.8768 12.4532 22.0338 11.4165 22.0338 9.7447C22.0338 8.74969 21.1845 8.45634 20.3099 8.09016Z" fill="#C67030"/>
<path d="M20.624 0.361282C20.377 0.697282 20.425 1.10416 20.508 1.38484C20.5391 1.48956 20.5371 1.60136 20.5022 1.70487C20.4672 1.80838 20.401 1.89853 20.3128 1.96291L17.21 4.21103C16.8323 4.48478 16.7495 5.01381 17.0257 5.38994C17.3016 5.76583 17.8311 5.84528 18.2054 5.5668L21.2796 3.27977C21.3675 3.21486 21.4733 3.17875 21.5825 3.1764C21.6918 3.17405 21.7991 3.20557 21.8897 3.26664C22.1327 3.42995 22.5065 3.59767 22.901 3.46234C23.418 3.2853 23.6357 2.71164 23.4182 2.21045C23.2472 1.81661 22.8799 1.60511 22.5064 1.60511C22.426 1.60511 22.3575 1.56503 22.315 1.50606C22.2716 1.44803 22.2539 1.37074 22.2779 1.294C22.3897 0.937704 22.298 0.523704 21.9734 0.242829C21.5603 -0.114968 20.948 -0.0789211 20.624 0.361282Z" fill="#E2E2E2"/>
<path d="M9.22756 11.1152C10.5154 12.8692 13.0646 13.1858 14.9212 11.8226C15.7948 11.1812 16.3253 10.3072 16.6586 9.26828C17.1013 7.88818 17.7497 6.77584 18.8322 5.78265C19.1061 5.53126 19.157 5.12879 18.949 4.84571L18.1208 3.71776C17.913 3.43454 17.5137 3.36254 17.192 3.54859C15.9201 4.28396 14.6645 4.56957 13.2153 4.57876C12.1243 4.58551 11.1315 4.83001 10.2579 5.4714C8.4012 6.83443 7.93995 9.36146 9.22761 11.1152H9.22756Z" fill="#E88C38"/>
<path d="M18.949 4.84552L18.1208 3.71766C18.054 3.62663 17.9269 3.58088 17.7837 3.56109C17.4009 3.50855 17.0205 3.66619 16.766 3.95695C15.8994 4.94719 15.061 6.24595 14.7151 7.32464C14.3818 8.36358 13.8512 9.23752 12.9776 9.87895C11.7048 10.8135 10.1065 10.9583 8.81229 10.392C8.92332 10.6479 9.06267 10.8905 9.22775 11.1153C10.5154 12.8691 13.0646 13.1858 14.9212 11.8224C15.7948 11.1812 16.3255 10.3071 16.6586 9.26831C17.1013 7.88822 17.7497 6.77588 18.8322 5.7825C19.1061 5.5313 19.157 5.12878 18.949 4.84552Z" fill="#D38231"/>
<path d="M23.3283 12.3913H0.671624C0.300656 12.3913 0 12.692 0 13.0629C0 13.4339 0.300656 13.7345 0.671624 13.7345H1.98487C2.15221 13.7345 2.3031 13.8358 2.36625 13.9909L2.59626 14.5536C2.70136 14.8109 2.88069 15.0311 3.1114 15.1861C3.34212 15.3411 3.61375 15.4238 3.8917 15.4239H20.1083C20.6768 15.4239 21.1887 15.0798 21.4037 14.5536L21.6337 13.9909C21.6646 13.9151 21.7174 13.8502 21.7853 13.8046C21.8532 13.7589 21.9332 13.7345 22.0151 13.7345H23.3283C23.6993 13.7345 24 13.4339 24 13.0629C24 12.692 23.6993 12.3913 23.3283 12.3913Z" fill="#E2E2E2"/>
<path d="M23.3284 12.3913H21.2395C21.2395 13.1332 20.6382 13.7345 19.8962 13.7345H19.8801C19.8715 13.7345 19.8631 13.7353 19.8545 13.7355H1.99762C2.07714 13.7379 2.15427 13.7633 2.21968 13.8086C2.28509 13.8538 2.33598 13.9171 2.3662 13.9907L2.55792 14.4598H18.6881C18.6696 14.4955 18.652 14.532 18.6366 14.5699L18.4727 14.9712C18.418 15.1051 18.3248 15.2196 18.2047 15.3001C18.0847 15.3807 17.9434 15.4237 17.7989 15.4237H20.1082C20.3862 15.4237 20.6578 15.341 20.8885 15.186C21.1192 15.031 21.2986 14.8109 21.4037 14.5536L21.6337 13.9907C21.6647 13.915 21.7175 13.8502 21.7854 13.8046C21.8533 13.7589 21.9333 13.7346 22.0151 13.7345H23.3283C23.6993 13.7345 23.9999 13.4339 23.9999 13.0629C23.9999 12.692 23.6993 12.3913 23.3283 12.3913H23.3284Z" fill="#D8D6D4"/>
</svg>
