<svg width="32" height="32" viewBox="0 0 32 32" fill="none" xmlns="http://www.w3.org/2000/svg">
<circle cx="16" cy="16" r="16" fill="#D9ECCD"/>
<path d="M22.8286 10.4345C22.7797 10.2091 22.6302 10.0168 22.4118 9.9143C21.8808 9.6643 21.2842 10.0856 21.3371 10.6748C21.3537 10.839 21.2818 11.0148 21.1395 11.1572L20.6186 11.678C20.3664 11.642 20.1031 11.6902 19.8731 11.8316C19.6078 11.9942 19.2465 12.1815 18.8188 12.3228C17.7534 11.6933 16.5548 11.3585 15.3428 11.3585C11.5634 11.3585 8.73938 14.416 8.73938 17.1498C8.73938 18.2968 9.23325 19.1784 10.2056 19.7835H9.25988C8.6765 19.7835 8.35794 20.4636 8.73063 20.9121L9.16375 21.4329C9.54781 21.895 10.1127 22.16 10.7139 22.16H19.9721C20.5728 22.16 21.1379 21.8951 21.522 21.4329L21.9551 20.9121C22.3283 20.4632 22.009 19.7835 21.4261 19.7835H20.482C21.4532 19.1786 21.9464 18.297 21.9464 17.1498C21.9464 16.2034 21.6145 15.2305 20.9912 14.3279C21.1061 13.9892 21.2501 13.6743 21.4238 13.3866C21.5581 13.165 21.6127 12.9042 21.5786 12.6473L22.127 12.099C22.2731 11.9529 22.4826 11.9294 22.6343 11.9343C23.2652 11.9596 23.7177 11.1544 23.1978 10.6381C23.0972 10.5353 22.9677 10.4652 22.8286 10.4345ZM21.6024 20.6185V20.6186L21.1693 21.1396C20.8724 21.4965 20.4362 21.7011 19.9721 21.7011H10.7139C10.2496 21.7011 9.81334 21.4965 9.51666 21.1395L9.08353 20.6187C8.95947 20.4694 9.065 20.2425 9.25988 20.2425H21.4261C21.6205 20.2424 21.7268 20.469 21.6024 20.6185ZM21.4875 17.1498C21.4875 18.4125 20.8138 19.274 19.4308 19.7835H11.2572C9.87256 19.2736 9.19825 18.412 9.19825 17.1498C9.19825 14.6839 11.8824 11.8173 15.3428 11.8173C16.3129 11.8173 17.274 12.0491 18.1562 12.4859C17.8059 12.5432 17.0583 12.5559 16.3538 13.2412C15.349 14.2167 15.3078 15.8432 16.2612 16.8667C17.2473 17.9291 18.9398 17.9882 19.9936 16.9345C20.719 16.2092 20.698 15.5004 20.8269 14.9211C21.2585 15.6488 21.4875 16.4107 21.4875 17.1498ZM21.0313 13.1493C20.0886 14.7098 20.5503 15.7285 19.6692 16.61C18.8228 17.4561 17.4307 17.4521 16.5973 16.5542C15.8259 15.7261 15.8606 14.3597 16.6735 13.5703C17.6251 12.6452 18.3565 13.3002 20.113 12.2227C20.704 11.8602 21.3997 12.5394 21.0313 13.1493ZM22.65 11.4756C22.3042 11.463 22.0107 11.5662 21.8025 11.7744L21.4015 12.1755C21.3131 12.0415 21.227 11.9523 21.0872 11.8584L21.464 11.4817C21.7042 11.2414 21.8243 10.9305 21.794 10.6311C21.7741 10.4085 21.9949 10.2255 22.2168 10.3297C22.261 10.3505 22.4037 10.4334 22.3856 10.6283C22.3825 10.6622 22.3869 10.6963 22.3986 10.7283C22.4103 10.7602 22.429 10.7892 22.4532 10.813C22.4775 10.8368 22.5068 10.855 22.539 10.8661C22.5711 10.8773 22.6054 10.8812 22.6392 10.8776C22.7246 10.8688 22.8111 10.8988 22.8722 10.9613C23.0921 11.1799 22.872 11.4857 22.65 11.4756Z" fill="#338000"/>
<path d="M12.5705 16.488L12.7372 15.5173C12.7442 15.4768 12.7401 15.4351 12.7255 15.3967C12.7109 15.3583 12.6862 15.3246 12.6541 15.2989C12.6219 15.2733 12.5835 15.2569 12.5428 15.2512C12.502 15.2456 12.4605 15.2509 12.4226 15.2668C11.8595 15.5022 11.4121 15.7662 11.0932 16.0514C10.3807 16.6852 10.606 17.8734 11.5122 18.2314C12.1439 18.4835 12.9012 18.6151 13.7628 18.6229H13.7648C13.8122 18.6229 13.8585 18.6082 13.8972 18.5808C13.936 18.5535 13.9652 18.5148 13.9811 18.47C13.9969 18.4253 13.9985 18.3768 13.9856 18.3312C13.9727 18.2855 13.946 18.245 13.9091 18.2152C13.2974 17.6118 12.4213 17.3482 12.5705 16.488ZM11.6814 17.8048C11.1029 17.5762 10.9312 16.8099 11.3986 16.3939C11.605 16.2095 11.8774 16.0329 12.2115 15.8667L12.1183 16.4099C11.9304 17.4936 12.9172 17.9493 13.0704 18.1268C12.5519 18.0743 12.0869 17.9666 11.6814 17.8048Z" fill="#338000"/>
</svg>
