<svg width="32" height="30" viewBox="0 0 32 30" fill="none" xmlns="http://www.w3.org/2000/svg">
<path d="M27.2676 27.4521L26.8271 29.2588C26.7678 29.5024 26.5496 29.6738 26.2988 29.6738H5.7002L5.60938 29.667C5.52041 29.652 5.436 29.6148 5.36426 29.5586C5.29249 29.5022 5.23593 29.4286 5.2002 29.3457L5.17188 29.2588L4.73047 27.4521L15.999 26.8145L27.2676 27.4521Z" fill="#FC9744" stroke="black" stroke-width="0.2"/>
<path d="M27.2666 27.4585L26.8281 29.2593C26.7992 29.3775 26.7315 29.4829 26.6357 29.5581C26.5399 29.6334 26.4207 29.6744 26.2988 29.6743H24.3291C24.4039 29.6052 24.4662 29.5224 24.5078 29.4263L24.5488 29.3062L24.999 27.4585H27.2666Z" fill="#FB7722" stroke="black" stroke-width="0.2"/>
<path d="M26.6082 14.2144C27.8442 14.2144 28.8462 13.2124 28.8462 11.9763C28.8462 10.7403 27.8442 9.73828 26.6082 9.73828C25.3721 9.73828 24.3701 10.7403 24.3701 11.9763C24.3701 13.2124 25.3721 14.2144 26.6082 14.2144Z" fill="#FB3A82"/>
<path d="M28.8465 11.9768C28.8465 13.2124 27.844 14.2149 26.6084 14.2149C26.317 14.2149 26.0377 14.1589 25.7822 14.0565C26.6092 13.7278 27.1934 12.9203 27.1934 11.9768C27.1934 11.0326 26.6092 10.2251 25.7822 9.89715C26.045 9.79217 26.3254 9.73842 26.6084 9.73877C27.844 9.73877 28.8465 10.7405 28.8465 11.9768Z" fill="#FB1466"/>
<path d="M24.5882 11.9767C25.6535 11.9767 26.5172 11.113 26.5172 10.0477C26.5172 8.98229 25.6535 8.11865 24.5882 8.11865C23.5228 8.11865 22.6592 8.98229 22.6592 10.0477C22.6592 11.113 23.5228 11.9767 24.5882 11.9767Z" fill="#FB3A82"/>
<path d="M26.5171 10.0477C26.5171 11.1126 25.653 11.9767 24.5881 11.9767C24.337 11.9767 24.0962 11.9283 23.876 11.8402C24.5887 11.5568 25.0922 10.8608 25.0922 10.0477C25.0922 9.23378 24.5887 8.53778 23.876 8.25515C24.1025 8.16467 24.3442 8.11834 24.5881 8.11865C25.653 8.11865 26.5171 8.98209 26.5171 10.0477Z" fill="#FB1466"/>
<path d="M20.3415 8.79023L20.6473 7.56435C20.6575 7.52358 20.6756 7.4852 20.7006 7.45142C20.7256 7.41764 20.757 7.38912 20.793 7.36747C20.829 7.34583 20.8689 7.3315 20.9105 7.32529C20.9521 7.31908 20.9945 7.32112 21.0352 7.33129L23.3315 7.90404C23.3723 7.91421 23.4107 7.93231 23.4445 7.95731C23.4783 7.98231 23.5068 8.01371 23.5284 8.04974C23.5501 8.08576 23.5644 8.1257 23.5706 8.16726C23.5768 8.20882 23.5748 8.2512 23.5646 8.29198L23.2589 9.51785C23.2487 9.55863 23.2306 9.597 23.2056 9.63078C23.1806 9.66456 23.1492 9.69309 23.1132 9.71473C23.0771 9.73637 23.0372 9.75071 22.9956 9.75692C22.9541 9.76313 22.9117 9.76109 22.8709 9.75092L20.5746 9.17817C20.5338 9.168 20.4955 9.1499 20.4617 9.1249C20.4279 9.0999 20.3994 9.06849 20.3777 9.03247C20.3561 8.99644 20.3418 8.95651 20.3355 8.91495C20.3293 8.87338 20.3314 8.831 20.3415 8.79023Z" fill="#A3E440"/>
<path d="M22.8708 9.75098L21.7363 9.46798C21.8187 9.48849 21.9058 9.47546 21.9785 9.43175C22.0513 9.38805 22.1037 9.31725 22.1243 9.23492L22.4301 8.00854C22.4506 7.92619 22.4376 7.83907 22.3939 7.76633C22.3502 7.69359 22.2794 7.64117 22.1971 7.62061L23.3316 7.90361C23.4139 7.92417 23.4847 7.97659 23.5284 8.04933C23.5721 8.12207 23.5851 8.20919 23.5646 8.29154L23.2588 9.51792C23.2382 9.60025 23.1858 9.67105 23.113 9.71475C23.0403 9.75846 22.9532 9.77149 22.8708 9.75098Z" fill="#99D53B"/>
<path d="M10.0351 0.757811C9.7805 0.296999 9.20094 0.100124 8.71744 0.308561C8.5106 0.39748 8.33852 0.551606 8.22744 0.747436C8.00594 0.706641 7.77718 0.739434 7.57606 0.840811C7.10569 1.07725 6.88406 1.64781 7.07344 2.13906C7.2235 2.52819 7.57562 2.76975 7.95681 2.80137C8.23962 2.82487 8.48356 3.01056 8.6035 3.26781L10.066 6.40412L11.3789 5.79187L9.91644 2.65556C9.7965 2.39837 9.811 2.09212 9.97481 1.86044C10.1956 1.54806 10.2369 1.12294 10.0351 0.757811Z" fill="#FFF2DF"/>
<path d="M11.5265 5.06677L11.513 5.03764C11.3223 4.62883 10.8365 4.45202 10.4277 4.64264L9.79615 4.93714C9.38734 5.12777 9.21053 5.61364 9.40115 6.02245L9.41471 6.05158C9.65321 6.56302 9.65203 7.14795 9.43815 7.6702C9.06528 8.58077 9.0879 9.73314 9.58921 10.8081C10.4423 12.6376 12.3581 13.5498 13.8683 12.8455C15.3785 12.1413 15.9112 10.0874 15.0582 8.25795C14.5569 7.18295 13.6887 6.42489 12.7515 6.1252C12.2139 5.95333 11.765 5.57827 11.5265 5.06677Z" fill="#A34F41"/>
<path d="M15.058 8.25783C15.9113 10.0878 15.3785 12.1415 13.8683 12.8457C13.7413 12.9052 13.6094 12.9537 13.4741 12.9905C14.2149 12.0305 14.3519 10.5372 13.7139 9.16876C13.2126 8.09389 12.3441 7.33589 11.4073 7.03608C10.8698 6.8647 10.4206 6.48945 10.1823 5.97833L10.1686 5.94914C10.0972 5.79585 9.97997 5.6685 9.83309 5.58467C9.68622 5.50085 9.51694 5.46467 9.34863 5.48114C9.37785 5.3628 9.43322 5.2525 9.51066 5.15836C9.5881 5.06423 9.68565 4.98863 9.79613 4.93714L10.4275 4.6427C10.8366 4.45195 11.3226 4.62883 11.5133 5.03789L11.5269 5.06708C11.7653 5.57826 12.2139 5.95376 12.7513 6.12514C13.6888 6.4247 14.5568 7.18295 15.058 8.25783Z" fill="#873F30"/>
<path d="M28.1442 19.353C29.4695 19.353 30.5768 18.2953 30.583 16.9701C30.5882 15.8491 29.823 14.9065 28.7864 14.6401C28.5303 14.5743 28.3251 14.381 28.2419 14.13C27.9807 13.3412 27.3206 12.7345 26.5004 12.5487C26.2732 12.4972 26.0835 12.3477 25.9714 12.1435C25.6534 11.5633 25.1022 11.1293 24.4439 10.9676C24.3424 10.9428 24.247 10.8979 24.1631 10.8357C24.0792 10.7735 24.0086 10.6952 23.9553 10.6053C23.5384 9.90134 22.7715 9.42921 21.8941 9.42921H21.8892C21.6126 9.42977 21.3546 9.29496 21.2051 9.06221C20.7794 8.39927 20.0361 7.95996 19.1897 7.95996C18.9798 7.95996 18.7763 7.98715 18.5824 8.03809C18.2955 8.1134 17.996 8.01396 17.8004 7.79109C17.3616 7.29121 16.7179 6.97559 16.0006 6.97559C15.2831 6.97559 14.6395 7.29115 14.2007 7.79109C14.0051 8.01396 13.7055 8.1134 13.4187 8.03809C13.2204 7.98611 13.0163 7.95986 12.8113 7.95996C11.9649 7.95996 11.2216 8.39934 10.7959 9.06221C10.6465 9.29496 10.3884 9.42977 10.1119 9.42921H10.107C9.2295 9.42921 8.46256 9.90134 8.04575 10.6053C7.99248 10.6952 7.92184 10.7735 7.83795 10.8357C7.75406 10.8979 7.65861 10.9428 7.55718 10.9676C6.89881 11.1293 6.34768 11.5633 6.02962 12.1435C5.91762 12.3478 5.72787 12.4973 5.50062 12.5487C4.68043 12.7345 4.02037 13.3412 3.75912 14.13C3.676 14.381 3.47068 14.5743 3.21456 14.6401C2.178 14.9065 1.41275 15.8491 1.418 16.9701C1.42418 18.2953 2.5315 19.353 3.85675 19.353H28.1442Z" fill="#FEE265"/>
<path d="M30.582 16.9702C30.5761 18.2953 29.4687 19.3531 28.1436 19.3531H27.9827C28.2583 18.9688 28.4218 18.5013 28.4244 17.994C28.4295 16.873 27.6646 15.9304 26.628 15.6638C26.5018 15.6312 26.3858 15.5674 26.2906 15.4783C26.1955 15.3892 26.1242 15.2777 26.0833 15.1539C25.822 14.3651 25.162 13.7586 24.3417 13.5726C24.1144 13.5211 23.9251 13.3717 23.8131 13.1676C23.495 12.5875 22.9439 12.1528 22.2852 11.9913C22.1838 11.9664 22.0884 11.9216 22.0045 11.8594C21.9206 11.7973 21.8499 11.7191 21.7965 11.6294C21.38 10.925 20.6131 10.4531 19.7355 10.4531H19.7304C19.4542 10.4537 19.196 10.3185 19.0466 10.0861C18.621 9.4229 17.8774 8.98377 17.0313 8.98377C16.8215 8.98377 16.618 9.01084 16.4235 9.06171C16.137 9.13702 15.8376 9.0379 15.6418 8.81509C15.2175 8.33152 14.602 8.02059 13.9131 7.99996C14.0234 7.95285 14.1216 7.8813 14.2003 7.79071C14.6387 7.29109 15.2826 6.97559 15.9999 6.97559C16.7172 6.97559 17.361 7.29109 17.7995 7.79071C17.9953 8.01415 18.2946 8.11327 18.5818 8.03796C18.78 7.98604 18.9841 7.95985 19.189 7.96002C20.0357 7.96002 20.7787 8.39915 21.2043 9.06234C21.3537 9.29477 21.6119 9.42934 21.8888 9.42934H21.8933C22.7708 9.42934 23.5377 9.90127 23.9549 10.605C24.0081 10.695 24.0787 10.7733 24.1627 10.8356C24.2466 10.8978 24.3421 10.9427 24.4436 10.9675C25.1016 11.1291 25.6528 11.5631 25.9708 12.1432C26.0829 12.348 26.2728 12.4973 26.5001 12.5488C27.3204 12.7343 27.9803 13.3415 28.2411 14.1301C28.3248 14.3806 28.5295 14.5744 28.7858 14.6401C29.8222 14.9066 30.5878 15.8492 30.582 16.9702Z" fill="#FDD330"/>
<path d="M17.5662 11.1551C17.489 11.1552 17.413 11.1368 17.3444 11.1014C17.2758 11.066 17.2167 11.0147 17.1721 10.9518C17.159 10.9333 17.1153 10.9058 17.0487 10.9058C16.9823 10.9058 16.9385 10.9333 16.9254 10.9518C16.8887 11.0035 16.8421 11.0474 16.7884 11.0811C16.7347 11.1148 16.6749 11.1376 16.6124 11.1482C16.5498 11.1588 16.4858 11.157 16.424 11.1428C16.3622 11.1287 16.3038 11.1025 16.2521 11.0658C16.2004 11.029 16.1564 10.9825 16.1227 10.9288C16.089 10.8751 16.0662 10.8152 16.0556 10.7527C16.045 10.6902 16.0468 10.6262 16.061 10.5644C16.0751 10.5026 16.1013 10.4441 16.138 10.3924C16.3393 10.1091 16.6797 9.93994 17.0487 9.93994C17.4176 9.93994 17.7581 10.1091 17.9593 10.3924C17.9961 10.4441 18.0222 10.5026 18.0364 10.5644C18.0505 10.6262 18.0524 10.6902 18.0418 10.7527C18.0312 10.8152 18.0084 10.8751 17.9747 10.9288C17.9409 10.9825 17.897 11.029 17.8453 11.0658C17.7639 11.1239 17.6663 11.1552 17.5662 11.1551ZM17.746 14.821C17.6689 14.8211 17.5928 14.8027 17.5242 14.7673C17.4556 14.7319 17.3965 14.6806 17.3518 14.6177C17.3388 14.5992 17.2951 14.5717 17.2285 14.5717C17.1621 14.5717 17.1183 14.5992 17.1053 14.6177C17.0311 14.7221 16.9185 14.7928 16.7922 14.8142C16.6659 14.8356 16.5363 14.806 16.4319 14.7318C16.3275 14.6577 16.2568 14.545 16.2354 14.4188C16.214 14.2925 16.2436 14.1629 16.3178 14.0584C16.519 13.7751 16.8595 13.6059 17.2285 13.6059C17.5975 13.6059 17.938 13.7751 18.1392 14.0584C18.1759 14.1101 18.2021 14.1686 18.2163 14.2304C18.2304 14.2922 18.2322 14.3562 18.2216 14.4187C18.211 14.4813 18.1882 14.5411 18.1545 14.5948C18.1208 14.6485 18.0768 14.695 18.0251 14.7318C17.9437 14.7899 17.8461 14.8211 17.746 14.821ZM23.6903 14.9248C23.5903 14.9248 23.4927 14.8936 23.4112 14.8355C23.3595 14.7988 23.3155 14.7522 23.2818 14.6985C23.248 14.6448 23.2252 14.585 23.2146 14.5225C23.204 14.46 23.2059 14.396 23.22 14.3341C23.2341 14.2723 23.2603 14.2139 23.297 14.1622C23.4983 13.8788 23.8388 13.7096 24.2078 13.7096C24.5768 13.7096 24.9173 13.8789 25.1185 14.1623C25.1927 14.2668 25.2223 14.3964 25.2008 14.5226C25.1794 14.6489 25.1087 14.7615 25.0042 14.8356C24.8998 14.9098 24.7702 14.9394 24.6439 14.9179C24.5176 14.8965 24.405 14.8258 24.3309 14.7213C24.3178 14.7029 24.2742 14.6754 24.2077 14.6754C24.1412 14.6754 24.0975 14.7029 24.0844 14.7214C24.0398 14.7844 23.9807 14.8357 23.9121 14.8711C23.8436 14.9065 23.7675 14.9249 23.6903 14.9248Z" fill="#F2C125"/>
<path d="M4.27286 4.1325C3.87598 3.78656 3.26405 3.79981 2.88105 4.161C2.71709 4.31533 2.6081 4.51903 2.57067 4.74106C2.34858 4.77848 2.14482 4.88753 1.99048 5.05156C1.6293 5.43463 1.61623 6.04656 1.96223 6.44344C2.2363 6.75781 2.64986 6.86431 3.01886 6.76369C3.29267 6.689 3.58536 6.78013 3.78605 6.98081L6.23305 9.42781L7.25742 8.40344L4.81042 5.95644C4.60973 5.75575 4.51861 5.46306 4.5933 5.18931C4.69392 4.82019 4.58736 4.40656 4.27286 4.1325Z" fill="#FFF2DF"/>
<path d="M7.14786 7.67113L7.12511 7.64838C6.80617 7.32945 6.28905 7.32945 5.97017 7.64838L5.47748 8.14107C5.15855 8.46001 5.15855 8.97713 5.47748 9.29601L5.50023 9.31876C5.8993 9.71782 6.09823 10.2679 6.07586 10.8318C6.03686 11.8149 6.45236 12.8901 7.29105 13.7288C8.71836 15.1561 10.8307 15.3581 12.0089 14.1798C13.1872 13.0016 12.9853 10.8893 11.5579 9.46195C10.7192 8.62326 9.64411 8.20782 8.66092 8.24676C8.09698 8.26913 7.54692 8.0702 7.14786 7.67113Z" fill="#A34F41"/>
<path d="M11.5576 9.4619C12.9854 10.8896 13.1871 13.0017 12.0088 14.18C11.9098 14.2793 11.8024 14.3699 11.6878 14.4508C12.0557 13.2953 11.6737 11.8453 10.6061 10.7776C9.76746 9.93902 8.69208 9.52384 7.70915 9.56252C7.14552 9.58527 6.59508 9.38634 6.19627 8.98752L6.17352 8.96477C6.05398 8.84517 5.90027 8.76561 5.73359 8.73706C5.56692 8.70852 5.39549 8.73239 5.24296 8.8054C5.22992 8.68419 5.24422 8.5616 5.2848 8.44665C5.32538 8.3317 5.39122 8.22731 5.47746 8.14115L5.97008 7.64852C6.28921 7.3294 6.80646 7.3294 7.12558 7.64852L7.14833 7.67127C7.54715 8.07009 8.09715 8.26952 8.66077 8.24677C9.64408 8.20765 10.719 8.62327 11.5576 9.4619Z" fill="#873F30"/>
<path d="M5.11426 16.0721C5.36088 15.6369 5.77882 15.3118 6.27695 15.1895C6.35502 15.1704 6.4285 15.1358 6.49307 15.088C6.55764 15.0401 6.61201 14.9798 6.65301 14.9106C6.97388 14.3688 7.5642 14.0053 8.23957 14.0053H8.24332C8.45626 14.0058 8.65482 13.902 8.76988 13.7228C9.09751 13.2126 9.6697 12.8744 10.3211 12.8744C10.4827 12.8744 10.6393 12.8953 10.7886 12.9345C11.0094 12.9924 11.2399 12.9159 11.3906 12.7444C11.7283 12.3596 12.2237 12.1167 12.7759 12.1167C13.3281 12.1167 13.8236 12.3596 14.1613 12.7444V16.072H5.11426V16.0721Z" fill="#FEE265"/>
<path d="M6.6534 15.3935C6.5682 15.3934 6.48455 15.3708 6.41092 15.328C6.33728 15.2851 6.2763 15.2236 6.23415 15.1495C6.192 15.0755 6.17018 14.9916 6.17092 14.9064C6.17165 14.8212 6.19491 14.7378 6.23833 14.6645C6.65546 13.96 7.42265 13.5224 8.2404 13.5224H8.24077C8.29558 13.5224 8.34002 13.4997 8.3644 13.4618C8.79465 12.7916 9.52646 12.3914 10.3219 12.3914C10.5215 12.3914 10.72 12.417 10.912 12.4674C10.9528 12.478 10.9962 12.4625 11.0284 12.4258C11.4702 11.9225 12.1075 11.6338 12.7767 11.6338C13.4459 11.6338 14.0831 11.9225 14.525 12.4258C14.6095 12.522 14.6523 12.6479 14.644 12.7757C14.6357 12.9035 14.5769 13.0228 14.4807 13.1073C14.3844 13.1917 14.2586 13.2345 14.1308 13.2262C14.003 13.2179 13.8837 13.1592 13.7992 13.0629C13.6715 12.9174 13.5143 12.8008 13.338 12.7209C13.1617 12.641 12.9703 12.5997 12.7768 12.5996C12.5832 12.5997 12.3919 12.641 12.2156 12.7209C12.0392 12.8008 11.882 12.9174 11.7543 13.0629C11.4798 13.3757 11.0629 13.5054 10.667 13.4015C10.5543 13.3721 10.4384 13.3572 10.322 13.3572C9.85696 13.3572 9.42902 13.5914 9.17721 13.9836C8.97427 14.2997 8.62608 14.4881 8.24565 14.4881H8.24327C7.7624 14.4881 7.31365 14.7442 7.06946 15.1565C7.02669 15.2288 6.96582 15.2886 6.89286 15.3302C6.81989 15.3717 6.73736 15.3936 6.6534 15.3935ZM13.2941 15.0921C13.2169 15.0922 13.1408 15.0738 13.0723 15.0385C13.0037 15.0031 12.9446 14.9518 12.9 14.8888C12.8868 14.8703 12.8431 14.8428 12.7766 14.8428C12.7101 14.8428 12.6664 14.8703 12.6533 14.8888C12.6166 14.9405 12.57 14.9845 12.5163 15.0182C12.4626 15.0519 12.4028 15.0747 12.3402 15.0853C12.2777 15.0958 12.2137 15.094 12.1519 15.0799C12.0901 15.0657 12.0317 15.0395 11.98 15.0028C11.9283 14.9661 11.8843 14.9195 11.8506 14.8658C11.8169 14.8121 11.7941 14.7523 11.7835 14.6898C11.7729 14.6272 11.7747 14.5632 11.7889 14.5014C11.803 14.4396 11.8292 14.3812 11.8659 14.3295C12.0671 14.0461 12.4076 13.877 12.7766 13.877C13.1455 13.877 13.486 14.0462 13.6872 14.3295C13.7239 14.3812 13.7501 14.4396 13.7643 14.5014C13.7784 14.5632 13.7802 14.6272 13.7696 14.6898C13.759 14.7523 13.7362 14.8121 13.7025 14.8658C13.6688 14.9195 13.6248 14.9661 13.5731 15.0028C13.4917 15.061 13.3941 15.0922 13.2941 15.0921Z" fill="#F2C125"/>
<path d="M1.16504 16.7583H30.835C31.432 16.7583 31.9064 17.2472 31.8994 17.8276L31.8916 17.9448C31.4476 21.5621 29.7944 24.8026 27.3516 27.2583H4.64844C2.35872 24.9566 0.762771 21.9654 0.206055 18.6206L0.108398 17.9448C0.0310727 17.3147 0.528388 16.7583 1.16504 16.7583Z" fill="#FCA863" stroke="black" stroke-width="0.2"/>
<path d="M30.8359 16.7583C31.4329 16.7585 31.9076 17.2472 31.9004 17.8276L31.8916 17.9448C31.4475 21.5621 29.7944 24.8026 27.3516 27.2583H25.0059C27.25 24.9473 28.8148 21.9732 29.3672 18.6538L29.4658 17.9692C29.5271 17.4678 29.2829 17.009 28.8896 16.7583H30.8359Z" fill="#FC9744" stroke="black" stroke-width="0.2"/>
<path d="M31.9284 18.4131C31.8791 18.7368 31.8198 19.0589 31.7507 19.3789H0.248977C0.179787 19.0589 0.12053 18.7368 0.0712891 18.4131H31.9284Z" fill="#FB7722"/>
<path d="M14.9164 9.39267L13.7059 9.03092C13.6246 9.00661 13.5563 8.951 13.516 8.87631C13.4756 8.80163 13.4666 8.71399 13.4909 8.63267L14.1686 6.36511C14.1929 6.28379 14.2485 6.21546 14.3232 6.17514C14.3978 6.13482 14.4855 6.12582 14.5668 6.15011L15.7773 6.51186C15.8586 6.53617 15.9269 6.59178 15.9673 6.66646C16.0076 6.74114 16.0166 6.82878 15.9923 6.91011L15.3147 9.17767C15.2904 9.25898 15.2347 9.3273 15.1601 9.36761C15.0854 9.40793 14.9977 9.41694 14.9164 9.39267Z" fill="#A3E440"/>
<path d="M15.9931 6.91028L15.6583 8.03059C15.6826 7.94927 15.6735 7.86165 15.6332 7.78697C15.5929 7.7123 15.5246 7.65668 15.4433 7.63234L14.2322 7.2704C14.1509 7.24615 14.0633 7.25517 13.9886 7.29548C13.9139 7.3358 13.8583 7.40411 13.834 7.4854L14.1688 6.36509C14.1931 6.28379 14.2487 6.21546 14.3234 6.17515C14.3981 6.13483 14.4857 6.12582 14.567 6.15009L15.7781 6.51203C15.8594 6.53637 15.9277 6.59198 15.968 6.66666C16.0083 6.74133 16.0174 6.82896 15.9931 6.91028Z" fill="#99D53B"/>
<path d="M19.464 13.1328L19.4967 11.8698C19.4977 11.8278 19.5071 11.7864 19.5242 11.748C19.5413 11.7096 19.5657 11.675 19.5962 11.6461C19.6267 11.6171 19.6626 11.5945 19.7018 11.5794C19.741 11.5643 19.7828 11.5571 19.8248 11.5582L22.1907 11.6195C22.2327 11.6205 22.2741 11.6299 22.3125 11.647C22.3509 11.6641 22.3856 11.6885 22.4145 11.719C22.4434 11.7495 22.4661 11.7854 22.4812 11.8246C22.4962 11.8638 22.5034 11.9056 22.5023 11.9477L22.4697 13.2107C22.4686 13.2527 22.4592 13.294 22.4421 13.3324C22.4251 13.3708 22.4006 13.4055 22.3701 13.4344C22.3396 13.4634 22.3038 13.486 22.2645 13.5011C22.2253 13.5162 22.1835 13.5234 22.1415 13.5223L19.7756 13.461C19.6908 13.4588 19.6103 13.423 19.5518 13.3615C19.4934 13.2999 19.4618 13.2177 19.464 13.1328Z" fill="#A3E440"/>
<path d="M22.1415 13.5225L20.9727 13.4922C21.0575 13.4944 21.1397 13.4628 21.2013 13.4044C21.2628 13.3459 21.2986 13.2655 21.3008 13.1806L21.3336 11.9171C21.3358 11.8322 21.3042 11.75 21.2457 11.6885C21.1873 11.6269 21.1068 11.5911 21.022 11.5889L22.1908 11.6191C22.2757 11.6213 22.3562 11.6572 22.4146 11.7187C22.473 11.7802 22.5046 11.8625 22.5025 11.9473L22.4697 13.2109C22.4675 13.2957 22.4317 13.3762 22.3702 13.4346C22.3086 13.4931 22.2264 13.5247 22.1415 13.5225Z" fill="#99D53B"/>
</svg>
