<svg width="32" height="32" viewBox="0 0 32 32" fill="none" xmlns="http://www.w3.org/2000/svg">
<g clip-path="url(#clip0_813_184)">
<path d="M4.60581 28.3587L5.07475 30.2829C5.10891 30.423 5.18914 30.5477 5.30257 30.6368C5.41601 30.7259 5.55607 30.7743 5.70031 30.7743H26.2995C26.5964 30.7743 26.8547 30.5713 26.9251 30.2829L27.394 28.3587L15.9998 27.7148L4.60581 28.3587Z" fill="#FC9744"/>
<path d="M27.3938 28.359L26.9251 30.2829C26.8909 30.423 26.8106 30.5476 26.6971 30.6367C26.5836 30.7258 26.4435 30.7742 26.2992 30.7741H23.8262C24.123 30.7741 24.3812 30.5713 24.4514 30.2829L24.9207 28.359H27.3938Z" fill="#FB7722"/>
<path d="M26.6083 15.2147C27.8444 15.2147 28.8464 14.2127 28.8464 12.9766C28.8464 11.7406 27.8444 10.7386 26.6083 10.7386C25.3723 10.7386 24.3702 11.7406 24.3702 12.9766C24.3702 14.2127 25.3723 15.2147 26.6083 15.2147Z" fill="#FB3A82"/>
<path d="M28.8466 12.9769C28.8466 14.2125 27.8441 15.215 26.6086 15.215C26.3172 15.215 26.0378 15.159 25.7824 15.0566C26.6093 14.7279 27.1935 13.9203 27.1935 12.9769C27.1935 12.0326 26.6093 11.2251 25.7824 10.8972C26.0452 10.7922 26.3256 10.7385 26.6086 10.7388C27.8441 10.7388 28.8466 11.7406 28.8466 12.9769Z" fill="#FB1466"/>
<path d="M24.5879 12.9765C25.6533 12.9765 26.5169 12.1129 26.5169 11.0475C26.5169 9.98217 25.6533 9.11853 24.5879 9.11853C23.5226 9.11853 22.6589 9.98217 22.6589 11.0475C22.6589 12.1129 23.5226 12.9765 24.5879 12.9765Z" fill="#FB3A82"/>
<path d="M26.5172 11.0478C26.5172 12.1127 25.6531 12.9768 24.5882 12.9768C24.3371 12.9768 24.0962 12.9285 23.8761 12.8403C24.5888 12.557 25.0923 11.861 25.0923 11.0478C25.0923 10.2339 24.5888 9.5379 23.8761 9.25528C24.1026 9.16479 24.3443 9.11846 24.5882 9.11878C25.6531 9.11878 26.5172 9.98221 26.5172 11.0478Z" fill="#FB1466"/>
<path d="M20.3414 9.79017L20.6471 8.56429C20.6573 8.52352 20.6754 8.48514 20.7004 8.45136C20.7254 8.41758 20.7568 8.38905 20.7928 8.36741C20.8288 8.34577 20.8688 8.33144 20.9103 8.32523C20.9519 8.31902 20.9943 8.32106 21.0351 8.33123L23.3314 8.90398C23.3721 8.91415 23.4105 8.93225 23.4443 8.95725C23.4781 8.98225 23.5066 9.01365 23.5283 9.04968C23.5499 9.0857 23.5642 9.12563 23.5704 9.1672C23.5766 9.20876 23.5746 9.25114 23.5644 9.29192L23.2587 10.5178C23.2485 10.5586 23.2304 10.5969 23.2054 10.6307C23.1804 10.6645 23.149 10.693 23.113 10.7147C23.077 10.7363 23.037 10.7506 22.9955 10.7569C22.9539 10.7631 22.9115 10.761 22.8707 10.7509L20.5744 10.1781C20.5337 10.1679 20.4953 10.1498 20.4615 10.1248C20.4277 10.0998 20.3992 10.0684 20.3776 10.0324C20.3559 9.99638 20.3416 9.95645 20.3354 9.91489C20.3292 9.87332 20.3312 9.83094 20.3414 9.79017Z" fill="#A3E440"/>
<path d="M22.8706 10.7511L21.7361 10.4681C21.8184 10.4886 21.9055 10.4756 21.9783 10.4319C22.051 10.3882 22.1034 10.3174 22.124 10.235L22.4299 9.00867C22.4504 8.92632 22.4373 8.8392 22.3936 8.76645C22.3499 8.69371 22.2791 8.64129 22.1968 8.62073L23.3313 8.90373C23.4136 8.92429 23.4844 8.97671 23.5281 9.04945C23.5718 9.1222 23.5849 9.20932 23.5644 9.29167L23.2585 10.518C23.2379 10.6004 23.1855 10.6712 23.1128 10.7149C23.04 10.7586 22.9529 10.7716 22.8706 10.7511Z" fill="#99D53B"/>
<path d="M10.0347 1.75787C9.78012 1.29706 9.20056 1.10018 8.71706 1.30862C8.51022 1.39754 8.33814 1.55167 8.22706 1.7475C8.00556 1.7067 7.7768 1.7395 7.57568 1.84087C7.10531 2.07731 6.88368 2.64787 7.07306 3.13912C7.22312 3.52825 7.57525 3.76981 7.95643 3.80143C8.23925 3.82493 8.48318 4.01062 8.60312 4.26787L10.0656 7.40418L11.3786 6.79193L9.91606 3.65562C9.79612 3.39843 9.81062 3.09218 9.97443 2.8605C10.1952 2.54812 10.2366 2.123 10.0347 1.75787Z" fill="#FFF2DF"/>
<path d="M11.5267 6.06695L11.5132 6.03782C11.3226 5.62901 10.8367 5.4522 10.4279 5.64282L9.79637 5.93732C9.38756 6.12795 9.21075 6.61382 9.40137 7.02264L9.41494 7.05176C9.65344 7.5632 9.65225 8.14814 9.43837 8.67039C9.0655 9.58095 9.08812 10.7333 9.58944 11.8083C10.4425 13.6378 12.3583 14.5499 13.8686 13.8457C15.3787 13.1415 15.9114 11.0876 15.0584 9.25814C14.5571 8.18314 13.6889 7.42507 12.7517 7.12539C12.2141 6.95351 11.7652 6.57845 11.5267 6.06695Z" fill="#A34F41"/>
<path d="M15.0581 9.25789C15.9114 11.0879 15.3786 13.1415 13.8684 13.8458C13.7414 13.9053 13.6095 13.9537 13.4742 13.9905C14.2151 13.0305 14.3521 11.5373 13.714 10.1688C13.2127 9.09395 12.3442 8.33595 11.4074 8.03614C10.8699 7.86476 10.4207 7.48951 10.1824 6.97839L10.1687 6.9492C10.0973 6.79591 9.98009 6.66856 9.83321 6.58473C9.68633 6.50091 9.51706 6.46473 9.34875 6.4812C9.37797 6.36286 9.43333 6.25256 9.51077 6.15843C9.58821 6.06429 9.68576 5.98869 9.79625 5.9372L10.4276 5.64276C10.8367 5.45201 11.3227 5.62889 11.5134 6.03795L11.5271 6.06714C11.7654 6.57833 12.2141 6.95383 12.7514 7.1252C13.6889 7.42476 14.5569 8.18301 15.0581 9.25789Z" fill="#873F30"/>
<path d="M28.1438 20.3531C29.4691 20.3531 30.5764 19.2954 30.5826 17.9702C30.5878 16.8493 29.8226 15.9066 28.786 15.6403C28.5299 15.5745 28.3246 15.3811 28.2415 15.1301C27.9802 14.3413 27.3202 13.7346 26.5 13.5488C26.2727 13.4973 26.0831 13.3478 25.971 13.1436C25.6529 12.5635 25.1018 12.1295 24.4434 11.9678C24.342 11.9429 24.2465 11.898 24.1627 11.8358C24.0788 11.7736 24.0081 11.6953 23.9549 11.6055C23.538 10.9015 22.7711 10.4293 21.8936 10.4293H21.8887C21.6121 10.4299 21.3541 10.2951 21.2047 10.0623C20.779 9.3994 20.0357 8.96008 19.1893 8.96008C18.9794 8.96008 18.7759 8.98727 18.5819 9.03821C18.2951 9.11352 17.9956 9.01408 17.7999 8.79121C17.3611 8.29133 16.7175 7.97571 16.0001 7.97571C15.2827 7.97571 14.6391 8.29127 14.2002 8.79121C14.0046 9.01408 13.7051 9.11352 13.4182 9.03821C13.22 8.98623 13.0158 8.95998 12.8109 8.96008C11.9645 8.96008 11.2212 9.39946 10.7955 10.0623C10.6461 10.2951 10.388 10.4299 10.1114 10.4293H10.1066C9.22906 10.4293 8.46212 10.9015 8.04531 11.6055C7.99205 11.6953 7.9214 11.7736 7.83752 11.8358C7.75363 11.898 7.65818 11.9429 7.55675 11.9678C6.89837 12.1295 6.34725 12.5635 6.02919 13.1436C5.91719 13.3479 5.72744 13.4974 5.50019 13.5488C4.68 13.7346 4.01994 14.3413 3.75869 15.1301C3.67556 15.3811 3.47025 15.5745 3.21412 15.6403C2.17756 15.9066 1.41231 16.8493 1.41756 17.9702C1.42375 19.2955 2.53106 20.3531 3.85631 20.3531H28.1438Z" fill="#FEE265"/>
<path d="M30.5822 17.9705C30.5764 19.2955 29.4689 20.3534 28.1439 20.3534H27.9829C28.2585 19.969 28.4221 19.5016 28.4246 18.9942C28.4297 17.8733 27.6649 16.9306 26.6282 16.6641C26.502 16.6314 26.386 16.5677 26.2909 16.4786C26.1957 16.3895 26.1244 16.2779 26.0836 16.1541C25.8222 15.3654 25.1622 14.7589 24.3419 14.5728C24.1146 14.5213 23.9254 14.372 23.8133 14.1678C23.4952 13.5877 22.9441 13.1531 22.2854 12.9915C22.1841 12.9666 22.0886 12.9218 22.0047 12.8597C21.9208 12.7975 21.8501 12.7194 21.7967 12.6296C21.3802 11.9253 20.6133 11.4533 19.7357 11.4533H19.7306C19.4544 11.454 19.1962 11.3188 19.0469 11.0863C18.6212 10.4231 17.8776 9.98402 17.0316 9.98402C16.8217 9.98402 16.6182 10.0111 16.4237 10.062C16.1372 10.1373 15.8378 10.0381 15.6421 9.81533C15.2177 9.33177 14.6022 9.02083 13.9133 9.00021C14.0236 8.95309 14.1218 8.88154 14.2005 8.79096C14.6389 8.29133 15.2828 7.97583 16.0001 7.97583C16.7174 7.97583 17.3612 8.29133 17.7997 8.79096C17.9955 9.01439 18.2949 9.11352 18.5821 9.0382C18.7803 8.98629 18.9843 8.96009 19.1892 8.96027C20.0359 8.96027 20.7789 9.39939 21.2046 10.0626C21.3539 10.295 21.6121 10.4296 21.889 10.4296H21.8935C22.7711 10.4296 23.5379 10.9015 23.9551 11.6053C24.0083 11.6952 24.079 11.7736 24.1629 11.8358C24.2468 11.8981 24.3423 11.9429 24.4438 11.9678C25.1018 12.1294 25.653 12.5633 25.9711 13.1435C26.0831 13.3482 26.2731 13.4976 26.5003 13.5491C27.3206 13.7345 27.9806 14.3417 28.2413 15.1304C28.325 15.3808 28.5297 15.5746 28.786 15.6403C29.8224 15.9069 30.588 16.8495 30.5822 17.9705Z" fill="#FDD330"/>
<path d="M17.5659 12.1549C17.4888 12.1551 17.4127 12.1367 17.3441 12.1013C17.2755 12.0659 17.2164 12.0146 17.1718 11.9516C17.1587 11.9331 17.115 11.9056 17.0484 11.9056C16.982 11.9056 16.9383 11.9331 16.9251 11.9516C16.8884 12.0033 16.8419 12.0473 16.7881 12.081C16.7344 12.1147 16.6746 12.1375 16.6121 12.1481C16.5496 12.1587 16.4856 12.1569 16.4237 12.1427C16.3619 12.1286 16.3035 12.1024 16.2518 12.0656C16.2001 12.0289 16.1562 11.9824 16.1224 11.9287C16.0887 11.8749 16.0659 11.8151 16.0553 11.7526C16.0447 11.6901 16.0466 11.6261 16.0607 11.5643C16.0748 11.5024 16.101 11.444 16.1378 11.3923C16.339 11.1089 16.6794 10.9398 17.0484 10.9398C17.4173 10.9398 17.7578 11.109 17.9591 11.3923C17.9958 11.444 18.022 11.5024 18.0361 11.5643C18.0502 11.6261 18.0521 11.6901 18.0415 11.7526C18.0309 11.8151 18.0081 11.8749 17.9744 11.9287C17.9407 11.9824 17.8967 12.0289 17.845 12.0656C17.7636 12.1238 17.666 12.155 17.5659 12.1549ZM17.7458 15.8209C17.6686 15.821 17.5925 15.8026 17.5239 15.7672C17.4553 15.7318 17.3962 15.6805 17.3516 15.6176C17.3385 15.5991 17.2948 15.5716 17.2283 15.5716C17.1618 15.5716 17.1181 15.5991 17.105 15.6176C17.0308 15.722 16.9182 15.7927 16.7919 15.8141C16.6657 15.8355 16.5361 15.8059 16.4316 15.7317C16.3272 15.6575 16.2565 15.5449 16.2351 15.4186C16.2137 15.2924 16.2433 15.1627 16.3175 15.0583C16.5187 14.7749 16.8592 14.6058 17.2282 14.6058C17.5972 14.6058 17.9377 14.7749 18.1389 15.0583C18.1757 15.11 18.2018 15.1685 18.216 15.2303C18.2301 15.2921 18.2319 15.3561 18.2213 15.4186C18.2107 15.4811 18.1879 15.541 18.1542 15.5947C18.1205 15.6484 18.0765 15.6949 18.0248 15.7316C17.9434 15.7897 17.8458 15.821 17.7458 15.8209ZM23.6901 15.9246C23.59 15.9247 23.4924 15.8935 23.4109 15.8354C23.3592 15.7987 23.3152 15.7521 23.2815 15.6984C23.2478 15.6447 23.225 15.5849 23.2144 15.5224C23.2038 15.4598 23.2056 15.3958 23.2197 15.334C23.2339 15.2722 23.26 15.2138 23.2968 15.1621C23.498 14.8787 23.8385 14.7095 24.2075 14.7095C24.5766 14.7095 24.9171 14.8788 25.1183 15.1622C25.1924 15.2666 25.222 15.3963 25.2005 15.5225C25.1791 15.6488 25.1084 15.7614 25.0039 15.8355C24.8995 15.9096 24.7699 15.9392 24.6436 15.9178C24.5173 15.8964 24.4048 15.8256 24.3306 15.7212C24.3176 15.7028 24.2739 15.6753 24.2074 15.6753C24.1409 15.6753 24.0972 15.7028 24.0841 15.7213C24.0395 15.7843 23.9804 15.8356 23.9119 15.871C23.8433 15.9064 23.7672 15.9248 23.6901 15.9246Z" fill="#F2C125"/>
<path d="M4.2725 5.13256C3.87563 4.78662 3.26369 4.79987 2.88069 5.16106C2.71673 5.31539 2.60774 5.51909 2.57031 5.74112C2.34822 5.77854 2.14446 5.88759 1.99013 6.05162C1.62894 6.43469 1.61588 7.04662 1.96188 7.4435C2.23594 7.75787 2.6495 7.86437 3.0185 7.76375C3.29231 7.68906 3.585 7.78019 3.78569 7.98087L6.23269 10.4279L7.25706 9.4035L4.81006 6.9565C4.60938 6.75581 4.51825 6.46312 4.59294 6.18937C4.69356 5.82025 4.587 5.40662 4.2725 5.13256Z" fill="#FFF2DF"/>
<path d="M7.14831 8.67144L7.12556 8.64869C6.80662 8.32975 6.2895 8.32975 5.97062 8.64869L5.47793 9.14138C5.159 9.46031 5.159 9.97744 5.47793 10.2963L5.50068 10.3191C5.89975 10.7181 6.09868 11.2682 6.07631 11.8321C6.03731 12.8153 6.45281 13.8904 7.2915 14.7291C8.71881 16.1564 10.8311 16.3584 12.0094 15.1801C13.1876 14.0019 12.9857 11.8896 11.5584 10.4623C10.7197 9.62356 9.64456 9.20813 8.66137 9.24706C8.09743 9.26944 7.54737 9.0705 7.14831 8.67144Z" fill="#A34F41"/>
<path d="M11.5581 10.4621C12.9858 11.8899 13.1875 14.002 12.0092 15.1802C11.9102 15.2796 11.8028 15.3702 11.6882 15.4511C12.0561 14.2956 11.6741 12.8455 10.6065 11.7779C9.76787 10.9393 8.6925 10.5241 7.70956 10.5628C7.14593 10.5855 6.5955 10.3866 6.19668 9.98777L6.17393 9.96502C6.05439 9.84542 5.90068 9.76585 5.734 9.73731C5.56733 9.70876 5.3959 9.73264 5.24337 9.80564C5.23033 9.68444 5.24463 9.56185 5.28521 9.4469C5.32579 9.33194 5.39163 9.22755 5.47787 9.14139L5.9705 8.64877C6.28962 8.32964 6.80687 8.32964 7.126 8.64877L7.14875 8.67152C7.54756 9.07033 8.09756 9.26977 8.66118 9.24702C9.6445 9.20789 10.7194 9.62352 11.5581 10.4621Z" fill="#873F30"/>
<path d="M5.11456 17.0722C5.36119 16.6371 5.77913 16.3119 6.27725 16.1896C6.35533 16.1705 6.4288 16.136 6.49337 16.0881C6.55795 16.0402 6.61232 15.9799 6.65331 15.9108C6.97419 15.3689 7.5645 15.0054 8.23988 15.0054H8.24363C8.45656 15.0059 8.65513 14.9021 8.77019 14.7229C9.09781 14.2127 9.67 13.8745 10.3214 13.8745C10.483 13.8745 10.6396 13.8954 10.7889 13.9346C11.0098 13.9926 11.2403 13.9161 11.3909 13.7445C11.7286 13.3598 12.224 13.1168 12.7763 13.1168C13.3284 13.1168 13.8239 13.3598 14.1616 13.7445V17.0721H5.11456V17.0722Z" fill="#FEE265"/>
<path d="M6.65293 16.3937C6.56774 16.3937 6.48409 16.371 6.41045 16.3282C6.33682 16.2854 6.27584 16.2238 6.23369 16.1498C6.19153 16.0757 6.16972 15.9919 6.17045 15.9067C6.17119 15.8215 6.19445 15.738 6.23787 15.6647C6.655 14.9602 7.42218 14.5226 8.23993 14.5226H8.24031C8.29512 14.5226 8.33956 14.5 8.36393 14.462C8.79418 13.7918 9.526 13.3917 10.3214 13.3917C10.521 13.3917 10.7195 13.4172 10.9115 13.4676C10.9524 13.4783 10.9957 13.4627 11.0279 13.426C11.4697 12.9227 12.1071 12.634 12.7762 12.634C13.4454 12.634 14.0827 12.9227 14.5246 13.426C14.609 13.5223 14.6518 13.6482 14.6435 13.776C14.6352 13.9038 14.5765 14.023 14.4802 14.1075C14.384 14.192 14.2581 14.2348 14.1303 14.2265C14.0025 14.2182 13.8832 14.1594 13.7987 14.0632C13.6711 13.9177 13.5138 13.8011 13.3375 13.7212C13.1612 13.6413 12.9699 13.5999 12.7763 13.5998C12.5827 13.5999 12.3914 13.6413 12.2151 13.7212C12.0388 13.8011 11.8815 13.9177 11.7539 14.0632C11.4793 14.376 11.0624 14.5056 10.6665 14.4018C10.5539 14.3723 10.438 14.3574 10.3216 14.3575C9.8565 14.3575 9.42856 14.5916 9.17675 14.9838C8.97381 15.2999 8.62562 15.4883 8.24518 15.4883H8.24281C7.76193 15.4883 7.31318 15.7445 7.069 16.1568C7.02623 16.229 6.96536 16.2889 6.8924 16.3304C6.81943 16.372 6.7369 16.3938 6.65293 16.3937ZM13.2936 16.0923C13.2165 16.0925 13.1404 16.0741 13.0718 16.0387C13.0032 16.0033 12.9441 15.952 12.8995 15.889C12.8864 15.8705 12.8427 15.843 12.7762 15.843C12.7097 15.843 12.6659 15.8705 12.6528 15.889C12.6161 15.9407 12.5695 15.9847 12.5158 16.0184C12.4621 16.0521 12.4023 16.0749 12.3398 16.0855C12.2772 16.0961 12.2132 16.0943 12.1514 16.0801C12.0896 16.066 12.0312 16.0398 11.9795 16.003C11.9278 15.9663 11.8838 15.9198 11.8501 15.8661C11.8164 15.8123 11.7936 15.7525 11.783 15.69C11.7724 15.6275 11.7742 15.5635 11.7884 15.5017C11.8025 15.4398 11.8287 15.3814 11.8654 15.3297C12.0667 15.0463 12.4072 14.8772 12.7761 14.8772C13.1451 14.8772 13.4855 15.0464 13.6867 15.3297C13.7235 15.3814 13.7496 15.4398 13.7638 15.5017C13.7779 15.5635 13.7798 15.6275 13.7692 15.69C13.7586 15.7525 13.7358 15.8123 13.7021 15.8661C13.6683 15.9198 13.6244 15.9663 13.5727 16.003C13.4913 16.0612 13.3937 16.0924 13.2936 16.0923Z" fill="#F2C125"/>
<path d="M30.8354 17.6589H1.16462C0.46881 17.6589 -0.0760653 18.2662 0.00868471 18.9568C0.457185 22.6114 2.13181 25.8843 4.60575 28.3587H27.3942C29.8681 25.8843 31.5428 22.6114 31.9913 18.9568C32.0761 18.2662 31.5312 17.6589 30.8354 17.6589Z" fill="#FCA863"/>
<path d="M30.8354 17.6588H28.2104C28.9064 17.6588 29.4511 18.2659 29.3667 18.9568C28.9184 22.6111 27.2441 25.8842 24.7703 28.3588H27.3937C29.8678 25.8843 31.5426 22.6114 31.9911 18.9568C32.0762 18.2659 31.5314 17.6588 30.8354 17.6588Z" fill="#FC9744"/>
<path d="M31.9286 19.4131C31.8793 19.7368 31.8201 20.0589 31.7509 20.379H0.249183C0.179993 20.0589 0.120736 19.7368 0.0714951 19.4131H31.9286Z" fill="#FB7722"/>
<path d="M14.9165 10.3928L13.706 10.031C13.6247 10.0067 13.5564 9.95112 13.516 9.87644C13.4757 9.80175 13.4667 9.71411 13.491 9.63279L14.1686 7.36523C14.1929 7.28391 14.2485 7.21558 14.3232 7.17526C14.3979 7.13494 14.4856 7.12594 14.5669 7.15023L15.7774 7.51198C15.8587 7.53629 15.927 7.5919 15.9673 7.66658C16.0077 7.74127 16.0167 7.82891 15.9924 7.91023L15.3147 10.1778C15.2904 10.2591 15.2348 10.3274 15.1601 10.3677C15.0855 10.408 14.9978 10.4171 14.9165 10.3928Z" fill="#A3E440"/>
<path d="M15.9926 7.9104L15.6578 9.03071C15.6821 8.94939 15.673 8.86177 15.6327 8.78709C15.5924 8.71242 15.5241 8.6568 15.4428 8.63246L14.2317 8.27053C14.1504 8.24627 14.0628 8.25529 13.9881 8.29561C13.9135 8.33592 13.8578 8.40423 13.8335 8.48553L14.1683 7.36521C14.1926 7.28391 14.2482 7.21559 14.3229 7.17527C14.3976 7.13495 14.4852 7.12594 14.5666 7.15021L15.7776 7.51215C15.8589 7.53649 15.9272 7.59211 15.9675 7.66678C16.0079 7.74145 16.0169 7.82908 15.9926 7.9104Z" fill="#99D53B"/>
<path d="M19.4642 14.1331L19.4969 12.8701C19.498 12.8281 19.5073 12.7867 19.5244 12.7483C19.5415 12.7099 19.5659 12.6752 19.5964 12.6463C19.6269 12.6174 19.6628 12.5947 19.702 12.5796C19.7412 12.5646 19.783 12.5574 19.8251 12.5585L22.1909 12.6197C22.2329 12.6208 22.2743 12.6301 22.3127 12.6472C22.3511 12.6643 22.3858 12.6888 22.4147 12.7193C22.4437 12.7497 22.4663 12.7856 22.4814 12.8248C22.4965 12.8641 22.5037 12.9059 22.5026 12.9479L22.4699 14.2109C22.4688 14.2529 22.4594 14.2943 22.4424 14.3327C22.4253 14.3711 22.4008 14.4057 22.3703 14.4347C22.3398 14.4636 22.304 14.4863 22.2647 14.5013C22.2255 14.5164 22.1837 14.5236 22.1417 14.5225L19.7758 14.4613C19.691 14.4591 19.6105 14.4232 19.552 14.3617C19.4936 14.3002 19.462 14.2179 19.4642 14.1331Z" fill="#A3E440"/>
<path d="M22.1416 14.5227L20.9727 14.4925C21.0575 14.4947 21.1397 14.463 21.2013 14.4046C21.2628 14.3462 21.2986 14.2657 21.3009 14.1809L21.3336 12.9173C21.3358 12.8325 21.3042 12.7502 21.2457 12.6887C21.1873 12.6272 21.1068 12.5913 21.022 12.5891L22.1909 12.6194C22.2757 12.6216 22.3562 12.6574 22.4146 12.7189C22.4731 12.7805 22.5047 12.8627 22.5025 12.9475L22.4697 14.2111C22.4675 14.296 22.4317 14.3764 22.3702 14.4349C22.3086 14.4933 22.2264 14.5249 22.1416 14.5227Z" fill="#99D53B"/>
</g>
<defs>
<clipPath id="clip0_813_184">
<rect width="32" height="32" fill="white"/>
</clipPath>
</defs>
</svg>
