<svg width="32" height="32" viewBox="0 0 32 32" fill="none" xmlns="http://www.w3.org/2000/svg">
<circle cx="16" cy="16" r="16" fill="#D9ECCD"/>
<g clip-path="url(#clip0_1948_87062)">
<path fill-rule="evenodd" clip-rule="evenodd" d="M11.3583 14.7473C11.4144 14.7137 11.4738 14.6869 11.5365 14.6667C11.6387 14.6298 11.7476 14.6096 11.8564 14.6063H11.8894C11.9323 14.6063 11.9752 14.6096 12.018 14.613C12.0906 14.4753 12.1929 14.3577 12.3149 14.2637C12.4535 14.1596 12.6118 14.089 12.78 14.0622C12.8625 13.911 12.9812 13.7834 13.1231 13.686C13.2979 13.5685 13.5024 13.5047 13.7135 13.5047C13.7828 13.5047 13.852 13.5114 13.9213 13.5248L13.9312 13.5282C14.0038 13.377 14.1093 13.2461 14.2412 13.142C14.426 12.9975 14.6536 12.9203 14.8878 12.9203C14.9933 12.9203 15.0956 12.9371 15.1978 12.9673C15.2407 12.9807 15.2803 12.9942 15.3199 13.0143C15.399 12.927 15.4914 12.8531 15.5936 12.796C15.752 12.7087 15.9268 12.665 16.1049 12.665H16.1181C16.2006 12.665 16.283 12.6751 16.3655 12.6986C16.4513 12.7221 16.537 12.7557 16.6162 12.7994L16.6261 12.8061C16.7019 12.8498 16.7712 12.9001 16.8339 12.9572C16.8537 12.9774 16.8735 12.9975 16.8933 13.0177C16.9328 13.0009 16.9757 12.9841 17.0153 12.9707L17.0219 12.9673C17.1209 12.9371 17.2198 12.9237 17.3221 12.9237C17.5563 12.9237 17.7806 13.0009 17.9686 13.1453C18.1005 13.2461 18.2061 13.3804 18.2819 13.5282L18.2951 13.5248C18.3611 13.5114 18.4304 13.5047 18.4963 13.5047H18.5293C18.5722 13.5047 18.6151 13.508 18.6547 13.5147C18.6679 13.3132 18.7074 13.1151 18.7701 12.9237C18.8658 12.6415 19.0142 12.3762 19.2022 12.1478C19.2715 12.0605 19.3474 11.9799 19.4628 11.9665C19.5782 11.953 19.6673 12.0135 19.7564 12.0807C20.1555 12.3863 20.4293 12.8464 20.5711 13.33C20.6008 13.4341 20.6272 13.5416 20.647 13.6491C20.7624 13.5886 20.8845 13.5416 21.0098 13.498C21.2341 13.4241 21.4716 13.377 21.7058 13.3703C21.8179 13.367 21.9268 13.3838 22.0027 13.4744C22.0752 13.5618 22.0818 13.6692 22.0719 13.7801V13.7834C22.0389 14.0857 21.9169 14.4014 21.7685 14.6633C21.6497 14.8716 21.498 15.063 21.3199 15.2209C21.3495 15.278 21.3726 15.3384 21.3924 15.3989C21.653 15.4157 21.8971 15.5265 22.0818 15.7146C22.283 15.9194 22.3952 16.1915 22.3952 16.4803C22.3952 16.4937 22.3952 16.5105 22.3952 16.524C22.5568 16.5978 22.6953 16.712 22.8009 16.8531C22.9427 17.0412 23.0219 17.2729 23.0219 17.5114C23.0219 17.5886 23.0153 17.6625 22.9988 17.7397H23.299C23.4012 17.7397 23.4969 17.78 23.5695 17.8539C23.642 17.9278 23.6816 18.0252 23.6816 18.1293V18.7641C23.6816 19.0361 23.5727 19.2981 23.3847 19.4895C23.1934 19.6809 22.9394 19.7918 22.6723 19.7918H22.5073V20.1511C22.5073 20.3493 22.4282 20.5407 22.2896 20.6818C22.1511 20.8228 21.9664 20.9034 21.7685 20.9034H10.4546C10.2599 20.9034 10.0719 20.8228 9.93339 20.6818C9.79485 20.5407 9.71568 20.3526 9.71568 20.1511V19.7918H9.55076C9.28358 19.7918 9.02629 19.6843 8.83828 19.4895C8.64697 19.2981 8.54141 19.0361 8.54141 18.7641V18.1293C8.54141 18.0252 8.58099 17.9278 8.65356 17.8539C8.72613 17.78 8.82179 17.7397 8.92404 17.7397H9.22091C9.20441 17.6658 9.19782 17.5886 9.19782 17.5114C9.19782 17.2729 9.27368 17.0412 9.41882 16.8531C9.52437 16.712 9.66621 16.5978 9.82783 16.524C9.82783 16.5105 9.82783 16.4937 9.82783 16.4803C9.82783 16.1915 9.93998 15.9161 10.1412 15.7146C10.3259 15.5265 10.57 15.4157 10.8306 15.3989C10.857 15.3115 10.8933 15.2309 10.9394 15.1537C10.9757 15.0966 11.0153 15.0429 11.0582 14.9925C10.8801 14.623 10.7382 14.1864 10.7184 13.7733C10.7118 13.6827 10.7151 13.5886 10.7217 13.498L9.73548 12.4669C9.59694 12.5643 9.43201 12.6113 9.26379 12.6113C9.04938 12.608 8.84817 12.5206 8.69644 12.3628C8.54801 12.2049 8.46555 11.9967 8.46885 11.7818C8.47214 11.5635 8.55791 11.3586 8.71294 11.2041L8.71623 11.2007C8.86797 11.0496 9.07577 10.9656 9.29018 10.969C9.31327 10.969 9.33636 10.969 9.35615 10.9724C9.35615 10.9489 9.35285 10.9287 9.35285 10.9052C9.35615 10.6869 9.44191 10.4787 9.59694 10.3275C9.75197 10.1764 9.95648 10.0924 10.1709 10.0958C10.3853 10.0992 10.5898 10.1865 10.7382 10.3443L10.7415 10.3477C10.89 10.5022 10.9691 10.7138 10.9691 10.9287C10.9658 11.1 10.913 11.2646 10.8141 11.4023L11.7476 12.3796C12.0213 12.3258 12.305 12.3527 12.5689 12.4266C12.714 12.4669 12.8559 12.524 12.9911 12.5945C13.1329 12.665 13.2682 12.749 13.3968 12.843C13.4826 12.9069 13.5024 13.0278 13.443 13.1151C13.3803 13.2024 13.2616 13.2226 13.1758 13.1621C13.0637 13.0815 12.9449 13.0076 12.8229 12.9472C12.7074 12.8901 12.5887 12.843 12.4666 12.8061C12.2555 12.7457 12.0279 12.7221 11.8102 12.7658C11.7872 12.7692 11.7674 12.7759 11.7443 12.7826C11.7377 12.786 11.7311 12.786 11.7245 12.7893C11.5662 12.8363 11.4276 12.9169 11.3089 13.0345C11.1209 13.2192 11.0813 13.508 11.0945 13.7599C11.1143 14.0958 11.2231 14.4484 11.3616 14.754L11.3583 14.7473ZM19.5057 12.3796C19.5024 12.3863 19.4991 12.3897 19.4925 12.3964C19.3342 12.5912 19.2088 12.8095 19.1296 13.0479C19.0637 13.2427 19.0307 13.4442 19.0307 13.6491C19.0505 13.6592 19.067 13.6726 19.0835 13.6827C19.1692 13.7431 19.2484 13.8137 19.3144 13.8943C19.3572 13.9446 19.3935 13.9984 19.4232 14.0588C19.5914 14.0857 19.7531 14.1562 19.8916 14.2603C20.0137 14.3544 20.1159 14.4719 20.1885 14.6096C20.2083 14.6063 20.2281 14.6063 20.2478 14.6029C20.294 14.4014 20.3072 14.1932 20.294 13.9849C20.294 13.9782 20.294 13.9715 20.294 13.9681C20.2808 13.7901 20.2478 13.6121 20.1984 13.4375C20.0796 13.0345 19.852 12.6449 19.5189 12.3863C19.5123 12.3829 19.509 12.3762 19.5024 12.3729L19.5057 12.3796ZM20.6338 14.6533C20.647 14.6566 20.6569 14.66 20.6701 14.6667C20.7822 14.707 20.8845 14.7641 20.9768 14.838C21.0098 14.8615 21.0428 14.8884 21.0758 14.9152C21.2176 14.7876 21.3364 14.6331 21.432 14.4686C21.5508 14.2603 21.653 14.0051 21.6827 13.7633C21.4947 13.7733 21.3034 13.8137 21.122 13.8741C20.9702 13.9245 20.8218 13.9883 20.6832 14.0723C20.6865 14.267 20.6734 14.4652 20.6338 14.6533ZM22.7481 18.1293C22.725 18.1327 22.6986 18.1327 22.6756 18.1293H16.6162C16.5106 18.1293 16.4249 18.042 16.4249 17.9345C16.4249 17.827 16.5106 17.7397 16.6162 17.7397H22.5832C22.5898 17.7196 22.5964 17.7028 22.5997 17.6826C22.6129 17.6255 22.6195 17.5684 22.6195 17.5114C22.6195 17.3602 22.57 17.2158 22.4809 17.0949C22.3919 16.9773 22.2665 16.89 22.1247 16.8497C22.0224 16.8229 21.9565 16.7187 21.9796 16.6146C21.9829 16.5945 21.9895 16.571 21.9895 16.5508C21.9928 16.5273 21.9928 16.5038 21.9928 16.4803C21.9928 16.2989 21.9235 16.1243 21.7948 15.9967C21.6662 15.8657 21.4947 15.7952 21.3166 15.7952C21.3034 15.7952 21.2935 15.7952 21.2803 15.7952C21.2704 15.7952 21.2572 15.7985 21.2473 15.7985C21.1417 15.8086 21.0461 15.7347 21.0329 15.6272C21.0197 15.5332 20.9867 15.4425 20.9372 15.3619C20.8878 15.2813 20.8251 15.2141 20.7459 15.1604L20.7327 15.1503C20.6734 15.1033 20.6074 15.0664 20.5348 15.0395C20.4622 15.0126 20.3897 15.0026 20.3138 15.0026C20.2808 15.0026 20.2511 15.0059 20.2182 15.0093H20.2149C20.1852 15.0126 20.1555 15.0193 20.1258 15.0294C20.0268 15.0597 19.9213 15.0026 19.885 14.9052C19.8421 14.7775 19.7597 14.6633 19.6508 14.5794C19.5453 14.4988 19.4199 14.4518 19.288 14.445C19.2088 14.445 19.1395 14.3947 19.1099 14.3208C19.0835 14.2603 19.0505 14.1999 19.0076 14.1495C18.9647 14.0991 18.9152 14.0521 18.8625 14.0152C18.8064 13.9782 18.747 13.948 18.6843 13.9312C18.6316 13.9144 18.5755 13.9043 18.5194 13.901H18.4897C18.4469 13.901 18.404 13.9043 18.3611 13.9144H18.3545C18.3116 13.9245 18.2687 13.9346 18.2292 13.9547L18.1995 13.9681V13.9648C18.0972 13.9883 17.995 13.9245 17.9686 13.8237C17.929 13.6793 17.8432 13.5517 17.7245 13.4577C17.6057 13.367 17.4639 13.3166 17.3155 13.3166C17.2528 13.3166 17.1868 13.3267 17.1274 13.3435L17.1209 13.3468C17.0582 13.367 16.9955 13.3938 16.9427 13.4341H16.9394C16.8504 13.4912 16.7283 13.4644 16.6723 13.3737C16.6426 13.3267 16.603 13.2797 16.5634 13.2427C16.5238 13.2058 16.4809 13.1722 16.4348 13.1487L16.4282 13.1453C16.3787 13.1184 16.3259 13.0983 16.2698 13.0815C16.2204 13.0681 16.1676 13.0613 16.1181 13.0613H16.1049C15.9928 13.0613 15.8806 13.0882 15.7817 13.1453C15.6827 13.199 15.5969 13.2797 15.5376 13.377V13.3804C15.4782 13.4711 15.3561 13.498 15.2671 13.4375C15.211 13.4006 15.1516 13.3703 15.089 13.3502C15.0263 13.33 14.9603 13.32 14.8944 13.32C14.7459 13.32 14.6041 13.367 14.4853 13.461C14.3699 13.5517 14.2841 13.676 14.2445 13.8204C14.2412 13.8304 14.2379 13.8405 14.2347 13.8506C14.1951 13.9513 14.0796 14.0017 13.9807 13.9581C13.9411 13.9413 13.8982 13.9278 13.852 13.9178C13.8091 13.9077 13.763 13.9043 13.7201 13.9043C13.5881 13.9043 13.4562 13.9446 13.3441 14.0185C13.2319 14.0924 13.1461 14.1999 13.0934 14.3241C13.0637 14.3947 12.9977 14.4417 12.9218 14.445C12.7866 14.4518 12.658 14.4988 12.5524 14.5827C12.4469 14.6633 12.3644 14.7742 12.3215 14.9018C12.2885 15.0059 12.183 15.063 12.0807 15.0328C12.051 15.0227 12.0213 15.016 11.9884 15.0126C11.9554 15.0093 11.9257 15.0059 11.8927 15.0059H11.8597C11.7937 15.0093 11.7311 15.0227 11.6684 15.0429C11.5958 15.0697 11.5299 15.1067 11.4705 15.1537L11.4606 15.1604C11.3847 15.2141 11.3188 15.2847 11.2693 15.3653C11.2198 15.4459 11.1868 15.5332 11.1736 15.6272C11.1604 15.7347 11.0648 15.812 10.9592 15.7985C10.9361 15.7952 10.913 15.7952 10.89 15.7952C10.7085 15.7952 10.537 15.8657 10.4117 15.9967C10.283 16.1243 10.2138 16.2989 10.2138 16.4803C10.2138 16.5038 10.2138 16.5273 10.2171 16.5508C10.2204 16.571 10.2237 16.5945 10.227 16.6146C10.25 16.7187 10.1874 16.8229 10.0851 16.8497C9.94328 16.89 9.81464 16.9773 9.72558 17.0949C9.63652 17.2158 9.58704 17.3602 9.58704 17.5114C9.58704 17.5684 9.59364 17.6255 9.60683 17.6793C9.61013 17.6994 9.61673 17.7196 9.62333 17.7364H15.564C15.6695 17.7364 15.7553 17.8237 15.7553 17.9312C15.7553 18.0386 15.6695 18.126 15.564 18.126H9.53097C9.50788 18.1293 9.48479 18.1293 9.4617 18.126H8.92074V18.7607C8.92074 18.9286 8.98671 19.0898 9.10546 19.2107C9.22421 19.3317 9.38253 19.3988 9.54746 19.3988H22.669C22.8339 19.3988 22.9955 19.3317 23.111 19.2107C23.2297 19.0898 23.2957 18.932 23.2957 18.7607V18.126H22.7547L22.7481 18.1293ZM19.9246 16.8161C19.8487 16.8934 19.7267 16.8934 19.6541 16.8161C19.5782 16.7389 19.5815 16.618 19.6541 16.5407C19.7992 16.393 19.9939 16.3124 20.1984 16.3124C20.4029 16.3124 20.5975 16.3963 20.7426 16.5407C20.8185 16.618 20.8185 16.7423 20.7426 16.8161C20.6668 16.8934 20.548 16.89 20.4721 16.8161C20.3996 16.7423 20.3006 16.702 20.1984 16.702C20.0961 16.702 19.9972 16.7423 19.9246 16.8161ZM15.7784 14.7843C15.7025 14.8615 15.5804 14.8615 15.5079 14.7843C15.432 14.707 15.4353 14.5861 15.5079 14.5089C15.653 14.3611 15.8476 14.2805 16.0521 14.2805C16.2566 14.2805 16.4513 14.3611 16.5964 14.5089C16.6723 14.5861 16.6723 14.707 16.5964 14.7843C16.5205 14.8615 16.4018 14.8615 16.3259 14.7843C16.2533 14.7104 16.1544 14.6701 16.0521 14.6701C15.9499 14.6701 15.8509 14.7104 15.7784 14.7843ZM11.7839 16.4299C11.8729 16.4904 11.896 16.6113 11.8366 16.702C11.7773 16.7926 11.6585 16.8161 11.5695 16.7557C11.4804 16.6952 11.4573 16.5743 11.5167 16.4837C11.576 16.393 11.6948 16.3695 11.7839 16.4299ZM16.0521 16.1545C16.1577 16.1545 16.2434 16.2418 16.2434 16.3493C16.2434 16.4568 16.1577 16.5441 16.0521 16.5441C15.9466 16.5441 15.8608 16.4568 15.8608 16.3493C15.8608 16.2418 15.9466 16.1545 16.0521 16.1545ZM13.697 16.6348L13.664 16.6281C13.6409 16.6214 13.5486 16.6516 13.5222 16.6617C13.4529 16.6818 13.3836 16.702 13.3111 16.7187L13.3012 16.7221C13.2055 16.7389 13.1 16.7053 13.0175 16.6549C12.9482 16.6113 12.8856 16.5508 12.846 16.4769C12.7965 16.3896 12.7767 16.2922 12.7899 16.1915C12.8097 16.047 12.8922 15.9228 12.9911 15.822C13.0934 15.7179 13.222 15.6743 13.3539 15.634C13.3803 15.6272 13.5057 15.5869 13.5156 15.5701C13.6013 15.4224 13.7234 15.3082 13.8883 15.2645C14.0005 15.2343 14.1192 15.241 14.2281 15.2813C14.3303 15.3183 14.426 15.3821 14.4985 15.4627C14.6206 15.5937 14.6931 15.775 14.6832 15.9564C14.6701 16.1881 14.6041 16.4098 14.4128 16.5508C14.205 16.6986 13.9345 16.6885 13.697 16.6415V16.6348ZM17.2495 15.8187C17.1703 15.6776 17.1406 15.5164 17.1901 15.3586C17.2099 15.2947 17.2429 15.2343 17.2858 15.1839C17.3254 15.1369 17.3748 15.0932 17.4276 15.063C17.5497 14.9925 17.6981 14.9656 17.8333 15.0059L17.8597 15.0126C18.1137 15.0798 18.3875 15.194 18.5953 15.3586C18.8526 15.5634 19.001 15.8321 18.9218 16.1713L18.9086 16.2217H18.9053C18.8559 16.3762 18.7536 16.5072 18.6151 16.5878L18.5887 16.6046C18.5029 16.6482 18.4073 16.6751 18.3116 16.6751C18.2061 16.6751 18.1005 16.6482 18.0082 16.5911L17.995 16.581C17.8465 16.4803 17.7575 16.3224 17.7179 16.1478C17.6882 16.1277 17.6354 16.1075 17.6024 16.0907C17.4639 16.0269 17.3386 15.9664 17.2594 15.8287L17.2561 15.822L17.2495 15.8187ZM13.2451 16.3325C13.3012 16.3191 13.3572 16.3057 13.4133 16.2855C13.5255 16.2519 13.6277 16.2183 13.7465 16.2452L13.7762 16.2519C13.8982 16.2788 14.0862 16.3023 14.1918 16.225C14.2775 16.1646 14.2973 16.0303 14.3039 15.9295C14.3072 15.8523 14.2742 15.7784 14.2215 15.7213C14.1885 15.6843 14.1489 15.6575 14.1027 15.6407C14.0664 15.6272 14.0268 15.6239 13.9906 15.634C13.9279 15.6507 13.8817 15.7078 13.8487 15.7616L13.8454 15.7649C13.763 15.906 13.6145 15.9497 13.4727 15.9967C13.4166 16.0135 13.3078 16.047 13.2649 16.0907C13.2286 16.1277 13.1824 16.1847 13.1758 16.2351C13.1725 16.2486 13.1758 16.262 13.1824 16.2754C13.1923 16.2922 13.2055 16.3057 13.222 16.3157C13.2286 16.3191 13.2385 16.3258 13.2484 16.3292L13.2451 16.3325ZM18.4106 16.2586L18.4271 16.2486C18.4798 16.2183 18.5227 16.168 18.5425 16.1075L18.5491 16.0806C18.5887 15.9093 18.4864 15.7683 18.3611 15.6675C18.1929 15.5366 17.9653 15.4459 17.7608 15.3888L17.7212 15.3787C17.6882 15.3686 17.6486 15.3787 17.6189 15.3989C17.6024 15.4089 17.5892 15.419 17.576 15.4358C17.5662 15.4492 17.5563 15.4627 17.553 15.4795C17.5365 15.5298 17.5596 15.5869 17.5826 15.6306C17.6057 15.6709 17.708 15.7146 17.7509 15.7347C17.9059 15.8052 18.0411 15.869 18.084 16.0504C18.1005 16.1277 18.1368 16.2083 18.2028 16.2519L18.2094 16.2586C18.239 16.2754 18.272 16.2855 18.3083 16.2855C18.3446 16.2855 18.3776 16.2754 18.4106 16.262V16.2586ZM22.1148 19.7918H10.0917V20.1511C10.0917 20.2452 10.128 20.3358 10.194 20.403C10.2599 20.4702 10.349 20.5071 10.4447 20.5071H21.7586C21.8542 20.5071 21.9433 20.4702 22.0093 20.3997C22.0752 20.3325 22.1115 20.2418 22.1115 20.1478V19.7884L22.1148 19.7918ZM11.3419 12.5206L10.4051 11.5366C10.3985 11.5299 10.3952 11.5232 10.3886 11.5198C10.3259 11.4325 10.3424 11.3116 10.4282 11.2478C10.4381 11.241 10.4447 11.231 10.4546 11.2243C10.5337 11.1436 10.5799 11.0395 10.5799 10.9253C10.5832 10.8112 10.5403 10.7003 10.4611 10.6197C10.382 10.5358 10.2764 10.4887 10.161 10.4887C10.0488 10.4854 9.93998 10.529 9.85752 10.6096C9.77836 10.6903 9.73218 10.7977 9.72888 10.9119C9.72888 11.0261 9.77176 11.1369 9.84763 11.2175L9.87071 11.241L9.59694 11.5131L9.57385 11.4896C9.49468 11.4056 9.38913 11.3586 9.27698 11.3586C9.16483 11.3552 9.05598 11.3989 8.97352 11.4795C8.89435 11.5601 8.84817 11.6676 8.84488 11.7818C8.84158 11.896 8.88446 12.0068 8.96362 12.0874C9.04279 12.168 9.14834 12.2184 9.26049 12.2184C9.37264 12.2217 9.47819 12.1781 9.56065 12.1008L9.58374 12.074C9.59034 12.0672 9.59364 12.0605 9.60024 12.0538C9.6761 11.9799 9.79815 11.9799 9.87071 12.0572L10.8207 13.0513C10.8735 12.9371 10.9427 12.833 11.0351 12.7423C11.1274 12.6516 11.2297 12.5777 11.3386 12.5139L11.3419 12.5206Z" fill="#338000"/>
</g>
<defs>
<clipPath id="clip0_1948_87062">
<rect width="18" height="16" fill="white" transform="translate(7 8)"/>
</clipPath>
</defs>
</svg>
