<svg width="32" height="32" viewBox="0 0 32 32" fill="none" xmlns="http://www.w3.org/2000/svg">
<path d="M17.9211 29.9672V30.7668C17.9211 31.4479 18.4733 32.0001 19.1544 32.0001C19.8355 32.0001 20.3877 31.4479 20.3877 30.7668V29.9672H17.9211ZM19.1544 16.6239C18.7354 16.6239 18.2593 16.5929 17.8567 16.5337V21.4123C17.8545 21.5139 17.9347 21.609 18.049 21.609H20.3877V16.5337C19.9794 16.5937 19.5672 16.6239 19.1544 16.6239Z" fill="#BC7C63"/>
<path d="M19.2398 30.7668V29.9672H17.9212V30.7668C17.9212 31.4479 18.4734 32.0001 19.1545 32.0001C19.3972 32.0001 19.623 31.9289 19.8138 31.8078C19.4692 31.5891 19.2398 31.2051 19.2398 30.7668ZM19.1544 16.6239C18.7354 16.6239 18.2593 16.5929 17.8567 16.5337V21.4123C17.8545 21.5138 17.9347 21.6089 18.049 21.6089H19.2397V16.6223C19.2113 16.6226 19.183 16.6239 19.1544 16.6239Z" fill="#AB6B51"/>
<path d="M22.4368 21.4158H18.1133C17.9989 21.4158 17.9188 21.3207 17.921 21.2191V17.7101C17.921 17.2866 17.5787 16.9416 17.1551 16.9402H17.1511C16.9426 16.9401 16.7384 16.9996 16.5625 17.1115C16.3866 17.2235 16.2464 17.3833 16.1582 17.5722C15.7511 18.4439 15.8744 19.4046 14.5976 20.6754C13.9678 21.3022 13.1094 21.6453 12.2209 21.6453H11.0596V29.1882H11.7962C12.4256 29.1883 13.0453 29.3442 13.5998 29.6421C14.1542 29.94 14.7739 30.0959 15.4033 30.0959H20.9545C21.5538 30.0959 22.0395 29.6101 22.0395 29.0109C22.0395 28.4116 21.5538 27.9259 20.9545 27.9259H21.4486C22.0478 27.9259 22.5336 27.4401 22.5336 26.8409C22.5336 26.2416 22.0478 25.7559 21.4486 25.7559H21.9426C22.5419 25.7559 23.0276 25.2701 23.0276 24.6709C23.0276 24.0716 22.5419 23.5859 21.9426 23.5859H22.4367C23.0359 23.5859 23.5217 23.1001 23.5217 22.5009C23.5218 21.9016 23.0361 21.4158 22.4368 21.4158Z" fill="#FED2A4"/>
<path d="M12.9271 22.5963C12.9271 22.0934 13.1741 21.6485 13.553 21.3752C13.1316 21.5536 12.6787 21.6454 12.2211 21.6454H11.0598V29.1883H11.7964C12.1813 29.1883 12.5623 29.2472 12.9271 29.3607V22.5963Z" fill="#FFBD86"/>
<path d="M19.1544 16.817C23.7982 16.817 27.5628 13.0524 27.5628 8.4085C27.5628 3.76461 23.7982 0 19.1544 0C14.5105 0 10.7458 3.76461 10.7458 8.4085C10.7458 13.0524 14.5105 16.817 19.1544 16.817Z" fill="#FF656F"/>
<path d="M12.5702 8.4085C12.5702 4.07287 15.8517 0.504125 20.0665 0.049375C19.7669 0.0170625 19.4626 0 19.1544 0C14.5105 0 10.7458 3.76462 10.7458 8.4085C10.7458 13.0524 14.5105 16.817 19.1544 16.817C19.4626 16.817 19.7668 16.7999 20.0665 16.7676C15.8517 16.3129 12.5702 12.7441 12.5702 8.4085Z" fill="#FF4756"/>
<path d="M19.1543 15.1509C22.878 15.1509 25.8967 12.1322 25.8967 8.40845C25.8967 4.68471 22.878 1.66602 19.1543 1.66602C15.4306 1.66602 12.4119 4.68471 12.4119 8.40845C12.4119 12.1322 15.4306 15.1509 19.1543 15.1509Z" fill="#FF4756"/>
<path d="M14.2364 8.40845C14.2364 4.99408 16.7744 2.17295 20.0667 1.72764C19.7644 1.68666 19.4596 1.66607 19.1545 1.66602C15.4308 1.66602 12.4121 4.6847 12.4121 8.40845C12.4121 12.1322 15.4308 15.1509 19.1545 15.1509C19.4639 15.1509 19.7684 15.1296 20.0667 15.0893C16.7744 14.644 14.2364 11.8228 14.2364 8.40845Z" fill="#FC2D39"/>
<path d="M20.68 8.50961C20.6531 8.48277 20.6381 8.44639 20.6381 8.40845C20.6381 8.37052 20.6531 8.33413 20.68 8.3073L22.268 6.71923C22.6498 6.33748 22.6849 5.71561 22.3216 5.3163C21.9336 4.88998 21.2731 4.8783 20.8702 5.28123L19.2619 6.88955C19.2351 6.91633 19.1987 6.93137 19.1608 6.93134C19.1229 6.93132 19.0865 6.91624 19.0597 6.88942L17.465 5.29473C17.0833 4.91298 16.4615 4.87786 16.0621 5.24117C15.6358 5.62911 15.6241 6.28967 16.0271 6.69255L17.642 8.30748C17.6978 8.3633 17.6978 8.45373 17.642 8.50955L16.0271 10.1245C15.6241 10.5274 15.6358 11.1879 16.0621 11.5758C16.4615 11.9391 17.0833 11.904 17.465 11.5222L19.0597 9.92755C19.0865 9.90072 19.1229 9.88565 19.1608 9.88562C19.1987 9.8856 19.2351 9.90063 19.2619 9.92742L20.8702 11.5357C21.2731 11.9387 21.9336 11.927 22.3216 11.5007C22.6849 11.1014 22.6498 10.4795 22.268 10.0977L20.68 8.50961Z" fill="#DFEBFA"/>
<path d="M17.3792 10.1245L18.9942 8.50959C19.0074 8.49632 19.018 8.48057 19.0251 8.46324C19.0323 8.4459 19.036 8.42732 19.036 8.40856C19.036 8.38979 19.0323 8.37121 19.0251 8.35388C19.018 8.33654 19.0074 8.32079 18.9942 8.30753L17.3792 6.69259C16.9776 6.29103 16.9882 5.63359 17.4104 5.24515C17.0261 4.91146 16.4431 4.89465 16.0622 5.24128C15.6359 5.62921 15.6241 6.28978 16.0271 6.69265L17.642 8.30759C17.6979 8.3634 17.6979 8.45384 17.642 8.50965L16.0271 10.1246C15.6242 10.5275 15.6359 11.188 16.0622 11.5759C16.4431 11.9225 17.0261 11.9057 17.4104 11.572C16.9881 11.1836 16.9775 10.5261 17.3792 10.1245Z" fill="#B1DBFC"/>
<path d="M20.9547 27.9258H21.4491H18.4724C18.3444 27.9258 18.2216 27.9767 18.131 28.0673C18.0404 28.1578 17.9896 28.2806 17.9896 28.4087C17.9896 28.5368 18.0404 28.6596 18.131 28.7502C18.2216 28.8407 18.3444 28.8916 18.4724 28.8916H22.0328C21.9734 28.3486 21.5136 27.9258 20.9547 27.9258ZM21.943 25.7558H18.4724C18.3444 25.7558 18.2216 25.8067 18.131 25.8973C18.0404 25.9878 17.9896 26.1106 17.9896 26.2387C17.9896 26.3668 18.0404 26.4896 18.131 26.5802C18.2216 26.6707 18.3444 26.7216 18.4724 26.7216H22.5269C22.4674 26.1785 22.0076 25.7558 21.4488 25.7558H21.9428H21.943ZM18.4724 24.5516H23.021C22.9616 24.0085 22.5018 23.5858 21.9429 23.5858H18.4724C18.3453 23.5872 18.2239 23.6387 18.1345 23.7291C18.0451 23.8195 17.995 23.9415 17.995 24.0687C17.995 24.1958 18.0451 24.3178 18.1345 24.4082C18.2239 24.4986 18.3453 24.5501 18.4724 24.5516ZM22.4369 21.4158H18.2578C18.0989 21.5136 17.9895 21.7093 17.9895 21.8987C17.9895 22.0268 18.0404 22.1496 18.1309 22.2402C18.2215 22.3307 18.3443 22.3816 18.4724 22.3816H23.515C23.4556 21.8385 22.9958 21.4158 22.4369 21.4158Z" fill="#FFBD86"/>
<path d="M10.8226 20.8315H8.82715V29.7829H10.8226C10.9367 29.7829 11.0462 29.7376 11.1269 29.6569C11.2076 29.5762 11.253 29.4667 11.253 29.3525V21.2619C11.2529 21.1478 11.2076 21.0383 11.1269 20.9576C11.0462 20.8769 10.9367 20.8316 10.8226 20.8315Z" fill="#DFEBFA"/>
<path d="M8.82715 20.8315H10.2421V29.7829H8.82715V20.8315Z" fill="#B1DBFC"/>
<path d="M8.40507 20.0081H5.0522C4.71245 20.0081 4.43701 20.2835 4.43701 20.6232V29.9912C4.43701 30.331 4.71245 30.6064 5.0522 30.6064H8.40507C8.74482 30.6064 9.02026 30.331 9.02026 29.9912V20.6232C9.02032 20.2835 8.74482 20.0081 8.40507 20.0081Z" fill="#60B8FE"/>
<path d="M6.72864 29.9912V20.6232C6.72864 20.2835 7.00407 20.0081 7.34389 20.0081H5.0522C4.71245 20.0081 4.43701 20.2835 4.43701 20.6232V29.9912C4.43701 30.331 4.71245 30.6064 5.0522 30.6064H7.34389C7.00407 30.6065 6.72864 30.3311 6.72864 29.9912Z" fill="#23A8FE"/>
</svg>
