<svg width="23" height="24" viewBox="0 0 23 24" fill="none" xmlns="http://www.w3.org/2000/svg">
<path d="M14.0001 20.0001C14.0001 22.2093 12.2091 24.0001 9.99994 24.0001C7.79077 24.0001 6 22.2093 6 20.0001C6 17.791 7.79077 16 9.99994 16C12.2091 16 14.0001 17.791 14.0001 20.0001Z" fill="#FFA000"/>
<path d="M17.0079 11.921C13.6179 11.4369 11.0001 8.52186 11.0001 5C11.0001 3.99987 11.2139 3.05103 11.5929 2.18984C11.081 2.06994 10.549 2 9.99994 2C6.14006 2 3 5.13987 3 8.99994V11.7879C3 13.7669 2.133 15.635 0.611954 16.9209C0.419855 17.0849 0.265652 17.2887 0.159998 17.5182C0.054343 17.7476 -0.000246054 17.9973 8.33716e-07 18.2499C8.33716e-07 19.215 0.78497 20 1.74994 20H18.2499C19.2151 20 20.0001 19.215 20.0001 18.2499C20.0001 17.7379 19.777 17.2528 19.378 16.9119C17.902 15.663 17.046 13.8499 17.0079 11.921Z" fill="#FFC107"/>
<path d="M23 5.00006C23 7.76147 20.7613 9.99994 17.9999 9.99994C15.2385 9.99994 12.9999 7.76147 12.9999 5.00006C12.9999 2.23866 15.2385 0 17.9999 0C20.7613 0 23 2.23866 23 5.00006Z" fill="#F44336"/>
</svg>
