<svg width="24" height="24" viewBox="0 0 24 24" fill="none" xmlns="http://www.w3.org/2000/svg">
<circle cx="12" cy="12" r="12" fill="#D9ECCD"/>
<g clip-path="url(#clip0_1998_11316)">
<path d="M17.4304 12.831L16.4814 9.413C15.9229 7.4035 14.0764 6 11.9904 6C9.78937 6 7.91837 7.501 7.44337 9.64L6.56037 12.9575C6.39487 13.701 6.57337 14.469 7.05037 15.065C7.52787 15.659 8.23837 16 9.00037 16H9.56137C9.79637 17.1525 10.8014 18 12.0004 18C13.1994 18 14.2044 17.1525 14.4394 16H15.0214C15.8094 16 16.5349 15.64 17.0119 15.0125C17.4889 14.3855 17.6414 13.5905 17.4304 12.831ZM12.0009 17.5C11.0764 17.5 10.2939 16.871 10.0704 16H13.9319C13.7079 16.871 12.9259 17.5 12.0014 17.5H12.0009ZM16.6144 14.71C16.2329 15.212 15.6524 15.5 15.0219 15.5H9.00087C8.39087 15.5 7.82237 15.227 7.44087 14.752C7.05887 14.276 6.91637 13.661 7.04637 13.076L7.92937 9.758C8.35537 7.84 10.0254 6.5 11.9904 6.5C13.8524 6.5 15.5009 7.753 15.9989 9.547L16.9479 12.965C17.1169 13.573 16.9954 14.2085 16.6144 14.71Z" fill="#338000"/>
</g>
<defs>
<clipPath id="clip0_1998_11316">
<rect width="12" height="12" fill="white" transform="translate(6 6)"/>
</clipPath>
</defs>
</svg>
