<svg width="32" height="32" viewBox="0 0 32 32" fill="none" xmlns="http://www.w3.org/2000/svg">
<circle cx="16" cy="16" r="16" fill="#D9ECCD"/>
<path d="M12.6696 11.9122C11.2809 12.4022 10.0043 13.1902 8.93227 14.2622L8.46094 13.7909C9.6616 12.5902 11.1016 11.7189 12.6696 11.2049V11.9122ZM19.3363 11.2049V11.9122C20.7249 12.4022 22.0016 13.1902 23.0736 14.2622L23.5449 13.7909C22.3443 12.5902 20.9043 11.7189 19.3363 11.2049ZM13.7716 13.7022L16.0029 11.4709L18.2343 13.7022L18.7056 13.2309L16.4743 10.9995L18.7056 8.76821L18.2343 8.29688L16.0029 10.5282L13.7716 8.29688L13.3003 8.76821L15.5316 10.9995L13.3003 13.2309L13.7716 13.7022ZM17.3363 21.3329C17.3363 22.0682 16.7383 22.6662 16.0029 22.6662C15.2676 22.6662 14.6696 22.0682 14.6696 21.3329C14.6696 20.5975 15.2676 19.9995 16.0029 19.9995C16.7383 19.9995 17.3363 20.5975 17.3363 21.3329ZM16.6696 21.3329C16.6696 20.9655 16.3703 20.6662 16.0029 20.6662C15.6356 20.6662 15.3363 20.9655 15.3363 21.3329C15.3363 21.7002 15.6356 21.9995 16.0029 21.9995C16.3703 21.9995 16.6696 21.7002 16.6696 21.3329ZM11.7603 17.0902L12.2316 17.5615C13.2389 16.5542 14.5783 15.9995 16.0029 15.9995C17.4276 15.9995 18.7669 16.5542 19.7743 17.5615L20.2456 17.0902C19.1123 15.9569 17.6056 15.3329 16.0029 15.3329C14.4003 15.3329 12.8936 15.9569 11.7603 17.0902Z" fill="#338000"/>
</svg>
