<svg width="32" height="32" viewBox="0 0 32 32" fill="none" xmlns="http://www.w3.org/2000/svg">
<g clip-path="url(#clip0_727_9541)">
<path d="M19.8125 10.375H10.4375C9.91931 10.375 9.5 9.95569 9.5 9.4375V5.6875C9.5 5.16931 9.91931 4.75 10.4375 4.75H19.8125C20.3307 4.75 20.75 5.16931 20.75 5.6875V9.4375C20.75 9.95569 20.3307 10.375 19.8125 10.375Z" fill="#FFD580"/>
<path d="M26.1004 1.27464C25.7342 0.908453 25.1409 0.908453 24.7747 1.27464L23.5625 2.48683L22.3503 1.27464C21.9841 0.908453 21.3908 0.908453 21.0246 1.27464C20.6585 1.64083 20.6585 2.23414 21.0246 2.60033L22.8996 4.47533C23.0828 4.65845 23.3226 4.75002 23.5625 4.75002C23.8023 4.75002 24.0422 4.65845 24.2253 4.47533L26.1003 2.60033C26.4666 2.23408 26.4666 1.64083 26.1004 1.27464Z" fill="#F24973"/>
<path d="M24.2254 4.47533L26.1004 2.60033C26.4666 2.23414 26.4666 1.64083 26.1004 1.27464C25.7342 0.908453 25.1409 0.908453 24.7747 1.27464L23.5625 2.48683V4.75002C23.8024 4.75002 24.0423 4.65845 24.2254 4.47533Z" fill="#D92C49"/>
<path d="M27.3125 10.375H19.8125C19.2943 10.375 18.875 9.95569 18.875 9.4375V3.8125C18.875 3.29431 19.2943 2.875 19.8125 2.875H27.3125C27.8307 2.875 28.25 3.29431 28.25 3.8125V9.4375C28.25 9.95569 27.8307 10.375 27.3125 10.375Z" fill="#8AE68A"/>
<path d="M27.3125 2.875H23.5625V10.375H27.3125C27.8307 10.375 28.25 9.95569 28.25 9.4375V3.8125C28.25 3.29431 27.8307 2.875 27.3125 2.875Z" fill="#60BF80"/>
<path d="M5.62869 8.50024L4.09644 2.87549H0.9375C0.419312 2.87549 0 2.45618 0 1.93799C0 1.4198 0.419312 1.00049 0.9375 1.00049H4.81238C5.0181 1.00051 5.21811 1.0682 5.38157 1.19312C5.54504 1.31803 5.66288 1.49324 5.71694 1.69174L7.76038 9.19174L5.62869 8.50024ZM25.4374 25.3755H10.4374C9.921 25.3755 9.49988 24.9552 9.49988 24.438C9.49988 23.9537 9.86244 23.5527 10.3422 23.5051C10.8567 23.4538 11.2339 22.9942 11.1808 22.4787C11.1314 21.9642 10.6699 21.6062 10.1554 21.6392C8.71256 21.7829 7.62494 22.9859 7.62494 24.4379C7.62494 25.9888 8.88656 27.2504 10.4374 27.2504H25.4374C25.9556 27.2504 26.3749 26.8311 26.3749 26.3129C26.3749 25.7947 25.9556 25.3755 25.4374 25.3755Z" fill="#80334D"/>
<path d="M25.4375 25.375H19.8125V27.25H25.4375C25.9557 27.25 26.375 26.8307 26.375 26.3125C26.375 25.7943 25.9557 25.375 25.4375 25.375Z" fill="#59243F"/>
<path d="M10.4377 23.4817C10.0184 23.4817 9.64487 23.2024 9.53318 22.7914L5.62793 8.5H31.0627C31.3374 8.5 31.5992 8.62087 31.7787 8.83144C31.8666 8.93534 31.9308 9.05714 31.9668 9.18836C32.0029 9.31959 32.0099 9.45709 31.9874 9.59131L30.1124 20.8413C30.0787 21.0448 29.9787 21.2314 29.8281 21.3723C29.6775 21.5131 29.4846 21.6004 29.2793 21.6204C7.80724 23.7449 10.6629 23.4817 10.4377 23.4817Z" fill="#F24973"/>
<path d="M31.0625 8.5H19.8125V22.5586C22.2744 22.3141 25.3694 22.0072 29.2791 21.6204C29.4843 21.6004 29.6772 21.5132 29.8279 21.3723C29.9785 21.2314 30.0784 21.0448 30.1122 20.8413L31.9872 9.59131C32.0097 9.45709 32.0026 9.31959 31.9666 9.18836C31.9305 9.05714 31.8663 8.93534 31.7784 8.83144C31.6902 8.72768 31.5805 8.64431 31.4569 8.58709C31.3333 8.52987 31.1987 8.50015 31.0625 8.5Z" fill="#D92C49"/>
<path d="M25.4375 31C23.8866 31 22.625 29.7384 22.625 28.1875C22.625 26.6366 23.8866 25.375 25.4375 25.375C26.9884 25.375 28.25 26.6366 28.25 28.1875C28.25 29.7384 26.9884 31 25.4375 31Z" fill="#59243F"/>
<path d="M25.4375 29.125C25.9553 29.125 26.375 28.7053 26.375 28.1875C26.375 27.6697 25.9553 27.25 25.4375 27.25C24.9197 27.25 24.5 27.6697 24.5 28.1875C24.5 28.7053 24.9197 29.125 25.4375 29.125Z" fill="#D9E5FF"/>
<path d="M12.3125 31C10.7616 31 9.5 29.7384 9.5 28.1875C9.5 26.6366 10.7616 25.375 12.3125 25.375C13.8634 25.375 15.125 26.6366 15.125 28.1875C15.125 29.7384 13.8634 31 12.3125 31Z" fill="#80334D"/>
<path d="M12.3125 29.125C12.8303 29.125 13.25 28.7053 13.25 28.1875C13.25 27.6697 12.8303 27.25 12.3125 27.25C11.7947 27.25 11.375 27.6697 11.375 28.1875C11.375 28.7053 11.7947 29.125 12.3125 29.125Z" fill="#ECF2FF"/>
<path d="M25.4375 17.875C24.9193 17.875 24.5 17.4557 24.5 16.9375V13.1875C24.5 12.6693 24.9193 12.25 25.4375 12.25C25.9557 12.25 26.375 12.6693 26.375 13.1875V16.9375C26.375 17.4557 25.9557 17.875 25.4375 17.875Z" fill="#D9E5FF"/>
<path d="M14.1875 17.875C13.6693 17.875 13.25 17.4557 13.25 16.9375V13.1875C13.25 12.6693 13.6693 12.25 14.1875 12.25C14.7057 12.25 15.125 12.6693 15.125 13.1875V16.9375C15.125 17.4557 14.7057 17.875 14.1875 17.875ZM19.8125 17.875C19.2943 17.875 18.875 17.4557 18.875 16.9375V13.1875C18.875 12.6693 19.2943 12.25 19.8125 12.25C20.3307 12.25 20.75 12.6693 20.75 13.1875V16.9375C20.75 17.4557 20.3307 17.875 19.8125 17.875Z" fill="#ECF2FF"/>
<path d="M20.75 16.9375V13.1875C20.75 12.6693 20.3307 12.25 19.8125 12.25V17.875C20.3307 17.875 20.75 17.4557 20.75 16.9375Z" fill="#D9E5FF"/>
</g>
<defs>
<clipPath id="clip0_727_9541">
<rect width="32" height="32" fill="white"/>
</clipPath>
</defs>
</svg>
