<svg width="40" height="40" viewBox="0 0 40 40" fill="none" xmlns="http://www.w3.org/2000/svg">
<path d="M20 40C31.0457 40 40 31.0457 40 20C40 8.9543 31.0457 0 20 0C8.9543 0 0 8.9543 0 20C0 31.0457 8.9543 40 20 40Z" fill="#E4E4E4"/>
<path d="M12.5 17.5C13.8807 17.5 15 16.3807 15 15C15 13.6193 13.8807 12.5 12.5 12.5C11.1193 12.5 10 13.6193 10 15C10 16.3807 11.1193 17.5 12.5 17.5Z" fill="#3E4347"/>
<path d="M27.5 17.5C28.8807 17.5 30 16.3807 30 15C30 13.6193 28.8807 12.5 27.5 12.5C26.1193 12.5 25 13.6193 25 15C25 16.3807 26.1193 17.5 27.5 17.5Z" fill="#3E4347"/>
<path d="M26.25 30H13.75C13.06 30 12.5 29.44 12.5 28.75C12.5 28.06 13.06 27.5 13.75 27.5H26.25C26.94 27.5 27.5 28.06 27.5 28.75C27.5 29.44 26.94 30 26.25 30Z" fill="#3E4347"/>
</svg>
