<svg width="32" height="32" viewBox="0 0 32 32" fill="none" xmlns="http://www.w3.org/2000/svg">
<g clip-path="url(#clip0_727_9507)">
<path d="M0.0625 5.37356V22.59C0.0625 24.1212 1.30375 25.3625 2.835 25.3625H29.2462C30.7775 25.3625 32.0187 24.1212 32.0187 22.59V5.37356C32.0187 3.85837 30.7907 2.63037 29.2756 2.63037H2.80562C1.2905 2.63037 0.0625 3.85843 0.0625 5.37356Z" fill="#C4E2F2"/>
<path d="M22.4863 29.062L16.0407 30.5308L9.59473 29.062L10.4778 25.3628L15.767 23.418L21.6033 25.3628L21.8889 26.5603L22.4863 29.062Z" fill="#2D303B"/>
<path d="M32.0187 22.2637V22.5899C32.0187 24.1211 30.777 25.3628 29.2457 25.3628H2.83469C1.30344 25.3628 0.0625 24.121 0.0625 22.5898V22.2637H32.0187ZM22.486 29.062H12.6272L13.2246 26.5603H21.8887L22.486 29.062Z" fill="#3C3F4D"/>
<path d="M26.2855 31.1216V32H5.79688V31.1216C5.79688 29.9841 6.719 29.062 7.85644 29.062H24.2258C25.3633 29.062 26.2855 29.9841 26.2855 31.1216Z" fill="#2D303B"/>
<path d="M26.2849 31.1216V32H9.31738V31.1216C9.31738 29.9841 10.2395 29.062 11.3777 29.062H24.2253C25.3628 29.062 26.2849 29.9841 26.2849 31.1216Z" fill="#3C3F4D"/>
<path d="M5.86405 6.25879H18.917L20.5802 22.2639H4.20117L5.86405 6.25879Z" fill="#FF491F"/>
<path d="M12.2817 11.4336H21.3552L22.511 22.2639H11.126L12.2817 11.4336Z" fill="#ED3618"/>
<path d="M13.5212 11.4336H22.5945L23.7505 22.2639H12.3652L13.5212 11.4336Z" fill="#FFE14D"/>
<path d="M15.9121 8.31277C15.8479 8.31277 15.7843 8.30012 15.7249 8.27553C15.6656 8.25094 15.6117 8.2149 15.5663 8.16946C15.5209 8.12403 15.4848 8.07009 15.4603 8.01073C15.4357 7.95138 15.4231 7.88776 15.4231 7.82352V4.59571C15.4231 2.92359 14.0628 1.56321 12.3906 1.56321C10.7185 1.56321 9.35813 2.92359 9.35813 4.59571V7.82352C9.35813 7.95325 9.3066 8.07766 9.21487 8.16939C9.12314 8.26112 8.99873 8.31265 8.86901 8.31265C8.73928 8.31265 8.61487 8.26112 8.52314 8.16939C8.43142 8.07766 8.37988 7.95325 8.37988 7.82352V4.59571C8.37988 2.38402 10.1793 0.584961 12.3906 0.584961C14.602 0.584961 16.4014 2.38434 16.4014 4.59571V7.82352C16.4014 7.88777 16.3887 7.9514 16.3642 8.01076C16.3396 8.07012 16.3035 8.12406 16.2581 8.16949C16.2127 8.21493 16.1587 8.25096 16.0994 8.27555C16.04 8.30013 15.9764 8.31278 15.9121 8.31277Z" fill="#3C3F4D"/>
<path d="M18.0582 18.1039C16.6287 18.1039 15.4659 16.9411 15.4659 15.5117V13.4086C15.4651 13.3439 15.4772 13.2797 15.5015 13.2197C15.5257 13.1597 15.5617 13.1052 15.6071 13.0592C15.6526 13.0131 15.7068 12.9766 15.7665 12.9517C15.8262 12.9267 15.8903 12.9139 15.955 12.9139C16.0197 12.9139 16.0838 12.9267 16.1435 12.9517C16.2032 12.9766 16.2574 13.0131 16.3029 13.0592C16.3484 13.1052 16.3843 13.1597 16.4085 13.2197C16.4328 13.2797 16.4449 13.3439 16.4442 13.4086V15.5117C16.4442 16.4018 17.1682 17.1257 18.0582 17.1257C18.9481 17.1257 19.6722 16.4018 19.6722 15.5117V13.4086C19.6711 13.3437 19.683 13.2793 19.7071 13.219C19.7312 13.1588 19.7671 13.1039 19.8126 13.0577C19.8581 13.0114 19.9124 12.9747 19.9723 12.9496C20.0321 12.9245 20.0964 12.9116 20.1613 12.9116C20.2262 12.9116 20.2904 12.9245 20.3503 12.9496C20.4102 12.9747 20.4644 13.0114 20.5099 13.0577C20.5555 13.1039 20.5913 13.1588 20.6155 13.219C20.6396 13.2793 20.6515 13.3437 20.6504 13.4086V15.5117C20.6504 16.9411 19.4876 18.1039 18.0582 18.1039Z" fill="white"/>
<path d="M29.7368 4.7815C29.7368 7.42237 27.596 9.563 24.9553 9.563C22.3145 9.563 20.1738 7.42237 20.1738 4.7815C20.1738 2.14087 22.3145 0 24.9553 0C27.596 0 29.7368 2.14087 29.7368 4.7815Z" fill="#32CC77"/>
<path d="M24.4538 7.68068C24.3665 7.68063 24.2809 7.65728 24.2058 7.61303C24.1306 7.56877 24.0686 7.50524 24.0263 7.42899L22.7218 5.08111C22.5906 4.84505 22.6756 4.54718 22.912 4.41611C23.1483 4.28505 23.4459 4.36993 23.577 4.60624L24.4249 6.13211L26.2965 2.28205C26.3239 2.22321 26.3627 2.17042 26.4108 2.12675C26.4588 2.08307 26.515 2.0494 26.5762 2.02769C26.6374 2.00597 26.7023 1.99665 26.7671 2.00027C26.8319 2.00389 26.8953 2.02038 26.9537 2.04876C27.0121 2.07715 27.0642 2.11688 27.1071 2.16562C27.15 2.21437 27.1827 2.27116 27.2034 2.33269C27.2241 2.39422 27.2324 2.45925 27.2277 2.52399C27.223 2.58874 27.2054 2.6519 27.1761 2.7098L24.8936 7.4053C24.8544 7.48577 24.794 7.55396 24.7188 7.60248C24.6436 7.65099 24.5566 7.67798 24.4671 7.68049C24.4628 7.68049 24.4583 7.68074 24.4537 7.68074L24.4538 7.68068Z" fill="white"/>
<path d="M30.2296 13.4201H25.534C25.4043 13.4201 25.2799 13.3686 25.1882 13.2769C25.0965 13.1852 25.0449 13.0607 25.0449 12.931C25.0449 12.8013 25.0965 12.6769 25.1882 12.5852C25.2799 12.4934 25.4043 12.4419 25.534 12.4419H30.2296C30.2938 12.4419 30.3574 12.4545 30.4168 12.4791C30.4761 12.5037 30.53 12.5398 30.5755 12.5852C30.6209 12.6306 30.6569 12.6845 30.6814 12.7439C30.706 12.8032 30.7186 12.8668 30.7186 12.9311C30.7186 13.0608 30.6671 13.1852 30.5754 13.2769C30.4837 13.3686 30.3593 13.4201 30.2296 13.4201ZM30.2296 15.7028H26.5125C26.3828 15.7028 26.2584 15.6513 26.1667 15.5596C26.075 15.4678 26.0234 15.3434 26.0234 15.2137C26.0234 15.084 26.075 14.9596 26.1667 14.8678C26.2584 14.7761 26.3828 14.7246 26.5125 14.7246H30.2296C30.2938 14.7246 30.3575 14.7372 30.4168 14.7618C30.4761 14.7864 30.5301 14.8225 30.5755 14.8679C30.6209 14.9133 30.6569 14.9673 30.6815 15.0266C30.706 15.086 30.7186 15.1496 30.7186 15.2138C30.7186 15.3435 30.6671 15.4679 30.5754 15.5596C30.4837 15.6513 30.3593 15.7028 30.2296 15.7028Z" fill="#3C3F4D"/>
</g>
<defs>
<clipPath id="clip0_727_9507">
<rect width="32" height="32" fill="white"/>
</clipPath>
</defs>
</svg>
