<svg width="32" height="32" viewBox="0 0 32 32" fill="none" xmlns="http://www.w3.org/2000/svg">
<circle cx="16" cy="16" r="16" fill="#D9ECCD"/>
<g clip-path="url(#clip0_1948_87151)">
<path d="M18 14.6667C18.368 14.6667 18.6667 14.9653 18.6667 15.3333C18.6667 15.7013 18.368 16 18 16C17.632 16 17.3333 15.7013 17.3333 15.3333C17.3333 14.9653 17.632 14.6667 18 14.6667ZM20.6667 15.3333C20.6667 15.7013 20.9653 16 21.3333 16C21.7013 16 22 15.7013 22 15.3333C22 14.9653 21.7013 14.6667 21.3333 14.6667C20.9653 14.6667 20.6667 14.9653 20.6667 15.3333ZM14.6667 8.33333C14.6667 8.14933 14.816 8 15 8H15.2067C16.004 8 16.682 8.55733 16.8393 9.33333H22.666C23.0953 9.33333 23.4867 9.53133 23.7407 9.87733C23.9947 10.2233 24.066 10.656 23.9373 11.066L23.384 12.832C23.1647 13.5307 22.5253 14 21.7933 14H18.362C17.546 14 16.8547 13.416 16.718 12.6113L16.192 9.5C16.1107 9.01667 15.696 8.66667 15.206 8.66667H14.9993C14.8153 8.66667 14.666 8.51733 14.666 8.33333H14.6667ZM16.9533 10L17.376 12.5C17.458 12.9827 17.8727 13.3333 18.362 13.3333H21.7933C22.2327 13.3333 22.6153 13.052 22.7473 12.6327L23.3013 10.8667C23.366 10.6613 23.33 10.4453 23.2033 10.272C23.0767 10.0987 22.8813 10 22.666 10H16.9533ZM23.6667 14.6667C23.4827 14.6667 23.3333 14.816 23.3333 15V18.3333C23.3333 19.62 22.2867 20.6667 21 20.6667H11C9.71333 20.6667 8.66667 19.62 8.66667 18.3333V13C8.66667 11.7133 9.71333 10.6667 11 10.6667H14.3333C14.5173 10.6667 14.6667 10.5173 14.6667 10.3333C14.6667 10.1493 14.5173 10 14.3333 10H11C9.346 10 8 11.346 8 13V18.3333C8 19.9873 9.346 21.3333 11 21.3333H15.6667V23.3333H13C12.816 23.3333 12.6667 23.4827 12.6667 23.6667C12.6667 23.8507 12.816 24 13 24H19C19.184 24 19.3333 23.8507 19.3333 23.6667C19.3333 23.4827 19.184 23.3333 19 23.3333H16.3333V21.3333H21C22.654 21.3333 24 19.9873 24 18.3333V15C24 14.816 23.8507 14.6667 23.6667 14.6667Z" fill="#338000"/>
</g>
<defs>
<clipPath id="clip0_1948_87151">
<rect width="16" height="16" fill="white" transform="translate(8 8)"/>
</clipPath>
</defs>
</svg>
