<svg width="54" height="54" viewBox="0 0 54 54" fill="none" xmlns="http://www.w3.org/2000/svg">
<path d="M3.99222 39.9138H50.0078C51.8079 36.3924 52.8234 32.4032 52.8234 28.1769C52.8234 13.9151 41.2619 2.35352 27.0001 2.35352C12.7383 2.35352 1.17688 13.915 1.17688 28.1768C1.17667 32.4032 2.1922 36.3924 3.99222 39.9138Z" fill="#FFD304"/>
<path d="M28.2924 3.23305C27.5837 2.67379 27.2423 2.11053 27.2777 1.55855C27.3321 0.710503 28.2661 0.141342 28.2756 0.13565L28.3905 0.0668237L28.3644 0H24.2852C21.5596 0 19.1549 1.43692 17.7865 3.58951C17.8193 3.93448 17.9541 4.58407 18.4937 4.99976C19.0149 5.40123 19.7685 5.47364 20.7359 5.21583C20.78 5.14574 20.8277 5.07702 20.8803 5.01041C21.6753 4.00415 22.9059 3.35721 24.2852 3.35721H28.4548C28.4005 3.31631 28.3462 3.27552 28.2924 3.23305Z" fill="#6C5475"/>
<path d="M21.2939 8.3114C20.2823 7.49518 20.0744 6.03012 20.8803 5.01026C17.8563 5.92377 17.9336 3.38478 17.9343 3.36328C17.0864 4.59973 16.5884 6.09262 16.5884 7.6966C16.5884 8.02376 16.4612 8.33954 16.2288 8.56973C15.5619 9.22996 15.1382 10.1348 15.1034 11.1389C17.1465 9.98719 19.3467 9.13978 21.6345 8.62338C21.5274 8.51261 21.4136 8.40842 21.2939 8.3114Z" fill="#543E5B"/>
<path d="M37.7753 8.57428C37.6598 8.4593 37.5682 8.32261 37.5058 8.17209C37.4434 8.02157 37.4114 7.8602 37.4116 7.69725C37.4123 6.53612 37.148 5.39013 36.6387 4.34668C36.6214 4.39727 36.6039 4.44776 36.5861 4.49782C36.3991 5.02303 36.0853 5.38245 35.6538 5.56595C34.7212 5.96278 33.5232 5.43125 33.5112 5.42566L33.4879 5.41512L33.4627 5.41249C33.4599 5.41217 33.4262 5.40827 33.3681 5.39994C33.8623 6.37553 33.5993 7.59353 32.7113 8.30751C32.5896 8.40569 32.4739 8.51122 32.365 8.6235C34.6526 9.13985 36.8527 9.98716 38.8957 11.1387C38.861 10.1372 38.4396 9.23398 37.7753 8.57428Z" fill="#6C5475"/>
<path d="M33.1197 5.01062C33.2535 5.18062 33.3626 5.36869 33.4436 5.56924L33.446 5.56956C33.446 5.56956 35.9628 6.71104 36.7338 4.55339C35.5256 1.87612 32.8295 0 29.7148 0H28.1945C28.1945 0 25.7703 1.4444 28.1945 3.35721H29.7147C31.094 3.35721 32.3247 4.00415 33.1197 5.01062Z" fill="#81698C"/>
<path d="M51.1651 33.5816C50.7663 33.9804 50.3905 34.152 50.0487 34.0909C49.4971 33.9923 49.1806 33.3189 49.1769 33.3108C49.0981 33.1432 41.2878 16.5267 40.5868 14.6316C40.4001 14.1274 40.4037 13.7415 40.5971 13.4845C40.8737 13.1171 41.4755 13.0787 41.7146 13.0787C41.776 13.0787 41.8134 13.0812 41.8152 13.0813L41.8859 13.0866L41.9531 13.0219C37.8314 9.79496 32.6406 7.87109 27.0002 7.87109C21.1733 7.87109 15.8266 9.92471 11.6425 13.3466C11.5849 13.6233 11.5437 14.1036 11.8163 14.4944C12.0595 14.8429 12.4894 15.0345 13.0958 15.0654C13.0703 15.3706 13.0786 15.9875 13.4831 16.4143C13.7963 16.7446 14.2726 16.886 14.9012 16.8364C14.6581 18.0026 13.7192 23.5277 16.8066 27.2116C18.9757 29.8001 22.6266 30.9437 27.6579 30.6116C27.5189 31.6458 27.072 36.4655 30.1821 39.9291C32.7356 42.7728 36.9817 44.0073 42.8024 43.5987C42.8378 43.8808 42.9673 44.4478 43.4405 44.7516C43.8529 45.0162 44.4149 45.012 45.1134 44.7391C45.1674 44.9626 45.3049 45.3117 45.6541 45.5542C45.7477 45.6189 45.8491 45.6716 45.9559 45.711C47.5568 43.9812 48.9251 42.033 50.0081 39.9141C50.6938 37.8819 51.1169 35.729 51.2392 33.4959C51.2132 33.5286 51.1884 33.5583 51.1651 33.5816Z" fill="#E4E5EA"/>
<path d="M41.8246 12.9231C41.7757 12.9197 39.7353 12.7856 40.4384 14.686C41.1499 16.6094 49.0338 33.3777 49.0338 33.3777C49.0338 33.3777 49.8171 35.0887 51.2246 33.7424C51.2589 33.2151 51.2769 32.6835 51.2769 32.1475C51.2769 24.3222 47.5733 17.3628 41.8246 12.9231Z" fill="#F7F7F7"/>
<path d="M45.2369 44.5154C42.9733 45.5185 42.9471 43.429 42.9471 43.429C25.2064 44.7564 27.8433 30.4394 27.8433 30.4394C11.2955 31.6482 15.1035 16.654 15.1035 16.654C12.8686 16.9713 13.2746 14.9108 13.2746 14.9108C11.2418 14.9108 11.8343 13.2242 11.851 13.1777C6.2878 17.6264 2.72327 24.47 2.72327 32.1471C2.72327 34.8632 3.16953 37.4749 3.99228 39.9133C7.21648 46.2212 12.9588 51.0276 19.8932 53.0086H34.107C38.769 51.6767 42.8906 49.0665 46.072 45.5829C45.2734 45.3277 45.2369 44.5154 45.2369 44.5154Z" fill="#D2D3DE"/>
<path d="M13.0956 15.0645C13.07 15.3697 13.0784 15.9866 13.4829 16.4134C13.796 16.7437 14.2723 16.885 14.901 16.8355C14.6579 18.0016 13.719 23.5267 16.8064 27.2107C18.9755 29.7992 22.6264 30.9428 27.6576 30.6107C27.5186 31.6449 27.0717 36.4646 30.1819 39.9281C32.7354 42.7718 36.9814 44.0064 42.8022 43.5978C42.8376 43.8798 42.967 44.4469 43.4403 44.7506C43.8448 45.0101 44.3935 45.0104 45.0734 44.7529C47.5695 41.1811 49.0337 36.8352 49.0337 32.147C49.0337 19.9781 39.1689 10.1133 27 10.1133C21.7227 10.1133 16.8794 11.9695 13.0853 15.0635C13.0888 15.0637 13.092 15.0642 13.0956 15.0645Z" fill="#6C5475"/>
<path d="M42.947 43.4288C25.2063 44.7562 27.8432 30.4393 27.8432 30.4393C11.2954 31.6481 15.1034 16.6539 15.1034 16.6539C12.8739 16.9704 13.2725 14.9213 13.2744 14.9111C8.21146 18.9482 4.96619 25.1682 4.96619 32.1469C4.96619 41.8285 11.2107 50.0513 19.8917 53.0083C22.1499 53.6536 24.5345 53.9995 26.9999 53.9995C29.4653 53.9995 31.8498 53.6536 34.1081 53.0083C38.6779 51.4517 42.5719 48.4352 45.2358 44.5155C42.9732 45.5178 42.947 43.4288 42.947 43.4288Z" fill="#543E5B"/>
<path d="M14.9009 16.8359C14.6579 18.002 13.719 23.5271 16.8064 27.211C18.4184 29.1346 20.8485 30.2603 24.0554 30.5753C25.9397 30.7605 27.4267 32.2396 27.6682 34.1175C27.9019 35.9351 28.5555 38.1172 30.182 39.9284C32.7355 42.7721 36.9815 44.0067 42.8023 43.598L42.8059 43.624C45.1594 40.3882 46.5448 36.4028 46.533 32.0926C46.5036 21.3624 37.7185 12.6078 26.988 12.6143C22.409 12.617 18.1992 14.196 14.8702 16.8371C14.8806 16.8365 14.8903 16.8367 14.9009 16.8359Z" fill="#FF8719"/>
<path d="M42.9471 43.4297C30.9347 44.3284 28.2649 38.0548 27.7933 33.9096C27.5819 32.0529 26.1046 30.5991 24.2433 30.4345C11.9424 29.3464 15.0719 16.7801 15.1031 16.6562C10.4324 20.2486 7.43132 25.9047 7.46736 32.2611C7.5286 43.0519 16.4274 51.7975 27.2179 51.6796C33.7133 51.6086 39.4477 48.3671 42.9471 43.4297Z" fill="#FF6124"/>
<path d="M40.6699 38.0979C40.6699 36.4379 39.545 35.0413 38.0162 34.6269C38.8337 33.8453 39.3438 32.7449 39.3438 31.5245C39.3438 29.154 37.422 27.2322 35.0515 27.2322C34.2339 27.2313 33.4333 27.465 32.7447 27.9056C31.8591 26.4492 30.2572 25.4762 28.4281 25.4762C28.1272 25.4762 27.8329 25.5041 27.5464 25.5546C27.6757 25.1719 27.7416 24.7706 27.7415 24.3667C27.7415 22.3142 26.0777 20.6504 24.0252 20.6504C22.4777 20.6504 21.1516 21.5965 20.5926 22.9416C19.992 22.6738 19.3417 22.5356 18.6842 22.5361C16.0907 22.5361 13.9883 24.6385 13.9883 27.232C13.9883 29.8255 16.0907 31.9279 18.6842 31.9279C21.011 31.9279 22.9414 30.2352 23.314 28.0142C23.5393 28.0579 23.7718 28.0815 24.0097 28.0825C23.5957 28.8296 23.379 29.67 23.3801 30.5242C23.3801 33.1518 25.3878 35.3097 27.9529 35.5493C27.6524 36.1872 27.497 36.8836 27.4977 37.5886C27.4977 40.2359 29.6438 42.3818 32.2909 42.3818C32.5018 42.3818 32.709 42.3667 32.9128 42.3403C32.8657 42.5712 32.8421 42.8062 32.8423 43.0418C32.8423 44.9705 34.4058 46.5341 36.3345 46.5341C38.2632 46.5341 39.8268 44.9705 39.8268 43.0418C39.8277 42.3146 39.6004 41.6054 39.1769 41.0141C40.081 40.3612 40.6699 39.2986 40.6699 38.0979Z" fill="#FF6124"/>
<path d="M21.5226 30.4456V25.3242C21.5226 24.7415 21.9995 24.2646 22.5822 24.2646H20.0634C19.4806 24.2646 19.0038 24.7415 19.0038 25.3242V30.4456C19.0038 31.0284 19.4806 31.5052 20.0634 31.5052H22.5822C21.9995 31.5052 21.5226 31.0284 21.5226 30.4456Z" fill="#FFC43F"/>
<path d="M24.78 30.5176V25.2524C24.78 24.8158 25.0409 24.438 25.414 24.2646H22.4057C21.8229 24.2646 21.3461 24.7415 21.3461 25.3242V30.4456C21.3461 31.0284 21.8229 31.5052 22.4057 31.5052H25.414C25.0409 31.3319 24.78 30.9542 24.78 30.5176Z" fill="#FFDA59"/>
<path d="M27.527 24.2646H25.3084C24.9353 24.438 24.6744 24.8158 24.6744 25.2524V30.5176C24.6744 30.9542 24.9353 31.3319 25.3084 31.5053H27.527C28.1097 31.5053 28.5866 31.0285 28.5866 30.4457V25.3243C28.5867 24.7415 28.1099 24.2646 27.527 24.2646Z" fill="#FCE4A1"/>
<path d="M31.8374 32.0693L33.7474 36.8213C33.9647 37.362 33.7002 37.9823 33.1594 38.1996L35.4965 37.2602C36.0372 37.0428 36.3019 36.4226 36.0845 35.8819L34.1746 31.1299C33.9572 30.5892 33.337 30.3245 32.7963 30.5419L30.4591 31.4813C30.9998 31.264 31.6201 31.5286 31.8374 32.0693Z" fill="#FFC43F"/>
<path d="M30.6936 38.1957L28.7116 33.2646C28.5456 32.8516 28.6512 32.3945 28.9418 32.0918L25.8711 33.326C25.3304 33.5434 25.0657 34.1636 25.2831 34.7043L27.193 39.4563C27.4104 39.997 28.0307 40.2617 28.5714 40.0443L31.5081 38.864C31.153 38.7951 30.8378 38.5544 30.6936 38.1957Z" fill="#FFDA59"/>
<path d="M33.9113 36.7559L32.0014 32.0039C31.784 31.4632 31.1637 31.1986 30.623 31.4159L28.777 32.1579C28.5318 32.4587 28.452 32.8807 28.6062 33.2645L30.5882 38.1957C30.7424 38.5793 31.0921 38.8288 31.4773 38.8762L33.3233 38.1342C33.864 37.9169 34.1287 37.2967 33.9113 36.7559Z" fill="#FCE4A1"/>
<path d="M22.981 16.1802L24.6347 20.2945C24.8228 20.7627 24.5938 21.2997 24.1256 21.4879L26.1492 20.6746C26.6174 20.4865 26.8464 19.9494 26.6582 19.4813L25.0045 15.367C24.8164 14.8988 24.2794 14.6696 23.8112 14.8579L21.7876 15.6712C22.2558 15.483 22.7928 15.712 22.981 16.1802Z" fill="#FFC43F"/>
<path d="M21.9272 21.4064L20.2137 17.1433C20.0938 16.845 20.1379 16.5201 20.3019 16.2686L17.8153 17.2681C17.3471 17.4562 17.1181 17.9932 17.3062 18.4614L18.9598 22.5757C19.148 23.0439 19.6851 23.273 20.1532 23.0848L22.8514 22.0002C22.4601 22.0167 22.081 21.7891 21.9272 21.4064Z" fill="#FFDA59"/>
<path d="M24.7765 20.2381L23.1229 16.1238C22.9348 15.6556 22.3977 15.4265 21.9296 15.6147L20.2619 16.285C20.0452 16.5454 19.9736 16.9141 20.1082 17.2489L21.8217 21.5121C21.9563 21.8469 22.2631 22.0635 22.5998 22.1016L24.2674 21.4313C24.7356 21.2433 24.9647 20.7063 24.7765 20.2381Z" fill="#FCE4A1"/>
<path d="M43.2003 38.0666L38.7842 37.6664C38.2817 37.6208 37.9078 37.1725 37.9533 36.6699L37.7564 38.8419C37.7109 39.3445 38.0848 39.7928 38.5873 39.8384L43.0034 40.2386C43.5059 40.2841 43.9543 39.9102 43.9998 39.4077L44.1967 37.2357C44.1512 37.7383 43.7028 38.1121 43.2003 38.0666Z" fill="#FFC43F"/>
<path d="M44.3671 34.088L44.353 34.2427C44.3147 34.6665 43.9383 34.9803 43.5145 34.942L39.0369 34.5362C38.6128 34.4978 38.2991 34.1215 38.3375 33.6976L38.3523 33.535L38.2384 33.5244L37.9395 36.8216C37.894 37.3242 38.2679 37.7726 38.7704 37.8181L43.1865 38.2183C43.689 38.2638 44.1374 37.89 44.1829 37.3874L44.481 34.0983L44.3671 34.088Z" fill="#FFDA59"/>
<path d="M43.7523 31.9754L39.3363 31.575C38.8337 31.5295 38.3853 31.9034 38.3398 32.4059L38.1984 33.9669C38.2837 34.3518 38.6104 34.6566 39.0226 34.694L43.5003 35.0998C43.9125 35.1373 44.2887 34.896 44.4418 34.5328L44.5833 32.9718C44.6287 32.4694 44.2549 32.0209 43.7523 31.9754Z" fill="#FCE4A1"/>
<path d="M15.2988 33.2853L10.8827 32.8851C10.3802 32.8396 10.0063 32.3911 10.0518 31.8887L9.85495 34.0607C9.80942 34.5632 10.1833 35.0116 10.6858 35.0571L15.1019 35.4573C15.6044 35.5028 16.0528 35.129 16.0983 34.6264L16.2952 32.4545C16.2497 32.957 15.8013 33.3309 15.2988 33.2853Z" fill="#FFC43F"/>
<path d="M12.9601 32.3937L13.3777 27.7859C13.4086 27.4455 13.6169 27.1627 13.9024 27.0184L11.4348 26.7948C10.9323 26.7492 10.4839 27.1231 10.4384 27.6256L10.0382 32.0417C9.99265 32.5442 10.3665 32.9926 10.869 33.0383L13.3678 33.2647C13.0951 33.074 12.928 32.7469 12.9601 32.3937Z" fill="#FFDA59"/>
<path d="M15.8509 27.1944L13.8135 27.0098C13.5196 27.1513 13.3038 27.4384 13.2723 27.7852L12.8547 32.3931C12.8233 32.7398 12.984 33.0611 13.2476 33.2531L15.2851 33.4378C15.7876 33.4833 16.236 33.1095 16.2815 32.6069L16.6818 28.1909C16.7273 27.6883 16.3535 27.24 15.8509 27.1944Z" fill="#FCE4A1"/>
<path d="M28.2337 47.4648L27.9197 42.353C27.8839 41.7713 28.3306 41.2661 28.9123 41.2305L26.3982 41.3849C25.8165 41.4206 25.3698 41.9258 25.4056 42.5074L25.7196 47.6192C25.7553 48.2009 26.2605 48.6476 26.8421 48.6119L29.3562 48.4574C28.7746 48.4932 28.2695 48.0465 28.2337 47.4648Z" fill="#FFC43F"/>
<path d="M31.7781 47.2806L31.4607 42.1137C31.4301 41.6141 31.7519 41.1716 32.2099 41.0273L28.7362 41.2407C28.1545 41.2764 27.7078 41.7816 27.7436 42.3632L28.0576 47.475C28.0933 48.0567 28.5985 48.5034 29.1802 48.4676L32.604 48.2574C32.1558 48.1519 31.8077 47.7623 31.7781 47.2806Z" fill="#FFDA59"/>
<path d="M35.2845 47.0313L34.9705 41.9195C34.9348 41.3378 34.4296 40.8911 33.8479 40.9268L32.0799 41.0354C31.635 41.1876 31.3251 41.6232 31.3553 42.1138L31.6727 47.2808C31.7028 47.7714 32.0637 48.1658 32.5238 48.2624L34.2917 48.1539C34.8734 48.1181 35.3202 47.6129 35.2845 47.0313Z" fill="#FCE4A1"/>
<path d="M31.7438 22.8275L35.1557 19.0081C35.544 18.5734 36.2172 18.5355 36.6518 18.9238L34.7734 17.2457C34.3387 16.8574 33.6655 16.8953 33.2772 17.33L29.8653 21.1494C29.477 21.5841 29.515 22.2573 29.9496 22.6456L31.8282 24.3236C31.3935 23.9353 31.3556 23.2621 31.7438 22.8275Z" fill="#FFC43F"/>
<path d="M37.9239 25.0923L33.9477 21.5403C33.64 21.2655 33.5238 20.8534 33.6078 20.4756L31.6121 22.7095C31.2239 23.1442 31.2618 23.8174 31.6965 24.2057L35.5159 27.6176C35.9504 28.0059 36.6237 27.968 37.012 27.5333L38.9893 25.3198C38.6305 25.4316 38.2231 25.3596 37.9239 25.0923Z" fill="#FFDA59"/>
<path d="M40.3396 22.2181L36.5202 18.8062C36.0857 18.4179 35.4124 18.4559 35.0241 18.8906L33.4995 20.5972C33.4222 20.9707 33.5389 21.3751 33.8423 21.6461L37.8185 25.1981C38.122 25.4692 38.5368 25.5397 38.8993 25.4209L40.4239 23.7143C40.8121 23.2797 40.7742 22.6064 40.3396 22.2181Z" fill="#FCE4A1"/>
<path d="M20.695 43.1884L16.3269 40.5146C15.8298 40.2103 15.6721 39.5547 15.9763 39.0576L14.6612 41.206C14.3569 41.7031 14.5147 42.3586 15.0118 42.6629L19.3799 45.3367C19.8769 45.641 20.5325 45.4832 20.8368 44.9862L22.1519 42.8378C21.8476 43.335 21.192 43.4926 20.695 43.1884Z" fill="#FFC43F"/>
<path d="M22.6496 40.0721L18.179 37.3356C17.8111 37.1103 17.626 36.697 17.669 36.293L15.8842 39.2087C15.5799 39.7057 15.7377 40.3613 16.2348 40.6656L20.6029 43.3394C21.1 43.6437 21.7556 43.4859 22.0598 42.9888L23.8952 39.9905C23.5482 40.2686 23.0491 40.3167 22.6496 40.0721Z" fill="#FFDA59"/>
<path d="M24.3829 37.1637L20.0148 34.4899C19.5178 34.1857 18.8622 34.3434 18.5579 34.8405L17.5682 36.4572C17.5053 36.8757 17.6914 37.3125 18.0735 37.5463L22.544 40.2828C22.9261 40.5167 23.3997 40.4838 23.7438 40.2374L24.7335 38.6206C25.0378 38.1236 24.88 37.468 24.3829 37.1637Z" fill="#FCE4A1"/>
<path d="M28.8848 34.3538C28.8303 34.8382 28.3198 35.1079 27.8745 34.9097C27.2176 34.6175 26.27 34.5069 25.302 35.4581C23.5419 37.1876 22.4075 38.4293 21.6112 37.6166C20.8633 36.8533 21.7772 36.0875 21.7772 36.0875C21.7772 36.0875 19.18 37.1324 20.0458 34.6681C20.0458 34.6681 16.8868 35.4647 16.7923 33.68C16.6967 31.8744 20.0376 32.4516 20.0376 32.4516C20.0376 32.4516 19.0275 30.8751 19.9037 30.2187C20.7162 29.6099 22.0698 31.4586 22.0698 31.4586C22.0698 31.4586 21.3208 29.8077 22.4748 29.5837C23.6289 29.3599 24.8765 32.0027 26.0039 32.7636C26.6991 33.2329 27.662 33.464 28.2982 33.5723C28.6692 33.6354 28.9275 33.9737 28.8855 34.3477L28.8848 34.3538Z" fill="#84BD36"/>
<path d="M28.0123 34.0062C28.3238 33.7739 28.3042 33.3142 27.9888 33.0871C27.5234 32.7524 27.0663 32.1443 27.332 31.0954C27.8152 29.1882 28.2139 27.9078 27.3342 27.6863C26.5079 27.4783 26.3482 28.4154 26.3482 28.4154C26.3482 28.4154 26.0234 26.2071 24.6747 27.7939C24.6747 27.7939 23.953 25.2986 22.6862 25.9511C21.4045 26.6113 23.1453 28.6795 23.1453 28.6795C23.1453 28.6795 21.6537 28.618 21.5541 29.4852C21.4616 30.2894 23.2787 30.4781 23.2787 30.4781C23.2787 30.4781 21.8409 30.6262 22.1507 31.5108C22.4606 32.3954 24.7818 32.1918 25.7592 32.6621C26.3619 32.952 26.9082 33.5221 27.2385 33.9166C27.4312 34.1467 27.7679 34.1886 28.0086 34.0092L28.0123 34.0062ZM32.1334 31.1729C32.516 31.2414 32.8381 30.9126 32.7879 30.5273C32.7141 29.9589 32.8451 29.2095 33.7921 28.6861C35.5141 27.7344 36.7211 27.1498 36.2811 26.3565C35.8678 25.6113 35.0748 26.1356 35.0748 26.1356C35.0748 26.1356 36.464 24.3885 34.3838 24.4895C34.3838 24.4895 35.7111 22.2566 34.3687 21.7784C33.0107 21.2947 32.6919 23.9791 32.6919 23.9791C32.6919 23.9791 31.7169 22.8487 31.016 23.3689C30.366 23.8513 31.4709 25.3063 31.4709 25.3063C31.4709 25.3063 30.3795 24.3584 29.9459 25.1894C29.5123 26.0204 31.2483 27.5749 31.5734 28.6096C31.7739 29.2476 31.7315 30.0361 31.6695 30.5469C31.6334 30.8448 31.8332 31.1191 32.1286 31.172L32.1334 31.1729ZM19.7496 26.5734C19.439 26.807 19.0033 26.6588 18.8743 26.2921C18.684 25.7514 18.2293 25.1414 17.1479 25.1012C15.1818 25.0278 13.8409 25.0501 13.8761 24.1436C13.9091 23.2921 14.8533 23.4027 14.8533 23.4027C14.8533 23.4027 12.8258 22.4692 14.728 21.6219C14.728 21.6219 12.5368 20.227 13.5195 19.1951C14.5138 18.1511 16.0083 20.4037 16.0083 20.4037C16.0083 20.4037 16.3691 18.9551 17.2294 19.1036C18.0271 19.2412 17.6966 21.038 17.6966 21.038C17.6966 21.038 18.2436 19.7001 19.0052 20.2463C19.7668 20.7927 18.9179 22.9628 19.094 24.033C19.2027 24.6929 19.5958 25.3775 19.8815 25.8056C20.048 26.0552 19.9933 26.3901 19.7535 26.5705L19.7496 26.5734Z" fill="#9BD146"/>
<path d="M26.6899 29.9962C26.8674 30.6555 26.6619 31.284 26.2308 31.4C25.7997 31.5161 25.3063 31.0758 25.1288 30.4165C24.9514 29.7572 25.157 29.1287 25.5881 29.0127C26.0192 28.8967 26.5124 29.3369 26.6899 29.9962Z" fill="#B2E456"/>
<path d="M31.2867 44.7511C31.8099 44.7511 32.234 44.327 32.234 43.8038C32.234 43.2806 31.8099 42.8564 31.2867 42.8564C30.7635 42.8564 30.3394 43.2806 30.3394 43.8038C30.3394 44.327 30.7635 44.7511 31.2867 44.7511Z" fill="#FFC43F"/>
<path d="M40.2911 36.3957C40.8143 36.3957 41.2384 35.9715 41.2384 35.4483C41.2384 34.9251 40.8143 34.501 40.2911 34.501C39.7679 34.501 39.3438 34.9251 39.3438 35.4483C39.3438 35.9715 39.7679 36.3957 40.2911 36.3957Z" fill="#FFC43F"/>
<path d="M37.7526 24.1593C38.2758 24.1593 38.7 23.7352 38.7 23.212C38.7 22.6888 38.2758 22.2646 37.7526 22.2646C37.2294 22.2646 36.8053 22.6888 36.8053 23.212C36.8053 23.7352 37.2294 24.1593 37.7526 24.1593Z" fill="#FFC43F"/>
<path d="M22.7172 18.2906C22.8008 17.7742 22.45 17.2877 21.9335 17.204C21.417 17.1204 20.9305 17.4712 20.8469 17.9877C20.7632 18.5042 21.1141 18.9907 21.6306 19.0743C22.1471 19.158 22.6335 18.8071 22.7172 18.2906Z" fill="#FFC43F"/>
<path d="M33.4504 46.0155C33.4504 46.1769 33.3863 46.3316 33.2722 46.4457C33.1581 46.5598 33.0034 46.6239 32.8421 46.6239C32.6807 46.6239 32.526 46.5598 32.4119 46.4457C32.2979 46.3316 32.2338 46.1769 32.2338 46.0155C32.2338 45.8542 32.2979 45.6995 32.4119 45.5854C32.526 45.4713 32.6807 45.4072 32.8421 45.4072C33.0034 45.4072 33.1581 45.4713 33.2722 45.5854C33.3863 45.6995 33.4504 45.8542 33.4504 46.0155Z" fill="#FFC43F"/>
<path d="M18.3292 40.1579C18.6651 40.1579 18.9375 39.8856 18.9375 39.5497C18.9375 39.2137 18.6651 38.9414 18.3292 38.9414C17.9933 38.9414 17.7209 39.2137 17.7209 39.5497C17.7209 39.8856 17.9933 40.1579 18.3292 40.1579Z" fill="#FFC43F"/>
<path d="M42.9471 34.7771C43.2831 34.7771 43.5554 34.5047 43.5554 34.1688C43.5554 33.8329 43.2831 33.5605 42.9471 33.5605C42.6112 33.5605 42.3389 33.8329 42.3389 34.1688C42.3389 34.5047 42.6112 34.7771 42.9471 34.7771Z" fill="#FFC43F"/>
<path d="M26.5176 25.8421C26.5176 26.0034 26.4535 26.1582 26.3394 26.2723C26.2253 26.3863 26.0706 26.4504 25.9092 26.4504C25.7479 26.4504 25.5932 26.3863 25.4791 26.2723C25.365 26.1582 25.3009 26.0034 25.3009 25.8421C25.3009 25.6808 25.365 25.526 25.4791 25.412C25.5932 25.2979 25.7479 25.2338 25.9092 25.2338C26.0706 25.2338 26.2253 25.2979 26.3394 25.412C26.4535 25.526 26.5176 25.6808 26.5176 25.8421ZM15.1844 28.7526C15.1844 28.914 15.1203 29.0687 15.0062 29.1828C14.8922 29.2969 14.7374 29.3609 14.5761 29.3609C14.4148 29.3609 14.26 29.2969 14.1459 29.1828C14.0319 29.0687 13.9678 28.914 13.9678 28.7526C13.9678 28.5913 14.0319 28.4366 14.1459 28.3225C14.26 28.2084 14.4148 28.1443 14.5761 28.1443C14.7374 28.1443 14.8922 28.2084 15.0062 28.3225C15.1203 28.4366 15.1844 28.5913 15.1844 28.7526ZM20.917 20.6503C20.917 20.8116 20.8529 20.9664 20.7388 21.0805C20.6248 21.1945 20.47 21.2586 20.3087 21.2586C20.1474 21.2586 19.9926 21.1945 19.8786 21.0805C19.7645 20.9664 19.7004 20.8116 19.7004 20.6503C19.7004 20.489 19.7645 20.3342 19.8786 20.2202C19.9926 20.1061 20.1474 20.042 20.3087 20.042C20.47 20.042 20.6248 20.1061 20.7388 20.2202C20.8529 20.3342 20.917 20.489 20.917 20.6503Z" fill="#FFC43F"/>
<path d="M30.5546 37.278C31.0599 37.278 31.4695 36.8684 31.4695 36.3631C31.4695 35.8578 31.0599 35.4482 30.5546 35.4482C30.0494 35.4482 29.6398 35.8578 29.6398 36.3631C29.6398 36.8684 30.0494 37.278 30.5546 37.278Z" fill="#FFC43F"/>
<path d="M13.4344 31.7413C13.9013 31.5481 14.1231 31.013 13.9299 30.5461C13.7367 30.0792 13.2016 29.8574 12.7348 30.0506C12.2679 30.2438 12.046 30.7789 12.2392 31.2457C12.4324 31.7126 12.9675 31.9345 13.4344 31.7413Z" fill="#FFC43F"/>
<path d="M21.346 40.4645C21.8513 40.4645 22.2609 40.0549 22.2609 39.5496C22.2609 39.0444 21.8513 38.6348 21.346 38.6348C20.8408 38.6348 20.4312 39.0444 20.4312 39.5496C20.4312 40.0549 20.8408 40.4645 21.346 40.4645Z" fill="#FFC43F"/>
<path d="M37.942 36.713L38.6018 36.1765C38.6725 36.119 38.7313 36.048 38.7747 35.9678C38.818 35.8875 38.8451 35.7995 38.8545 35.7088C38.8638 35.618 38.8552 35.5263 38.8291 35.4389C38.803 35.3515 38.76 35.2701 38.7024 35.1993L38.1659 34.5395C38.1084 34.4688 38.0375 34.41 37.9572 34.3666C37.877 34.3233 37.789 34.2961 37.6982 34.2868C37.6075 34.2774 37.5158 34.286 37.4284 34.3121C37.341 34.3382 37.2596 34.3812 37.1888 34.4388L36.529 34.9753C36.4582 35.0328 36.3994 35.1037 36.3561 35.184C36.3127 35.2642 36.2856 35.3522 36.2762 35.443C36.2668 35.5337 36.2755 35.6254 36.3015 35.7128C36.3276 35.8002 36.3707 35.8817 36.4282 35.9524L36.9647 36.6122C37.0222 36.683 37.0932 36.7418 37.1734 36.7852C37.2537 36.8286 37.3417 36.8557 37.4325 36.8651C37.5232 36.8744 37.6149 36.8658 37.7023 36.8397C37.7898 36.8136 37.8712 36.7706 37.942 36.713ZM14.8829 37.4999L15.5427 36.9634C15.6135 36.9059 15.6723 36.8349 15.7156 36.7547C15.759 36.6744 15.7861 36.5864 15.7955 36.4957C15.8048 36.405 15.7962 36.3133 15.7701 36.2259C15.744 36.1384 15.701 36.057 15.6434 35.9863L15.1069 35.3265C15.0494 35.2557 14.9784 35.1969 14.8982 35.1535C14.8179 35.1102 14.7299 35.083 14.6392 35.0737C14.5485 35.0643 14.4568 35.0729 14.3693 35.099C14.2819 35.1251 14.2005 35.1681 14.1297 35.2257L13.4699 35.7622C13.3992 35.8197 13.3404 35.8906 13.297 35.9709C13.2537 36.0511 13.2265 36.1392 13.2172 36.2299C13.2078 36.3206 13.2164 36.4123 13.2425 36.4997C13.2686 36.5872 13.3116 36.6686 13.3692 36.7393L13.9057 37.3992C14.0219 37.5421 14.1902 37.633 14.3734 37.6519C14.5567 37.6708 14.74 37.6161 14.8829 37.4999ZM33.2024 39.3605L34.0007 39.6536C34.1737 39.717 34.3648 39.7092 34.532 39.6318C34.6992 39.5543 34.8287 39.4137 34.8922 39.2407L35.1852 38.4424C35.2167 38.3568 35.2309 38.2658 35.2272 38.1746C35.2234 38.0835 35.2018 37.994 35.1634 37.9112C35.1251 37.8284 35.0708 37.754 35.0037 37.6922C34.9366 37.6304 34.858 37.5825 34.7724 37.551L33.9741 37.2581C33.8884 37.2267 33.7974 37.2124 33.7063 37.2162C33.6151 37.2199 33.5256 37.2415 33.4428 37.2799C33.36 37.3182 33.2856 37.3725 33.2238 37.4396C33.162 37.5067 33.114 37.5853 33.0826 37.671L32.7897 38.4693C32.7582 38.5549 32.744 38.6459 32.7477 38.737C32.7514 38.8281 32.7731 38.9177 32.8114 39.0004C32.8498 39.0832 32.904 39.1576 32.9711 39.2194C33.0382 39.2812 33.1168 39.3291 33.2024 39.3605ZM23.8355 45.8265L24.6338 46.1194C24.8068 46.1829 24.9979 46.1751 25.1651 46.0976C25.3322 46.0202 25.4618 45.8795 25.5253 45.7066L25.8182 44.9083C25.8496 44.8226 25.8639 44.7317 25.8601 44.6405C25.8564 44.5494 25.8347 44.4599 25.7964 44.3771C25.7581 44.2943 25.7038 44.2199 25.6367 44.1581C25.5696 44.0963 25.491 44.0483 25.4054 44.0169L24.607 43.7239C24.4341 43.6604 24.243 43.6683 24.0758 43.7457C23.9086 43.8231 23.779 43.9638 23.7156 44.1368L23.4227 44.9351C23.3592 45.108 23.3671 45.2991 23.4445 45.4663C23.5219 45.6335 23.6626 45.763 23.8355 45.8265ZM26.2861 22.6252L26.9459 22.0887C27.0167 22.0312 27.0754 21.9602 27.1188 21.88C27.1621 21.7997 27.1893 21.7117 27.1986 21.621C27.2079 21.5302 27.1993 21.4386 27.1732 21.3511C27.1471 21.2637 27.1041 21.1823 27.0465 21.1116L26.5101 20.4517C26.4525 20.381 26.3816 20.3222 26.3013 20.2788C26.2211 20.2355 26.1331 20.2083 26.0423 20.199C25.9516 20.1896 25.8599 20.1982 25.7725 20.2243C25.6851 20.2504 25.6037 20.2934 25.5329 20.351L24.8731 20.8875C24.8023 20.945 24.7435 21.0159 24.7002 21.0962C24.6568 21.1764 24.6297 21.2644 24.6203 21.3552C24.611 21.4459 24.6196 21.5376 24.6456 21.625C24.6717 21.7124 24.7148 21.7939 24.7723 21.8646L25.3088 22.5244C25.3663 22.5952 25.4373 22.654 25.5175 22.6974C25.5978 22.7408 25.6858 22.7679 25.7766 22.7773C25.8673 22.7866 25.959 22.778 26.0464 22.7519C26.1339 22.7258 26.2153 22.6828 26.2861 22.6252Z" fill="#9BD146"/>
</svg>
