<svg width="48" height="48" viewBox="0 0 48 48" fill="none" xmlns="http://www.w3.org/2000/svg">
<circle cx="24" cy="24" r="24" fill="#D9ECCD"/>
<g clip-path="url(#clip0_1983_100677)">
<path d="M24.5 14.025V12.5C24.5 12.224 24.276 12 24 12C23.724 12 23.5 12.224 23.5 12.5V14.025C17.667 14.289 13 19.103 13 25C13 27.901 14.137 30.535 15.978 32.502C14.921 32.948 14 33.892 14 35.5C14 35.776 14.224 36 14.5 36C14.776 36 15 35.776 15 35.5C15 33.95 16.121 33.443 16.779 33.277C18.714 34.967 21.236 36 24 36C26.764 36 29.287 34.967 31.221 33.277C31.879 33.442 33 33.949 33 35.5C33 35.776 33.224 36 33.5 36C33.776 36 34 35.776 34 35.5C34 33.892 33.08 32.948 32.022 32.502C33.863 30.535 35 27.901 35 25C35 19.103 30.333 14.289 24.5 14.025ZM14 25C14 19.486 18.486 15 24 15C29.514 15 34 19.486 34 25C34 30.514 29.514 35 24 35C18.486 35 14 30.514 14 25ZM36 16.5C36 16.776 35.776 17 35.5 17C35.224 17 35 16.776 35 16.5C35 14.821 33.773 13.038 31.5 13.038C31.224 13.038 31 12.814 31 12.538C31 12.262 31.224 12.038 31.5 12.038C34.023 12.038 36 13.998 36 16.5ZM13 16.5C13 16.776 12.776 17 12.5 17C12.224 17 12 16.776 12 16.5C12 13.998 13.977 12.038 16.5 12.038C16.776 12.038 17 12.262 17 12.538C17 12.814 16.776 13.038 16.5 13.038C14.227 13.038 13 14.822 13 16.5ZM27.838 18.232C27.481 17.971 27.026 17.926 26.652 18.115C26.237 18.324 25.999 18.777 25.999 19.357V31.5C25.999 31.776 26.223 32 26.499 32C26.775 32 26.999 31.776 26.999 31.5V28.256C29.036 26.852 29.999 25.177 29.999 23C29.999 20.931 28.722 18.869 27.837 18.232H27.838ZM27 27.024V19.357C27.012 19.08 27.061 18.919 27.253 19.043C27.863 19.481 29 21.226 29 23C29 24.662 28.393 25.905 27 27.024ZM21 18C19.552 18 18 20.935 18 23C18 24.565 19.027 25.735 20.5 25.954V31.5C20.5 31.776 20.724 32 21 32C21.276 32 21.5 31.776 21.5 31.5V25.954C22.973 25.735 24 24.565 24 23C24 20.935 22.448 18 21 18ZM21 25C19.804 25 19 24.196 19 23C19 21.241 20.356 19 21 19C21.644 19 23 21.241 23 23C23 24.196 22.196 25 21 25Z" fill="#338000"/>
</g>
<defs>
<clipPath id="clip0_1983_100677">
<rect width="24" height="24" fill="white" transform="translate(12 12)"/>
</clipPath>
</defs>
</svg>
