<svg width="24" height="28" viewBox="0 0 24 28" fill="none" xmlns="http://www.w3.org/2000/svg">
<path d="M23.8668 25.466L21.6001 20.1327C20.4001 17.1994 17.4668 15.3327 14.2668 15.3327H9.73344C6.53344 15.3327 3.6001 17.1994 2.4001 20.1327L0.133438 25.466C-0.133229 26.1327 0.133438 26.9327 0.800104 27.1993C1.46677 27.466 2.26677 27.1993 2.53344 26.5327L4.8001 21.1993C5.73344 19.3327 7.6001 17.9993 9.73344 17.9993H14.2668C16.4001 17.9993 18.2668 19.3327 19.2001 21.1993L21.4668 26.5327C21.7334 27.066 22.1334 27.3327 22.6668 27.3327C22.8001 27.3327 23.0668 27.3327 23.2001 27.1993C23.8668 26.9327 24.1334 26.1327 23.8668 25.466ZM12.0001 13.9993C15.7334 13.9993 18.6668 11.066 18.6668 7.33268C18.6668 3.59935 15.7334 0.666016 12.0001 0.666016C8.26677 0.666016 5.33344 3.59935 5.33344 7.33268C5.33344 11.066 8.26677 13.9993 12.0001 13.9993ZM12.0001 3.33268C14.2668 3.33268 16.0001 5.06602 16.0001 7.33268C16.0001 9.59935 14.2668 11.3327 12.0001 11.3327C9.73344 11.3327 8.0001 9.59935 8.0001 7.33268C8.0001 5.06602 9.73344 3.33268 12.0001 3.33268Z" fill="black"/>
</svg>
