<svg width="32" height="32" viewBox="0 0 32 32" fill="none" xmlns="http://www.w3.org/2000/svg">
<circle cx="16" cy="16" r="16" fill="#D9ECCD"/>
<g clip-path="url(#clip0_1948_86649)">
<path d="M21 9.33333H20V8.33333C20 8.14933 19.8507 8 19.6667 8C19.4827 8 19.3333 8.14933 19.3333 8.33333V9.33333H12.6667V8.33333C12.6667 8.14933 12.5173 8 12.3333 8C12.1493 8 12 8.14933 12 8.33333V9.33333H11C9.346 9.33333 8 10.6793 8 12.3333V21C8 22.654 9.346 24 11 24H21C22.654 24 24 22.654 24 21V12.3333C24 10.6793 22.654 9.33333 21 9.33333ZM11 10H21C22.2867 10 23.3333 11.0467 23.3333 12.3333V13.3333H8.66667V12.3333C8.66667 11.0467 9.71333 10 11 10ZM21 23.3333H11C9.71333 23.3333 8.66667 22.2867 8.66667 21V14H23.3333V21C23.3333 22.2867 22.2867 23.3333 21 23.3333ZM18.5133 17.3413H17.2173L16.8707 16.0113C16.768 15.62 16.4127 15.3407 15.994 15.3327C15.5873 15.3407 15.232 15.6193 15.13 16.0113L14.7833 17.3407H13.4873C12.9693 17.3407 12.6487 17.756 12.6487 18.1413C12.6487 18.498 12.8647 18.8387 13.2113 19.0313L14.044 19.494L13.662 20.5353C13.518 20.9293 13.646 21.364 13.9813 21.6167C14.1493 21.7433 14.35 21.806 14.5507 21.806C14.7553 21.806 14.9593 21.74 15.1293 21.6093L16.0013 20.9353L16.8727 21.6093C17.2087 21.8693 17.6807 21.872 18.0207 21.6167C18.356 21.364 18.484 20.9293 18.34 20.5353L17.958 19.494L18.79 19.0313C19.1373 18.8387 19.3533 18.4973 19.3533 18.1413C19.3533 17.756 19.0327 17.3407 18.5147 17.3407L18.5133 17.3413ZM18.4647 18.4493L17.134 19.1893L17.712 20.7653C17.754 20.88 17.7153 21.0113 17.618 21.0847C17.518 21.1593 17.3787 21.1587 17.2793 21.0827L16 20.0933L14.7207 21.0827C14.6213 21.1593 14.482 21.1607 14.382 21.0847C14.2847 21.0113 14.246 20.88 14.2873 20.7653L14.866 19.1887L13.5353 18.4487C13.426 18.388 13.3153 18.2687 13.3153 18.1413C13.3153 18.1053 13.356 18.0073 13.4873 18.0073H15.298L15.7747 16.1793C15.802 16.0753 15.8973 16.0007 15.994 15.9987C16.1033 16.0007 16.1987 16.0747 16.2253 16.1787L16.702 18.0067H18.5127C18.644 18.0067 18.6847 18.1047 18.6847 18.1407C18.6847 18.2687 18.574 18.3873 18.464 18.448L18.4647 18.4493Z" fill="#42A004"/>
</g>
<defs>
<clipPath id="clip0_1948_86649">
<rect width="16" height="16" fill="white" transform="translate(8 8)"/>
</clipPath>
</defs>
</svg>
