<svg width="32" height="32" viewBox="0 0 32 32" fill="none" xmlns="http://www.w3.org/2000/svg">
<circle cx="16" cy="16" r="16" fill="#D9ECCD"/>
<g clip-path="url(#clip0_2013_42840)">
<path d="M18 9.55867V8.33333C18 8.14933 17.8507 8 17.6667 8C17.4827 8 17.3333 8.14933 17.3333 8.33333V9.35733C17.2247 9.342 17.1133 9.33333 17 9.33333H15.3333V8.33333C15.3333 8.14933 15.184 8 15 8C14.816 8 14.6667 8.14933 14.6667 8.33333V9.33333H12.6667V8.33333C12.6667 8.14933 12.5173 8 12.3333 8C12.1493 8 12 8.14933 12 8.33333V9.33333H10.3333C10.22 9.33333 10.1087 9.34133 10 9.35733V8.33333C10 8.14933 9.85067 8 9.66667 8C9.48267 8 9.33333 8.14933 9.33333 8.33333V9.55867C8.546 9.934 8 10.738 8 11.6667V21C8 22.654 9.346 24 11 24H16.3333C17.9873 24 19.3333 22.654 19.3333 21V11.6667C19.3333 10.738 18.7873 9.934 18 9.55867ZM18.6667 21C18.6667 22.2867 17.62 23.3333 16.3333 23.3333H11C9.71333 23.3333 8.66667 22.2867 8.66667 21V11.6667C8.66667 10.7473 9.41467 10 10.3333 10H17C17.9187 10 18.6667 10.7473 18.6667 11.6667V21ZM16.6667 12.3333C16.6667 12.5173 16.5173 12.6667 16.3333 12.6667H11C10.816 12.6667 10.6667 12.5173 10.6667 12.3333C10.6667 12.1493 10.816 12 11 12H16.3333C16.5173 12 16.6667 12.1493 16.6667 12.3333ZM16.6667 15C16.6667 15.184 16.5173 15.3333 16.3333 15.3333H11C10.816 15.3333 10.6667 15.184 10.6667 15C10.6667 14.816 10.816 14.6667 11 14.6667H16.3333C16.5173 14.6667 16.6667 14.816 16.6667 15ZM14.6667 17.6667C14.6667 17.8507 14.5173 18 14.3333 18H11C10.816 18 10.6667 17.8507 10.6667 17.6667C10.6667 17.4827 10.816 17.3333 11 17.3333H14.3333C14.5173 17.3333 14.6667 17.4827 14.6667 17.6667ZM22.3333 8C21.4147 8 20.6667 8.74733 20.6667 9.66667V21.5053C20.6667 22.12 20.916 22.7207 21.35 23.1553L22.0973 23.9027C22.1627 23.968 22.248 24 22.3333 24C22.4187 24 22.504 23.9673 22.5693 23.9027L23.3167 23.1553C23.7513 22.7213 24 22.12 24 21.5053V9.66667C24 8.74733 23.252 8 22.3333 8ZM23.3333 21.5053C23.3333 21.944 23.1553 22.374 22.8453 22.684L22.3333 23.196L21.8213 22.684C21.5113 22.374 21.3333 21.9447 21.3333 21.5053V9.66667C21.3333 9.11533 21.782 8.66667 22.3333 8.66667C22.8847 8.66667 23.3333 9.11533 23.3333 9.66667V21.5053Z" fill="#338000"/>
</g>
<defs>
<clipPath id="clip0_2013_42840">
<rect width="16" height="16" fill="white" transform="translate(8 8)"/>
</clipPath>
</defs>
</svg>
