<svg width="22" height="25" viewBox="0 0 22 25" fill="none" xmlns="http://www.w3.org/2000/svg">
<path d="M0.762451 23.4183V3.88732C0.762451 3.44745 1.11903 3.09082 1.55895 3.09082H17.662C18.1019 3.09082 18.4585 3.4474 18.4585 3.88732V23.4183C18.4585 23.8582 18.1019 24.2148 17.662 24.2148H1.5589C1.11903 24.2148 0.762451 23.8582 0.762451 23.4183Z" fill="#0E80AC"/>
<path d="M17.662 3.09082H16.7356V23.4183C16.7356 23.8582 16.379 24.2148 15.9391 24.2148H17.662C18.1019 24.2148 18.4585 23.8582 18.4585 23.4183V3.88732C18.4585 3.4474 18.1019 3.09082 17.662 3.09082Z" fill="#057195"/>
<path d="M2.48669 3.09082V21.7369C2.48669 22.027 2.72191 22.2622 3.01207 22.2622H16.2089C16.4991 22.2622 16.7343 22.027 16.7343 21.7369V3.09082H2.48669Z" fill="#F7F0F0"/>
<path d="M11.1882 1.35709C11.1882 0.72625 10.6768 0.214844 10.046 0.214844H9.17493C8.54409 0.214844 8.03268 0.72625 8.03268 1.35709C8.03268 1.67711 7.77323 1.93656 7.45321 1.93656H6.75627C6.11877 1.93656 5.60193 2.45336 5.60193 3.09091V3.69733C5.60193 3.99995 5.84723 4.24525 6.14985 4.24525H13.071C13.3737 4.24525 13.619 3.99995 13.619 3.69733V3.09091C13.619 2.45341 13.1022 1.93656 12.4646 1.93656H11.7677C11.4476 1.93656 11.1882 1.67711 11.1882 1.35709Z" fill="#FD7E42"/>
<path d="M12.4646 1.93656H11.7676C11.4476 1.93656 11.1882 1.67711 11.1882 1.35709C11.1882 0.72625 10.6768 0.214844 10.0459 0.214844H9.45642V1.96066C9.45642 2.28067 9.71587 2.54012 10.0359 2.54012H10.7328C11.3703 2.54012 11.8872 3.05692 11.8872 3.69447V4.24525H13.071C13.3736 4.24525 13.6189 3.99995 13.6189 3.69733V3.09091C13.6189 2.45336 13.1021 1.93656 12.4646 1.93656Z" fill="#FA6931"/>
<path d="M5.33725 8.87308L4.54333 8.16737C4.47155 8.10356 4.42806 8.01384 4.42242 7.91796C4.41679 7.82208 4.44947 7.72789 4.51328 7.65611C4.54487 7.62056 4.58316 7.59158 4.62595 7.57083C4.66874 7.55007 4.7152 7.53795 4.76268 7.53516C4.81016 7.53237 4.85772 7.53895 4.90265 7.55454C4.94758 7.57013 4.989 7.59442 5.02455 7.62601L5.77056 8.28911L6.92153 6.64295C6.94877 6.60396 6.98343 6.57072 7.02353 6.54513C7.06362 6.51955 7.10837 6.50211 7.1552 6.49382C7.20204 6.48553 7.25005 6.48655 7.29649 6.49683C7.34293 6.5071 7.38689 6.52643 7.42586 6.5537C7.50458 6.60875 7.55822 6.69281 7.57496 6.7874C7.59171 6.88198 7.5702 6.97935 7.51516 7.05808L6.32744 8.75678C6.09944 9.08275 5.6365 9.13914 5.33725 8.87308ZM5.3373 14.1638L4.54328 13.458C4.4715 13.3942 4.42801 13.3044 4.42238 13.2086C4.41674 13.1127 4.44942 13.0185 4.51323 12.9467C4.54483 12.9111 4.58312 12.8822 4.62591 12.8614C4.66871 12.8406 4.71517 12.8285 4.76266 12.8257C4.81014 12.8229 4.85771 12.8295 4.90264 12.8451C4.94758 12.8607 4.989 12.885 5.02455 12.9166L5.77052 13.5797L6.92149 11.9335C6.97693 11.8558 7.06082 11.8031 7.15492 11.7869C7.24901 11.7707 7.3457 11.7923 7.42395 11.847C7.50219 11.9018 7.55567 11.9852 7.57274 12.0791C7.58981 12.173 7.5691 12.2699 7.51511 12.3487L6.32739 14.0474C6.09939 14.3735 5.63655 14.4297 5.3373 14.1638ZM5.33725 19.3833L4.54333 18.6776C4.47155 18.6138 4.42806 18.5241 4.42242 18.4282C4.41679 18.3323 4.44947 18.2381 4.51328 18.1663C4.54487 18.1308 4.58316 18.1018 4.62595 18.081C4.66874 18.0603 4.7152 18.0482 4.76268 18.0454C4.81016 18.0426 4.85772 18.0492 4.90265 18.0648C4.94758 18.0803 4.989 18.1046 5.02455 18.1362L5.77056 18.7993L6.92153 17.1532C6.97697 17.0754 7.06087 17.0227 7.15496 17.0065C7.24906 16.9903 7.34575 17.0119 7.42399 17.0667C7.50224 17.1214 7.55572 17.2048 7.57279 17.2987C7.58986 17.3927 7.56915 17.4895 7.51516 17.5683L6.32744 19.267C6.09944 19.5929 5.6365 19.6493 5.33725 19.3833Z" fill="#FBA615"/>
<path d="M14.437 7.40205H9.31875C9.2227 7.40205 9.13058 7.36389 9.06266 7.29597C8.99475 7.22806 8.95659 7.13594 8.95659 7.03989C8.95659 6.94384 8.99475 6.85172 9.06266 6.78381C9.13058 6.71589 9.2227 6.67773 9.31875 6.67773H14.437C14.6371 6.67773 14.7992 6.83987 14.7992 7.03989C14.7992 7.23991 14.6371 7.40205 14.437 7.40205ZM14.437 9.01159H9.31875C9.2227 9.01159 9.13058 8.97344 9.06266 8.90552C8.99475 8.8376 8.95659 8.74549 8.95659 8.64944C8.95659 8.55339 8.99475 8.46127 9.06266 8.39335C9.13058 8.32544 9.2227 8.28728 9.31875 8.28728H14.437C14.6371 8.28728 14.7992 8.44942 14.7992 8.64944C14.7992 8.84945 14.6371 9.01159 14.437 9.01159ZM14.437 12.5766H9.31875C9.2227 12.5766 9.13058 12.5384 9.06266 12.4705C8.99475 12.4026 8.95659 12.3105 8.95659 12.2144C8.95659 12.1184 8.99475 12.0263 9.06266 11.9583C9.13058 11.8904 9.2227 11.8523 9.31875 11.8523H14.437C14.6371 11.8523 14.7992 12.0144 14.7992 12.2144C14.7992 12.4144 14.6371 12.5766 14.437 12.5766ZM11.8778 14.1861H9.3187C9.22265 14.1861 9.13053 14.148 9.06262 14.0801C8.9947 14.0121 8.95654 13.92 8.95654 13.824C8.95654 13.7279 8.9947 13.6358 9.06262 13.5679C9.13053 13.5 9.22265 13.4618 9.3187 13.4618H11.8778C11.9254 13.4618 11.9725 13.4712 12.0164 13.4894C12.0604 13.5076 12.1003 13.5342 12.1339 13.5679C12.1676 13.6015 12.1942 13.6414 12.2124 13.6854C12.2306 13.7293 12.24 13.7764 12.24 13.824C12.24 13.8715 12.2306 13.9186 12.2125 13.9626C12.1943 14.0065 12.1676 14.0464 12.1339 14.0801C12.1003 14.1137 12.0604 14.1404 12.0164 14.1586C11.9725 14.1768 11.9254 14.1861 11.8778 14.1861Z" fill="#786E79"/>
<path d="M19.8177 10.262L18.4113 9.13477L17.9268 9.39666L9.71008 19.6487L8.40391 22.2715C8.35239 22.3749 8.33782 22.4929 8.36263 22.6057C8.38745 22.7186 8.45014 22.8195 8.5403 22.8918C8.63045 22.964 8.74262 23.0032 8.85816 23.0029C8.97369 23.0025 9.08562 22.9626 9.17533 22.8898L11.4508 21.0438L19.6676 10.7918L19.8177 10.262Z" fill="#FA6931"/>
<path d="M9.72147 19.6338L8.40808 22.2712C8.35629 22.3751 8.34166 22.4937 8.36661 22.6072C8.39157 22.7206 8.45461 22.8221 8.54526 22.8948C8.6359 22.9674 8.74868 23.0069 8.86485 23.0065C8.98101 23.0062 9.09356 22.9661 9.18377 22.8929L11.4719 21.0367L9.72147 19.6338Z" fill="#557981"/>
<path d="M20.8196 7.57029C20.3389 7.18503 19.6369 7.26237 19.2517 7.74307L17.9269 9.39598L19.6676 10.7911L20.9924 9.13822C21.3776 8.65756 21.3002 7.95556 20.8196 7.57029Z" fill="#FFC3AB"/>
</svg>
