<svg width="25" height="24" viewBox="0 0 25 24" fill="none" xmlns="http://www.w3.org/2000/svg">
<path fill-rule="evenodd" clip-rule="evenodd" d="M4.86486 15.4645C5.80254 14.5268 7.07431 14 8.40039 14H16.4004C17.7265 14 18.9982 14.5268 19.9359 15.4645C20.8736 16.4021 21.4004 17.6739 21.4004 19V21C21.4004 21.5523 20.9527 22 20.4004 22C19.8481 22 19.4004 21.5523 19.4004 21V19C19.4004 18.2044 19.0843 17.4413 18.5217 16.8787C17.9591 16.3161 17.196 16 16.4004 16H8.40039C7.60474 16 6.84168 16.3161 6.27907 16.8787C5.71646 17.4413 5.40039 18.2044 5.40039 19V21C5.40039 21.5523 4.95268 22 4.40039 22C3.84811 22 3.40039 21.5523 3.40039 21V19C3.40039 17.6739 3.92717 16.4021 4.86486 15.4645Z" fill="#484C52"/>
<path fill-rule="evenodd" clip-rule="evenodd" d="M12.4004 4C10.7435 4 9.40039 5.34315 9.40039 7C9.40039 8.65685 10.7435 10 12.4004 10C14.0572 10 15.4004 8.65685 15.4004 7C15.4004 5.34315 14.0572 4 12.4004 4ZM7.40039 7C7.40039 4.23858 9.63897 2 12.4004 2C15.1618 2 17.4004 4.23858 17.4004 7C17.4004 9.76142 15.1618 12 12.4004 12C9.63897 12 7.40039 9.76142 7.40039 7Z" fill="#484C52"/>
</svg>
