<svg width="25" height="24" viewBox="0 0 25 24" fill="none" xmlns="http://www.w3.org/2000/svg">
<path fill-rule="evenodd" clip-rule="evenodd" d="M9.71576 2.43037C9.93666 2.93656 9.70538 3.52597 9.19919 3.74686C7.85179 4.33485 6.66893 5.24395 5.75403 6.39469C4.83914 7.54543 4.22006 8.90277 3.95093 10.348C3.6818 11.7933 3.7708 13.2825 4.21016 14.6854C4.64952 16.0883 5.42586 17.3623 6.47131 18.3959C7.51675 19.4294 8.79947 20.1912 10.2073 20.6145C11.6152 21.0378 13.1053 21.1098 14.5474 20.8242C15.9895 20.5385 17.3397 19.904 18.4799 18.976C19.6201 18.0481 20.5156 16.8549 21.0882 15.5009C21.3033 14.9922 21.89 14.7542 22.3987 14.9693C22.9074 15.1844 23.1454 15.7711 22.9303 16.2798C22.2305 17.9347 21.1359 19.393 19.7423 20.5272C18.3487 21.6614 16.6985 22.437 14.936 22.7861C13.1734 23.1351 11.3521 23.0472 9.63143 22.5298C7.91073 22.0124 6.34296 21.0814 5.06519 19.8181C3.78743 18.5549 2.83857 16.9978 2.30157 15.2831C1.76457 13.5685 1.65579 11.7483 1.98473 9.9819C2.31367 8.21546 3.07032 6.55649 4.18852 5.15003C5.30673 3.74357 6.75244 2.63245 8.39927 1.9138C8.90546 1.69291 9.49487 1.92418 9.71576 2.43037Z" fill="#484C52"/>
<path fill-rule="evenodd" clip-rule="evenodd" d="M12.0917 1.29289C12.2793 1.10536 12.5336 1 12.7988 1C14.2434 1 15.6738 1.28452 17.0083 1.83733C18.3429 2.39013 19.5556 3.20038 20.577 4.22183C21.5984 5.24327 22.4087 6.4559 22.9615 7.79048C23.5143 9.12506 23.7988 10.5555 23.7988 12C23.7988 12.5523 23.3511 13 22.7988 13H12.7988C12.2465 13 11.7988 12.5523 11.7988 12V2C11.7988 1.73478 11.9042 1.48043 12.0917 1.29289ZM13.7988 3.05573V11H21.7431C21.6493 10.1614 21.4379 9.33849 21.1137 8.55585C20.6615 7.46392 19.9985 6.47177 19.1628 5.63604C18.3271 4.80031 17.3349 4.13738 16.243 3.68508C15.4603 3.3609 14.6374 3.14949 13.7988 3.05573Z" fill="#484C52"/>
</svg>
