<svg width="32" height="32" viewBox="0 0 32 32" fill="none" xmlns="http://www.w3.org/2000/svg">
<circle cx="16" cy="16" r="16" fill="#D9ECCD"/>
<g clip-path="url(#clip0_2013_42834)">
<path d="M23.788 11.9773C23.748 11.9927 23.7073 12 23.6667 12C23.5333 12 23.4073 11.9193 23.356 11.788L22.32 9.13267C19.9607 14.698 15.2867 18.354 8.41067 19.9907C8.38467 19.9973 8.35867 20 8.33333 20C8.18267 20 8.046 19.8973 8.00933 19.744C7.96667 19.5647 8.07733 19.3847 8.25667 19.342C14.958 17.7467 19.4947 14.1873 21.7527 8.76733L18.9573 9.858C18.7873 9.92533 18.5927 9.84 18.526 9.66867C18.4593 9.49733 18.544 9.304 18.7153 9.23733L21.648 8.09267C21.8753 8.004 22.1233 8.008 22.3473 8.10667C22.5713 8.20533 22.744 8.38467 22.8327 8.61267L23.9773 11.546C24.0447 11.7173 23.9593 11.9107 23.788 11.9773ZM22.3333 13.3333C22.1493 13.3333 22 13.4827 22 13.6667V23.6667C22 23.8507 22.1493 24 22.3333 24C22.5173 24 22.6667 23.8507 22.6667 23.6667V13.6667C22.6667 13.4827 22.5173 13.3333 22.3333 13.3333ZM19 16.6667C18.816 16.6667 18.6667 16.816 18.6667 17V23.6667C18.6667 23.8507 18.816 24 19 24C19.184 24 19.3333 23.8507 19.3333 23.6667V17C19.3333 16.816 19.184 16.6667 19 16.6667ZM12.3333 20C12.1493 20 12 20.1493 12 20.3333V23.6667C12 23.8507 12.1493 24 12.3333 24C12.5173 24 12.6667 23.8507 12.6667 23.6667V20.3333C12.6667 20.1493 12.5173 20 12.3333 20ZM9 21.3333C8.816 21.3333 8.66667 21.4827 8.66667 21.6667V23.6667C8.66667 23.8507 8.816 24 9 24C9.184 24 9.33333 23.8507 9.33333 23.6667V21.6667C9.33333 21.4827 9.184 21.3333 9 21.3333ZM15.6667 18.6667C15.4827 18.6667 15.3333 18.816 15.3333 19V23.6667C15.3333 23.8507 15.4827 24 15.6667 24C15.8507 24 16 23.8507 16 23.6667V19C16 18.816 15.8507 18.6667 15.6667 18.6667ZM8 12C8 9.794 9.794 8 12 8C14.206 8 16 9.794 16 12C16 14.206 14.206 16 12 16C9.794 16 8 14.206 8 12ZM12 15.3333C12.478 15.3333 12.9307 15.228 13.3427 15.046C13.3407 15.0307 13.3333 15.0167 13.3333 15V14.6667C13.3333 13.9313 12.7353 13.3333 12 13.3333C11.2647 13.3333 10.6667 13.9313 10.6667 14.6667V15C10.6667 15.016 10.66 15.03 10.6573 15.046C11.0687 15.228 11.5213 15.3333 12 15.3333ZM8.66667 12C8.66667 13.0853 9.196 14.042 10.0013 14.6507C10.01 13.5553 10.902 12.6667 12 12.6667C13.098 12.6667 13.99 13.5553 13.9987 14.6507C14.804 14.0413 15.3333 13.0853 15.3333 12C15.3333 10.162 13.838 8.66667 12 8.66667C10.162 8.66667 8.66667 10.162 8.66667 12ZM10.6667 10.6667C10.6667 9.93133 11.2647 9.33333 12 9.33333C12.7353 9.33333 13.3333 9.93133 13.3333 10.6667C13.3333 11.402 12.7353 12 12 12C11.2647 12 10.6667 11.402 10.6667 10.6667ZM11.3333 10.6667C11.3333 11.0347 11.6327 11.3333 12 11.3333C12.3673 11.3333 12.6667 11.0347 12.6667 10.6667C12.6667 10.2987 12.3673 10 12 10C11.6327 10 11.3333 10.2987 11.3333 10.6667Z" fill="#338000"/>
</g>
<defs>
<clipPath id="clip0_2013_42834">
<rect width="16" height="16" fill="white" transform="translate(8 8)"/>
</clipPath>
</defs>
</svg>
