<svg width="24" height="25" viewBox="0 0 24 25" fill="none" xmlns="http://www.w3.org/2000/svg">
<g clip-path="url(#clip0_1073_37823)">
<path d="M3.71705 14.3379H0.620156C0.277594 14.3379 0 14.6155 0 14.958V24.1642H4.3372V14.958C4.3372 14.6155 4.05947 14.3379 3.71705 14.3379Z" fill="#49C3E0"/>
<path d="M2.06892 14.3379H0.620156C0.277594 14.3379 0 14.6155 0 14.958V24.1641H1.44872V14.958C1.44872 14.6155 1.72636 14.3379 2.06892 14.3379Z" fill="#00A5C6"/>
<path d="M10.2713 11.9092H7.17448C6.83187 11.9092 6.55432 12.1868 6.55432 12.5293V24.1643H10.8915V12.5293C10.8915 12.1867 10.6137 11.9092 10.2713 11.9092Z" fill="#3AC7B4"/>
<path d="M8.62315 11.9092H7.17448C6.83187 11.9092 6.55432 12.1868 6.55432 12.5293V24.1643H8.00299V12.5293C8.00299 12.1867 8.28059 11.9092 8.62315 11.9092Z" fill="#00AD94"/>
<path d="M16.8256 9.48047H13.7288C13.3864 9.48047 13.1086 9.75806 13.1086 10.1006V24.1641H17.4458V10.1006C17.4458 9.75806 17.1683 9.48047 16.8257 9.48047H16.8256Z" fill="#FFCD38"/>
<path d="M15.1775 9.48047H13.7288C13.3864 9.48047 13.1086 9.75825 13.1086 10.1006V24.1642H14.5574V10.1006C14.5574 9.75806 14.8351 9.48047 15.1775 9.48047H15.1775Z" fill="#E7B835"/>
<path d="M23.3798 7.05176H20.2829C19.9405 7.05176 19.663 7.32935 19.663 7.67191V24.1641H24V7.67196C24 7.32935 23.7224 7.05181 23.3798 7.05181V7.05176Z" fill="#FF8C57"/>
<path d="M21.7318 7.05176H20.283C19.9406 7.05176 19.6628 7.32935 19.6628 7.67191V24.1643H21.1116V7.67196C21.1116 7.32935 21.3893 7.05181 21.7317 7.05181L21.7318 7.05176Z" fill="#EC6A34"/>
<path d="M22.8846 0.400775L18.9664 0.261978C18.6425 0.250634 18.4442 0.613728 18.6291 0.880119L19.2612 1.78982C17.1331 3.06477 10.3234 6.64907 1.04675 6.64907V9.25134C7.33316 9.25134 12.5263 7.69443 15.776 6.38831C18.1534 5.43267 19.8579 4.47651 20.7491 3.93215L21.3096 4.7391C21.4945 5.00535 21.9041 4.94634 22.0065 4.63874L23.2443 0.918603C23.3272 0.669228 23.1472 0.410103 22.8846 0.400775Z" fill="#DA5B65"/>
</g>
<defs>
<clipPath id="clip0_1073_37823">
<rect width="24" height="24" fill="white" transform="translate(0 0.214844)"/>
</clipPath>
</defs>
</svg>
