<svg width="24" height="24" viewBox="0 0 24 24" fill="none" xmlns="http://www.w3.org/2000/svg">
<circle cx="12" cy="12" r="12" fill="#D9ECCD"/>
<g clip-path="url(#clip0_1998_11338)">
<path d="M10.1953 8.017L10.7548 8.4725L10.5338 9.137C10.4648 9.356 10.5423 9.5955 10.7263 9.7335C10.8208 9.804 10.9333 9.841 11.0508 9.841C11.1583 9.841 11.2623 9.8095 11.3523 9.7495L12.0048 9.3125L12.6698 9.746C12.8623 9.871 13.1138 9.8605 13.2958 9.721C13.4778 9.5805 13.5518 9.3395 13.4778 9.1175L13.2503 8.4695L13.8073 8.0155C13.9808 7.8695 14.0453 7.6285 13.9673 7.4155C13.8893 7.2025 13.6853 7.0595 13.4583 7.0595H12.7593L12.5078 6.3535C12.4298 6.142 12.2258 6 12.0003 6C11.7748 6 11.5708 6.142 11.4913 6.356L11.2408 7.059H10.5418C10.3153 7.059 10.1113 7.2015 10.0333 7.413C9.95477 7.625 10.0183 7.867 10.1953 8.017ZM10.5418 7.559H11.4168C11.5223 7.559 11.6168 7.4925 11.6523 7.393L11.9623 6.524H12.0373L12.3473 7.393C12.3828 7.4925 12.4773 7.559 12.5828 7.559H13.4578L13.4878 7.63L12.7978 8.1925C12.7163 8.259 12.6848 8.3695 12.7198 8.469L13.0053 9.283L12.9418 9.327L12.1388 8.804C12.0548 8.749 11.9468 8.7505 11.8633 8.8055L11.0738 9.334C11.0648 9.34 11.0563 9.341 11.0503 9.341L11.0093 9.2905L11.2838 8.466C11.3163 8.3675 11.2848 8.2585 11.2043 8.1935L10.5108 7.6295L10.5418 7.559ZM17.9673 8.861C17.8893 8.648 17.6853 8.505 17.4583 8.505H16.7593L16.5078 7.799C16.4298 7.5875 16.2258 7.4455 16.0003 7.4455C15.7748 7.4455 15.5708 7.5875 15.4913 7.8015L15.2408 8.5045H14.5418C14.3153 8.5045 14.1108 8.6475 14.0338 8.8585C13.9553 9.071 14.0183 9.312 14.1953 9.462L14.7548 9.9175L14.5338 10.582C14.4648 10.801 14.5423 11.0405 14.7258 11.178C14.8198 11.249 14.9323 11.286 15.0508 11.286C15.1583 11.286 15.2623 11.2545 15.3523 11.1945L16.0048 10.7575L16.6698 11.191C16.8618 11.316 17.1138 11.3055 17.2958 11.166C17.4778 11.0255 17.5518 10.7845 17.4778 10.5625L17.2503 9.9145L17.8073 9.4605C17.9808 9.3145 18.0453 9.074 17.9673 8.861ZM16.7983 9.638C16.7168 9.7045 16.6853 9.815 16.7203 9.9145L17.0058 10.7285L16.9423 10.7725L16.1393 10.2495C16.0553 10.195 15.9468 10.196 15.8638 10.251L15.0743 10.7795C15.0653 10.7855 15.0568 10.7865 15.0508 10.7865L15.0098 10.736L15.2843 9.9115C15.3168 9.813 15.2853 9.704 15.2048 9.639L14.5113 9.075L14.5423 9.005H15.4173C15.5228 9.005 15.6173 8.9385 15.6528 8.839L15.9628 7.97H16.0378L16.3478 8.839C16.3833 8.9385 16.4778 9.005 16.5833 9.005H17.4583L17.4883 9.076L16.7983 9.638ZM8.66927 11.1915C8.86177 11.3165 9.11327 11.306 9.29527 11.1665C9.47727 11.026 9.55127 10.785 9.47727 10.563L9.24977 9.915L9.80677 9.461C9.98027 9.315 10.0448 9.074 9.96677 8.861C9.88877 8.648 9.68477 8.505 9.45777 8.505H8.75877L8.50727 7.799C8.42927 7.5875 8.22527 7.4455 7.99977 7.4455C7.77427 7.4455 7.57027 7.5875 7.49077 7.8015L7.24027 8.5045H6.54127C6.31477 8.5045 6.11027 8.6475 6.03327 8.8585C5.95477 9.071 6.01777 9.312 6.19477 9.462L6.75427 9.9175L6.53327 10.582C6.46427 10.801 6.54177 11.0405 6.72527 11.178C6.81927 11.249 6.93177 11.286 7.05027 11.286C7.15777 11.286 7.26177 11.2545 7.35177 11.1945L8.00427 10.7575L8.66927 11.191V11.1915ZM7.86327 10.251L7.07377 10.7795C7.06477 10.7855 7.05627 10.7865 7.05027 10.7865L7.00927 10.736L7.28377 9.9115C7.31627 9.813 7.28477 9.704 7.20427 9.639L6.51077 9.075L6.54177 9.005H7.41677C7.52227 9.005 7.61677 8.9385 7.65227 8.839L7.96227 7.97H8.03727L8.34727 8.839C8.38277 8.9385 8.47727 9.005 8.58277 9.005H9.45777L9.48777 9.076L8.79777 9.6385C8.71627 9.705 8.68477 9.8155 8.71977 9.915L9.00527 10.729L8.94177 10.773L8.13877 10.25C8.05527 10.1955 7.94677 10.1965 7.86327 10.2515V10.251ZM14.4998 13H12.4083L12.7018 11.335C12.7094 11.1657 12.7094 11.0768 12.7018 11.0685C12.6413 10.8465 12.5008 10.6715 12.3063 10.576C12.1093 10.48 11.8823 10.476 11.6658 10.566C11.5388 10.6185 11.4148 10.7495 11.3263 10.922L10.2283 12.9995H9.50027C8.67327 12.9995 8.00027 13.6725 8.00027 14.4995V16.4995C8.00027 17.3265 8.67327 17.9995 9.50027 17.9995H13.6898C14.6398 17.9995 15.4648 17.323 15.6513 16.3915L15.9708 14.7935C16.0593 14.351 15.9458 13.8975 15.6598 13.5485C15.3738 13.1995 14.9513 12.9995 14.4998 12.9995V13ZM8.50027 16.5V14.5C8.50027 13.9485 8.94877 13.5 9.50027 13.5H10.0003V17.5H9.50027C8.94877 17.5 8.50027 17.0515 8.50027 16.5ZM15.4803 14.696L15.1608 16.294C15.0208 16.9925 14.4023 17.5 13.6898 17.5H10.5003V13.4195C10.5708 13.374 10.6298 13.3105 10.6703 13.2335L11.7703 11.153C11.8173 11.061 11.8613 11.0275 11.8588 11.0275C11.9403 10.9935 12.0208 10.993 12.0863 11.025C12.1363 11.0495 12.1758 11.0925 12.2098 11.1705L11.9168 12.9125C11.8908 13.0585 11.9303 13.207 12.0258 13.3215C12.1213 13.435 12.2608 13.5 12.4088 13.5H14.5003C14.8013 13.5 15.0828 13.6335 15.2733 13.866C15.4643 14.0985 15.5393 14.401 15.4803 14.696Z" fill="#338000"/>
</g>
<defs>
<clipPath id="clip0_1998_11338">
<rect width="12" height="12" fill="white" transform="translate(6 6)"/>
</clipPath>
</defs>
</svg>
