<svg width="24" height="24" viewBox="0 0 24 24" fill="none" xmlns="http://www.w3.org/2000/svg">
<path d="M23.9374 8.73712C23.8607 8.49929 23.7156 8.28931 23.5204 8.13334C23.3251 7.97738 23.0882 7.88234 22.8393 7.86007L15.9123 7.23103L13.1731 0.819778C12.9711 0.349937 12.5112 0.0458984 12.0001 0.0458984C11.4891 0.0458984 11.0291 0.349984 10.8271 0.820949L8.08796 7.23108L1.1598 7.86007C0.911176 7.88284 0.674703 7.97808 0.479701 8.13399C0.284698 8.2899 0.139741 8.4996 0.0628033 8.73712C-0.0952164 9.22313 0.0507092 9.75616 0.435797 10.0922L5.67187 14.6842L4.12786 21.4854C4.01489 21.9855 4.20896 22.5025 4.6239 22.8024C4.84689 22.9635 5.10785 23.0456 5.37097 23.0456C5.59785 23.0456 5.82286 22.9844 6.02489 22.8635L12.0001 19.2923L17.9732 22.8635C18.4102 23.1265 18.9612 23.1025 19.3752 22.8024C19.5779 22.6557 19.733 22.4526 19.8212 22.2185C19.9094 21.9843 19.9268 21.7294 19.8713 21.4854L18.3273 14.6842L23.5633 10.0931C23.7517 9.9286 23.8876 9.71238 23.9541 9.4713C24.0206 9.23023 24.0148 8.97493 23.9374 8.73712Z" fill="#FFC107"/>
</svg>
