<svg width="24" height="24" viewBox="0 0 24 24" fill="none" xmlns="http://www.w3.org/2000/svg">
<path d="M24 12C24 11.8542 23.9974 11.709 23.9923 11.5645C23.763 5.13881 18.4816 0 12 0C5.51836 0 0.237 5.13881 0.00778125 11.5645C0.002625 11.709 0 11.8542 0 12C0 18.6274 6.16416 23.5645 12 23.5645C17.9416 23.5645 24 18.6274 24 12Z" fill="#FF5876"/>
<path d="M12 23.129C5.51845 23.129 0.238031 17.99 0.00871875 11.5645C0.00320001 11.7096 0.000293286 11.8548 0 12C0 18.6274 5.37258 24 12 24C18.6274 24 24 18.6274 24 12C24 11.8541 23.9965 11.7091 23.9913 11.5645C23.762 17.9901 18.4815 23.129 12 23.129Z" fill="#E6485D"/>
<path d="M22.004 11.5642C21.776 6.23602 17.3843 1.98633 12 1.98633C6.61573 1.98633 2.22401 6.23602 1.99601 11.5642C1.98983 11.7086 1.99597 21.3761 12 21.3761C22.0041 21.3761 22.0102 11.7086 22.004 11.5642Z" fill="#E4EEF9"/>
<path d="M12 21.1423C6.61579 21.1423 2.22477 16.8925 1.99668 11.5645C1.99024 11.7095 1.98691 11.8547 1.98669 11.9999C1.98669 17.5301 6.46982 22.0133 12 22.0133C17.5303 22.0133 22.0134 17.5302 22.0134 12C22.0134 11.854 22.0095 11.7089 22.0034 11.5645C21.7753 16.8926 17.3843 21.1423 12 21.1423Z" fill="#D5E0F2"/>
<path d="M15.6373 8.48638C15.3519 8.20489 14.8923 8.20803 14.6109 8.49341L12.9077 10.2201L13.0789 11.0422L13.8744 11.3072L15.6444 9.5128C15.9258 9.22743 15.9227 8.76786 15.6373 8.48638ZM10.9726 10.2862L7.11004 6.84411C6.81074 6.57739 6.35198 6.60383 6.0853 6.90313C5.81863 7.20238 5.84502 7.66119 6.14432 7.92786L10.083 11.4378L10.9037 11.164L10.9726 10.2862Z" fill="#405B6C"/>
<path d="M17.1392 16.6797C17.0539 16.6798 16.9713 16.6497 16.906 16.5947L12.3088 12.7332C12.2357 12.6711 12.1902 12.5826 12.1822 12.4871C12.1742 12.3915 12.2043 12.2967 12.2659 12.2232C12.3276 12.1498 12.4158 12.1038 12.5113 12.0952C12.6068 12.0866 12.7019 12.1162 12.7756 12.1774L17.3728 16.039C17.4298 16.0869 17.4707 16.1511 17.4899 16.2231C17.5092 16.295 17.5058 16.3711 17.4803 16.4411C17.4548 16.511 17.4084 16.5715 17.3474 16.6141C17.2864 16.6568 17.2137 16.6797 17.1392 16.6797Z" fill="#86DCFF"/>
<path d="M10.083 11.4383L10.7608 12.0423L11.6313 11.7465L11.5841 10.8316L10.9727 10.2868C10.5473 10.5424 10.2253 10.9519 10.083 11.4383ZM12.9077 10.2207L12.3314 10.805V11.9518H13.2392L13.8744 11.3078C13.6999 10.8355 13.3517 10.4477 12.9077 10.2207Z" fill="#2D4456"/>
<path d="M13.1616 11.5646C12.9853 11.0944 12.5317 10.7598 11.9999 10.7598C11.4682 10.7598 11.0146 11.0944 10.8382 11.5646C10.7874 11.7001 10.8349 12.805 11.9999 12.805C13.165 12.805 13.2125 11.7001 13.1616 11.5646Z" fill="#FF5876"/>
<path d="M12 12.3693C11.4683 12.3693 11.0148 12.0346 10.8385 11.5645C10.7862 11.7037 10.7595 11.8512 10.7596 11.9999C10.7596 12.685 11.315 13.2402 12 13.2402C12.685 13.2402 13.2403 12.6849 13.2403 11.9999C13.2403 11.8466 13.2123 11.7 13.1615 11.5645C12.9852 12.0346 12.5318 12.3693 12 12.3693Z" fill="#E6485D"/>
<path d="M12.3636 4.38636V3.26009C12.3636 3.16366 12.3253 3.07117 12.2571 3.00298C12.1889 2.93479 12.0964 2.89648 12 2.89648C11.9036 2.89648 11.8111 2.93479 11.7429 3.00298C11.6747 3.07117 11.6364 3.16366 11.6364 3.26009V4.38636C11.6364 4.58717 11.7991 4.74997 12 4.74997C12.2009 4.74997 12.3636 4.58717 12.3636 4.38636ZM11.6364 19.6139V20.7402C11.6364 20.941 11.7991 21.1038 12 21.1038C12.2009 21.1038 12.3636 20.941 12.3636 20.7402V19.6139C12.3636 19.5175 12.3253 19.425 12.2571 19.3568C12.1889 19.2886 12.0964 19.2503 12 19.2503C11.9036 19.2503 11.8111 19.2886 11.7429 19.3568C11.6747 19.425 11.6364 19.5175 11.6364 19.6139ZM20.74 12.3637C20.8365 12.3637 20.929 12.3254 20.9971 12.2572C21.0653 12.189 21.1036 12.0966 21.1036 12.0001C21.1036 11.9037 21.0653 11.8112 20.9971 11.743C20.929 11.6748 20.8365 11.6365 20.74 11.6365H19.6138C19.5173 11.6365 19.4248 11.6748 19.3567 11.743C19.2885 11.8112 19.2502 11.9037 19.2502 12.0001C19.2502 12.0966 19.2885 12.189 19.3567 12.2572C19.4248 12.3254 19.5173 12.3637 19.6138 12.3637H20.74ZM3.25997 11.6365C3.05911 11.6365 2.89636 11.7993 2.89636 12.0001C2.89636 12.2009 3.05911 12.3637 3.25997 12.3637H4.38624C4.48267 12.3637 4.57516 12.3254 4.64335 12.2572C4.71154 12.189 4.74985 12.0966 4.74985 12.0001C4.74985 11.9037 4.71154 11.8112 4.64335 11.743C4.57516 11.6748 4.48267 11.6365 4.38624 11.6365H3.25997Z" fill="#405B6C"/>
</svg>
