<svg width="32" height="24" viewBox="0 0 32 24" fill="none" xmlns="http://www.w3.org/2000/svg">
<path d="M31.3125 16.6182V18.5388C31.3125 19.7274 30.8404 20.8673 30 21.7078C29.1596 22.5483 28.0198 23.0205 26.8312 23.0207H5.16813C4.57964 23.0206 3.99693 22.9046 3.45327 22.6794C2.90961 22.4541 2.41565 22.1239 1.99959 21.7077C1.58352 21.2916 1.2535 20.7975 1.02838 20.2538C0.803248 19.7101 0.687418 19.1273 0.6875 18.5388V16.6182C0.6875 15.4298 1.15954 14.2901 1.99981 13.4497C2.84007 12.6093 3.97973 12.1371 5.16813 12.137H10.5962C11.2408 12.9531 12.0618 13.6127 12.9977 14.0661C13.9336 14.5196 14.96 14.7551 16 14.7551C17.04 14.7551 18.0664 14.5196 19.0023 14.0661C19.9382 13.6127 20.7592 12.9531 21.4037 12.137H26.8312C28.0198 12.137 29.1596 12.6091 30 13.4495C30.8404 14.2899 31.3125 15.4297 31.3125 16.6182Z" fill="#FFEBB9"/>
<path d="M15.9998 14.7545C19.8037 14.7545 22.8873 11.6709 22.8873 7.86699C22.8873 4.06313 19.8037 0.979492 15.9998 0.979492C12.1959 0.979492 9.1123 4.06313 9.1123 7.86699C9.1123 11.6709 12.1959 14.7545 15.9998 14.7545Z" fill="#F46969"/>
<path d="M16.8818 9.81253H15.1943C15.039 9.8125 14.8893 9.75428 14.7748 9.64935C14.6602 9.54442 14.5892 9.40039 14.5756 9.24565L14.0443 3.17378C14.0369 3.088 14.0473 3.00161 14.075 2.92009C14.1028 2.83857 14.1471 2.7637 14.2053 2.70024C14.2635 2.63677 14.3342 2.58608 14.413 2.5514C14.4918 2.51672 14.577 2.4988 14.6631 2.49878H17.3374C17.4229 2.4988 17.5075 2.51646 17.5858 2.55064C17.6641 2.58483 17.7346 2.63481 17.7927 2.69746C17.8508 2.76011 17.8954 2.83409 17.9237 2.91475C17.9519 2.99542 17.9632 3.08105 17.9568 3.16628L17.4999 9.2394C17.4878 9.39515 17.4175 9.54063 17.303 9.64684C17.1884 9.75305 17.038 9.81221 16.8818 9.81253Z" fill="#4A5058"/>
<path d="M16.0002 13.2345C16.606 13.2345 17.0971 12.7434 17.0971 12.1376C17.0971 11.5319 16.606 11.0408 16.0002 11.0408C15.3944 11.0408 14.9033 11.5319 14.9033 12.1376C14.9033 12.7434 15.3944 13.2345 16.0002 13.2345Z" fill="#4A5058"/>
<path d="M11.0363 23.0207H5.16813C4.57964 23.0206 3.99693 22.9046 3.45327 22.6793C2.90961 22.454 2.41565 22.1239 1.99959 21.7077C1.58352 21.2915 1.2535 20.7975 1.02838 20.2537C0.803248 19.71 0.687418 19.1273 0.6875 18.5388V16.6182C0.687537 15.7387 0.946265 14.8787 1.43147 14.1453C1.91667 13.4118 2.60692 12.8372 3.41625 12.4932C5.19273 16.4962 7.78854 20.0825 11.0363 23.0207Z" fill="#EDDAB0"/>
<path d="M26.8312 23.3951H5.16813C3.88079 23.3936 2.64661 22.8816 1.73632 21.9713C0.82604 21.061 0.313989 19.8268 0.3125 18.5395V16.6182C0.313823 15.3308 0.825802 14.0965 1.7361 13.186C2.64641 12.2756 3.88068 11.7635 5.16813 11.762H10.5962C10.6529 11.762 10.7088 11.7748 10.7598 11.7995C10.8108 11.8241 10.8555 11.86 10.8906 11.9045C11.5001 12.6761 12.2765 13.2996 13.1614 13.7282C14.0462 14.1569 15.0167 14.3796 16 14.3796C16.9833 14.3796 17.9538 14.1569 18.8386 13.7282C19.7235 13.2996 20.4999 12.6761 21.1094 11.9045C21.1445 11.86 21.1892 11.8241 21.2402 11.7995C21.2912 11.7748 21.3471 11.762 21.4037 11.762H26.8312C28.1187 11.7635 29.3531 12.2756 30.2635 13.186C31.1739 14.0964 31.686 15.3307 31.6875 16.6182V18.5395C31.686 19.8269 31.1739 21.0612 30.2635 21.9715C29.353 22.8818 28.1187 23.3938 26.8312 23.3951ZM5.16813 12.512C4.07954 12.5133 3.03594 12.9464 2.26625 13.7162C1.49657 14.486 1.06366 15.5297 1.0625 16.6182V18.5395C1.06382 19.628 1.4968 20.6715 2.26647 21.4411C3.03614 22.2108 4.07965 22.6438 5.16813 22.6451H26.8312C27.9198 22.644 28.9635 22.2111 29.7333 21.4414C30.5031 20.6717 30.9362 19.6281 30.9375 18.5395V16.6182C30.9362 15.5296 30.5031 14.4859 29.7333 13.7161C28.9636 12.9464 27.9199 12.5133 26.8312 12.512H21.5812C20.8998 13.3311 20.0464 13.9903 19.0816 14.4426C18.1168 14.895 17.0643 15.1295 15.9987 15.1295C14.9332 15.1295 13.8807 14.895 12.9159 14.4426C11.9511 13.9903 11.0977 13.3311 10.4163 12.512H5.16813ZM9.15812 7.45637H9.11563C9.01685 7.44522 8.92654 7.39531 8.86454 7.31761C8.80255 7.23991 8.77394 7.14078 8.785 7.04199C8.80688 6.84449 8.83812 6.64512 8.8775 6.44762C8.88562 6.39791 8.90366 6.35035 8.93056 6.30778C8.95746 6.2652 8.99265 6.22848 9.03405 6.1998C9.07545 6.17112 9.1222 6.15107 9.17151 6.14086C9.22083 6.13064 9.2717 6.13046 9.32108 6.14033C9.37047 6.1502 9.41736 6.16991 9.45896 6.19829C9.50056 6.22668 9.53601 6.26315 9.56321 6.30554C9.59041 6.34793 9.60879 6.39536 9.61726 6.445C9.62573 6.49464 9.62411 6.54549 9.6125 6.59449C9.5775 6.77074 9.55 6.94949 9.53 7.12512C9.51929 7.21627 9.47552 7.30034 9.40699 7.36139C9.33845 7.42243 9.24991 7.45623 9.15812 7.45637Z" fill="black"/>
<path d="M16.0001 15.1295C14.1462 15.1292 12.3625 14.42 11.0146 13.1471C9.66666 11.8743 8.8565 10.1341 8.7501 8.28325C8.74735 8.234 8.75432 8.1847 8.77063 8.13815C8.78693 8.0916 8.81225 8.04871 8.84513 8.01195C8.878 7.97518 8.9178 7.94525 8.96225 7.92387C9.00669 7.90248 9.05491 7.89006 9.10416 7.88731C9.1534 7.88456 9.20271 7.89154 9.24926 7.90784C9.29581 7.92415 9.33869 7.94946 9.37546 7.98234C9.41222 8.01522 9.44215 8.05501 9.46354 8.09946C9.48492 8.1439 9.49735 8.19212 9.5001 8.24137C9.59317 9.84308 10.2745 11.354 11.4133 12.4841C12.5521 13.6143 14.0682 14.284 15.6706 14.3648C17.273 14.4457 18.8487 13.9319 20.0955 12.9221C21.3423 11.9122 22.1722 10.4776 22.4259 8.89334C22.6797 7.30913 22.3395 5.687 21.4705 4.33827C20.6016 2.98954 19.2652 2.00924 17.7177 1.58549C16.1703 1.16175 14.5209 1.32442 13.086 2.04228C11.6511 2.76015 10.532 3.98263 9.94322 5.47512C9.92535 5.52123 9.89854 5.56336 9.86432 5.59906C9.8301 5.63477 9.78916 5.66336 9.74385 5.68318C9.69855 5.703 9.64976 5.71366 9.60032 5.71455C9.55087 5.71545 9.50174 5.70655 9.45574 5.68837C9.40975 5.6702 9.36781 5.6431 9.33233 5.60865C9.29685 5.5742 9.26853 5.53307 9.24901 5.48764C9.22949 5.4422 9.21915 5.39334 9.21858 5.34389C9.21802 5.29444 9.22724 5.24537 9.24572 5.1995C9.73066 3.97149 10.5412 2.89891 11.5901 2.0971C12.6391 1.2953 13.8867 0.794607 15.199 0.648873C16.5112 0.50314 17.8383 0.717878 19.0376 1.27C20.2369 1.82211 21.263 2.69072 22.0056 3.7824C22.7482 4.87408 23.1791 6.14754 23.252 7.46582C23.3249 8.78409 23.0371 10.0973 22.4195 11.2642C21.8019 12.4312 20.8779 13.4077 19.7468 14.0887C18.6157 14.7698 17.3204 15.1296 16.0001 15.1295Z" fill="black"/>
<path d="M16.882 10.1875H15.1945C14.945 10.1888 14.7042 10.0958 14.5203 9.92724C14.3364 9.75863 14.2229 9.5268 14.2026 9.27812L13.6713 3.20625C13.6595 3.06891 13.6763 2.9306 13.7207 2.80008C13.7651 2.66957 13.8361 2.54969 13.9292 2.44805C14.0223 2.3464 14.1355 2.26521 14.2617 2.2096C14.3878 2.15399 14.5241 2.12518 14.662 2.125H17.3376C17.4747 2.12505 17.6102 2.15338 17.7359 2.20822C17.8615 2.26306 17.9744 2.34324 18.0676 2.44373C18.1609 2.54422 18.2323 2.66286 18.2776 2.79224C18.3229 2.92161 18.341 3.05894 18.3307 3.19562L17.8751 9.2675C17.855 9.51743 17.7418 9.75071 17.5579 9.92111C17.3739 10.0915 17.1327 10.1866 16.882 10.1875ZM14.662 2.875C14.6279 2.87505 14.5942 2.88217 14.5629 2.89593C14.5317 2.90969 14.5037 2.92978 14.4807 2.95493C14.4577 2.98008 14.4401 3.00973 14.4291 3.04202C14.4182 3.07431 14.414 3.10853 14.417 3.1425L14.9482 9.21437C14.9533 9.27577 14.9813 9.33299 15.0267 9.3746C15.0722 9.4162 15.1316 9.43911 15.1932 9.43875H16.8807C16.9425 9.43792 17.0019 9.4142 17.0472 9.37219C17.0926 9.33017 17.1208 9.27283 17.1263 9.21125L17.5813 3.13938C17.5846 3.10549 17.5808 3.07129 17.57 3.03899C17.5592 3.00669 17.5418 2.97701 17.5188 2.95188C17.4956 2.92725 17.4675 2.90771 17.4363 2.89448C17.4051 2.88125 17.3715 2.87462 17.3376 2.875H14.662ZM16.0001 13.6094C15.7088 13.6095 15.424 13.5232 15.1818 13.3615C14.9395 13.1997 14.7507 12.9698 14.6392 12.7007C14.5277 12.4316 14.4984 12.1355 14.5552 11.8498C14.612 11.5641 14.7523 11.3016 14.9583 11.0957C15.1642 10.8897 15.4267 10.7494 15.7124 10.6926C15.998 10.6358 16.2942 10.6651 16.5633 10.7766C16.8324 10.8881 17.0623 11.0769 17.2241 11.3192C17.3858 11.5614 17.4721 11.8462 17.472 12.1375C17.4713 12.5277 17.316 12.9017 17.0401 13.1775C16.7643 13.4534 16.3903 13.6087 16.0001 13.6094ZM16.0001 11.415C15.8572 11.4149 15.7174 11.4571 15.5985 11.5365C15.4796 11.6158 15.3869 11.7286 15.3321 11.8606C15.2774 11.9926 15.263 12.1379 15.2908 12.2781C15.3186 12.4183 15.3873 12.5471 15.4884 12.6482C15.5894 12.7493 15.7181 12.8181 15.8583 12.8461C15.9985 12.874 16.1438 12.8597 16.2758 12.8051C16.4079 12.7504 16.5207 12.6578 16.6002 12.539C16.6796 12.4201 16.722 12.2804 16.722 12.1375C16.7216 11.9461 16.6455 11.7626 16.5102 11.6272C16.3749 11.4918 16.1915 11.4155 16.0001 11.415ZM19.8876 21.0625H19.7501C19.5711 21.0623 19.3995 20.9912 19.273 20.8646C19.1464 20.7381 19.0753 20.5665 19.0751 20.3875V16.6912C19.0754 16.5123 19.1466 16.3408 19.2732 16.2143C19.3997 16.0878 19.5712 16.0166 19.7501 16.0163H19.8857C20.5479 16.0267 21.1795 16.2971 21.6441 16.769C22.1087 17.241 22.3691 17.8768 22.3691 18.5391C22.3691 19.2014 22.1087 19.8371 21.6441 20.3091C21.1795 20.7811 20.5479 21.0515 19.8857 21.0619L19.8876 21.0625ZM19.8251 20.3125H19.8876C20.352 20.3038 20.7945 20.1132 21.1198 19.7817C21.4452 19.4501 21.6274 19.0042 21.6274 18.5397C21.6274 18.0752 21.4452 17.6292 21.1198 17.2977C20.7945 16.9662 20.352 16.7756 19.8876 16.7669H19.8251V20.3125ZM9.0626 21.0625H7.1776C7.04106 21.0623 6.91017 21.008 6.81362 20.9115C6.71708 20.8149 6.66276 20.684 6.6626 20.5475V16.5312C6.66276 16.3947 6.71708 16.2638 6.81362 16.1673C6.91017 16.0707 7.04106 16.0164 7.1776 16.0163H9.0626C9.16205 16.0163 9.25744 16.0558 9.32776 16.1261C9.39809 16.1964 9.4376 16.2918 9.4376 16.3913C9.4376 16.4907 9.39809 16.5861 9.32776 16.6564C9.25744 16.7267 9.16205 16.7663 9.0626 16.7663H7.4126V20.3125H9.0626C9.16205 20.3125 9.25744 20.352 9.32776 20.4223C9.39809 20.4927 9.4376 20.588 9.4376 20.6875C9.4376 20.787 9.39809 20.8823 9.32776 20.9527C9.25744 21.023 9.16205 21.0625 9.0626 21.0625Z" fill="black"/>
<path d="M9.0626 18.9145H7.0376C6.93814 18.9145 6.84276 18.875 6.77243 18.8046C6.70211 18.7343 6.6626 18.6389 6.6626 18.5395C6.6626 18.44 6.70211 18.3446 6.77243 18.2743C6.84276 18.204 6.93814 18.1645 7.0376 18.1645H9.0626C9.16205 18.1645 9.25744 18.204 9.32776 18.2743C9.39809 18.3446 9.4376 18.44 9.4376 18.5395C9.4376 18.6389 9.39809 18.7343 9.32776 18.8046C9.25744 18.875 9.16205 18.9145 9.0626 18.9145ZM24.9138 21.0626H23.027C22.8904 21.0624 22.7595 21.0081 22.663 20.9116C22.5664 20.815 22.5121 20.6841 22.512 20.5476V16.5314C22.5121 16.3948 22.5664 16.2639 22.663 16.1674C22.7595 16.0708 22.8904 16.0165 23.027 16.0164H24.9138C25.0133 16.0164 25.1087 16.0559 25.179 16.1262C25.2493 16.1965 25.2888 16.2919 25.2888 16.3914C25.2888 16.4908 25.2493 16.5862 25.179 16.6565C25.1087 16.7268 25.0133 16.7664 24.9138 16.7664H23.262V20.3126H24.9138C25.0133 20.3126 25.1087 20.3521 25.179 20.4224C25.2493 20.4928 25.2888 20.5882 25.2888 20.6876C25.2888 20.7871 25.2493 20.8824 25.179 20.9528C25.1087 21.0231 25.0133 21.0626 24.9138 21.0626Z" fill="black"/>
<path d="M24.9137 18.9146H22.8869C22.7874 18.9146 22.692 18.8751 22.6217 18.8047C22.5514 18.7344 22.5119 18.639 22.5119 18.5396C22.5119 18.4401 22.5514 18.3447 22.6217 18.2744C22.692 18.2041 22.7874 18.1646 22.8869 18.1646H24.9137C25.0132 18.1646 25.1086 18.2041 25.1789 18.2744C25.2492 18.3447 25.2887 18.4401 25.2887 18.5396C25.2887 18.639 25.2492 18.7344 25.1789 18.8047C25.1086 18.8751 25.0132 18.9146 24.9137 18.9146ZM14.6119 21.0627C14.5124 21.0627 14.417 21.0232 14.3467 20.9529C14.2764 20.8825 14.2369 20.7872 14.2369 20.6877V16.3914C14.2369 16.292 14.2764 16.1966 14.3467 16.1263C14.417 16.056 14.5124 16.0164 14.6119 16.0164C14.7113 16.0164 14.8067 16.056 14.877 16.1263C14.9474 16.1966 14.9869 16.292 14.9869 16.3914V20.6877C14.9869 20.7872 14.9474 20.8825 14.877 20.9529C14.8067 21.0232 14.7113 21.0627 14.6119 21.0627ZM15.5688 21.0627C15.4693 21.0627 15.3739 21.0232 15.3036 20.9529C15.2333 20.8825 15.1938 20.7872 15.1938 20.6877V16.4814C15.1936 16.3789 15.2274 16.2791 15.2899 16.1977C15.3524 16.1163 15.44 16.0579 15.5391 16.0315C15.6383 16.0051 15.7434 16.0123 15.838 16.0518C15.9327 16.0914 16.0116 16.1611 16.0625 16.2502L17.9056 19.4377V16.3939C17.9056 16.2945 17.9451 16.1991 18.0155 16.1288C18.0858 16.0585 18.1812 16.0189 18.2806 16.0189C18.3801 16.0189 18.4755 16.0585 18.5458 16.1288C18.6161 16.1991 18.6556 16.2945 18.6556 16.3939V20.6252C18.6559 20.7203 18.6247 20.8128 18.5669 20.8883C18.5092 20.9638 18.4281 21.0181 18.3363 21.0428C18.2444 21.0675 18.147 21.0611 18.0592 21.0247C17.9714 20.9883 17.8981 20.9238 17.8506 20.8414L15.9438 17.5439V20.6877C15.9438 20.7872 15.9042 20.8825 15.8339 20.9529C15.7636 21.0232 15.6682 21.0627 15.5688 21.0627ZM13.3975 21.0627C13.298 21.0627 13.2027 21.0232 13.1323 20.9529C13.062 20.8825 13.0225 20.7872 13.0225 20.6877V17.5864L12.2244 18.9689C12.1809 19.0462 12.1176 19.1105 12.041 19.1552C11.9645 19.1999 11.8774 19.2235 11.7887 19.2235C11.7001 19.2235 11.613 19.1999 11.5365 19.1552C11.4599 19.1105 11.3966 19.0462 11.3531 18.9689L10.5544 17.5864V20.6877C10.5544 20.7872 10.5149 20.8825 10.4445 20.9529C10.3742 21.0232 10.2788 21.0627 10.1794 21.0627C10.0799 21.0627 9.98454 21.0232 9.91421 20.9529C9.84388 20.8825 9.80437 20.7872 9.80437 20.6877V16.4664C9.8044 16.3673 9.83714 16.271 9.89751 16.1924C9.95788 16.1139 10.0425 16.0574 10.1382 16.0318C10.234 16.0062 10.3355 16.013 10.427 16.051C10.5185 16.089 10.5949 16.1562 10.6444 16.2421L11.7887 18.2239L12.9331 16.2414C12.9827 16.1558 13.0592 16.0889 13.1506 16.0511C13.2421 16.0133 13.3434 16.0068 13.439 16.0324C13.5346 16.058 13.6191 16.1144 13.6793 16.1929C13.7396 16.2713 13.7724 16.3675 13.7725 16.4664V20.6877C13.7725 20.7872 13.733 20.8825 13.6627 20.9529C13.5923 21.0232 13.497 21.0627 13.3975 21.0627ZM3.8125 21.0627C3.71304 21.0627 3.61766 21.0232 3.54733 20.9529C3.47701 20.8825 3.4375 20.7872 3.4375 20.6877V16.3914C3.4375 16.292 3.47701 16.1966 3.54733 16.1263C3.61766 16.056 3.71304 16.0164 3.8125 16.0164C3.91196 16.0164 4.00734 16.056 4.07766 16.1263C4.14799 16.1966 4.1875 16.292 4.1875 16.3914V20.6877C4.1875 20.7872 4.14799 20.8825 4.07766 20.9529C4.00734 21.0232 3.91196 21.0627 3.8125 21.0627Z" fill="black"/>
<path d="M5.19438 18.7609H3.8125C3.71304 18.7609 3.61766 18.7213 3.54733 18.651C3.47701 18.5807 3.4375 18.4853 3.4375 18.3859V16.3915C3.4375 16.292 3.47701 16.1966 3.54733 16.1263C3.61766 16.056 3.71304 16.0165 3.8125 16.0165H5.19438C5.38196 16.0045 5.57002 16.031 5.74693 16.0946C5.92385 16.1581 6.08586 16.2572 6.22296 16.3858C6.36006 16.5144 6.46933 16.6697 6.54403 16.8422C6.61873 17.0147 6.65728 17.2007 6.65728 17.3887C6.65728 17.5766 6.61873 17.7626 6.54403 17.9351C6.46933 18.1076 6.36006 18.2629 6.22296 18.3915C6.08586 18.5201 5.92385 18.6193 5.74693 18.6828C5.57002 18.7463 5.38196 18.7729 5.19438 18.7609ZM4.1875 18.0109H5.19438C5.28105 18.0191 5.3685 18.0092 5.45111 17.9816C5.53372 17.9541 5.60966 17.9097 5.67408 17.8511C5.7385 17.7925 5.78997 17.7211 5.82519 17.6415C5.86041 17.5619 5.8786 17.4757 5.8786 17.3887C5.8786 17.3016 5.86041 17.2155 5.82519 17.1359C5.78997 17.0562 5.7385 16.9848 5.67408 16.9263C5.60966 16.8677 5.53372 16.8232 5.45111 16.7957C5.3685 16.7682 5.28105 16.7582 5.19438 16.7665H4.1875V18.0109Z" fill="black"/>
<path d="M6.12141 21.0626C6.06575 21.0626 6.01079 21.0502 5.96053 21.0263C5.91026 21.0024 5.86594 20.9676 5.83078 20.9245L3.95578 18.6251C3.89522 18.5478 3.8674 18.4498 3.87829 18.3522C3.88919 18.2546 3.93794 18.1652 4.01406 18.1032C4.09018 18.0411 4.1876 18.0114 4.28539 18.0204C4.38318 18.0294 4.47353 18.0764 4.53703 18.1514L6.41203 20.4526C6.45626 20.5076 6.48407 20.574 6.49227 20.6441C6.50046 20.7142 6.4887 20.7852 6.45834 20.8489C6.42798 20.9126 6.38026 20.9665 6.32066 21.0043C6.26105 21.0421 6.19199 21.0623 6.12141 21.0626ZM25.8083 21.0626C25.7088 21.0626 25.6134 21.0231 25.5431 20.9528C25.4728 20.8824 25.4333 20.7871 25.4333 20.6876V16.3914C25.4333 16.2919 25.4728 16.1965 25.5431 16.1262C25.6134 16.0559 25.7088 16.0164 25.8083 16.0164C25.9077 16.0164 26.0031 16.0559 26.0734 16.1262C26.1438 16.1965 26.1833 16.2919 26.1833 16.3914V20.6876C26.1833 20.7871 26.1438 20.8824 26.0734 20.9528C26.0031 21.0231 25.9077 21.0626 25.8083 21.0626Z" fill="black"/>
<path d="M27.1875 18.7609H25.8081C25.7086 18.7609 25.6133 18.7213 25.5429 18.651C25.4726 18.5807 25.4331 18.4853 25.4331 18.3859V16.3915C25.4331 16.292 25.4726 16.1966 25.5429 16.1263C25.6133 16.056 25.7086 16.0165 25.8081 16.0165H27.1875C27.3751 16.0045 27.5631 16.031 27.74 16.0946C27.917 16.1581 28.079 16.2572 28.2161 16.3858C28.3532 16.5144 28.4624 16.6697 28.5371 16.8422C28.6118 17.0147 28.6504 17.2007 28.6504 17.3887C28.6504 17.5766 28.6118 17.7626 28.5371 17.9351C28.4624 18.1076 28.3532 18.2629 28.2161 18.3915C28.079 18.5201 27.917 18.6193 27.74 18.6828C27.5631 18.7463 27.3751 18.7729 27.1875 18.7609ZM26.1837 18.0109H27.1875C27.2742 18.0191 27.3616 18.0092 27.4442 17.9816C27.5268 17.9541 27.6028 17.9097 27.6672 17.8511C27.7316 17.7925 27.7831 17.7211 27.8183 17.6415C27.8535 17.5619 27.8717 17.4757 27.8717 17.3887C27.8717 17.3016 27.8535 17.2155 27.8183 17.1359C27.7831 17.0562 27.7316 16.9848 27.6672 16.9263C27.6028 16.8677 27.5268 16.8232 27.4442 16.7957C27.3616 16.7682 27.2742 16.7582 27.1875 16.7665H26.1831L26.1837 18.0109Z" fill="black"/>
<path d="M28.1142 21.0627C28.0585 21.0628 28.0034 21.0505 27.953 21.0266C27.9026 21.0027 27.8582 20.9678 27.823 20.9246L25.948 18.6234C25.8874 18.5461 25.8596 18.4481 25.8705 18.3505C25.8814 18.2529 25.9301 18.1635 26.0062 18.1014C26.0824 18.0394 26.1798 18.0097 26.2776 18.0187C26.3754 18.0277 26.4657 18.0747 26.5292 18.1496L28.4042 20.4509C28.449 20.5058 28.4773 20.5723 28.4858 20.6426C28.4943 20.713 28.4827 20.7843 28.4524 20.8483C28.422 20.9124 28.3742 20.9665 28.3143 21.0044C28.2545 21.0424 28.1851 21.0626 28.1142 21.0627Z" fill="black"/>
</svg>
