<svg width="24" height="24" viewBox="0 0 24 24" fill="none" xmlns="http://www.w3.org/2000/svg">
<circle cx="12" cy="12" r="12" fill="#D9ECCD"/>
<g clip-path="url(#clip0_1998_11347)">
<path d="M15.75 6H8.25C7.0095 6 6 7.0095 6 8.25V15.75C6 16.9905 7.0095 18 8.25 18H14.1715C14.7635 18 15.3435 17.76 15.7625 17.341L17.341 15.763C17.766 15.338 18 14.773 18 14.1715V8.25C18 7.0095 16.9905 6 15.75 6ZM6.5 15.75V8.25C6.5 7.285 7.285 6.5 8.25 6.5H15.75C16.715 6.5 17.5 7.285 17.5 8.25V14H15.25C14.561 14 14 14.5605 14 15.25V17.5H8.25C7.285 17.5 6.5 16.715 6.5 15.75ZM16.9875 15.409L15.409 16.987C15.1615 17.2345 14.8415 17.402 14.5 17.468V15.25C14.5 14.8365 14.8365 14.5 15.25 14.5H17.4695C17.405 14.8425 17.2395 15.1575 16.9875 15.409ZM8 9C8 8.724 8.224 8.5 8.5 8.5C8.776 8.5 9 8.724 9 9C9 9.276 8.776 9.5 8.5 9.5C8.224 9.5 8 9.276 8 9ZM9 12C9 12.276 8.776 12.5 8.5 12.5C8.224 12.5 8 12.276 8 12C8 11.724 8.224 11.5 8.5 11.5C8.776 11.5 9 11.724 9 12ZM9 15C9 15.276 8.776 15.5 8.5 15.5C8.224 15.5 8 15.276 8 15C8 14.724 8.224 14.5 8.5 14.5C8.776 14.5 9 14.724 9 15Z" fill="#338000"/>
</g>
<defs>
<clipPath id="clip0_1998_11347">
<rect width="12" height="12" fill="white" transform="translate(6 6)"/>
</clipPath>
</defs>
</svg>
