<svg width="32" height="32" viewBox="0 0 32 32" fill="none" xmlns="http://www.w3.org/2000/svg">
<path d="M13.8623 8.72045C13.7727 8.57099 13.6432 8.44945 13.4884 8.36943C13.3336 8.2894 13.1596 8.25407 12.9858 8.26739L5.36744 8.85589C4.59613 8.91551 3.90907 9.31976 3.48233 9.96513L0.285165 14.8008C-0.038395 15.2903 -0.0898946 15.9027 0.147479 16.4392C0.384789 16.9757 0.872598 17.3495 1.45228 17.4393L7.62973 18.3961C7.80943 18.4239 7.99334 18.3989 8.15907 18.3241C8.32479 18.2492 8.46519 18.1278 8.56316 17.9746L13.8479 9.70701C13.9418 9.56015 13.9928 9.39004 13.9954 9.21577C13.9979 9.04151 13.9518 8.86998 13.8623 8.72045Z" fill="#E45A6E"/>
<path d="M23.2795 18.1376C23.13 18.048 22.9584 18.002 22.7842 18.0045C22.6099 18.007 22.4398 18.0581 22.2929 18.152L14.0254 23.4367C13.8722 23.5347 13.7507 23.6751 13.6759 23.8408C13.601 24.0065 13.576 24.1904 13.6038 24.3702L14.5605 30.5476C14.6504 31.1274 15.0242 31.6151 15.5608 31.8525C15.7795 31.9495 16.016 31.9997 16.2553 31.9998C16.5911 31.9996 16.9193 31.9004 17.1991 31.7148L22.0349 28.5176C22.6802 28.0909 23.0845 27.4038 23.144 26.6324L23.7325 19.0141C23.746 18.8404 23.7107 18.6663 23.6307 18.5114C23.5506 18.3566 23.429 18.2271 23.2795 18.1376Z" fill="#D82E44"/>
<path d="M12.0541 25.7672C12.4272 26.1403 12.9574 26.3149 13.4778 26.2278C21.1098 24.9517 27.149 18.6327 29.4482 14.1876C32.0012 9.25176 32.0958 4.0358 31.9624 1.58957C31.9166 0.751324 31.2484 0.0831416 30.4102 0.0373919C27.964 -0.0959821 22.7481 -0.00142025 17.8122 2.55162C13.3671 4.85079 7.04812 10.8901 5.77201 18.522C5.68501 19.0424 5.85951 19.5726 6.23263 19.9457L12.0541 25.7672Z" fill="#F1F1FB"/>
<path d="M31.4837 0.516357L9.14355 22.8565L12.0543 25.7672C12.4274 26.1403 12.9576 26.3148 13.478 26.2278C21.11 24.9517 27.1492 18.6328 29.4484 14.1877C32.0014 9.25185 32.096 4.03589 31.9626 1.58966C31.941 1.18503 31.7704 0.802713 31.4837 0.516357Z" fill="#D7D6FB"/>
<path d="M21.9203 14.7648C20.7198 14.7649 19.5197 14.308 18.6058 13.3941C17.7204 12.5088 17.2328 11.3316 17.2328 10.0796C17.2328 8.8275 17.7204 7.65032 18.6058 6.76502C20.4333 4.93741 23.4071 4.93735 25.2348 6.76502C26.1202 7.65032 26.6077 8.8275 26.6077 10.0796C26.6077 11.3316 26.1202 12.5088 25.2348 13.3941C24.3211 14.3078 23.1205 14.7647 21.9203 14.7648ZM5.77201 18.5221C5.68501 19.0425 5.85951 19.5727 6.23263 19.9458L12.0541 25.7672C12.4272 26.1404 12.9574 26.3149 13.4778 26.2279C15.1385 25.9502 16.7236 25.4336 18.2113 24.7496L7.25025 13.7886C6.56631 15.2763 6.04969 16.8614 5.77201 18.5221Z" fill="#466288"/>
<path d="M0.956274 26.3709C1.19615 26.3709 1.43615 26.2793 1.61914 26.0962L4.67993 23.0355C5.04605 22.6694 5.04605 22.0758 4.67993 21.7097C4.31387 21.3435 3.72031 21.3435 3.35413 21.7097L0.293404 24.7704C-0.0727182 25.1365 -0.0727182 25.7301 0.293404 26.0962C0.380344 26.1834 0.483664 26.2526 0.597424 26.2997C0.711184 26.3469 0.833138 26.371 0.956274 26.3709ZM7.48497 24.5148C7.11891 24.1487 6.52529 24.1487 6.15917 24.5148L0.274592 30.3993C-0.0915305 30.7654 -0.0915305 31.359 0.274592 31.7251C0.457653 31.9082 0.697588 31.9997 0.937524 31.9997C1.17746 31.9997 1.4174 31.9081 1.60039 31.7251L7.48497 25.8405C7.8511 25.4744 7.8511 24.8808 7.48497 24.5148Z" fill="#FDB43A"/>
<path d="M10.2898 27.3198C9.92378 26.9537 9.33016 26.9537 8.96403 27.3198L5.90331 30.3805C5.53719 30.7465 5.53719 31.3402 5.90331 31.7063C6.08637 31.8893 6.3263 31.9809 6.56618 31.9809C6.80605 31.9809 7.04605 31.8893 7.22905 31.7063L10.2898 28.6455C10.656 28.2794 10.656 27.6858 10.2898 27.3198ZM0.274414 31.7251C0.457475 31.9082 0.697411 31.9997 0.937346 31.9997C1.17728 31.9997 1.41722 31.9081 1.60022 31.725L7.4848 25.8404C7.85092 25.4744 7.85092 24.8808 7.4848 24.5146L0.274414 31.7251Z" fill="#F57A21"/>
<path d="M9.14355 22.8564L12.0543 25.7671C12.4274 26.1402 12.9576 26.3147 13.478 26.2277C15.1387 25.9501 16.7238 25.4334 18.2115 24.7495L12.731 19.269L9.14355 22.8564ZM18.606 13.394C19.5199 14.3079 20.72 14.7648 21.9205 14.7647C23.1207 14.7646 24.3213 14.3076 25.235 13.394C26.1204 12.5086 26.6079 11.3315 26.6079 10.0794C26.6079 8.82738 26.1204 7.6502 25.235 6.76489L18.606 13.394Z" fill="#354A67"/>
<path d="M21.9209 7.26831C21.2007 7.26831 20.4805 7.54244 19.9322 8.09075C19.401 8.62194 19.1084 9.32819 19.1084 10.0794C19.1084 10.8307 19.401 11.5369 19.9322 12.0681C21.0288 13.1647 22.8131 13.1647 23.9097 12.0681C24.4409 11.5369 24.7335 10.8306 24.7335 10.0794C24.7335 9.32812 24.4409 8.62187 23.9097 8.09069C23.3614 7.54244 22.6412 7.26831 21.9209 7.26831Z" fill="#4BBEFD"/>
<path d="M23.9091 8.09082L19.9316 12.0683C21.0282 13.1648 22.8126 13.1649 23.9091 12.0683C24.4403 11.537 24.7328 10.8308 24.7328 10.0795C24.7328 9.32826 24.4403 8.62201 23.9091 8.09082Z" fill="#0590FB"/>
</svg>
