<svg width="32" height="32" viewBox="0 0 32 32" fill="none" xmlns="http://www.w3.org/2000/svg">
<path d="M16 4.09961C17.7161 4.09793 19.4117 4.46974 20.9697 5.1875C20.9266 5.4514 20.9004 5.72193 20.9004 6L20.9141 6.38574C20.9368 6.68723 20.9895 6.98547 21.0654 7.27832C19.6309 6.43706 18.0105 5.96506 16.3496 5.90625L16 5.90039C11.2042 5.90041 7.18118 9.26044 6.15527 13.75L5.08301 12.1416L5 12.0176L4.91699 12.1416L4.58691 12.6357C5.99147 7.86285 10.3042 4.33531 15.4766 4.11133L16 4.09961Z" fill="#64C8F0" stroke="black" stroke-width="0.2"/>
<path d="M6.81348 16.9004H5.95996L5.9707 17.0098C6.48073 22.104 10.7728 26.0996 16 26.0996C20.2962 26.0996 23.9609 23.398 25.418 19.6094L26.6055 21.3916C24.6383 25.253 20.6304 27.9004 16 27.9004C9.76268 27.9004 4.65143 23.0996 4.14648 16.9922L4.13867 16.9004H3.18652L5 14.1797L6.81348 16.9004Z" fill="#FAB400" stroke="black" stroke-width="0.2"/>
<path d="M4.95703 17.0996C5.42996 22.3428 9.2451 26.611 14.2568 27.7725C8.86897 26.9811 4.66085 22.5773 4.1582 17.0996H4.95703ZM5.37988 14.75L3.94629 16.9004H3.18652L5 14.1797L5.37988 14.75Z" fill="#DC9600" stroke="black" stroke-width="0.2"/>
<path d="M14.1895 4.23926C9.96414 5.24501 6.60529 8.46641 5.39648 12.6113L5.08301 12.1416L5 12.0176L4.91699 12.1416L4.58691 12.6357C5.87317 8.26485 9.59849 4.94058 14.1895 4.23926Z" fill="#46AAD2" stroke="black" stroke-width="0.2"/>
<path d="M24.7207 10.9336C25.13 11.0399 25.5579 11.0996 26 11.0996C26.2777 11.0996 26.548 11.0724 26.8115 11.0293C27.67 12.8924 28.0312 14.9464 27.8574 16.9912L27.8486 17.0996H28.8135L27 19.8193L25.1865 17.0996H26.0391L26.0479 17.0098C26.0816 16.6778 26.1006 16.341 26.1006 16L26.0938 15.6504C26.0349 13.989 25.5624 12.3684 24.7207 10.9336Z" fill="#64C8F0" stroke="black" stroke-width="0.2"/>
<path d="M26 10C28.2091 10 30 8.20914 30 6C30 3.79086 28.2091 2 26 2C23.7909 2 22 3.79086 22 6C22 8.20914 23.7909 10 26 10Z" fill="#3CC8B4"/>
<path d="M23 6C23 3.9605 24.5275 2.281 26.5 2.0345C26.3342 2.01262 26.1672 2.0011 26 2C24.9391 2 23.9217 2.42143 23.1716 3.17157C22.4214 3.92172 22 4.93913 22 6C22 7.06087 22.4214 8.07828 23.1716 8.82843C23.9217 9.57857 24.9391 10 26 10C26.1695 10 26.336 9.986 26.5 9.9655C24.5275 9.719 23 8.0395 23 6Z" fill="#1EAA96"/>
<path d="M28.5 5L25.5 8L23.5 6L24.5 5L25.5 6L27.5 4L28.5 5Z" fill="#F0F0F0"/>
<path d="M16 24C11.5815 24 8 20.4185 8 16C8 11.5815 11.5815 8 16 8C20.4185 8 24 11.5815 24 16C24 20.4185 20.4185 24 16 24Z" fill="#FA6450"/>
<path d="M10 16C10 11.921 13.055 8.562 17 8.069C16.6684 8.02524 16.3344 8.0022 16 8C11.5815 8 8 11.5815 8 16C8 20.4185 11.5815 24 16 24C16.3395 24 16.6715 23.972 17 23.931C13.055 23.438 10 20.079 10 16Z" fill="#DC4632"/>
<path d="M16 22C19.3137 22 22 19.3137 22 16C22 12.6863 19.3137 10 16 10C12.6863 10 10 12.6863 10 16C10 19.3137 12.6863 22 16 22Z" fill="#F0F0F0"/>
<path d="M15.75 11H16.25V11.8335H15.75V11ZM15.75 20.1665H16.25V21H15.75V20.1665ZM18.766 12.878L19.355 12.2885L19.7085 12.642L19.1195 13.2315L18.766 12.878ZM12.2845 19.358L12.8735 18.7685L13.227 19.122L12.638 19.7115L12.2845 19.358ZM20.1665 15.75H21V16.25H20.1665V15.75ZM11 15.75H11.8335V16.25H11V15.75ZM18.765 19.123L19.1185 18.7695L19.708 19.3585L19.3545 19.712L18.765 19.123ZM12.285 12.6415L12.6385 12.288L13.228 12.877L12.8745 13.2305L12.285 12.6415ZM19 16.25H15.75V13H16.25V15.75H19V16.25Z" fill="#505050"/>
<path d="M16.0001 17C15.867 17.003 15.7345 16.9794 15.6106 16.9305C15.4867 16.8816 15.3738 16.8085 15.2786 16.7154C15.1833 16.6223 15.1076 16.5111 15.0559 16.3883C15.0042 16.2656 14.9776 16.1337 14.9775 16.0005C14.9775 15.8673 15.0041 15.7354 15.0557 15.6126C15.1073 15.4898 15.183 15.3786 15.2782 15.2855C15.3734 15.1923 15.4863 15.1191 15.6102 15.0702C15.7341 15.0212 15.8665 14.9975 15.9996 15.0005C16.2609 15.0063 16.5096 15.1141 16.6923 15.3009C16.8751 15.4877 16.9775 15.7387 16.9775 16C16.9776 16.2613 16.8754 16.5123 16.6927 16.6992C16.51 16.8861 16.2614 16.9941 16.0001 17Z" fill="#FA6450"/>
</svg>
