<svg width="54" height="54" viewBox="0 0 54 54" fill="none" xmlns="http://www.w3.org/2000/svg">
<path d="M33.3534 24.5145L33.3632 27.9322C33.3632 27.7653 33.4437 27.5984 33.6136 27.4511C34.3303 26.8365 34.6887 26.1217 34.6867 25.4079L34.6769 21.9902C34.6788 22.704 34.3215 23.4188 33.6038 24.0344C33.4339 24.1817 33.3534 24.3476 33.3534 24.5145Z" fill="#BF7D5A"/>
<path d="M5.90075 35.5219C5.73384 35.4434 5.57675 35.3649 5.41966 35.2765C5.1153 35.0998 4.85021 34.9132 4.62439 34.707C4.85021 34.9034 5.1153 35.0899 5.41966 35.2667C5.57675 35.355 5.73384 35.4434 5.90075 35.5219Z" fill="#C48E4E"/>
<path d="M46.0669 32.2428L33.8433 25.1344C33.3229 24.8399 33.2247 24.3686 33.6273 24.0152C35.2767 22.6013 35.0313 20.6672 32.8811 19.4203C30.4756 18.0261 26.5975 18.0064 24.1331 19.3515L24.0055 19.4203L5.33127 30.2006C4.17273 30.9075 3.59345 31.8206 3.60327 32.7239V36.3468C3.60327 37.2697 4.212 38.1926 5.42945 38.8995C7.57964 40.1464 10.908 40.2937 13.3625 39.3413C13.9811 39.1057 14.7862 39.1744 15.3065 39.469L27.5302 46.5773C28.7476 47.2843 30.7407 47.2843 31.968 46.5675L46.0473 38.4381C46.6658 38.0846 46.98 37.6133 46.98 37.1421V33.529C46.98 33.0577 46.6756 32.5963 46.0669 32.2428ZM5.41964 35.2766C5.11527 35.0999 4.85018 34.9133 4.62436 34.7072C4.85018 34.9035 5.11527 35.0901 5.41964 35.2668C5.57673 35.3552 5.73382 35.4435 5.90073 35.5221C5.73382 35.4435 5.57673 35.365 5.41964 35.2766Z" fill="#C48E4E"/>
<path d="M5.90075 35.5219C5.73384 35.4434 5.57675 35.3649 5.41966 35.2765C5.1153 35.0998 4.85021 34.9132 4.62439 34.707C4.85021 34.9034 5.1153 35.0899 5.41966 35.2667C5.57675 35.355 5.73384 35.4434 5.90075 35.5219Z" fill="#C48E4E"/>
<path d="M3.60522 32.7217L3.60719 36.3475C3.60719 37.2704 4.21002 38.1924 5.4265 38.8963C7.58159 40.1462 10.91 40.2964 13.3665 39.3411C13.9791 39.1055 14.7832 39.1732 15.3036 39.4668L27.5282 46.5771C28.7525 47.2899 30.7397 47.2811 31.9729 46.5683L46.0502 38.4437C46.6707 38.0834 46.981 37.6131 46.981 37.1438L46.98 33.5179C46.98 33.9872 46.6697 34.4654 46.0492 34.8179L31.9709 42.9512C30.7388 43.664 28.7506 43.664 27.5272 42.9512L15.3026 35.8488C14.7822 35.5474 13.9693 35.4884 13.3655 35.7231C10.908 36.6706 7.57962 36.5282 5.42453 35.2705C4.20904 34.5665 3.60522 33.6436 3.60522 32.7217Z" fill="#C48E4E"/>
<path d="M5.3362 30.1987C2.99652 31.6302 3.02107 33.8766 5.42456 35.2747C7.57965 36.5255 10.908 36.6738 13.3626 35.7194C13.9723 35.4838 14.7833 35.5457 15.2987 35.8461L27.5263 42.9515C28.7496 43.6624 30.7398 43.6594 31.971 42.9486L46.0502 34.8191C47.2824 34.1093 47.2942 32.9556 46.0699 32.2448L33.8433 25.1394C33.3269 24.8389 33.2238 24.3696 33.6312 24.0172C35.2767 22.6043 35.0313 20.6692 32.8831 19.4213C30.4786 18.0241 26.5994 18.0025 24.1321 19.3525L24.0045 19.4213L5.3362 30.1987Z" fill="#DBA660"/>
<path d="M6.73428 30.7799C5.15945 31.7451 4.83741 33.1756 6.07941 34.2202C7.53446 35.4504 10.3827 35.7293 12.4416 34.9281C13.7042 34.4402 15.4106 34.5393 16.5014 35.1726L28.6485 42.2319C29.2601 42.5873 30.2586 42.5902 30.8792 42.2319L44.7984 34.1957C45.4189 33.8373 45.4169 33.259 44.8053 32.9036L32.6572 25.8443C31.5831 25.2199 31.4015 24.2469 32.2223 23.5204C33.1285 22.7133 33.369 21.706 32.6111 20.8557C31.0893 19.1474 27.4781 18.8774 25.2887 20.0742L6.73428 30.7799Z" fill="#FFDE9B"/>
<path d="M36.1604 30.6451C35.7009 30.9102 35.699 31.3422 36.1545 31.6073C36.614 31.8724 37.3553 31.8724 37.8138 31.6073C38.2743 31.3422 38.2782 30.9122 37.8197 30.6451C37.3632 30.38 36.6199 30.38 36.1604 30.6451Z" fill="#FEBC1F"/>
<path d="M29.9671 39.6226C29.5076 39.8877 29.5056 40.3197 29.9612 40.5848C30.4207 40.8509 31.1619 40.8499 31.6205 40.5848C32.0799 40.3197 32.0849 39.8897 31.6263 39.6226C31.1698 39.3576 30.4266 39.3576 29.9671 39.6226Z" fill="#DBA660"/>
<path d="M29.2691 32.8914C28.8066 33.1585 28.8047 33.5924 29.2632 33.8595C29.7246 34.1275 30.4718 34.1265 30.9342 33.8595C31.3967 33.5924 31.4016 33.1595 30.9401 32.8914C30.4806 32.6244 29.7315 32.6244 29.2691 32.8914ZM35.646 34.7343C35.2857 34.9424 35.2827 35.2812 35.6411 35.4893C36.0014 35.6984 36.5836 35.6975 36.9439 35.4893C37.3043 35.2812 37.3072 34.9434 36.9479 34.7343C36.5895 34.5261 36.0053 34.5261 35.646 34.7343ZM30.4482 26.6068C30.9077 26.8719 30.9097 27.3029 30.4541 27.568C29.9956 27.8341 29.2534 27.8331 28.7949 27.568C28.3354 27.3029 28.3305 26.8729 28.789 26.6058C29.2455 26.3407 29.9888 26.3407 30.4482 26.6058V26.6068ZM25.7453 35.7024C26.2048 35.9675 26.2068 36.3995 25.7512 36.6645C25.2917 36.9296 24.5505 36.9296 24.092 36.6645C23.6325 36.3995 23.6276 35.9694 24.0861 35.7024C24.5426 35.4373 25.2858 35.4373 25.7453 35.7024ZM10.7412 31.6946C11.2007 31.9597 11.2026 32.3917 10.7471 32.6568C10.2886 32.9219 9.54632 32.9219 9.08781 32.6568C8.62832 32.3917 8.62341 31.9616 9.08192 31.6946C9.53846 31.4295 10.2827 31.4295 10.7412 31.6946ZM17.5874 31.0152C18.0469 31.2803 18.0489 31.7113 17.5933 31.9764C17.1348 32.2434 16.3935 32.2415 15.934 31.9764C15.4745 31.7113 15.4696 31.2812 15.9281 31.0152C16.3847 30.7501 17.1289 30.7501 17.5874 31.0152ZM23.4214 25.6652C23.8809 25.9303 23.8828 26.3604 23.4263 26.6255C22.9678 26.8925 22.2265 26.8905 21.767 26.6255C21.3075 26.3604 21.3036 25.9313 21.7621 25.6643C22.2177 25.3992 22.9619 25.4001 23.4214 25.6652ZM25.0276 30.9219C25.3781 31.1241 25.3801 31.4521 25.0316 31.6543C24.682 31.8576 24.1175 31.8566 23.767 31.6543C23.4165 31.4521 23.4135 31.1241 23.763 30.9219C24.1106 30.7196 24.6781 30.7196 25.0276 30.9219ZM29.0776 22.0394C29.4281 22.2407 29.4301 22.5696 29.0825 22.7718C28.733 22.9751 28.1675 22.9731 27.818 22.7718C27.4674 22.5696 27.4645 22.2416 27.813 22.0394C28.1616 21.8371 28.7281 21.8371 29.0776 22.0394Z" fill="#FEBC1F"/>
<path d="M49.4719 31.5007C48.9584 32.0967 48.1651 32.1644 47.5544 32.5709C46.2938 33.4152 46.3331 35.2316 46.3468 36.7515C46.3507 36.9498 46.3438 37.1609 46.2359 37.3307C46.0199 37.6675 45.5181 37.6538 45.1441 37.5026C44.7739 37.3514 44.4224 37.1079 44.0199 37.1079C42.608 37.1108 42.5727 39.8049 41.1638 39.9237C40.3096 39.9993 39.6842 38.9822 38.8261 38.9468C37.5252 38.8958 37.1344 40.9144 35.9022 41.3277C35.0726 41.6046 34.2243 41.0587 33.4703 40.6238C32.7162 40.1859 31.6667 39.8736 31.0491 40.4834C30.1723 41.3493 30.9951 43.2737 29.5332 43.2462C29.076 43.24 28.6247 43.1424 28.2059 42.9591C27.787 42.7758 27.4091 42.5105 27.0943 42.179C26.9402 42.0179 26.786 41.8275 26.5661 41.7803C26.0673 41.6763 25.7905 42.3233 25.4311 42.6895C24.7242 43.4072 23.384 42.9477 22.899 42.0611C22.6909 41.6802 22.5907 41.2413 22.3571 40.8751C22.1195 40.5089 21.6776 40.2143 21.2613 40.3469C20.8372 40.4843 20.6654 40.9792 20.3954 41.3356C20.0076 41.8451 19.3252 42.1112 18.6929 41.9963C18.3776 41.9337 18.0851 41.7872 17.8462 41.5722C17.6072 41.3573 17.4306 41.0818 17.3351 40.775C17.2241 40.4019 17.2418 39.9954 17.1446 39.6184C17.0444 39.2374 16.7646 38.8565 16.3729 38.8349C15.8231 38.8103 15.5216 39.4534 15.0828 39.7833C14.6017 40.1466 13.8614 40.1103 13.4235 39.6969C13.0995 39.3955 12.9355 38.9282 12.5507 38.7053C11.613 38.1594 10.3887 39.528 9.41865 38.8526C9.15356 38.6699 8.99451 38.3685 8.94051 38.0524C8.87963 37.6862 8.93363 37.3445 9.04556 37.0107C9.32145 36.181 9.93902 35.4191 9.91054 34.5365L9.42258 34.6003C8.17567 34.7515 6.91894 34.8084 5.66909 34.7731C5.32349 34.7652 4.8748 34.5208 4.92487 34.13C4.96414 33.8384 5.17622 33.5115 5.37454 33.2601L5.48942 33.1207C5.74763 32.8154 6.06378 32.5562 6.41625 32.3696C6.4192 32.3696 6.4192 32.3696 6.4192 32.3657C6.97589 32.079 7.21643 31.4104 6.94742 30.8468L6.80014 30.5375L6.05691 28.9892C5.92338 28.7055 5.78396 28.404 5.81931 28.0918C5.84218 27.903 5.9208 27.7252 6.04513 27.5813C6.25818 27.326 6.58513 27.1395 6.89734 27.0069C10.0077 25.6599 12.1403 26.7359 14.0627 26.8989C14.5732 26.9421 15.0798 26.9313 15.5825 26.8096C16.9512 26.4787 18.0105 25.3938 19.3183 24.8626C20.9432 24.2048 20.4415 24.3668 43.0715 24.6368C44.444 24.6545 46.1063 24.8479 46.7101 26.0506C46.7277 26.084 46.7464 26.1164 46.7601 26.1518C46.8976 26.4718 46.9113 26.8233 46.8465 27.165C46.3939 29.4035 44.2084 28.405 43.2511 29.489C46.9565 30.3264 48.443 29.6068 49.3217 30.1468C49.5043 30.2577 49.6457 30.4227 49.7027 30.6671C49.7743 30.9617 49.6703 31.2739 49.4719 31.5007Z" fill="#78E75A"/>
<path d="M49.4296 30.0348C49.3933 30.0741 49.357 30.1134 49.3216 30.1458C48.8111 30.6387 48.0826 30.7251 47.5151 31.1021C46.2535 31.9464 46.2937 33.7667 46.3075 35.2827C46.3075 35.4839 46.3045 35.695 46.1965 35.861C45.9805 36.1987 45.4749 36.185 45.1047 36.0338C44.7316 35.8865 44.3782 35.6381 43.9805 35.6381C42.5687 35.642 42.5324 38.3391 41.1244 38.4579C40.2663 38.5295 39.6448 37.5134 38.7828 37.481C37.4829 37.427 37.0941 39.4456 35.859 39.8589C35.0323 40.1358 34.185 39.5938 33.4309 39.155C32.6769 38.72 31.6273 38.4039 31.0058 39.0175C30.1507 39.8619 30.9508 41.7803 29.4938 41.7803C29.037 41.7726 28.5863 41.6744 28.1676 41.4914C27.749 41.3084 27.3708 41.0442 27.055 40.7141C26.9008 40.5481 26.7457 40.3577 26.5268 40.3155C26.0241 40.2075 25.7511 40.8535 25.3918 41.2197C24.681 41.9384 23.3447 41.4789 22.8587 40.5953C22.6515 40.2104 22.5504 39.7764 22.3138 39.4102C22.0801 39.0401 21.6344 38.7455 21.222 38.8781C20.7979 39.0185 20.6251 39.5104 20.356 39.8658C20.1583 40.1195 19.8958 40.3151 19.5962 40.4321C19.2965 40.5491 18.9709 40.5831 18.6536 40.5305C18.3379 40.4689 18.0448 40.3228 17.8056 40.1077C17.5665 39.8926 17.3902 39.6166 17.2957 39.3091C17.1848 38.9321 17.2024 38.5295 17.1013 38.1486C17.0012 37.7716 16.7243 37.3877 16.3335 37.37C15.7837 37.3406 15.4784 37.9836 15.0395 38.3175C14.5623 38.6807 13.822 38.6415 13.3842 38.232C13.0602 37.9267 12.8952 37.4593 12.5103 37.2365C11.5737 36.6945 10.3494 38.0592 9.37539 37.3877C9.23647 37.2906 9.12326 37.1612 9.0455 37.0107C8.97311 36.8785 8.92333 36.7351 8.89823 36.5865C8.7755 35.8678 9.10932 35.2355 9.42252 34.6003C9.66306 34.1045 9.88888 33.6087 9.87121 33.0667C8.46721 33.264 7.04357 33.3426 5.62583 33.3072C5.54021 33.3038 5.45555 33.2879 5.37448 33.2601C5.09761 33.1747 4.84626 32.9587 4.88554 32.6612C4.93266 32.3117 5.23015 31.9131 5.4491 31.6509C5.7083 31.3465 6.02445 31.0913 6.37594 30.9008H6.37986C6.55266 30.8105 6.69208 30.6848 6.80008 30.5375C7.0367 30.2076 7.09463 29.7688 6.90808 29.378L6.04605 27.5813C6.25812 27.326 6.58408 27.1395 6.89728 27.0069C10.0077 25.6599 12.1402 26.7359 14.0626 26.8989C14.5731 26.9421 15.0798 26.9313 15.5824 26.8096C16.9511 26.4787 18.0105 25.3938 19.3183 24.8626C20.9432 24.2048 20.4415 24.3668 43.0714 24.6368C44.444 24.6545 46.1062 24.8479 46.71 26.0506C46.1062 27.8297 44.1092 26.9961 43.2079 28.0201C47.4366 28.9843 49.3423 27.8621 49.6623 29.2013C49.7311 29.4958 49.627 29.8051 49.4296 30.0348Z" fill="#72D561"/>
<path d="M45.8735 30.2563C45.4435 30.6717 44.8288 30.7443 44.3497 31.0624C42.8741 32.0501 43.5446 34.6068 43.2373 35.0781C43.0557 35.3628 42.6286 35.35 42.3164 35.2234C42.0022 35.0987 41.7047 34.8895 41.3679 34.8895C40.177 34.8925 40.1466 37.1674 38.9595 37.2685C38.235 37.3284 37.7107 36.4713 36.9841 36.4438C35.8864 36.3986 35.5605 38.1011 34.5168 38.4496C33.8197 38.6833 33.105 38.2258 32.4687 37.8556C31.8325 37.4894 30.9469 37.2223 30.4236 37.7407C29.9543 38.2042 30.0996 38.9896 29.864 39.6072C29.809 39.7495 29.7295 39.889 29.6028 39.9705C29.4693 40.0559 29.3053 40.0706 29.1482 40.0706C28.7628 40.0642 28.3825 39.9814 28.0292 39.827C27.676 39.6726 27.3569 39.4497 27.0903 39.1713C26.9607 39.0318 26.8302 38.8708 26.6456 38.8345C26.2214 38.7442 25.9907 39.2891 25.6873 39.5983C25.0884 40.2041 23.9603 39.8163 23.5519 39.0711C23.3751 38.7471 23.2907 38.3799 23.0904 38.0706C22.894 37.7594 22.518 37.511 22.1695 37.6229C21.8121 37.7407 21.6668 38.1561 21.44 38.4555C21.112 38.8865 20.5338 39.1133 20.0036 39.0161C19.7372 38.9643 19.49 38.8411 19.2882 38.6597C19.0864 38.4783 18.9376 38.2455 18.8578 37.9862C18.7645 37.6681 18.7792 37.3284 18.6948 37.0073C18.6094 36.6892 18.3767 36.3652 18.0468 36.3495C17.5824 36.3259 17.3252 36.8679 16.955 37.1497C16.7483 37.2976 16.4976 37.3709 16.2438 37.3577C15.99 37.3445 15.7481 37.2456 15.5579 37.077C15.2859 36.8198 15.1455 36.4261 14.8215 36.2376C14.0312 35.7801 12.9983 36.9317 12.1765 36.3652C11.9527 36.2101 11.8172 35.945 11.774 35.6897C11.6709 35.0839 11.9527 34.5508 12.2158 34.0138C12.419 33.5955 12.6105 33.1773 12.5948 32.7197C11.4085 32.8859 10.2106 32.9538 9.0131 32.923C8.94089 32.9202 8.86945 32.907 8.80103 32.8837C8.56834 32.811 8.35626 32.6284 8.38866 32.3781C8.42794 32.0835 8.68027 31.7477 8.86485 31.5258C9.08281 31.2686 9.34986 31.0536 9.64637 30.8926H9.64932C9.79561 30.817 9.91343 30.7109 10.0038 30.5872C10.1058 30.4474 10.1681 30.2827 10.1842 30.1104C10.2003 29.938 10.1695 29.7646 10.0951 29.6083L9.36852 28.0934C9.54623 27.8774 9.82212 27.7203 10.0852 27.6084C11.1771 27.1369 12.373 26.9582 13.555 27.09C14.4131 27.1842 15.2761 27.4444 16.1313 27.5171C16.5613 27.5534 16.9884 27.5446 17.4126 27.4415C18.5672 27.1626 19.4606 26.2476 20.5642 25.7999C21.5755 25.3905 22.6996 25.3973 23.7904 25.4121C29.3937 25.4749 34.9959 25.5417 40.6011 25.6084C41.7597 25.6241 43.1617 25.7871 43.6713 26.8023C43.1617 28.3025 41.4769 27.5995 40.716 28.4626C42.0925 28.7767 43.4867 28.8818 44.6924 28.8327C45.2716 28.8082 46.0159 28.8504 46.1612 29.4601C46.2299 29.7527 46.0964 30.057 45.8735 30.2563Z" fill="#5EC363"/>
<path d="M50.5637 27.6487V29.2687L28.5317 42.0716L6.33276 29.249V27.629L28.3549 14.8359L50.5637 27.6487Z" fill="#F9A83D"/>
<path d="M50.5637 27.6523L50.5598 29.2723L28.5356 42.0713L28.5386 40.4513L50.5637 27.6523Z" fill="#FEBC1F"/>
<path d="M28.5385 40.4514L28.5356 42.0714L6.33276 29.2528L6.33571 27.6318L28.5385 40.4514Z" fill="#F9A83D"/>
<path d="M50.5637 27.6526L28.5376 40.4516L6.33472 27.632L28.3589 14.833L50.5637 27.6526Z" fill="#FFD06C"/>
<path d="M31.1875 18.7393C31.1118 18.9394 30.9601 19.1014 30.7654 19.19C30.1174 19.5846 29.0747 19.5846 28.4257 19.19C28.2308 19.1011 28.0791 18.9387 28.0035 18.7383C27.8906 18.429 28.0595 18.0903 28.4551 17.8655C29.0737 17.4993 30.1174 17.4993 30.7369 17.8655C31.1316 18.0913 31.3005 18.429 31.1885 18.7393H31.1875Z" fill="#FEBC1F"/>
<path d="M31.1875 18.7394C31.1118 18.9395 30.96 19.1015 30.7653 19.1901C30.1173 19.5848 29.0746 19.5848 28.4256 19.1901C28.2308 19.1012 28.079 18.9388 28.0034 18.7384C28.0858 18.5193 28.2468 18.3388 28.4551 18.2318C29.0736 17.8941 30.1173 17.8941 30.7368 18.2318C30.9452 18.339 31.1062 18.52 31.1884 18.7394H31.1875Z" fill="#F9A83D"/>
<path d="M35.5743 27.4043C35.4988 27.6048 35.347 27.7672 35.1521 27.856C34.5041 28.2497 33.4614 28.2497 32.8124 27.856C32.6176 27.7671 32.4658 27.6047 32.3902 27.4043C32.2773 27.0941 32.4462 26.7563 32.8419 26.5305C33.4604 26.1643 34.5041 26.1643 35.1236 26.5305C35.5183 26.7563 35.6862 27.0941 35.5743 27.4043Z" fill="#FEBC1F"/>
<path d="M35.5743 27.4045C35.4988 27.6049 35.347 27.7673 35.1521 27.8561C34.5041 28.2498 33.4614 28.2498 32.8124 27.8561C32.6176 27.7672 32.4658 27.6048 32.3903 27.4045C32.4725 27.185 32.6335 27.004 32.8419 26.8969C33.4604 26.5591 34.5041 26.5591 35.1236 26.8969C35.3321 27.004 35.4921 27.185 35.5743 27.4045Z" fill="#F9A83D"/>
<path d="M29.596 30.6524C29.5205 30.8528 29.3687 31.0152 29.1738 31.104C28.5248 31.4977 27.4821 31.4977 26.8341 31.104C26.6389 31.0153 26.4868 30.853 26.411 30.6524C26.2981 30.3421 26.4669 30.0044 26.8626 29.7786C27.4812 29.4124 28.5248 29.4124 29.1444 29.7786C29.539 30.0044 29.7089 30.3421 29.596 30.6524Z" fill="#FEBC1F"/>
<path d="M29.596 30.6525C29.5205 30.853 29.3688 31.0153 29.1738 31.1041C28.5249 31.4979 27.4822 31.4979 26.8342 31.1041C26.639 31.0155 26.4868 30.8531 26.411 30.6525C26.4932 30.433 26.6542 30.2521 26.8626 30.1449C27.4812 29.8072 28.5249 29.8072 29.1444 30.1449C29.3528 30.2521 29.5138 30.433 29.596 30.6525Z" fill="#F9A83D"/>
<path d="M36.5267 32.9995C35.5066 33.62 33.9769 33.185 33.7648 32.5478C33.4212 31.6053 35.4113 31.0319 36.4982 31.674C36.8929 31.8998 37.0961 32.7148 36.5267 32.9995Z" fill="#FEBC1F"/>
<path d="M36.9498 32.5475C36.7318 33.2004 35.1776 33.602 34.1879 32.9991C33.9927 32.9105 33.8406 32.7481 33.7648 32.5475C34.0466 31.7022 35.7019 31.6059 36.4982 32.0409C36.7064 32.1478 36.8674 32.3284 36.9498 32.5475Z" fill="#F9A83D"/>
<path d="M30.7653 37.1919C30.1173 37.5856 29.0746 37.5856 28.4257 37.1919C28.2308 37.103 28.0791 36.9406 28.0035 36.7402C27.6598 35.7977 29.649 35.2243 30.7369 35.8664C31.4182 36.2562 31.3348 36.9071 30.7653 37.1919Z" fill="#FEBC1F"/>
<path d="M31.1875 36.7402C31.112 36.9406 30.9602 37.103 30.7653 37.1918C30.1173 37.5855 29.0746 37.5855 28.4256 37.1918C28.2308 37.1029 28.079 36.9406 28.0034 36.7402C28.3451 35.7152 30.8507 35.7289 31.1875 36.7402Z" fill="#F9A83D"/>
<path d="M35.9267 23.2747C35.851 23.4748 35.6992 23.6368 35.5045 23.7254C34.8565 24.12 33.8128 24.12 33.1648 23.7254C32.97 23.6365 32.8182 23.4741 32.7426 23.2737C32.6297 22.9645 32.7986 22.6257 33.1933 22.3999C33.8128 22.0347 34.8555 22.0347 35.476 22.3999C35.8707 22.6257 36.0396 22.9645 35.9277 23.2737L35.9267 23.2747Z" fill="#FEBC1F"/>
<path d="M35.9267 23.2746C35.851 23.4747 35.6992 23.6367 35.5045 23.7252C34.8565 24.1199 33.8129 24.1199 33.1649 23.7252C32.97 23.6363 32.8182 23.474 32.7427 23.2736C32.8248 23.0547 32.9855 22.8741 33.1933 22.767C33.8129 22.4292 34.8555 22.4292 35.4761 22.767C35.6845 22.8741 35.8445 23.0551 35.9267 23.2746Z" fill="#F9A83D"/>
<path d="M22.8931 27.4043C22.8176 27.6048 22.6658 27.7672 22.4709 27.856C21.8219 28.2497 20.7793 28.2497 20.1313 27.856C19.936 27.7673 19.7839 27.6049 19.7081 27.4043C19.5952 27.0941 19.7641 26.7563 20.1597 26.5305C20.7783 26.1643 21.8219 26.1643 22.4415 26.5305C22.8362 26.7563 23.005 27.0941 22.8931 27.4043Z" fill="#FEBC1F"/>
<path d="M22.8931 27.4045C22.8177 27.6049 22.6659 27.7673 22.471 27.8561C21.822 28.2498 20.7793 28.2498 20.1313 27.8561C19.9361 27.7674 19.7839 27.605 19.7081 27.4045C19.7903 27.185 19.9514 27.004 20.1598 26.8969C20.7783 26.5591 21.822 26.5591 22.4415 26.8969C22.6499 27.004 22.8109 27.185 22.8931 27.4045Z" fill="#F9A83D"/>
<path d="M23.0571 23.1492C22.037 23.7697 20.5073 23.3347 20.2953 22.6975C20.1823 22.3883 20.3512 22.0496 20.7469 21.8237C21.3654 21.4585 22.4091 21.4585 23.0286 21.8237C23.71 22.2135 23.6275 22.8645 23.0581 23.1492H23.0571Z" fill="#FEBC1F"/>
<path d="M23.4802 22.6984C23.2622 23.3504 21.708 23.7519 20.7183 23.1491C20.5231 23.0604 20.371 22.898 20.2952 22.6974C20.6339 21.6813 23.1405 21.6803 23.4802 22.6984Z" fill="#F9A83D"/>
<path d="M23.4803 31.7942C23.4046 31.9943 23.2528 32.1563 23.0581 32.2449C22.4091 32.6396 21.3664 32.6396 20.7184 32.2449C20.5232 32.1562 20.3711 31.9938 20.2953 31.7933C20.1823 31.484 20.3512 31.1453 20.7469 30.9194C21.3654 30.5542 22.4091 30.5542 23.0286 30.9194C23.4233 31.1453 23.5922 31.485 23.4803 31.7942Z" fill="#FEBC1F"/>
<path d="M23.4802 31.7941C23.4045 31.9942 23.2527 32.1562 23.058 32.2448C22.409 32.6395 21.3663 32.6395 20.7183 32.2448C20.5231 32.1561 20.371 31.9937 20.2952 31.7931C20.3776 31.574 20.5386 31.3934 20.7468 31.2865C21.3653 30.9488 22.409 30.9488 23.0285 31.2865C23.237 31.3937 23.398 31.5746 23.4802 31.7941Z" fill="#F9A83D"/>
<path d="M30.0368 24.203C29.9533 24.4543 29.7442 24.7057 29.4094 24.8726C28.4472 25.4587 26.8979 25.4587 25.9357 24.8726C25.1032 24.4563 24.952 23.4912 25.978 22.906C26.8979 22.3621 28.4472 22.3621 29.3672 22.906C29.9533 23.2398 30.2047 23.7425 30.0368 24.203Z" fill="#FEBC1F"/>
<path d="M30.0368 24.2034C29.9533 24.4547 29.7442 24.706 29.4094 24.873C28.4472 25.4591 26.8979 25.4591 25.9357 24.873C25.6009 24.706 25.3918 24.4547 25.3074 24.2034C25.7266 22.9466 28.1841 22.8043 29.3672 23.4503C29.7442 23.6594 29.9533 23.952 30.0368 24.2034Z" fill="#F9A83D"/>
<path d="M43.9521 27.8951C43.8686 28.1465 43.6595 28.3978 43.3237 28.5647C41.8097 29.4876 39.5378 28.8396 39.2226 27.8951C39.0557 27.4346 39.3071 26.9329 39.8922 26.5981C40.8132 26.0532 42.3615 26.0532 43.2825 26.5981C43.8686 26.932 44.12 27.4346 43.9521 27.8951Z" fill="#FEBC1F"/>
<path d="M43.9521 27.8947C43.8686 28.1461 43.6595 28.3974 43.3237 28.5643C41.8097 29.4872 39.5378 28.8392 39.2227 27.8947C39.3071 27.6434 39.5162 27.3508 39.8923 27.1417C40.8132 26.639 42.3615 26.639 43.2825 27.1417C43.6595 27.3508 43.8686 27.6434 43.9521 27.8947Z" fill="#F9A83D"/>
<path d="M16.8854 27.9156C16.802 28.167 16.5928 28.4183 16.257 28.5852C15.2949 29.1714 13.7465 29.1714 12.7844 28.5852C12.4496 28.4183 12.2404 28.167 12.156 27.9156C11.9891 27.4552 12.2404 26.9534 12.8256 26.6186C13.7465 26.0737 15.2949 26.0737 16.2158 26.6186C16.802 26.9525 17.0533 27.4552 16.8854 27.9156Z" fill="#FEBC1F"/>
<path d="M16.8853 27.9152C16.8018 28.1666 16.5927 28.4179 16.2569 28.5848C15.2948 29.171 13.7464 29.171 12.7842 28.5848C12.4494 28.4179 12.2403 28.1666 12.1559 27.9152C12.2403 27.6639 12.4494 27.3713 12.8255 27.1622C13.7464 26.6595 15.2948 26.6595 16.2157 27.1622C16.5927 27.3713 16.8018 27.6639 16.8853 27.9152Z" fill="#F9A83D"/>
<path d="M33.6371 28.0602C33.912 28.2958 34.2164 28.5413 34.56 28.7965C34.2065 28.5413 33.9022 28.2958 33.6371 28.0602ZM46.7738 27.7067C46.822 27.6112 46.8539 27.5084 46.8681 27.4023C46.8484 27.5015 46.82 27.6026 46.7738 27.7067Z" fill="#CC104A"/>
<path d="M46.8916 27.1964C46.8229 27.9681 47.1273 28.4924 46.3614 29.16C45.2127 30.1418 41.7469 32.4982 35.8265 30.2793C34.8251 29.8964 33.8924 29.3171 33.1462 28.5414C32.3411 27.6971 32.0269 26.9411 32.0367 26.2833V25.3407C32.0367 23.5538 34.3538 22.4345 35.5418 21.9731C37.3582 21.2564 39.4691 21.924 40.4116 22.3265C40.4902 22.3658 40.5785 22.4051 40.6571 22.4542C41.5505 22.9647 42.4833 24.1036 42.5324 24.1724C42.6404 24.192 44.6138 24.732 45.5073 25.2524C45.5858 25.3014 45.6644 25.3505 45.7233 25.3996C46.2044 25.7727 46.9014 26.4698 46.8916 27.1964Z" fill="#CC104A"/>
<path d="M33.6371 28.0602C33.912 28.2958 34.2164 28.5413 34.56 28.7965C34.2065 28.5413 33.9022 28.2958 33.6371 28.0602ZM46.7738 27.7067C46.822 27.6112 46.8539 27.5084 46.8681 27.4023C46.8484 27.5015 46.82 27.6026 46.7738 27.7067Z" fill="#CC104A"/>
<path d="M46.8956 27.1945C46.8259 27.9584 47.1313 28.4886 46.3595 29.1582C45.2118 30.1449 41.7479 32.4964 35.8305 30.2774C34.8212 29.8994 33.8895 29.3182 33.1472 28.5367C32.3441 27.6923 32.0299 26.9412 32.0329 26.2805V25.333C32.0329 26.2952 32.6956 27.4508 34.5659 28.7988C41.26 31.8827 45.1323 29.2701 46.3595 28.2117C46.7464 27.8808 46.8956 27.5303 46.8956 27.1945Z" fill="#CC104A"/>
<path d="M45.5054 25.2519C45.5908 25.301 45.6644 25.3491 45.7253 25.3963C46.4224 25.9431 47.5849 27.1586 46.3586 28.2141C45.1323 29.2705 41.258 31.8851 34.564 28.8012C29.219 24.9338 33.7216 22.6825 35.5439 21.9687C37.3602 21.2559 39.4652 21.9265 40.4117 22.3281C40.4932 22.3634 40.5767 22.4066 40.6611 22.4547C41.5506 22.9682 42.4873 24.1081 42.5364 24.169C42.6395 24.1965 44.6139 24.7365 45.5054 25.2519Z" fill="#F45170"/>
<path d="M39.1246 23.65C39.153 23.6657 39.1717 23.6853 39.1707 23.706C39.1687 23.7551 39.047 23.8189 38.994 23.8503L38.9311 23.8758L38.8781 23.8797C38.8192 23.8827 38.7564 23.8847 38.7004 23.8797C38.6469 23.8732 38.5952 23.8562 38.5482 23.8297L38.5217 23.7865L38.5364 23.7609C38.5594 23.732 38.5873 23.7074 38.6189 23.6883C38.7033 23.6465 38.795 23.6215 38.8889 23.6147L38.9714 23.6078C39.025 23.6097 39.0775 23.6242 39.1246 23.65ZM37.9493 23.4016C38.0357 23.4517 38.0632 23.5351 37.9591 23.5881C37.8521 23.6441 37.7431 23.7001 37.6057 23.7207L37.5232 23.7276C37.4761 23.7246 37.4348 23.7079 37.3926 23.6932C37.3569 23.6799 37.3221 23.6641 37.2886 23.6461C37.2512 23.6245 37.2247 23.5999 37.2228 23.5715L37.2493 23.5116C37.3494 23.3839 37.5752 23.3496 37.8001 23.3604C37.858 23.3633 37.91 23.38 37.9493 23.4016ZM36.7319 23.3741L36.78 23.4252C36.8035 23.4743 36.8281 23.5214 36.8369 23.5685C36.8487 23.6274 36.8526 23.6903 36.781 23.7354C36.7397 23.759 36.6896 23.7914 36.6268 23.7904C36.5917 23.7868 36.5578 23.7754 36.5276 23.757C36.4834 23.7295 36.4411 23.699 36.401 23.6657C36.3634 23.6448 36.3317 23.6147 36.3087 23.5783C36.2792 23.5135 36.3431 23.4438 36.4324 23.4026C36.4711 23.3822 36.5129 23.3683 36.5561 23.3613L36.6455 23.3584L36.7319 23.3741ZM35.8934 23.974C35.9481 24.0018 35.9963 24.041 36.0348 24.0889L35.9759 24.0692L36.0348 24.1134L36.0171 24.1272C35.978 24.1563 35.9326 24.1758 35.8846 24.1841C35.8208 24.1865 35.7575 24.1733 35.7 24.1458C35.6201 24.1149 35.5427 24.0782 35.4683 24.0359L35.4349 23.9966C35.4251 23.9671 35.4673 23.9396 35.5085 23.922C35.5712 23.8946 35.6397 23.8835 35.7078 23.8896C35.752 23.8984 35.7844 23.9171 35.8207 23.9347L35.8934 23.974ZM35.6892 24.7977L35.5939 24.8567C35.5397 24.8702 35.4835 24.8735 35.428 24.8665C35.3426 24.8565 35.2593 24.8326 35.1816 24.7958C35.1364 24.7732 35.0952 24.7526 35.0539 24.729L35.0343 24.7113L35.053 24.6947C35.0953 24.6728 35.1402 24.6559 35.1865 24.6446C35.2307 24.6328 35.2778 24.6191 35.3259 24.6249L35.4182 24.6544C35.48 24.6839 35.534 24.7153 35.591 24.7477L35.6892 24.7977ZM35.9111 25.5871C35.9287 25.5969 35.9425 25.6087 35.9484 25.6195C35.9641 25.649 35.9729 25.6814 35.9582 25.7138C35.9317 25.7707 35.8374 25.809 35.7363 25.8159C35.5896 25.823 35.4435 25.7933 35.3112 25.7295C35.289 25.7177 35.2696 25.7013 35.2542 25.6814C35.2277 25.649 35.2336 25.6107 35.2601 25.5783C35.2993 25.5428 35.3489 25.5211 35.4015 25.5164H35.5321L35.6636 25.5263C35.7108 25.5302 35.7618 25.5361 35.8031 25.5459C35.8407 25.5548 35.877 25.5687 35.9111 25.5871Z" fill="#FFDE9B"/>
<path d="M44.7808 27.0224C44.6493 28.0405 43.743 28.9506 42.1996 29.0292C40.8604 29.0999 39.8079 29.2148 39.1265 28.821C39.0207 28.7604 38.9234 28.6861 38.8369 28.6001C38.183 27.9482 38.0642 27.4298 38.7289 27.4514C39.3965 27.473 40.6709 27.8412 40.7387 27.8598C40.8162 27.8677 42.2919 28.0071 42.6876 27.5624C43.0823 27.1186 43.1647 27.0263 42.6493 26.6493C42.1338 26.2732 41.2728 25.7136 42.5364 25.583C42.5845 25.5918 43.4946 25.7529 44.1593 26.1368C44.5422 26.3577 44.8299 26.6502 44.7808 27.0224ZM43.3709 27.1451C43.3974 27.1676 43.4256 27.188 43.4554 27.206C43.4917 27.2276 43.5339 27.2423 43.585 27.2452L43.689 27.2295C43.905 27.1686 43.9669 27.04 43.9482 26.9094C43.9424 26.8761 43.9149 26.8456 43.8756 26.823C43.7882 26.774 43.6449 26.7573 43.5526 26.8181C43.4544 26.878 43.3601 26.9438 43.3228 27.0214L43.313 27.0705C43.3199 27.098 43.3493 27.1225 43.3709 27.1451ZM40.127 28.3881C40.18 28.3714 40.2183 28.3419 40.233 28.3056V28.23L40.2114 28.1524C40.2056 28.1249 40.1997 28.0974 40.182 28.0739C40.1493 28.0327 40.1042 28.0031 40.0534 27.9894C39.9997 27.9788 39.9447 27.9769 39.8904 27.9836C39.7922 27.9993 39.7274 28.0542 39.7156 28.1132C39.7038 28.1721 39.7343 28.23 39.7785 28.283C39.8028 28.3139 39.8328 28.3399 39.8668 28.3596C39.9444 28.4048 40.0416 28.4116 40.127 28.389M43.3788 26.4362C43.4089 26.4195 43.4354 26.3969 43.4567 26.3697C43.4779 26.3426 43.4935 26.3114 43.5025 26.2781L43.5172 26.232C43.5153 26.2035 43.4848 26.1672 43.4426 26.1426C43.4128 26.1251 43.379 26.1156 43.3444 26.1152C43.258 26.1161 43.151 26.1888 43.099 26.2192L43.0538 26.2556L43.0479 26.287C43.0405 26.3209 43.0405 26.3561 43.0479 26.3901C43.0646 26.4297 43.0959 26.4613 43.1353 26.4784L43.2099 26.4932L43.2541 26.4843C43.2974 26.4734 43.3393 26.4572 43.3788 26.4362ZM41.6233 28.5157L41.6528 28.5059C41.6861 28.4851 41.7153 28.4585 41.7392 28.4273C41.7588 28.4018 41.7804 28.3724 41.7715 28.3468L41.7176 28.2918C41.6694 28.2575 41.6135 28.2251 41.5605 28.1937L41.4731 28.1367L41.3729 28.1917C41.3072 28.2781 41.3916 28.3655 41.478 28.4313C41.5173 28.4568 41.5526 28.4804 41.5938 28.5049L41.6233 28.5157Z" fill="#F45170"/>
<path d="M43.4425 26.1427C43.4847 26.1673 43.5152 26.2036 43.5171 26.2311L43.5024 26.2782C43.4934 26.3115 43.4778 26.3427 43.4566 26.3698C43.4353 26.397 43.4088 26.4196 43.3787 26.4363C43.3393 26.4576 43.2974 26.4741 43.254 26.4854L43.2098 26.4932L43.1352 26.4775C43.0961 26.4602 43.0652 26.4286 43.0488 26.3892C43.0415 26.3555 43.0415 26.3207 43.0488 26.2871L43.0537 26.2556L43.0979 26.2193C43.1509 26.1889 43.2579 26.1162 43.3433 26.1152C43.3797 26.1152 43.414 26.126 43.4415 26.1427H43.4425Z" fill="#FFDE9B"/>
<path d="M36.8791 26.3835C36.9203 26.7703 36.0259 26.7036 34.8988 26.3266C34.7659 26.2839 34.6376 26.2279 34.5159 26.1596C33.8335 25.7659 34.0289 25.1562 34.1457 24.3796C34.2773 23.4862 35.8443 22.9579 37.6017 22.8784C38.2448 22.849 38.7505 23.0139 39.1334 23.2348C39.7971 23.6177 40.0759 24.144 40.0906 24.1715C39.8727 24.9059 38.9026 24.4071 38.2527 24.1126C37.6007 23.8141 37.4407 23.8622 36.6769 24.0929C35.911 24.3236 36.1565 25.1778 36.1693 25.222C36.2026 25.2613 36.8418 25.9976 36.8791 26.3835ZM37.8001 23.3595C37.5742 23.3497 37.3494 23.384 37.2493 23.5117L37.2227 23.5716C37.2247 23.601 37.2522 23.6246 37.2885 23.6462C37.319 23.6639 37.3573 23.6796 37.3926 23.6933C37.4338 23.7071 37.4761 23.7247 37.5232 23.7277L37.6066 23.7208C37.7431 23.7012 37.8521 23.6442 37.9591 23.5892C38.0632 23.5352 38.0357 23.4518 37.9493 23.4027C37.9035 23.3773 37.8524 23.3618 37.8001 23.3595ZM35.7363 25.815C35.8374 25.8091 35.9326 25.7708 35.9582 25.7139C35.9729 25.6815 35.9641 25.6491 35.9483 25.6196C35.9387 25.606 35.9259 25.5949 35.911 25.5872C35.877 25.5688 35.8407 25.5549 35.803 25.546C35.7572 25.5357 35.7105 25.5291 35.6636 25.5264L35.533 25.5166H35.4015C35.3489 25.5212 35.2992 25.5429 35.2601 25.5784C35.2336 25.6108 35.2277 25.6491 35.2542 25.6815C35.2695 25.7014 35.2889 25.7178 35.3111 25.7296C35.4434 25.7934 35.5896 25.8232 35.7363 25.816M36.4324 23.4027C36.344 23.4439 36.2782 23.5136 36.3087 23.5794C36.3318 23.6155 36.3635 23.6452 36.401 23.6658C36.4411 23.6991 36.4834 23.7296 36.5276 23.7571C36.5551 23.7738 36.5885 23.7866 36.6268 23.7905C36.6896 23.7915 36.7397 23.7591 36.7809 23.7346C36.8526 23.6904 36.8497 23.6266 36.8369 23.5676C36.8271 23.5215 36.8035 23.4734 36.7799 23.4253L36.7309 23.3742L36.6454 23.3585L36.5571 23.3615C36.5135 23.3683 36.4714 23.3823 36.4324 23.4027ZM38.8889 23.6148C38.795 23.6216 38.7033 23.6466 38.6189 23.6884C38.5873 23.7075 38.5594 23.7321 38.5364 23.7611L38.5217 23.7866L38.5482 23.8298L38.5639 23.8396C38.6068 23.8605 38.653 23.8738 38.7004 23.8789C38.7563 23.8848 38.8182 23.8828 38.8781 23.8789L38.9311 23.8759L38.9939 23.8504C39.047 23.819 39.1687 23.7552 39.1707 23.7061C39.1717 23.6864 39.153 23.6668 39.1245 23.6501C39.0775 23.6243 39.025 23.6098 38.9714 23.6079L38.8889 23.6148ZM35.8845 24.1842C35.9326 24.176 35.978 24.1564 36.0171 24.1273L36.0357 24.1135L35.9758 24.0684L36.0347 24.089C35.9963 24.0411 35.9481 24.0019 35.8934 23.9741C35.8694 23.9606 35.8451 23.9476 35.8207 23.9348C35.7844 23.9172 35.752 23.8985 35.7078 23.8897C35.6397 23.8836 35.5712 23.8947 35.5085 23.9221C35.4673 23.9398 35.426 23.9672 35.4349 23.9967L35.4682 24.036L35.4898 24.0497C35.5537 24.086 35.6273 24.1165 35.6999 24.1459C35.7575 24.1735 35.8208 24.1866 35.8845 24.1842ZM35.428 24.8666C35.4837 24.8737 35.5404 24.8704 35.5949 24.8568L35.6891 24.7979L35.591 24.7488C35.534 24.7154 35.48 24.684 35.4182 24.6555L35.3259 24.626C35.2778 24.6192 35.2306 24.6329 35.1865 24.6447C35.1402 24.6558 35.0954 24.6722 35.0529 24.6938L35.0353 24.7115L35.0529 24.7291C35.0951 24.7527 35.1364 24.7733 35.1806 24.7959C35.2586 24.8329 35.3422 24.8567 35.428 24.8666Z" fill="#F45170"/>
<path d="M43.8755 26.8237C43.9148 26.8463 43.9423 26.8767 43.9482 26.9101C43.9668 27.0407 43.905 27.1693 43.689 27.2302L43.5849 27.2449C43.5392 27.2432 43.4946 27.23 43.4553 27.2066C43.4255 27.1887 43.3973 27.1683 43.3709 27.1457C43.3493 27.1232 43.3198 27.0986 43.3139 27.0711L43.3228 27.022C43.3601 26.9435 43.4553 26.8787 43.5525 26.8188C43.6448 26.7579 43.7881 26.7736 43.8755 26.8237ZM40.1093 28.0117C40.137 28.0278 40.1614 28.0491 40.1809 28.0745C40.1996 28.0981 40.2055 28.1256 40.2114 28.1531L40.233 28.2307V28.3063C40.1986 28.3917 40.0121 28.4437 39.8658 28.3603C39.8321 28.3404 39.8025 28.3144 39.7784 28.2837C39.7342 28.2307 39.7038 28.1717 39.7156 28.1138C39.7273 28.0549 39.7921 27.9999 39.8893 27.9842C39.944 27.9774 39.9993 27.9794 40.0533 27.9901C40.0729 27.9931 40.0916 28.0019 40.1093 28.0117ZM41.473 28.1374C41.5712 28.1983 41.6792 28.265 41.7175 28.2925L41.7715 28.3475C41.7872 28.3936 41.6959 28.481 41.6537 28.5056L41.6242 28.5154L41.5948 28.5056C41.5525 28.482 41.5162 28.4575 41.4769 28.4319C41.421 28.3887 41.3699 28.3426 41.3552 28.2886C41.3495 28.2724 41.3481 28.255 41.3512 28.2381C41.3543 28.2212 41.3618 28.2055 41.3729 28.1924L41.473 28.1374Z" fill="#FFDE9B"/>
<path d="M45.2491 28.0241C45.1107 28.2666 44.9222 28.514 44.5756 28.674C44.392 28.7565 44.179 28.8115 43.9679 28.8645C42.2359 29.3063 41.9394 29.3878 41.6115 29.4339C41.3739 29.4615 41.135 29.4759 40.8958 29.4771C38.2586 29.5478 38.0269 29.2464 37.5124 29.1522C37.372 29.1247 37.2405 29.1296 37.102 29.0491C36.9675 28.9715 36.9007 28.8507 36.9135 28.7378C36.9331 28.5906 37.0539 28.4551 37.1815 28.3265C37.8335 27.6814 38.7151 27.1286 39.5939 26.5788C40.1476 26.2578 40.6591 25.9151 41.2237 25.6009C41.4053 25.5027 41.5771 25.3584 41.7833 25.2828C42.0415 25.1876 42.4333 25.1915 42.7298 25.164C42.9674 25.1434 43.2109 25.1189 43.4514 25.1414C43.8353 25.1758 44.1583 25.3133 44.4382 25.4743C44.5069 25.5135 44.5727 25.5548 44.6355 25.596C44.8417 25.7276 45.0282 25.867 45.1785 26.0221C45.7577 26.624 45.6311 27.3741 45.2491 28.0241ZM42.1996 29.0294C43.743 28.9509 44.6493 28.0407 44.7798 27.0226C44.8289 26.6495 44.5432 26.3579 44.1593 26.137C43.4946 25.7531 42.5845 25.5921 42.5364 25.5833C41.2728 25.7138 42.1338 26.2735 42.6493 26.6495C43.1647 27.0265 43.0823 27.1188 42.6876 27.5626C42.2919 28.0064 40.8162 27.867 40.7387 27.8601C40.6709 27.8405 39.3975 27.4733 38.7289 27.4507C38.0642 27.431 38.183 27.9485 38.8369 28.5994C38.9243 28.6878 39.0205 28.7604 39.1255 28.8213C39.8079 29.214 40.8604 29.1001 42.1996 29.0294ZM40.6159 24.6083C40.4863 24.7291 40.237 24.8282 40.0691 24.9333C39.5271 25.2622 38.938 25.5597 38.3843 25.8807C37.4407 26.3913 36.4874 26.9048 35.376 27.2847C35.1472 27.3697 34.9076 27.4216 34.6642 27.4389C34.4698 27.4467 34.2616 27.4094 34.1271 27.3309C34.0883 27.3099 34.0537 27.2819 34.025 27.2484C33.9897 27.1993 33.9798 27.1463 33.9504 27.0953C33.9082 27.0197 33.8335 26.949 33.7737 26.8773C33.3024 26.351 33.3338 25.7286 33.378 25.1365C33.3797 24.9955 33.4039 24.8556 33.4497 24.7222C33.5056 24.5857 33.5999 24.4591 33.6941 24.3314C33.9396 24.0074 34.1801 23.6795 34.4246 23.3545C34.5159 23.2328 34.6072 23.1071 34.7525 23.0021C35.0274 22.8008 35.4545 22.6908 35.8698 22.6093C36.993 22.3865 38.2871 22.3109 39.3288 22.6447C39.5958 22.7311 39.8374 22.8391 40.0661 22.9579C40.1368 22.9942 40.2075 23.0315 40.2762 23.0708C40.5541 23.2318 40.7937 23.4193 40.8545 23.6422C40.8909 23.7797 40.8526 23.922 40.8182 24.0605C40.7711 24.2323 40.7789 24.4591 40.6159 24.6083ZM34.8988 26.3265C36.0259 26.7035 36.9204 26.7703 36.8791 26.3834C36.8418 25.9976 36.2027 25.2612 36.1693 25.2229C36.1565 25.1778 35.9121 24.3236 36.6769 24.0929C37.4407 23.8621 37.6008 23.814 38.2527 24.1125C38.9017 24.407 39.8727 24.9058 40.0907 24.1714C40.0759 24.1439 39.7971 23.6186 39.1324 23.2347C38.6677 22.9697 38.1358 22.8458 37.6018 22.8783C35.8443 22.9569 34.2773 23.4861 34.1458 24.3805C34.0289 25.1562 33.8335 25.7649 34.5159 26.1596C34.6219 26.2205 34.7476 26.2764 34.8988 26.3265Z" fill="#E93565"/>
<path d="M42.9006 28.0752C42.9557 28.1029 43.0043 28.142 43.043 28.1901L42.9841 28.1704L43.043 28.2146L43.0253 28.2283C42.9124 28.3049 42.8417 28.3 42.7072 28.248C42.5148 28.1685 42.5757 28.1871 42.4755 28.137L42.4421 28.0978C42.4333 28.0683 42.4745 28.0408 42.5158 28.0231C42.5784 27.9958 42.647 27.9847 42.7151 27.9907C42.7593 27.9996 42.7926 28.0182 42.828 28.0359L42.9006 28.0752ZM43.6763 27.546L43.7244 27.598C43.7494 27.6428 43.7685 27.6907 43.7813 27.7404C43.7931 27.7993 43.797 27.8621 43.7263 27.9073C43.6841 27.9309 43.6341 27.9642 43.5722 27.9623C43.5368 27.9591 43.5026 27.948 43.4721 27.9299C43.4278 27.9024 43.3855 27.8719 43.3454 27.8386C43.3077 27.8173 43.2759 27.7869 43.2531 27.7502C43.2237 27.6854 43.2875 27.6167 43.3768 27.5754C43.4159 27.555 43.458 27.5411 43.5015 27.5342L43.5899 27.5303L43.6763 27.546Z" fill="#FFDE9B"/>
<path d="M35.6793 33.2842V34.2268C35.6793 34.5704 35.532 34.9141 35.1393 35.2479C33.9906 36.2297 30.5248 38.5861 24.6142 36.3672C23.6029 35.9842 22.6702 35.405 21.924 34.6293C21.1288 33.785 20.8146 33.029 20.8146 32.3712V31.4286C20.8146 29.6417 23.1415 28.5224 24.3295 28.061C26.136 27.3442 28.2469 28.0119 29.1895 28.4144C29.2778 28.4537 29.3564 28.493 29.4448 28.5421C30.3284 29.0526 31.2709 30.2013 31.32 30.2602C32.1497 30.5086 33.7805 30.9652 34.5109 31.4875C34.992 31.8606 35.6793 32.5479 35.6793 33.2842Z" fill="#CC104A"/>
<path d="M35.6774 33.2834C35.6076 34.0463 35.913 34.5765 35.1413 35.247C33.9935 36.2328 30.5307 38.5852 24.6123 36.3663C23.6039 35.9873 22.6712 35.4061 21.929 34.6255C21.1258 33.7812 20.8117 33.0291 20.8146 32.3693V31.4219C20.8146 32.3821 21.4773 33.5397 23.3477 34.8877C30.0417 37.9706 33.914 35.359 35.1413 34.2996C35.5281 33.9687 35.6774 33.6192 35.6774 33.2824V33.2834Z" fill="#CC104A"/>
<path d="M34.507 31.4838C35.2041 32.0307 36.3666 33.2472 35.1403 34.3016C33.914 35.3591 30.0398 37.9727 23.3457 34.8888C18.0007 31.0214 22.5033 28.7711 24.3256 28.0573C26.142 27.3435 28.247 28.0141 29.1934 28.4166C29.2749 28.451 29.3594 28.4942 29.4438 28.5423C30.3324 29.0558 31.268 30.1967 31.3171 30.2565C32.0446 30.4549 33.915 31.0204 34.507 31.4838Z" fill="#F45170"/>
<path d="M27.9063 29.7398C27.9357 29.7556 27.9544 29.7752 27.9534 29.7948C27.9505 29.8439 27.8287 29.9087 27.7757 29.9392L27.7139 29.9647L27.6599 29.9686C27.6009 29.9716 27.5381 29.9735 27.4821 29.9686C27.4287 29.9624 27.377 29.9457 27.33 29.9195L27.3035 29.8753L27.3182 29.8498C27.3411 29.8209 27.3691 29.7963 27.4007 29.7772C27.485 29.7353 27.5767 29.7103 27.6707 29.7035L27.7531 29.6966C27.8068 29.6986 27.8592 29.713 27.9063 29.7389V29.7398ZM26.7311 29.4914C26.8175 29.5405 26.8449 29.625 26.7409 29.678C26.6348 29.733 26.5249 29.7899 26.3884 29.8105L26.3049 29.8174C26.2578 29.8135 26.2166 29.7968 26.1744 29.783C26.1386 29.7694 26.1038 29.7533 26.0703 29.7349C26.033 29.7143 26.0065 29.6898 26.0045 29.6603L26.031 29.6014C26.1312 29.4738 26.357 29.4384 26.5828 29.4492C26.6397 29.4522 26.6918 29.4689 26.7311 29.4914ZM25.5136 29.463L25.5617 29.515C25.5853 29.5631 25.6098 29.6112 25.6187 29.6574C25.6304 29.7163 25.6344 29.7791 25.5637 29.8243C25.5215 29.8478 25.4714 29.8812 25.4095 29.8793C25.3741 29.8761 25.3399 29.865 25.3094 29.8469C25.2651 29.8193 25.2228 29.7888 25.1827 29.7556C25.145 29.7343 25.1133 29.7039 25.0904 29.6672C25.061 29.6024 25.1248 29.5337 25.2141 29.4924C25.2532 29.472 25.2953 29.4581 25.3388 29.4512L25.4272 29.4473L25.5136 29.463ZM24.6751 30.0638C24.7302 30.0915 24.7788 30.1307 24.8175 30.1787L24.7576 30.1581L24.8165 30.2023L24.7998 30.216C24.7604 30.2453 24.7147 30.2648 24.6663 30.273C24.6026 30.2753 24.5392 30.2622 24.4817 30.2347C24.4019 30.2038 24.3244 30.167 24.25 30.1247L24.2166 30.0854C24.2078 30.056 24.249 30.0285 24.2903 30.0118C24.3528 29.9841 24.4214 29.9726 24.4896 29.9784C24.5337 29.9882 24.5671 30.0059 24.6025 30.0236L24.6751 30.0629V30.0638ZM24.4709 30.8866L24.3757 30.9455C24.3214 30.959 24.2652 30.9624 24.2097 30.9553C24.1243 30.9454 24.041 30.9215 23.9633 30.8846C23.9181 30.863 23.8769 30.8424 23.8357 30.8179L23.817 30.8012L23.8347 30.7835C23.8771 30.762 23.9219 30.7455 23.9682 30.7344C24.0124 30.7217 24.0605 30.7079 24.1076 30.7148L24.1999 30.7442C24.2628 30.7737 24.3158 30.8041 24.3727 30.8365L24.4709 30.8866ZM24.6928 31.676C24.7105 31.6858 24.7242 31.6976 24.7311 31.7084C24.7458 31.7378 24.7547 31.7702 24.7409 31.8036C24.7134 31.8606 24.6192 31.8979 24.518 31.9048C24.3713 31.9119 24.2252 31.8822 24.0929 31.8184C24.0707 31.8066 24.0513 31.7902 24.036 31.7702C24.0095 31.7378 24.0153 31.7005 24.0419 31.6672C24.0812 31.6315 24.1313 31.6098 24.1842 31.6053H24.3148L24.4454 31.6151C24.4925 31.619 24.5436 31.6249 24.5848 31.6348C24.6225 31.6437 24.6588 31.6576 24.6928 31.676Z" fill="#FFDE9B"/>
<path d="M33.5616 33.1122C33.431 34.1303 32.5248 35.0395 30.9814 35.119C29.6422 35.1887 28.5906 35.3036 27.9083 34.9099C27.8025 34.8492 27.7051 34.775 27.6186 34.689C26.9647 34.0371 26.8459 33.5197 27.5106 33.5403C28.1783 33.5629 29.4527 33.9301 29.5204 33.9497C29.598 33.9566 31.0737 34.096 31.4693 33.6522C31.864 33.2084 31.9475 33.1151 31.431 32.7391C30.9146 32.3631 30.0545 31.8034 31.3181 31.6729C31.3662 31.6807 32.2764 31.8417 32.9421 32.2256C33.325 32.4465 33.6107 32.7391 33.5616 33.1122ZM32.1527 33.2339C32.2194 33.2889 32.2774 33.3302 32.3667 33.3341L32.4708 33.3184C32.6868 33.2585 32.7486 33.1289 32.73 32.9983C32.7123 32.8942 32.4698 32.8177 32.3343 32.907C32.2371 32.9679 32.1429 33.0327 32.1046 33.1102L32.0957 33.1593C32.1016 33.1878 32.1321 33.2114 32.1527 33.2339ZM28.9087 34.4769C28.9618 34.4602 29.0001 34.4308 29.0148 34.3945V34.3189L28.9932 34.2413C28.9891 34.2133 28.9791 34.1865 28.9637 34.1627C28.9315 34.121 28.8862 34.0913 28.8351 34.0783C28.6898 34.0538 28.5209 34.0813 28.4974 34.202C28.4797 34.2933 28.571 34.4043 28.6486 34.4475C28.674 34.4625 28.7014 34.4737 28.7301 34.4809C28.789 34.4942 28.8504 34.4929 28.9087 34.4769ZM32.1605 32.5251C32.2587 32.473 32.2617 32.42 32.298 32.3209C32.297 32.2924 32.2666 32.2561 32.2243 32.2315C32.1946 32.2139 32.1607 32.2045 32.1262 32.204C32.0398 32.206 31.9337 32.2777 31.8807 32.3091L31.8355 32.3444L31.8297 32.3758C31.8226 32.4099 31.8229 32.445 31.8306 32.4789C31.8471 32.5184 31.878 32.55 31.917 32.5673L31.9917 32.582L32.0358 32.5732C32.0792 32.5622 32.1211 32.5461 32.1605 32.5251ZM30.406 34.6046L30.4355 34.5947C30.4684 34.5739 30.4974 34.5473 30.5209 34.5162C30.5415 34.4907 30.5621 34.4622 30.5533 34.4357L30.4993 34.3807C30.4485 34.3455 30.3961 34.3127 30.3422 34.2825L30.2548 34.2266L30.1547 34.2815C30.0663 34.3974 30.2489 34.5211 30.3756 34.5938L30.406 34.6046Z" fill="#F45170"/>
<path d="M32.2989 32.3209L32.2841 32.3671C32.2458 32.4721 32.2056 32.5242 32.0357 32.5733L31.9916 32.5831L31.9169 32.5664C31.9109 32.5638 31.905 32.5608 31.8993 32.5576C31.8256 32.5153 31.8158 32.4584 31.8305 32.3759L31.8354 32.3445L31.8796 32.3092C31.9336 32.2777 32.0397 32.2061 32.1251 32.2041C32.2134 32.2041 32.2949 32.2738 32.2989 32.3209Z" fill="#FFDE9B"/>
<path d="M25.6608 32.4724C25.7021 32.8592 24.8076 32.7924 23.6805 32.4154C23.5476 32.3727 23.4193 32.3168 23.2976 32.2485C22.6152 31.8548 22.8106 31.2451 22.9275 30.4695C23.059 29.575 24.626 29.0468 26.3835 28.9673C27.0266 28.9378 27.5322 29.1028 27.9151 29.3237C28.5788 29.7066 28.8576 30.2328 28.8734 30.2613C28.6544 30.9957 27.6834 30.497 27.0354 30.2004C26.3835 29.903 26.2234 29.9511 25.4586 30.1818C24.6928 30.4125 24.9382 31.2667 24.951 31.3109C24.9844 31.3501 25.6235 32.0865 25.6608 32.4724ZM26.5828 29.4484C26.357 29.4385 26.1311 29.4729 26.031 29.6006L26.0045 29.6604C26.0064 29.6899 26.0339 29.7144 26.0703 29.7351C26.1007 29.7527 26.139 29.7684 26.1743 29.7832C26.2166 29.7969 26.2578 29.8136 26.3049 29.8175L26.3884 29.8107C26.5258 29.79 26.6338 29.7321 26.7418 29.6781C26.8449 29.6251 26.8174 29.5407 26.731 29.4916C26.6855 29.4663 26.6348 29.4509 26.5828 29.4484ZM24.518 31.9049C24.6191 31.898 24.7144 31.8607 24.7399 31.8037C24.7546 31.7704 24.7458 31.738 24.7301 31.7085C24.7204 31.6949 24.7076 31.6838 24.6928 31.6761C24.6587 31.6577 24.6224 31.6438 24.5848 31.6349C24.5389 31.6246 24.4923 31.618 24.4454 31.6152L24.3148 31.6054H24.1842C24.1312 31.6099 24.0812 31.6316 24.0418 31.6673C24.0153 31.7007 24.0094 31.738 24.0359 31.7704C24.0513 31.7903 24.0707 31.8067 24.0929 31.8185C24.2252 31.8823 24.3713 31.912 24.518 31.9049ZM25.2141 29.4925C25.1258 29.5338 25.06 29.6025 25.0904 29.6673C25.1133 29.7041 25.145 29.7345 25.1827 29.7557C25.2228 29.789 25.2651 29.8195 25.3094 29.847C25.3368 29.8627 25.3702 29.8764 25.4095 29.8794C25.4714 29.8813 25.5214 29.848 25.5636 29.8244C25.6343 29.7792 25.6304 29.7164 25.6186 29.6575C25.6088 29.6113 25.5852 29.5632 25.5617 29.5151L25.5136 29.4631L25.4272 29.4474L25.3388 29.4513C25.2953 29.4582 25.2532 29.4721 25.2141 29.4925ZM27.6706 29.7036C27.5767 29.7105 27.485 29.7355 27.4006 29.7773C27.369 29.7964 27.3411 29.821 27.3182 29.8499L27.3034 29.8755L27.3299 29.9187L27.3456 29.9285C27.3885 29.9494 27.4347 29.9627 27.4821 29.9677C27.5381 29.9736 27.5999 29.9717 27.6598 29.9677L27.7138 29.9648L27.7757 29.9393C27.8287 29.9088 27.9504 29.845 27.9524 29.795C27.9544 29.7753 27.9347 29.7557 27.9063 29.739C27.8592 29.7131 27.8068 29.6987 27.7531 29.6968L27.6706 29.7036ZM24.6663 30.2731C24.7147 30.265 24.7604 30.2455 24.7998 30.2161L24.8175 30.2024L24.7576 30.1582L24.8165 30.1779C24.778 30.1303 24.7298 30.0915 24.6751 30.064C24.6511 30.0502 24.6269 30.0368 24.6024 30.0237C24.5671 30.006 24.5337 29.9874 24.4895 29.9786C24.4214 29.9728 24.3528 29.9842 24.2902 30.0119C24.249 30.0286 24.2078 30.0561 24.2166 30.0856L24.25 30.1248L24.2716 30.1386C24.3354 30.1749 24.41 30.2063 24.4817 30.2348C24.5392 30.2623 24.6025 30.2755 24.6663 30.2731ZM24.2097 30.9555C24.2655 30.9626 24.3221 30.9592 24.3766 30.9456L24.4709 30.8867L24.3727 30.8376C24.3158 30.8043 24.2627 30.7738 24.1999 30.7444L24.1076 30.7149C24.0605 30.708 24.0124 30.7218 23.9682 30.7345C23.9219 30.7456 23.8771 30.7621 23.8347 30.7836L23.817 30.8013L23.8347 30.818C23.8769 30.8425 23.9181 30.8632 23.9623 30.8848C24.0403 30.9217 24.1239 30.9456 24.2097 30.9555Z" fill="#F45170"/>
<path d="M32.73 32.9984C32.7486 33.1289 32.6868 33.2585 32.4708 33.3184L32.3667 33.3341C32.2783 33.3302 32.2194 33.289 32.1526 33.234C32.132 33.2114 32.1016 33.1878 32.0957 33.1604L32.1045 33.1103C32.1428 33.0327 32.2371 32.9679 32.3343 32.907C32.4737 32.8157 32.7123 32.8963 32.73 32.9984ZM28.9637 34.1628C28.9791 34.1865 28.9891 34.2133 28.9932 34.2413L29.0148 34.3199V34.3945C29 34.4308 28.9617 34.4603 28.9087 34.477C28.8215 34.5016 28.7281 34.491 28.6485 34.4475C28.571 34.4043 28.4797 34.2934 28.4973 34.2021C28.5219 34.0803 28.6917 34.0548 28.8351 34.0784C28.8836 34.0962 28.9283 34.1251 28.9637 34.1628ZM30.2548 34.2266C30.353 34.2865 30.461 34.3542 30.5002 34.3808L30.5533 34.4357C30.569 34.4819 30.4777 34.5693 30.4354 34.5938L30.406 34.6046L30.3765 34.5948C30.3343 34.5702 30.298 34.5457 30.2587 34.5202C30.2028 34.477 30.1527 34.4318 30.137 34.3778C30.1313 34.3616 30.1299 34.3442 30.133 34.3273C30.1361 34.3105 30.1435 34.2947 30.1546 34.2816L30.2548 34.2266Z" fill="#FFDE9B"/>
<path d="M34.0299 34.1122C33.8924 34.3547 33.7039 34.6031 33.3574 34.7621C33.0972 34.88 32.8939 34.9143 31.0658 35.3797C30.4865 35.525 30.3196 35.5515 29.6775 35.5663C28.6564 35.5928 27.5823 35.6134 26.6722 35.3414C26.5445 35.3061 26.4247 35.2648 26.2942 35.2403C26.2058 35.2236 26.1135 35.2177 26.0271 35.1951C25.977 35.1826 25.9288 35.1635 25.8838 35.1382C25.7492 35.0596 25.6825 34.9389 25.6952 34.826C25.7149 34.6797 25.8366 34.5442 25.9633 34.4146C26.6152 33.7695 27.4969 33.2168 28.3756 32.6669C28.7624 32.4431 30.3677 31.4436 30.5651 31.3709C30.8282 31.2747 31.975 31.206 32.2342 31.2296C32.676 31.2698 33.0491 31.4436 33.4172 31.6841C33.6234 31.8167 33.81 31.9561 33.9602 32.1103C34.5395 32.7121 34.4118 33.4622 34.0299 34.1122ZM30.9814 35.1186C32.5248 35.04 33.431 34.1299 33.5616 33.1117C33.6696 32.2948 32.1252 31.8147 31.3181 31.6724C30.0545 31.8029 30.9156 32.3616 31.431 32.7386C31.9465 33.1156 31.864 33.2079 31.4693 33.6517C31.0736 34.0955 29.598 33.9561 29.5204 33.9492C29.4527 33.9296 28.1792 33.5624 27.5106 33.5398C26.8459 33.5192 26.9647 34.0366 27.6186 34.6885C27.706 34.7759 27.8022 34.8485 27.9083 34.9094C28.5906 35.3031 29.6422 35.1883 30.9814 35.1186ZM29.3977 30.6974C29.2681 30.8172 29.0197 30.9174 28.8508 31.0214C28.3088 31.3503 27.7198 31.6478 27.167 31.9699C26.2225 32.4804 25.2691 32.9929 24.1577 33.3729C23.9293 33.4581 23.69 33.5103 23.4469 33.528C23.2505 33.5359 23.0443 33.4986 22.9088 33.42C22.87 33.3987 22.8353 33.3704 22.8067 33.3365C22.7714 33.2884 22.7616 33.2354 22.7321 33.1834C22.6899 33.1078 22.6153 33.0371 22.5554 32.9654C22.0841 32.4392 22.1155 31.8167 22.1597 31.2247C22.1614 31.0836 22.1856 30.9437 22.2314 30.8103C22.2874 30.6748 22.3816 30.5472 22.4768 30.4205C22.7203 30.0956 22.9619 29.7686 23.2063 29.4436C23.2986 29.3209 23.3899 29.1952 23.5343 29.0902C23.8092 28.8899 24.2363 28.7799 24.6516 28.6975C25.7758 28.4756 27.0698 28.4 28.1105 28.7328C28.3776 28.8192 28.6191 28.9272 28.8488 29.047C28.9195 29.0823 28.9892 29.1196 29.058 29.1589C29.3358 29.3199 29.5754 29.5084 29.6363 29.7303C29.6726 29.8678 29.6343 30.0111 29.5999 30.1486C29.5528 30.3204 29.5607 30.5472 29.3977 30.6974ZM23.6806 32.4156C24.8077 32.7916 25.7021 32.8584 25.6609 32.4716C25.6236 32.0867 24.9844 31.3494 24.951 31.3111C24.9383 31.2659 24.6938 30.4117 25.4586 30.182C26.2235 29.9503 26.3835 29.9022 27.0354 30.1996C27.6834 30.4962 28.6544 30.9949 28.8734 30.2605C28.8587 30.232 28.5788 29.7068 27.9142 29.3229C27.4493 29.0582 26.9174 28.9347 26.3835 28.9675C24.626 29.046 23.0591 29.5742 22.9275 30.4687C22.8107 31.2443 22.6153 31.854 23.2976 32.2477C23.4037 32.3086 23.5303 32.3655 23.6806 32.4156Z" fill="#E93565"/>
<path d="M31.8247 34.2799L31.7658 34.2593L31.8247 34.3035L31.8071 34.3172C31.6942 34.3938 31.6235 34.3889 31.489 34.3368C31.2965 34.2583 31.3574 34.277 31.2572 34.2259L31.2239 34.1866C31.215 34.1572 31.2563 34.1297 31.2985 34.113C31.4546 34.0492 31.5115 34.0776 31.6097 34.1248C31.6343 34.1375 31.7806 34.2141 31.8247 34.2799ZM32.459 33.6348L32.5061 33.6869C32.5631 33.8008 32.6161 33.9284 32.5081 33.9962C32.4668 34.0207 32.4158 34.0531 32.3539 34.0511C32.301 34.0454 32.251 34.0239 32.2106 33.9893C32.1743 33.9647 32.0535 33.8803 32.0348 33.84C32.0054 33.7743 32.0702 33.7055 32.1586 33.6643C32.1976 33.6439 32.2397 33.6299 32.2832 33.6231L32.3716 33.6201L32.459 33.6348Z" fill="#FFDE9B"/>
<path d="M22.9255 26.5881V27.5307C22.9255 27.8645 22.7782 28.2081 22.3855 28.5518C21.2466 29.5336 17.7808 31.89 11.8604 29.671C10.8492 29.2881 9.91643 28.7089 9.18006 27.9234C8.37497 27.079 8.06079 26.3329 8.06079 25.675V24.7325C8.06079 22.9358 10.3877 21.8263 11.5757 21.355C13.3921 20.6481 15.4932 21.3158 16.4455 21.7183C17.1141 21.9687 18.1048 22.9996 18.5662 23.5543C19.4538 23.7958 20.9923 24.271 21.7572 24.7816C22.2382 25.1547 22.9255 25.8518 22.9255 26.5881Z" fill="#CC104A"/>
<path d="M22.9275 26.5842V27.5267C22.9275 27.8674 22.7773 28.213 22.3904 28.5488C21.2437 29.5345 17.7798 31.887 11.8624 29.6681C10.8531 29.2891 9.92036 28.7079 9.1781 27.9273C8.37498 27.0829 8.0608 26.3309 8.06374 25.6701V24.7227C8.06374 25.6848 8.72647 26.8414 10.5968 28.1885C17.2919 31.2733 21.1632 28.6597 22.3904 27.6013C22.7773 27.2705 22.9275 26.92 22.9275 26.5842Z" fill="#CC104A"/>
<path d="M21.7572 24.7856C22.4543 25.3324 23.6158 26.5489 22.3895 27.6034C21.1642 28.6598 17.2889 31.2744 10.5949 28.1905C5.24986 24.3231 9.75248 22.0718 11.5747 21.359C13.3911 20.6452 15.4961 21.3158 16.4426 21.7184C17.1593 22.0227 18.0724 22.9555 18.5672 23.5583C19.2938 23.7566 21.1651 24.3222 21.7572 24.7856Z" fill="#F45170"/>
<path d="M15.2026 23.0956C15.1996 23.1447 15.0779 23.2085 15.0258 23.2399L14.963 23.2655C14.8629 23.2704 14.6979 23.289 14.5948 23.2291C14.5894 23.2262 14.5841 23.2229 14.5791 23.2193L14.5526 23.1761L14.5673 23.1506C14.6812 23.018 14.8197 23.021 15.0033 22.9974C15.0494 22.9974 15.2055 23.0387 15.2026 23.0956ZM13.991 22.9788C13.6542 23.1526 13.6552 23.0927 13.5551 23.1182C13.4814 23.1123 13.2586 23.0377 13.2537 22.9611L13.2802 22.9012C13.3803 22.7736 13.6061 22.7392 13.8319 22.75C14.0146 22.7598 14.1422 22.9002 13.99 22.9788H13.991ZM12.7637 22.7638L12.8109 22.8148C12.8678 22.9287 12.9208 23.0563 12.8128 23.1251C12.7186 23.1791 12.6577 23.2046 12.5585 23.1476C12.5251 23.128 12.3582 23.0082 12.3396 22.968C12.3101 22.9032 12.3749 22.8344 12.4633 22.7932C12.5949 22.7284 12.5782 22.7628 12.6773 22.748L12.7637 22.7638ZM12.0666 23.4785L12.0077 23.4589L12.0666 23.5031L12.049 23.5168C11.8752 23.6346 11.7534 23.5541 11.4991 23.4255L11.4658 23.3862C11.4569 23.3568 11.4982 23.3293 11.5404 23.3126C11.6965 23.2488 11.7534 23.2772 11.8516 23.3244C11.8762 23.3371 12.0225 23.4137 12.0666 23.4785ZM11.7201 24.1874L11.6258 24.2463C11.4442 24.2924 11.2478 24.2129 11.0848 24.1187L11.0662 24.102L11.0838 24.0843C11.1683 24.0406 11.2617 24.0171 11.3568 24.0156C11.455 24.0578 11.3794 23.9979 11.6219 24.1373L11.7201 24.1874ZM11.4736 25.1692C11.185 25.0926 11.2282 24.9346 11.4334 24.9061C11.5315 24.91 11.722 24.908 11.8339 24.9355C12.1442 25.0092 12.0018 25.3175 11.4736 25.1692Z" fill="#FFDE9B"/>
<path d="M20.8117 26.413C20.6801 27.4301 19.7739 28.3403 18.2305 28.4198C16.8913 28.4885 15.8398 28.6044 15.1574 28.2107C15.0516 28.15 14.9543 28.0758 14.8678 27.9898C14.2139 27.3379 14.0951 26.8204 14.7598 26.8411C15.4284 26.8627 16.7028 27.2308 16.7696 27.2505C16.8481 27.2573 18.3228 27.3958 18.7185 26.952C19.1141 26.5092 19.1966 26.4159 18.6802 26.0389C18.1647 25.6629 17.3037 25.1042 18.5673 24.9727C19.3733 25.115 20.9187 25.5951 20.8117 26.413ZM19.4018 26.5347C19.4282 26.5573 19.4565 26.5777 19.4863 26.5956C19.5226 26.6172 19.5648 26.6329 19.6159 26.6349L19.7199 26.6192C19.9359 26.5583 19.9978 26.4297 19.9791 26.2991C19.9732 26.2657 19.9457 26.2363 19.9065 26.2127C19.8201 26.1636 19.6757 26.1479 19.5844 26.2078C19.4863 26.2677 19.392 26.3335 19.3537 26.411L19.3449 26.4601C19.3508 26.4886 19.3812 26.5121 19.4018 26.5347ZM16.1579 27.7777C16.2109 27.761 16.2502 27.7316 16.2639 27.6952V27.6196L16.2423 27.5421C16.2364 27.5146 16.2305 27.4871 16.2129 27.4635C16.1804 27.4225 16.1357 27.3929 16.0852 27.3791C16.0312 27.3687 15.9758 27.3671 15.9213 27.3742C15.8231 27.3889 15.7583 27.4439 15.7465 27.5028C15.7347 27.5617 15.7652 27.6206 15.8103 27.6727C15.8535 27.7264 15.9132 27.7644 15.9802 27.7807C16.0388 27.7942 16.0998 27.7932 16.1579 27.7777ZM19.4097 25.8259C19.5079 25.7728 19.5108 25.7198 19.5481 25.6216C19.5452 25.5745 19.4637 25.5038 19.3753 25.5038C19.2889 25.5058 19.1829 25.5784 19.1299 25.6099L19.0847 25.6452L19.0798 25.6766C19.0724 25.7106 19.0724 25.7457 19.0798 25.7797C19.0962 25.8191 19.1271 25.8508 19.1662 25.8681L19.2408 25.8828L19.285 25.874C19.3283 25.863 19.3702 25.8469 19.4097 25.8259ZM17.6552 27.9053L17.6846 27.8955C17.7176 27.8747 17.7465 27.8481 17.77 27.817C17.7907 27.7915 17.8113 27.762 17.8024 27.7365L17.7484 27.6815C17.6977 27.6462 17.6453 27.6135 17.5913 27.5833L17.504 27.5264L17.4038 27.5823C17.3927 27.5954 17.3852 27.6112 17.3821 27.6281C17.379 27.645 17.3804 27.6624 17.3861 27.6785C17.4019 27.7316 17.4519 27.7777 17.5089 27.8209C17.5481 27.8464 17.5835 27.87 17.6257 27.8945L17.6552 27.9053Z" fill="#F45170"/>
<path d="M19.548 25.6217C19.5107 25.7199 19.5087 25.7739 19.4105 25.8259C19.3708 25.8474 19.3286 25.8638 19.2849 25.875L19.2407 25.8829L19.1661 25.8672C19.127 25.8499 19.0961 25.8182 19.0797 25.7788C19.0724 25.7452 19.0724 25.7103 19.0797 25.6767L19.0846 25.6453L19.1297 25.6099C19.1828 25.5785 19.2888 25.5059 19.3752 25.5049C19.4636 25.5049 19.5451 25.5746 19.548 25.6217Z" fill="#FFDE9B"/>
<path d="M12.9109 25.7728C12.9698 26.3433 11.0415 25.8347 10.5477 25.549C9.8653 25.1553 10.0607 24.5455 10.1765 23.7689C10.3081 22.8755 11.8751 22.3473 13.6325 22.2677C14.797 22.2147 15.7464 22.8539 16.1224 23.5618C15.9035 24.2952 14.9334 23.7974 14.2845 23.5009C13.6325 23.2034 13.4725 23.2515 12.7077 23.4822C11.9428 23.713 12.1873 24.5671 12.2001 24.6113C12.2344 24.6506 12.8726 25.387 12.9109 25.7728ZM13.8318 22.7488C13.606 22.739 13.3802 22.7734 13.2801 22.901L13.2536 22.9609C13.2575 23.0198 13.3694 23.061 13.4234 23.0836C13.6374 23.1533 13.7877 23.0836 13.9899 22.9786C14.094 22.9255 14.0675 22.8411 13.9801 22.792C13.9346 22.7667 13.8838 22.7513 13.8318 22.7488ZM11.7671 25.2053C12.0125 25.1886 12.0479 25.0384 11.9418 24.9766C11.8044 24.898 11.5314 24.9088 11.4333 24.9059C11.2418 24.9324 11.1682 25.0875 11.4725 25.169C11.568 25.1977 11.6675 25.21 11.7671 25.2053ZM12.4642 22.793C12.3748 22.8342 12.309 22.903 12.3395 22.9678C12.3623 23.0045 12.3941 23.0349 12.4318 23.0561C12.6262 23.2171 12.6831 23.1995 12.8127 23.1249C12.9207 23.0561 12.8677 22.9285 12.8108 22.8146L12.7626 22.7635L12.6772 22.7478L12.5879 22.7518C12.5443 22.7586 12.5032 22.7726 12.4642 22.793ZM14.9197 23.0041C14.7626 23.0267 14.6585 23.0434 14.5672 23.1504L14.5525 23.1759L14.579 23.2191L14.5947 23.2289C14.6988 23.2888 14.8529 23.2711 14.9629 23.2653C15.12 23.1828 15.283 23.1131 15.1553 23.0394C15.1086 23.0137 15.0565 22.9993 15.0032 22.9972L14.9197 23.0041ZM11.9153 23.5735C11.9637 23.5654 12.0095 23.5459 12.0489 23.5166L12.0665 23.5029L12.0076 23.4577L12.0665 23.4783C12.0125 23.3988 11.8113 23.2927 11.7386 23.279C11.663 23.2692 11.4441 23.3173 11.4657 23.386L11.499 23.4253C11.5972 23.4685 11.7838 23.5883 11.9153 23.5735ZM11.4588 24.2559C11.5146 24.2631 11.5712 24.2597 11.6257 24.2461L11.72 24.1872C11.6306 24.1379 11.5402 24.0904 11.449 24.0448C11.3508 24.033 11.395 23.9859 11.2173 24.035C11.171 24.0461 11.1262 24.0625 11.0837 24.0841L11.0661 24.1018L11.0847 24.1185C11.1982 24.1903 11.3257 24.2372 11.4588 24.2559Z" fill="#F45170"/>
<path d="M19.9064 26.213C19.9457 26.2365 19.9732 26.266 19.9791 26.2994C19.9987 26.4299 19.9359 26.5586 19.7199 26.6194L19.6158 26.6342C19.5701 26.6324 19.5255 26.6193 19.4862 26.5959C19.4564 26.5779 19.4282 26.5576 19.4018 26.535C19.3811 26.5124 19.3507 26.4889 19.3448 26.4614L19.3536 26.4113C19.3919 26.3327 19.4862 26.2679 19.5844 26.2081C19.6757 26.1482 19.82 26.1629 19.9064 26.213ZM16.1411 27.401C16.1689 27.417 16.1933 27.4384 16.2128 27.4638C16.2305 27.4874 16.2364 27.5149 16.2423 27.5423L16.2639 27.6209V27.6955C16.2501 27.7318 16.2108 27.7613 16.1578 27.778C16.0998 27.7938 16.0388 27.7951 15.9801 27.7819C15.9128 27.7664 15.8529 27.7282 15.8103 27.6739C15.7651 27.6199 15.7347 27.562 15.7464 27.5031C15.7582 27.4442 15.823 27.3892 15.9212 27.3745C15.9754 27.3674 16.0305 27.3691 16.0842 27.3794C16.1038 27.3833 16.1235 27.3911 16.1402 27.401H16.1411ZM17.5039 27.5266L17.5903 27.5836C17.6443 27.615 17.7012 27.6474 17.7484 27.6818L17.8024 27.7367C17.8122 27.7623 17.7906 27.7917 17.77 27.8182C17.7463 27.8486 17.7174 27.8746 17.6846 27.8948L17.6551 27.9046L17.6256 27.8948C17.5834 27.8713 17.5471 27.8467 17.5088 27.8212C17.4519 27.778 17.4008 27.7318 17.3861 27.6788C17.3804 27.6626 17.379 27.6452 17.3821 27.6283C17.3852 27.6115 17.3927 27.5957 17.4038 27.5826L17.5039 27.5266Z" fill="#FFDE9B"/>
<path d="M21.2799 27.4127C21.1425 27.6562 20.953 27.9036 20.6064 28.0637C20.4228 28.1462 20.2098 28.2011 19.9997 28.2542C19.439 28.3975 18.8755 28.5389 18.3158 28.6812C18.0941 28.7409 17.8692 28.7884 17.6423 28.8236C17.4047 28.8511 17.1658 28.8656 16.9266 28.8668C15.9055 28.8943 14.8314 28.9149 13.9222 28.643C13.7936 28.6066 13.6748 28.5654 13.5432 28.5418C13.4549 28.5242 13.3626 28.5192 13.2762 28.4967C13.226 28.4838 13.1778 28.4643 13.1328 28.4387C12.9983 28.3612 12.9315 28.2404 12.9443 28.1275C12.9639 27.9802 13.0857 27.8457 13.2123 27.7161C13.8653 27.0711 14.7469 26.5183 15.6257 25.9685C16.0125 25.7446 17.6168 24.7451 17.8151 24.6725C18.0773 24.5763 19.224 24.5075 19.4822 24.5311C20.1342 24.59 20.8764 25.0672 21.2102 25.4118C21.7895 26.0136 21.6619 26.7628 21.2799 27.4127ZM18.2304 28.4201C19.7738 28.3406 20.6801 27.4304 20.8116 26.4132C20.9186 25.5964 19.3752 25.1163 18.5672 24.9729C17.3036 25.1045 18.1646 25.6631 18.6801 26.0392C19.1965 26.4162 19.1141 26.5095 18.7184 26.9523C18.3227 27.396 16.847 27.2576 16.7695 27.2507C16.7027 27.2311 15.4283 26.8629 14.7607 26.8413C14.095 26.8207 14.2138 27.3381 14.8677 27.99C14.9561 28.0774 15.0513 28.1501 15.1573 28.211C15.8397 28.6047 16.8912 28.4898 18.2304 28.4201ZM16.6477 23.998C16.5486 24.0903 13.1583 26.0755 11.4078 26.6744C11.018 26.804 10.5143 26.9267 10.1579 26.7215C10.0175 26.64 10.0381 26.5841 9.98118 26.4859C9.81722 26.1894 9.29391 26.0608 9.40878 24.5262C9.43136 24.1531 9.47751 24.0569 9.72493 23.7211C10.691 22.4379 10.6076 22.2552 11.9006 21.998C13.445 21.6936 14.9443 21.674 16.307 22.4604C16.9707 22.8434 16.9403 23.0908 16.849 23.4501C16.8029 23.6219 16.8097 23.8487 16.6477 23.998ZM10.9296 25.7162C12.0577 26.0932 12.9522 26.1599 12.9109 25.7731C12.8726 25.3882 12.2335 24.6509 12.2001 24.6126C12.1873 24.5674 11.9429 23.7132 12.7077 23.4825C13.4725 23.2518 13.6326 23.2037 14.2845 23.5022C14.9325 23.7967 15.9045 24.2955 16.1225 23.5611C15.7435 22.8483 14.7901 22.216 13.6326 22.268C11.8751 22.3475 10.3081 22.8758 10.1766 23.7702C10.0303 24.7442 9.83685 25.3509 10.9296 25.7162Z" fill="#E93565"/>
<path d="M18.9315 27.4648C18.9866 27.4925 19.0352 27.5317 19.0739 27.5797L19.015 27.5601L19.0739 27.6042L19.0562 27.618C19.0168 27.6473 18.9711 27.6668 18.9227 27.6749C18.8593 27.6771 18.7963 27.664 18.7391 27.6366C18.6589 27.6058 18.5811 27.5691 18.5064 27.5267L18.474 27.4874C18.4642 27.458 18.5064 27.4305 18.5476 27.4138C18.6099 27.3862 18.6781 27.3748 18.7459 27.3804C18.7911 27.3892 18.8235 27.4079 18.8588 27.4256L18.9315 27.4648ZM19.7071 26.9356L19.7562 26.9877C19.7798 27.0358 19.8034 27.0839 19.8122 27.13C19.825 27.1889 19.8279 27.2528 19.7572 27.2969C19.716 27.3215 19.6649 27.3539 19.6031 27.3519C19.5677 27.3487 19.5335 27.3377 19.5029 27.3195C19.4587 27.292 19.4164 27.2615 19.3763 27.2282C19.3386 27.207 19.3068 27.1766 19.284 27.1398C19.2545 27.075 19.3193 27.0063 19.4077 26.9651C19.4467 26.9446 19.4888 26.9307 19.5324 26.9238L19.6207 26.9209L19.7071 26.9356Z" fill="#FFDE9B"/>
<path d="M33.1875 13.0526L33.1973 16.4693C33.1973 16.3034 33.2778 16.1365 33.4477 15.9902C34.1644 15.3746 34.5228 14.6598 34.5208 13.945L34.511 10.5283C34.513 11.2421 34.1546 11.9569 33.4379 12.5725C33.268 12.7197 33.1875 12.8866 33.1875 13.0526Z" fill="#BF7D5A"/>
<path d="M46.8133 22.0617V25.6846C46.8133 26.1559 46.5089 26.6173 45.8805 26.9806L31.8013 35.11C30.574 35.817 28.5907 35.8268 27.3634 35.11L15.1398 28.0017C14.6194 27.7071 13.8143 27.6482 13.1958 27.874C10.7413 28.8362 7.41289 28.6791 5.26271 27.4322C4.04525 26.7253 3.43652 25.8122 3.43652 24.8893V21.2566C3.43652 20.3435 4.0158 19.4402 5.17434 18.7333L23.8387 7.96277L23.9663 7.89405C26.4307 6.53914 30.3089 6.55877 32.7143 7.96277C34.8645 9.20968 35.11 11.1439 33.4605 12.5577C33.058 12.9111 33.1562 13.3824 33.6765 13.677L45.9002 20.7853C46.5089 21.1388 46.8133 21.6002 46.8133 22.0617Z" fill="#C48E4E"/>
<path d="M3.43933 21.2598L3.44031 24.8856C3.44031 25.8085 4.04413 26.7295 5.2606 27.4344C7.41471 28.6833 10.7441 28.8345 13.2006 27.8782C13.8122 27.6436 14.6173 27.7113 15.1377 28.0049L27.3623 35.1152C28.5866 35.828 30.5738 35.8192 31.806 35.1064L45.8853 26.9818C46.5048 26.6205 46.8151 26.1512 46.8151 25.6819L46.8141 22.056C46.8141 22.5253 46.5038 23.0035 45.8833 23.356L31.805 31.4874C30.5729 32.2002 28.5847 32.2002 27.3613 31.4874L15.1357 24.3859C14.6154 24.0845 13.8024 24.0256 13.1996 24.2602C10.7421 25.2077 7.41373 25.0653 5.25864 23.8076C4.04315 23.1026 3.43933 22.1817 3.43933 21.2598Z" fill="#C48E4E"/>
<path d="M5.1703 18.7377C2.83063 20.1682 2.85518 22.4156 5.25867 23.8128C7.41376 25.0646 10.7421 25.2128 13.1967 24.2575C13.8064 24.0229 14.6174 24.0847 15.1328 24.3852L27.3604 31.4906C28.5837 32.2014 30.5739 32.1975 31.8051 31.4876L45.8843 23.3582C47.1165 22.6473 47.1283 21.4947 45.904 20.7838L33.6774 13.6784C33.161 13.378 33.0569 12.9087 33.4643 12.5562C35.1108 11.1434 34.8654 9.20821 32.7172 7.96032C30.3127 6.5632 26.4335 6.5416 23.9662 7.89159L23.8386 7.96032L5.1703 18.7377Z" fill="#DBA660"/>
<path d="M6.56844 19.318C4.99361 20.2831 4.67059 21.7137 5.91357 22.7583C7.36862 23.9885 10.2169 24.2664 12.2758 23.4662C13.5374 22.9782 15.2448 23.0764 16.3346 23.7107L28.4826 30.7699C29.0943 31.1254 30.0928 31.1283 30.7133 30.7699L44.6325 22.7338C45.2531 22.3754 45.2511 21.7971 44.6394 21.4417L32.4914 14.3824C31.4173 13.758 31.2356 12.784 32.0564 12.0585C32.9627 11.2514 33.2032 10.2441 32.4452 9.3938C30.9234 7.68544 27.3123 7.41544 25.1228 8.61228L6.56844 19.318Z" fill="#FFDE9B"/>
<path d="M35.9935 19.1834C35.535 19.4484 35.532 19.8804 35.9886 20.1455C36.448 20.4106 37.1893 20.4106 37.6478 20.1455C38.1073 19.8804 38.1122 19.4504 37.6537 19.1834C37.1972 18.9183 36.453 18.9183 35.9935 19.1834ZM29.8011 28.1611C29.3416 28.4262 29.3397 28.8582 29.7952 29.1233C30.2538 29.3884 30.996 29.3884 31.4545 29.1233C31.914 28.8582 31.9189 28.4282 31.4604 28.1611C31.0039 27.896 30.2606 27.896 29.8011 28.1611ZM29.1031 21.4298C28.6406 21.6968 28.6377 22.1308 29.0972 22.3978C29.5586 22.6659 30.3058 22.6639 30.7682 22.3978C31.2307 22.1308 31.2356 21.6978 30.7741 21.4298C30.3146 21.1627 29.5655 21.1627 29.1031 21.4298ZM35.48 23.2726C35.1187 23.4808 35.1167 23.8185 35.4751 24.0267C35.8354 24.2358 36.4176 24.2348 36.7779 24.0267C37.1383 23.8185 37.1412 23.4818 36.7819 23.2726C36.4235 23.0645 35.8393 23.0645 35.48 23.2726ZM30.2822 15.1442C30.7417 15.4092 30.7437 15.8412 30.2881 16.1063C29.8286 16.3724 29.0874 16.3714 28.6288 16.1063C28.1694 15.8412 28.1644 15.4112 28.623 15.1442C29.0795 14.8791 29.8227 14.8791 30.2822 15.1442ZM25.5793 24.2417C26.0388 24.5068 26.0408 24.9368 25.5842 25.2019C25.1257 25.469 24.3844 25.467 23.925 25.2019C23.4655 24.9368 23.4606 24.5078 23.92 24.2407C24.3756 23.9756 25.1198 23.9756 25.5793 24.2407V24.2417ZM10.5752 20.2329C11.0347 20.498 11.0366 20.93 10.5811 21.1951C10.1226 21.4602 9.3803 21.4602 8.92179 21.1951C8.4623 20.93 8.45739 20.5 8.9159 20.2329C9.37245 19.9678 10.1157 19.9678 10.5752 20.2329ZM17.4214 19.5535C17.8809 19.8186 17.8828 20.2496 17.4273 20.5147C16.9688 20.7808 16.2265 20.7798 15.768 20.5147C15.3085 20.2496 15.3036 19.8196 15.7621 19.5525C16.2187 19.2874 16.9629 19.2874 17.4214 19.5525V19.5535ZM23.2554 14.2026C23.7148 14.4677 23.7168 14.8997 23.2603 15.1648C22.8018 15.4299 22.0605 15.4299 21.601 15.1648C21.1415 14.8997 21.1366 14.4696 21.5961 14.2026C22.0516 13.9375 22.7959 13.9375 23.2554 14.2026ZM24.8616 19.4602C25.2121 19.6615 25.2131 19.9904 24.8655 20.1927C24.516 20.3949 23.9515 20.3939 23.601 20.1927C23.2514 19.9904 23.2475 19.6625 23.597 19.4592C23.9446 19.258 24.5121 19.259 24.8616 19.4602ZM28.9116 10.5767C29.2621 10.779 29.2641 11.1069 28.9155 11.3092C28.566 11.5124 28.0015 11.5114 27.651 11.3092C27.3014 11.1079 27.2975 10.78 27.647 10.5767C27.9946 10.3755 28.5621 10.3755 28.9116 10.5767Z" fill="#DBA660"/>
<path d="M41.6488 21.99C40.8663 21.99 40.233 22.6233 40.233 23.4068C40.233 23.016 40.074 22.6606 39.8187 22.4043C39.5528 22.1392 39.1927 21.9902 38.8173 21.99C39.207 21.99 39.5634 21.8309 39.8187 21.5757C40.074 21.3194 40.233 20.964 40.233 20.5742C40.233 20.964 40.3921 21.3194 40.6474 21.5757C40.9036 21.8309 41.259 21.99 41.6488 21.99Z" fill="white"/>
</svg>
