<svg width="36" height="36" viewBox="0 0 36 36" fill="none" xmlns="http://www.w3.org/2000/svg">
<circle cx="18" cy="18" r="18" fill="#D9ECCD"/>
<g clip-path="url(#clip0_2013_32560)">
<path d="M15.749 19.5C15.749 19.914 15.413 20.25 14.999 20.25C14.585 20.25 14.249 19.914 14.249 19.5C14.249 19.086 14.585 18.75 14.999 18.75C15.413 18.75 15.749 19.086 15.749 19.5ZM17.999 21.75C17.585 21.75 17.249 22.086 17.249 22.5C17.249 22.914 17.585 23.25 17.999 23.25C18.413 23.25 18.749 22.914 18.749 22.5C18.749 22.086 18.413 21.75 17.999 21.75ZM14.999 21.75C14.585 21.75 14.249 22.086 14.249 22.5C14.249 22.914 14.585 23.25 14.999 23.25C15.413 23.25 15.749 22.914 15.749 22.5C15.749 22.086 15.413 21.75 14.999 21.75ZM25.499 15.369V23.6257C25.499 25.4865 23.9847 27 22.124 27H13.874C12.0132 27 10.499 25.4865 10.499 23.6257V15.369C9.386 14.5875 8.8205 13.2495 9.05075 11.8995C9.33425 10.2465 10.8695 9 12.6215 9H23.3765C25.1285 9 26.6637 10.2465 26.9472 11.8995C27.1782 13.2487 26.6127 14.5882 25.499 15.369ZM26.207 12.0262C25.985 10.7287 24.7677 9.75 23.3765 9.75H12.6215C11.2302 9.75 10.0122 10.7287 9.791 12.0262C9.59675 13.1595 10.088 14.241 11.0712 14.8477C11.1815 14.916 11.249 15.0367 11.249 15.1672V23.6257C11.249 25.0725 12.4265 26.25 13.874 26.25H22.124C23.5715 26.25 24.749 25.0725 24.749 23.6257V15.1672C24.749 15.0375 24.8165 14.9167 24.9267 14.8477C25.9107 14.241 26.4012 13.1602 26.207 12.0262Z" fill="#338000"/>
</g>
<defs>
<clipPath id="clip0_2013_32560">
<rect width="18" height="18" fill="white" transform="translate(9 9)"/>
</clipPath>
</defs>
</svg>
