<svg width="60" height="60" viewBox="0 0 60 60" fill="none" xmlns="http://www.w3.org/2000/svg">
<g clip-path="url(#clip0_2013_31617)">
<path d="M30 22.5C25.865 22.5 22.5 25.865 22.5 30C22.5 34.135 25.865 37.5 30 37.5C34.135 37.5 37.5 34.135 37.5 30C37.5 25.865 34.135 22.5 30 22.5ZM30 35C27.2425 35 25 32.7575 25 30C25 27.2425 27.2425 25 30 25C32.7575 25 35 27.2425 35 30C35 32.7575 32.7575 35 30 35ZM18.75 15C15.3025 15 12.5 17.8025 12.5 21.25V38.75C12.5 42.1975 15.3025 45 18.75 45H41.25C44.6975 45 47.5 42.1975 47.5 38.75V21.25C47.5 17.8025 44.6975 15 41.25 15H38.1825L36.075 11.7225C35.3825 10.6425 34.205 10 32.92 10H27.075C25.79 10 24.615 10.645 23.92 11.72L21.8125 15H18.745H18.75ZM45 21.25V38.75C45 40.8175 43.3175 42.5 41.25 42.5H18.75C16.6825 42.5 15 40.8175 15 38.75V21.25C15 19.1825 16.6825 17.5 18.75 17.5H41.25C43.3175 17.5 45 19.1825 45 21.25ZM26.0275 13.0725C26.2575 12.715 26.65 12.5 27.0775 12.5H32.9225C33.35 12.5 33.7425 12.715 33.9725 13.0725L35.21 15H24.79L26.0275 13.0725ZM20 58.75C20 59.44 19.44 60 18.75 60H11.25C5.0475 60 0 54.9525 0 48.75V41.25C0 40.56 0.56 40 1.25 40C1.94 40 2.5 40.56 2.5 41.25V48.75C2.5 53.575 6.425 57.5 11.25 57.5H18.75C19.44 57.5 20 58.06 20 58.75ZM60 41.25V48.75C60 54.9525 54.9525 60 48.75 60H41.25C40.56 60 40 59.44 40 58.75C40 58.06 40.56 57.5 41.25 57.5H48.75C53.575 57.5 57.5 53.575 57.5 48.75V41.25C57.5 40.56 58.06 40 58.75 40C59.44 40 60 40.56 60 41.25ZM60 11.25V18.75C60 19.44 59.44 20 58.75 20C58.06 20 57.5 19.44 57.5 18.75V11.25C57.5 6.425 53.575 2.5 48.75 2.5H41.25C40.56 2.5 40 1.94 40 1.25C40 0.56 40.56 0 41.25 0H48.75C54.9525 0 60 5.0475 60 11.25ZM0 18.75V11.25C0 5.0475 5.0475 0 11.25 0H18.75C19.44 0 20 0.56 20 1.25C20 1.94 19.44 2.5 18.75 2.5H11.25C6.425 2.5 2.5 6.425 2.5 11.25V18.75C2.5 19.44 1.94 20 1.25 20C0.56 20 0 19.44 0 18.75Z" fill="#338000"/>
</g>
<defs>
<clipPath id="clip0_2013_31617">
<rect width="60" height="60" fill="white"/>
</clipPath>
</defs>
</svg>
