<svg width="60" height="60" viewBox="0 0 60 60" fill="none" xmlns="http://www.w3.org/2000/svg">
<path fill-rule="evenodd" clip-rule="evenodd" d="M29.9998 0C13.4576 0 0 13.4582 0 30.0002C0 46.5423 13.4576 60.0005 29.9998 60.0005C46.5418 60.0005 60 46.5423 60 30.0002C60 13.4582 46.5418 0 29.9998 0Z" fill="#42A004"/>
<path fill-rule="evenodd" clip-rule="evenodd" d="M28.9017 59.9787C29.2663 59.9918 29.632 60.0009 29.9998 60.0009C45.6209 60.0009 58.4896 47.9989 59.8744 32.7325L47.8828 20.7408C46.9985 19.6697 45.6611 18.9858 44.1667 18.9858H39.5553L36.6662 16.0966C36.0602 15.4389 35.1996 15.0527 34.242 15.0527H25.7578C24.2991 15.0527 23.0646 15.9493 22.6136 17.3374L22.0779 18.9858H15.8331C13.1764 18.9858 11.0156 21.1472 11.0156 23.8034V40.1316C11.0156 41.6255 11.6993 42.9629 12.7704 43.8472L28.9017 59.9787Z" fill="#7BC649"/>
<path fill-rule="evenodd" clip-rule="evenodd" d="M46.6404 40.1316C46.6404 41.4953 45.531 42.6047 44.1667 42.6047H15.8331C14.4688 42.6047 13.3594 41.4953 13.3594 40.1316V23.8034C13.3594 22.4391 14.4688 21.3296 15.8331 21.3296H22.9287C23.1762 21.3296 23.4173 21.2513 23.6175 21.1058C23.8177 20.9603 23.9667 20.7551 24.0431 20.5198L24.8425 18.0615C24.9763 17.6514 25.3267 17.396 25.7579 17.396H34.2421C34.6732 17.396 35.0237 17.6514 35.1574 18.0615L35.9568 20.5198C36.0332 20.7551 36.1822 20.9603 36.3824 21.1058C36.5826 21.2513 36.8237 21.3296 37.0712 21.3296H44.1668C45.5311 21.3296 46.6405 22.4391 46.6405 23.8034V40.1316H46.6404ZM44.1667 18.9858H37.9219L37.3862 17.3374C36.9352 15.9493 35.7013 15.0527 34.242 15.0527H25.7578C24.2991 15.0527 23.0646 15.9493 22.6136 17.3374L22.0779 18.9858H15.8331C13.1764 18.9858 11.0156 21.1472 11.0156 23.8034V40.1316C11.0156 42.7877 13.1764 44.9486 15.8331 44.9486H44.1667C46.8233 44.9486 48.9843 42.7877 48.9843 40.1316V23.8034C48.9841 21.1472 46.8233 18.9858 44.1667 18.9858Z" fill="#FEFEFE"/>
<path fill-rule="evenodd" clip-rule="evenodd" d="M29.9996 38.1511C26.5895 38.1511 23.8145 35.3767 23.8145 31.9665C23.8145 28.5559 26.5895 25.7814 29.9996 25.7814C33.4098 25.7814 36.1848 28.5558 36.1848 31.9665C36.1846 35.3767 33.4096 38.1511 29.9996 38.1511ZM29.9996 23.4375C25.297 23.4375 21.4707 27.2633 21.4707 31.9664C21.4707 36.6689 25.2971 40.4948 29.9996 40.4948C34.7021 40.4948 38.5285 36.669 38.5285 31.9664C38.5285 27.2634 34.7021 23.4375 29.9996 23.4375Z" fill="#FEFEFE"/>
</svg>
