<svg width="60" height="60" viewBox="0 0 60 60" fill="none" xmlns="http://www.w3.org/2000/svg">
<rect x="2" y="2" width="56" height="56" rx="28" fill="#42A004"/>
<rect x="2" y="2" width="56" height="56" rx="28" stroke="white" stroke-width="4"/>
<g clip-path="url(#clip0_948_50064)">
<path d="M30 42C29.6892 42 29.3911 41.8765 29.1714 41.6568C28.9516 41.437 28.8281 41.1389 28.8281 40.8281V19.1719C28.8281 18.8611 28.9516 18.563 29.1714 18.3432C29.3911 18.1235 29.6892 18 30 18C30.3108 18 30.6089 18.1235 30.8286 18.3432C31.0484 18.563 31.1719 18.8611 31.1719 19.1719V40.8281C31.1719 41.1389 31.0484 41.437 30.8286 41.6568C30.6089 41.8765 30.3108 42 30 42Z" fill="white"/>
<path d="M40.8281 31.1719H19.1719C18.8611 31.1719 18.563 31.0484 18.3432 30.8286C18.1235 30.6089 18 30.3108 18 30C18 29.6892 18.1235 29.3911 18.3432 29.1714C18.563 28.9516 18.8611 28.8281 19.1719 28.8281H40.8281C41.1389 28.8281 41.437 28.9516 41.6568 29.1714C41.8765 29.3911 42 29.6892 42 30C42 30.3108 41.8765 30.6089 41.6568 30.8286C41.437 31.0484 41.1389 31.1719 40.8281 31.1719Z" fill="white"/>
</g>
<defs>
<clipPath id="clip0_948_50064">
<rect width="24" height="24" fill="white" transform="translate(18 18)"/>
</clipPath>
</defs>
</svg>
