<svg width="20" height="20" viewBox="0 0 20 20" fill="none" xmlns="http://www.w3.org/2000/svg">
<g clip-path="url(#clip0_714_24679)">
<path d="M14.09 9.87116C14.1369 10.0586 14.0783 10.2696 13.926 10.4102L10.0002 14.336L8.06655 16.2696C7.86737 16.4805 7.55093 16.5039 7.31659 16.3399C7.08222 16.1641 7.00015 15.8594 7.12905 15.6016L9.16812 11.5117L6.29706 10.5508C6.10952 10.4922 5.95718 10.3281 5.9103 10.1289C5.86339 9.94147 5.92202 9.73045 6.07437 9.58983L11.9337 3.73045C12.1329 3.51952 12.4494 3.49612 12.6837 3.66014C12.9181 3.83596 13.0001 4.14065 12.8712 4.39842L10.8322 8.48827L13.7032 9.4492C13.8908 9.50783 14.0432 9.6719 14.09 9.87116Z" fill="#FDBF00"/>
<path d="M20 10C20 10.3281 19.7422 10.5859 19.4141 10.5859C19.0859 10.5859 18.8281 10.3281 18.8281 10C18.8281 5.14844 14.8516 1.17188 10 1.17188C7.18746 1.17188 4.52344 2.57027 2.88285 4.79688L4.06637 4.72656C4.38281 4.71484 4.66402 4.94922 4.6875 5.2773C4.71098 5.59375 4.46484 5.87496 4.13676 5.89844L1.79301 6.03906C1.46484 6.0625 1.17188 5.75781 1.17188 5.45312V2.96875C1.17188 2.64059 1.42965 2.38281 1.75781 2.38281C2.08598 2.38281 2.34375 2.64059 2.34375 2.96875V3.61328C4.21871 1.38668 7.02348 0 10 0C15.4961 0 20 4.50391 20 10ZM18.8281 14.5469V17.0312C18.8281 17.3593 18.5704 17.6172 18.2422 17.6172C17.914 17.6172 17.6562 17.3593 17.6562 17.0312V16.3867C15.7813 18.6132 12.9765 20 10 20C4.50391 20 0 15.4961 0 10C0 9.67184 0.257773 9.41406 0.585938 9.41406C0.914102 9.41406 1.17188 9.67184 1.17188 10C1.17188 14.8516 5.14844 18.8281 10 18.8281C12.8125 18.8281 15.4766 17.4296 17.1171 15.2031L15.9336 15.2734C15.6172 15.2968 15.336 15.0508 15.3125 14.7226C15.289 14.4062 15.5352 14.125 15.8632 14.1016L18.207 13.9609C18.5234 13.9375 18.8281 14.2187 18.8281 14.5469Z" fill="#54E360"/>
<path d="M13.9257 10.4101L10 14.336V5.66409L11.9336 3.73045C12.1328 3.51952 12.4493 3.49612 12.6836 3.66014C12.918 3.83596 13 4.14065 12.8711 4.39842L10.8321 8.48827L13.7031 9.4492C13.8907 9.5078 14.043 9.67186 14.0899 9.87112C14.1368 10.0586 14.0781 10.2695 13.9257 10.4101Z" fill="#FF9F00"/>
<path d="M18.8281 14.5469V17.0312C18.8281 17.3593 18.5704 17.6172 18.2422 17.6172C17.914 17.6172 17.6562 17.3593 17.6562 17.0312V16.3867C15.7813 18.6132 12.9765 20 10 20V18.8281C12.8125 18.8281 15.4766 17.4296 17.1171 15.2031L15.9336 15.2734C15.6172 15.2968 15.336 15.0508 15.3125 14.7226C15.289 14.4062 15.5352 14.125 15.8632 14.1016L18.207 13.9609C18.5234 13.9375 18.8281 14.2187 18.8281 14.5469ZM20 10C20 10.3281 19.7422 10.5859 19.4141 10.5859C19.0859 10.5859 18.8281 10.3281 18.8281 10C18.8281 5.14844 14.8516 1.17188 10 1.17188V0C15.4961 0 20 4.50391 20 10Z" fill="#00CC71"/>
</g>
<defs>
<clipPath id="clip0_714_24679">
<rect width="20" height="20" fill="white"/>
</clipPath>
</defs>
</svg>
