<svg width="32" height="32" viewBox="0 0 32 32" fill="none" xmlns="http://www.w3.org/2000/svg">
<g clip-path="url(#clip0_833_12079)">
<path d="M16 32C7.1775 32 0 24.8225 0 16C0 7.1775 7.1775 0 16 0C24.8225 0 32 7.1775 32 16C32 24.8225 24.8225 32 16 32Z" fill="#FE0050"/>
<path d="M16 0V32C24.8225 32 32 24.8225 32 16C32 7.1775 24.8225 0 16 0Z" fill="#E10555"/>
<path d="M16 26.6875C10.1069 26.6875 5.3125 21.8931 5.3125 16C5.3125 10.1069 10.1069 5.3125 16 5.3125C21.8931 5.3125 26.6875 10.1069 26.6875 16C26.6875 21.8931 21.8931 26.6875 16 26.6875Z" fill="#D9E7F3"/>
<path d="M16 5.3125V26.6875C21.8931 26.6875 26.6875 21.8931 26.6875 16C26.6875 10.1069 21.8931 5.3125 16 5.3125Z" fill="#C8D4DF"/>
<path d="M16 21.0625C13.2085 21.0625 10.9375 18.7915 10.9375 16C10.9375 13.2085 13.2085 10.9375 16 10.9375C18.7915 10.9375 21.0625 13.2085 21.0625 16C21.0625 18.7915 18.7915 21.0625 16 21.0625Z" fill="#FE0050"/>
<path d="M16 10.9375V21.0625C18.7915 21.0625 21.0625 18.7915 21.0625 16C21.0625 13.2085 18.7915 10.9375 16 10.9375Z" fill="#E10555"/>
<path d="M16 16.9375C15.76 16.9375 15.52 16.8459 15.3372 16.6628C14.9709 16.2969 14.9709 15.7031 15.3372 15.3372L22.2314 8.44281C22.5974 8.07668 23.1912 8.07668 23.5571 8.44281C23.9234 8.80881 23.9234 9.40237 23.5571 9.76856L16.6628 16.6628C16.5759 16.75 16.4726 16.8192 16.3588 16.8663C16.2451 16.9135 16.1231 16.9377 16 16.9375Z" fill="#2D2D55"/>
<path d="M23.5569 8.44287L15.3369 16.6629C15.5198 16.8459 15.7598 16.9375 15.9998 16.9375C16.2398 16.9375 16.4798 16.8459 16.6626 16.6628L23.557 9.76856C23.9231 9.40256 23.9231 8.80881 23.557 8.44287H23.5569Z" fill="#0A0A48"/>
<path d="M26.5626 10.3525C26.5365 10.3525 26.5101 10.3513 26.4838 10.3494L22.8158 10.04C22.3602 10.0014 21.9987 9.64014 21.9603 9.18457L21.6508 5.51639C21.6393 5.38045 21.6577 5.24366 21.7046 5.11556C21.7515 4.98745 21.8258 4.87113 21.9223 4.7747L25.8996 0.797387C26.0259 0.670998 26.1858 0.583357 26.3603 0.544793C26.5348 0.506228 26.7167 0.518345 26.8845 0.579718C27.0524 0.64109 27.1992 0.749159 27.3076 0.891192C27.4161 1.03323 27.4817 1.2033 27.4968 1.38139L27.7394 4.26051L30.6188 4.50345C30.7969 4.51851 30.9669 4.58415 31.109 4.69263C31.251 4.80111 31.3591 4.94791 31.4206 5.11576C31.4819 5.28361 31.494 5.46548 31.4554 5.63995C31.4168 5.81443 31.3291 5.97424 31.2028 6.10057L27.2254 10.0779C27.0497 10.2537 26.8113 10.3525 26.5626 10.3526V10.3525Z" fill="#FFC300"/>
<path d="M30.6186 4.50344L27.7395 4.2605L22.2314 9.76856C22.3879 9.9253 22.5948 10.0215 22.8154 10.0401L26.4836 10.3494C26.51 10.3513 26.5361 10.3525 26.5625 10.3525C26.81 10.3525 27.0488 10.2544 27.2253 10.0779L31.2026 6.10056C31.329 5.97418 31.4167 5.81433 31.4553 5.63981C31.4938 5.46529 31.4818 5.28338 31.4204 5.1155C31.359 4.9477 31.2508 4.80096 31.1088 4.69253C30.9668 4.5841 30.7967 4.51849 30.6186 4.50344Z" fill="#FAB400"/>
</g>
<defs>
<clipPath id="clip0_833_12079">
<rect width="32" height="32" fill="white"/>
</clipPath>
</defs>
</svg>
