<svg width="24" height="24" viewBox="0 0 24 24" fill="none" xmlns="http://www.w3.org/2000/svg">
<circle cx="12" cy="12" r="12" fill="#D9ECCD"/>
<g clip-path="url(#clip0_1998_11421)">
<path d="M14.5 15.2501V15.7501C14.5 16.9902 13.49 18.0002 12.25 18.0002H8.25C7.01 18.0002 6 16.9902 6 15.7501V11.7501C6 10.5101 7.01 9.50015 8.25 9.50015H9.25C9.39 9.50015 9.5 9.61015 9.5 9.75015C9.5 9.89015 9.39 10.0001 9.25 10.0001H8.25C7.285 10.0001 6.5 10.7851 6.5 11.7501V15.7501C6.5 16.7151 7.285 17.5001 8.25 17.5001H12.25C13.215 17.5001 14 16.7151 14 15.7501V15.2501C14 15.1101 14.11 15.0001 14.25 15.0001C14.39 15.0001 14.5 15.1101 14.5 15.2501ZM17.635 8.87015L14.93 6.07515C14.835 5.97515 14.675 5.97515 14.575 6.07015C14.475 6.16515 14.475 6.32515 14.57 6.42515L17.28 9.22015C17.365 9.30515 17.42 9.40515 17.455 9.51515C17.435 9.51015 17.41 9.50015 17.385 9.50015H12.25C11.01 9.50015 10 10.5101 10 11.7501V14.7501C10 14.8902 10.11 15.0001 10.25 15.0001C10.39 15.0001 10.5 14.8902 10.5 14.7501V11.7501C10.5 10.7851 11.285 10.0001 12.25 10.0001H17.385C17.385 10.0001 17.43 9.99515 17.455 9.98515C17.42 10.0951 17.365 10.1951 17.28 10.2801L14.575 13.0701C14.48 13.1701 14.48 13.3252 14.58 13.4251C14.63 13.4701 14.69 13.4951 14.755 13.4951C14.82 13.4951 14.885 13.4701 14.935 13.4201L17.64 10.6301C18.125 10.1451 18.125 9.35015 17.64 8.86515L17.635 8.87015Z" fill="#338000"/>
</g>
<defs>
<clipPath id="clip0_1998_11421">
<rect width="12" height="12" fill="white" transform="translate(6 6)"/>
</clipPath>
</defs>
</svg>
