<svg width="24" height="24" viewBox="0 0 24 24" fill="none" xmlns="http://www.w3.org/2000/svg">
<path d="M15.3874 23.9999C14.4108 23.9999 13.5417 23.3443 13.2735 22.4057L10.6781 13.3218L1.59427 10.7264C0.655547 10.4582 0 9.58912 0 8.6129C0 7.62294 0.636844 6.76701 1.58475 6.48262L23.0948 0.0296151C23.2164 -0.00683931 23.3456 -0.00969349 23.4687 0.0213554C23.5918 0.0524044 23.7042 0.116198 23.794 0.205968C23.8837 0.295738 23.9475 0.408135 23.9786 0.531233C24.0096 0.654332 24.0068 0.783539 23.9703 0.905146L17.5173 22.4152C17.2329 23.3631 16.377 23.9999 15.3874 23.9999Z" fill="#02D9FF"/>
<path d="M15.3874 24.0001C14.4108 24.0001 13.5417 23.3445 13.2735 22.4058L10.6781 13.322L23.794 0.206055C23.8838 0.29583 23.9476 0.408239 23.9786 0.53135C24.0097 0.654461 24.0068 0.78368 23.9703 0.905289L17.5173 22.4154C17.2329 23.3632 16.377 24.0001 15.3874 24.0001Z" fill="#23B0FF"/>
</svg>
