<svg width="32" height="32" viewBox="0 0 32 32" fill="none" xmlns="http://www.w3.org/2000/svg">
<path fill-rule="evenodd" clip-rule="evenodd" d="M14.593 10.5222C14.593 11.9653 14.1651 13.376 13.3633 14.5759C12.5616 15.7758 11.422 16.711 10.0888 17.2633C8.75549 17.8156 7.28841 17.96 5.87303 17.6785C4.45764 17.397 3.15753 16.702 2.1371 15.6816C1.11667 14.6612 0.421741 13.3611 0.140203 11.9457C-0.141334 10.5303 0.00316149 9.06322 0.555416 7.72996C1.10767 6.3967 2.04288 5.25714 3.24279 4.45539C4.44269 3.65364 5.85339 3.22571 7.2965 3.22571C9.23156 3.22601 11.0873 3.99484 12.4556 5.36313C13.8239 6.73143 14.5927 8.58715 14.593 10.5222Z" fill="#FF5876"/>
<path fill-rule="evenodd" clip-rule="evenodd" d="M13.1247 10.5222C13.1247 11.6749 12.7828 12.8018 12.1424 13.7603C11.502 14.7187 10.5917 15.4658 9.52668 15.9069C8.46167 16.3481 7.28977 16.4635 6.15917 16.2386C5.02856 16.0137 3.99003 15.4586 3.17491 14.6435C2.35978 13.8284 1.80467 12.7899 1.57978 11.6593C1.35488 10.5287 1.47029 9.35677 1.91142 8.29176C2.35255 7.22675 3.09959 6.31647 4.05806 5.67603C5.01654 5.03558 6.1434 4.69374 7.29615 4.69373C8.8419 4.69391 10.3243 5.30803 11.4173 6.40103C12.5103 7.49404 13.1245 8.97642 13.1247 10.5222Z" fill="#FFE6EB"/>
<path d="M3.09268 8.61344C2.98954 8.55376 2.91434 8.45556 2.8836 8.34044C2.85287 8.22532 2.86913 8.1027 2.9288 7.99956C2.98848 7.89643 3.08668 7.82122 3.2018 7.79049C3.31693 7.75975 3.43954 7.77601 3.54268 7.83569L4.08905 8.15256C4.14 8.18211 4.18463 8.2214 4.2204 8.2682C4.25616 8.31499 4.28236 8.36838 4.29749 8.4253C4.31262 8.48221 4.3164 8.54156 4.30859 8.59994C4.30079 8.65831 4.28157 8.71458 4.25202 8.76553C4.22248 8.81648 4.18318 8.86111 4.13639 8.89687C4.08959 8.93264 4.03621 8.95883 3.97929 8.97397C3.92237 8.9891 3.86303 8.99287 3.80465 8.98507C3.74627 8.97727 3.69 8.95805 3.63905 8.9285L3.09268 8.61344ZM2.70293 10.9721C2.58358 10.9721 2.46912 10.9247 2.38473 10.8403C2.30034 10.7559 2.25293 10.6415 2.25293 10.5221C2.25293 10.4028 2.30034 10.2883 2.38473 10.2039C2.46912 10.1195 2.58358 10.0721 2.70293 10.0721H3.33493C3.45428 10.0721 3.56874 10.1195 3.65313 10.2039C3.73752 10.2883 3.78493 10.4028 3.78493 10.5221C3.78493 10.6415 3.73752 10.7559 3.65313 10.8403C3.56874 10.9247 3.45428 10.9721 3.33493 10.9721H2.70293ZM3.54262 13.2069C3.49167 13.2365 3.43541 13.2557 3.37703 13.2635C3.31866 13.2713 3.25932 13.2675 3.2024 13.2524C3.14549 13.2373 3.09211 13.2111 3.04531 13.1753C2.99852 13.1396 2.95923 13.0949 2.92968 13.044C2.90013 12.9931 2.88091 12.9368 2.87311 12.8784C2.8653 12.82 2.86907 12.7607 2.8842 12.7038C2.89934 12.6469 2.92553 12.5935 2.96129 12.5467C2.99705 12.4999 3.04167 12.4606 3.09262 12.4311L3.63905 12.1141C3.74219 12.0545 3.86481 12.0382 3.97993 12.0689C4.09506 12.0997 4.19326 12.1749 4.25293 12.278C4.3126 12.3811 4.32886 12.5038 4.29813 12.6189C4.2674 12.734 4.19219 12.8322 4.08905 12.8919L3.54262 13.2069ZM5.38749 14.726C5.32782 14.8289 5.22971 14.9039 5.11476 14.9344C4.99981 14.965 4.87742 14.9486 4.77452 14.889C4.67163 14.8293 4.59665 14.7312 4.56609 14.6162C4.53553 14.5013 4.55188 14.3789 4.61155 14.276L4.92668 13.7278C4.98635 13.6249 5.08446 13.5499 5.1994 13.5193C5.31435 13.4888 5.43673 13.5051 5.53962 13.5648C5.6425 13.6245 5.71747 13.7226 5.74803 13.8375C5.77859 13.9525 5.76223 14.0749 5.70255 14.1777L5.38749 14.726ZM7.74618 15.1157C7.74618 15.2351 7.69877 15.3496 7.61438 15.4339C7.52999 15.5183 7.41553 15.5658 7.29618 15.5658C7.17683 15.5658 7.06237 15.5183 6.97798 15.4339C6.89359 15.3496 6.84618 15.2351 6.84618 15.1157V14.4837C6.84618 14.3644 6.89359 14.2499 6.97798 14.1656C7.06237 14.0812 7.17683 14.0338 7.29618 14.0338C7.41553 14.0338 7.52999 14.0812 7.61438 14.1656C7.69877 14.2499 7.74618 14.3644 7.74618 14.4837V15.1157ZM9.98099 14.2782C10.0402 14.3811 10.056 14.5033 10.0251 14.6179C9.99423 14.7325 9.91907 14.8301 9.81618 14.8893C9.71329 14.9485 9.59111 14.9644 9.47651 14.9335C9.36192 14.9026 9.26429 14.8274 9.20512 14.7245L8.88999 14.1763C8.86026 14.1253 8.8409 14.0689 8.83302 14.0105C8.82515 13.952 8.82891 13.8925 8.8441 13.8355C8.8593 13.7785 8.88561 13.725 8.92154 13.6782C8.95747 13.6314 9.0023 13.5922 9.05345 13.5627C9.1046 13.5333 9.16107 13.5143 9.21959 13.5068C9.27812 13.4993 9.33756 13.5034 9.39448 13.519C9.4514 13.5345 9.50469 13.5612 9.55128 13.5974C9.59787 13.6336 9.63683 13.6787 9.66593 13.73L9.98099 14.2782ZM11.4982 12.4314C11.5492 12.4607 11.5939 12.4997 11.6297 12.5463C11.6656 12.5929 11.6919 12.646 11.7072 12.7028C11.7225 12.7595 11.7265 12.8187 11.7189 12.877C11.7113 12.9353 11.6924 12.9915 11.6631 13.0424C11.6338 13.0934 11.5947 13.1381 11.5481 13.1739C11.5016 13.2098 11.4484 13.2361 11.3917 13.2514C11.3349 13.2667 11.2757 13.2707 11.2174 13.2631C11.1592 13.2555 11.1029 13.2366 11.052 13.2073L10.5037 12.8922C10.4006 12.833 10.3252 12.7353 10.2941 12.6205C10.263 12.5057 10.2788 12.3833 10.338 12.2802C10.3972 12.1771 10.4949 12.1016 10.6097 12.0706C10.7244 12.0395 10.8469 12.0553 10.95 12.1144L11.4982 12.4314ZM11.8899 10.0727C12.0092 10.0727 12.1237 10.1201 12.2081 10.2045C12.2925 10.2889 12.3399 10.4033 12.3399 10.5227C12.3399 10.642 12.2925 10.7565 12.2081 10.8409C12.1237 10.9253 12.0092 10.9727 11.8899 10.9727H11.258C11.1989 10.9727 11.1404 10.961 11.0858 10.9384C11.0312 10.9158 10.9816 10.8827 10.9398 10.8409C10.898 10.7991 10.8649 10.7495 10.8422 10.6949C10.8196 10.6403 10.808 10.5818 10.808 10.5227C10.808 10.4636 10.8196 10.4051 10.8422 10.3505C10.8649 10.2959 10.898 10.2463 10.9398 10.2045C10.9816 10.1627 11.0312 10.1296 11.0858 10.1069C11.1404 10.0843 11.1989 10.0727 11.258 10.0727H11.8899ZM11.0522 7.83569C11.1553 7.77651 11.2777 7.76073 11.3925 7.79181C11.5073 7.8229 11.605 7.8983 11.6642 8.00144C11.7234 8.10457 11.7391 8.22699 11.7081 8.34177C11.677 8.45654 11.6016 8.55426 11.4984 8.61344L10.952 8.9285C10.901 8.95823 10.8447 8.9776 10.7862 8.98547C10.7277 8.99335 10.6683 8.98958 10.6112 8.97439C10.5542 8.9592 10.5008 8.93288 10.454 8.89695C10.4072 8.86102 10.3679 8.81619 10.3385 8.76504C10.3091 8.71389 10.2901 8.65743 10.2825 8.5989C10.275 8.54037 10.2792 8.48093 10.2947 8.42401C10.3103 8.36709 10.3369 8.3138 10.3731 8.26721C10.4093 8.22063 10.4544 8.18166 10.5057 8.15256L11.0522 7.83569ZM9.20531 6.32031C9.2346 6.26937 9.27365 6.22469 9.32021 6.18884C9.36677 6.15298 9.41994 6.12665 9.47668 6.11134C9.53342 6.09603 9.59262 6.09205 9.6509 6.09962C9.70918 6.1072 9.76539 6.12617 9.81634 6.15547C9.86728 6.18477 9.91196 6.22381 9.94781 6.27037C9.98367 6.31694 10.01 6.3701 10.0253 6.42684C10.0406 6.48358 10.0446 6.54278 10.037 6.60106C10.0295 6.65934 10.0105 6.71556 9.98118 6.7665L9.66612 7.31294C9.63702 7.36427 9.59805 7.40934 9.55147 7.44556C9.50488 7.48178 9.45159 7.50842 9.39467 7.52397C9.33775 7.53951 9.27831 7.54365 9.21978 7.53613C9.16125 7.52862 9.10479 7.50961 9.05364 7.48019C9.00249 7.45077 8.95766 7.41153 8.92173 7.36472C8.8858 7.31791 8.85948 7.26446 8.84429 7.20744C8.8291 7.15042 8.82533 7.09096 8.83321 7.03248C8.84108 6.974 8.86045 6.91766 8.89018 6.86669L9.20531 6.32031ZM6.84662 5.92656C6.84662 5.80721 6.89403 5.69276 6.97842 5.60836C7.06281 5.52397 7.17727 5.47656 7.29662 5.47656C7.41597 5.47656 7.53042 5.52397 7.61481 5.60836C7.69921 5.69276 7.74662 5.80721 7.74662 5.92656V6.55856C7.74662 6.67791 7.69921 6.79237 7.61481 6.87676C7.53042 6.96115 7.41597 7.00856 7.29662 7.00856C7.17727 7.00856 7.06281 6.96115 6.97842 6.87676C6.89403 6.79237 6.84662 6.67791 6.84662 6.55856V5.92656ZM4.61174 6.76831C4.55207 6.66542 4.53571 6.54303 4.56628 6.42808C4.59684 6.31312 4.67182 6.21502 4.77471 6.15534C4.87761 6.09567 4.99999 6.07932 5.11495 6.10988C5.2299 6.14044 5.32801 6.21542 5.38768 6.31831L5.70274 6.86475C5.73229 6.91569 5.75151 6.97196 5.75932 7.03033C5.76712 7.08871 5.76335 7.14805 5.74822 7.20496C5.73309 7.26188 5.70689 7.31526 5.67113 7.36205C5.63538 7.40885 5.59075 7.44814 5.5398 7.47769C5.48886 7.50723 5.43259 7.52646 5.37422 7.53426C5.31585 7.54206 5.25651 7.53829 5.19959 7.52316C5.14267 7.50803 5.08929 7.48184 5.0425 7.44608C4.99571 7.41032 4.95641 7.36569 4.92687 7.31475L4.61174 6.76831ZM6.84662 7.80469C6.84662 7.68534 6.89403 7.57088 6.97842 7.48649C7.06281 7.4021 7.17727 7.35469 7.29662 7.35469C7.41597 7.35469 7.53042 7.4021 7.61481 7.48649C7.69921 7.57088 7.74662 7.68534 7.74662 7.80469V10.2636L9.00155 10.9886C9.10445 11.0482 9.17943 11.1463 9.20999 11.2613C9.24055 11.3762 9.2242 11.4986 9.16452 11.6015C9.10485 11.7044 9.00675 11.7794 8.89179 11.81C8.77684 11.8405 8.65445 11.8242 8.55155 11.7645L7.09999 10.9266C7.02427 10.8895 6.96042 10.832 6.91569 10.7606C6.87095 10.6891 6.84711 10.6066 6.84687 10.5222L6.84662 7.80469Z" fill="#3A6584"/>
<path fill-rule="evenodd" clip-rule="evenodd" d="M24.7035 12.5622C24.0751 11.2344 22.6307 8.44972 21.2665 8.44972H18.8823V10.2165L17.1902 8.81022L15.5 7.40403L17.1902 5.99609L18.8823 4.58984V6.35659H21.2665C24.2645 6.35659 24.9057 9.74984 24.7035 12.5621V12.5622ZM7.07609 19.3251C7.70446 20.6529 9.14878 23.436 10.513 23.436H12.8972V21.6692L14.5893 23.0771L16.2795 24.4833L14.5893 25.8896L12.8972 27.2975V25.5305H10.513C7.51503 25.5305 6.8739 22.1354 7.07609 19.325V19.3251Z" fill="#FFBA57"/>
<path fill-rule="evenodd" clip-rule="evenodd" d="M31.9993 21.4778C31.9992 22.9209 31.5713 24.3316 30.7695 25.5315C29.9678 26.7314 28.8282 27.6666 27.495 28.2189C26.1617 28.7711 24.6946 28.9156 23.2792 28.6341C21.8639 28.3525 20.5638 27.6576 19.5433 26.6372C18.5229 25.6167 17.828 24.3166 17.5464 22.9012C17.2649 21.4858 17.4094 20.0188 17.9617 18.6855C18.5139 17.3523 19.4491 16.2127 20.649 15.411C21.8489 14.6092 23.2596 14.1813 24.7028 14.1813C26.6378 14.1816 28.4936 14.9504 29.8619 16.3187C31.2302 17.687 31.999 19.5428 31.9993 21.4778Z" fill="#EAF6FF"/>
<path fill-rule="evenodd" clip-rule="evenodd" d="M28.8281 25.0313C28.0322 18.8113 21.3695 18.8277 20.5754 25.0313C20.5668 25.093 20.5718 25.1557 20.59 25.2152C20.6083 25.2747 20.6393 25.3294 20.681 25.3756C20.7214 25.4229 20.7717 25.4606 20.8284 25.4861C20.8851 25.5116 20.9468 25.5243 21.0089 25.5231H28.3946C28.4567 25.5243 28.5184 25.5117 28.5751 25.4861C28.6318 25.4606 28.6821 25.4229 28.7225 25.3756C28.7642 25.3294 28.7953 25.2747 28.8135 25.2152C28.8318 25.1557 28.8368 25.093 28.8281 25.0313Z" fill="#57A3FF"/>
<path fill-rule="evenodd" clip-rule="evenodd" d="M24.7027 20.3723C25.1152 20.3723 25.5184 20.25 25.8613 20.0208C26.2043 19.7917 26.4716 19.466 26.6294 19.0849C26.7873 18.7038 26.8286 18.2845 26.7481 17.8799C26.6676 17.4754 26.469 17.1038 26.1774 16.8121C25.8857 16.5205 25.5141 16.3218 25.1095 16.2414C24.705 16.1609 24.2857 16.2022 23.9046 16.36C23.5235 16.5179 23.1978 16.7852 22.9687 17.1282C22.7395 17.4711 22.6172 17.8743 22.6172 18.2868C22.6183 18.8396 22.8384 19.3693 23.2293 19.7602C23.6202 20.151 24.1499 20.3711 24.7027 20.3723Z" fill="#FFCCBC"/>
<path fill-rule="evenodd" clip-rule="evenodd" d="M10.9098 5.94872C11.6002 6.49442 12.1582 7.18936 12.5417 7.98144C12.9253 8.77351 13.1246 9.64216 13.1246 10.5222C13.1246 11.4023 12.9253 12.2709 12.5417 13.063C12.1582 13.8551 11.6002 14.55 10.9098 15.0957C9.75119 16.5359 8.08938 17.483 6.25977 17.7457C6.60312 17.794 6.94941 17.8184 7.29614 17.8186C9.23129 17.8186 11.0872 17.0499 12.4555 15.6815C13.8239 14.3131 14.5926 12.4573 14.5926 10.5221C14.5926 8.58695 13.8239 6.73105 12.4555 5.36269C11.0872 3.99434 9.23129 3.2256 7.29614 3.2256C6.94938 3.22495 6.60303 3.24928 6.25977 3.29841C8.08964 3.56038 9.75171 4.50759 10.9098 5.94841V5.94872Z" fill="#E84362"/>
<path fill-rule="evenodd" clip-rule="evenodd" d="M13.125 10.5222C13.1259 9.642 12.9271 8.77304 12.5434 7.98082C12.1598 7.18859 11.6013 6.49378 10.9102 5.94873C11.9522 7.24528 12.5203 8.85882 12.5203 10.5222C12.5203 12.1856 11.9522 13.7992 10.9102 15.0957C11.6013 14.5507 12.1598 13.8559 12.5434 13.0636C12.9271 12.2714 13.1259 11.4025 13.125 10.5222Z" fill="#E6CFD4"/>
<path fill-rule="evenodd" clip-rule="evenodd" d="M24.0039 14.2142C25.8097 14.3882 27.486 15.2287 28.7057 16.5716C29.9255 17.9146 30.6012 19.6637 30.6012 21.4779C30.6012 23.2921 29.9255 25.0413 28.7057 26.3842C27.486 27.7272 25.8097 28.5676 24.0039 28.7416C24.2334 28.7635 24.4665 28.7744 24.7033 28.7744C25.6615 28.7744 26.6103 28.5857 27.4955 28.219C28.3808 27.8523 29.1851 27.3148 29.8627 26.6373C30.5402 25.9598 31.0777 25.1554 31.4444 24.2701C31.8111 23.3849 31.9998 22.4361 31.9998 21.4779C31.9998 20.5197 31.8111 19.5709 31.4444 18.6856C31.0777 17.8004 30.5402 16.996 29.8627 16.3185C29.1851 15.6409 28.3808 15.1035 27.4955 14.7368C26.6103 14.3701 25.6615 14.1814 24.7033 14.1814C24.4665 14.1814 24.2334 14.1923 24.0039 14.2142Z" fill="#D3DDE6"/>
<path fill-rule="evenodd" clip-rule="evenodd" d="M24.0762 16.2979C24.4993 16.4311 24.8689 16.6958 25.1313 17.0535C25.3936 17.4112 25.5351 17.8432 25.5351 18.2868C25.5351 18.7304 25.3936 19.1625 25.1313 19.5202C24.8689 19.8779 24.4993 20.1426 24.0762 20.2758C24.277 20.3397 24.4865 20.3722 24.6973 20.3723H24.7082C25.2613 20.3716 25.7915 20.1512 26.1821 19.7595C26.5727 19.3679 26.7917 18.8372 26.791 18.2841C26.7903 17.7309 26.5698 17.2008 26.1782 16.8102C25.7866 16.4196 25.2558 16.2006 24.7027 16.2013C24.4901 16.2005 24.2787 16.2331 24.0762 16.2979Z" fill="#FFAB91"/>
<path fill-rule="evenodd" clip-rule="evenodd" d="M28.8283 25.0313C28.4312 21.9258 26.5716 20.374 24.7084 20.3722H24.6974C24.4896 20.3725 24.2823 20.392 24.0781 20.4304C25.7156 20.7401 27.2219 22.2737 27.5752 25.0313C27.5839 25.0929 27.5789 25.1557 27.5606 25.2152C27.5424 25.2747 27.5113 25.3294 27.4696 25.3756C27.4292 25.4229 27.3789 25.4606 27.3222 25.4861C27.2655 25.5116 27.2039 25.5242 27.1418 25.5231H28.3948C28.457 25.5242 28.5186 25.5116 28.5753 25.4861C28.632 25.4606 28.6823 25.4229 28.7227 25.3756C28.7644 25.3294 28.7955 25.2747 28.8138 25.2152C28.832 25.1557 28.837 25.0929 28.8283 25.0313Z" fill="#3282E3"/>
<path fill-rule="evenodd" clip-rule="evenodd" d="M17.1897 6.70828L18.8818 5.30009V4.58997L17.1897 5.99622L15.4995 7.40403L15.9257 7.75922L17.1897 6.70828ZM21.266 6.35672H18.8818V7.06709H21.266C23.8141 7.06709 24.6593 9.51865 24.7321 11.9796C24.8068 9.3039 24.06 6.3569 21.266 6.3569V6.35672ZM12.8967 23.4359H10.5125C9.14827 23.4359 7.70396 20.6528 7.07559 19.325C7.04356 19.7687 7.03443 20.2137 7.04821 20.6583C7.05371 20.478 7.06284 20.2977 7.07559 20.1192C7.70396 21.447 9.14827 24.2317 10.5125 24.2317H12.8967V23.4359ZM12.8967 22.4651L14.5888 23.8713L15.8018 24.8804L16.279 24.4833L14.5888 23.0771L12.8967 21.6692V22.4651Z" fill="#EB9C2C"/>
</svg>
