<svg width="32" height="32" viewBox="0 0 32 32" fill="none" xmlns="http://www.w3.org/2000/svg">
<circle cx="16" cy="16" r="16" fill="#D9ECCD"/>
<g clip-path="url(#clip0_1948_87135)">
<path d="M23.622 11.2767C23.304 10.8887 22.834 10.6667 22.3327 10.6667H10.9933L10.8227 9.438C10.7093 8.61867 10 8 9.172 8H8.33333C8.14933 8 8 8.14933 8 8.33333C8 8.51733 8.14933 8.66667 8.33333 8.66667H9.17267C9.66933 8.66667 10.0947 9.03733 10.1627 9.52933L11.35 18.0793C11.5553 19.554 12.8333 20.6667 14.3213 20.6667H21C21.184 20.6667 21.3333 20.5173 21.3333 20.3333C21.3333 20.1493 21.184 20 21 20H14.3213C13.168 20 12.1787 19.1407 12.0133 18H20.44C21.8653 18 23.102 16.986 23.3813 15.5887L23.9673 12.66C24.0653 12.168 23.9393 11.664 23.6213 11.2767H23.622ZM23.314 12.5293L22.728 15.458C22.5107 16.5447 21.548 17.3333 20.44 17.3333H11.9193L11.086 11.3333H22.3327C22.6333 11.3333 22.9153 11.4667 23.106 11.6993C23.2967 11.932 23.372 12.2347 23.314 12.5293ZM12.6667 21.3333C11.9313 21.3333 11.3333 21.9313 11.3333 22.6667C11.3333 23.402 11.9313 24 12.6667 24C13.402 24 14 23.402 14 22.6667C14 21.9313 13.402 21.3333 12.6667 21.3333ZM12.6667 23.3333C12.2987 23.3333 12 23.034 12 22.6667C12 22.2993 12.2987 22 12.6667 22C13.0347 22 13.3333 22.2993 13.3333 22.6667C13.3333 23.034 13.0347 23.3333 12.6667 23.3333ZM19.3333 21.3333C18.598 21.3333 18 21.9313 18 22.6667C18 23.402 18.598 24 19.3333 24C20.0687 24 20.6667 23.402 20.6667 22.6667C20.6667 21.9313 20.0687 21.3333 19.3333 21.3333ZM19.3333 23.3333C18.9653 23.3333 18.6667 23.034 18.6667 22.6667C18.6667 22.2993 18.9653 22 19.3333 22C19.7013 22 20 22.2993 20 22.6667C20 23.034 19.7013 23.3333 19.3333 23.3333Z" fill="#338000"/>
</g>
<defs>
<clipPath id="clip0_1948_87135">
<rect width="16" height="16" fill="white" transform="translate(8 8)"/>
</clipPath>
</defs>
</svg>
