<svg width="32" height="32" viewBox="0 0 32 32" fill="none" xmlns="http://www.w3.org/2000/svg">
<g clip-path="url(#clip0_727_9579)">
<path d="M31.5 9.00008C31.5 9.00008 30.5 13.5001 26.5 13.5001H26.335C26.4475 13.1788 26.5034 12.8405 26.5 12.5001C26.72 12.0801 27.09 11.4401 27.415 10.7901C27.6302 10.3718 27.8028 9.93295 27.93 9.48008L28 9.50008C28.6164 9.25593 29.268 9.11243 29.93 9.07508C30.4517 9.02343 30.9757 8.99839 31.5 9.00008Z" fill="#598019"/>
<path d="M29.9297 9.075C29.2677 9.11235 28.6161 9.25585 27.9997 9.5L27.9297 9.48L27.9997 9V7.9C27.9995 7.63482 28.0348 7.37081 28.1047 7.115L28.3797 6.1C28.434 5.88201 28.4675 5.65934 28.4797 5.435H28.5047C28.5397 5.15 28.8097 4 30.9997 4C30.9997 4 30.9997 7.645 29.9197 9L29.9297 9.075Z" fill="#346C2F"/>
<path d="M21.8544 2.05997C21.6735 2.39702 21.3743 2.65524 21.0144 2.78497C20.7221 2.88765 20.4682 3.07729 20.2868 3.32843C20.1053 3.57957 20.0051 3.8802 19.9994 4.18997V6.99997C19.6073 6.98498 19.2355 6.82183 18.959 6.54345C18.6825 6.26507 18.5218 5.89216 18.5094 5.49997C18.5011 5.45885 18.4978 5.41689 18.4994 5.37497V2.77997C18.4996 2.55308 18.5712 2.33199 18.704 2.14802C18.8368 1.96406 19.0241 1.82655 19.2394 1.75497L19.5744 1.63997C19.8455 1.54879 20.0699 1.35489 20.1994 1.09997C20.2892 0.919593 20.4276 0.767862 20.599 0.66186C20.7704 0.555858 20.9679 0.499792 21.1694 0.499975H22.9694C22.7282 0.492287 22.4937 0.580621 22.3175 0.745598C22.1412 0.910574 22.0377 1.13872 22.0294 1.37997C22.0302 1.61788 21.97 1.852 21.8544 2.05997ZM26.4994 1.49997C26.7548 1.52846 26.993 1.64297 27.1747 1.8247C27.3564 2.00643 27.4709 2.24456 27.4994 2.49997C27.4869 2.69598 27.5266 2.89181 27.6144 3.06749C27.7022 3.24316 27.8351 3.3924 27.9994 3.49997C28.1641 3.60717 28.2973 3.75634 28.3852 3.93211C28.473 4.10788 28.5125 4.30389 28.4994 4.49997V4.99997C28.4994 5.11497 28.4944 5.26997 28.4794 5.43497C28.4673 5.65931 28.4338 5.88198 28.3794 6.09997L28.1044 7.11497C28.0345 7.37078 27.9992 7.63479 27.9994 7.89997V8.99997L27.9294 9.47997C27.8022 9.93285 27.6297 10.3717 27.4144 10.79C27.0894 11.44 26.7194 12.08 26.4994 12.5V3.99997C26.4923 3.46663 26.3036 2.95163 25.9644 2.53997C25.8891 2.44135 25.8055 2.34935 25.7144 2.26497C25.5734 2.13311 25.4248 2.00957 25.2694 1.89497C25.1493 1.79229 25.0652 1.65388 25.0294 1.49997H26.4994Z" fill="#B9D671"/>
<path d="M26.4993 6.21504V11.5C26.4765 10.4522 26.27 9.41652 25.8893 8.44004C25.6386 7.76842 25.3412 7.11516 24.9993 6.48504C24.9843 6.26004 24.8743 3.65504 25.9643 2.54004C26.3035 2.9517 26.4922 3.46669 26.4993 4.00004V6.21504Z" fill="#89B029"/>
<path d="M26.5 11.5001V12.0001C25.32 10.4751 22 9.50006 22 9.50006V8.97006C21.9279 8.71166 21.8056 8.47001 21.64 8.25895C21.4744 8.04789 21.2688 7.87156 21.035 7.74006C21.035 7.74006 23.925 7.37006 25.89 8.44006C26.2707 9.41654 26.4772 10.4522 26.5 11.5001ZM20 5.07006V4.19006C20.0056 3.88029 20.1059 3.57966 20.2873 3.32852C20.4688 3.07737 20.7227 2.88774 21.015 2.78506C21.3749 2.65533 21.6741 2.3971 21.855 2.06006C23.0666 3.41192 24.1216 4.89633 25 6.48506V6.50006C23.035 4.97506 20.25 5.07006 20.25 5.07006H20Z" fill="#88AB00"/>
<path d="M25.0295 1.49997C25.0653 1.65388 25.1494 1.79229 25.2695 1.89497C25.4249 2.00957 25.5735 2.13311 25.7145 2.26497C25.8055 2.34935 25.8892 2.44135 25.9645 2.53997C24.8745 3.65497 24.9845 6.25998 24.9995 6.48498C24.1211 4.89625 23.0661 3.41183 21.8545 2.05997C21.97 1.852 22.0303 1.61788 22.0295 1.37997C22.0377 1.13872 22.1413 0.910574 22.3175 0.745598C22.4937 0.580621 22.7282 0.492287 22.9695 0.499975H24.2045C24.3089 0.499843 24.4124 0.520316 24.5089 0.560222C24.6054 0.600128 24.6931 0.658682 24.7669 0.732531C24.8408 0.80638 24.8993 0.894072 24.9392 0.990586C24.9792 1.0871 24.9996 1.19054 24.9995 1.29497C24.9993 1.36442 25.0094 1.43351 25.0295 1.49997Z" fill="#93BD2C"/>
<path d="M20.25 5.07001C20.25 5.07001 23.035 4.97501 25 6.50001V6.48501C25.3419 7.11514 25.6393 7.7684 25.89 8.44001C23.925 7.37001 21.035 7.74001 21.035 7.74001C20.7879 7.61137 20.555 7.45719 20.34 7.28001C20.14 7.12501 20 7.00001 20 7.00001V5.07001H20.25ZM22 9.50001C22 9.50001 25.32 10.475 26.5 12V12.5C26.5034 12.8404 26.4476 13.1788 26.335 13.5H23.78C23.6715 12.5919 23.3267 11.7282 22.78 10.995C22.3721 10.589 22.0996 10.0669 22 9.50001Z" fill="#80A100"/>
<path d="M21.4992 11C21.4992 9.465 19.8242 8.205 17.6592 8.025L17.6642 8C17.5477 7.86034 17.4887 7.68157 17.4992 7.5V6.5C17.5 6.23503 17.6056 5.98113 17.793 5.79377C17.9804 5.6064 18.2343 5.50079 18.4992 5.5H18.5092C18.5216 5.89219 18.6823 6.26509 18.9588 6.54348C19.2353 6.82186 19.6071 6.98501 19.9992 7C19.9992 7 20.1392 7.125 20.3392 7.28C20.5542 7.45718 20.7871 7.61136 21.0342 7.74C21.2681 7.8715 21.4737 8.04783 21.6392 8.25889C21.8048 8.46995 21.9272 8.7116 21.9992 8.97V9.5C22.0989 10.0668 22.3713 10.589 22.7792 10.995C23.3259 11.7282 23.6708 12.5919 23.7792 13.5H21.1492C21.385 12.6877 21.5029 11.8458 21.4992 11Z" fill="#628C1B"/>
<path d="M29.9567 6.41194C29.9102 6.5167 29.8291 6.6023 29.727 6.65441C29.6249 6.70653 29.5081 6.72198 29.3959 6.6982C29.2838 6.67442 29.1833 6.61284 29.1111 6.52377C29.039 6.4347 28.9997 6.32356 28.9997 6.20894V4.62894C28.7326 4.84806 28.5563 5.15838 28.5047 5.49994H28.4797C28.4675 5.72428 28.434 5.94695 28.3797 6.16494L28.1047 7.17994C28.0348 7.43575 27.9995 7.69976 27.9997 7.96494V9.06494L27.9297 9.54494L27.9997 9.56494C28.6161 9.32079 29.2677 9.17729 29.9297 9.13994L29.9197 9.06494C30.9997 7.70994 30.9997 4.06494 30.9997 4.06494L29.9567 6.41194Z" fill="#335E33"/>
<path d="M27.9085 10.571L28.241 9.4065C28.1589 9.43288 28.0784 9.4641 28 9.5L27.93 9.48C27.8028 9.93287 27.6302 10.3718 27.415 10.79C27.09 11.44 26.72 12.08 26.5 12.5C26.5034 12.8404 26.4475 13.1788 26.335 13.5H26.5C30.5 13.5 31.5 9 31.5 9L28.689 11.108C28.6052 11.1707 28.5039 11.2055 28.3994 11.2076C28.2948 11.2096 28.1922 11.1789 28.106 11.1196C28.0198 11.0603 27.9544 10.9755 27.919 10.8771C27.8836 10.7787 27.8799 10.6716 27.9085 10.571Z" fill="#346C2F"/>
<path d="M27.6259 9.42397C27.5412 9.42265 27.4582 9.40059 27.384 9.3597C27.3098 9.31882 27.2468 9.26037 27.2004 9.18947C27.1119 9.04874 27.0603 8.88794 27.0504 8.72197C27.0125 8.37017 27.0641 8.0145 27.2004 7.68797C27.3669 7.29147 27.6619 6.89547 27.5614 6.47897C27.4909 6.28871 27.4044 6.10472 27.3029 5.92897C27.0634 5.37347 27.3029 4.74547 27.3309 4.14397C27.3549 3.90902 27.3047 3.67247 27.1874 3.46747C27.1089 3.34797 26.9969 3.25147 26.9194 3.13147C26.7619 2.88747 26.7604 2.56447 26.5729 2.34197C26.469 2.24092 26.3597 2.14562 26.2454 2.05647C26.1889 2.01215 26.1455 1.95326 26.12 1.88613C26.0944 1.81899 26.0877 1.74616 26.1004 1.67547C26.128 1.60372 26.1773 1.54236 26.2414 1.49997H25.0294C25.0652 1.65388 25.1493 1.79229 25.2694 1.89497C25.4248 2.00957 25.5734 2.13311 25.7144 2.26497C25.8055 2.34935 25.8891 2.44135 25.9644 2.53997C26.3036 2.95163 26.4923 3.46663 26.4994 3.99997V12.5C26.7194 12.08 27.0894 11.44 27.4144 10.79C27.6297 10.3717 27.8022 9.93285 27.9294 9.47997L27.9534 9.31447C27.9434 9.31947 27.9339 9.32597 27.9239 9.33097C27.8326 9.38352 27.7309 9.41527 27.6259 9.42397ZM21.2044 1.38547C21.1408 1.57632 21.0337 1.74973 20.8914 1.89197C20.7492 2.03422 20.5758 2.14138 20.3849 2.20497C20.1271 2.29092 19.9028 2.45581 19.7439 2.6763C19.585 2.89678 19.4994 3.16168 19.4994 3.43347V4.49997C19.4994 4.63258 19.4468 4.75976 19.353 4.85353C19.2592 4.9473 19.132 4.99997 18.9994 4.99997C18.8668 4.99997 18.7396 4.9473 18.6459 4.85353C18.5521 4.75976 18.4994 4.63258 18.4994 4.49997V5.37497C18.4978 5.41689 18.5011 5.45885 18.5094 5.49997C18.5218 5.89216 18.6825 6.26507 18.959 6.54345C19.2355 6.82183 19.6073 6.98498 19.9994 6.99997V4.18997C20.0051 3.8802 20.1053 3.57957 20.2868 3.32843C20.4682 3.07729 20.7221 2.88765 21.0144 2.78497C21.3743 2.65524 21.6735 2.39702 21.8544 2.05997C21.97 1.852 22.0302 1.61788 22.0294 1.37997C22.0377 1.13872 22.1412 0.910574 22.3175 0.745598C22.4937 0.580621 22.7282 0.492287 22.9694 0.499975H22.4329C22.1611 0.499909 21.8962 0.585405 21.6757 0.744341C21.4552 0.903277 21.2903 1.12759 21.2044 1.38547Z" fill="#9FC73D"/>
<path d="M22.78 10.995C22.3721 10.589 22.0996 10.0668 22 9.5V8.97C21.9279 8.7116 21.8056 8.46995 21.64 8.25889C21.4744 8.04783 21.2688 7.8715 21.035 7.74C20.7879 7.61136 20.555 7.45718 20.34 7.28C20.14 7.125 20 7 20 7C19.6079 6.98501 19.2361 6.82186 18.9596 6.54348C18.683 6.26509 18.5224 5.89219 18.51 5.5H18.5C18.3239 5.50108 18.1512 5.54924 18 5.6395V5.854C18.0001 6.17067 18.1005 6.47918 18.2867 6.73534C18.4728 6.99149 18.7353 7.18215 19.0365 7.28C19.7865 7.525 20.716 7.93 21 8.5C21.264 9.27909 21.6133 10.0266 22.0415 10.729C22.0911 10.8041 22.1194 10.8913 22.1234 10.9812C22.1273 11.0712 22.1068 11.1605 22.0639 11.2397C22.021 11.3188 21.9575 11.3849 21.88 11.4307C21.8025 11.4766 21.714 11.5005 21.624 11.5H21.4825C21.4502 12.1774 21.3386 12.8486 21.15 13.5H23.78C23.6715 12.5919 23.3267 11.7282 22.78 10.995Z" fill="#4D6E15"/>
<path d="M26.4991 12.5V10.2085C26.3895 9.59061 26.2247 8.98384 26.0066 8.39546C25.7568 7.72751 25.4614 7.07748 25.1226 6.44996C25.1116 6.21596 25.0226 3.74296 26.0346 2.64146C26.0101 2.60796 25.9906 2.57096 25.9641 2.53846C25.9376 2.50596 25.9066 2.47646 25.8786 2.44446L25.8746 2.44996C25.0026 3.34246 24.8746 5.11296 24.8651 5.98546C24.031 4.55358 23.0541 3.20989 21.9491 1.97496C21.9446 1.96996 21.9271 1.95396 21.9221 1.94946C21.9171 1.94496 21.9101 1.94396 21.9051 1.93896C21.8905 1.98013 21.8738 2.02052 21.8551 2.05996C21.8351 2.09796 21.8081 2.13146 21.7851 2.16796C22.8665 3.37967 23.8235 4.69695 24.6416 6.09996C23.3058 5.32805 21.7873 4.92883 20.2446 4.94396C20.2282 4.94456 20.2121 4.94837 20.1971 4.9552C20.1822 4.96203 20.1687 4.97173 20.1575 4.98376C20.1463 4.99578 20.1376 5.00989 20.1319 5.02529C20.1262 5.04068 20.1235 5.05705 20.1241 5.07346C20.1247 5.08988 20.1285 5.10602 20.1353 5.12096C20.1422 5.1359 20.1519 5.14935 20.1639 5.16053C20.1759 5.17172 20.19 5.18044 20.2054 5.18617C20.2208 5.19191 20.2372 5.19456 20.2536 5.19396C20.2771 5.19046 23.0036 5.11796 24.9126 6.59096C25.1884 7.10727 25.4343 7.63898 25.6491 8.18347C23.6966 7.28946 21.1326 7.60097 21.0186 7.61596C21.0002 7.61891 20.9827 7.62615 20.9676 7.63709C20.9525 7.64803 20.9402 7.66238 20.9316 7.67896C20.9661 7.69846 21.0006 7.72296 21.0346 7.73996C21.092 7.77238 21.1471 7.80863 21.1996 7.84846C21.7996 7.79346 24.1311 7.65096 25.7881 8.52946C26.1534 9.4784 26.3516 10.4834 26.3741 11.5V11.6665C25.0476 10.2775 22.1636 9.41646 22.0341 9.37896C22.0221 9.37546 22.0111 9.38297 21.9991 9.38297V9.49996C22.0005 9.5447 22.0048 9.5893 22.0121 9.63346C22.4121 9.75746 25.2881 10.6835 26.3741 12.0455V12.5C26.377 12.8261 26.3237 13.1504 26.2166 13.4585C26.2111 13.4725 26.2166 13.4855 26.2166 13.5H26.3321C26.4454 13.1788 26.5019 12.8405 26.4991 12.5Z" fill="#B9D671"/>
<path d="M12 5.5C14.915 5.5 17 8 17 8H16.415C12.675 7.925 12 5.5 12 5.5Z" fill="#80A100"/>
<path d="M17 7.00001V8.00001C17 8.00001 14.915 5.50001 12 5.50001C12.3839 5.32138 12.7863 5.18556 13.2 5.09501C13.4669 5.03111 13.7405 4.99921 14.015 5.00001H14.085C15.75 5.00001 16.81 5.81501 17 7.00001Z" fill="#A1C203"/>
<path d="M16.4141 8H17.1191C17.3041 8 17.4791 8.01 17.6591 8.025C19.8241 8.205 21.4991 9.465 21.4991 11C21.5028 11.8458 21.3849 12.6877 21.1491 13.5H11.8491C11.6133 12.6877 11.4955 11.8458 11.4991 11C11.5071 10.4657 11.7017 9.95102 12.0491 9.545C12.7941 8.62 14.2291 8 15.8791 8H16.4141Z" fill="#DB3744"/>
<path d="M19.2491 12.5H15.7491C15.1621 12.5017 14.5978 12.2736 14.177 11.8644C13.7561 11.4552 13.5122 10.8975 13.4975 10.3107C13.4828 9.72396 13.6985 9.15473 14.0983 8.72498C14.4981 8.29522 15.0503 8.03911 15.6366 8.01147C14.965 8.00476 14.2994 8.1376 13.6819 8.40158C13.0643 8.66555 12.5083 9.05491 12.0491 9.54497C11.7017 9.95099 11.5071 10.4657 11.4991 11C11.4955 11.8458 11.6133 12.6877 11.8491 13.5H21.1491C21.3849 12.6877 21.5028 11.8458 21.4991 11C21.4978 10.8742 21.4851 10.7489 21.4611 10.6255C21.3734 11.1489 21.1031 11.6244 20.6982 11.9676C20.2933 12.3107 19.7799 12.4993 19.2491 12.5Z" fill="#AD313B"/>
<path d="M18.1342 8.86205C17.9292 8.90155 17.7012 9.01605 17.6737 9.22255C17.6437 9.44705 17.8617 9.61705 18.0507 9.74105C18.4628 10.0102 18.8605 10.3008 19.2422 10.6115C19.4622 10.7905 19.7387 10.9885 20.0037 10.8875C20.095 10.85 20.173 10.7862 20.2277 10.704C20.2898 10.6057 20.3289 10.4945 20.3419 10.3789C20.3549 10.2633 20.3415 10.1462 20.3027 10.0365C20.2399 9.83054 20.1339 9.6403 19.9917 9.47855C19.7496 9.24096 19.4563 9.0619 19.1344 8.95504C18.8124 8.84819 18.4703 8.81638 18.1342 8.86205Z" fill="#FF6666"/>
<path d="M16 3L15.995 3.06C15.6649 3.01934 15.3326 2.9993 15 3C15 3 12.5 2.5 12.5 1H14C15.5 1 16 3 16 3Z" fill="#A1C203"/>
<path d="M18.4991 4.30002V5.37502C18.4975 5.41693 18.5008 5.4589 18.5091 5.50002H18.4991C18.2341 5.50081 17.9802 5.60642 17.7929 5.79379C17.6055 5.98115 17.4999 6.23504 17.4991 6.50002V7.50002C17.4886 7.68159 17.5476 7.86036 17.6641 8.00002L17.6591 8.02502C17.4791 8.01002 17.3041 8.00002 17.1191 8.00002H16.9991V7.00002C16.8091 5.81502 15.7491 5.00002 14.0841 5.00002H14.0141C13.7396 4.99922 13.466 5.03111 13.1991 5.09502C12.7854 5.18556 12.383 5.32138 11.9991 5.50002V4.50002C11.9987 4.29914 11.9396 4.10276 11.8291 3.93502C12.5641 3.26502 13.7091 3.00002 14.9991 3.00002C15.3317 2.99932 15.664 3.01935 15.9941 3.06002C16.4739 3.08586 16.9435 3.20913 17.3742 3.42231C17.8048 3.6355 18.1876 3.93413 18.4991 4.30002Z" fill="#FF9B00"/>
<path d="M11.9991 9.50014V5.50014C11.9991 5.50014 12.6741 7.92514 16.4141 8.00014H15.8791C14.2291 8.00014 12.7941 8.62014 12.0491 9.54514L11.9991 9.50014ZM18.4991 5.37514V5.00014C15.9606 5.00014 13.4491 4.24464 13.0581 3.26514C12.6046 3.39655 12.1852 3.62519 11.8291 3.93514C11.9396 4.10288 11.9987 4.29926 11.9991 4.50014V5.50014C12.383 5.3215 12.7854 5.18568 13.1991 5.09514C13.466 5.03123 13.7396 4.99934 14.0141 5.00014H14.0841C15.7491 5.00014 16.8091 5.81514 16.9991 7.00014V8.00014H17.1191C17.3041 8.00014 17.4791 8.01014 17.6591 8.02514L17.6641 8.00014C17.5476 7.86048 17.4886 7.68171 17.4991 7.50014V6.50014C17.4999 6.23516 17.6055 5.98127 17.7929 5.7939C17.9802 5.60654 18.2341 5.50093 18.4991 5.50014H18.5091C18.5008 5.45902 18.4975 5.41705 18.4991 5.37514Z" fill="#F1671C"/>
<path d="M15 3C15.3326 2.9993 15.6649 3.01934 15.995 3.06L16 3L12.5 1C12.5 2.5 15 3 15 3Z" fill="#88AB00"/>
<path d="M10.6195 12.1348L11.6995 13.4998H6.72448L5.44948 12.4848C5.0587 12.1677 4.78846 11.7262 4.68383 11.2339C4.57919 10.7417 4.64648 10.2284 4.87448 9.77976C4.89948 9.74476 4.92448 9.69976 4.94948 9.65976C5.1298 9.37277 5.37248 9.13009 5.65948 8.94976C5.69948 8.92476 5.74448 8.89976 5.77948 8.87476C6.1914 8.66632 6.65817 8.59185 7.1145 8.66178C7.57083 8.73171 7.99388 8.94253 8.32448 9.26476C8.38166 9.32299 8.4351 9.38478 8.48448 9.44976L10.6195 12.1348Z" fill="#FF9B00"/>
<path d="M4.63446 9.57004L4.87446 9.78004C4.69448 10.1264 4.61318 10.5156 4.63946 10.905L1.48446 10.665C1.26696 10.6457 1.0633 10.55 0.909463 10.395L0.769463 10.255C0.626535 10.1117 0.535081 9.92508 0.509375 9.7243C0.483669 9.52351 0.525157 9.31987 0.627364 9.14514C0.729572 8.97042 0.886747 8.83445 1.07436 8.75845C1.26197 8.68245 1.46947 8.67071 1.66446 8.72504L4.63446 9.57004Z" fill="#88AB00"/>
<path d="M5.77965 8.87489C5.74465 8.89989 5.69965 8.92489 5.65965 8.94989C5.37265 9.13021 5.12997 9.37289 4.94965 9.65989C4.92465 9.69989 4.89965 9.74489 4.87465 9.77989L4.63465 9.56989L1.83465 7.20489C1.65521 7.02204 1.55469 6.77608 1.55469 6.51989C1.55469 6.2637 1.65521 6.01774 1.83465 5.83489C1.92439 5.74455 2.03111 5.67285 2.14867 5.62392C2.26623 5.57499 2.39231 5.5498 2.51965 5.5498C2.64698 5.5498 2.77306 5.57499 2.89063 5.62392C3.00819 5.67285 3.11491 5.74455 3.20465 5.83489L5.56965 8.63489L5.77965 8.87489Z" fill="#88AB00"/>
<path d="M4.9591 4.76996C5.04385 4.68442 5.1447 4.61653 5.25584 4.57019C5.36698 4.52386 5.48619 4.5 5.6066 4.5C5.72701 4.5 5.84622 4.52386 5.95736 4.57019C6.0685 4.61653 6.16935 4.68442 6.2541 4.76996L6.3941 4.90996C6.54908 5.06379 6.64471 5.26745 6.6641 5.48496L6.8941 8.50996L6.9041 8.63996C6.51465 8.61368 6.12547 8.69498 5.7791 8.87496L5.5691 8.63496L4.7241 5.66496C4.6796 5.5084 4.67794 5.34276 4.71927 5.18534C4.76061 5.02791 4.84343 4.88446 4.9591 4.76996Z" fill="#88AB00"/>
<path d="M8.05948 12.4998C7.88191 12.4999 7.70608 12.465 7.54203 12.397C7.37798 12.3291 7.22895 12.2294 7.10348 12.1038L5.91248 10.9128C5.74486 10.746 5.62402 10.538 5.56204 10.3098C5.50006 10.0816 5.49913 9.84105 5.55933 9.61234C5.61953 9.38364 5.73876 9.17476 5.90507 9.00663C6.07138 8.83849 6.27894 8.71699 6.50698 8.6543C6.25356 8.68521 6.00741 8.75981 5.77948 8.8748C5.74448 8.8998 5.69948 8.9248 5.65948 8.9498C5.37248 9.13012 5.1298 9.3728 4.94948 9.6598C4.92448 9.6998 4.89948 9.7448 4.87448 9.7798C4.64648 10.2284 4.57919 10.7417 4.68383 11.2339C4.78846 11.7262 5.0587 12.1677 5.44948 12.4848L6.72448 13.4998H11.6995L10.9085 12.4998H8.05948Z" fill="#F37924"/>
<path d="M4.87454 9.77997L4.63454 9.56997L4.26704 9.46547L4.16054 9.67747C4.11362 9.77137 4.03834 9.84813 3.94537 9.89686C3.8524 9.94559 3.74645 9.96382 3.64254 9.94897L1.04954 9.57847C0.941833 9.5626 0.842333 9.51176 0.766353 9.4338C0.690373 9.35583 0.642125 9.25505 0.629036 9.14697C0.525909 9.32099 0.483734 9.52441 0.50918 9.72508C0.534625 9.92575 0.62624 10.1122 0.769536 10.255L0.909536 10.395C1.06337 10.55 1.26703 10.6456 1.48454 10.665L4.63954 10.905C4.61326 10.5155 4.69455 10.1263 4.87454 9.77997Z" fill="#628C1B"/>
<path d="M5.56933 8.63476L5.38133 8.41176L5.18133 8.54526C4.98901 8.67341 4.75823 8.73098 4.52825 8.70819C4.29826 8.6854 4.08327 8.58366 3.91983 8.42026L2.36183 6.86226C2.19778 6.6972 2.09671 6.47991 2.07616 6.2481C2.05561 6.01629 2.11688 5.78461 2.24933 5.59326C2.08863 5.64084 1.943 5.72924 1.82663 5.84984C1.71027 5.97045 1.62713 6.11915 1.58534 6.28145C1.54354 6.44375 1.54451 6.61411 1.58815 6.77592C1.63178 6.93774 1.7166 7.08548 1.83433 7.20476L4.63433 9.56976L4.87433 9.77976C4.89933 9.74476 4.92433 9.69976 4.94933 9.65976C5.12966 9.37276 5.37233 9.13009 5.65933 8.94976C5.69933 8.92476 5.74433 8.89976 5.77933 8.87476L5.56933 8.63476Z" fill="#628C1B"/>
<path d="M6.83958 7.78974L6.53958 7.86524C6.47164 7.88226 6.40089 7.88481 6.3319 7.87274C6.26291 7.86067 6.19723 7.83424 6.13911 7.79516C6.08098 7.75608 6.03172 7.70523 5.99451 7.6459C5.95729 7.58656 5.93296 7.52008 5.92308 7.45074L5.59958 5.21324C5.56741 4.96739 5.6288 4.71844 5.77158 4.51574C5.61837 4.48745 5.46048 4.49864 5.3128 4.54826C5.16511 4.59788 5.03249 4.68429 4.92744 4.79935C4.82239 4.9144 4.74837 5.05431 4.71235 5.20589C4.67634 5.35747 4.67951 5.51573 4.72158 5.66574L5.56658 8.63574L5.77658 8.87574C6.12295 8.69576 6.51213 8.61446 6.90158 8.64074L6.89158 8.51074L6.83958 7.78974Z" fill="#628C1B"/>
<path d="M7.27932 11.1104C7.25448 11.1331 7.23449 11.1607 7.22057 11.1914C7.20665 11.2221 7.19908 11.2553 7.19831 11.289C7.19754 11.3227 7.20359 11.3562 7.2161 11.3874C7.22861 11.4187 7.24731 11.4472 7.27109 11.4711C7.29487 11.4949 7.32323 11.5138 7.35447 11.5264C7.38571 11.5391 7.41919 11.5452 7.45288 11.5446C7.48658 11.544 7.5198 11.5366 7.55055 11.5228C7.5813 11.509 7.60894 11.4891 7.63182 11.4644L8.99982 10.0999L8.69332 9.71387C8.67905 9.72146 8.66549 9.73033 8.65282 9.74037L7.27932 11.1104ZM9.71432 12.4999L10.3793 11.8324L10.0663 11.4384L9.00832 12.4999H9.71432Z" fill="#F37924"/>
<path d="M8.83785 12.671C8.79098 12.7179 8.76465 12.7815 8.76465 12.8477C8.76465 12.914 8.79098 12.9776 8.83785 13.0245C8.86085 13.0478 8.88827 13.0662 8.91849 13.0787C8.94871 13.0913 8.98113 13.0976 9.01385 13.0975C9.04682 13.0976 9.07947 13.0911 9.10994 13.0785C9.1404 13.0659 9.16807 13.0474 9.19135 13.024L9.71435 12.5H9.00835L8.83785 12.671Z" fill="#E95410"/>
<path d="M6.43264 9.28685C6.37609 9.30743 6.32562 9.34188 6.28587 9.38705C6.24612 9.43222 6.21835 9.48665 6.20514 9.54536C6.20419 9.5923 6.2151 9.63872 6.23686 9.68032C6.25862 9.72193 6.29053 9.75736 6.32964 9.78335C6.40825 9.83481 6.49547 9.87172 6.58714 9.89236C6.88414 9.97636 7.18464 10.0489 7.48714 10.1034C7.55758 10.1276 7.63305 10.1334 7.70638 10.1203C7.77972 10.1072 7.84848 10.0755 7.90613 10.0284C7.94434 9.97864 7.96649 9.91847 7.96963 9.85586C7.97977 9.72829 7.94158 9.60157 7.86264 9.50086C7.67251 9.32714 7.43495 9.21401 7.18025 9.17589C6.92556 9.13778 6.66528 9.17641 6.43264 9.28685Z" fill="#FBCB00"/>
<path d="M8.5 1.5H10.5V3.5H8.5V1.5Z" fill="#30CFFF"/>
<path d="M12 4.50005V5.50005H7V4.50005C7.00079 4.23508 7.1064 3.98118 7.29377 3.79382C7.48113 3.60645 7.73503 3.50084 8 3.50005H11C11.1317 3.49871 11.2623 3.52367 11.3843 3.57345C11.5062 3.62323 11.617 3.69684 11.7101 3.78996C11.8032 3.88309 11.8768 3.99386 11.9266 4.11579C11.9764 4.23772 12.0013 4.36836 12 4.50005Z" fill="#E7F5F5"/>
<path d="M12.05 9.545L12 9.5V5.5H7V8.6525C7.49992 8.69461 7.96904 8.91146 8.325 9.265C8.38218 9.32323 8.43562 9.38502 8.485 9.45L10.62 12.135L11.7 13.5H11.85C11.6142 12.6877 11.4964 11.8458 11.5 11C11.508 10.4657 11.7026 9.95102 12.05 9.545Z" fill="#30CFFF"/>
<path d="M8.5 4.5C8.5 4.23478 8.60536 3.98043 8.79289 3.79289C8.98043 3.60536 9.23478 3.5 9.5 3.5H8C7.73503 3.50079 7.48113 3.6064 7.29377 3.79377C7.1064 3.98113 7.00079 4.23503 7 4.5V5.5H8.5V4.5Z" fill="#CEDADA"/>
<path d="M12.05 9.545L12 9.5V7.75C12 8.21413 11.8156 8.65925 11.4874 8.98744C11.1592 9.31563 10.7141 9.5 10.25 9.5C9.78587 9.5 9.34075 9.31563 9.01256 8.98744C8.68437 8.65925 8.5 8.21413 8.5 7.75V5.5H7V8.6525C7.49992 8.69461 7.96904 8.91146 8.325 9.265C8.38218 9.32323 8.43562 9.38502 8.485 9.45L10.62 12.135L11.7 13.5H11.85C11.6142 12.6877 11.4964 11.8458 11.5 11C11.508 10.4657 11.7026 9.95102 12.05 9.545ZM8.5 1.5V3.5H10.5V3H9.5C9.36739 3 9.24021 2.94732 9.14645 2.85355C9.05268 2.75979 9 2.63261 9 2.5V1.5H8.5Z" fill="#01A3EC"/>
<path d="M9.5 1.5H10V3H9.5V1.5Z" fill="#01A3EC"/>
<path d="M11.5 5C11.5 4.86739 11.4473 4.74021 11.3536 4.64645C11.2598 4.55268 11.1326 4.5 11 4.5C10.8674 4.5 10.7402 4.55268 10.6464 4.64645C10.5527 4.74021 10.5 4.86739 10.5 5V5.5H11.5V5Z" fill="white"/>
<path d="M10.5 5.5V7.5C10.5 7.63261 10.5527 7.75979 10.6464 7.85355C10.7402 7.94732 10.8674 8 11 8C11.1326 8 11.2598 7.94732 11.3536 7.85355C11.4473 7.75979 11.5 7.63261 11.5 7.5V5.5H10.5Z" fill="#99EFFF"/>
<path d="M14 20.5C15.933 20.5 17.5 19.8284 17.5 19C17.5 18.1716 15.933 17.5 14 17.5C12.067 17.5 10.5 18.1716 10.5 19C10.5 19.8284 12.067 20.5 14 20.5Z" fill="#88AB00"/>
<path d="M24.5 13.5V28.5L22.5 31.5V13.5H23.78H24.5Z" fill="#E5AA5C"/>
<path d="M22.5 13.5V31.5H6.5L5.5 30.5V13.5H22.5ZM17.5 19C17.5 18.17 15.935 17.5 14 17.5C12.065 17.5 10.5 18.17 10.5 19C10.5 19.83 12.065 20.5 14 20.5C15.935 20.5 17.5 19.83 17.5 19Z" fill="#FAD27A"/>
<path d="M26.335 13.5H24.5V28.5L26.5 30.5V13.5H26.335Z" fill="#D28E43"/>
<path d="M22.5 31.5L26.5 30.5L24.5 28.5L22.5 31.5Z" fill="#A15C27"/>
<path d="M14 17.25C11.862 17.25 10.25 18.0025 10.25 19C10.25 19.9975 11.862 20.75 14 20.75C16.138 20.75 17.75 19.9975 17.75 19C17.75 18.0025 16.138 17.25 14 17.25ZM14 20.5C12.067 20.5 10.5 19.8285 10.5 19C10.5 18.1715 12.067 17.5 14 17.5C15.933 17.5 17.5 18.1715 17.5 19C17.5 19.8285 15.933 20.5 14 20.5Z" fill="#FAAB1B"/>
<path d="M15 29.5C13.1435 29.5 11.363 28.7625 10.0503 27.4497C8.7375 26.137 8 24.3565 8 22.5V13.5H5.5V30.5L6.5 31.5H22.5V29.5H15Z" fill="#F5B662"/>
</g>
<defs>
<clipPath id="clip0_727_9579">
<rect width="32" height="32" fill="white"/>
</clipPath>
</defs>
</svg>
