<svg width="32" height="32" viewBox="0 0 32 32" fill="none" xmlns="http://www.w3.org/2000/svg">
<circle cx="16" cy="16" r="16" fill="#D9ECCD"/>
<g clip-path="url(#clip0_1948_36934)">
<path d="M23.3333 12.6667V17.4347C22.9327 17.5773 21.9787 17.892 20.6667 18.1673V9.66667C20.6667 8.74733 19.9193 8 19 8H13C12.0813 8 11.3333 8.74733 11.3333 9.66667V18.1673C10.0213 17.892 9.06733 17.5773 8.66667 17.4347V12.6667H8V17.8927C8.42133 18.04 11.2407 19.2353 15.6667 19.3273V21.3333H13C12.0813 21.3333 11.3333 22.0807 11.3333 23V24H12V23C12 22.4487 12.4487 22 13 22H15.6667V24H16.3333V22H19C19.5513 22 20 22.4487 20 23V24H20.6667V23C20.6667 22.0807 19.9193 21.3333 19 21.3333H16.3333V19.3273C20.7647 19.234 23.572 18.042 24 17.8927V12.6667H23.3333ZM13 8.66667H19C19.5513 8.66667 20 9.11533 20 9.66667V16.6333C17.3873 15.81 14.6127 15.81 12 16.6333V9.66667C12 9.11533 12.4487 8.66667 13 8.66667ZM12 17.33C14.6067 16.46 17.392 16.46 20 17.33V18.2967C18.8467 18.5053 17.482 18.6667 16 18.6667C14.518 18.6667 13.1533 18.5053 12 18.2967V17.33Z" fill="#338000"/>
</g>
<defs>
<clipPath id="clip0_1948_36934">
<rect width="16" height="16" fill="white" transform="translate(8 8)"/>
</clipPath>
</defs>
</svg>
