<svg width="32" height="32" viewBox="0 0 32 32" fill="none" xmlns="http://www.w3.org/2000/svg">
<g clip-path="url(#clip0_833_8344)">
<path d="M16 32C24.8366 32 32 24.8366 32 16C32 7.16344 24.8366 0 16 0C7.16344 0 0 7.16344 0 16C0 24.8366 7.16344 32 16 32Z" fill="#FFD93B"/>
<path d="M7.13603 14.299C6.99303 13.96 7.15203 13.569 7.49103 13.426C7.83103 13.283 8.22103 13.442 8.36403 13.781C8.71303 14.609 9.54203 15.099 10.425 15.003C11.308 14.906 12.01 14.247 12.171 13.363C12.237 13.001 12.585 12.761 12.946 12.827C13.308 12.893 13.549 13.24 13.482 13.602C13.214 15.071 12.044 16.166 10.57 16.328C9.10203 16.49 7.71803 15.678 7.13603 14.299ZM21.429 16.328C19.955 16.166 18.785 15.071 18.517 13.602C18.451 13.24 18.691 12.892 19.053 12.826C19.415 12.761 19.762 13 19.829 13.362C19.99 14.246 20.692 14.905 21.575 15.002C22.461 15.098 23.287 14.608 23.636 13.78C23.779 13.441 24.17 13.282 24.509 13.425C24.848 13.568 25.007 13.959 24.864 14.298C24.281 15.681 22.895 16.49 21.429 16.328Z" fill="#3E4347"/>
<path d="M16 26.424C17.8744 26.424 19.394 24.9044 19.394 23.03C19.394 21.1555 17.8744 19.636 16 19.636C14.1255 19.636 12.606 21.1555 12.606 23.03C12.606 24.9044 14.1255 26.424 16 26.424Z" fill="#3E4347"/>
<path d="M24.149 8.93496V10.056H19.791V9.05196C20.136 8.65196 21.923 6.58296 22.284 6.22196C21.876 6.24596 20.411 6.21396 19.972 6.22196V5.17996H24V6.08896C21.813 8.61296 22.322 8.02496 21.484 8.93396H24.149V8.93496ZM31.691 6.06196V7.77296H25.038V6.24096C25.565 5.63096 28.293 2.47196 28.843 1.92096C28.221 1.95696 25.983 1.90896 25.313 1.92096V0.329956H31.464V1.71796C28.125 5.57096 28.903 4.67396 27.623 6.06196H31.691Z" fill="#E24B4B"/>
</g>
<defs>
<clipPath id="clip0_833_8344">
<rect width="32" height="32" fill="white"/>
</clipPath>
</defs>
</svg>
