<svg width="22" height="24" viewBox="0 0 22 24" fill="none" xmlns="http://www.w3.org/2000/svg">
<path d="M21.4276 11.2298L10.9999 17.2862L0.572266 11.2298L10.9999 2.43164L21.4276 11.2298Z" fill="#FFAB02"/>
<path d="M19.6133 1.68551V18.7982H2.38623V5.02787H5.724C5.98169 5.02787 6.22883 4.9255 6.41105 4.74328C6.59327 4.56106 6.69564 4.31392 6.69564 4.05622V0.713867H18.6416C18.8993 0.713867 19.1465 0.816237 19.3287 0.998456C19.5109 1.18068 19.6133 1.42782 19.6133 1.68551Z" fill="#E9EDF4"/>
<path d="M6.69564 0.713867V4.05622C6.69564 4.31392 6.59327 4.56106 6.41105 4.74328C6.22883 4.9255 5.98169 5.02787 5.724 5.02787H2.38623L6.69564 0.713867Z" fill="#D2DBEA"/>
<path d="M21.4276 11.2295V21.5481C21.4283 21.9869 21.262 22.4095 20.9624 22.7301C20.8003 22.906 20.6035 23.0463 20.3843 23.142C20.1652 23.2378 19.9285 23.2869 19.6893 23.2863H2.3105C2.07134 23.2869 1.83466 23.2378 1.6155 23.142C1.39633 23.0463 1.19948 22.906 1.03744 22.7301C0.737822 22.4095 0.571497 21.9869 0.572268 21.5481V11.2295L10.9999 17.286L21.4276 11.2295Z" fill="#FFC90D"/>
<path d="M20.9625 22.7308C20.8005 22.9067 20.6037 23.047 20.3845 23.1427C20.1653 23.2385 19.9286 23.2876 19.6895 23.287H2.31066C2.07149 23.2876 1.83481 23.2385 1.61565 23.1427C1.39649 23.047 1.19964 22.9067 1.0376 22.7308L9.83289 14.7607C10.1525 14.471 10.5685 14.3105 10.9999 14.3105C11.4313 14.3105 11.8472 14.471 12.1669 14.7607L20.9625 22.7308Z" fill="#FFAB02"/>
<path d="M5.2845 10.1931C5.23968 10.174 5.20227 10.1433 5.17227 10.1002C5.14227 10.0572 5.12744 10.0117 5.12744 9.96295C5.12744 9.89942 5.14897 9.84471 5.19203 9.79777C5.21296 9.77489 5.23859 9.7568 5.26716 9.74474C5.29572 9.73267 5.32656 9.72693 5.35756 9.72789C5.39462 9.72789 5.43027 9.7353 5.46415 9.75012C5.81157 9.90413 6.18778 9.98245 6.56779 9.97989C7.22144 9.97989 7.54826 9.7653 7.54826 9.33542C7.54826 9.22354 7.50591 9.13001 7.42191 9.05518C7.33791 8.98071 7.23485 8.92177 7.11132 8.87871C6.98779 8.83565 6.81238 8.78448 6.58438 8.72483C6.28191 8.64648 6.03732 8.57059 5.85027 8.49789C5.66321 8.42518 5.50297 8.31577 5.3685 8.17001C5.23403 8.02424 5.16697 7.83012 5.16697 7.58765C5.16697 7.37448 5.22274 7.18106 5.33497 7.00742C5.44721 6.83377 5.61238 6.69542 5.83085 6.59271C6.04932 6.49001 6.31191 6.43848 6.61791 6.43848C7.02909 6.43848 7.40074 6.50024 7.73321 6.62342C7.83768 6.66083 7.89026 6.73565 7.89026 6.84789C7.89026 6.90754 7.86944 6.96153 7.8285 7.01024C7.78756 7.05895 7.73321 7.08295 7.66579 7.08295C7.63482 7.08099 7.60445 7.07346 7.57615 7.06071C7.28607 6.95992 6.98112 6.90862 6.67403 6.90895C6.37897 6.90895 6.13897 6.96542 5.95403 7.0773C5.76944 7.18954 5.67662 7.34624 5.67662 7.54812C5.67662 7.68224 5.72074 7.79165 5.80827 7.87601C5.8965 7.96001 6.00662 8.0253 6.13897 8.07189C6.27168 8.11883 6.45168 8.16824 6.67968 8.22048C6.97474 8.29142 7.21262 8.36271 7.39403 8.4333C7.57544 8.50424 7.73003 8.61471 7.85921 8.76401C7.98803 8.91365 8.05262 9.11518 8.05262 9.3693C8.05262 9.57824 7.99262 9.76601 7.87332 9.93224C7.75332 10.0985 7.58532 10.2287 7.36897 10.3215C7.15226 10.4151 6.90203 10.4617 6.61791 10.4617C6.15965 10.4649 5.70566 10.3737 5.2845 10.1931Z" fill="#F14F4A"/>
<path d="M6.61797 10.5676C6.14544 10.5705 5.67737 10.4761 5.24291 10.2902C5.17919 10.263 5.12457 10.2182 5.0855 10.161C5.04425 10.1034 5.02204 10.0343 5.02197 9.96336C5.02197 9.87265 5.05303 9.79289 5.11409 9.72618C5.21044 9.62171 5.37068 9.59418 5.50656 9.65313C5.84075 9.8009 6.20246 9.8762 6.56785 9.87407C7.44244 9.87407 7.44244 9.46889 7.44244 9.33548C7.4435 9.29727 7.43588 9.25932 7.42017 9.22448C7.40446 9.18964 7.38107 9.15881 7.35174 9.1343C7.27101 9.06504 7.17748 9.01228 7.07644 8.97901C6.90538 8.92221 6.73233 8.87158 6.55762 8.82724C6.25268 8.74818 6.00174 8.67054 5.81185 8.59642C5.61327 8.51974 5.43493 8.39851 5.29056 8.24207C5.13844 8.07689 5.06115 7.85665 5.06115 7.58736C5.06115 7.35442 5.12362 7.13983 5.24609 6.94995C5.36856 6.76042 5.54962 6.6076 5.78574 6.49677C6.01762 6.38807 6.2975 6.33301 6.61797 6.33301C7.03938 6.33301 7.42727 6.39724 7.77033 6.5243C7.91503 6.57654 7.99621 6.69124 7.99621 6.84795C7.9962 6.93276 7.96534 7.01468 7.90938 7.07842C7.87968 7.11393 7.84237 7.14229 7.80021 7.16142C7.75806 7.18054 7.71213 7.18993 7.66585 7.18889C7.6214 7.18712 7.57769 7.17694 7.53703 7.15889C7.25939 7.06331 6.96773 7.01476 6.67409 7.01524C6.39985 7.01524 6.17644 7.06677 6.00915 7.16807C5.85668 7.26054 5.78256 7.38477 5.78256 7.54818C5.78256 7.65336 5.81503 7.73524 5.88174 7.79948C5.95797 7.87254 6.05644 7.93077 6.17397 7.97242C6.30209 8.01724 6.48033 8.06595 6.70338 8.11712C7.00233 8.18948 7.24727 8.26254 7.43291 8.33489C7.6288 8.41183 7.79927 8.53254 7.93903 8.69489C8.08444 8.8636 8.15821 9.09018 8.15821 9.36901C8.15821 9.60018 8.09115 9.81054 7.95915 9.99442C7.82856 10.1755 7.64397 10.3184 7.41103 10.419C7.18162 10.5178 6.91515 10.5676 6.61797 10.5676ZM5.35762 9.83348C5.34124 9.83259 5.32487 9.83539 5.30971 9.84169C5.29456 9.84798 5.28102 9.8576 5.27009 9.86983C5.24844 9.89233 5.23549 9.92178 5.23355 9.95295C5.23161 9.98411 5.24081 10.0149 5.2595 10.0399C5.27552 10.0643 5.29835 10.0835 5.32515 10.095L5.32656 10.0957C5.72538 10.2683 6.16021 10.3562 6.61833 10.3562C6.88621 10.3562 7.1248 10.3117 7.32703 10.2245C7.52468 10.1395 7.67962 10.0202 7.78762 9.87054C7.89456 9.7216 7.94644 9.55748 7.94644 9.36936C7.94644 9.14277 7.88997 8.96207 7.7788 8.83289C7.66454 8.69946 7.51921 8.59619 7.35562 8.53218C7.1795 8.46301 6.94338 8.39313 6.65503 8.3236C6.46872 8.28278 6.28469 8.23212 6.10374 8.17183C5.96669 8.12571 5.84107 8.05086 5.73527 7.9523C5.62585 7.84783 5.5708 7.7116 5.5708 7.54818C5.5708 7.30818 5.68127 7.11901 5.89938 6.98701C6.09985 6.86524 6.36068 6.80348 6.67409 6.80348C6.99456 6.80348 7.30974 6.85642 7.6108 6.96054C7.62821 6.9688 7.64677 6.9744 7.66585 6.97713C7.70221 6.97713 7.72691 6.96654 7.74738 6.94183C7.77097 6.91623 7.78418 6.88276 7.78444 6.84795C7.78444 6.78089 7.75974 6.7456 7.69762 6.72336C7.37715 6.60477 7.01433 6.54442 6.61797 6.54442C6.32856 6.54442 6.07938 6.59313 5.87609 6.68842C5.67668 6.7823 5.52456 6.90901 5.42433 7.06465C5.32233 7.22242 5.27256 7.39289 5.27256 7.58736C5.27256 7.80477 5.32974 7.97207 5.44656 8.09842C5.56903 8.23148 5.71833 8.33277 5.88915 8.39948C6.07091 8.47007 6.31409 8.54524 6.61127 8.62218C6.84033 8.68218 7.02033 8.73513 7.14597 8.77889C7.27332 8.82129 7.39109 8.88833 7.49256 8.97618C7.5995 9.07148 7.65421 9.19254 7.65421 9.33548C7.65421 9.67783 7.46538 10.0858 6.56785 10.0858C6.17292 10.0881 5.78198 10.0067 5.4208 9.84689C5.40077 9.83811 5.37913 9.83366 5.35727 9.83383L5.35762 9.83348ZM8.90962 10.3611C8.88585 10.3378 8.86713 10.3097 8.85463 10.2788C8.84212 10.2479 8.83609 10.2148 8.83691 10.1815V6.83665C8.83691 6.73571 8.87221 6.64889 8.9435 6.57618C8.97647 6.54102 9.01641 6.51312 9.06078 6.49428C9.10514 6.47544 9.15295 6.46607 9.20115 6.46677H9.38609C9.45968 6.46634 9.53142 6.48988 9.59044 6.53383C9.65221 6.57865 9.69809 6.63477 9.72809 6.70218L10.9997 9.87336L12.2717 6.70218C12.3017 6.63513 12.3476 6.57865 12.4094 6.53383C12.4711 6.48901 12.5389 6.46677 12.6134 6.46677H12.7987C12.8469 6.46605 12.8947 6.47541 12.9391 6.49425C12.9834 6.51309 13.0234 6.541 13.0563 6.57618C13.1269 6.64889 13.1626 6.73571 13.1626 6.83665V10.1815C13.1634 10.2148 13.1574 10.2479 13.1448 10.2788C13.1323 10.3097 13.1136 10.3378 13.0899 10.3611C13.0665 10.3848 13.0385 10.4035 13.0077 10.416C12.9769 10.4285 12.9438 10.4345 12.9106 10.4338C12.8769 10.4344 12.8435 10.4282 12.8122 10.4157C12.781 10.4032 12.7525 10.3847 12.7284 10.3611C12.704 10.3381 12.6846 10.3103 12.6716 10.2793C12.6586 10.2484 12.6522 10.215 12.6529 10.1815V6.99901L11.3587 10.1984C11.3287 10.2694 11.281 10.3265 11.2154 10.3696C11.1516 10.4119 11.0766 10.4343 11.0001 10.4338C10.9214 10.4338 10.8494 10.4127 10.7841 10.3696C10.7188 10.3265 10.6711 10.2694 10.6415 10.1984L9.34691 6.99901V10.1815C9.34691 10.2528 9.3215 10.3124 9.27138 10.3611C9.22091 10.4095 9.15985 10.4338 9.08891 10.4338C9.01797 10.4338 8.95833 10.4091 8.90962 10.3611Z" fill="#F14F4A"/>
<path d="M12.9106 10.5402C12.8117 10.5402 12.7263 10.5059 12.6554 10.4378C12.6207 10.4049 12.5931 10.3652 12.5745 10.3212C12.5558 10.2771 12.5465 10.2297 12.547 10.1819V7.54368L11.4568 10.2387C11.418 10.3305 11.3569 10.4036 11.274 10.4583C11.1925 10.5115 11.0974 10.5399 11.0001 10.5399C10.9028 10.5399 10.8076 10.5115 10.7262 10.4583C10.6444 10.4059 10.5807 10.3296 10.5437 10.2398L9.45243 7.54333V10.1819C9.45243 10.2811 9.41538 10.3697 9.34479 10.4378C9.27596 10.5033 9.18451 10.5397 9.0895 10.5394C8.99449 10.5392 8.90325 10.5023 8.83479 10.4364C8.8011 10.4033 8.77452 10.3637 8.75668 10.32C8.73883 10.2763 8.7301 10.2295 8.73102 10.1823V6.83709C8.73102 6.70792 8.77691 6.59533 8.86761 6.50251C8.95902 6.40862 9.07126 6.36133 9.20114 6.36133H9.38608C9.48349 6.36133 9.57314 6.39098 9.65291 6.44886C9.72949 6.50427 9.78702 6.57521 9.82479 6.65921L11.0001 9.58933L12.1733 6.66309C12.2121 6.57521 12.2703 6.50427 12.3469 6.44886C12.4267 6.39062 12.5163 6.36133 12.6134 6.36133H12.7987C12.9286 6.36133 13.0404 6.40862 13.1318 6.50251C13.2226 6.59533 13.2684 6.70792 13.2684 6.83709V10.1819C13.2694 10.2291 13.2606 10.276 13.2428 10.3197C13.2249 10.3634 13.1984 10.403 13.1647 10.436C13.1314 10.4695 13.0918 10.496 13.0482 10.5139C13.0045 10.5318 12.9577 10.5407 12.9106 10.5402ZM12.6529 6.89356C12.681 6.89356 12.7079 6.90472 12.7278 6.92458C12.7476 6.94443 12.7588 6.97136 12.7588 6.99945V10.1819C12.7588 10.2246 12.7722 10.2564 12.8018 10.2853C12.8626 10.3429 12.9571 10.3443 13.015 10.2864C13.0289 10.2728 13.0397 10.2565 13.0469 10.2386C13.0541 10.2206 13.0574 10.2013 13.0567 10.1819V6.83709C13.0567 6.76403 13.0316 6.70298 12.9801 6.65039C12.9286 6.5978 12.8714 6.57274 12.7987 6.57274H12.6134C12.5622 6.57261 12.5124 6.58922 12.4715 6.62003C12.4265 6.65188 12.3909 6.69529 12.3684 6.74568L11.0978 9.91333C11.0657 9.9938 10.9341 9.9938 10.9016 9.91333L9.62961 6.7418C9.60703 6.69297 9.57197 6.65097 9.52796 6.62003C9.48715 6.58916 9.43726 6.57265 9.38608 6.57309H9.20114C9.12843 6.57309 9.07055 6.5978 9.01938 6.65039C8.9682 6.70298 8.94279 6.76403 8.94279 6.83709V10.1819C8.94279 10.225 8.9562 10.2582 8.98443 10.2867C9.01321 10.3144 9.05166 10.3297 9.09156 10.3293C9.13146 10.329 9.16965 10.3131 9.19796 10.285C9.21218 10.2719 9.2234 10.256 9.23083 10.2382C9.23827 10.2204 9.24174 10.2012 9.24102 10.1819V6.99945C9.24109 6.97491 9.24967 6.95115 9.26531 6.93224C9.28095 6.91333 9.30267 6.90043 9.32676 6.89577C9.35085 6.8911 9.37582 6.89494 9.39739 6.90664C9.41896 6.91835 9.4358 6.93718 9.44502 6.95992L10.7396 10.1593C10.7623 10.2096 10.7991 10.2522 10.8454 10.282C10.8918 10.3118 10.9458 10.3276 11.0009 10.3275C11.056 10.3273 11.1099 10.3112 11.1561 10.2811C11.2023 10.2511 11.2388 10.2083 11.2613 10.1579L12.5544 6.95992C12.5623 6.94028 12.5759 6.92347 12.5935 6.91164C12.611 6.89981 12.6317 6.89352 12.6529 6.89356ZM14.1487 10.1936C14.1038 10.1745 14.0668 10.1438 14.0368 10.1007C14.0068 10.0577 13.992 10.0122 13.992 9.96345C13.992 9.89992 14.0131 9.84521 14.0562 9.79827C14.0772 9.77534 14.1029 9.75722 14.1315 9.74516C14.1601 9.7331 14.191 9.72738 14.2221 9.72839C14.2591 9.72839 14.2944 9.7358 14.328 9.75062C14.6755 9.90468 15.0518 9.983 15.432 9.98039C16.0856 9.98039 16.4124 9.7658 16.4124 9.33592C16.4124 9.22403 16.3704 9.1305 16.2864 9.05568C16.2021 8.98121 16.0987 8.92227 15.9755 8.87921C15.8523 8.83615 15.6766 8.78498 15.4489 8.72533C15.1461 8.64698 14.9015 8.57109 14.7148 8.49839C14.5281 8.42568 14.3671 8.31627 14.2327 8.17051C14.0982 8.02474 14.0311 7.83062 14.0311 7.58815C14.0311 7.37498 14.0869 7.18156 14.1995 7.00792C14.3114 6.83427 14.4766 6.69592 14.695 6.59321C14.9135 6.49051 15.1761 6.43898 15.4821 6.43898C15.8933 6.43898 16.2649 6.50074 16.5974 6.62392C16.7018 6.66133 16.7544 6.73615 16.7544 6.84839C16.7544 6.90803 16.7336 6.96203 16.6927 7.01074C16.6517 7.05945 16.5974 7.08345 16.5303 7.08345C16.4992 7.08153 16.4687 7.074 16.4403 7.06121C16.1504 6.96046 15.8455 6.90916 15.5386 6.90945C15.2435 6.90945 15.0031 6.96592 14.8186 7.0778C14.6336 7.19003 14.5408 7.34674 14.5408 7.54862C14.5408 7.68274 14.5849 7.79215 14.6724 7.87651C14.7607 7.96051 14.8708 8.0258 15.0031 8.07239C15.1358 8.11933 15.3162 8.16874 15.5438 8.22098C15.8389 8.29192 16.0768 8.36321 16.2586 8.4338C16.4396 8.50474 16.5946 8.61521 16.7234 8.7645C16.8522 8.91415 16.9168 9.11568 16.9168 9.3698C16.9168 9.57874 16.8568 9.76651 16.7375 9.93274C16.6178 10.099 16.4498 10.2292 16.2331 10.322C16.0164 10.4156 15.7662 10.4622 15.4821 10.4622C15.0238 10.4654 14.5698 10.3742 14.1487 10.1936Z" fill="#F14F4A"/>
<path d="M15.4826 10.5676C15.0099 10.5705 14.5417 10.4761 14.1072 10.2902C14.0436 10.263 13.9891 10.2182 13.9501 10.161C13.9087 10.1034 13.8864 10.0343 13.8862 9.96336C13.8862 9.87265 13.9173 9.79289 13.9787 9.72618C14.0751 9.62171 14.2353 9.59418 14.3705 9.65313C14.7048 9.80095 15.0666 9.87625 15.4321 9.87407C16.3067 9.87407 16.3067 9.46889 16.3067 9.33548C16.3078 9.29727 16.3001 9.25932 16.2844 9.22448C16.2687 9.18964 16.2453 9.15881 16.216 9.1343C16.1353 9.06504 16.0417 9.01228 15.9407 8.97901C15.7696 8.92221 15.5966 8.87158 15.4219 8.82724C15.1169 8.74818 14.866 8.67054 14.6761 8.59642C14.4777 8.51969 14.2994 8.39846 14.1552 8.24207C14.0027 8.07689 13.9258 7.85665 13.9258 7.58736C13.9258 7.35442 13.9879 7.13983 14.1107 6.94995C14.2328 6.76042 14.4142 6.6076 14.65 6.49677C14.8819 6.38807 15.1618 6.33301 15.4822 6.33301C15.904 6.33301 16.2915 6.39724 16.6346 6.5243C16.7796 6.57654 16.8605 6.69124 16.8605 6.84795C16.8606 6.93272 16.8298 7.01463 16.774 7.07842C16.7443 7.11393 16.707 7.14229 16.6648 7.16142C16.6227 7.18054 16.5767 7.18993 16.5305 7.18889C16.4859 7.18717 16.4421 7.17699 16.4013 7.15889C16.1238 7.06334 15.8322 7.01479 15.5387 7.01524C15.2641 7.01524 15.0403 7.06677 14.8734 7.16807C14.7209 7.26054 14.6468 7.38477 14.6468 7.54818C14.6468 7.65336 14.6793 7.73524 14.746 7.79948C14.8222 7.87254 14.9211 7.93077 15.0386 7.97242C15.1663 8.01724 15.3446 8.06595 15.568 8.11713C15.8666 8.18948 16.1115 8.26254 16.2972 8.33489C16.4934 8.41183 16.6635 8.53254 16.8036 8.69489C16.9491 8.8636 17.0225 9.09018 17.0225 9.36901C17.0225 9.60018 16.9558 9.81054 16.8234 9.99442C16.6932 10.1755 16.5086 10.3184 16.2753 10.419C16.0462 10.5178 15.7798 10.5676 15.4826 10.5676ZM14.2219 9.83348C14.2055 9.83259 14.1891 9.83539 14.174 9.84169C14.1588 9.84798 14.1453 9.8576 14.1343 9.86983C14.1127 9.89233 14.0997 9.92178 14.0978 9.95295C14.0959 9.98411 14.1051 10.0149 14.1238 10.0399C14.1398 10.0643 14.1626 10.0835 14.1894 10.095L14.1908 10.0957C14.59 10.2683 15.0245 10.3562 15.4826 10.3562C15.7508 10.3562 15.9891 10.3117 16.1913 10.2245C16.3889 10.1395 16.5442 10.0202 16.6519 9.87054C16.7592 9.7216 16.8111 9.55748 16.8111 9.36936C16.8111 9.14277 16.7546 8.96207 16.6431 8.83289C16.5288 8.69946 16.3835 8.59619 16.2199 8.53218C16.0438 8.46301 15.8076 8.39313 15.5193 8.3236C15.333 8.28278 15.149 8.23212 14.968 8.17183C14.831 8.12571 14.7053 8.05086 14.5995 7.9523C14.4901 7.84783 14.4354 7.7116 14.4354 7.54818C14.4354 7.30818 14.5455 7.11901 14.7636 6.98701C14.9645 6.86524 15.2249 6.80348 15.5387 6.80348C15.8588 6.80348 16.174 6.85642 16.4751 6.96054C16.4925 6.9688 16.511 6.9744 16.5301 6.97713C16.5668 6.97713 16.5912 6.96654 16.612 6.94183C16.6355 6.91617 16.6485 6.88271 16.6487 6.84795C16.6487 6.78089 16.624 6.7456 16.5619 6.72336C16.2418 6.60477 15.8786 6.54442 15.4822 6.54442C15.1932 6.54442 14.9436 6.59313 14.7403 6.68842C14.5409 6.7823 14.3892 6.90901 14.2886 7.06465C14.1866 7.22242 14.1368 7.39289 14.1368 7.58736C14.1368 7.80477 14.194 7.97207 14.3108 8.09842C14.4336 8.23148 14.5826 8.33277 14.7534 8.39948C14.9355 8.47007 15.1783 8.54524 15.4755 8.62218C15.7049 8.68218 15.8846 8.73513 16.0102 8.77889C16.1376 8.82129 16.2553 8.88833 16.3568 8.97618C16.4641 9.07148 16.5185 9.19254 16.5185 9.33548C16.5185 9.67783 16.33 10.0858 15.4321 10.0858C15.0372 10.0881 14.6462 10.0067 14.2851 9.84689C14.2651 9.83816 14.2436 9.83336 14.2219 9.83348Z" fill="#F14F4A"/>
</svg>
