<svg width="26" height="31" viewBox="0 0 26 31" fill="none" xmlns="http://www.w3.org/2000/svg">
<path d="M12.8994 30.6973C10.804 30.9706 8.75033 30.8075 6.73828 30.498C5.71849 30.3412 4.71042 30.1478 3.71289 29.9551C2.74456 29.768 1.78583 29.5818 0.838867 29.4326V13.1982C0.838867 6.51574 6.22965 1.09206 12.8994 1.03809V30.6973Z" fill="#6BA83B" stroke="black" stroke-width="0.2"/>
<path d="M12.6357 1.04297C6.87842 2.09686 2.51465 7.13651 2.51465 13.1982V29.7246C1.9525 29.6192 1.39366 29.52 0.838867 29.4326V13.1982C0.838867 6.60403 6.08816 1.23554 12.6357 1.04297Z" fill="#588730" stroke="black" stroke-width="0.2"/>
<path d="M13.0996 1.03906C16.0875 1.06367 18.9559 2.18582 21.1621 4.18359L21.5986 4.59961C23.8791 6.88013 25.16 9.97313 25.1602 13.1982V29.4336C21.4169 30.0652 17.3815 31.2217 13.0996 30.6973V1.03906Z" fill="#8FCE52" stroke="black" stroke-width="0.2"/>
<path d="M24.1703 24.3412C24.3313 24.4404 24.4615 24.5825 24.5461 24.7516C24.6308 24.9207 24.6666 25.11 24.6495 25.2983C24.6324 25.4867 24.5631 25.6665 24.4494 25.8176C24.3357 25.9687 24.1822 26.0851 24.006 26.1537L22.3122 26.8131C22.5926 26.2388 22.7308 25.6055 22.715 24.9667C22.6992 24.3278 22.53 23.7021 22.2216 23.1424L24.1703 24.3412ZM17.4153 20.1856L18.8303 21.0562C18.1791 21.0131 17.4735 20.9124 16.831 21.1624C16.3191 21.3618 15.8928 21.8424 15.4991 22.1887L15.9066 20.7699C15.9498 20.6193 16.0273 20.4808 16.133 20.3651C16.2387 20.2494 16.3698 20.1598 16.5159 20.1032C16.662 20.0466 16.8192 20.0246 16.9753 20.0389C17.1313 20.0532 17.2819 20.1034 17.4153 20.1856ZM16.5341 29.0612L15.056 29.6368C14.8795 29.7055 14.6873 29.7235 14.5012 29.6888C14.315 29.6542 14.1422 29.5682 14.0023 29.4405C13.8624 29.3129 13.7609 29.1487 13.7093 28.9665C13.6578 28.7843 13.6581 28.5913 13.7103 28.4093L14.2197 26.6374C14.2385 26.6924 14.2585 26.7474 14.2797 26.8024C14.4793 27.3141 14.7826 27.7789 15.1706 28.1676C15.5586 28.5564 16.0228 28.8606 16.5341 29.0612Z" fill="#F9B248"/>
<path d="M17.1071 8.52881C18.1983 8.52881 19.2271 9.84631 19.2271 10.9376C19.2271 12.0288 17.6196 12.8651 16.5289 12.8651C15.4383 12.8651 14.2158 12.2213 14.2158 11.1307C14.2158 10.0401 16.0158 8.52881 17.1071 8.52881Z" fill="#E8844D"/>
<path d="M18.4157 14.2532C18.0257 14.0573 17.5943 13.9578 17.1579 13.9631C16.7215 13.9683 16.2927 14.0782 15.9075 14.2835C15.5223 14.4887 15.192 14.7833 14.9442 15.1426C14.6965 15.502 14.5385 15.9155 14.4836 16.3484C14.4287 16.7814 14.4784 17.2213 14.6287 17.631C14.7789 18.0408 15.0252 18.4086 15.347 18.7035C15.6687 18.9984 16.0565 19.2118 16.4778 19.3259C16.8991 19.4399 17.3416 19.4512 17.7682 19.3589L19.4688 15.187C19.2059 14.7886 18.8427 14.4665 18.4157 14.2532Z" fill="#FCD5D0"/>
<path d="M10.655 5.67953C10.6717 5.68352 10.6874 5.69087 10.7011 5.70113C10.7148 5.7114 10.7263 5.72436 10.7349 5.73923C10.7434 5.75409 10.7488 5.77055 10.7508 5.78758C10.7527 5.80461 10.7512 5.82187 10.7463 5.83828L10.6525 6.15641C10.6467 6.17615 10.6368 6.19443 10.6234 6.21004C10.6101 6.22564 10.5935 6.23821 10.5749 6.24691C10.5562 6.2556 10.536 6.26022 10.5154 6.26046C10.4948 6.2607 10.4745 6.25655 10.4556 6.24828C10.1937 6.13391 9.66 5.91766 9.4375 5.95016L9.5575 5.37891C9.77062 5.45703 10.3856 5.61266 10.655 5.67953Z" fill="#E1615F"/>
<path d="M9.55764 5.37867L9.43764 5.94992C8.70389 6.0568 7.10514 6.59242 6.16202 7.81617C4.72014 9.68617 6.28264 11.7205 4.96264 11.2555C3.56639 10.7637 3.22639 8.71992 4.51702 6.74242C5.80764 4.76492 7.97952 4.20367 8.91514 4.81492C9.15202 4.96992 9.30264 5.28492 9.55764 5.37867Z" fill="#FADF4A"/>
<path d="M8.03035 9.63672C8.09015 9.82691 8.18796 10.003 8.31785 10.1542L8.31723 10.1548C8.22818 10.2356 8.15615 10.3333 8.10539 10.4422C8.05462 10.5511 8.02613 10.6691 8.0216 10.7892C8.02098 10.8005 8.02098 10.8123 8.02098 10.8236C8.02144 11.0308 8.09266 11.2317 8.22285 11.393H8.22348C8.35142 11.5504 8.52865 11.6603 8.72661 11.7047C8.92457 11.7492 9.13173 11.7257 9.31473 11.6381C9.49772 11.5504 9.64588 11.4037 9.73533 11.2216C9.82479 11.0395 9.85034 10.8326 9.80785 10.6342C10.0016 10.5864 10.1837 10.4996 10.3429 10.3792C10.3882 10.523 10.4112 10.6729 10.411 10.8236C10.4109 11.2178 10.2543 11.5957 9.97559 11.8745C9.69688 12.1532 9.31889 12.3098 8.92473 12.3098C8.23723 12.3098 7.63973 11.8486 7.48973 11.2098C7.48896 11.2078 7.48854 11.2057 7.48848 11.2036C7.4584 11.0791 7.44164 10.9517 7.43848 10.8236C7.43833 10.7409 7.44523 10.6583 7.4591 10.5767C7.46728 10.5268 7.47813 10.4774 7.4916 10.4286C7.57879 10.1124 7.76823 9.83392 8.03035 9.63672Z" fill="#E87187"/>
<path d="M7.43815 10.8235C7.44131 10.9516 7.45807 11.079 7.48815 11.2035H7.48752C7.20328 11.0443 6.97923 10.7961 6.84982 10.497C6.72042 10.198 6.69283 9.86478 6.7713 9.54856C6.84977 9.23233 7.02995 8.95064 7.28414 8.74681C7.53832 8.54298 7.85243 8.4283 8.17815 8.42041C8.06412 8.60766 7.99323 8.81796 7.97065 9.03604C7.7808 9.08922 7.61356 9.20302 7.4944 9.36009C7.37524 9.51716 7.31071 9.70888 7.31065 9.90604C7.32168 10.0935 7.38418 10.2743 7.49127 10.4285C7.4778 10.4773 7.46695 10.5267 7.45877 10.5767C7.4449 10.6582 7.438 10.7408 7.43815 10.8235ZM9.6519 9.52729C9.8049 9.6139 9.94155 9.72664 10.0556 9.86041L10.0563 9.86104C9.9386 9.96753 9.79498 10.0412 9.63983 10.0746C9.48468 10.108 9.32348 10.0999 9.17241 10.0513C9.02135 10.0026 8.88575 9.9151 8.77924 9.79744C8.67273 9.67979 8.59907 9.53618 8.56565 9.38104C8.6019 9.37166 8.6394 9.36416 8.6769 9.35791C8.75581 9.34471 8.83564 9.33781 8.91565 9.33729H8.9244C9.05481 9.33716 9.18467 9.35418 9.31065 9.38791V9.38854C9.42976 9.42029 9.54441 9.46691 9.6519 9.52729Z" fill="#E87187"/>
<path d="M8.81594 8.54688C9.0198 8.63736 9.20077 8.77244 9.3455 8.94216C9.49023 9.11187 9.59503 9.3119 9.65219 9.5275C9.5447 9.46713 9.43005 9.42051 9.31094 9.38875V9.38813C9.18496 9.35439 9.0551 9.33737 8.92469 9.3375H8.91594C8.82 9.219 8.69576 9.12658 8.55469 9.06875C8.58162 8.87068 8.67351 8.68713 8.81594 8.54688Z" fill="#E87187"/>
<path d="M8.55477 9.06869C8.54899 9.10948 8.54607 9.15062 8.54602 9.19182C8.54525 9.42848 8.63646 9.65619 8.80039 9.82688C8.96433 9.99757 9.18817 10.0979 9.42467 10.1067C9.66117 10.1154 9.89183 10.032 10.068 9.87393C10.2441 9.71586 10.3519 9.49555 10.3687 9.25948C10.3855 9.02341 10.3099 8.79006 10.1579 8.60867C10.0059 8.42728 9.78933 8.31205 9.55396 8.2873C9.3186 8.26254 9.08282 8.3302 8.89639 8.47599C8.70997 8.62178 8.58747 8.8343 8.55477 9.06869ZM9.44915 7.70557C9.84067 7.70478 10.2167 7.85852 10.4955 8.1334C10.7743 8.40827 10.9334 8.78207 10.9382 9.17357C10.9429 9.56506 10.793 9.94263 10.521 10.2242C10.249 10.5058 9.87682 10.6687 9.4854 10.6774C9.47352 10.6781 9.46165 10.6781 9.44915 10.6781C9.13287 10.6771 8.82507 10.5758 8.5701 10.3886C8.31513 10.2015 8.12615 9.93825 8.0304 9.63682C7.98557 9.49274 7.96281 9.34271 7.9629 9.19182C7.96276 9.13984 7.96548 9.08788 7.97102 9.03619C8.00941 8.67095 8.1817 8.33285 8.45465 8.08713C8.7276 7.84142 9.08188 7.70549 9.44915 7.70557Z" fill="#E87187"/>
<path d="M8.02273 10.7895C8.08596 10.8034 8.15051 10.8103 8.21523 10.8102C8.4519 10.8105 8.67917 10.7175 8.84773 10.5514V10.5508C9.03708 10.6354 9.24222 10.6789 9.44961 10.6783C9.46211 10.6783 9.47398 10.6783 9.48586 10.6777V10.6783C9.35417 10.8954 9.16904 11.0751 8.94812 11.2003C8.72721 11.3254 8.47789 11.3919 8.22398 11.3933H8.22336C8.09317 11.232 8.02195 11.0312 8.02148 10.8239C8.02148 10.8127 8.02148 10.8008 8.02211 10.7895H8.02273Z" fill="#E87187"/>
<path d="M8.31773 10.1543C8.46179 10.3249 8.64283 10.4604 8.84711 10.5505V10.5512C8.67854 10.7173 8.45128 10.8103 8.21461 10.8099C8.14988 10.8101 8.08533 10.8032 8.02211 10.7893H8.02148C8.02601 10.6692 8.0545 10.5512 8.10527 10.4423C8.15603 10.3333 8.22806 10.2356 8.31711 10.1549L8.31773 10.1543ZM9.80773 10.6343C9.85047 10.8328 9.82509 11.0398 9.73568 11.2221C9.64628 11.4044 9.49806 11.5512 9.31496 11.6389C9.13186 11.7266 8.92455 11.75 8.7265 11.7054C8.52844 11.6608 8.35119 11.5508 8.22336 11.393C8.47727 11.3917 8.72658 11.3252 8.9475 11.2C9.16841 11.0749 9.35355 10.8951 9.48523 10.678V10.6774C9.59399 10.6749 9.70215 10.6605 9.80773 10.6343Z" fill="#FFAEBF"/>
<path d="M10.5584 23.1995C10.8859 22.6533 10.7571 22.1527 10.3571 21.6808C10.47 21.5376 10.5257 21.3577 10.5134 21.1758C10.434 20.5714 9.97712 20.1564 9.3915 20.0814V20.0808C9.27212 20.1264 9.15087 20.1689 9.03462 20.217L5.49525 18.832C5.32236 18.9424 5.18008 19.0946 5.08155 19.2745C4.98302 19.4544 4.93141 19.6563 4.9315 19.8614L4.93275 19.9214C4.724 19.7533 4.449 19.5789 4.17087 19.6539C3.66087 19.7908 3.58962 20.2877 3.78525 20.7583C3.25962 20.8208 3.1515 21.157 3.16712 21.5745C2.94041 21.625 2.73276 21.739 2.56849 21.9032C2.40422 22.0674 2.29013 22.275 2.23957 22.5017C2.18901 22.7284 2.20408 22.9648 2.28301 23.1833C2.36194 23.4017 2.50146 23.5931 2.68525 23.7352C2.21025 23.9789 1.93337 24.3483 1.97962 24.8433C2.03337 25.4283 2.38212 25.8533 2.94775 26.0889C2.94775 26.4137 3.07211 26.7261 3.29527 26.9621C3.51844 27.198 3.82348 27.3396 4.14775 27.3577C4.33743 27.3708 4.52551 27.3153 4.67775 27.2014C4.72086 27.4203 4.82303 27.6232 4.9732 27.7881C5.12337 27.9531 5.31581 28.0738 5.52967 28.1372C5.74354 28.2006 5.97067 28.2043 6.18648 28.1479C6.4023 28.0914 6.59855 27.977 6.754 27.817C7.34837 28.117 7.75212 28.0214 7.99587 27.5933C8.53525 27.8327 8.91837 27.6233 9.15275 26.9883C9.45986 26.9884 9.75575 26.8728 9.98148 26.6645C10.2072 26.4563 10.3462 26.1707 10.3709 25.8645C10.7809 25.5895 11.0452 25.2527 11.1077 24.7252C11.1596 24.2895 10.9059 23.4152 10.5584 23.1995Z" fill="#FCE4B1"/>
<path d="M7.97152 9.03618C7.96598 9.08786 7.96327 9.13982 7.9634 9.1918C7.96332 9.34269 7.98608 9.49272 8.0309 9.6368C7.76878 9.83401 7.57934 10.1125 7.49215 10.4287C7.38506 10.2744 7.32256 10.0936 7.31152 9.90618C7.31159 9.70902 7.37612 9.5173 7.49528 9.36023C7.61443 9.20316 7.78168 9.08936 7.97152 9.03618ZM10.0565 9.86055C9.94243 9.72678 9.80578 9.61404 9.65277 9.52743C9.59562 9.31183 9.49081 9.1118 9.34608 8.94208C9.20135 8.77237 9.02039 8.63729 8.81652 8.5468C8.9023 8.46263 9.004 8.39642 9.11567 8.35202C9.22734 8.30763 9.34675 8.28595 9.4669 8.28825C9.58705 8.29055 9.70554 8.31679 9.81542 8.36543C9.92531 8.41408 10.0244 8.48414 10.1069 8.57153C10.1894 8.65892 10.2536 8.76189 10.2958 8.8744C10.3381 8.98691 10.3574 9.10671 10.3528 9.2268C10.3481 9.34688 10.3196 9.46484 10.2689 9.57376C10.2181 9.68269 10.1461 9.7804 10.0571 9.86118L10.0565 9.86055Z" fill="#FFAEBF"/>
<path d="M22.4466 23.6244C22.6454 24.1365 22.7361 24.6841 22.713 25.2329C22.6899 25.7817 22.5534 26.3197 22.3122 26.8132L19.9891 27.7169C21.2441 26.9526 21.9141 25.4476 21.3679 24.0438C20.7472 22.4482 18.8191 21.6332 17.2235 22.2538C15.6279 22.8744 14.7372 24.7869 15.3585 26.3826C15.9047 27.7863 17.4154 28.4426 18.8572 28.1576L16.5341 29.0613C16.0228 28.8607 15.5586 28.5565 15.1706 28.1678C14.7826 27.7791 14.4793 27.3142 14.2797 26.8026C14.2585 26.7476 14.2385 26.6926 14.2197 26.6376L15.4985 22.1888H15.4991C15.8929 21.8426 16.3191 21.3619 16.831 21.1626C17.4735 20.9126 18.1791 21.0132 18.8304 21.0563L22.2216 23.1426C22.3073 23.298 22.3825 23.4589 22.4466 23.6244Z" fill="#E29454"/>
<path d="M21.3677 24.0436C21.9139 25.4473 21.2439 26.9523 19.9889 27.7167L18.857 28.1573C17.4152 28.4423 15.9045 27.7861 15.3583 26.3823C14.737 24.7867 15.6277 22.8748 17.2233 22.2536C18.8189 21.6323 20.747 22.4479 21.3677 24.0436Z" fill="#F9B248"/>
<path d="M17.5599 4.25546C17.7031 4.90685 17.7031 5.58156 17.5599 6.23296C16.5784 6.51983 15.5352 6.51983 14.5537 6.23296C14.4274 5.57984 14.4274 4.90858 14.5537 4.25546C15.5318 3.94545 16.5818 3.94545 17.5599 4.25546Z" fill="#ED6337"/>
<path d="M21.1689 6.74557C21.3364 6.80619 21.4039 6.97244 21.3076 7.12307C21.0081 7.59558 20.6482 8.02694 20.237 8.40619C20.2096 8.43502 20.1755 8.45663 20.1377 8.46912C20.0999 8.48161 20.0597 8.48459 20.0205 8.47779C19.9813 8.47099 19.9444 8.45462 19.913 8.43014C19.8817 8.40566 19.8568 8.37382 19.8407 8.33744C19.5943 7.83611 19.4012 7.31032 19.2645 6.76869C19.2201 6.59557 19.3432 6.46119 19.522 6.45994C20.084 6.4512 20.6426 6.54809 21.1689 6.74557ZM20.9482 4.91994C21.0632 5.05744 21.0382 5.23494 20.8795 5.31682C20.3836 5.57588 19.856 5.76898 19.3101 5.89119C19.2719 5.90233 19.2316 5.9039 19.1926 5.89576C19.1537 5.88761 19.1174 5.87001 19.0869 5.84449C19.0564 5.81898 19.0326 5.78635 19.0177 5.74947C19.0028 5.7126 18.9972 5.67262 19.0014 5.63307C19.0398 5.07583 19.1362 4.52411 19.2889 3.98682C19.337 3.81432 19.5114 3.75994 19.6664 3.84869C20.157 4.12227 20.5919 4.48567 20.9482 4.91994Z" fill="#F4D9C4"/>
<path d="M22.715 10.9729C23.2282 11.5936 23.7369 11.9398 23.7369 12.7454C23.7369 13.5511 22.5513 14.1673 21.7463 14.1673C20.9413 14.1673 20.1244 13.6879 20.0394 12.8873C19.8325 10.9429 21.6832 9.72355 22.715 10.9729Z" fill="#F3CE7D"/>
<path d="M20.1744 24.5086C20.5381 25.4448 19.8637 26.2667 18.9275 26.6311C17.9912 26.9955 16.9169 26.8536 16.5525 25.918C16.1881 24.9823 16.9194 24.1586 17.8556 23.7942C18.7919 23.4298 19.81 23.5723 20.1744 24.5086Z" fill="#E29454"/>
<path d="M19.4691 15.1871C20.0678 15.0577 20.6926 15.1335 21.2431 15.4023C21.7935 15.671 22.2375 16.1172 22.5036 16.6688C22.7697 17.2205 22.8425 17.8457 22.7103 18.4438C22.5781 19.0419 22.2485 19.5781 21.7745 19.9662C21.3006 20.3542 20.7099 20.5716 20.0975 20.5832C19.4851 20.5949 18.8865 20.4002 18.3982 20.0305C17.9098 19.6607 17.5601 19.1375 17.4051 18.5449C17.2502 17.9522 17.2992 17.3247 17.5441 16.7633C17.7161 16.3661 17.9805 16.0158 18.3154 15.7416C18.6502 15.4674 19.0458 15.2773 19.4691 15.1871Z" fill="#FAE7E3"/>
<path d="M16.2215 11.2888C16.5527 11.317 16.6865 11.7214 16.1046 12.0151C16.0882 12.0235 16.0701 12.0281 16.0517 12.0287C16.0332 12.0292 16.0149 12.0257 15.998 12.0184C15.9811 12.011 15.9661 12 15.9539 11.9862C15.9417 11.9723 15.9328 11.9559 15.9277 11.9382C15.7716 11.4067 15.5611 10.8928 15.2996 10.4045C15.184 10.1789 15.479 9.9601 15.654 10.1439C15.763 10.2642 15.8398 10.4102 15.8771 10.5682C16.2527 10.0751 16.5777 10.4601 16.2215 11.2888Z" fill="#6C9E38"/>
<path d="M6.55275 27.2014C6.40052 27.3153 6.21243 27.3708 6.02275 27.3577C5.69848 27.3396 5.39344 27.198 5.17028 26.9621C4.94711 26.7261 4.82275 26.4137 4.82275 26.0889C4.25712 25.8533 3.90837 25.4283 3.85462 24.8433C3.80837 24.3483 4.08525 23.9789 4.56025 23.7352C4.37646 23.5931 4.23694 23.4017 4.15801 23.1833C4.07908 22.9648 4.06401 22.7284 4.11457 22.5017C4.16513 22.275 4.27922 22.0674 4.44349 21.9032C4.60776 21.739 4.81541 21.625 5.04212 21.5745C5.0265 21.157 5.13462 20.8208 5.66025 20.7583C5.46462 20.2877 5.53587 19.7908 6.04587 19.6539C6.324 19.5789 6.599 19.7533 6.80775 19.9214L6.8065 19.8614C6.80642 19.6971 6.83965 19.5345 6.90418 19.3833L5.49525 18.832C5.32236 18.9424 5.18008 19.0946 5.08155 19.2745C4.98302 19.4544 4.93141 19.6563 4.9315 19.8614L4.93275 19.9214C4.724 19.7533 4.449 19.5789 4.17087 19.6539C3.66087 19.7908 3.58962 20.2877 3.78525 20.7583C3.25962 20.8208 3.1515 21.157 3.16712 21.5745C2.94041 21.625 2.73276 21.739 2.56849 21.9032C2.40422 22.0674 2.29013 22.275 2.23957 22.5017C2.18901 22.7284 2.20408 22.9648 2.28301 23.1833C2.36194 23.4017 2.50146 23.5931 2.68525 23.7352C2.21025 23.9789 1.93337 24.3483 1.97962 24.8433C2.03337 25.4283 2.38212 25.8533 2.94775 26.0889C2.94775 26.4137 3.07211 26.7261 3.29527 26.9621C3.51844 27.198 3.82348 27.3396 4.14775 27.3577C4.33743 27.3708 4.52551 27.3153 4.67775 27.2014C4.72086 27.4203 4.82303 27.6232 4.9732 27.7881C5.12337 27.9531 5.31581 28.0738 5.52967 28.1372C5.74354 28.2006 5.97067 28.2043 6.18648 28.1479C6.4023 28.0914 6.59855 27.977 6.754 27.817C6.82925 27.8552 6.90684 27.8886 6.98631 27.917C6.76187 27.7371 6.60829 27.4836 6.55275 27.2014Z" fill="#CEB78D"/>
<path d="M10.5172 16.6395C10.3747 16.2964 10.2822 15.9095 10.0235 15.6507C9.76473 15.392 9.37848 15.2995 9.03535 15.1576C8.7041 15.0201 8.36848 14.8076 7.98723 14.8076C7.60598 14.8076 7.27098 15.0201 6.93973 15.1576C6.59598 15.2995 6.20973 15.392 5.95098 15.6507C5.70035 15.9014 5.60535 16.2726 5.47098 16.6076L5.11035 17.7514C5.1316 18.1064 5.32785 18.4226 5.45785 18.7351C5.47098 18.767 5.4841 18.7995 5.49598 18.832C5.61848 19.1495 5.7166 19.4895 5.95098 19.7239C6.20973 19.982 6.59598 20.0745 6.93973 20.217C7.27098 20.3545 7.6066 20.567 7.98723 20.567C8.36785 20.567 8.7041 20.3545 9.03535 20.217C9.1516 20.1689 9.27285 20.1264 9.39223 20.0807C9.62598 19.9926 9.85223 19.8945 10.0235 19.7239C10.1089 19.636 10.1806 19.5357 10.236 19.4264L10.7397 18.2376L10.741 18.2382C10.8185 18.0644 10.8614 17.8772 10.8672 17.687C10.8672 17.3064 10.6547 16.9707 10.5172 16.6395Z" fill="#E1615F"/>
<path d="M10.1163 19.426C9.80442 19.3804 9.60317 18.9973 9.66567 18.5698C9.72817 18.1423 10.0307 17.8329 10.3413 17.8779C10.5207 17.9048 10.6644 18.0423 10.7394 18.2373L10.7407 18.2379C10.6707 18.4073 10.5844 18.5716 10.5169 18.7348C10.4225 18.9629 10.3494 19.2098 10.2357 19.426C10.1961 19.4316 10.1559 19.4316 10.1163 19.426Z" fill="#ECA583"/>
<path d="M8.35941 15.8854C8.70004 16.1123 8.54816 16.6511 8.13879 16.6561H8.12879C7.79504 16.6561 7.52441 16.4648 7.52441 16.2292C7.52441 16.0392 7.77066 15.8779 8.04129 15.8229C8.09582 15.8118 8.152 15.8116 8.20661 15.8224C8.26121 15.8331 8.31315 15.8545 8.35941 15.8854Z" fill="#FFF655"/>
<path d="M7.56094 17.5332C7.87469 17.5332 8.12969 17.7457 8.12969 18.007C8.12969 18.2682 7.87469 18.4813 7.56094 18.4813C7.24719 18.4813 6.99219 18.2688 6.99219 18.007C6.99219 17.7451 7.24656 17.5332 7.56094 17.5332Z" fill="#6BA83B"/>
<path d="M5.60492 16.585C5.9193 16.585 6.17367 16.935 6.17367 17.3668C6.17367 17.7987 5.9193 18.1493 5.60492 18.1493C5.3918 18.1493 5.2068 17.9887 5.10992 17.7512C5.10805 17.73 5.10742 17.7081 5.10742 17.6868C5.10742 17.3062 5.31992 16.9706 5.45742 16.6393C5.4618 16.6287 5.46617 16.6181 5.46992 16.6075H5.47055C5.51382 16.5927 5.55921 16.5851 5.60492 16.585Z" fill="#ECA583"/>
<path d="M5.57203 21.3771C5.55131 21.3771 5.53073 21.3736 5.51115 21.3668L4.7714 21.1127C4.72504 21.096 4.68709 21.0618 4.66577 21.0173C4.64445 20.9729 4.64147 20.9219 4.65747 20.8753C4.67348 20.8287 4.70719 20.7903 4.7513 20.7683C4.79542 20.7464 4.8464 20.7427 4.89322 20.758L5.63297 21.012C5.67497 21.0264 5.7105 21.0553 5.73324 21.0934C5.75597 21.1315 5.76444 21.1765 5.75712 21.2203C5.74981 21.2641 5.72719 21.3039 5.6933 21.3325C5.6594 21.3612 5.61643 21.3769 5.57203 21.3769V21.3771ZM5.75353 23.6029C5.70507 23.6029 5.65849 23.5842 5.62359 23.5505L5.05972 23.0084C5.04141 22.9915 5.02665 22.9711 5.01633 22.9484C5.006 22.9257 5.0003 22.9012 4.99956 22.8762C4.99883 22.8513 5.00308 22.8265 5.01205 22.8032C5.02102 22.78 5.03455 22.7587 5.05183 22.7408C5.06912 22.7228 5.08981 22.7084 5.1127 22.6986C5.1356 22.6887 5.16023 22.6835 5.18517 22.6832C5.2101 22.683 5.23483 22.6877 5.25791 22.6972C5.281 22.7066 5.30196 22.7205 5.31959 22.7382L5.88347 23.2802C5.91043 23.3061 5.92903 23.3395 5.93687 23.3761C5.94472 23.4127 5.94144 23.4508 5.92747 23.4854C5.9135 23.5201 5.88947 23.5499 5.85848 23.5708C5.82748 23.5917 5.79093 23.6029 5.75353 23.6029ZM7.26609 23.1162C7.21766 23.1162 7.17109 23.0975 7.13615 23.0639L6.57228 22.5218C6.55453 22.5048 6.54031 22.4844 6.53044 22.4618C6.52057 22.4393 6.51524 22.415 6.51475 22.3903C6.51427 22.3657 6.51864 22.3413 6.52761 22.3183C6.53659 22.2954 6.54999 22.2744 6.56706 22.2567C6.58413 22.2389 6.60453 22.2247 6.62709 22.2149C6.64965 22.205 6.67394 22.1997 6.69856 22.1992C6.72318 22.1987 6.74766 22.2031 6.77059 22.212C6.79352 22.221 6.81446 22.2344 6.83222 22.2515L7.39603 22.7935C7.423 22.8194 7.4416 22.8528 7.44944 22.8894C7.45728 22.9259 7.454 22.964 7.44003 22.9987C7.42606 23.0334 7.40203 23.0631 7.37104 23.084C7.34004 23.105 7.30349 23.1162 7.26609 23.1162ZM9.76403 23.357C9.71556 23.3571 9.66897 23.3383 9.63409 23.3047L9.07022 22.7625C9.05191 22.7456 9.03715 22.7252 9.02683 22.7025C9.0165 22.6798 9.0108 22.6553 9.01007 22.6304C9.00933 22.6054 9.01358 22.5806 9.02255 22.5574C9.03152 22.5341 9.04505 22.5129 9.06233 22.4949C9.07962 22.4769 9.10031 22.4626 9.1232 22.4527C9.1461 22.4428 9.17073 22.4376 9.19567 22.4374C9.2206 22.4371 9.24533 22.4418 9.26841 22.4513C9.2915 22.4607 9.31246 22.4746 9.33009 22.4923L9.89397 23.0344C9.92091 23.0603 9.93949 23.0937 9.94732 23.1303C9.95515 23.1668 9.95187 23.2049 9.9379 23.2396C9.92393 23.2743 9.89992 23.304 9.86893 23.3249C9.83795 23.3458 9.80142 23.357 9.76403 23.357ZM10.3608 27.9717C10.3401 27.9717 10.3196 27.9683 10.3 27.9615L9.56015 27.7075C9.51358 27.691 9.47541 27.6568 9.45392 27.6123C9.43244 27.5679 9.42938 27.5167 9.44541 27.4699C9.46144 27.4232 9.49527 27.3847 9.53954 27.3628C9.58382 27.3408 9.63495 27.3373 9.68184 27.3528L10.4217 27.6068C10.4637 27.6211 10.4993 27.65 10.522 27.6881C10.5448 27.7262 10.5533 27.7712 10.546 27.815C10.5387 27.8589 10.5161 27.8987 10.4822 27.9274C10.4483 27.9561 10.4053 27.9718 10.3608 27.9717ZM11.4747 23.143C11.4302 23.143 11.387 23.1272 11.3531 23.0983C11.3191 23.0695 11.2966 23.0295 11.2894 22.9855C11.2823 22.9415 11.2911 22.8964 11.3141 22.8583C11.3372 22.8202 11.3731 22.7916 11.4154 22.7775L11.7815 22.6555C11.8287 22.6397 11.8802 22.6434 11.9247 22.6656C11.9692 22.6878 12.003 22.7268 12.0188 22.774C12.0345 22.8211 12.0309 22.8726 12.0087 22.9171C11.9864 22.9616 11.9475 22.9955 11.9003 23.0112L11.5342 23.1333C11.515 23.1397 11.4949 23.143 11.4747 23.143ZM8.60915 26.5377C8.56069 26.5377 8.51411 26.5189 8.47922 26.4853L7.9154 25.9432C7.89709 25.9262 7.88234 25.9058 7.87201 25.8831C7.86168 25.8604 7.85599 25.8359 7.85525 25.811C7.85452 25.7861 7.85876 25.7612 7.86774 25.738C7.87671 25.7147 7.89024 25.6935 7.90752 25.6755C7.9248 25.6575 7.9455 25.6432 7.96839 25.6333C7.99129 25.6234 8.01592 25.6182 8.04085 25.618C8.06579 25.6177 8.09052 25.6225 8.1136 25.6319C8.13668 25.6413 8.15765 25.6553 8.17528 25.6729L8.73909 26.215C8.76606 26.2409 8.78466 26.2743 8.7925 26.3108C8.80034 26.3474 8.79707 26.3855 8.7831 26.4202C8.76912 26.4549 8.7451 26.4846 8.7141 26.5055C8.6831 26.5265 8.64656 26.5377 8.60915 26.5377ZM8.49959 24.1513C8.45223 24.1515 8.40659 24.1336 8.3719 24.1013L8.01828 23.7722C7.98187 23.7383 7.96041 23.6914 7.95862 23.6417C7.95684 23.592 7.97487 23.5436 8.00875 23.5072C8.04263 23.4708 8.08959 23.4493 8.13929 23.4475C8.18899 23.4457 8.23737 23.4638 8.27378 23.4977L8.6274 23.8268C8.65506 23.8525 8.67435 23.8859 8.68273 23.9227C8.69112 23.9594 8.68822 23.9979 8.67442 24.033C8.66062 24.0681 8.63655 24.0982 8.60536 24.1194C8.57417 24.1406 8.53731 24.1519 8.49959 24.1518V24.1513ZM11.5215 27.34C11.4961 27.34 11.471 27.3349 11.4477 27.3248L10.9928 27.1299C10.9473 27.1102 10.9116 27.0732 10.8933 27.0271C10.875 26.9811 10.8757 26.9297 10.8952 26.8841C10.9147 26.8386 10.9515 26.8026 10.9974 26.7841C11.0434 26.7655 11.0948 26.7659 11.1405 26.7852L11.5953 26.9802C11.6351 26.9972 11.6677 27.0273 11.6877 27.0656C11.7077 27.1039 11.7139 27.1479 11.7052 27.1902C11.6965 27.2326 11.6735 27.2706 11.64 27.2979C11.6065 27.3252 11.5647 27.3401 11.5215 27.34ZM4.54715 23.5715C4.49869 23.5716 4.45211 23.5528 4.41722 23.5192L3.85334 22.977C3.83524 22.9601 3.82068 22.9396 3.81052 22.917C3.80037 22.8944 3.79481 22.8699 3.79417 22.8451C3.79353 22.8203 3.79782 22.7956 3.8068 22.7724C3.81578 22.7493 3.82926 22.7282 3.84647 22.7103C3.86368 22.6924 3.88426 22.6781 3.90704 22.6682C3.92981 22.6584 3.95432 22.6531 3.97914 22.6528C4.00396 22.6525 4.0286 22.6571 4.05163 22.6663C4.07465 22.6756 4.09561 22.6894 4.11328 22.7068L4.67709 23.2488C4.70406 23.2748 4.72266 23.3082 4.7305 23.3447C4.73834 23.3813 4.73507 23.4194 4.7211 23.4541C4.70712 23.4888 4.6831 23.5185 4.6521 23.5394C4.6211 23.5604 4.58456 23.5715 4.54715 23.5715ZM9.42378 24.9028C9.40306 24.9028 9.38248 24.8993 9.3629 24.8925L8.62315 24.6385C8.57679 24.6219 8.53884 24.5876 8.51752 24.5432C8.4962 24.4988 8.49322 24.4478 8.50922 24.4012C8.52523 24.3546 8.55894 24.3161 8.60305 24.2942C8.64717 24.2723 8.69815 24.2686 8.74497 24.2839L9.48472 24.5379C9.52672 24.5523 9.56225 24.5811 9.58499 24.6193C9.60772 24.6574 9.61619 24.7024 9.60887 24.7462C9.60156 24.79 9.57894 24.8297 9.54505 24.8584C9.51115 24.8871 9.46818 24.9028 9.42378 24.9028ZM4.37528 25.7877C4.35454 25.7877 4.33394 25.7842 4.31434 25.7774L3.57453 25.5234C3.55103 25.5156 3.52931 25.5032 3.51063 25.4869C3.49195 25.4706 3.47668 25.4508 3.4657 25.4286C3.45473 25.4064 3.44826 25.3822 3.44667 25.3575C3.44509 25.3328 3.44842 25.308 3.45647 25.2846C3.46452 25.2612 3.47713 25.2396 3.49358 25.221C3.51003 25.2025 3.52998 25.1874 3.55229 25.1767C3.5746 25.1659 3.59883 25.1597 3.62356 25.1583C3.6483 25.1569 3.67305 25.1605 3.6964 25.1688L4.43622 25.4228C4.47817 25.4373 4.51366 25.4661 4.53636 25.5042C4.55906 25.5424 4.5675 25.5873 4.56019 25.6311C4.55288 25.6748 4.53029 25.7146 4.49643 25.7432C4.46258 25.7719 4.41965 25.7877 4.37528 25.7877ZM6.11478 25.3215C6.09404 25.3215 6.07345 25.318 6.05384 25.3113L5.31409 25.0572C5.26751 25.0407 5.22932 25.0065 5.20784 24.962C5.18636 24.9175 5.18332 24.8663 5.19939 24.8195C5.21545 24.7728 5.24932 24.7343 5.29362 24.7124C5.33792 24.6905 5.38908 24.687 5.43597 24.7026L6.17572 24.9567C6.21772 24.9711 6.25325 24.9999 6.27599 25.038C6.29872 25.0762 6.30719 25.1211 6.29987 25.1649C6.29256 25.2087 6.26994 25.2485 6.23605 25.2772C6.20215 25.3059 6.15918 25.3216 6.11478 25.3215ZM6.92234 24.6142C6.90161 24.6142 6.88102 24.6107 6.8614 24.604L6.12165 24.3502C6.09836 24.3422 6.07687 24.3296 6.05841 24.3133C6.03996 24.297 6.02489 24.2772 6.01408 24.2551C6.00327 24.233 5.99692 24.2089 5.9954 24.1844C5.99388 24.1598 5.99721 24.1351 6.00522 24.1118C6.01322 24.0886 6.02573 24.0671 6.04204 24.0486C6.05835 24.0302 6.07813 24.0151 6.10026 24.0043C6.12239 23.9935 6.14643 23.9871 6.17101 23.9856C6.19559 23.9841 6.22024 23.9874 6.24353 23.9954L6.98328 24.2493C7.02533 24.2637 7.06091 24.2925 7.08368 24.3307C7.10646 24.3688 7.11494 24.4138 7.10762 24.4577C7.1003 24.5015 7.07766 24.5413 7.04373 24.57C7.00979 24.5987 6.96677 24.6143 6.92234 24.6142ZM7.56103 26.6752C7.55102 26.6752 7.54103 26.6744 7.53115 26.6728L6.75884 26.5492C6.73422 26.5456 6.71054 26.5372 6.68919 26.5245C6.66784 26.5117 6.64924 26.4948 6.63449 26.4748C6.61973 26.4547 6.60911 26.432 6.60324 26.4078C6.59737 26.3836 6.59637 26.3585 6.60029 26.334C6.60422 26.3094 6.613 26.2859 6.62611 26.2647C6.63923 26.2436 6.65642 26.2253 6.67668 26.2108C6.69695 26.1964 6.71988 26.1861 6.74415 26.1807C6.76842 26.1752 6.79353 26.1746 6.81803 26.1789L7.59034 26.3025C7.63685 26.31 7.67885 26.3347 7.70797 26.3717C7.73709 26.4088 7.75121 26.4554 7.74752 26.5024C7.74382 26.5493 7.72259 26.5932 7.68803 26.6252C7.65348 26.6572 7.60814 26.6751 7.56103 26.6752ZM5.21797 26.8243C5.19724 26.8243 5.17666 26.8208 5.15709 26.814L4.41728 26.56C4.37091 26.5433 4.33296 26.5091 4.31164 26.4646C4.29032 26.4202 4.28734 26.3692 4.30335 26.3226C4.31936 26.276 4.35306 26.2376 4.39718 26.2156C4.44129 26.1937 4.49227 26.19 4.53909 26.2053L5.2789 26.4594C5.32091 26.4738 5.35644 26.5026 5.37918 26.5408C5.40191 26.5789 5.41038 26.6239 5.40306 26.6677C5.39575 26.7115 5.37313 26.7512 5.33924 26.7799C5.30534 26.8086 5.26237 26.8243 5.21797 26.8243ZM9.25028 22.264C9.22955 22.2639 9.20896 22.2605 9.18934 22.2538L8.44959 21.9998C8.40255 21.9836 8.36385 21.9494 8.34202 21.9047C8.32018 21.8601 8.31699 21.8085 8.33315 21.7615C8.34932 21.7144 8.3835 21.6757 8.4282 21.6539C8.47289 21.6321 8.52442 21.6289 8.57147 21.645L9.31122 21.899C9.35327 21.9134 9.38885 21.9422 9.41162 21.9804C9.43439 22.0185 9.44288 22.0635 9.43556 22.1074C9.42824 22.1512 9.4056 22.191 9.37166 22.2197C9.33773 22.2484 9.29471 22.2641 9.25028 22.264ZM7.20847 21.2602C7.19011 21.2601 7.17185 21.2574 7.15428 21.2521L6.40547 21.0262C6.35829 21.0114 6.31883 20.9787 6.29567 20.935C6.27251 20.8914 6.26753 20.8403 6.2818 20.793C6.29608 20.7457 6.32846 20.7059 6.3719 20.6824C6.41534 20.6588 6.46633 20.6533 6.51378 20.6672L7.26253 20.8931C7.30563 20.9061 7.34264 20.9341 7.36678 20.9721C7.39093 21.01 7.40061 21.0555 7.39405 21.1C7.38749 21.1445 7.36514 21.1852 7.33106 21.2146C7.29699 21.244 7.25348 21.2602 7.20847 21.2602Z" fill="#AA936D"/>
<path d="M17.4271 10.4534C17.3927 10.4534 17.359 10.444 17.3296 10.4261C17.3002 10.4083 17.2763 10.3827 17.2605 10.3522L16.9605 9.77379C16.9383 9.72972 16.9343 9.67868 16.9495 9.63173C16.9647 9.58479 16.9978 9.54572 17.0416 9.523C17.0854 9.50029 17.1364 9.49575 17.1835 9.51039C17.2307 9.52502 17.2701 9.55763 17.2933 9.60116L17.5933 10.1795C17.6082 10.208 17.6154 10.2399 17.6143 10.2721C17.6132 10.3043 17.6039 10.3356 17.5872 10.3631C17.5705 10.3907 17.547 10.4134 17.519 10.4292C17.4909 10.445 17.4593 10.4533 17.4271 10.4534Z" fill="#AD2A34"/>
<path d="M18.2433 10.3719C18.4383 10.7475 18.3277 11.1919 17.9964 11.3638C17.6652 11.5357 17.2383 11.3707 17.0427 10.9944C16.8808 10.6825 17.0233 10.505 17.2658 10.3557C17.3158 10.325 17.3702 10.295 17.427 10.2657C17.4783 10.2388 17.5289 10.2144 17.5783 10.1925C17.8458 10.075 18.0783 10.0538 18.2433 10.3719Z" fill="#E1615F"/>
</svg>
