<svg width="32" height="32" viewBox="0 0 32 32" fill="none" xmlns="http://www.w3.org/2000/svg">
<path d="M16 0.9375V30.7863C11.7219 31.3688 7.62812 30.1219 3.73937 29.5181V13.1981C3.73937 6.42688 9.22875 0.9375 16 0.9375Z" fill="#6BA83B"/>
<path d="M16 1.08006V0.9375C9.22875 0.9375 3.73937 6.42688 3.73937 13.1981V29.5181C4.35918 29.6144 4.98425 29.727 5.61437 29.8458V13.1981C5.61437 7.06444 10.1187 1.98269 16 1.08006Z" fill="#588730"/>
<path d="M28.2606 13.1981V29.5181C24.4837 30.1481 20.3656 31.3437 16 30.7862V0.9375C19.2517 0.937682 22.3701 2.22948 24.6694 4.52876C26.9686 6.82803 28.2604 9.94646 28.2606 13.1981Z" fill="#8FCE52"/>
<path d="M27.1706 24.3412C27.3316 24.4404 27.4618 24.5825 27.5464 24.7516C27.631 24.9207 27.6668 25.1101 27.6498 25.2984C27.6327 25.4867 27.5634 25.6665 27.4497 25.8176C27.336 25.9688 27.1825 26.0851 27.0062 26.1537L25.3125 26.8131C25.5929 26.2389 25.7311 25.6056 25.7153 24.9667C25.6995 24.3279 25.5303 23.7022 25.2219 23.1425L27.1706 24.3412ZM20.4156 20.1856L21.8306 21.0562C21.1794 21.0131 20.4737 20.9125 19.8312 21.1625C19.3194 21.3619 18.8931 21.8425 18.4994 22.1887L18.9069 20.77C18.9501 20.6194 19.0276 20.4808 19.1333 20.3652C19.239 20.2495 19.3701 20.1599 19.5162 20.1033C19.6623 20.0467 19.8195 20.0247 19.9756 20.039C20.1316 20.0532 20.2822 20.1034 20.4156 20.1856ZM19.5344 29.0612L18.0562 29.6369C17.8798 29.7056 17.6876 29.7236 17.5015 29.6889C17.3153 29.6542 17.1425 29.5682 17.0026 29.4406C16.8627 29.313 16.7612 29.1488 16.7096 28.9666C16.658 28.7844 16.6584 28.5914 16.7106 28.4094L17.22 26.6375C17.2387 26.6925 17.2587 26.7475 17.28 26.8025C17.4796 27.3142 17.7829 27.779 18.1709 28.1677C18.5589 28.5564 19.0231 28.8607 19.5344 29.0612Z" fill="#F9B248"/>
<path d="M20.1075 8.52875C21.1987 8.52875 22.2275 9.84625 22.2275 10.9375C22.2275 12.0287 20.62 12.865 19.5294 12.865C18.4387 12.865 17.2162 12.2212 17.2162 11.1306C17.2162 10.04 19.0162 8.52875 20.1075 8.52875Z" fill="#E8844D"/>
<path d="M21.4156 14.2531C21.0256 14.0572 20.5943 13.9577 20.1579 13.963C19.7215 13.9682 19.2927 14.0781 18.9075 14.2833C18.5223 14.4886 18.192 14.7832 17.9442 15.1425C17.6964 15.5018 17.5385 15.9153 17.4836 16.3483C17.4286 16.7813 17.4784 17.2211 17.6286 17.6309C17.7788 18.0407 18.0252 18.4085 18.3469 18.7034C18.6687 18.9983 19.0565 19.2117 19.4778 19.3257C19.8991 19.4398 20.3416 19.4511 20.7681 19.3587L22.4687 15.1869C22.2059 14.7885 21.8426 14.4664 21.4156 14.2531Z" fill="#FCD5D0"/>
<path d="M13.655 5.67935C13.6717 5.68334 13.6874 5.69069 13.7011 5.70095C13.7148 5.71122 13.7263 5.72418 13.7349 5.73904C13.7434 5.75391 13.7488 5.77036 13.7508 5.7874C13.7527 5.80443 13.7512 5.82168 13.7462 5.8381L13.6525 6.15622C13.6467 6.17596 13.6368 6.19425 13.6234 6.20985C13.6101 6.22546 13.5935 6.23803 13.5749 6.24673C13.5562 6.25542 13.5359 6.26004 13.5154 6.26028C13.4948 6.26051 13.4744 6.25636 13.4556 6.2481C13.1937 6.13372 12.66 5.91747 12.4375 5.94997L12.5575 5.37872C12.7706 5.45685 13.3856 5.61247 13.655 5.67935Z" fill="#E1615F"/>
<path d="M12.5575 5.37873L12.4375 5.94998C11.7037 6.05686 10.105 6.59248 9.16187 7.81623C7.72 9.68623 9.2825 11.7206 7.9625 11.2556C6.56625 10.7637 6.22625 8.71998 7.51687 6.74248C8.8075 4.76498 10.9794 4.20373 11.915 4.81498C12.1519 4.96998 12.3025 5.28498 12.5575 5.37873Z" fill="#FADF4A"/>
<path d="M11.0306 9.6369C11.0904 9.82709 11.1882 10.0032 11.3181 10.1544L11.3175 10.155C11.2284 10.2357 11.1564 10.3334 11.1057 10.4424C11.0549 10.5513 11.0264 10.6693 11.0219 10.7894C11.0212 10.8007 11.0212 10.8125 11.0212 10.8238C11.0217 11.031 11.0929 11.2319 11.2231 11.3932H11.2237C11.3517 11.5506 11.5289 11.6604 11.7269 11.7049C11.9248 11.7494 12.132 11.7259 12.315 11.6383C12.498 11.5506 12.6461 11.4039 12.7356 11.2218C12.8251 11.0397 12.8506 10.8328 12.8081 10.6344C13.0019 10.5866 13.1839 10.4998 13.3431 10.3794C13.3885 10.5232 13.4114 10.673 13.4112 10.8238C13.4112 11.2179 13.2546 11.5959 12.9759 11.8746C12.6971 12.1534 12.3192 12.31 11.925 12.31C11.2375 12.31 10.64 11.8488 10.49 11.21C10.4892 11.208 10.4888 11.2059 10.4887 11.2038C10.4587 11.0792 10.4419 10.9519 10.4387 10.8238C10.4386 10.741 10.4455 10.6585 10.4594 10.5769C10.4675 10.527 10.4784 10.4775 10.4919 10.4288C10.5791 10.1126 10.7685 9.83411 11.0306 9.6369Z" fill="#E87187"/>
<path d="M10.4387 10.8238C10.4419 10.9519 10.4587 11.0792 10.4887 11.2038H10.4881C10.2039 11.0445 9.97983 10.7963 9.85042 10.4973C9.72102 10.1983 9.69343 9.86503 9.7719 9.5488C9.85037 9.23258 10.0306 8.95089 10.2847 8.74706C10.5389 8.54323 10.853 8.42855 11.1787 8.42065C11.0647 8.60791 10.9938 8.81821 10.9712 9.03628C10.7814 9.08946 10.6142 9.20326 10.495 9.36033C10.3758 9.5174 10.3113 9.70913 10.3112 9.90628C10.3223 10.0937 10.3848 10.2745 10.4919 10.4288C10.4784 10.4775 10.4675 10.527 10.4594 10.5769C10.4455 10.6585 10.4386 10.7411 10.4387 10.8238ZM12.6525 9.52753C12.8055 9.61414 12.9421 9.72689 13.0562 9.86065L13.0569 9.86128C12.9392 9.96777 12.7956 10.0414 12.6404 10.0748C12.4853 10.1082 12.3241 10.1002 12.173 10.0515C12.0219 10.0029 11.8863 9.91534 11.7798 9.79769C11.6733 9.68004 11.5997 9.53642 11.5662 9.38128C11.6025 9.3719 11.64 9.3644 11.6775 9.35815C11.7564 9.34495 11.8362 9.33806 11.9162 9.33753H11.925C12.0554 9.3374 12.1853 9.35442 12.3112 9.38815V9.38878C12.4304 9.42054 12.545 9.46715 12.6525 9.52753Z" fill="#E87187"/>
<path d="M11.8162 8.54688C12.0201 8.63736 12.2011 8.77244 12.3458 8.94216C12.4905 9.11187 12.5953 9.3119 12.6525 9.5275C12.545 9.46713 12.4304 9.42051 12.3112 9.38875V9.38813C12.1853 9.35439 12.0554 9.33737 11.925 9.3375H11.9162C11.8203 9.219 11.6961 9.12658 11.555 9.06875C11.5819 8.87068 11.6738 8.68713 11.8162 8.54688Z" fill="#E87187"/>
<path d="M11.555 9.06876C11.5492 9.10954 11.5463 9.15069 11.5462 9.19188C11.5455 9.42854 11.6367 9.65625 11.8006 9.82694C11.9646 9.99763 12.1884 10.0979 12.4249 10.1067C12.6614 10.1155 12.8921 10.0321 13.0682 9.87399C13.2443 9.71592 13.3522 9.49561 13.3689 9.25954C13.3857 9.02347 13.3101 8.79012 13.1581 8.60873C13.0061 8.42735 12.7896 8.31211 12.5542 8.28736C12.3188 8.26261 12.083 8.33026 11.8966 8.47605C11.7102 8.62184 11.5877 8.83436 11.555 9.06876ZM12.4494 7.70563C12.8409 7.70484 13.2169 7.85858 13.4957 8.13346C13.7745 8.40833 13.9336 8.78213 13.9384 9.17363C13.9432 9.56512 13.7933 9.94269 13.5212 10.2243C13.2492 10.5059 12.8771 10.6687 12.4856 10.6775C12.4737 10.6781 12.4619 10.6781 12.4494 10.6781C12.1331 10.6772 11.8253 10.5758 11.5703 10.3887C11.3154 10.2016 11.1264 9.93831 11.0306 9.63688C10.9858 9.4928 10.963 9.34277 10.9631 9.19188C10.963 9.1399 10.9657 9.08794 10.9712 9.03626C11.0096 8.67101 11.1819 8.33291 11.4549 8.0872C11.7278 7.84148 12.0821 7.70555 12.4494 7.70563Z" fill="#E87187"/>
<path d="M11.0225 10.7893C11.0857 10.8032 11.1503 10.8101 11.215 10.81C11.4517 10.8103 11.6789 10.7173 11.8475 10.5512V10.5506C12.0368 10.6352 12.242 10.6787 12.4494 10.6781C12.4619 10.6781 12.4737 10.6781 12.4856 10.6775V10.6781C12.3539 10.8952 12.1688 11.0749 11.9479 11.2001C11.727 11.3253 11.4777 11.3917 11.2237 11.3931H11.2231C11.0929 11.2318 11.0217 11.031 11.0212 10.8237C11.0212 10.8125 11.0212 10.8006 11.0219 10.7893H11.0225Z" fill="#E87187"/>
<path d="M11.3181 10.1544C11.4622 10.325 11.6432 10.4605 11.8475 10.5506V10.5512C11.6789 10.7174 11.4517 10.8103 11.215 10.81C11.1503 10.8102 11.0857 10.8032 11.0225 10.7894H11.0219C11.0264 10.6693 11.0549 10.5513 11.1057 10.4423C11.1564 10.3334 11.2284 10.2357 11.3175 10.155L11.3181 10.1544ZM12.8081 10.6344C12.8509 10.8328 12.8255 11.0399 12.7361 11.2222C12.6467 11.4044 12.4985 11.5513 12.3154 11.639C12.1322 11.7266 11.9249 11.7501 11.7269 11.7055C11.5288 11.6609 11.3516 11.5508 11.2237 11.3931C11.4777 11.3917 11.727 11.3253 11.9479 11.2001C12.1688 11.0749 12.3539 10.8952 12.4856 10.6781V10.6775C12.5944 10.675 12.7025 10.6605 12.8081 10.6344Z" fill="#FFAEBF"/>
<path d="M13.5587 23.1993C13.8862 22.6531 13.7575 22.1525 13.3575 21.6806C13.4704 21.5375 13.5261 21.3575 13.5137 21.1756C13.4344 20.5712 12.9775 20.1562 12.3919 20.0812V20.0806C12.2725 20.1262 12.1512 20.1687 12.035 20.2168L8.49562 18.8318C8.32273 18.9422 8.18046 19.0944 8.08192 19.2743C7.98339 19.4543 7.93179 19.6561 7.93187 19.8612L7.93312 19.9212C7.72437 19.7531 7.44937 19.5787 7.17124 19.6537C6.66124 19.7906 6.58999 20.2875 6.78562 20.7581C6.25999 20.8206 6.15187 21.1568 6.1675 21.5743C5.94078 21.6248 5.73313 21.7388 5.56886 21.903C5.4046 22.0672 5.2905 22.2748 5.23995 22.5015C5.18939 22.7282 5.20445 22.9646 5.28338 23.1831C5.36231 23.4015 5.50183 23.593 5.68562 23.735C5.21062 23.9787 4.93374 24.3481 4.97999 24.8431C5.03374 25.4281 5.38249 25.8531 5.94812 26.0887C5.94813 26.4135 6.07248 26.7259 6.29565 26.9619C6.51881 27.1978 6.82385 27.3394 7.14812 27.3575C7.3378 27.3706 7.52589 27.3151 7.67812 27.2012C7.72123 27.4201 7.82341 27.623 7.97357 27.7879C8.12374 27.9529 8.31618 28.0736 8.53004 28.137C8.74391 28.2004 8.97105 28.2041 9.18686 28.1477C9.40267 28.0912 9.59893 27.9768 9.75437 27.8168C10.3487 28.1168 10.7525 28.0212 10.9962 27.5931C11.5356 27.8325 11.9187 27.6231 12.1531 26.9881C12.4602 26.9882 12.7561 26.8726 12.9819 26.6643C13.2076 26.4561 13.3466 26.1705 13.3712 25.8643C13.7812 25.5893 14.0456 25.2525 14.1081 24.725C14.16 24.2893 13.9062 23.415 13.5587 23.1993Z" fill="#FCE4B1"/>
<path d="M10.9712 9.03624C10.9657 9.08792 10.963 9.13988 10.9631 9.19186C10.963 9.34275 10.9858 9.49278 11.0306 9.63686C10.7685 9.83407 10.5791 10.1125 10.4919 10.4287C10.3848 10.2745 10.3223 10.0937 10.3112 9.90624C10.3113 9.70908 10.3758 9.51736 10.495 9.36029C10.6142 9.20322 10.7814 9.08942 10.9712 9.03624ZM13.0562 9.86061C12.9422 9.72685 12.8055 9.6141 12.6525 9.52749C12.5953 9.31189 12.4905 9.11186 12.3458 8.94215C12.2011 8.77243 12.0201 8.63735 11.8162 8.54686C11.902 8.4627 12.0037 8.39648 12.1154 8.35208C12.2271 8.30769 12.3465 8.28601 12.4666 8.28831C12.5868 8.29062 12.7053 8.31686 12.8152 8.3655C12.925 8.41414 13.0241 8.4842 13.1066 8.57159C13.1891 8.65898 13.2533 8.76195 13.2956 8.87446C13.3378 8.98697 13.3571 9.10677 13.3525 9.22686C13.3479 9.34694 13.3193 9.4649 13.2686 9.57382C13.2178 9.68275 13.1458 9.78046 13.0569 9.86124L13.0562 9.86061Z" fill="#FFAEBF"/>
<path d="M25.4469 23.6244C25.6457 24.1364 25.7364 24.684 25.7133 25.2328C25.6901 25.7816 25.5537 26.3197 25.3125 26.8131L22.9894 27.7169C24.2444 26.9525 24.9144 25.4475 24.3681 24.0438C23.7475 22.4481 21.8194 21.6331 20.2237 22.2538C18.6281 22.8744 17.7375 24.7869 18.3587 26.3825C18.905 27.7863 20.4156 28.4425 21.8575 28.1575L19.5344 29.0613C19.0231 28.8607 18.5589 28.5564 18.1709 28.1677C17.7829 27.779 17.4796 27.3142 17.28 26.8025C17.2587 26.7475 17.2387 26.6925 17.22 26.6375L18.4987 22.1888H18.4994C18.8931 21.8425 19.3194 21.3619 19.8312 21.1625C20.4737 20.9125 21.1794 21.0131 21.8306 21.0563L25.2219 23.1425C25.3076 23.2979 25.3828 23.4589 25.4469 23.6244Z" fill="#E29454"/>
<path d="M24.3681 24.0437C24.9144 25.4475 24.2444 26.9525 22.9894 27.7169L21.8575 28.1575C20.4156 28.4425 18.905 27.7862 18.3587 26.3825C17.7375 24.7869 18.6281 22.875 20.2237 22.2537C21.8194 21.6325 23.7475 22.4481 24.3681 24.0437Z" fill="#F9B248"/>
<path d="M20.56 4.25564C20.7031 4.90703 20.7031 5.58174 20.56 6.23314C19.5784 6.52002 18.5353 6.52002 17.5537 6.23314C17.4275 5.58002 17.4275 4.90876 17.5537 4.25564C18.5319 3.94563 19.5819 3.94563 20.56 4.25564Z" fill="#ED6337"/>
<path d="M24.1694 6.74563C24.3369 6.80625 24.4044 6.9725 24.3081 7.12313C24.0087 7.59564 23.6487 8.027 23.2375 8.40625C23.2101 8.43508 23.176 8.4567 23.1382 8.46919C23.1004 8.48167 23.0602 8.48465 23.021 8.47785C22.9818 8.47105 22.9449 8.45468 22.9135 8.4302C22.8822 8.40572 22.8573 8.37388 22.8412 8.3375C22.5949 7.83617 22.4017 7.31038 22.265 6.76875C22.2206 6.59563 22.3437 6.46125 22.5225 6.46C23.0845 6.45126 23.6431 6.54815 24.1694 6.74563ZM23.9487 4.92C24.0637 5.0575 24.0387 5.235 23.88 5.31688C23.3842 5.57594 22.8566 5.76904 22.3106 5.89125C22.2724 5.90239 22.2321 5.90396 22.1932 5.89582C22.1542 5.88767 22.1179 5.87007 22.0874 5.84455C22.0569 5.81904 22.0331 5.78641 22.0182 5.74953C22.0033 5.71266 21.9977 5.67268 22.0019 5.63313C22.0404 5.07589 22.1367 4.52417 22.2894 3.98688C22.3375 3.81438 22.5119 3.76 22.6669 3.84875C23.1575 4.12233 23.5924 4.48573 23.9487 4.92Z" fill="#F4D9C4"/>
<path d="M25.715 10.9731C26.2281 11.5937 26.7369 11.94 26.7369 12.7456C26.7369 13.5512 25.5512 14.1675 24.7462 14.1675C23.9412 14.1675 23.1244 13.6881 23.0394 12.8875C22.8325 10.9431 24.6831 9.72374 25.715 10.9731Z" fill="#F3CE7D"/>
<path d="M23.1744 24.5088C23.5381 25.445 22.8637 26.2669 21.9275 26.6313C20.9912 26.9956 19.9169 26.8538 19.5525 25.9181C19.1881 24.9825 19.9194 24.1588 20.8556 23.7944C21.7919 23.43 22.81 23.5725 23.1744 24.5088Z" fill="#E29454"/>
<path d="M22.4687 15.1869C23.0675 15.0575 23.6923 15.1333 24.2427 15.4021C24.7931 15.6708 25.2371 16.117 25.5032 16.6687C25.7694 17.2204 25.8422 17.8455 25.7099 18.4436C25.5777 19.0417 25.2481 19.5779 24.7742 19.966C24.3003 20.354 23.7096 20.5714 23.0972 20.5831C22.4847 20.5947 21.8862 20.4 21.3978 20.0303C20.9095 19.6606 20.5597 19.1373 20.4048 18.5447C20.2499 17.9521 20.2988 17.3246 20.5437 16.7631C20.7157 16.366 20.9801 16.0157 21.315 15.7415C21.6499 15.4673 22.0455 15.2771 22.4687 15.1869Z" fill="#FAE7E3"/>
<path d="M19.2212 11.2887C19.5525 11.3169 19.6862 11.7212 19.1044 12.015C19.0879 12.0233 19.0699 12.028 19.0515 12.0285C19.033 12.0291 19.0147 12.0256 18.9978 12.0182C18.9809 12.0109 18.9658 11.9999 18.9537 11.986C18.9415 11.9722 18.9326 11.9558 18.9275 11.9381C18.7714 11.4066 18.5609 10.8927 18.2994 10.4044C18.1837 10.1787 18.4787 9.95998 18.6537 10.1437C18.7628 10.264 18.8396 10.4101 18.8769 10.5681C19.2525 10.075 19.5775 10.46 19.2212 11.2887Z" fill="#6C9E38"/>
<path d="M9.55312 27.2012C9.40089 27.3151 9.2128 27.3706 9.02312 27.3575C8.69885 27.3394 8.39382 27.1978 8.17065 26.9619C7.94748 26.7259 7.82313 26.4135 7.82312 26.0887C7.25749 25.8531 6.90875 25.4281 6.855 24.8431C6.80875 24.3481 7.08562 23.9787 7.56062 23.735C7.37683 23.593 7.23731 23.4015 7.15838 23.1831C7.07945 22.9646 7.06439 22.7282 7.11495 22.5015C7.1655 22.2748 7.2796 22.0672 7.44386 21.903C7.60813 21.7388 7.81578 21.6248 8.04249 21.5743C8.02687 21.1568 8.135 20.8206 8.66062 20.7581C8.465 20.2875 8.53625 19.7906 9.04625 19.6537C9.32437 19.5787 9.59937 19.7531 9.80812 19.9212L9.80687 19.8612C9.80679 19.6969 9.84002 19.5343 9.90456 19.3832L8.49562 18.8318C8.32273 18.9422 8.18046 19.0944 8.08192 19.2743C7.98339 19.4543 7.93179 19.6561 7.93187 19.8612L7.93312 19.9212C7.72437 19.7531 7.44937 19.5787 7.17124 19.6537C6.66124 19.7906 6.58999 20.2875 6.78562 20.7581C6.25999 20.8206 6.15187 21.1568 6.1675 21.5743C5.94078 21.6248 5.73313 21.7388 5.56886 21.903C5.4046 22.0672 5.2905 22.2748 5.23995 22.5015C5.18939 22.7282 5.20445 22.9646 5.28338 23.1831C5.36231 23.4015 5.50183 23.593 5.68562 23.735C5.21062 23.9787 4.93374 24.3481 4.97999 24.8431C5.03374 25.4281 5.38249 25.8531 5.94812 26.0887C5.94813 26.4135 6.07248 26.7259 6.29565 26.9619C6.51881 27.1978 6.82385 27.3394 7.14812 27.3575C7.3378 27.3706 7.52589 27.3151 7.67812 27.2012C7.72123 27.4201 7.82341 27.623 7.97357 27.7879C8.12374 27.9529 8.31618 28.0736 8.53004 28.137C8.74391 28.2004 8.97105 28.2041 9.18686 28.1477C9.40267 28.0912 9.59893 27.9768 9.75437 27.8168C9.82962 27.855 9.90721 27.8884 9.98668 27.9168C9.76224 27.7369 9.60866 27.4835 9.55312 27.2012Z" fill="#CEB78D"/>
<path d="M13.5169 16.6394C13.3744 16.2962 13.2819 15.9094 13.0231 15.6506C12.7644 15.3919 12.3781 15.2994 12.035 15.1575C11.7037 15.02 11.3681 14.8075 10.9869 14.8075C10.6056 14.8075 10.2706 15.02 9.93937 15.1575C9.59562 15.2994 9.20937 15.3919 8.95062 15.6506C8.7 15.9012 8.605 16.2725 8.47062 16.6075L8.11 17.7512C8.13125 18.1062 8.3275 18.4225 8.4575 18.735C8.47062 18.7669 8.48375 18.7994 8.49562 18.8319C8.61812 19.1494 8.71625 19.4894 8.95062 19.7237C9.20937 19.9819 9.59562 20.0744 9.93937 20.2169C10.2706 20.3544 10.6062 20.5669 10.9869 20.5669C11.3675 20.5669 11.7037 20.3544 12.035 20.2169C12.1512 20.1687 12.2725 20.1262 12.3919 20.0806C12.6256 19.9925 12.8519 19.8944 13.0231 19.7237C13.1086 19.6359 13.1802 19.5356 13.2356 19.4262L13.7394 18.2375L13.7406 18.2381C13.8181 18.0643 13.861 17.8771 13.8669 17.6869C13.8669 17.3062 13.6544 16.9706 13.5169 16.6394Z" fill="#E1615F"/>
<path d="M13.1162 19.4263C12.8044 19.3806 12.6031 18.9975 12.6656 18.57C12.7281 18.1425 13.0306 17.8331 13.3412 17.8781C13.5206 17.905 13.6644 18.0425 13.7394 18.2375L13.7406 18.2381C13.6706 18.4075 13.5844 18.5719 13.5169 18.735C13.4225 18.9631 13.3494 19.21 13.2356 19.4263C13.196 19.4319 13.1558 19.4319 13.1162 19.4263Z" fill="#ECA583"/>
<path d="M11.36 15.8856C11.7006 16.1125 11.5487 16.6513 11.1394 16.6563H11.1294C10.7956 16.6563 10.525 16.465 10.525 16.2294C10.525 16.0394 10.7712 15.8781 11.0419 15.8231C11.0964 15.812 11.1526 15.8118 11.2072 15.8225C11.2618 15.8333 11.3137 15.8547 11.36 15.8856Z" fill="#FFF655"/>
<path d="M10.5606 17.5331C10.8744 17.5331 11.1294 17.7456 11.1294 18.0069C11.1294 18.2681 10.8744 18.4813 10.5606 18.4813C10.2469 18.4813 9.99187 18.2688 9.99187 18.0069C9.99187 17.745 10.2462 17.5331 10.5606 17.5331Z" fill="#6BA83B"/>
<path d="M8.605 16.585C8.91937 16.585 9.17375 16.935 9.17375 17.3669C9.17375 17.7988 8.91937 18.1494 8.605 18.1494C8.39187 18.1494 8.20687 17.9888 8.11 17.7513C8.10812 17.73 8.1075 17.7081 8.1075 17.6869C8.1075 17.3063 8.32 16.9706 8.4575 16.6394C8.46187 16.6288 8.46625 16.6181 8.47 16.6075H8.47062C8.5139 16.5928 8.55928 16.5852 8.605 16.585Z" fill="#ECA583"/>
<path d="M8.57175 21.3769C8.55102 21.3769 8.53045 21.3735 8.51087 21.3667L7.77112 21.1125C7.72475 21.0958 7.68681 21.0616 7.66549 21.0172C7.64417 20.9727 7.64119 20.9217 7.65719 20.8751C7.6732 20.8285 7.7069 20.7901 7.75102 20.7681C7.79514 20.7462 7.84612 20.7425 7.89293 20.7579L8.63268 21.0119C8.67469 21.0262 8.71022 21.0551 8.73296 21.0932C8.75569 21.1314 8.76416 21.1763 8.75684 21.2201C8.74953 21.2639 8.72691 21.3037 8.69302 21.3324C8.65912 21.361 8.61615 21.3768 8.57175 21.3767V21.3769ZM8.75325 23.6027C8.70479 23.6028 8.6582 23.584 8.62331 23.5504L8.05943 23.0082C8.04112 22.9913 8.02637 22.9709 8.01604 22.9482C8.00572 22.9255 8.00002 22.901 7.99928 22.8761C7.99855 22.8511 8.00279 22.8263 8.01177 22.803C8.02074 22.7798 8.03427 22.7585 8.05155 22.7406C8.06883 22.7226 8.08953 22.7083 8.11242 22.6984C8.13532 22.6885 8.15995 22.6833 8.18489 22.683C8.20982 22.6828 8.23455 22.6875 8.25763 22.697C8.28071 22.7064 8.30168 22.7203 8.31931 22.738L8.88318 23.28C8.91015 23.306 8.92875 23.3393 8.93659 23.3759C8.94443 23.4125 8.94116 23.4506 8.92719 23.4853C8.91322 23.52 8.88919 23.5497 8.85819 23.5706C8.8272 23.5915 8.79065 23.6027 8.75325 23.6027ZM10.2658 23.116C10.2174 23.116 10.1708 23.0973 10.1359 23.0637L9.572 22.5217C9.55424 22.5046 9.54003 22.4842 9.53016 22.4616C9.52029 22.4391 9.51496 22.4148 9.51447 22.3902C9.51399 22.3655 9.51836 22.3411 9.52733 22.3181C9.53631 22.2952 9.54971 22.2743 9.56678 22.2565C9.58385 22.2388 9.60424 22.2245 9.62681 22.2147C9.64937 22.2048 9.67365 22.1995 9.69828 22.199C9.7229 22.1985 9.74737 22.2029 9.77031 22.2118C9.79324 22.2208 9.81418 22.2342 9.83193 22.2513L10.3957 22.7933C10.4227 22.8192 10.4413 22.8526 10.4492 22.8892C10.457 22.9257 10.4537 22.9638 10.4398 22.9985C10.4258 23.0332 10.4018 23.0629 10.3708 23.0839C10.3398 23.1048 10.3032 23.116 10.2658 23.116ZM12.7637 23.3569C12.7153 23.3569 12.6687 23.3381 12.6338 23.3045L12.0699 22.7624C12.0516 22.7454 12.0369 22.725 12.0265 22.7023C12.0162 22.6796 12.0105 22.6551 12.0098 22.6302C12.009 22.6053 12.0133 22.5804 12.0223 22.5572C12.0312 22.5339 12.0448 22.5127 12.062 22.4947C12.0793 22.4767 12.1 22.4624 12.1229 22.4525C12.1458 22.4426 12.1705 22.4374 12.1954 22.4372C12.2203 22.4369 12.245 22.4417 12.2681 22.4511C12.2912 22.4605 12.3122 22.4745 12.3298 22.4921L12.8937 23.0342C12.9206 23.0601 12.9392 23.0935 12.947 23.1301C12.9549 23.1667 12.9516 23.2047 12.9376 23.2394C12.9237 23.2741 12.8996 23.3038 12.8687 23.3247C12.8377 23.3457 12.8011 23.3568 12.7637 23.3569ZM13.3606 27.9715C13.3398 27.9715 13.3193 27.9681 13.2997 27.9614L12.5599 27.7074C12.5133 27.6909 12.4751 27.6566 12.4536 27.6122C12.4322 27.5677 12.4291 27.5165 12.4451 27.4698C12.4612 27.423 12.495 27.3845 12.5393 27.3626C12.5835 27.3407 12.6347 27.3371 12.6816 27.3527L13.4214 27.6066C13.4634 27.621 13.499 27.6498 13.5218 27.6879C13.5445 27.7261 13.553 27.771 13.5457 27.8149C13.5384 27.8587 13.5158 27.8985 13.4819 27.9272C13.448 27.9559 13.405 27.9716 13.3606 27.9715ZM14.4744 23.1428C14.4299 23.1428 14.3868 23.127 14.3528 23.0982C14.3189 23.0693 14.2963 23.0293 14.2892 22.9853C14.282 22.9413 14.2908 22.8963 14.3139 22.8582C14.3369 22.82 14.3728 22.7914 14.4151 22.7774L14.7812 22.6553C14.8284 22.6395 14.8799 22.6432 14.9244 22.6654C14.9689 22.6876 15.0028 22.7266 15.0185 22.7738C15.0342 22.821 15.0306 22.8725 15.0084 22.917C14.9862 22.9614 14.9472 22.9953 14.9 23.011L14.5339 23.1331C14.5147 23.1395 14.4946 23.1428 14.4744 23.1428ZM11.6089 26.5375C11.5604 26.5375 11.5138 26.5187 11.4789 26.4851L10.9151 25.943C10.8968 25.9261 10.8821 25.9056 10.8717 25.8829C10.8614 25.8603 10.8557 25.8357 10.855 25.8108C10.8542 25.7859 10.8585 25.7611 10.8675 25.7378C10.8764 25.7145 10.89 25.6933 10.9072 25.6753C10.9245 25.6573 10.9452 25.643 10.9681 25.6331C10.991 25.6232 11.0156 25.618 11.0406 25.6178C11.0655 25.6176 11.0902 25.6223 11.1133 25.6317C11.1364 25.6411 11.1574 25.6551 11.175 25.6727L11.7388 26.2148C11.7658 26.2407 11.7844 26.2741 11.7922 26.3107C11.8001 26.3472 11.7968 26.3853 11.7828 26.42C11.7688 26.4547 11.7448 26.4844 11.7138 26.5054C11.6828 26.5263 11.6463 26.5375 11.6089 26.5375ZM11.4993 24.1512C11.4519 24.1513 11.4063 24.1334 11.3716 24.1012L11.018 23.772C10.9816 23.7382 10.9601 23.6912 10.9583 23.6415C10.9566 23.5918 10.9746 23.5434 11.0085 23.507C11.0423 23.4706 11.0893 23.4491 11.139 23.4474C11.1887 23.4456 11.2371 23.4636 11.2735 23.4975L11.6271 23.8267C11.6548 23.8523 11.6741 23.8857 11.6825 23.9225C11.6908 23.9592 11.6879 23.9977 11.6741 24.0328C11.6603 24.0679 11.6363 24.098 11.6051 24.1192C11.5739 24.1404 11.537 24.1517 11.4993 24.1517V24.1512ZM14.5212 27.3399C14.4958 27.3398 14.4707 27.3347 14.4474 27.3247L13.9925 27.1297C13.9471 27.11 13.9113 27.073 13.893 27.027C13.8747 26.9809 13.8754 26.9295 13.8949 26.8839C13.9144 26.8384 13.9512 26.8024 13.9971 26.7839C14.0431 26.7653 14.0945 26.7658 14.1402 26.785L14.5951 26.98C14.6348 26.997 14.6674 27.0272 14.6874 27.0654C14.7074 27.1037 14.7136 27.1477 14.705 27.1901C14.6963 27.2324 14.6732 27.2704 14.6397 27.2977C14.6063 27.325 14.5644 27.3399 14.5212 27.3399ZM7.54687 23.5714C7.49841 23.5714 7.45183 23.5526 7.41693 23.519L6.85306 22.9769C6.83495 22.9599 6.8204 22.9395 6.81024 22.9168C6.80008 22.8942 6.79452 22.8697 6.79388 22.8449C6.79324 22.8201 6.79754 22.7954 6.80652 22.7723C6.81549 22.7491 6.82898 22.728 6.84619 22.7101C6.86339 22.6922 6.88398 22.6779 6.90676 22.6681C6.92953 22.6582 6.95404 22.6529 6.97886 22.6526C7.00368 22.6523 7.02832 22.6569 7.05134 22.6662C7.07437 22.6754 7.09533 22.6892 7.113 22.7066L7.67681 23.2487C7.70378 23.2746 7.72238 23.308 7.73022 23.3445C7.73806 23.3811 7.73478 23.4192 7.72081 23.4539C7.70684 23.4886 7.68281 23.5183 7.65182 23.5392C7.62082 23.5602 7.58427 23.5714 7.54687 23.5714ZM12.4235 24.9026C12.4028 24.9026 12.3822 24.8991 12.3626 24.8924L11.6229 24.6384C11.5765 24.6217 11.5386 24.5874 11.5172 24.543C11.4959 24.4986 11.4929 24.4476 11.5089 24.401C11.5249 24.3544 11.5587 24.316 11.6028 24.294C11.6469 24.2721 11.6979 24.2684 11.7447 24.2837L12.4844 24.5377C12.5264 24.5521 12.562 24.581 12.5847 24.6191C12.6074 24.6572 12.6159 24.7022 12.6086 24.746C12.6013 24.7898 12.5787 24.8296 12.5448 24.8582C12.5109 24.8869 12.4679 24.9026 12.4235 24.9026ZM7.375 25.7875C7.35426 25.7875 7.33366 25.784 7.31406 25.7772L6.57425 25.5232C6.55074 25.5154 6.52903 25.503 6.51035 25.4867C6.49167 25.4704 6.4764 25.4506 6.46542 25.4284C6.45444 25.4062 6.44798 25.3821 6.44639 25.3573C6.44481 25.3326 6.44813 25.3078 6.45619 25.2844C6.46424 25.261 6.47685 25.2394 6.4933 25.2208C6.50975 25.2023 6.5297 25.1872 6.55201 25.1765C6.57432 25.1657 6.59854 25.1595 6.62328 25.1581C6.64801 25.1568 6.67277 25.1603 6.69612 25.1686L7.43593 25.4227C7.47789 25.4371 7.51337 25.4659 7.53607 25.504C7.55877 25.5422 7.56722 25.5871 7.55991 25.6309C7.5526 25.6746 7.53001 25.7144 7.49615 25.7431C7.46229 25.7717 7.41937 25.7875 7.375 25.7875ZM9.1145 25.3214C9.09376 25.3213 9.07317 25.3179 9.05356 25.3111L8.31381 25.057C8.26723 25.0405 8.22904 25.0063 8.20756 24.9618C8.18608 24.9173 8.18304 24.8661 8.1991 24.8194C8.21517 24.7726 8.24903 24.7341 8.29334 24.7122C8.33764 24.6903 8.3888 24.6868 8.43568 24.7024L9.17544 24.9565C9.21744 24.9709 9.25297 24.9997 9.27571 25.0378C9.29844 25.076 9.30691 25.1209 9.29959 25.1647C9.29228 25.2085 9.26966 25.2483 9.23577 25.277C9.20187 25.3057 9.1589 25.3214 9.1145 25.3214ZM9.92206 24.614C9.90133 24.614 9.88074 24.6106 9.86112 24.6039L9.12137 24.35C9.09808 24.342 9.07659 24.3295 9.05813 24.3132C9.03967 24.2968 9.02461 24.2771 9.0138 24.2549C9.00298 24.2328 8.99664 24.2088 8.99512 24.1842C8.9936 24.1596 8.99693 24.135 9.00493 24.1117C9.01294 24.0884 9.02545 24.0669 9.04176 24.0484C9.05806 24.03 9.07785 24.0149 9.09998 24.0041C9.1221 23.9933 9.14615 23.9869 9.17073 23.9854C9.19531 23.9839 9.21995 23.9872 9.24325 23.9952L9.983 24.2492C10.025 24.2635 10.0606 24.2923 10.0834 24.3305C10.1062 24.3687 10.1147 24.4137 10.1073 24.4575C10.1 24.5013 10.0774 24.5411 10.0434 24.5698C10.0095 24.5985 9.96649 24.6141 9.92206 24.614ZM10.5607 26.675C10.5507 26.675 10.5408 26.6742 10.5309 26.6726L9.75856 26.549C9.73393 26.5454 9.71026 26.5371 9.68891 26.5243C9.66756 26.5115 9.64896 26.4946 9.6342 26.4746C9.61945 26.4546 9.60883 26.4318 9.60295 26.4076C9.59708 26.3834 9.59608 26.3583 9.60001 26.3338C9.60394 26.3092 9.61271 26.2857 9.62583 26.2645C9.63894 26.2434 9.65613 26.2251 9.6764 26.2106C9.69666 26.1962 9.7196 26.186 9.74387 26.1805C9.76813 26.175 9.79325 26.1744 9.81775 26.1787L10.5901 26.3024C10.6366 26.3098 10.6786 26.3345 10.7077 26.3716C10.7368 26.4086 10.7509 26.4552 10.7472 26.5022C10.7435 26.5491 10.7223 26.593 10.6878 26.625C10.6532 26.657 10.6079 26.6749 10.5607 26.675ZM8.21768 26.8241C8.19696 26.8241 8.17638 26.8206 8.15681 26.8138L7.417 26.5598C7.37063 26.5431 7.33268 26.5089 7.31136 26.4645C7.29004 26.42 7.28706 26.369 7.30307 26.3224C7.31907 26.2758 7.35278 26.2374 7.39689 26.2155C7.44101 26.1935 7.49199 26.1898 7.53881 26.2052L8.27862 26.4592C8.32062 26.4736 8.35616 26.5025 8.37889 26.5406C8.40163 26.5787 8.41009 26.6237 8.40278 26.6675C8.39547 26.7113 8.37285 26.7511 8.33895 26.7797C8.30506 26.8084 8.26209 26.8241 8.21768 26.8241ZM12.25 22.2638C12.2293 22.2638 12.2087 22.2603 12.1891 22.2536L11.4493 21.9996C11.4023 21.9834 11.3636 21.9493 11.3417 21.9046C11.3199 21.8599 11.3167 21.8083 11.3329 21.7613C11.349 21.7142 11.3832 21.6756 11.4279 21.6537C11.4726 21.6319 11.5241 21.6287 11.5712 21.6449L12.3109 21.8989C12.353 21.9132 12.3886 21.942 12.4113 21.9802C12.4341 22.0183 12.4426 22.0633 12.4353 22.1072C12.428 22.151 12.4053 22.1908 12.3714 22.2195C12.3374 22.2482 12.2944 22.2639 12.25 22.2638ZM10.2082 21.26C10.1898 21.26 10.1716 21.2572 10.154 21.2519L9.40518 21.026C9.358 21.0113 9.31854 20.9785 9.29539 20.9348C9.27223 20.8912 9.26724 20.8401 9.28152 20.7928C9.29579 20.7455 9.32817 20.7057 9.37162 20.6822C9.41506 20.6586 9.46605 20.6531 9.5135 20.667L10.2622 20.8929C10.3054 20.9059 10.3424 20.9339 10.3665 20.9719C10.3906 21.0099 10.4003 21.0553 10.3938 21.0998C10.3872 21.1443 10.3649 21.185 10.3308 21.2144C10.2967 21.2438 10.2532 21.26 10.2082 21.26Z" fill="#AA936D"/>
<path d="M20.4269 10.4532C20.3925 10.4533 20.3588 10.4438 20.3294 10.426C20.3 10.4081 20.2761 10.3826 20.2602 10.352L19.9602 9.77367C19.9381 9.7296 19.9341 9.67856 19.9493 9.63161C19.9645 9.58466 19.9976 9.5456 20.0414 9.52288C20.0852 9.50017 20.1362 9.49563 20.1833 9.51026C20.2304 9.5249 20.2699 9.55751 20.2931 9.60104L20.5931 10.1794C20.6079 10.2079 20.6152 10.2398 20.6141 10.272C20.613 10.3042 20.6037 10.3355 20.587 10.363C20.5703 10.3905 20.5468 10.4133 20.5187 10.4291C20.4907 10.4449 20.4591 10.4532 20.4269 10.4532Z" fill="#AD2A34"/>
<path d="M21.2431 10.3718C21.4381 10.7475 21.3275 11.1918 20.9962 11.3637C20.665 11.5356 20.2381 11.3706 20.0425 10.9943C19.8806 10.6825 20.0231 10.505 20.2656 10.3556C20.3156 10.325 20.37 10.295 20.4269 10.2656C20.4781 10.2387 20.5287 10.2143 20.5781 10.1925C20.8456 10.075 21.0781 10.0537 21.2431 10.3718Z" fill="#E1615F"/>
</svg>
