<svg width="32" height="32" viewBox="0 0 32 32" fill="none" xmlns="http://www.w3.org/2000/svg">
<circle cx="16" cy="16" r="16" fill="#D9ECCD"/>
<path fill-rule="evenodd" clip-rule="evenodd" d="M13.7616 16.8531C13.4997 16.5865 13.151 16.4387 12.7811 16.4387C12.4095 16.4387 12.0626 16.5865 11.8007 16.8531C11.2592 17.4045 11.2592 18.3001 11.8007 18.8515C12.0626 19.1182 12.4113 19.2659 12.7811 19.2659C13.151 19.2659 13.4997 19.12 13.7616 18.8515C14.3031 18.3001 14.3031 17.4045 13.7616 16.8531ZM17.1223 15.2693C17.2267 15.2693 17.3117 15.1828 17.3117 15.0765C17.3117 14.9701 17.2267 14.8837 17.1223 14.8837C17.0179 14.8837 16.9329 14.9701 16.9329 15.0765C16.9329 15.1828 17.0179 15.2693 17.1223 15.2693ZM18.216 16.5919C18.3204 16.5919 18.4054 16.5054 18.4054 16.3991C18.4054 16.2927 18.3204 16.2063 18.216 16.2063C18.1116 16.2063 18.0266 16.2927 18.0266 16.3991C18.0266 16.5054 18.1116 16.5919 18.216 16.5919ZM17.0303 17.5289C17.1347 17.5289 17.2196 17.4424 17.2196 17.3361C17.2196 17.2297 17.1347 17.1433 17.0303 17.1433C16.9259 17.1433 16.8409 17.2297 16.8409 17.3361C16.8409 17.4424 16.9259 17.5289 17.0303 17.5289ZM17.2196 16.3991C17.3241 16.3991 17.409 16.3126 17.409 16.2063C17.409 16.0999 17.3241 16.0135 17.2196 16.0135C17.1152 16.0135 17.0303 16.0999 17.0303 16.2063C17.0303 16.3126 17.1152 16.3991 17.2196 16.3991ZM16.064 16.3864C16.1684 16.3864 16.2534 16.3 16.2534 16.1936C16.2534 16.0873 16.1684 16.0008 16.064 16.0008C15.9596 16.0008 15.8746 16.0873 15.8746 16.1936C15.8746 16.3 15.9596 16.3864 16.064 16.3864ZM15.8746 14.8837C15.9791 14.8837 16.064 14.7972 16.064 14.6908C16.064 14.5845 15.9791 14.498 15.8746 14.498C15.7702 14.498 15.6853 14.5845 15.6853 14.6908C15.6853 14.7972 15.7702 14.8837 15.8746 14.8837ZM14.988 15.2693C15.0924 15.2693 15.1774 15.1828 15.1774 15.0765C15.1774 14.9701 15.0924 14.8837 14.988 14.8837C14.8836 14.8837 14.7986 14.9701 14.7986 15.0765C14.7986 15.1828 14.8836 15.2693 14.988 15.2693ZM14.4465 13.8566C14.5509 13.8566 14.6358 13.7701 14.6358 13.6638C14.6358 13.5574 14.5509 13.4709 14.4465 13.4709C14.3421 13.4709 14.2571 13.5574 14.2571 13.6638C14.2571 13.7701 14.3421 13.8566 14.4465 13.8566ZM15.4216 13.9304C15.526 13.9304 15.611 13.8439 15.611 13.7376C15.611 13.6313 15.526 13.5448 15.4216 13.5448C15.3172 13.5448 15.2322 13.6313 15.2322 13.7376C15.2322 13.8439 15.3172 13.9304 15.4216 13.9304ZM21.8457 18.6461C22.3554 17.4784 22.5147 16.1972 22.3076 14.9287C22.0882 13.5845 21.4706 12.3628 20.522 11.3969C19.5734 10.4311 18.3753 9.80225 17.0568 9.57881C15.8092 9.36618 14.5491 9.53016 13.4006 10.0491L12.9882 9.62926C12.8838 9.52295 12.721 9.49232 12.5865 9.55538C12.0839 9.78783 11.6326 10.1086 11.2485 10.5086C10.8875 10.8852 10.5973 11.3177 10.3831 11.7988C10.323 11.9357 10.3513 12.0997 10.4575 12.2078L10.6592 12.4132C9.87169 13.6259 9.50359 15.0873 9.62393 16.5468C9.74958 18.0784 10.4062 19.52 11.4751 20.6083C11.8963 21.0372 12.3723 21.403 12.8873 21.6949C13.0165 21.7688 13.1492 21.8372 13.282 21.9003C13.3829 21.949 13.4837 21.994 13.5864 22.0355C14.3509 22.3526 15.1738 22.513 16.0003 22.513C16.2304 22.513 16.4587 22.5003 16.687 22.4751C17.6992 22.3634 18.6761 22.0048 19.5221 21.4354L19.7274 21.6444C19.7769 21.6967 19.8406 21.7309 19.9114 21.7453C19.9804 21.7598 20.053 21.7526 20.1185 21.7255C20.6052 21.5219 21.0423 21.23 21.4175 20.857C21.8157 20.4606 22.1254 19.9939 22.3377 19.4659C22.3643 19.3993 22.3714 19.3254 22.3572 19.2551C22.343 19.1848 22.3094 19.12 22.2581 19.0677L21.844 18.6461H21.8457ZM16.9949 9.95901C18.2355 10.1698 19.3628 10.7609 20.2547 11.669C21.1485 12.579 21.7289 13.7268 21.936 14.9918C22.1236 16.136 21.9926 17.291 21.559 18.3523L20.5503 17.3252C20.9166 16.0153 20.7255 14.6116 20.0176 13.4547C19.9911 13.4115 19.9486 13.3809 19.899 13.37C19.8495 13.3592 19.7982 13.3664 19.7557 13.3935C19.7132 13.4205 19.6831 13.4637 19.6707 13.5142C19.6601 13.5646 19.6672 13.6169 19.6937 13.6601C20.3078 14.662 20.499 15.8657 20.237 17.0099L15.0092 11.6871C16.471 11.3393 18.0054 11.7789 19.0761 12.8691C19.115 12.9088 19.154 12.9502 19.1911 12.9916C19.2088 13.0115 19.2301 13.0259 19.2548 13.0367C19.2778 13.0475 19.3044 13.0529 19.3309 13.0529C19.3681 13.0529 19.4035 13.0421 19.4354 13.0223C19.4654 13.0024 19.4902 12.9718 19.5044 12.9376C19.5185 12.9033 19.5238 12.8655 19.5185 12.8277C19.5115 12.7916 19.4955 12.7556 19.4708 12.7286C19.43 12.6835 19.3876 12.6385 19.3451 12.5952C18.1257 11.3537 16.3542 10.8888 14.7013 11.3699L13.6908 10.3428C14.7332 9.90135 15.8711 9.76801 16.9949 9.95901ZM16.648 22.0931C15.6587 22.2012 14.6482 22.0589 13.7297 21.6787C13.6342 21.639 13.5386 21.5958 13.443 21.5507C13.3174 21.4913 13.1935 21.4264 13.0714 21.3579C12.5865 21.0822 12.1387 20.7381 11.7423 20.3344C10.7371 19.311 10.1177 17.9541 10.0009 16.5126C9.89116 15.1666 10.2203 13.8187 10.9335 12.6907L11.8715 13.6457C11.422 14.462 11.2149 15.4116 11.2804 16.3486C10.4716 17.1865 10.4752 18.5361 11.2928 19.3686C11.691 19.7741 12.2201 19.9975 12.7829 19.9975C12.9493 19.9975 13.1139 19.9777 13.2731 19.9398C13.643 20.2047 14.0465 20.4155 14.4748 20.5633C14.5279 20.839 14.6588 21.0931 14.8553 21.2913C15.126 21.567 15.48 21.7039 15.8357 21.7039C16.1914 21.7039 16.5471 21.5652 16.8161 21.2913C16.986 21.1183 17.1082 20.9039 17.1719 20.6696C17.5701 20.5669 17.9541 20.4101 18.3133 20.2047L19.2513 21.1597C18.4708 21.6697 17.5771 21.9922 16.6498 22.0949L16.648 22.0931ZM11.645 16.527C11.96 16.2459 12.3599 16.0927 12.7811 16.0927C13.243 16.0927 13.6766 16.2765 14.004 16.6081C14.6783 17.2946 14.6783 18.4118 14.004 19.0965C13.8058 19.2983 13.5669 19.4443 13.3068 19.529C13.305 19.529 13.1953 19.5632 13.1935 19.5614C13.059 19.5957 12.921 19.6119 12.7811 19.6119C12.3192 19.6119 11.8857 19.4281 11.5583 19.0965C10.8875 18.4136 10.884 17.3036 11.5494 16.6171C11.5494 16.6135 11.6414 16.5324 11.6432 16.527H11.645ZM15.1207 19.5668C15.3172 19.3668 15.5756 19.2659 15.8339 19.2659C16.0923 19.2659 16.3507 19.365 16.5471 19.5668C16.779 19.8029 16.8745 20.1272 16.8321 20.4354C16.8215 20.4624 16.8144 20.4912 16.8161 20.5218C16.7737 20.711 16.6799 20.884 16.5471 21.021C16.1543 21.421 15.5136 21.421 15.1207 21.021C14.7279 20.621 14.7279 19.9687 15.1207 19.5686V19.5668ZM21.1538 20.5813C20.8158 20.9165 20.4246 21.1795 19.9875 21.3651L15.6198 16.918C15.6021 16.9 15.5809 16.8856 15.5579 16.8766C15.5349 16.8676 15.5101 16.8622 15.4853 16.8622C15.4605 16.8622 15.4357 16.8676 15.4127 16.8766C15.3897 16.8856 15.3685 16.9 15.3508 16.918C15.3331 16.936 15.3189 16.9577 15.3101 16.9811C15.3012 17.0045 15.2959 17.0297 15.2959 17.055C15.2959 17.0802 15.3012 17.1054 15.3101 17.1288C15.3189 17.1523 15.3331 17.1739 15.3508 17.1919L18.0337 19.9218C17.7736 20.0624 17.501 20.1741 17.2196 20.257C17.2108 19.9074 17.0763 19.5596 16.8144 19.2947C16.2728 18.7434 15.3933 18.7434 14.8517 19.2947C14.6181 19.5326 14.4854 19.8371 14.4535 20.1488C14.1969 20.0497 13.9492 19.9254 13.7138 19.7795C13.9191 19.6749 14.1084 19.538 14.2713 19.3722C15.0924 18.5361 15.0924 17.1739 14.2713 16.3378C13.8731 15.9324 13.3439 15.7089 12.7811 15.7089C12.3723 15.7089 11.9812 15.8279 11.645 16.0477C11.6397 15.3125 11.8131 14.5791 12.1476 13.9322L14.7084 16.5396C14.7438 16.5756 14.7916 16.5955 14.8411 16.5937C14.8907 16.5937 14.9385 16.5738 14.9738 16.5378C15.0092 16.5018 15.0287 16.4531 15.0287 16.4027C15.0287 16.3522 15.0092 16.3036 14.9756 16.2675L12.252 13.4944C12.2449 13.4854 12.2361 13.4764 12.2272 13.4691L10.7336 11.9483C10.9265 11.5159 11.1919 11.1212 11.5175 10.7825C11.8662 10.4185 12.2732 10.1284 12.7298 9.91577L21.4546 18.7992C21.4688 18.8226 21.49 18.8425 21.513 18.8587L21.982 19.3362C21.7891 19.8083 21.5113 20.2281 21.152 20.5849L21.1538 20.5813ZM12.3759 17.655C12.4803 17.655 12.5652 17.5685 12.5652 17.4622C12.5652 17.3559 12.4803 17.2694 12.3759 17.2694C12.2715 17.2694 12.1865 17.3559 12.1865 17.4622C12.1865 17.5685 12.2715 17.655 12.3759 17.655ZM12.6449 18.5325C12.7493 18.5325 12.8342 18.446 12.8342 18.3397C12.8342 18.2334 12.7493 18.1469 12.6449 18.1469C12.5405 18.1469 12.4555 18.2334 12.4555 18.3397C12.4555 18.446 12.5405 18.5325 12.6449 18.5325ZM13.2926 17.7865C13.397 17.7865 13.482 17.7 13.482 17.5937C13.482 17.4874 13.397 17.4009 13.2926 17.4009C13.1882 17.4009 13.1032 17.4874 13.1032 17.5937C13.1032 17.7 13.1882 17.7865 13.2926 17.7865ZM13.4961 18.5794C13.305 18.774 13.0519 18.8803 12.7829 18.8803C12.5139 18.8803 12.2591 18.774 12.0697 18.5794C11.6768 18.1794 11.6768 17.5271 12.0697 17.127C12.2608 16.9324 12.5139 16.8261 12.7829 16.8261C13.0519 16.8261 13.305 16.9324 13.4961 17.127C13.6872 17.3216 13.7917 17.5793 13.7917 17.8532C13.7917 18.1271 13.6872 18.3848 13.4961 18.5794Z" fill="#338000"/>
</svg>
