<svg width="32" height="32" viewBox="0 0 32 32" fill="none" xmlns="http://www.w3.org/2000/svg">
<g clip-path="url(#clip0_833_9345)">
<mask id="mask0_833_9345" style="mask-type:luminance" maskUnits="userSpaceOnUse" x="0" y="0" width="32" height="32">
<path d="M0 9.34601e-05H31.9999V32H0V9.34601e-05Z" fill="white"/>
</mask>
<g mask="url(#mask0_833_9345)">
<path d="M30.1842 12.271H28.6027C28.5852 12.271 28.5678 12.2698 28.5505 12.2683V30.7683C28.5505 31.1873 28.8921 31.5302 29.3096 31.5302H29.4773C29.8948 31.5302 30.2365 31.1873 30.2365 30.7683V12.2683C30.2191 12.2699 30.2017 12.2708 30.1842 12.271Z" fill="#C7D2E5"/>
<path d="M3.40499 12.271H1.82349C1.80587 12.271 1.78855 12.2698 1.77124 12.2683V30.7683C1.77124 31.1873 2.11286 31.5302 2.53036 31.5302H2.69811C3.11561 31.5302 3.45724 31.1873 3.45724 30.7683V12.2683C3.43987 12.2699 3.42243 12.2708 3.40499 12.271Z" fill="#C7D2E5"/>
<path d="M28.6027 2.74743H30.1842C30.2018 2.74743 30.2192 2.74862 30.2365 2.75012V1.25069C30.2365 0.82119 29.8948 0.469816 29.4773 0.469816H29.3096C28.8921 0.469816 28.5505 0.82119 28.5505 1.25069V2.75012C28.5677 2.74862 28.5851 2.74743 28.6027 2.74743Z" fill="#C7D2E5"/>
<path d="M1.82349 2.74743H3.40499C3.42261 2.74743 3.43999 2.74862 3.45724 2.75012V1.25069C3.45724 0.82119 3.11561 0.469816 2.69811 0.469816H2.53036C2.11286 0.469816 1.77124 0.82119 1.77124 1.25069V2.75012C1.78849 2.74862 1.80587 2.74743 1.82349 2.74743Z" fill="#C7D2E5"/>
<path d="M28.1751 11.7406V3.28491C28.1751 3.23329 28.1825 3.18335 28.1951 3.13547C25.0012 3.79666 20.6996 4.20216 15.966 4.20216C11.2324 4.20216 6.93074 3.79666 3.73682 3.13547C3.74992 3.18421 3.75667 3.23444 3.75688 3.28491V11.7406C3.75688 11.7838 3.75194 11.8259 3.743 11.8666C6.93631 12.527 11.2354 12.932 15.966 12.932C20.6965 12.932 24.9956 12.527 28.1889 11.8666C28.1798 11.8253 28.1751 11.783 28.1751 11.7406Z" fill="#FF6B6B"/>
<path d="M3.743 11.8665C4.3865 11.9995 5.07562 12.122 5.8035 12.2332V3.50331C5.07331 3.39187 4.38213 3.26887 3.73682 3.13537C3.74993 3.18408 3.75667 3.23429 3.75688 3.28474V11.7405C3.75688 11.7837 3.75194 11.8258 3.743 11.8665Z" fill="#EE5253"/>
<path d="M30.1844 2.68383H28.6029C28.2723 2.68383 28.002 2.95421 28.002 3.28477V11.7405C28.002 12.071 28.2723 12.3414 28.6029 12.3414H30.1844C30.5149 12.3414 30.7853 12.071 30.7853 11.7405V3.28477C30.7853 2.95421 30.5149 2.68383 30.1844 2.68383Z" fill="#FF6B6B"/>
<path d="M3.40484 2.68383H1.82335C1.49285 2.68383 1.22241 2.95421 1.22241 3.28477V11.7405C1.22241 12.071 1.49285 12.3414 1.82335 12.3414H3.40484C3.7354 12.3414 4.00584 12.071 4.00584 11.7405V3.28477C4.00584 2.95421 3.7354 2.68383 3.40484 2.68383Z" fill="#FF6B6B"/>
<path d="M29.6643 11.7406V3.28489C29.6643 2.96802 29.9131 2.70702 30.2248 2.68596C30.2114 2.68502 30.1981 2.68396 30.1844 2.68396H28.603C28.2724 2.68396 28.002 2.95433 28.002 3.28489V11.7406C28.002 12.0711 28.2724 12.3416 28.603 12.3416H30.1844C30.1981 12.3416 30.2114 12.3404 30.2248 12.3395C29.9131 12.3184 29.6643 12.0574 29.6643 11.7406Z" fill="#EE5253"/>
<path d="M2.88472 11.7406V3.28489C2.88472 2.96802 3.13347 2.70702 3.44528 2.68596C3.43184 2.68502 3.41853 2.68396 3.40484 2.68396H1.82335C1.49279 2.68396 1.22241 2.95433 1.22241 3.28489V11.7406C1.22241 12.0711 1.49279 12.3416 1.82335 12.3416H3.40484C3.41853 12.3416 3.43184 12.3404 3.44528 12.3395C3.13347 12.3184 2.88472 12.0574 2.88472 11.7406Z" fill="#EE5253"/>
<path d="M9.4054 9.35006C9.49403 8.54363 7.36579 8.45132 7.53722 6.8917C7.6471 5.89189 8.56203 5.60801 9.39515 5.69957C9.74847 5.73839 10.7142 5.91201 10.6571 6.43195C10.6373 6.61182 10.477 6.96526 10.1838 6.93301C9.94378 6.90663 9.84503 6.63945 9.29847 6.57939C8.82528 6.52732 8.61072 6.69938 8.58797 6.90601C8.51472 7.57257 10.6415 7.67813 10.4568 9.35775C10.3514 10.3175 9.5944 10.7604 8.62797 10.6542C7.75478 10.5583 7.06854 10.0511 7.11691 9.61125C7.14179 9.38463 7.37835 9.07332 7.63166 9.10119C7.94491 9.13556 8.09066 9.65081 8.71053 9.71888C9.01716 9.75263 9.37022 9.67 9.4054 9.35006Z" fill="black"/>
<path d="M14.1434 6.08227C14.3644 6.09433 14.4449 6.34052 14.4328 6.56146C14.4188 6.81583 14.2929 7.03058 14.0921 7.01958L13.1682 6.96895L12.969 10.6044C12.9572 10.8186 12.6902 10.9114 12.4292 10.8971C12.168 10.8829 11.9128 10.7614 11.9245 10.5471L12.1237 6.9117L11.1998 6.86114C10.9989 6.85008 10.8972 6.62289 10.9112 6.36852C10.9233 6.14758 11.0302 5.91171 11.2512 5.92383L14.1434 6.08227Z" fill="black"/>
<path d="M16.4318 9.1796L15.9626 7.37723L15.4529 9.1686L16.4318 9.1796ZM13.9822 10.5603C13.9824 10.5402 13.9894 10.5134 13.9964 10.4867L15.2894 6.41079C15.3658 6.17698 15.6688 6.06629 15.9772 6.06979C16.2857 6.07329 16.5861 6.19067 16.6572 6.4261L17.8651 10.5301C17.8715 10.557 17.8779 10.5839 17.8776 10.604C17.8749 10.8521 17.4906 11.0288 17.2024 11.0256C17.0347 11.0237 16.9012 10.9685 16.8626 10.8273L16.6441 9.98666L15.2293 9.97078L14.992 10.8063C14.9501 10.9467 14.8155 10.9987 14.6478 10.9968C14.3595 10.9937 13.9794 10.8083 13.9822 10.5603Z" fill="black"/>
<path d="M19.2815 6.99202L19.3285 8.23833L19.9919 8.21333C20.3672 8.19915 20.5892 8.03646 20.5715 7.5674C20.5537 7.09834 20.3201 6.95284 19.9449 6.96696L19.2815 6.99202ZM18.2136 6.43509C18.2073 6.26753 18.3291 6.11534 18.5234 6.10796L19.9104 6.05572C20.8285 6.02103 21.5717 6.33515 21.613 7.42746C21.6413 8.17796 21.3157 8.61971 20.8535 8.81833L21.7269 10.2684C21.7552 10.3075 21.7637 10.3542 21.765 10.3877C21.7749 10.6491 21.437 10.9436 21.1288 10.9553C20.9947 10.9603 20.8654 10.9115 20.7864 10.7736L19.801 9.02577L19.3588 9.04252L19.4198 10.6574C19.4279 10.8718 19.1706 10.9889 18.9093 10.9987C18.648 11.0086 18.3826 10.9113 18.3745 10.6968L18.2136 6.43509Z" fill="black"/>
<path d="M24.849 5.70067C25.0693 5.68067 25.1846 5.91261 25.2046 6.13292C25.2277 6.38673 25.1341 6.61736 24.9338 6.63555L24.0123 6.71923L24.3415 10.3452C24.3608 10.5588 24.1101 10.6893 23.8497 10.713C23.5893 10.7367 23.3191 10.6534 23.2997 10.4397L22.9706 6.8138L22.049 6.89742C21.8487 6.91561 21.7152 6.70555 21.6922 6.45186C21.6722 6.23142 21.7438 5.98255 21.9642 5.96255L24.849 5.70067Z" fill="black"/>
</g>
</g>
<defs>
<clipPath id="clip0_833_9345">
<rect width="32" height="32" fill="white"/>
</clipPath>
</defs>
</svg>
