<svg width="32" height="32" viewBox="0 0 32 32" fill="none" xmlns="http://www.w3.org/2000/svg">
<path d="M28.2943 9.87106L19.9355 9.09581L16.6151 1.38562C16.3826 0.845744 15.6172 0.845744 15.3848 1.38562L12.0644 9.09574L3.70557 9.87106C3.12026 9.92531 2.88376 10.6533 3.32532 11.0412L9.63207 16.5816L7.78638 24.7709C7.65713 25.3444 8.27644 25.7942 8.78182 25.4942L15.9999 21.2082L23.2181 25.4942C23.7235 25.7943 24.3427 25.3444 24.2135 24.7709L22.3678 16.5816L28.6746 11.0412C29.1161 10.6533 28.8796 9.92531 28.2943 9.87106Z" fill="#FFDC64"/>
<path d="M7.45485 1.12015C7.88097 1.71202 9.08372 4.2539 9.77135 5.73527C9.87947 5.96815 9.58729 6.17852 9.40072 6.00208C8.21404 4.88008 6.18497 2.93308 5.75885 2.34115C5.42166 1.87283 5.52797 1.21983 5.99635 0.882647C6.46466 0.545459 7.11766 0.651834 7.45485 1.12015ZM24.5451 1.12015C24.119 1.71202 22.9162 4.2539 22.2286 5.73527C22.1205 5.96815 22.4127 6.17852 22.5992 6.00208C23.7859 4.88008 25.8149 2.93302 26.2411 2.34115C26.5783 1.87283 26.472 1.21983 26.0036 0.882647C25.5353 0.545459 24.8823 0.651834 24.5451 1.12015ZM31.2788 18.4768C30.5854 18.2506 27.7982 17.8771 26.178 17.6721C25.9233 17.6398 25.8117 17.9821 26.0364 18.1063C27.466 18.896 29.9374 20.2375 30.6308 20.4636C31.1794 20.6425 31.7692 20.3428 31.9482 19.7941C32.1271 19.2455 31.8274 18.6557 31.2788 18.4768ZM0.721159 18.4768C1.41453 18.2506 4.20172 17.8771 5.82191 17.6721C6.0766 17.6398 6.18822 17.9821 5.96353 18.1063C4.53397 18.896 2.06253 20.2375 1.36916 20.4636C0.820534 20.6425 0.230722 20.3428 0.0517842 19.7941C-0.127153 19.2455 0.172534 18.6557 0.721159 18.4768ZM14.9871 30.2693C14.9871 29.54 15.4962 26.7744 15.8037 25.1705C15.852 24.9183 16.212 24.9183 16.2603 25.1705C16.5678 26.7744 17.0769 29.54 17.0769 30.2693C17.0769 30.8464 16.6091 31.3142 16.032 31.3142C15.4549 31.3143 14.9871 30.8464 14.9871 30.2693Z" fill="#FFF082"/>
<path d="M17.8225 4.18937L16.6151 1.38562C16.3826 0.845744 15.6171 0.845744 15.3847 1.38562L12.0643 9.09574L3.70557 9.87106C3.12026 9.92531 2.88376 10.6533 3.32532 11.0412L9.63207 16.5816L7.78638 24.7709C7.65713 25.3444 8.27644 25.7942 8.78182 25.4942L9.74251 24.9237C11.3174 14.7287 15.7451 7.24487 17.8225 4.18937Z" fill="#FFC850"/>
</svg>
