<svg width="32" height="32" viewBox="0 0 32 32" fill="none" xmlns="http://www.w3.org/2000/svg">
<circle cx="16" cy="16" r="16" fill="#D9ECCD"/>
<g clip-path="url(#clip0_1948_86758)">
<path d="M22.5913 14.076C22.2447 14.0247 21.8333 14 21.3333 14C19.6993 14 18.144 15.722 17.7093 16.2447C17.3187 16.0833 16.8647 15.97 16.3253 15.984C15.0273 16.0133 13.8707 16.658 13.0947 17.2293C13.4087 15.9887 13.3767 14.6807 13.348 13.5733C13.332 12.9387 13.3167 12.3747 13.3793 11.9993H14.3753C14.884 11.9993 15.3407 11.7167 15.568 11.2627L15.866 10.666H15.9927C16.422 10.666 16.6593 10.326 16.666 9.99933C16.6667 9.032 15.852 8.004 14.342 8H14.33C13.2207 8.004 12.346 8.76467 12.3267 8.78333C8.006 12.1073 8.00133 17.4213 8 19.1673C8 19.9733 8.33133 20.754 8.91067 21.3087C10.2093 22.55 12.8447 24 16 24C19.0753 24 21.34 23.2027 22.698 22.534C23.5013 22.1387 24 21.336 24 20.4393V15.7233C24 14.902 23.394 14.194 22.5913 14.0753V14.076ZM23.3333 20.44C23.3333 21.0807 22.9773 21.654 22.4033 21.936C21.1087 22.574 18.9467 23.3333 16 23.3333C13.0533 23.3333 10.5807 21.9833 9.372 20.8267C8.91667 20.3913 8.666 19.802 8.66667 19.168C8.668 17.5027 8.672 12.436 12.75 9.298C12.7573 9.292 13.4813 8.668 14.3367 8.66667C15.548 8.668 16 9.48533 15.9933 10H14.9933C14.7253 10 14.664 9.81733 14.66 9.66333C14.658 9.48067 14.5093 9.33333 14.3267 9.33333C14.1427 9.33333 13.9933 9.48267 13.9933 9.66667C13.9933 10.0687 14.2593 10.6667 14.9933 10.6667H15.1207L14.972 10.9647C14.8587 11.192 14.63 11.3333 14.3753 11.3333H13.1193C12.978 11.3333 12.8527 11.422 12.8047 11.5553C12.6407 12.02 12.658 12.7133 12.6807 13.5913C12.7173 15.0067 12.7627 16.7673 12.036 18.1813C12.0327 18.188 12.002 18.244 12.002 18.3287C12.002 18.3493 11.9893 18.6667 12.332 18.6667C12.462 18.6667 12.572 18.5653 12.5767 18.56C12.594 18.5413 14.324 16.6967 16.3393 16.6513C17.8927 16.6213 18.6873 17.802 18.7213 17.8527C18.824 18.0053 19.0313 18.0453 19.1833 17.944C19.336 17.842 19.378 17.636 19.2767 17.4833C19.2533 17.4493 18.94 16.9967 18.3593 16.5967C18.8407 16.0193 20.0973 14.6673 21.332 14.6673C21.792 14.6673 22.1827 14.6907 22.492 14.736C22.9713 14.806 23.332 15.2313 23.332 15.724V20.44H23.3333ZM20.572 12.3987C20.796 12.5787 21.064 12.668 21.3333 12.668C21.6027 12.668 21.8707 12.578 22.0947 12.3987C22.29 12.2427 24 10.8333 24 9.5C24 8.67267 23.3267 8 22.5 8C22.0293 8 21.6087 8.218 21.3333 8.558C21.058 8.21733 20.6373 8 20.1667 8C19.34 8 18.6667 8.67267 18.6667 9.5C18.6667 10.8333 20.3767 12.242 20.572 12.3987ZM20.1667 8.66667C20.626 8.66667 21 9.04067 21 9.5C21 9.684 21.1493 9.83333 21.3333 9.83333C21.5173 9.83333 21.6667 9.684 21.6667 9.5C21.6667 9.04067 22.0407 8.66667 22.5 8.66667C22.9593 8.66667 23.3333 9.04067 23.3333 9.5C23.3333 10.2713 22.3433 11.3447 21.678 11.878C21.4747 12.04 21.192 12.0413 20.9893 11.878C20.324 11.3447 19.334 10.2713 19.334 9.5C19.334 9.04067 19.7073 8.66667 20.1667 8.66667Z" fill="#338000"/>
</g>
<defs>
<clipPath id="clip0_1948_86758">
<rect width="16" height="16" fill="white" transform="translate(8 8)"/>
</clipPath>
</defs>
</svg>
