<svg width="30" height="30" viewBox="0 0 30 30" fill="none" xmlns="http://www.w3.org/2000/svg">
<circle cx="14.8909" cy="14.8909" r="14.8909" fill="#D9ECCD"/>
<g clip-path="url(#clip0_1998_25798)">
<path d="M19.9533 6.66667C17.9275 6.66667 15.8333 8.84833 15.8333 12.5C15.8333 13.7258 16.4225 14.9833 17.0467 16.3167C17.6792 17.6675 18.3333 19.0642 18.3333 20.4167V22.0833C18.3333 23.6917 19.6417 25 21.25 25C22.8583 25 24.1667 23.6917 24.1667 22.0833V20.4167C24.1667 18.9733 24.3958 17.9275 24.6183 16.9158C24.8142 16.0225 25 15.1783 25 14.1667C25 6.87667 20.47 6.66667 19.9533 6.66667ZM23.3333 20.4167V22.0833C23.3333 23.2317 22.3992 24.1667 21.25 24.1667C20.1008 24.1667 19.1667 23.2317 19.1667 22.0833V20.4167C19.1667 20.2775 19.1608 20.1383 19.15 20H23.34C23.3358 20.1358 23.3333 20.2742 23.3333 20.4167ZM23.8042 16.7375C23.6483 17.4492 23.4767 18.2283 23.39 19.1667H19.0242C18.7875 18.0708 18.2875 17.0042 17.8 15.9625C17.2167 14.7167 16.6658 13.54 16.6658 12.5C16.6658 9.37 18.3375 7.5 19.9525 7.5C20.3842 7.5 24.1658 7.6875 24.1658 14.1667C24.1658 15.0883 23.99 15.8892 23.8033 16.7375H23.8042ZM10.0467 5C9.53 5 5 5.21 5 12.5C5 13.5117 5.18583 14.3558 5.38167 15.2492C5.60417 16.26 5.83333 17.3058 5.83333 18.75V20.4167C5.83333 22.025 7.14167 23.3333 8.75 23.3333C10.3583 23.3333 11.6667 22.025 11.6667 20.4167V18.75C11.6667 17.3975 12.3208 16.0008 12.9533 14.65C13.5775 13.3175 14.1667 12.0592 14.1667 10.8333C14.1667 7.18167 12.0717 5 10.0467 5ZM10.8333 18.75V20.4167C10.8333 21.565 9.89917 22.5 8.75 22.5C7.60083 22.5 6.66667 21.565 6.66667 20.4167V18.75C6.66667 18.6075 6.66417 18.4692 6.66 18.3333H10.85C10.8392 18.4717 10.8333 18.6108 10.8333 18.75ZM12.1992 14.2958C11.7117 15.3375 11.2117 16.4042 10.975 17.5H6.60917C6.5225 16.5617 6.35167 15.7825 6.195 15.0708C6.00833 14.2225 5.8325 13.4217 5.8325 12.5C5.83333 6.02083 9.615 5.83333 10.0467 5.83333C11.6617 5.83333 13.3333 7.70333 13.3333 10.8333C13.3333 11.8733 12.7825 13.05 12.1992 14.2958Z" fill="#338000"/>
</g>
<defs>
<clipPath id="clip0_1998_25798">
<rect width="20" height="20" fill="white" transform="translate(5 5)"/>
</clipPath>
</defs>
</svg>
