<svg width="32" height="32" viewBox="0 0 32 32" fill="none" xmlns="http://www.w3.org/2000/svg">
<g clip-path="url(#clip0_727_14887)">
<path d="M16 31.875C24.7675 31.875 31.875 24.7675 31.875 16C31.875 7.23248 24.7675 0.125 16 0.125C7.23248 0.125 0.125 7.23248 0.125 16C0.125 24.7675 7.23248 31.875 16 31.875Z" fill="#FFD741"/>
<path d="M22.5106 14.378C22.1109 14.3786 21.7142 14.3089 21.3386 14.172C20.7351 13.9287 20.2015 13.5395 19.7855 13.0392C19.3695 12.5389 19.0842 11.9432 18.9551 11.3055C18.8979 11.0814 18.9318 10.8437 19.0494 10.6445C19.1669 10.4453 19.3586 10.3008 19.5824 10.2425C19.8063 10.1842 20.0441 10.2169 20.2439 10.3335C20.4437 10.45 20.5892 10.641 20.6486 10.8645C20.7116 11.2257 20.8619 11.566 21.0865 11.8559C21.3111 12.1457 21.6031 12.3763 21.9371 12.5275C22.2902 12.6264 22.662 12.6375 23.0204 12.5598C23.3787 12.4822 23.7126 12.3182 23.9931 12.082C24.0868 12.0154 24.1926 11.9679 24.3046 11.9423C24.4166 11.9166 24.5326 11.9132 24.6459 11.9324C24.7592 11.9516 24.8677 11.9928 24.965 12.0539C25.0624 12.1149 25.1468 12.1946 25.2133 12.2882C25.2799 12.3819 25.3274 12.4878 25.3531 12.5998C25.3787 12.7118 25.3821 12.8278 25.3629 12.9411C25.3438 13.0544 25.3025 13.1628 25.2414 13.2602C25.1804 13.3575 25.1008 13.4419 25.0071 13.5085C24.2858 14.0513 23.413 14.3553 22.5106 14.378ZM9.48959 14.378C8.58717 14.3553 7.71438 14.0513 6.99309 13.5085C6.80392 13.374 6.67592 13.1699 6.63724 12.9411C6.59856 12.7122 6.65237 12.4774 6.78684 12.2882C6.9213 12.0991 7.12541 11.9711 7.35425 11.9324C7.58309 11.8937 7.81792 11.9475 8.00709 12.082C8.28738 12.3185 8.62131 12.4827 8.97971 12.5603C9.3381 12.638 9.71006 12.6267 10.0631 12.5275C10.3968 12.3761 10.6885 12.1454 10.9128 11.8556C11.1371 11.5658 11.2872 11.2255 11.3501 10.8645C11.4095 10.641 11.555 10.45 11.7548 10.3335C11.9546 10.2169 12.1924 10.1842 12.4162 10.2425C12.6401 10.3008 12.8317 10.4453 12.9493 10.6445C13.0669 10.8437 13.1008 11.0814 13.0436 11.3055C12.9145 11.9432 12.6292 12.5389 12.2132 13.0392C11.7972 13.5395 11.2636 13.9287 10.6601 14.172C10.285 14.3086 9.88881 14.3784 9.48959 14.378Z" fill="#5A5A64"/>
<path d="M16 18.625C14.1772 18.627 12.4297 19.352 11.1408 20.6408C9.85195 21.9297 9.12699 23.6772 9.125 25.5C9.125 25.7321 9.21719 25.9546 9.38128 26.1187C9.54538 26.2828 9.76794 26.375 10 26.375H22C22.2321 26.375 22.4546 26.2828 22.6187 26.1187C22.7828 25.9546 22.875 25.7321 22.875 25.5C22.873 23.6772 22.148 21.9297 20.8592 20.6408C19.5703 19.352 17.8228 18.627 16 18.625Z" fill="#4E4258"/>
</g>
<defs>
<clipPath id="clip0_727_14887">
<rect width="32" height="32" fill="white"/>
</clipPath>
</defs>
</svg>
