<svg width="16" height="16" viewBox="0 0 16 16" fill="none" xmlns="http://www.w3.org/2000/svg">
<g clip-path="url(#clip0_1311_19282)">
<path d="M15.6667 7.66667H12.65C12.6087 7.09 12.4633 6.54267 12.2307 6.04267L14.8713 4.58267C15.032 4.49333 15.0907 4.29067 15.0013 4.12933C14.912 3.968 14.7087 3.91133 14.548 3.99933L11.9087 5.45933C11.5527 4.914 11.0873 4.448 10.542 4.09267L12.0013 1.45267C12.0907 1.29133 12.032 1.08867 11.8707 0.999333C11.7093 0.911333 11.5067 0.968 11.418 1.12933L9.958 3.77C9.45733 3.53733 8.91067 3.39133 8.33333 3.35067V0.333333C8.33333 0.149333 8.184 0 8 0C7.816 0 7.66667 0.149333 7.66667 0.333333V3.35C7.09 3.39133 6.54267 3.53667 6.042 3.76933L4.582 1.12867C4.49333 0.968 4.29133 0.909333 4.12933 0.998667C3.968 1.088 3.90933 1.29067 3.99867 1.452L5.458 4.092C4.91267 4.448 4.44667 4.91333 4.09133 5.45867L1.452 3.99867C1.28933 3.91067 1.088 3.96733 0.998667 4.12867C0.909333 4.29 0.968 4.49267 1.12867 4.582L3.76933 6.042C3.53667 6.54267 3.39067 7.08933 3.35 7.666H0.333333C0.149333 7.666 0 7.81533 0 7.99933C0 8.18333 0.149333 8.33267 0.333333 8.33267H3.35C3.39133 8.90933 3.53667 9.45667 3.76933 9.95667L1.12867 11.4167C0.968 11.506 0.909333 11.7087 0.998667 11.87C1.05933 11.98 1.17333 12.042 1.29067 12.042C1.34533 12.042 1.40067 12.028 1.452 12.0007L4.09133 10.5407C4.44733 11.086 4.91267 11.552 5.458 11.9073L3.99867 14.5473C3.90933 14.7087 3.968 14.9113 4.12933 15.0007C4.18067 15.0287 4.23533 15.042 4.29 15.042C4.40733 15.042 4.52133 14.98 4.582 14.87L6.042 12.2293C6.54267 12.462 7.08933 12.608 7.66667 12.6487V15.6653C7.66667 15.8493 7.816 15.9987 8 15.9987C8.184 15.9987 8.33333 15.8493 8.33333 15.6653V12.6487C8.91 12.6073 9.45733 12.462 9.958 12.2293L11.418 14.87C11.4787 14.98 11.5927 15.042 11.71 15.042C11.7647 15.042 11.82 15.028 11.8707 15.0007C12.032 14.9113 12.0907 14.7087 12.0013 14.5473L10.542 11.9073C11.0873 11.5513 11.5527 11.086 11.9087 10.5407L14.548 12.0007C14.5993 12.0287 14.6547 12.042 14.7093 12.042C14.8267 12.042 14.9407 11.98 15.0013 11.87C15.0907 11.7087 15.032 11.506 14.8713 11.4167L12.2307 9.95667C12.4633 9.456 12.6093 8.90933 12.65 8.33267H15.6667C15.8507 8.33267 16 8.18333 16 7.99933C16 7.81533 15.8507 7.666 15.6667 7.666V7.66667ZM8 12C5.794 12 4 10.206 4 8C4 5.794 5.794 4 8 4C10.206 4 12 5.794 12 8C12 10.206 10.206 12 8 12Z" fill="#42A004"/>
</g>
<defs>
<clipPath id="clip0_1311_19282">
<rect width="16" height="16" fill="white"/>
</clipPath>
</defs>
</svg>
