<svg width="24" height="24" viewBox="0 0 24 24" fill="none" xmlns="http://www.w3.org/2000/svg">
<circle cx="12" cy="12" r="12" fill="#D9ECCD"/>
<path d="M15.9974 6.508V4.33333C15.9974 4.14933 15.8481 4 15.6641 4C15.4801 4 15.3307 4.14933 15.3307 4.33333V6.184C15.0167 6.072 14.6834 6 14.3307 6H9.66406C9.3114 6 8.97806 6.072 8.66406 6.184V4.33333C8.66406 4.14933 8.51473 4 8.33073 4C8.14673 4 7.9974 4.14933 7.9974 4.33333V6.508C7.19406 7.04667 6.66406 7.96267 6.66406 9V15C6.66406 16.038 7.19406 16.9533 7.9974 17.492V19.6667C7.9974 19.8507 8.14673 20 8.33073 20C8.51473 20 8.66406 19.8507 8.66406 19.6667V17.816C8.97806 17.928 9.3114 18 9.66406 18H14.3307C14.6834 18 15.0167 17.928 15.3307 17.816V19.6667C15.3307 19.8507 15.4801 20 15.6641 20C15.8481 20 15.9974 19.8507 15.9974 19.6667V17.492C16.8007 16.9533 17.3307 16.0373 17.3307 15V9C17.3307 7.962 16.8007 7.04667 15.9974 6.508ZM16.6641 15C16.6641 16.2867 15.6174 17.3333 14.3307 17.3333H9.66406C8.3774 17.3333 7.33073 16.2867 7.33073 15V9C7.33073 7.71333 8.3774 6.66667 9.66406 6.66667H14.3307C15.6174 6.66667 16.6641 7.71333 16.6641 9V15ZM13.1641 10C12.6827 10 12.2681 10.2047 11.9974 10.5353C11.7267 10.2047 11.3121 10 10.8307 10C10.0041 10 9.33073 10.7147 9.33073 11.5933C9.33073 12.6067 10.4001 13.6887 11.2967 14.418C11.5034 14.5847 11.7501 14.6687 11.9974 14.6687C12.2447 14.6687 12.4921 14.5847 12.6987 14.4173C13.5954 13.688 14.6641 12.606 14.6641 11.5933C14.6641 10.7153 13.9907 10 13.1641 10ZM12.2787 13.9C12.1134 14.034 11.8821 14.0333 11.7167 13.9C10.6241 13.0107 9.9974 12.17 9.9974 11.5927C9.9974 11.0813 10.3714 10.666 10.8307 10.666C11.3141 10.666 11.6641 11.016 11.6641 11.4993C11.6641 11.6833 11.8134 11.8327 11.9974 11.8327C12.1814 11.8327 12.3307 11.6833 12.3307 11.4993C12.3307 11.016 12.6807 10.666 13.1641 10.666C13.6234 10.666 13.9974 11.0813 13.9974 11.5927C13.9974 12.17 13.3707 13.0107 12.2787 13.8993V13.9Z" fill="#338000"/>
</svg>
