<svg width="48" height="48" viewBox="0 0 48 48" fill="none" xmlns="http://www.w3.org/2000/svg">
<circle cx="24" cy="24" r="24" fill="#D9ECCD"/>
<g clip-path="url(#clip0_1983_100687)">
<path d="M31.6756 23.009C31.8066 22.26 31.9146 21.494 31.9896 20.715C32.0586 20.008 31.8386 19.335 31.3706 18.819C30.9006 18.301 30.2186 18.004 29.4996 18.004L14.4896 18.001C13.7726 18.001 13.0926 18.297 12.6246 18.813C12.1556 19.328 11.9356 20 12.0046 20.707C12.4546 25.341 14.0076 29.525 15.2326 32.219C16.2766 34.516 18.5946 36 21.1376 36H22.8576C25.4026 36 27.7226 34.51 28.7696 32.204C28.7996 32.137 28.8306 32.069 28.8616 32H30.9156C33.7176 32 35.9976 29.72 35.9976 26.918C35.9976 24.604 34.4636 23.219 31.6756 23.009ZM20.4976 23.207L21.5586 24.268C21.8416 24.552 21.9976 24.928 21.9976 25.329V27C21.9976 27.551 21.5486 28 20.9976 28H19.9976C19.4466 28 18.9976 27.551 18.9976 27V25.329C18.9976 24.928 19.1536 24.552 19.4366 24.268L20.4976 23.207ZM22.8576 35H21.1376C18.9856 35 17.0246 33.746 16.1426 31.805C14.9506 29.18 13.4366 25.107 12.9996 20.61C12.9586 20.188 13.0876 19.789 13.3636 19.485C13.6476 19.173 14.0466 19.001 14.4886 19.001H19.9976V22.293L18.7296 23.561C18.2576 24.033 17.9976 24.661 17.9976 25.329V27C17.9976 28.103 18.8946 29 19.9976 29H20.9976C22.1006 29 22.9976 28.103 22.9976 27V25.329C22.9976 24.661 22.7376 24.033 22.2656 23.561L20.9976 22.293V19.002L29.4996 19.004C29.9436 19.004 30.3446 19.177 30.6296 19.491C30.9056 19.796 31.0356 20.196 30.9946 20.618C30.5576 25.105 29.0486 29.171 27.8596 31.791C26.9746 33.74 25.0106 35 22.8576 35ZM30.9156 31H29.2936C30.0866 29.096 30.9296 26.681 31.4856 23.998H31.4986C33.8196 24.146 34.9976 25.128 34.9976 26.918C34.9976 29.169 33.1666 31 30.9156 31ZM20.9976 15.5V12.5C20.9976 12.224 21.2216 12 21.4976 12C21.7736 12 21.9976 12.224 21.9976 12.5V15.5C21.9976 15.776 21.7736 16 21.4976 16C21.2216 16 20.9976 15.776 20.9976 15.5ZM24.9976 15.5V12.5C24.9976 12.224 25.2216 12 25.4976 12C25.7736 12 25.9976 12.224 25.9976 12.5V15.5C25.9976 15.776 25.7736 16 25.4976 16C25.2216 16 24.9976 15.776 24.9976 15.5ZM16.9976 15.5V12.5C16.9976 12.224 17.2216 12 17.4976 12C17.7736 12 17.9976 12.224 17.9976 12.5V15.5C17.9976 15.776 17.7736 16 17.4976 16C17.2216 16 16.9976 15.776 16.9976 15.5Z" fill="#338000"/>
</g>
<defs>
<clipPath id="clip0_1983_100687">
<rect width="24" height="24" fill="white" transform="translate(12 12)"/>
</clipPath>
</defs>
</svg>
