<svg width="54" height="54" viewBox="0 0 54 54" fill="none" xmlns="http://www.w3.org/2000/svg">
<g clip-path="url(#clip0_904_14369)">
<path d="M53.1901 33.8598C53.2451 32.7349 53.0541 31.6115 52.6303 30.568C52.2066 29.5246 51.5603 28.586 50.7366 27.8179C48.8292 26.3129 46.4553 25.5228 44.0264 25.5845H43.9349C43.9993 25.4533 44.0336 25.3095 44.0354 25.1634C44.0354 22.8837 35.4306 21.0439 24.811 21.0439C14.1919 21.0439 5.587 22.8837 5.587 25.1634C5.52519 31.0579 7.76124 36.7448 11.8212 41.0186C4.78148 41.9069 0.0939941 43.4904 0.0939941 45.3031C0.0939941 50.1092 11.1619 54 24.811 54C38.4605 54 49.5285 50.1092 49.5285 45.3031C49.5285 43.9759 47.0015 42.7672 42.8821 41.8701C48.3841 40.4147 53.1901 37.9703 53.1901 33.8599V33.8598ZM49.1712 34.5282C48.5028 35.9012 46.9377 36.6153 45.5919 37.1465C43.6702 37.8769 41.6883 38.4374 39.6688 38.8216C41.729 35.9868 43.1018 32.7118 43.6786 29.2552C44.5815 29.1946 45.4874 29.3139 46.3438 29.6062C47.2002 29.8985 47.9901 30.3579 48.6675 30.9579C49.105 31.4309 49.3877 32.0262 49.4777 32.6642C49.5677 33.3022 49.4607 33.9526 49.1712 34.5282Z" fill="#E4C05C"/>
<path d="M44.0264 25.5851C44.009 26.816 43.8926 28.0435 43.6786 29.2558C43.1018 32.7124 41.7291 35.9874 39.6688 38.8222C38.4104 40.5465 36.8836 42.0579 35.1467 43.2989C34.0549 44.0859 32.8788 44.749 31.6403 45.276C29.4822 46.2001 27.159 46.6766 24.8113 46.6766C22.4636 46.6766 20.1404 46.2001 17.9822 45.276C15.6637 44.2849 13.5685 42.8373 11.8213 41.0193C7.7613 36.7455 5.52525 31.0586 5.58706 25.1641C5.58706 26.0701 6.95106 26.9124 9.26679 27.5898C12.7551 28.6151 18.4215 29.2835 24.8111 29.2835C31.2011 29.2835 36.8676 28.6151 40.3557 27.5898C42.3051 27.022 43.5872 26.3265 43.935 25.5851H44.0264Z" fill="#F5EFCA"/>
<path d="M53.1902 33.8597C53.1902 37.9701 48.384 40.4145 42.8822 41.87H42.864C40.3251 42.512 37.7473 42.9892 35.1467 43.2983C36.8836 42.0573 38.4104 40.5458 39.6688 38.8215C41.6883 38.4373 43.6703 37.8767 45.5919 37.1463C46.9378 36.6153 48.5028 35.9011 49.1712 34.528C49.4607 33.9525 49.5677 33.3022 49.4777 32.6642C49.3877 32.0262 49.1051 31.4309 48.6676 30.9579C47.9901 30.358 47.2003 29.8985 46.3439 29.6062C45.4874 29.314 44.5815 29.1947 43.6786 29.2553C43.8926 28.0429 44.009 26.8154 44.0264 25.5844C46.4553 25.5227 48.8292 26.3129 50.7367 27.8179C51.5604 28.586 52.2066 29.5245 52.6304 30.568C53.0541 31.6115 53.2452 32.7348 53.1902 33.8597Z" fill="#F9EAB0"/>
<path d="M40.3737 27.452C40.372 27.4983 40.3659 27.5444 40.3556 27.5896C36.8674 28.6149 31.2011 29.2833 24.811 29.2833C18.4214 29.2833 12.755 28.6149 9.2667 27.5896C9.25636 27.5444 9.25032 27.4983 9.24866 27.452C9.24866 25.9327 16.2152 24.7061 24.811 24.7061C33.4072 24.7061 40.3737 25.9327 40.3737 27.452Z" fill="#AF8066"/>
<path d="M49.5285 45.3027C49.5285 50.1088 38.4606 53.9996 24.811 53.9996C11.1619 53.9996 0.0939941 50.1088 0.0939941 45.3027C0.0939941 47.9482 10.1091 50.1179 22.843 50.3103C23.0626 50.3103 23.2822 50.3193 23.5023 50.3193C23.7219 50.3193 23.9325 50.3284 24.1521 50.3284C24.3717 50.3284 24.5914 50.3375 24.811 50.3375C25.0311 50.3375 25.2507 50.3375 25.4703 50.3284C25.69 50.3193 25.9005 50.3284 26.1202 50.3193C26.3398 50.3103 26.5598 50.3103 26.7795 50.3103C39.5134 50.1179 49.5285 47.9483 49.5285 45.3027Z" fill="#B19046"/>
<path d="M37.6273 47.5917C37.6273 48.9647 32.9219 50.1 26.7794 50.3106C26.5598 50.3106 26.3398 50.3196 26.1201 50.3196C25.9005 50.3196 25.6899 50.3287 25.4703 50.3287C25.2507 50.3287 25.031 50.3378 24.811 50.3378C24.5914 50.3378 24.3717 50.3378 24.1521 50.3287C23.9325 50.3196 23.7219 50.3287 23.5023 50.3196C23.2822 50.3106 23.0626 50.3106 22.8429 50.3106C16.7002 50.1 11.9951 48.9647 11.9951 47.5917C11.9951 46.6122 14.3843 45.7514 17.9821 45.2754C20.1403 46.1995 22.4635 46.676 24.8112 46.676C27.1589 46.676 29.4821 46.1995 31.6402 45.2754C35.2381 45.7514 37.6273 46.6122 37.6273 47.5917Z" fill="#7F6E5D"/>
<path d="M11.0794 32.0295C11.0795 32.2252 11.0162 32.4157 10.8991 32.5724C10.782 32.7292 10.6173 32.8439 10.4296 32.8994C10.3441 32.9285 10.2545 32.944 10.1642 32.9452C9.92135 32.9452 9.68845 32.8487 9.51673 32.677C9.34501 32.5052 9.24854 32.2723 9.24854 32.0295C9.24854 31.5239 9.65858 31.1143 10.1642 31.1143C10.4069 31.1143 10.6397 31.2107 10.8114 31.3823C10.983 31.554 11.0794 31.7868 11.0794 32.0295ZM16.5719 41.1841C16.3915 41.1841 16.2152 41.1306 16.0651 41.0304C13.9485 39.6542 12.1521 37.8395 10.7976 35.7089C10.7326 35.6067 10.6886 35.4927 10.668 35.3734C10.6474 35.2541 10.6507 35.1319 10.6776 35.0138C10.7045 34.8958 10.7545 34.7843 10.8248 34.6857C10.8951 34.5871 10.9842 34.5034 11.087 34.4395C11.1898 34.3756 11.3043 34.3326 11.4238 34.3132C11.5433 34.2938 11.6655 34.2982 11.7832 34.3263C11.901 34.3544 12.012 34.4055 12.1099 34.4767C12.2078 34.548 12.2906 34.6379 12.3536 34.7413C13.5708 36.65 15.1836 38.2752 17.0829 39.507C17.2466 39.6162 17.3708 39.7751 17.437 39.9604C17.5033 40.1456 17.5082 40.3473 17.4509 40.5355C17.3934 40.7237 17.2769 40.8884 17.1186 41.0052C16.9603 41.122 16.7686 41.1847 16.5719 41.1841Z" fill="white"/>
<path d="M20.2341 18.2976C20.0536 18.298 19.877 18.2452 19.7264 18.1456C19.5758 18.046 19.458 17.9042 19.3878 17.7379C19.3177 17.5716 19.2983 17.3882 19.3321 17.2108C19.3659 17.0335 19.4513 16.8701 19.5777 16.7411C20.0408 16.1403 20.2737 15.3935 20.2341 14.6359C20.2736 13.878 20.0405 13.1311 19.5769 12.5303C18.7682 11.5921 18.3484 10.3804 18.4033 9.14295C18.3498 7.90215 18.7733 6.68794 19.5869 5.74953C19.6997 5.63261 19.8417 5.54786 19.9981 5.50397C20.1546 5.46008 20.3199 5.45865 20.4771 5.4998C20.6343 5.54096 20.7777 5.62324 20.8926 5.73817C21.0075 5.8531 21.0897 5.99655 21.1308 6.15377C21.1719 6.31093 21.1705 6.47621 21.1266 6.63262C21.0827 6.78903 20.998 6.93095 20.8811 7.04379C20.4232 7.64458 20.1939 8.38863 20.2341 9.14295C20.1946 9.90079 20.4278 10.6477 20.8914 11.2486C21.7 12.1868 22.1198 13.3984 22.065 14.6359C22.1184 15.8767 21.6948 17.0909 20.8811 18.0293C20.7962 18.1144 20.6954 18.1818 20.5844 18.2279C20.4733 18.2739 20.3543 18.2976 20.2341 18.2976ZM25.7267 12.8051C25.5462 12.8056 25.3695 12.7527 25.219 12.653C25.0685 12.5534 24.9508 12.4114 24.8807 12.245C24.8105 12.0787 24.7911 11.8955 24.8248 11.7182C24.8586 11.5409 24.944 11.3775 25.0703 11.2487C25.5334 10.6476 25.7663 9.90071 25.7267 9.14295C25.7663 8.38521 25.5331 7.63836 25.0695 7.03767C24.2609 6.09941 23.8411 4.88778 23.8958 3.65037C23.8424 2.4096 24.2658 1.19543 25.0793 0.257043C25.252 0.0902568 25.4833 -0.00203756 25.7234 3.41377e-05C25.9635 0.00210584 26.1932 0.0983778 26.3629 0.26812C26.5327 0.43783 26.629 0.667429 26.631 0.907448C26.6331 1.14747 26.5408 1.37869 26.374 1.55131C25.916 2.15201 25.6866 2.89604 25.7267 3.65037C25.6872 4.40824 25.9203 5.15522 26.3839 5.75607C27.1925 6.69419 27.6123 7.90568 27.5575 9.14295C27.611 10.3839 27.1876 11.5982 26.374 12.5368C26.2022 12.7082 25.9695 12.8047 25.7267 12.8051ZM31.2192 18.2976C31.0387 18.298 30.8622 18.2451 30.7117 18.1455C30.5611 18.046 30.4434 17.9042 30.3732 17.7379C30.3031 17.5715 30.2837 17.3882 30.3175 17.2108C30.3513 17.0335 30.4368 16.8701 30.5632 16.7411C31.0261 16.1401 31.2588 15.3934 31.2193 14.6359C31.2588 13.878 31.0256 13.1311 30.562 12.5303C29.7534 11.592 29.3336 10.3804 29.3884 9.14295C29.3352 7.90215 29.7588 6.68801 30.5722 5.74953C30.6851 5.63262 30.827 5.54786 30.9834 5.50398C31.1399 5.46009 31.3052 5.45866 31.4624 5.49983C31.6196 5.54091 31.7631 5.62312 31.878 5.73801C31.993 5.8529 32.0753 5.99633 32.1164 6.15355C32.1576 6.31077 32.1561 6.47612 32.1122 6.63259C32.0683 6.78907 31.9836 6.93104 31.8666 7.0439C31.4088 7.64471 31.1793 8.38865 31.2192 9.14295C31.1797 9.90079 31.4129 10.6477 31.8764 11.2486C32.6852 12.1867 33.1051 13.3984 33.0501 14.6359C33.1036 15.8767 32.6801 17.0909 31.8665 18.0293C31.7815 18.1143 31.6806 18.1818 31.5696 18.2279C31.4585 18.2739 31.3394 18.2976 31.2192 18.2976Z" fill="#95A5A5"/>
</g>
<defs>
<clipPath id="clip0_904_14369">
<rect width="54" height="54" fill="white"/>
</clipPath>
</defs>
</svg>
