<svg width="20" height="20" viewBox="0 0 20 20" fill="none" xmlns="http://www.w3.org/2000/svg">
<rect width="20" height="20" rx="10" fill="#42A004"/>
<path d="M9 14L8.15882 14.5408C8.34784 14.8348 8.67667 15.0088 9.02609 14.9997C9.37552 14.9905 9.69482 14.7996 9.86824 14.4961L9 14ZM7.84118 10.3481C7.54253 9.88356 6.92381 9.74906 6.45924 10.0477C5.99467 10.3464 5.86017 10.9651 6.15882 11.4296L7.84118 10.3481ZM13.8682 7.49614C14.1423 7.01662 13.9757 6.40577 13.4961 6.13176C13.0166 5.85775 12.4058 6.02434 12.1318 6.50386L13.8682 7.49614ZM9 14L9.84118 13.4592L7.84118 10.3481L7 10.8889L6.15882 11.4296L8.15882 14.5408L9 14ZM13 7L12.1318 6.50386L8.13176 13.5039L9 14L9.86824 14.4961L13.8682 7.49614L13 7Z" fill="white"/>
</svg>
