<svg width="32" height="32" viewBox="0 0 32 32" fill="none" xmlns="http://www.w3.org/2000/svg">
<g clip-path="url(#clip0_833_9378)">
<path d="M32 16C32 15.8056 31.9965 15.612 31.9897 15.4193C31.684 6.85175 24.6422 0 16 0C7.35781 0 0.316 6.85175 0.010375 15.4193C0.0035 15.612 0 15.8056 0 16C0 24.8366 8.21887 31.4194 16 31.4194C23.9221 31.4194 32 24.8366 32 16Z" fill="#FF5876"/>
<path d="M29.3386 15.4194C29.0346 8.31518 23.179 2.64893 16 2.64893C8.8209 2.64893 2.96527 8.31518 2.66127 15.4194C2.65302 15.6119 2.66121 28.5019 16 28.5019C29.3387 28.5019 29.3469 15.6119 29.3386 15.4194Z" fill="#E4EEF9"/>
<path d="M16 28.1898C8.82105 28.1898 2.96636 22.5234 2.66224 15.4193C2.65366 15.6127 2.64922 15.8063 2.64893 15.9999C2.64893 23.3736 8.62643 29.3511 16 29.3511C23.3737 29.3511 29.3512 23.3736 29.3512 16C29.3512 15.8054 29.3461 15.6119 29.3379 15.4194C29.0337 22.5235 23.179 28.1898 16 28.1898Z" fill="#D5E0F2"/>
<path d="M20.8497 11.3156C20.4691 10.9403 19.8563 10.9445 19.4811 11.325L17.2102 13.6273L17.4384 14.7233L18.4992 15.0767L20.8591 12.6841C21.2343 12.3036 21.2302 11.6909 20.8497 11.3156ZM14.6301 13.7154L9.47997 9.12589C9.08091 8.77027 8.46922 8.80552 8.11366 9.20458C7.7581 9.60358 7.79328 10.2153 8.19235 10.5709L13.4439 15.2508L14.5382 14.8858L14.6301 13.7154Z" fill="#405B6C"/>
<path d="M22.8523 22.2398C22.7385 22.2399 22.6283 22.1998 22.5413 22.1265L16.4118 16.9778C16.3143 16.895 16.2536 16.7771 16.2429 16.6497C16.2322 16.5223 16.2723 16.3958 16.3546 16.2979C16.4368 16.2 16.5545 16.1386 16.6818 16.1272C16.8091 16.1157 16.9358 16.1552 17.0342 16.2368L23.1637 21.3855C23.2398 21.4494 23.2943 21.5351 23.3199 21.631C23.3455 21.7269 23.3411 21.8284 23.3071 21.9217C23.273 22.015 23.2112 22.0955 23.1298 22.1524C23.0485 22.2094 22.9516 22.2399 22.8523 22.2398Z" fill="#86DCFF"/>
<path d="M13.4438 15.2508L14.3476 16.0561L15.5082 15.6618L15.4453 14.4418L14.6301 13.7154C14.0629 14.0562 13.6336 14.6023 13.4438 15.2508ZM17.2101 13.6273L16.4417 14.4063V15.9354H17.6521L18.4991 15.0768C18.2663 14.447 17.8022 13.9299 17.2101 13.6273Z" fill="#2D4456"/>
<path d="M17.549 15.4193C17.3139 14.7924 16.7091 14.3462 16.0001 14.3462C15.2911 14.3462 14.6863 14.7924 14.4511 15.4193C14.3834 15.5999 14.4467 17.0731 16.0001 17.0731C17.5535 17.0731 17.6168 15.5999 17.549 15.4193Z" fill="#FF5876"/>
<path d="M16 16.4926C15.291 16.4926 14.6864 16.0463 14.4513 15.4194C14.3816 15.6051 14.346 15.8018 14.3462 16.0001C14.3462 16.9134 15.0866 17.6538 15.9999 17.6538C16.9133 17.6538 17.6537 16.9134 17.6537 16.0001C17.6537 15.7957 17.6164 15.6001 17.5486 15.4194C17.3136 16.0462 16.709 16.4926 16 16.4926Z" fill="#E6485D"/>
<path d="M16.4848 5.84832V4.34663C16.4848 4.21805 16.4337 4.09473 16.3428 4.00381C16.2519 3.91289 16.1286 3.86182 16 3.86182C15.8714 3.86182 15.7481 3.91289 15.6572 4.00381C15.5663 4.09473 15.5152 4.21805 15.5152 4.34663V5.84832C15.5152 6.11607 15.7322 6.33313 16 6.33313C16.2678 6.33313 16.4848 6.11607 16.4848 5.84832ZM15.5152 26.1517V27.6534C15.5152 27.9211 15.7322 28.1382 16 28.1382C16.2678 28.1382 16.4848 27.9211 16.4848 27.6534V26.1517C16.4848 26.0231 16.4337 25.8998 16.3428 25.8089C16.2519 25.718 16.1286 25.6669 16 25.6669C15.8714 25.6669 15.7481 25.718 15.6572 25.8089C15.5663 25.8998 15.5152 26.0231 15.5152 26.1517ZM27.6534 16.4848C27.782 16.4848 27.9053 16.4337 27.9962 16.3428C28.0871 16.2519 28.1382 16.1286 28.1382 16C28.1382 15.8714 28.0871 15.7481 27.9962 15.6572C27.9053 15.5663 27.782 15.5152 27.6534 15.5152H26.1517C26.0231 15.5152 25.8998 15.5663 25.8089 15.6572C25.718 15.7481 25.6669 15.8714 25.6669 16C25.6669 16.1286 25.718 16.2519 25.8089 16.3428C25.8998 16.4337 26.0231 16.4848 26.1517 16.4848H27.6534ZM4.34663 15.5152C4.07882 15.5152 3.86182 15.7323 3.86182 16C3.86182 16.2678 4.07882 16.4848 4.34663 16.4848H5.84832C5.9769 16.4848 6.10021 16.4337 6.19113 16.3428C6.28205 16.2519 6.33313 16.1286 6.33313 16C6.33313 15.8714 6.28205 15.7481 6.19113 15.6572C6.10021 15.5663 5.9769 15.5152 5.84832 15.5152H4.34663Z" fill="#405B6C"/>
</g>
<defs>
<clipPath id="clip0_833_9378">
<rect width="32" height="32" fill="white"/>
</clipPath>
</defs>
</svg>
