<svg width="20" height="20" viewBox="0 0 20 20" fill="none" xmlns="http://www.w3.org/2000/svg">
<path d="M16.4423 9.99631V19.4138C16.4423 19.7421 16.1844 20 15.8561 20H4.13303C3.80474 20 3.54688 19.7421 3.54688 19.4138V10.9107C3.54688 10.6997 3.66407 10.5121 3.83995 10.4066L5.42253 9.49222C5.51635 9.43356 5.62186 9.41016 5.71561 9.41016H8.23611L9.99457 10.9107L11.753 9.41016H15.8561C16.1844 9.41016 16.4423 9.66802 16.4423 9.99631Z" fill="#E63950"/>
<path d="M16.4438 9.99631V19.4138C16.4438 19.7421 16.1859 20 15.8576 20H9.99609V10.9107L11.7546 9.41016H15.8576C16.1859 9.41016 16.4438 9.66802 16.4438 9.99631Z" fill="#D0004F"/>
<path d="M10.3946 1.17275C10.2891 0.98514 10.1484 0.809333 9.99601 0.680301C9.71466 0.387224 9.363 0.187971 8.9761 0.0825025C8.36646 -0.0816206 7.73346 0.000440902 7.19416 0.316925C6.44388 0.750757 5.99844 1.55957 6.02185 2.42712C6.03357 2.54435 6.09219 4.28718 6.09219 4.28718C5.96323 4.21684 4.6268 3.38446 4.6268 3.38446C4.4744 3.31413 3.41936 2.51696 2.1181 3.27892C1.5788 3.59548 1.19194 4.09953 1.02778 4.69745C0.863695 5.30709 0.945795 5.94009 1.26224 6.4794C1.90701 7.60477 3.34899 7.97991 4.46268 7.33514L5.97183 6.4638L3.86941 6.32363C3.69352 6.42428 3.49443 6.47736 3.29178 6.47764C2.87276 6.47764 2.48468 6.25498 2.27918 5.89605C2.11548 5.61728 2.07653 5.31162 2.15952 5.00252C2.24139 4.70542 2.43771 4.45072 2.71133 4.29042C2.90253 4.17823 3.08455 4.12384 3.26716 4.12384C3.57055 4.12384 3.82182 4.2721 3.95636 4.35166L4.03076 4.39402C4.2145 4.50851 5.40627 5.24804 5.52991 5.31561L5.57399 5.33964L5.56402 5.34538L5.58024 5.34609L6.98701 6.1667L7.26055 4.36916L7.26731 4.34787L7.26379 4.24693C7.26379 4.24693 7.20025 2.42974 7.18767 2.30723C7.18138 1.95577 7.40689 1.5482 7.7807 1.33183C7.96331 1.2248 8.15564 1.17212 8.35826 1.17212C8.46244 1.17212 8.56775 1.18643 8.67193 1.21448C8.86024 1.26599 9.02339 1.35989 9.15046 1.49267L9.23862 1.57567C9.27184 1.60314 9.32619 1.66441 9.37199 1.74624C9.65249 2.22021 9.56605 2.84907 9.18024 3.22229C9.1167 3.28009 9.03312 3.34308 8.957 3.38657L8.89873 3.42022L8.74215 4.86423L9.53869 4.40433C9.70282 4.31055 9.85526 4.19332 9.99589 4.0644C10.7463 3.33761 10.9573 2.12232 10.3946 1.17275ZM8.23755 9.41016V15.8969C8.23755 16.1314 8.37823 16.3424 8.60096 16.4362C8.81198 16.53 9.06993 16.4831 9.23397 16.3072L9.99601 15.5569L10.758 16.3072C10.9221 16.4831 11.1801 16.5299 11.3911 16.4362C11.6138 16.3424 11.7545 16.1314 11.7545 15.8969V9.41016H8.23755Z" fill="#FED843"/>
<path d="M19.4132 7.0655H18.827V6.47934C18.827 6.15536 18.5649 5.89319 18.2409 5.89319C17.9169 5.89319 17.6547 6.15536 17.6547 6.47934V7.0655H17.0686C16.7446 7.0655 16.4824 7.32766 16.4824 7.65165C16.4824 7.97564 16.7446 8.2378 17.0686 8.2378H17.6547V8.82396C17.6547 9.14794 17.9169 9.41011 18.2409 9.41011C18.5649 9.41011 18.827 9.14794 18.827 8.82396V8.2378H19.4132C19.7372 8.2378 19.9993 7.97564 19.9993 7.65165C19.9993 7.32766 19.7372 7.0655 19.4132 7.0655Z" fill="#FFB64C"/>
<path d="M17.0295 4.72089C17.3532 4.72089 17.6157 4.45846 17.6157 4.13474C17.6157 3.81101 17.3532 3.54858 17.0295 3.54858C16.7058 3.54858 16.4434 3.81101 16.4434 4.13474C16.4434 4.45846 16.7058 4.72089 17.0295 4.72089Z" fill="#FFB64C"/>
<path d="M14.6838 8.23786C15.0075 8.23786 15.27 7.97543 15.27 7.65171C15.27 7.32798 15.0075 7.06555 14.6838 7.06555C14.3601 7.06555 14.0977 7.32798 14.0977 7.65171C14.0977 7.97543 14.3601 8.23786 14.6838 8.23786Z" fill="#FFB64C"/>
<path d="M9.99609 9.41012H11.7546V15.8969C11.7546 16.1314 11.6139 16.3424 11.3911 16.4361C11.1801 16.5299 10.9222 16.483 10.7581 16.3072L9.99609 15.5569V9.41012ZM9.99609 4.0644V0.680298C10.1485 0.809291 10.2892 0.985098 10.3947 1.17271C10.9574 2.12228 10.7464 3.33761 9.99609 4.0644Z" fill="#FFB64C"/>
<path d="M15.0712 4.60369L13.3128 1.55569C13.1486 1.27434 12.7852 1.18055 12.5039 1.34467L9.99512 2.79834L9.65926 2.99208L2.99355 6.83807L0.323581 8.37856C0.0422273 8.53096 -0.0906343 8.89438 0.0734888 9.17573L1.87103 12.2237C2.03515 12.5051 2.38684 12.5989 2.6682 12.4347L9.99512 8.20271L14.8485 5.40086C15.1298 5.23682 15.2237 4.88512 15.0712 4.60369Z" fill="#FF641A"/>
<path d="M14.8494 5.40086L9.99609 8.20268V2.79834L12.5048 1.34467C12.7862 1.18055 13.1496 1.27434 13.3137 1.55569L15.0722 4.60365C15.2246 4.88512 15.1308 5.23678 14.8494 5.40086Z" fill="#E63950"/>
</svg>
