<svg width="32" height="32" viewBox="0 0 32 32" fill="none" xmlns="http://www.w3.org/2000/svg">
<path d="M22.5 1.5H3.5C2.39543 1.5 1.5 2.39543 1.5 3.5V28.5C1.5 29.6046 2.39543 30.5 3.5 30.5H22.5C23.6046 30.5 24.5 29.6046 24.5 28.5V3.5C24.5 2.39543 23.6046 1.5 22.5 1.5Z" fill="#D0D8DA"/>
<path d="M21 26.5C17.0218 26.5 13.2064 24.9196 10.3934 22.1066C7.58035 19.2936 6 15.4782 6 11.5V1.5H3.5C2.96957 1.5 2.46086 1.71071 2.08579 2.08579C1.71071 2.46086 1.5 2.96957 1.5 3.5V28.5C1.5 29.0304 1.71071 29.5391 2.08579 29.9142C2.46086 30.2893 2.96957 30.5 3.5 30.5H22.5C23.0304 30.5 23.5391 30.2893 23.9142 29.9142C24.2893 29.5391 24.5 29.0304 24.5 28.5V26.5H21Z" fill="#93999A"/>
<path d="M4 4H22V13H4V4Z" fill="#AAE1F9"/>
<path d="M4 4V5H19C19.5304 5 20.0391 5.21071 20.4142 5.58579C20.7893 5.96086 21 6.46957 21 7V13H22V4H4Z" fill="#57B7EB"/>
<path d="M13 11C11.2761 11 9.62279 10.3152 8.40381 9.09619C7.18482 7.87721 6.5 6.22391 6.5 4.5V4H4V13H22V11H13Z" fill="#57B7EB"/>
<path d="M6 11.5V4H4V13H6.075C6.02525 12.5015 6.00022 12.0009 6 11.5Z" fill="#4891D3"/>
<path d="M4 15H7V18H4V15Z" fill="#AAE1F9"/>
<path d="M4 18H7V16.8855C6.76325 16.2707 6.56782 15.6408 6.415 15H4V18Z" fill="#57B7EB"/>
<path d="M9.5 15H12.5V18H9.5V15Z" fill="#AAE1F9"/>
<path d="M4 20H7V23H4V20Z" fill="#57B7EB"/>
<path d="M9.5 20H12.5V23H9.5V20Z" fill="#AAE1F9"/>
<path d="M4 25.5H7V28.5H4V25.5ZM9.5 25.5H12.5V28.5H9.5V25.5ZM12 17.5C11.4696 17.5 10.9609 17.2893 10.5858 16.9142C10.2107 16.5391 10 16.0304 10 15.5V15H9.5V18H12.5V17.5H12Z" fill="#57B7EB"/>
<path d="M6.5 17.5C5.96957 17.5 5.46086 17.2893 5.08579 16.9142C4.71071 16.5391 4.5 16.0304 4.5 15.5V15H4V18H7V17.5H6.5ZM6.5 22.5C5.96957 22.5 5.46086 22.2893 5.08579 21.9142C4.71071 21.5391 4.5 21.0304 4.5 20.5V20H4V23H7V22.5H6.5Z" fill="#4891D3"/>
<path d="M12 22.5C11.4696 22.5 10.9609 22.2893 10.5858 21.9142C10.2107 21.5391 10 21.0304 10 20.5V20H9.5V23H12.5V22.5H12Z" fill="#57B7EB"/>
<path d="M6.5 27.9999C5.96957 27.9999 5.46086 27.7892 5.08579 27.4142C4.71071 27.0391 4.5 26.5304 4.5 25.9999V25.4999H4V28.4999H7V27.9999H6.5ZM12 27.9999C11.4696 27.9999 10.9609 27.7892 10.5858 27.4142C10.2107 27.0391 10 26.5304 10 25.9999V25.4999H9.5V28.4999H12.5V27.9999H12ZM11.3725 22.9999C10.6945 22.432 10.068 21.8054 9.5 21.1274V22.9999H11.3725Z" fill="#4891D3"/>
<path d="M30.1804 20.4465C30.2796 19.7007 30.2176 18.9424 29.9984 18.2227C29.7792 17.503 29.408 16.8388 28.9099 16.275C28.4118 15.7112 27.7984 15.2609 27.1113 14.9547C26.4241 14.6485 25.6792 14.4934 24.9269 14.5C23.9936 14.4999 23.0858 14.8049 22.3419 15.3685L22.3264 15.3805C22.0885 15.5605 21.7982 15.658 21.4999 15.658C21.2015 15.658 20.9113 15.5605 20.6734 15.3805L20.6579 15.3685C19.9139 14.8049 19.0062 14.4999 18.0729 14.5C17.3206 14.4934 16.5757 14.6485 15.8885 14.9547C15.2013 15.2609 14.5879 15.7112 14.0898 16.275C13.5917 16.8388 13.2205 17.503 13.0013 18.2227C12.7822 18.9424 12.7201 19.7007 12.8194 20.4465C12.9203 21.1074 13.1239 21.7484 13.4229 22.3465L16.8564 29.2135C17.0926 29.7079 17.4983 30.1012 17.9999 30.322C18.4611 30.5181 18.9748 30.5542 19.4589 30.4243C19.9431 30.2944 20.3697 30.0062 20.6709 29.6055L21.4999 28.5L22.2724 29.53C22.5883 29.9693 23.0454 30.287 23.5674 30.43C24.0619 30.5548 24.5843 30.507 25.048 30.2945C25.5117 30.082 25.889 29.7176 26.1174 29.2615L29.5764 22.344C29.8753 21.7468 30.0791 21.1065 30.1804 20.4465Z" fill="#F89C8D"/>
<path d="M23.5 11H26.5C26.5 11.7956 26.1839 12.5587 25.6213 13.1213C25.0587 13.6839 24.2956 14 23.5 14H21.5V13C21.5 12.4696 21.7107 11.9609 22.0858 11.5858C22.4609 11.2107 22.9696 11 23.5 11Z" fill="#C4F236"/>
<path d="M17.0002 17C17.0005 16.1829 17.0875 15.3682 17.2597 14.5695C15.894 14.7651 14.6609 15.4926 13.8292 16.5934C12.9975 17.6943 12.6347 19.0792 12.8197 20.4465C12.9206 21.1074 13.1243 21.7484 13.4232 22.3465L16.8567 29.2135C17.0929 29.7079 17.4987 30.1012 18.0002 30.322C18.4615 30.5181 18.9752 30.5542 19.4593 30.4243C19.9434 30.2944 20.3701 30.0062 20.6712 29.6055L21.5002 28.5L22.2727 29.53C22.5887 29.9693 23.0458 30.287 23.5677 30.43C24.0623 30.5548 24.5847 30.507 25.0484 30.2945C25.5121 30.082 25.8894 29.7176 26.1177 29.2615L26.5807 28.335C23.9023 27.8815 21.4708 26.4946 19.7172 24.4198C17.9636 22.3451 17.0011 19.7165 17.0002 17Z" fill="#F8664F"/>
<path d="M24 12.5H23C22.7645 12.4994 22.5368 12.4157 22.357 12.2637C22.1772 12.1117 22.0568 11.9011 22.017 11.669C21.6855 12.0332 21.5012 12.5076 21.5 13V14H23.5C24.2654 13.9991 25.0015 13.7056 25.5577 13.1797C26.1138 12.6538 26.4479 11.9352 26.4915 11.171C26.2174 11.5802 25.8466 11.9155 25.4121 12.1473C24.9775 12.3791 24.4925 12.5003 24 12.5Z" fill="#A1D51C"/>
<path d="M29.371 16.042C28.8576 15.4458 28.2292 14.9594 27.5234 14.6117C26.8177 14.264 26.049 14.0622 25.2635 14.0185C25.7912 13.7107 26.2291 13.2701 26.5338 12.7405C26.8384 12.211 26.9992 11.6109 27 11C27 10.8674 26.9473 10.7402 26.8535 10.6464C26.7598 10.5527 26.6326 10.5 26.5 10.5H23.5C22.8372 10.5008 22.2018 10.7644 21.7331 11.2331C21.2644 11.7018 21.0008 12.3372 21 13V14.991C20.987 14.9825 20.9725 14.979 20.96 14.9695C20.128 14.3423 19.1149 14.0021 18.073 14C17.2288 13.9999 16.3946 14.1823 15.6276 14.5348C14.8605 14.8872 14.1787 15.4014 13.629 16.042C13.1016 16.6505 12.7121 17.3659 12.4871 18.1391C12.2621 18.9123 12.2069 19.725 12.3255 20.5215C12.4337 21.2346 12.6531 21.9263 12.9755 22.5715L16.409 29.4385C16.6987 30.0411 17.1956 30.5193 17.809 30.7855C18.3731 31.0225 19.0001 31.0648 19.5909 30.9057C20.1817 30.7466 20.7027 30.3952 21.0715 29.907L21.5 29.3335L21.8725 29.83C22.2574 30.3623 22.8134 30.7462 23.4475 30.9175C23.6681 30.9723 23.8946 31 24.122 31C24.6299 31.0008 25.1278 30.8595 25.5596 30.5921C25.9914 30.3248 26.3398 29.942 26.5655 29.487L30.024 22.57C30.0539 22.5112 30.072 22.4471 30.077 22.3813C30.0821 22.3155 30.074 22.2493 30.0534 22.1866C30.0328 22.124 29.9999 22.066 29.9568 22.0161C29.9136 21.9661 29.861 21.9252 29.802 21.8958C29.743 21.8663 29.6787 21.8487 29.6128 21.8442C29.547 21.8397 29.4809 21.8482 29.4184 21.8693C29.3559 21.8905 29.2982 21.9237 29.2486 21.9673C29.199 22.0108 29.1585 22.0637 29.1295 22.123L25.671 29.0405C25.4938 29.3954 25.2004 29.679 24.8396 29.8439C24.4788 30.0088 24.0723 30.0452 23.688 29.947C23.2774 29.8308 22.9188 29.5776 22.672 29.2295L21.9 28.2C21.8534 28.1379 21.793 28.0875 21.7236 28.0528C21.6542 28.0181 21.5776 28 21.5 28C21.4224 28 21.3458 28.0181 21.2764 28.0528C21.207 28.0875 21.1466 28.1379 21.1 28.2L20.271 29.3055C20.0353 29.616 19.703 29.8391 19.3264 29.9396C18.9498 30.0401 18.5505 30.0123 18.1915 29.8605C17.8008 29.6859 17.4859 29.3768 17.304 28.9895L13.8705 22.123C13.5946 21.5724 13.4068 20.9818 13.314 20.373C13.2131 19.7189 13.2568 19.0507 13.4422 18.4154C13.6276 17.7801 13.9501 17.1931 14.387 16.696C14.8428 16.1643 15.4082 15.7374 16.0444 15.4447C16.6806 15.1519 17.3726 15.0002 18.073 15C18.904 15.0025 19.7115 15.276 20.373 15.779C20.7012 16.025 21.1008 16.157 21.511 16.1548C21.9212 16.1526 22.3194 16.0164 22.645 15.767C23.3025 15.271 24.1033 15.0018 24.927 15C25.6272 15 26.3191 15.1514 26.9553 15.4438C27.5915 15.7361 28.157 16.1626 28.613 16.694C29.0499 17.1911 29.3723 17.7781 29.5577 18.4134C29.7431 19.0487 29.7869 19.7169 29.686 20.371C29.6688 20.5008 29.7033 20.6322 29.7819 20.7369C29.8606 20.8416 29.9772 20.9112 30.1067 20.9309C30.2361 20.9505 30.3681 20.9186 30.4743 20.8419C30.5805 20.7653 30.6524 20.6501 30.6745 20.521C30.7929 19.7246 30.7378 18.912 30.5128 18.1389C30.2878 17.3658 29.8983 16.6505 29.371 16.042ZM22 13C22 12.6022 22.158 12.2206 22.4393 11.9393C22.7206 11.658 23.1022 11.5 23.5 11.5H25.95C25.834 12.0643 25.527 12.5714 25.0807 12.9358C24.6344 13.3001 24.0761 13.4994 23.5 13.5H22V13ZM22.024 14.982C22.0165 14.9875 22.0075 14.989 22 14.9945V14.5H22.8115C22.5343 14.6354 22.2706 14.7968 22.024 14.982Z" fill="black"/>
<path d="M28.1273 20.6395C28.1524 20.6435 28.1778 20.6455 28.2033 20.6455C28.3228 20.6454 28.4384 20.6025 28.529 20.5245C28.6196 20.4466 28.6793 20.3387 28.6973 20.2205C28.7754 19.7088 28.7404 19.1861 28.5946 18.6894C28.4489 18.1926 28.196 17.7339 27.8538 17.3455C27.4917 16.9235 27.0427 16.5847 26.5375 16.3525C26.0323 16.1202 25.4828 16 24.9268 16C24.7941 16 24.667 16.0527 24.5732 16.1464C24.4794 16.2402 24.4268 16.3674 24.4268 16.5C24.4268 16.6326 24.4794 16.7598 24.5732 16.8536C24.667 16.9473 24.7941 17 24.9268 17C25.3388 17.0001 25.746 17.0893 26.1204 17.2614C26.4948 17.4336 26.8275 17.6847 27.0958 17.9975C27.3432 18.2772 27.5262 18.6077 27.6321 18.9658C27.7379 19.3238 27.7639 19.7008 27.7083 20.07C27.6883 20.2011 27.7213 20.3347 27.7998 20.4415C27.8784 20.5483 27.9962 20.6195 28.1273 20.6395Z" fill="black"/>
<path d="M18.5 28C18.7761 28 19 27.7761 19 27.5C19 27.2239 18.7761 27 18.5 27C18.2239 27 18 27.2239 18 27.5C18 27.7761 18.2239 28 18.5 28Z" fill="black"/>
<path d="M17.5 26.5C17.7761 26.5 18 26.2761 18 26C18 25.7239 17.7761 25.5 17.5 25.5C17.2239 25.5 17 25.7239 17 26C17 26.2761 17.2239 26.5 17.5 26.5Z" fill="black"/>
<path d="M15.5 30H3.5C3.10218 30 2.72064 29.842 2.43934 29.5607C2.15804 29.2794 2 28.8978 2 28.5V3.5C2 3.10218 2.15804 2.72064 2.43934 2.43934C2.72064 2.15804 3.10218 2 3.5 2H22.5C22.8978 2 23.2794 2.15804 23.5607 2.43934C23.842 2.72064 24 3.10218 24 3.5V9C24 9.13261 24.0527 9.25979 24.1464 9.35355C24.2402 9.44732 24.3674 9.5 24.5 9.5C24.6326 9.5 24.7598 9.44732 24.8536 9.35355C24.9473 9.25979 25 9.13261 25 9V3.5C24.9992 2.8372 24.7356 2.20178 24.2669 1.73311C23.7982 1.26444 23.1628 1.00079 22.5 1H3.5C2.8372 1.00079 2.20178 1.26444 1.73311 1.73311C1.26444 2.20178 1.00079 2.8372 1 3.5V28.5C1.00079 29.1628 1.26444 29.7982 1.73311 30.2669C2.20178 30.7356 2.8372 30.9992 3.5 31H15.5C15.6326 31 15.7598 30.9473 15.8536 30.8536C15.9473 30.7598 16 30.6326 16 30.5C16 30.3674 15.9473 30.2402 15.8536 30.1464C15.7598 30.0527 15.6326 30 15.5 30Z" fill="black"/>
<path d="M22 9.6895C22.1326 9.6895 22.2598 9.63682 22.3536 9.54305C22.4473 9.44929 22.5 9.32211 22.5 9.1895V4C22.5 3.86739 22.4473 3.74021 22.3536 3.64645C22.2598 3.55268 22.1326 3.5 22 3.5H4C3.86739 3.5 3.74021 3.55268 3.64645 3.64645C3.55268 3.74021 3.5 3.86739 3.5 4V13C3.5 13.1326 3.55268 13.2598 3.64645 13.3536C3.74021 13.4473 3.86739 13.5 4 13.5H19.5C19.6326 13.5 19.7598 13.4473 19.8536 13.3536C19.9473 13.2598 20 13.1326 20 13C20 12.8674 19.9473 12.7402 19.8536 12.6464C19.7598 12.5527 19.6326 12.5 19.5 12.5H4.5V4.5H21.5V9.1895C21.5 9.32211 21.5527 9.44929 21.6464 9.54305C21.7402 9.63682 21.8674 9.6895 22 9.6895ZM7.5 15C7.5 14.8674 7.44732 14.7402 7.35355 14.6464C7.25979 14.5527 7.13261 14.5 7 14.5H4C3.86739 14.5 3.74021 14.5527 3.64645 14.6464C3.55268 14.7402 3.5 14.8674 3.5 15V18C3.5 18.1326 3.55268 18.2598 3.64645 18.3536C3.74021 18.4473 3.86739 18.5 4 18.5H7C7.13261 18.5 7.25979 18.4473 7.35355 18.3536C7.44732 18.2598 7.5 18.1326 7.5 18V15ZM6.5 17.5H4.5V15.5H6.5V17.5ZM13 15.5V15C13 14.8674 12.9473 14.7402 12.8536 14.6464C12.7598 14.5527 12.6326 14.5 12.5 14.5H9.5C9.36739 14.5 9.24021 14.5527 9.14645 14.6464C9.05268 14.7402 9 14.8674 9 15V18C9 18.1326 9.05268 18.2598 9.14645 18.3536C9.24021 18.4473 9.36739 18.5 9.5 18.5H11C11.1326 18.5 11.2598 18.4473 11.3536 18.3536C11.4473 18.2598 11.5 18.1326 11.5 18C11.5 17.8674 11.4473 17.7402 11.3536 17.6464C11.2598 17.5527 11.1326 17.5 11 17.5H10V15.5H12C12 15.6326 12.0527 15.7598 12.1464 15.8536C12.2402 15.9473 12.3674 16 12.5 16C12.6326 16 12.7598 15.9473 12.8536 15.8536C12.9473 15.7598 13 15.6326 13 15.5ZM7.5 20C7.5 19.8674 7.44732 19.7402 7.35355 19.6464C7.25979 19.5527 7.13261 19.5 7 19.5H4C3.86739 19.5 3.74021 19.5527 3.64645 19.6464C3.55268 19.7402 3.5 19.8674 3.5 20V23C3.5 23.1326 3.55268 23.2598 3.64645 23.3536C3.74021 23.4473 3.86739 23.5 4 23.5H7C7.13261 23.5 7.25979 23.4473 7.35355 23.3536C7.44732 23.2598 7.5 23.1326 7.5 23V20ZM6.5 22.5H4.5V20.5H6.5V22.5ZM11 20.5C11.1326 20.5 11.2598 20.4473 11.3536 20.3536C11.4473 20.2598 11.5 20.1326 11.5 20C11.5 19.8674 11.4473 19.7402 11.3536 19.6464C11.2598 19.5527 11.1326 19.5 11 19.5H9.5C9.36739 19.5 9.24021 19.5527 9.14645 19.6464C9.05268 19.7402 9 19.8674 9 20V23C9 23.1326 9.05268 23.2598 9.14645 23.3536C9.24021 23.4473 9.36739 23.5 9.5 23.5H11.5C11.6326 23.5 11.7598 23.4473 11.8536 23.3536C11.9473 23.2598 12 23.1326 12 23C12 22.8674 11.9473 22.7402 11.8536 22.6464C11.7598 22.5527 11.6326 22.5 11.5 22.5H10V20.5H11ZM7 25H4C3.86739 25 3.74021 25.0527 3.64645 25.1464C3.55268 25.2402 3.5 25.3674 3.5 25.5V28.5C3.5 28.6326 3.55268 28.7598 3.64645 28.8536C3.74021 28.9473 3.86739 29 4 29H7C7.13261 29 7.25979 28.9473 7.35355 28.8536C7.44732 28.7598 7.5 28.6326 7.5 28.5V25.5C7.5 25.3674 7.44732 25.2402 7.35355 25.1464C7.25979 25.0527 7.13261 25 7 25ZM6.5 28H4.5V26H6.5V28ZM9 28.5C9 28.6326 9.05268 28.7598 9.14645 28.8536C9.24021 28.9473 9.36739 29 9.5 29H12.5C12.6326 29 12.7598 28.9473 12.8536 28.8536C12.9473 28.7598 13 28.6326 13 28.5V25.5C13 25.3674 12.9473 25.2402 12.8536 25.1464C12.7598 25.0527 12.6326 25 12.5 25H9.5C9.36739 25 9.24021 25.0527 9.14645 25.1464C9.05268 25.2402 9 25.3674 9 25.5V28.5ZM10 26H12V28H10V26Z" fill="black"/>
<path d="M9.3535 7.1465C9.25974 7.05276 9.13258 7.00011 9 7.00011C8.86742 7.00011 8.74026 7.05276 8.6465 7.1465L7.5 8.293V6.5C7.5 6.36739 7.44732 6.24021 7.35355 6.14645C7.25979 6.05268 7.13261 6 7 6C6.86739 6 6.74021 6.05268 6.64645 6.14645C6.55268 6.24021 6.5 6.36739 6.5 6.5V10.5C6.5 10.6326 6.55268 10.7598 6.64645 10.8536C6.74021 10.9473 6.86739 11 7 11C7.13261 11 7.25979 10.9473 7.35355 10.8536C7.44732 10.7598 7.5 10.6326 7.5 10.5V9.707L8.6465 10.8535C8.7408 10.9446 8.8671 10.995 8.9982 10.9938C9.1293 10.9927 9.25471 10.9401 9.34741 10.8474C9.44011 10.7547 9.4927 10.6293 9.49384 10.4982C9.49498 10.3671 9.44458 10.2408 9.3535 10.1465L8.207 9L9.3535 7.8535C9.44724 7.75974 9.49989 7.63258 9.49989 7.5C9.49989 7.36742 9.44724 7.24026 9.3535 7.1465ZM12.5 8C12.5 8.13261 12.5527 8.25979 12.6464 8.35355C12.7402 8.44732 12.8674 8.5 13 8.5C13.1326 8.5 13.2598 8.44732 13.3536 8.35355C13.4473 8.25979 13.5 8.13261 13.5 8C13.5 7.73478 13.3946 7.48043 13.2071 7.29289C13.0196 7.10536 12.7652 7 12.5 7H11.5C11.2348 7 10.9804 7.10536 10.7929 7.29289C10.6054 7.48043 10.5 7.73478 10.5 8V10C10.5 10.2652 10.6054 10.5196 10.7929 10.7071C10.9804 10.8946 11.2348 11 11.5 11H12.5C12.7652 11 13.0196 10.8946 13.2071 10.7071C13.3946 10.5196 13.5 10.2652 13.5 10C13.5 9.86739 13.4473 9.74021 13.3536 9.64645C13.2598 9.55268 13.1326 9.5 13 9.5C12.8674 9.5 12.7402 9.55268 12.6464 9.64645C12.5527 9.74021 12.5 9.86739 12.5 10H11.5V8H12.5ZM15 8.5C14.7348 8.5 14.4804 8.60536 14.2929 8.79289C14.1054 8.98043 14 9.23478 14 9.5V10C14 10.2652 14.1054 10.5196 14.2929 10.7071C14.4804 10.8946 14.7348 11 15 11H15.5C15.8702 10.9987 16.2267 10.8597 16.5 10.61C16.7733 10.8597 17.1298 10.9987 17.5 11C17.6326 11 17.7598 10.9473 17.8536 10.8536C17.9473 10.7598 18 10.6326 18 10.5C18 10.3674 17.9473 10.2402 17.8536 10.1464C17.7598 10.0527 17.6326 10 17.5 10C17.3674 10 17.2402 9.94732 17.1464 9.85355C17.0527 9.75979 17 9.63261 17 9.5V8C17 7.73478 16.8946 7.48043 16.7071 7.29289C16.5196 7.10536 16.2652 7 16 7H14.5C14.3674 7 14.2402 7.05268 14.1464 7.14645C14.0527 7.24021 14 7.36739 14 7.5C14 7.63261 14.0527 7.75979 14.1464 7.85355C14.2402 7.94732 14.3674 8 14.5 8H16V8.5H15ZM15.5 10H15V9.5H16C16 9.63261 15.9473 9.75979 15.8536 9.85355C15.7598 9.94732 15.6326 10 15.5 10ZM19 6.5V10.5C19 10.6326 19.0527 10.7598 19.1464 10.8536C19.2402 10.9473 19.3674 11 19.5 11C19.6326 11 19.7598 10.9473 19.8536 10.8536C19.9473 10.7598 20 10.6326 20 10.5V6.5C20 6.36739 19.9473 6.24021 19.8536 6.14645C19.7598 6.05268 19.6326 6 19.5 6C19.3674 6 19.2402 6.05268 19.1464 6.14645C19.0527 6.24021 19 6.36739 19 6.5Z" fill="black"/>
</svg>
