<svg width="24" height="24" viewBox="0 0 24 24" fill="none" xmlns="http://www.w3.org/2000/svg">
<circle cx="12" cy="12" r="12" fill="#D9ECCD"/>
<g clip-path="url(#clip0_1998_11357)">
<path d="M10.75 10.5C11.868 10.5 13 10.1565 13 9.5C13 8.1865 8.5 8.1865 8.5 9.5C8.5 10.1565 9.632 10.5 10.75 10.5ZM10.75 9C11.8865 9 12.5 9.355 12.5 9.5C12.5 9.645 11.8865 10 10.75 10C9.6135 10 9 9.645 9 9.5C9 9.355 9.6135 9 10.75 9ZM16.25 12H15.5V9.5C15.5 7.8455 13.369 6.5 10.75 6.5C8.336 6.5 6.3415 7.644 6.043 9.118C6.018 9.157 6 9.2005 6 9.25V14.893C6 16.355 7.9505 17.5 10.4405 17.5H16.25C17.215 17.5 18 16.715 18 15.75V13.75C18 12.785 17.215 12 16.25 12ZM15 12H13.37C14.0635 11.709 14.6265 11.3055 15 10.832V12ZM10.75 7C13.0935 7 15 8.1215 15 9.5C15 10.8785 13.0935 12 10.75 12C8.4065 12 6.5 10.8785 6.5 9.5C6.5 8.1215 8.4065 7 10.75 7ZM17.5 15.75C17.5 16.4395 16.9395 17 16.25 17H16V14.75C16 14.612 15.888 14.5 15.75 14.5C15.612 14.5 15.5 14.612 15.5 14.75V17H14V14.75C14 14.612 13.888 14.5 13.75 14.5C13.612 14.5 13.5 14.612 13.5 14.75V17H12V14.75C12 14.612 11.888 14.5 11.75 14.5C11.612 14.5 11.5 14.612 11.5 14.75V17H10.4405C10.2915 17 10.145 16.9945 10 16.985V14.75C10 14.612 9.888 14.5 9.75 14.5C9.612 14.5 9.5 14.612 9.5 14.75V16.934C7.801 16.7015 6.5 15.8625 6.5 14.893V10.8315C7.2785 11.8185 8.8885 12.4995 10.75 12.4995H16.25C16.9395 12.4995 17.5 13.06 17.5 13.7495V15.75Z" fill="#338000"/>
</g>
<defs>
<clipPath id="clip0_1998_11357">
<rect width="12" height="12" fill="white" transform="translate(6 6)"/>
</clipPath>
</defs>
</svg>
