<svg width="24" height="18" viewBox="0 0 24 18" fill="none" xmlns="http://www.w3.org/2000/svg">
<path d="M0 6.36133H18.5568V11.9508H0V6.36133Z" fill="#FAB03C"/>
<path d="M16.9738 9.94126V11.3499H16.2495V9.94126C16.2495 9.74134 16.4117 9.5791 16.6116 9.5791C16.8116 9.5791 16.9738 9.74134 16.9738 9.94126ZM14.3903 10.4121V11.3499H13.666V10.4121C13.666 10.3161 13.7042 10.224 13.7721 10.1561C13.84 10.0882 13.9321 10.05 14.0281 10.05C14.1242 10.05 14.2163 10.0881 14.2842 10.156C14.3521 10.224 14.3903 10.3161 14.3903 10.4121ZM11.8551 10.7019V11.3499H11.1307V10.7019C11.1307 10.6724 11.1341 10.6434 11.1414 10.6164C11.1604 10.5375 11.2055 10.4673 11.2692 10.4171C11.333 10.3669 11.4118 10.3397 11.4929 10.3397C11.6765 10.3397 11.8281 10.4763 11.8517 10.6536C11.8542 10.6695 11.8551 10.6854 11.8551 10.7019Z" fill="#6D6D6D"/>
<path d="M4.56483 9.20509C4.56005 9.21395 4.55694 9.22361 4.55564 9.23359C4.55803 9.23505 4.56141 9.2365 4.5653 9.23795C6.88753 10.1646 9.86025 10.6746 12.9359 10.6746C14.9109 10.6746 16.8256 10.4679 18.5568 10.0767V11.9508H0V6.36133H18.5568V7.5483C18.0425 8.02591 17.1873 8.43442 15.9965 8.77052C14.1948 9.27902 11.8088 9.55909 9.27839 9.55909C7.62834 9.55909 6.00338 9.43741 4.57978 9.20706C4.57303 9.20556 4.5682 9.20556 4.56483 9.20509Z" fill="#FD8F3E"/>
<path d="M11.8517 10.6541C11.8542 10.6701 11.8551 10.686 11.8551 10.7024V11.3505H11.1307V10.7024C11.1307 10.673 11.1341 10.644 11.1414 10.617C11.3771 10.6324 11.6137 10.6449 11.8517 10.6541ZM13.666 10.6657C13.9089 10.6594 14.1503 10.6502 14.3903 10.6377V11.3504H13.666V10.6657ZM16.9738 10.376V11.3505H16.2495V10.4759C16.4914 10.4462 16.7329 10.4129 16.9738 10.376Z" fill="#565656"/>
<path d="M24 10.8944V13.9163C24 14.4268 23.7281 14.8976 23.2877 15.156C22.2326 15.775 20.9273 16.298 19.4434 16.6901C18.5264 16.933 17.5412 17.1262 16.504 17.2614C16.2629 17.293 16.0215 17.3212 15.7796 17.3459C14.8635 17.4396 13.9123 17.4888 12.9359 17.4888H12.8968C12.6553 17.4885 12.4138 17.4849 12.1724 17.4782C11.1781 17.4521 10.2128 17.3744 9.2895 17.2507C9.0475 17.2188 8.80602 17.1831 8.56514 17.1435C7.54046 16.976 6.57366 16.7514 5.68224 16.4776C5.43907 16.4033 5.19756 16.3236 4.95788 16.2386C3.84624 15.846 2.87227 15.3728 2.07497 14.8377C1.81421 14.6624 1.57228 14.4809 1.35061 14.293C0.810752 13.8357 0.391596 13.3432 0.112971 12.8245C0.038458 12.6848 -0.000350567 12.5289 2.38612e-06 12.3706V6.36239C2.38612e-06 5.73267 0.788112 5.15466 2.10155 4.70269C3.8033 4.11741 6.3863 3.74414 9.27839 3.74414C12.171 3.74414 14.7545 4.11741 16.4557 4.70316C17.7692 5.15466 18.5568 5.73267 18.5568 6.36239C18.5568 7.80867 14.4029 8.98064 9.27839 8.98064C7.60224 8.98064 6.02996 8.85558 4.6725 8.63587C3.96989 8.52239 3.68982 9.5138 4.35089 9.77742C6.66061 10.6988 9.65893 11.2551 12.9359 11.2551C15.3021 11.2551 17.5224 10.9649 19.4434 10.4569C20.3662 10.213 21.2199 9.91847 21.9873 9.58186C22.9362 9.16561 24 9.85856 24 10.8944Z" fill="#F6CB43"/>
<path d="M16.4557 4.70218V5.74234C16.4557 6.5087 15.6594 7.10265 14.0885 7.5083C12.7962 7.84201 11.0883 8.02599 9.27836 8.02599C7.46847 8.02599 5.76044 7.84201 4.46823 7.5083C2.89783 7.10265 2.10156 6.5087 2.10156 5.74234V4.70171C3.80331 4.11643 6.38631 3.74316 9.27841 3.74316C12.1709 3.74312 14.7544 4.11643 16.4557 4.70218ZM24 10.8935V13.9155C24 14.4259 23.7281 14.8967 23.2877 15.1551C22.2325 15.7741 20.9273 16.2971 19.4433 16.6892V10.456C20.3662 10.2121 21.2199 9.91759 21.9873 9.58098C22.9361 9.16473 24 9.85768 24 10.8935Z" fill="#FAB03C"/>
<path d="M24.0001 10.8937V13.9155C24.0001 14.427 23.7267 14.8979 23.2854 15.1566C22.3702 15.6933 21.2674 16.1573 20.0229 16.5272V10.294C20.7273 10.0846 21.3863 9.84506 21.9916 9.57928C22.9385 9.1635 24.0001 9.85946 24.0001 10.8937Z" fill="#82807F"/>
<path d="M22.0114 13.8886C22.368 13.8886 22.657 13.3556 22.657 12.6982C22.657 12.0408 22.368 11.5078 22.0114 11.5078C21.6548 11.5078 21.3657 12.0408 21.3657 12.6982C21.3657 13.3556 21.6548 13.8886 22.0114 13.8886Z" fill="#565656"/>
<path d="M4.35098 9.74159C4.30567 9.74157 4.26076 9.73302 4.21861 9.71637C4.14084 9.68586 2.30447 8.95287 1.41248 7.63081C1.38539 7.5914 1.36637 7.54702 1.35652 7.50022C1.34667 7.45342 1.34619 7.40513 1.3551 7.35815C1.36401 7.31116 1.38214 7.26641 1.40844 7.22646C1.43474 7.18652 1.46869 7.15218 1.50833 7.12543C1.54798 7.09868 1.59252 7.08005 1.6394 7.07061C1.68629 7.06116 1.73458 7.0611 1.78148 7.07042C1.82839 7.07974 1.87299 7.09825 1.9127 7.1249C1.95241 7.15155 1.98645 7.1858 2.01286 7.22567C2.78034 8.36314 4.46658 9.03556 4.4835 9.04226C4.56208 9.07307 4.62744 9.13036 4.66827 9.20424C4.70911 9.27811 4.72285 9.36393 4.70714 9.44686C4.69142 9.52979 4.64723 9.60463 4.58221 9.65844C4.51718 9.71226 4.43539 9.74167 4.35098 9.74159Z" fill="#FD8F3E"/>
<path d="M15.8763 2.21582V5.74288C15.8763 6.12632 15.3866 6.48027 14.5594 6.7642C14.3407 6.83999 14.0983 6.91049 13.8351 6.97523C13.327 7.10076 12.7423 7.2051 12.1 7.2838C11.859 7.313 11.6175 7.33811 11.3757 7.35913C10.8261 7.40648 10.2442 7.43591 9.64064 7.44412C9.39921 7.44799 9.15775 7.44799 8.91632 7.44412C8.31271 7.43591 7.73081 7.40643 7.18129 7.35913C6.93944 7.33808 6.69795 7.31297 6.45693 7.2838C5.8147 7.2051 5.22989 7.10029 4.7219 6.97476C4.45875 6.91054 4.21631 6.84004 3.99754 6.7642C3.17081 6.47976 2.68115 6.12627 2.68115 5.74288V2.21582H15.8763Z" fill="#F6CB43"/>
<path d="M9.27847 3.92009C12.9222 3.92009 15.876 3.1571 15.876 2.21591C15.876 1.27471 12.9222 0.511719 9.27847 0.511719C5.63474 0.511719 2.68091 1.27471 2.68091 2.21591C2.68091 3.1571 5.63474 3.92009 9.27847 3.92009Z" fill="#F8E98E"/>
<path d="M9.27847 2.9387C11.6692 2.9387 13.6072 2.65293 13.6072 2.30041C13.6072 1.94788 11.6692 1.66211 9.27847 1.66211C6.88776 1.66211 4.94971 1.94788 4.94971 2.30041C4.94971 2.65293 6.88776 2.9387 9.27847 2.9387Z" fill="#FAB03C"/>
<path d="M2.07507 11.3011V14.8369C1.8143 14.6616 1.57238 14.48 1.35071 14.2922V11.3012C1.35068 11.2536 1.36003 11.2065 1.37823 11.1625C1.39642 11.1186 1.42309 11.0787 1.45673 11.045C1.49036 11.0114 1.53029 10.9847 1.57424 10.9665C1.61819 10.9483 1.6653 10.939 1.71286 10.939C1.80891 10.939 1.90101 10.9772 1.96893 11.0451C2.03685 11.113 2.07503 11.2051 2.07507 11.3011ZM5.68229 12.9913V16.4769C5.43912 16.4025 5.19761 16.3228 4.95793 16.2379V12.9913C4.9579 12.9438 4.96725 12.8967 4.98544 12.8527C5.00364 12.8088 5.03031 12.7688 5.06395 12.7352C5.09758 12.7016 5.13751 12.6749 5.18146 12.6567C5.22541 12.6385 5.27252 12.6292 5.32008 12.6292C5.41613 12.6292 5.50824 12.6673 5.57617 12.7352C5.64409 12.8031 5.68226 12.8952 5.68229 12.9913ZM9.28955 13.8122V17.25C9.04755 17.218 8.80607 17.1823 8.56519 17.1428V13.8122C8.56519 13.6123 8.72743 13.4501 8.92735 13.4501C9.12727 13.4501 9.28955 13.6123 9.28955 13.8122ZM12.8968 14.1478V17.488C12.6553 17.4876 12.4139 17.4841 12.1725 17.4774V14.1478C12.1725 14.0518 12.2107 13.9597 12.2786 13.8917C12.3465 13.8238 12.4386 13.7857 12.5346 13.7856C12.6307 13.7857 12.7228 13.8238 12.7907 13.8917C12.8586 13.9597 12.8968 14.0517 12.8968 14.1478ZM16.504 14.0029V17.2606C16.263 17.2922 16.0215 17.3203 15.7797 17.3451V14.0029C15.7797 13.9069 15.8179 13.8148 15.8858 13.7469C15.9537 13.679 16.0458 13.6408 16.1418 13.6408C16.2379 13.6408 16.33 13.679 16.3979 13.7469C16.4658 13.8148 16.504 13.9069 16.504 14.0029ZM4.72182 5.12295V6.97437C4.45866 6.91015 4.21622 6.83965 3.99746 6.7638V5.1229C3.9975 5.02686 4.03566 4.93477 4.10357 4.86686C4.17148 4.79895 4.26358 4.76078 4.35961 4.76074C4.40718 4.76072 4.45429 4.77008 4.49825 4.78828C4.5422 4.80647 4.58213 4.83315 4.61577 4.86679C4.64941 4.90043 4.67609 4.94036 4.69428 4.98431C4.71248 5.02827 4.72184 5.07538 4.72182 5.12295ZM7.18121 5.63145V7.35879C6.93935 7.33774 6.69786 7.31263 6.45685 7.28346V5.63145C6.45683 5.58388 6.46619 5.53678 6.48438 5.49283C6.50257 5.44889 6.52925 5.40895 6.56288 5.37532C6.59651 5.34169 6.63644 5.31501 6.68039 5.29682C6.72434 5.27863 6.77144 5.26927 6.81901 5.26929C6.86658 5.26925 6.91369 5.27859 6.95765 5.29678C7.00161 5.31497 7.04155 5.34164 7.07519 5.37528C7.10883 5.40891 7.13551 5.44885 7.1537 5.49281C7.17189 5.53676 7.18124 5.58387 7.18121 5.63145ZM9.6406 5.83038V7.44373C9.39918 7.4476 9.15771 7.4476 8.91629 7.44373V5.83038C8.91629 5.63046 9.07852 5.46823 9.27844 5.46823C9.47836 5.46823 9.6406 5.63046 9.6406 5.83038ZM12.1 5.87576V7.28341C11.859 7.31261 11.6175 7.33772 11.3757 7.35874V5.87576C11.3757 5.77972 11.4139 5.68763 11.4818 5.61972C11.5497 5.55181 11.6418 5.51364 11.7378 5.5136C11.8339 5.51364 11.926 5.5518 11.9939 5.61971C12.0618 5.68762 12.1 5.77972 12.1 5.87576ZM14.5594 5.61213V6.76385C14.3407 6.83965 14.0983 6.91015 13.8351 6.97488V5.61213C13.835 5.56457 13.8444 5.51746 13.8626 5.47351C13.8808 5.42956 13.9075 5.38963 13.9411 5.35599C13.9747 5.32236 14.0147 5.29569 14.0586 5.27749C14.1026 5.2593 14.1497 5.24995 14.1972 5.24998C14.2448 5.24995 14.2919 5.25929 14.3359 5.27748C14.3798 5.29567 14.4198 5.32234 14.4534 5.35598C14.487 5.38961 14.5137 5.42955 14.5319 5.4735C14.5501 5.51745 14.5595 5.56456 14.5594 5.61213Z" fill="#82807F"/>
</svg>
