<svg width="54" height="58" viewBox="0 0 54 58" fill="none" xmlns="http://www.w3.org/2000/svg">
<path d="M34.7822 26.3369C38.5703 23.815 41.0687 19.5111 41.0687 14.6197C41.0687 6.85016 34.7693 0.550781 26.9997 0.550781C19.2301 0.550781 12.9308 6.85016 12.9308 14.6197C12.9308 19.5111 15.4292 23.815 19.2172 26.3369C19.2172 26.3369 19.2184 26.338 19.2196 26.338C19.2184 26.338 19.2184 26.3369 19.2184 26.3369C10.151 29.0697 3.09069 36.429 0.817383 45.6875L0.818555 45.6887C1.19014 46.1352 1.57286 46.5722 1.96635 46.9995C2.06131 47.1038 2.16097 47.2035 2.25828 47.3055C2.55988 47.627 2.86749 47.9428 3.18097 48.2528C3.31111 48.3806 3.44359 48.5037 3.57607 48.6291C3.86632 48.9063 4.16143 49.1783 4.46124 49.4451C4.61014 49.5764 4.76138 49.7066 4.91145 49.8355C5.20573 50.0876 5.50352 50.335 5.80718 50.5765C5.96662 50.7043 6.12724 50.8298 6.28787 50.9552C6.59505 51.1915 6.90658 51.4221 7.22228 51.6469C7.38524 51.763 7.54587 51.8814 7.71118 51.9951C8.04414 52.2249 8.38297 52.4453 8.72414 52.6634C8.87773 52.7607 9.0278 52.8615 9.18256 52.9577C9.57764 53.1997 9.97751 53.4339 10.3819 53.66C10.4886 53.7197 10.593 53.7842 10.7008 53.8429C11.2246 54.13 11.7559 54.4032 12.2941 54.6624C12.307 54.6682 12.3211 54.6741 12.334 54.68C12.8487 54.9262 13.3716 55.1595 13.9003 55.3799C14.0645 55.4491 14.2321 55.51 14.3975 55.5757C14.7797 55.7281 15.1619 55.8782 15.5511 56.0165C15.7575 56.0904 15.9661 56.1572 16.1737 56.2275C16.5277 56.3471 16.8841 56.4632 17.2429 56.5699C17.4703 56.6379 17.699 56.7012 17.9288 56.7645C18.2758 56.8606 18.6252 56.9521 18.9781 57.0377C19.568 57.1807 20.1619 57.307 20.759 57.4164C21.0005 57.4609 21.2408 57.5066 21.4847 57.5453C21.8528 57.6051 22.2233 57.6555 22.595 57.7036C22.8295 57.7341 23.0628 57.7681 23.2984 57.7927C23.7088 57.8373 24.1226 57.8689 24.5365 57.8982C24.737 57.9123 24.9351 57.9334 25.1356 57.944C25.7535 57.9791 26.3737 57.9991 26.9997 57.9991C27.6258 57.9991 28.246 57.9791 28.8639 57.9463C29.0644 57.9357 29.2637 57.9146 29.463 57.9006C29.878 57.8713 30.2919 57.8396 30.701 57.7951C30.9367 57.7693 31.17 57.7364 31.4045 57.706C31.7761 57.6579 32.1466 57.6075 32.5148 57.5477C32.7575 57.5078 32.999 57.4633 33.2405 57.4187C33.8376 57.3096 34.4315 57.1833 35.0214 57.04C35.3731 56.9544 35.7225 56.863 36.0707 56.7669C36.2993 56.7035 36.5291 56.6402 36.7566 56.5722C37.1165 56.4644 37.4717 56.3483 37.8258 56.2299C38.0333 56.1595 38.2432 56.0927 38.4483 56.0189C38.8354 55.8785 39.22 55.7316 39.602 55.578C39.7673 55.5124 39.935 55.4502 40.0991 55.3822C40.6248 55.1631 41.1447 54.9305 41.6584 54.6846C41.6737 54.6776 41.6901 54.6706 41.7053 54.6635C42.2446 54.4044 42.7757 54.1301 43.2986 53.844C43.4065 53.7854 43.5108 53.7209 43.6175 53.6611C44.0219 53.435 44.4218 53.2009 44.8169 52.9589C44.9717 52.8639 45.1229 52.7631 45.2753 52.6646C45.6165 52.4465 45.9553 52.2249 46.2883 51.9963C46.4524 51.8826 46.6142 51.7653 46.7772 51.6481C47.0923 51.4225 47.4038 51.1919 47.7116 50.9564C47.8731 50.8318 48.0334 50.7056 48.1923 50.5777C48.4951 50.3359 48.7937 50.0888 49.088 49.8367C49.2392 49.7077 49.3905 49.5776 49.5382 49.4463C49.838 49.1795 50.1331 48.9075 50.4234 48.6303C50.5547 48.5048 50.6884 48.3806 50.8185 48.254C51.1323 47.9443 51.4399 47.6285 51.7412 47.3066C51.8373 47.2035 51.937 47.1038 52.0331 47.0006C52.4259 46.5727 52.8104 46.1366 53.1809 45.6899L53.1821 45.6887C50.9099 36.429 43.8497 29.0697 34.7822 26.3369Z" fill="#C6C3BD"/>
</svg>
