<svg width="24" height="24" viewBox="0 0 24 24" fill="none" xmlns="http://www.w3.org/2000/svg">
<path d="M12 18.75C15.1066 18.75 17.625 16.2316 17.625 13.125C17.625 10.0184 15.1066 7.5 12 7.5C8.8934 7.5 6.375 10.0184 6.375 13.125C6.375 16.2316 8.8934 18.75 12 18.75Z" fill="#FFA426"/>
<path d="M7.875 13.125C7.87573 11.7639 8.37025 10.4492 9.26677 9.42506C10.1633 8.40088 11.4009 7.73674 12.75 7.55588C11.9523 7.44222 11.1395 7.50125 10.3667 7.72899C9.59377 7.95672 8.87883 8.34784 8.27023 8.87586C7.66163 9.40389 7.17357 10.0565 6.83908 10.7895C6.5046 11.5226 6.3315 12.3189 6.3315 13.1246C6.3315 13.9304 6.5046 14.7267 6.83908 15.4597C7.17357 16.1928 7.66163 16.8454 8.27023 17.3734C8.87883 17.9014 9.59377 18.2925 10.3667 18.5203C11.1395 18.748 11.9523 18.807 12.75 18.6934C11.4011 18.5125 10.1635 17.8485 9.26702 16.8245C8.37051 15.8005 7.87592 14.486 7.875 13.125Z" fill="#FE8205"/>
<path d="M12 7.50001C11.749 7.50187 11.4985 7.52053 11.25 7.55588C12.5987 7.73679 13.8359 8.401 14.7319 9.42517C15.6278 10.4493 16.1217 11.7639 16.1217 13.1246C16.1217 14.4854 15.6278 15.7999 14.7319 16.8241C13.8359 17.8483 12.5987 18.5125 11.25 18.6934C12.0137 18.7973 12.7905 18.7432 13.5324 18.5342C14.2742 18.3253 14.9652 17.9661 15.5624 17.4789C16.1596 16.9917 16.6502 16.387 17.0038 15.7022C17.3575 15.0174 17.5666 14.2672 17.6181 13.4983C17.6696 12.7293 17.5625 11.9579 17.3034 11.2321C17.0442 10.5062 16.6387 9.84143 16.1118 9.27892C15.585 8.71642 14.9481 8.26824 14.2407 7.96222C13.5334 7.6562 12.7707 7.49887 12 7.50001Z" fill="#FFC247"/>
<path d="M14.157 5.56538C14.7375 4.98751 15.7853 3.00001 15.2059 2.41913C14.6265 1.83826 12.6375 2.88751 12.0596 3.46801C11.7855 3.74697 11.6327 4.12291 11.6344 4.514C11.6361 4.9051 11.7922 5.27969 12.0688 5.55623C12.3453 5.83278 12.7199 5.9889 13.111 5.99062C13.5021 5.99233 13.878 5.8395 14.157 5.56538Z" fill="#A5E887"/>
<path d="M14.157 4.44037C13.9841 4.61303 13.7712 4.7403 13.5372 4.81087C13.3033 4.88144 13.0555 4.89312 12.816 4.84489C12.5764 4.79665 12.3525 4.68998 12.1641 4.53437C11.9757 4.37875 11.8286 4.179 11.736 3.95287C11.6054 4.27 11.5888 4.62257 11.689 4.95057C11.7891 5.27857 11.9999 5.56173 12.2853 5.75184C12.5707 5.94196 12.9132 6.02727 13.2545 5.99327C13.5958 5.95928 13.9147 5.80806 14.157 5.56537C14.7176 5.00512 15.7136 3.12787 15.2524 2.48325C15.0229 3.2028 14.6503 3.86852 14.157 4.44037Z" fill="#86C983"/>
<path d="M14.5151 3.64014L13.9849 3.10989L11.25 5.84552C10.9013 5.51395 10.4887 5.25689 10.0374 5.09003C9.5861 4.92318 9.10552 4.85002 8.625 4.87502V5.62502C11.5766 5.62502 11.625 8.50352 11.625 8.62502V9.00002H12.375V8.62502C12.342 7.85217 12.1165 7.0998 11.7191 6.43614L14.5151 3.64014Z" fill="#98BA5C"/>
<path d="M12 17.25C10.9064 17.2487 9.85792 16.8137 9.08461 16.0404C8.3113 15.2671 7.87629 14.2186 7.875 13.125H8.625C8.62609 14.0198 8.98202 14.8776 9.61472 15.5103C10.2474 16.143 11.1052 16.4989 12 16.5V17.25ZM7.875 11.625H8.625V12.375H7.875V11.625ZM14.25 10.125H15V10.875H14.25V10.125ZM15.75 11.625H16.5V12.375H15.75V11.625ZM14.25 11.625H15V12.375H14.25V11.625Z" fill="#F5E3A7"/>
<path d="M4.875 11.25C5.51471 11.2866 6.1466 11.409 6.75375 11.6137C7.38375 11.805 7.875 12 7.875 12L7.3275 12.2737L6.375 12.75L7.125 13.875L4.875 13.125L2.625 13.875L3.375 12.75L2.4225 12.2737L1.875 12C1.875 12 3.63 11.2988 4.7625 11.2538C4.8 11.25 4.8375 11.25 4.875 11.25Z" fill="#A5E887"/>
<path d="M9.375 15.375C9.37528 15.8231 9.28604 16.2668 9.1125 16.68L7.5 16.875C7.00272 16.875 6.52581 17.0725 6.17417 17.4242C5.82254 17.7758 5.625 18.2527 5.625 18.75H3.75C2.97324 18.7491 2.22057 18.4803 1.61898 17.9889C1.01739 17.4975 0.603709 16.8137 0.447732 16.0527C0.291754 15.2918 0.403029 14.5003 0.762781 13.8119C1.12253 13.1235 1.70874 12.5802 2.4225 12.2737L3.375 12.75L2.625 13.875L4.875 13.125L7.125 13.875L6.375 12.75L7.3275 12.2737C7.93507 12.5332 8.45302 12.9655 8.81702 13.5169C9.18103 14.0682 9.37505 14.7143 9.375 15.375Z" fill="#FF475A"/>
<path d="M7.3275 13.0237C7.87916 13.2607 8.35743 13.6409 8.71281 14.1248C9.06819 14.6088 9.28775 15.1789 9.34875 15.7762C9.4401 15.0519 9.29201 14.3175 8.92708 13.6851C8.56214 13.0527 8.00039 12.5571 7.3275 12.2737L6.375 12.75L6.75 13.3125L7.3275 13.0237ZM2.625 14.625L4.875 13.875L7.125 14.625L6.48225 13.6609L4.875 13.125L3.26775 13.6609L2.625 14.625ZM1.365 13.74C1.66846 13.4358 2.02744 13.1927 2.4225 13.0237L3 13.3125L3.375 12.75L2.4225 12.2737C1.75477 12.5567 1.19662 13.0483 0.831527 13.6749C0.466437 14.3016 0.314037 15.0295 0.397126 15.75C0.480978 14.9892 0.822501 14.2799 1.365 13.74Z" fill="#F03049"/>
<path d="M19.875 18.75C19.874 19.4805 19.6069 20.1857 19.1238 20.7336C18.6407 21.2816 17.9746 21.6349 17.25 21.7275C17.1256 21.7426 17.0003 21.7501 16.875 21.75C16.7495 21.7507 16.6242 21.7419 16.5 21.7238C16.3938 21.7123 16.2886 21.6935 16.185 21.6675L14.25 21.435L13.5 21.345L9.375 20.85L7.5 20.625C7.00272 20.625 6.52581 20.4275 6.17417 20.0758C5.82254 19.7242 5.625 19.2473 5.625 18.75C5.625 18.2527 5.82254 17.7758 6.17417 17.4242C6.52581 17.0725 7.00272 16.875 7.5 16.875L9.1125 16.68L10.875 16.47L11.625 16.38L15 15.975L16.875 15.75C17.6056 15.7497 18.3111 16.0164 18.8588 16.5C18.9828 16.6084 19.097 16.7276 19.2 16.8563C19.3144 16.9948 19.4149 17.1442 19.5 17.3025C19.7472 17.7448 19.8764 18.2433 19.875 18.75Z" fill="#FFC247"/>
<path d="M23.625 18V19.5H21L22.5 20.25L22.125 21.375L19.2 20.6437C19.6367 20.1092 19.8752 19.4402 19.875 18.75C19.8764 18.2433 19.7472 17.7448 19.5 17.3025C19.4149 17.1442 19.3144 16.9948 19.2 16.8563L19.5 16.7812L22.125 16.125L22.5 17.25L21 18H23.625Z" fill="#A5E887"/>
<path d="M8.625 20.76V18.75H9.375V20.85L8.625 20.76ZM11.625 16.38V18.375H10.875V16.47L11.625 16.38ZM14.25 19.125V21.435L13.5 21.345V19.125H14.25ZM15.75 15.885V18H15V15.975L15.75 15.885ZM16.5 21.7238V20.25H17.25V21.7275L16.5 21.7238ZM10.875 19.125H11.625V19.875H10.875V19.125ZM16.5 18.75H17.25V19.5H16.5V18.75Z" fill="#FF9500"/>
<path d="M4.5 12.375C4.49325 12.022 4.45775 11.6701 4.39387 11.3228C4.34402 10.8449 4.15876 10.3913 3.85987 10.0151L4.39012 9.48489C4.80419 9.96503 5.06295 10.5594 5.13225 11.1896C5.20454 11.5808 5.24393 11.9773 5.25 12.375H4.5Z" fill="#98BA5C"/>
<path d="M19.875 18.75C19.874 19.4805 19.6069 20.1857 19.1238 20.7336C18.6407 21.2816 17.9746 21.6349 17.25 21.7275C17.1256 21.7426 17.0003 21.7501 16.875 21.75C16.7495 21.7507 16.6242 21.7419 16.5 21.7238C16.3938 21.7123 16.2886 21.6935 16.185 21.6675L14.25 21.435L13.5 21.345L9.375 20.85L7.5 20.625C7.20475 20.6282 6.91301 20.5608 6.64903 20.4286C6.38505 20.2963 6.15646 20.1029 5.98225 19.8645C5.80803 19.6261 5.69324 19.3496 5.64741 19.0579C5.60159 18.7662 5.62604 18.4678 5.71875 18.1875C5.83842 18.5667 6.07539 18.8981 6.39551 19.134C6.71563 19.3699 7.10237 19.498 7.5 19.5L9.375 19.725L13.5 20.22L14.25 20.31L16.185 20.5425C16.2886 20.5685 16.3938 20.5873 16.5 20.5988C16.6242 20.6169 16.7495 20.6257 16.875 20.625C17.0003 20.6251 17.1256 20.6176 17.25 20.6025C18.0157 20.5072 18.7147 20.1187 19.2 19.5187C19.5108 19.1358 19.7232 18.6826 19.8187 18.1987C19.8545 18.3804 19.8734 18.5649 19.875 18.75Z" fill="#FFA426"/>
<path d="M9.375 19.725V20.85L8.625 20.76V19.635L9.375 19.725Z" fill="#FE8205"/>
<path d="M11.625 16.38V18.375H10.875V16.47L11.625 16.38Z" fill="#FF9500"/>
<path d="M14.25 20.31V21.435L13.5 21.345V20.22L14.25 20.31Z" fill="#FE8205"/>
<path d="M15.75 15.885V18H15V15.975L15.75 15.885Z" fill="#FF9500"/>
<path d="M17.25 20.6025V21.7275L16.5 21.7238V20.5988C16.6242 20.617 16.7495 20.6257 16.875 20.625C17.0003 20.6251 17.1256 20.6176 17.25 20.6025Z" fill="#FE8205"/>
<path d="M10.875 19.125H11.625V19.875H10.875V19.125ZM16.5 18.75H17.25V19.5H16.5V18.75Z" fill="#FF9500"/>
<path d="M18.4988 15.1013C18.0322 15.175 17.573 15.2892 17.1262 15.4425C16.8342 15.5401 16.5528 15.667 16.2863 15.8213L15.375 15.93L13.6275 16.14L13.125 15.6375L14.2012 14.5613C15.0075 13.755 15.2737 11.8763 15.2737 11.8763C15.4989 12.1007 15.7684 12.2757 16.065 12.39C16.0606 12.6432 16.1076 12.8947 16.2029 13.1292C16.2983 13.3638 16.4402 13.5767 16.62 13.755C16.8648 14.0017 17.1741 14.1746 17.5125 14.2538V14.2575C17.667 14.2955 17.8259 14.3132 17.985 14.31C18.0993 14.6066 18.2743 14.8761 18.4988 15.1013Z" fill="#98BA5C"/>
<path d="M17.985 14.31C17.8259 14.3132 17.667 14.2955 17.5125 14.2575V14.2537C17.4694 14.244 17.4274 14.2279 17.385 14.2162C17.0175 14.2878 16.6554 14.3848 16.3013 14.5065C16.0092 14.6041 15.7278 14.731 15.4612 14.8852L14.55 14.994L13.6635 15.1005C13.4837 15.2792 13.3042 15.4582 13.125 15.6375L13.6275 16.14L15.375 15.93L16.2863 15.8212C16.5528 15.667 16.8342 15.5401 17.1262 15.4425C17.573 15.2892 18.0322 15.175 18.4988 15.1012C18.2743 14.8761 18.0993 14.6066 17.985 14.31Z" fill="#7A9E51"/>
<path d="M23.07 9.99377C23.4249 10.3512 23.6241 10.8345 23.6241 11.3381C23.6241 11.8418 23.4249 12.3251 23.07 12.6825C22.8701 12.8807 22.6277 13.0307 22.3613 13.1213C22.453 13.6781 22.3349 14.2492 22.0298 14.7239C21.7248 15.1987 21.2544 15.5434 20.7098 15.6913C20.1652 15.8393 19.5851 15.7799 19.0817 15.5247C18.5784 15.2696 18.1876 14.8367 17.985 14.31C17.8259 14.3132 17.667 14.2955 17.5125 14.2575V14.2538C17.1741 14.1746 16.8648 14.0017 16.62 13.755C16.4402 13.5767 16.2983 13.3638 16.2029 13.1293C16.1076 12.8947 16.0606 12.6432 16.065 12.39C15.7106 12.2537 15.3959 12.0309 15.1495 11.7419C14.9031 11.453 14.7328 11.107 14.6542 10.7355C14.5756 10.364 14.5911 9.9787 14.6993 9.61469C14.8075 9.25069 15.005 8.91951 15.2738 8.65127C15.2925 8.63252 15.3113 8.61377 15.3338 8.59502C15.5879 8.35753 15.8932 8.1816 16.2261 8.08082C16.559 7.98004 16.9106 7.9571 17.2538 8.01377C17.3443 7.74728 17.4944 7.50491 17.6925 7.30502C18.0499 6.95012 18.5332 6.75095 19.0369 6.75095C19.5406 6.75095 20.0238 6.95012 20.3813 7.30502C20.4188 7.34252 20.445 7.38752 20.4788 7.42502C20.8242 7.28651 21.2027 7.25249 21.5674 7.32718C21.932 7.40187 22.2667 7.58198 22.5299 7.84516C22.793 8.10835 22.9732 8.44302 23.0478 8.80764C23.1225 9.17227 23.0885 9.5508 22.95 9.89627C22.9875 9.93002 23.0325 9.95627 23.07 9.99377Z" fill="#A5E887"/>
<path d="M23.07 9.99375C23.0325 9.95625 22.9875 9.93 22.95 9.89625C23.0885 9.55078 23.1225 9.17225 23.0478 8.80762C22.9731 8.44299 22.793 8.10832 22.5299 7.84514C22.2667 7.58196 21.932 7.40185 21.5674 7.32716C21.2027 7.25247 20.8242 7.28649 20.4787 7.425C20.445 7.3875 20.4187 7.3425 20.3812 7.305C20.0935 7.02064 19.7225 6.83544 19.3223 6.7763C18.922 6.71716 18.5134 6.78715 18.1556 6.97612C18.3257 7.06172 18.4819 7.1726 18.6187 7.305C18.6562 7.3425 18.6825 7.3875 18.7162 7.425C19.0617 7.28649 19.4402 7.25247 19.8049 7.32716C20.1695 7.40185 20.5042 7.58196 20.7674 7.84514C21.0305 8.10832 21.2106 8.44299 21.2853 8.80762C21.36 9.17225 21.326 9.55078 21.1875 9.89625C21.225 9.93 21.27 9.95625 21.3075 9.99375C21.6624 10.3512 21.8616 10.8344 21.8616 11.3381C21.8616 11.8418 21.6624 12.3251 21.3075 12.6825C21.1076 12.8806 20.8652 13.0307 20.5987 13.1212C20.6825 13.6266 20.593 14.1453 20.3447 14.5933C20.0964 15.0413 19.704 15.3923 19.2311 15.5891C19.6062 15.747 20.0168 15.8014 20.42 15.7468C20.8233 15.6922 21.2046 15.5305 21.5241 15.2785C21.8437 15.0265 22.0899 14.6935 22.2372 14.3141C22.3844 13.9347 22.4272 13.5228 22.3612 13.1212C22.6277 13.0307 22.8701 12.8806 23.07 12.6825C23.4249 12.3251 23.6241 11.8418 23.6241 11.3381C23.6241 10.8344 23.4249 10.3512 23.07 9.99375Z" fill="#86C983"/>
</svg>
