<svg width="32" height="32" viewBox="0 0 32 32" fill="none" xmlns="http://www.w3.org/2000/svg">
<circle cx="16" cy="16" r="16" fill="#D9ECCD"/>
<g clip-path="url(#clip0_1948_86851)">
<path d="M23.5371 9.52455L22.4724 8.45989C21.9538 7.94055 21.1298 7.85255 20.5124 8.24922L19.2518 9.05989C18.2631 8.59455 17.1598 8.33322 15.9964 8.33322C11.7698 8.33322 8.33045 11.7726 8.33045 15.9999C8.33045 17.1632 8.59111 18.2666 9.05711 19.2546L8.24711 20.5152C7.85045 21.1326 7.93911 21.9566 8.45711 22.4746L9.52178 23.5392C9.82311 23.8412 10.2284 23.9979 10.6351 23.9979C10.9284 23.9979 11.2231 23.9166 11.4818 23.7506L12.7424 22.9399C13.7311 23.4052 14.8344 23.6666 15.9978 23.6666C20.2251 23.6666 23.6644 20.2272 23.6644 15.9999C23.6644 14.8366 23.4038 13.7332 22.9378 12.7452L23.7478 11.4846C24.1444 10.8672 24.0558 10.0432 23.5378 9.52522L23.5371 9.52455ZM11.1211 23.1892C10.7651 23.4172 10.2918 23.3672 9.99311 23.0679L8.92845 22.0032C8.62978 21.7052 8.57911 21.2306 8.80711 20.8759L9.41578 19.9286C10.0671 21.0159 10.9804 21.9286 12.0671 22.5806L11.1211 23.1892ZM15.9971 22.9999C12.1371 22.9999 8.99711 19.8599 8.99711 15.9999C8.99711 12.1399 12.1371 8.99989 15.9971 8.99989C19.8571 8.99989 22.9971 12.1399 22.9971 15.9999C22.9971 19.8599 19.8571 22.9999 15.9971 22.9999ZM23.1871 11.1239L22.5784 12.0712C21.9271 10.9839 21.0138 10.0712 19.9271 9.41922L20.8738 8.81055C21.2284 8.58122 21.7031 8.63255 22.0018 8.93189L23.0664 9.99655C23.3651 10.2946 23.4151 10.7692 23.1871 11.1239ZM17.9971 19.9999C17.9971 20.3679 17.6984 20.6666 17.3304 20.6666C16.9624 20.6666 16.6638 20.3679 16.6638 19.9999C16.6638 19.6319 16.9624 19.3332 17.3304 19.3332C17.6984 19.3332 17.9971 19.6319 17.9971 19.9999ZM11.3304 15.3332C11.3304 14.9652 11.6291 14.6666 11.9971 14.6666C12.3651 14.6666 12.6638 14.9652 12.6638 15.3332C12.6638 15.7012 12.3651 15.9999 11.9971 15.9999C11.6291 15.9999 11.3304 15.7012 11.3304 15.3332ZM16.6638 15.9999C16.6638 16.3679 16.3651 16.6666 15.9971 16.6666C15.6291 16.6666 15.3304 16.3679 15.3304 15.9999C15.3304 15.6319 15.6291 15.3332 15.9971 15.3332C16.3651 15.3332 16.6638 15.6319 16.6638 15.9999ZM18.6638 12.6666C18.6638 12.2986 18.9624 11.9999 19.3304 11.9999C19.6984 11.9999 19.9971 12.2986 19.9971 12.6666C19.9971 13.0346 19.6984 13.3332 19.3304 13.3332C18.9624 13.3332 18.6638 13.0346 18.6638 12.6666ZM11.3304 17.6666C11.3304 19.3206 12.6764 20.6666 14.3304 20.6666H14.6638V17.3332H11.3304V17.6666ZM13.9971 17.9999V19.9766C12.9764 19.8292 12.1671 19.0199 12.0211 17.9999H13.9971ZM20.2164 14.6432L17.8591 16.9999L20.2164 19.3566L20.4524 19.1206C21.0191 18.5539 21.3311 17.8012 21.3311 16.9992C21.3311 16.1972 21.0191 15.4446 20.4524 14.8779L20.2164 14.6419V14.6432ZM20.1998 18.3979L18.8018 16.9999L20.1998 15.6019C20.5011 16.0039 20.6638 16.4886 20.6638 16.9999C20.6638 17.5112 20.5011 17.9959 20.1998 18.3979ZM16.6638 10.9999V10.6666H13.3304V13.9999H13.6638C15.3178 13.9999 16.6638 12.6539 16.6638 10.9999ZM13.9971 11.3332H15.9731C15.8264 12.3532 15.0171 13.1626 13.9971 13.3099V11.3332Z" fill="#338000"/>
</g>
<defs>
<clipPath id="clip0_1948_86851">
<rect width="16" height="16" fill="white" transform="translate(8 8)"/>
</clipPath>
</defs>
</svg>
