<svg width="24" height="20" viewBox="0 0 24 20" fill="none" xmlns="http://www.w3.org/2000/svg">
<path d="M18.9283 0.946121C17.6127 1.03078 16.3214 1.57415 15.316 2.57962C14.2039 3.69173 13.6056 5.26739 13.4488 6.48642C14.9063 6.50034 16.3681 5.95354 17.4802 4.84148C18.3864 3.93529 18.9173 2.79684 19.0752 1.61779L18.9283 0.946121Z" fill="#98DB7C"/>
<path d="M18.7059 0.821635C17.3904 0.906291 16.099 1.44966 15.0936 2.45513C14.0238 3.52486 13.4774 4.91817 13.4498 6.32001C13.7518 6.08644 14.0479 5.84536 14.3435 5.60372C14.5264 4.65806 14.9696 3.77025 15.6846 3.05527C16.608 2.13188 17.8225 1.65816 19.075 1.61795C19.0923 1.48885 19.1052 1.35915 19.1135 1.22935C19.1173 1.17484 19.1093 1.12015 19.0902 1.06898C19.071 1.0178 19.0411 0.971329 19.0025 0.932689C18.9639 0.894049 18.9174 0.864143 18.8662 0.844985C18.8151 0.825828 18.7604 0.817866 18.7059 0.821635ZM17.1815 13.8608C17.145 13.7718 17.0828 13.6956 17.0029 13.6421C16.9229 13.5885 16.8288 13.56 16.7326 13.5602H16.7322C16.5344 13.5602 16.3583 13.6784 16.2799 13.8703L14.4518 18.6706C14.4343 18.7166 14.426 18.7657 14.4275 18.8149C14.4289 18.8641 14.44 18.9126 14.4602 18.9575C14.4804 19.0024 14.5092 19.0429 14.545 19.0767C14.5808 19.1105 14.623 19.1369 14.669 19.1544C14.8605 19.2283 15.0788 19.1309 15.1527 18.9372L15.516 17.9832H17.9358L18.2956 18.9364C18.3129 18.9825 18.3393 19.0247 18.373 19.0606C18.4067 19.0966 18.4471 19.1255 18.492 19.1457C18.5369 19.166 18.5854 19.1772 18.6346 19.1788C18.6838 19.1803 18.7329 19.1721 18.7789 19.1547C18.825 19.1373 18.8672 19.111 18.9031 19.0773C18.939 19.0436 18.968 19.0031 18.9882 18.9582C19.0085 18.9133 19.0197 18.8649 19.0213 18.8157C19.0228 18.7664 19.0146 18.7174 18.9972 18.6713L17.1815 13.8608ZM15.8016 17.2332L16.7314 14.7917L17.6528 17.2332H15.8016ZM23.9546 13.9315C23.9528 13.7257 23.785 13.5602 23.5796 13.5602H23.5759C23.4765 13.5612 23.3815 13.6017 23.3119 13.6727C23.2423 13.7437 23.2037 13.8394 23.2046 13.9388L23.2405 17.6676L20.5221 13.7312C20.4284 13.596 20.2588 13.5386 20.1017 13.5861C20.0254 13.61 19.9587 13.6576 19.9113 13.722C19.8639 13.7865 19.8384 13.8643 19.8384 13.9443V18.8039C19.8384 19.0112 20.0061 19.1789 20.2134 19.1789C20.4207 19.1789 20.5884 19.0112 20.5884 18.8039V15.1473L23.1907 18.9153C23.3097 19.0878 23.5064 19.1621 23.6888 19.105C23.8777 19.046 24 18.8636 24 18.6362L23.9546 13.9315ZM7.50111 14.3325C7.70839 14.3325 7.87611 14.1648 7.87611 13.9575C7.87611 13.7503 7.70839 13.5825 7.50111 13.5825H5.46829C5.26101 13.5825 5.09329 13.7503 5.09329 13.9575V18.7816C5.09329 18.9889 5.26101 19.1566 5.46829 19.1566H7.50111C7.70839 19.1566 7.87611 18.9889 7.87611 18.7816C7.87611 18.5743 7.70839 18.4066 7.50111 18.4066H5.84329V16.7444H7.35097C7.55825 16.7444 7.72597 16.5767 7.72597 16.3694C7.72597 16.1621 7.55825 15.9944 7.35097 15.9944H5.84329V14.3325H7.50111ZM13.667 15.9944H12.2106C12.0033 15.9944 11.8356 16.1621 11.8356 16.3694C11.8356 16.5767 12.0033 16.7444 12.2106 16.7444H13.2682C13.1609 17.5885 12.6746 18.4289 11.5657 18.4289C10.43 18.4289 9.50647 17.505 9.50647 16.3694C9.50647 15.2337 10.43 14.3102 11.5657 14.3102C11.978 14.3102 12.3761 14.4318 12.7167 14.6617C12.8888 14.7771 13.1217 14.732 13.2374 14.5607C13.2931 14.4782 13.3137 14.377 13.2947 14.2794C13.2758 14.1817 13.2188 14.0956 13.1364 14.0399C12.6713 13.7261 12.1282 13.5602 11.5657 13.5602C10.0166 13.5602 8.75647 14.8204 8.75647 16.3694C8.75647 17.9185 10.0166 19.179 11.5657 19.179C13.0236 19.179 14.042 18.0236 14.042 16.3694C14.042 16.3202 14.0324 16.2714 14.0135 16.2259C13.9947 16.1804 13.9671 16.139 13.9322 16.1042C13.8974 16.0693 13.8561 16.0417 13.8105 16.0229C13.765 16.004 13.7162 15.9944 13.667 15.9944ZM3.95512 13.588C3.75885 13.5236 3.54642 13.6294 3.48088 13.8257L2.13764 17.8697L0.729187 13.8121C0.661453 13.6166 0.447938 13.5115 0.252001 13.581C0.205468 13.5972 0.162572 13.6223 0.125766 13.655C0.0889599 13.6877 0.0589665 13.7274 0.0375022 13.7717C0.0160378 13.816 0.00352387 13.8641 0.000676336 13.9133C-0.0021712 13.9625 0.00470359 14.0117 0.0209073 14.0582L1.68642 18.857C1.72019 18.9511 1.78216 19.0325 1.86389 19.09C1.94562 19.1476 2.04312 19.1785 2.14307 19.1786H2.14748C2.2484 19.1776 2.3465 19.1451 2.42815 19.0858C2.5098 19.0265 2.57093 18.9432 2.60306 18.8475L4.19277 14.0622C4.22412 13.9678 4.21669 13.8649 4.17213 13.7759C4.12756 13.687 4.0495 13.6194 3.95512 13.588Z" fill="#77CC7D"/>
<path d="M8.90672 5.08042C8.00053 4.17423 6.86161 3.64694 5.68256 3.48897L5.16033 3.90841C5.24498 5.22395 5.65148 6.3085 6.65695 7.31392C7.76906 8.42603 9.09417 9.12578 10.5517 9.11186C10.5656 7.65433 10.0188 6.19253 8.90672 5.08042Z" fill="#98DB7C"/>
<path d="M9.76832 8.23616C8.78545 8.06581 7.86046 7.61614 7.1204 6.87612C6.19701 5.95273 5.72282 4.74177 5.6826 3.48922C5.55351 3.47197 5.42427 3.45552 5.29448 3.44722C5.23997 3.44344 5.18528 3.4514 5.13411 3.47055C5.08293 3.4897 5.03646 3.5196 4.99783 3.55824C4.95919 3.59688 4.92929 3.64335 4.91014 3.69452C4.89098 3.7457 4.88303 3.80038 4.8868 3.85489C4.97146 5.17039 5.51484 6.46175 6.5203 7.46717C7.61357 8.56044 9.04476 9.10695 10.4776 9.11192C10.2339 8.82598 9.99356 8.53737 9.76832 8.23616Z" fill="#77CC7D"/>
<path d="M16.5002 3.15981C16.5362 3.15982 16.5723 3.16748 16.6056 3.18129C16.6221 3.18815 16.6377 3.19681 16.6525 3.20668L16.6945 3.24086C16.746 3.29241 16.7746 3.3623 16.7746 3.4352L16.7697 3.48891C16.7627 3.52418 16.7486 3.5576 16.7287 3.58754L16.6945 3.62953L12.8537 7.47035C12.4809 7.84316 12.2756 8.33943 12.2755 8.86684V11.5856H11.7248V11.4918C11.7247 11.0304 11.5676 10.5928 11.2785 10.2409L11.1466 10.0954L7.30582 6.25453C7.2118 6.16055 7.20006 6.0156 7.27066 5.90883L7.30582 5.86586C7.39983 5.77183 7.54476 5.76007 7.65152 5.8307L7.69449 5.86586L11.5402 9.71156C11.5428 9.71456 11.5481 9.72127 11.5539 9.72719L11.7248 9.90199V8.86684C11.7249 8.27646 11.9261 7.71732 12.2961 7.26723L12.465 7.08168L16.3058 3.24086C16.3313 3.21538 16.3614 3.1951 16.3947 3.18129C16.4114 3.17438 16.4288 3.16917 16.4464 3.16566L16.5002 3.15981Z" fill="#52BD7E" stroke="#284268" stroke-width="0.2"/>
<path d="M12 11.4098C12.0547 11.4098 12.1075 11.4268 12.1524 11.4566L12.1944 11.4908C12.2459 11.5424 12.2754 11.6122 12.2754 11.6852V12.4352C12.2754 12.5081 12.2459 12.5779 12.1944 12.6295C12.1428 12.6811 12.073 12.7106 12 12.7106C11.9453 12.7106 11.8925 12.6936 11.8477 12.6637L11.8057 12.6295C11.7541 12.5779 11.7246 12.5081 11.7246 12.4352V11.6852C11.7246 11.6305 11.7416 11.5777 11.7715 11.5328L11.8057 11.4908C11.8573 11.4393 11.9271 11.4098 12 11.4098Z" fill="#00917D" stroke="#284268" stroke-width="0.2"/>
</svg>
