<svg width="32" height="32" viewBox="0 0 32 32" fill="none" xmlns="http://www.w3.org/2000/svg">
<circle cx="16" cy="16" r="16" fill="#D9ECCD"/>
<g clip-path="url(#clip0_1948_86871)">
<path d="M8.00139 17.0005C8.00139 16.8165 8.15072 16.6671 8.33472 16.6671H23.6681C23.8521 16.6671 24.0014 16.8165 24.0014 17.0005C24.0014 17.1845 23.8521 17.3338 23.6681 17.3338H8.33472C8.15072 17.3338 8.00139 17.1845 8.00139 17.0005ZM13.3347 19.3338C13.5187 19.3338 13.6681 19.1845 13.6681 19.0005C13.6681 18.8165 13.5187 18.6671 13.3347 18.6671H12.3347C11.9667 18.6671 11.6681 18.9658 11.6681 19.3338V23.3338C11.6681 23.7018 11.9667 24.0005 12.3347 24.0005H13.3347C13.5187 24.0005 13.6681 23.8511 13.6681 23.6671C13.6681 23.4831 13.5187 23.3338 13.3347 23.3338H12.3347V21.6671H13.3347C13.5187 21.6671 13.6681 21.5178 13.6681 21.3338C13.6681 21.1498 13.5187 21.0005 13.3347 21.0005H12.3347V19.3338H13.3347ZM15.8347 18.6671C15.0081 18.6671 14.3347 19.3405 14.3347 20.1671V22.5005C14.3347 23.3271 15.0081 24.0005 15.8347 24.0005C16.6614 24.0005 17.3347 23.3271 17.3347 22.5005V22.0005C17.3347 21.6325 17.0361 21.3338 16.6681 21.3338H16.0014C15.8174 21.3338 15.6681 21.4831 15.6681 21.6671C15.6681 21.8511 15.8174 22.0005 16.0014 22.0005H16.6681V22.5005C16.6681 22.9598 16.2941 23.3338 15.8347 23.3338C15.3754 23.3338 15.0014 22.9598 15.0014 22.5005V20.1671C15.0014 19.7078 15.3754 19.3338 15.8347 19.3338C16.2941 19.3338 16.6681 19.7078 16.6681 20.1671V20.3338C16.6681 20.5178 16.8174 20.6671 17.0014 20.6671C17.1854 20.6671 17.3347 20.5178 17.3347 20.3338V20.1671C17.3347 19.3405 16.6614 18.6671 15.8347 18.6671ZM10.1027 9.73313C9.85472 9.29247 10.0821 8.7218 10.5447 8.5298C11.4807 8.12247 13.3481 7.5918 15.3461 8.61913C15.9541 8.9318 16.3901 9.47513 16.5754 10.1491C16.7654 10.8418 16.6601 11.5805 16.2854 12.1771C16.1874 12.3325 16.0807 12.4618 15.9701 12.5791C16.1134 12.8498 16.2381 13.1185 16.3347 13.3791C16.5661 12.8291 16.9247 12.3231 17.4167 11.9698C17.4141 11.9625 17.4101 11.9565 17.4074 11.9491C17.1307 11.0585 17.6201 10.1025 18.5727 9.67647C19.8154 9.12113 21.1207 9.33847 21.9967 9.6198C22.5721 9.7878 22.8667 10.5005 22.5141 10.9965C21.8447 11.9845 21.1101 12.6905 20.3301 13.0958C19.7707 13.3865 19.1161 13.4118 18.5347 13.1691C18.2141 13.0358 17.9487 12.8205 17.7427 12.5598C17.0081 13.1338 16.6674 14.2051 16.6674 14.9998C16.6674 15.1838 16.5181 15.3331 16.3341 15.3331C16.1501 15.3331 16.0007 15.1838 16.0007 14.9998C16.0007 14.4665 15.8094 13.7465 15.4347 13.0091C14.3734 13.5145 13.6834 13.4238 12.7434 13.0298C11.3667 12.3058 10.7354 10.9071 10.1021 9.73247L10.1027 9.73313ZM18.0447 11.7511C18.1587 12.1165 18.4234 12.4025 18.7914 12.5551C19.1861 12.7191 19.6461 12.6998 20.0234 12.5051C20.7041 12.1518 21.3567 11.5185 21.9627 10.6238C22.0627 10.4551 21.9541 10.3125 21.7941 10.2551C21.0287 10.0098 19.8941 9.8158 18.8454 10.2858C18.2061 10.5718 17.8694 11.1885 18.0447 11.7511ZM10.6781 9.27647C10.6221 9.38313 10.8381 9.6638 10.8714 9.75847C11.3994 10.7605 11.9981 11.8971 13.0494 12.4378C13.3541 12.5945 13.7054 12.6625 14.0694 12.6671C14.1247 12.6718 14.6094 12.7071 15.0974 12.4265C14.5821 11.6371 13.8467 10.8765 12.8481 10.3571C12.6847 10.2725 12.6207 10.0711 12.7061 9.9078C12.7914 9.74447 12.9947 9.6818 13.1554 9.76647C14.2514 10.3365 15.0507 11.1371 15.6087 11.9698C15.9834 11.5251 16.0867 10.8958 15.9334 10.3271C15.7987 9.83513 15.4814 9.4398 15.0421 9.2138C13.2894 8.3118 11.6387 8.78247 10.8114 9.14247C10.7461 9.17047 10.6974 9.2198 10.6781 9.2778V9.27647ZM23.6681 18.6671C23.4841 18.6671 23.3347 18.8165 23.3347 19.0005V21.9418C21.9781 18.5818 21.9114 18.5971 21.6101 18.6571C21.4534 18.6871 21.3347 18.8405 21.3347 19.0005V23.6671C21.3347 23.8511 21.4841 24.0005 21.6681 24.0005C21.8521 24.0005 22.0014 23.8511 22.0014 23.6671V20.4778C22.3834 21.3805 22.8927 22.6271 23.3587 23.7911C23.4827 24.1278 24.0121 24.0238 24.0014 23.6671V19.0005C24.0014 18.8165 23.8521 18.6671 23.6681 18.6671ZM10.7101 18.6698C10.5307 18.6425 10.3607 18.7758 10.3367 18.9585L9.83272 22.9065C9.81205 23.0658 9.74139 23.3345 9.50339 23.3345C9.23805 23.3345 9.18405 22.9745 9.17872 22.9331L8.66472 18.9585C8.64072 18.7765 8.47739 18.6438 8.29072 18.6705C8.10872 18.6938 7.97939 18.8611 8.00272 19.0445L8.51672 23.0191C8.59139 23.5971 8.99739 24.0011 9.50272 24.0011C10.0247 24.0011 10.4134 23.6051 10.4934 22.9918L10.9974 19.0431C11.0207 18.8605 10.8914 18.6938 10.7087 18.6698H10.7101ZM20.2954 19.6491L20.8094 23.6238C20.8714 24.0538 20.1954 24.1371 20.1481 23.7098L20.0134 22.6678H18.6094L18.4761 23.7098C18.4261 24.1405 17.7534 24.0525 17.8147 23.6251L18.3187 19.6765C18.3987 19.0631 18.7874 18.6671 19.3094 18.6671C19.8154 18.6671 20.2207 19.0705 20.2954 19.6491ZM19.9267 22.0005L19.6341 19.7351C19.6287 19.6938 19.5747 19.3338 19.3094 19.3338C19.0714 19.3338 19.0007 19.6018 18.9801 19.7618L18.6941 22.0005H19.9267Z" fill="#338000"/>
</g>
<defs>
<clipPath id="clip0_1948_86871">
<rect width="16" height="16" fill="white" transform="translate(8 8)"/>
</clipPath>
</defs>
</svg>
