<svg width="32" height="32" viewBox="0 0 32 32" fill="none" xmlns="http://www.w3.org/2000/svg">
<circle cx="16" cy="16" r="16" fill="#D9ECCD"/>
<g clip-path="url(#clip0_1948_36961)">
<path d="M11.3333 17.3333C9.49533 17.3333 8 18.8287 8 20.6667C8 22.5047 9.49533 24 11.3333 24C13.1713 24 14.6667 22.5047 14.6667 20.6667C14.6667 18.8287 13.1713 17.3333 11.3333 17.3333ZM11.3333 23.3333C9.86267 23.3333 8.66667 22.1373 8.66667 20.6667C8.66667 19.196 9.86267 18 11.3333 18C12.804 18 14 19.196 14 20.6667C14 22.1373 12.804 23.3333 11.3333 23.3333ZM20.6667 17.3333C20.604 17.3333 20.5453 17.3487 20.484 17.352L19.002 14.702C18.8893 14.4107 19.1627 14 19.5513 14H21.0007C21.1847 14 21.334 13.8507 21.334 13.6667C21.334 13.4827 21.1847 13.3333 21.0007 13.3333H19.5513C19.4373 13.3333 19.328 13.3527 19.222 13.3813L16.9613 12.2093C16.1747 11.7733 15.1653 12.05 14.7107 12.83L13.5773 14.8267C13.3293 15.234 13.268 15.7293 13.4087 16.1847C13.5493 16.64 13.8793 17.014 14.27 17.1873L15.362 17.8927C15.5533 18.0167 15.6673 18.2253 15.6673 18.4527V21C15.6673 21.184 15.8167 21.3333 16.0007 21.3333C16.1847 21.3333 16.334 21.184 16.334 21V18.4527C16.334 17.998 16.106 17.5793 15.7233 17.3327L14.588 16.604C14.3273 16.4853 14.13 16.2613 14.046 15.988C13.9613 15.7147 13.9987 15.418 14.1527 15.1647L15.2893 13.1627C15.562 12.6967 16.1673 12.5313 16.6473 12.7973L18.5887 13.804C18.3167 14.13 18.2393 14.5987 18.402 14.9927L19.786 17.4667C18.378 17.8567 17.3353 19.136 17.3353 20.6667C17.3353 22.5047 18.8307 24 20.6687 24C22.5067 24 24.002 22.5047 24.002 20.6667C24.002 18.8287 22.5067 17.3333 20.6687 17.3333H20.6667ZM20.6667 23.3333C19.196 23.3333 18 22.1373 18 20.6667C18 19.196 19.196 18 20.6667 18C22.1373 18 23.3333 19.196 23.3333 20.6667C23.3333 22.1373 22.1373 23.3333 20.6667 23.3333ZM17 11.3333C17.9187 11.3333 18.6667 10.586 18.6667 9.66667C18.6667 8.74733 17.9187 8 17 8C16.0813 8 15.3333 8.74733 15.3333 9.66667C15.3333 10.586 16.0813 11.3333 17 11.3333ZM17 8.66667C17.5513 8.66667 18 9.11533 18 9.66667C18 10.218 17.5513 10.6667 17 10.6667C16.4487 10.6667 16 10.218 16 9.66667C16 9.11533 16.4487 8.66667 17 8.66667Z" fill="#338000"/>
</g>
<defs>
<clipPath id="clip0_1948_36961">
<rect width="16" height="16" fill="white" transform="translate(8 8)"/>
</clipPath>
</defs>
</svg>
