<svg width="32" height="33" viewBox="0 0 32 33" fill="none" xmlns="http://www.w3.org/2000/svg">
<ellipse cx="16" cy="16.3642" rx="16" ry="16.3642" fill="#D9ECCD"/>
<g clip-path="url(#clip0_2031_43160)">
<path d="M16.413 11.8464C17.5622 11.8464 18.4963 10.9114 18.4963 9.76302C18.4963 8.61469 17.5622 7.67969 16.413 7.67969C15.2638 7.67969 14.3297 8.61469 14.3297 9.76302C14.3297 10.9114 15.2647 11.8464 16.413 11.8464ZM16.413 8.51302C17.1022 8.51302 17.663 9.07385 17.663 9.76302C17.663 10.4522 17.1022 11.013 16.413 11.013C15.7238 11.013 15.163 10.4522 15.163 9.76302C15.163 9.07385 15.7238 8.51302 16.413 8.51302ZM23.1888 18.1405L20.273 16.6822C20.068 16.5797 19.8955 16.423 19.773 16.2305L17.9805 13.3914C17.5847 12.9389 17.0138 12.6797 16.413 12.6797H15.2263C14.303 12.6797 13.3788 12.898 12.553 13.3105L10.7955 14.1897C10.2422 14.4664 9.843 14.9697 9.7005 15.5714L8.9255 18.8339C8.87216 19.058 9.0105 19.283 9.23466 19.3355C9.26716 19.343 9.29966 19.3472 9.33133 19.3472C9.51966 19.3472 9.6905 19.218 9.73633 19.0272L10.5113 15.7647C10.5972 15.4039 10.8363 15.1022 11.1688 14.9355L12.9263 14.0564C13.2238 13.908 13.5363 13.7889 13.8572 13.7005L12.7305 18.3847C12.5138 19.2822 12.923 20.2289 13.7263 20.6855L17.0322 22.563C17.4222 22.7847 17.6647 23.2014 17.6647 23.6505V27.2639C17.6647 27.4939 17.8513 27.6805 18.0813 27.6805C18.3113 27.6805 18.498 27.4939 18.498 27.2639V23.6505C18.498 22.903 18.0947 22.2089 17.4438 21.8389L16.1697 21.1155L17.8613 14.7555L19.0697 16.6755C19.273 16.998 19.5605 17.258 19.9013 17.4289L22.8172 18.8872C23.0213 18.9897 23.273 18.9072 23.3763 18.7005C23.4788 18.4947 23.3955 18.2447 23.1897 18.1414L23.1888 18.1405ZM15.4547 20.7097L14.1372 19.9614C13.6547 19.6872 13.4088 19.1197 13.5397 18.5805L14.7505 13.5364C14.9088 13.5214 15.068 13.5139 15.2272 13.5139H16.4138C16.7438 13.5139 17.0588 13.6447 17.2622 13.8347L15.4547 20.7097ZM13.798 22.4064L13.3813 24.0339L11.7905 27.4405C11.7197 27.5914 11.5697 27.6805 11.413 27.6805C11.3538 27.6805 11.2938 27.668 11.2363 27.6414C11.028 27.5439 10.9388 27.2955 11.0363 27.0872L12.6005 23.7539L12.9905 22.1997C13.0472 21.9764 13.2755 21.8414 13.4972 21.8997C13.7205 21.9564 13.8547 22.1839 13.7972 22.4064H13.798Z" fill="#338000"/>
</g>
<defs>
<clipPath id="clip0_2031_43160">
<rect width="20" height="20" fill="white" transform="translate(6 7.67969)"/>
</clipPath>
</defs>
</svg>
