<svg width="32" height="32" viewBox="0 0 32 32" fill="none" xmlns="http://www.w3.org/2000/svg">
<path d="M22.1938 24.7742H9.80666L8.77441 26.8387H23.226L22.1938 24.7742Z" fill="#6F6571"/>
<path d="M10.8388 24.7742H1.03225C0.462188 24.7742 0 24.312 0 23.7419V5.16128C0 4.59115 0.462188 4.12903 1.03225 4.12903H30.9678C31.5379 4.12903 32 4.59122 32 5.16128V23.7419C32 24.312 31.5378 24.7742 30.9678 24.7742H12.9031" fill="#867E88"/>
<path d="M30.4516 22.7096H1.54835C1.41147 22.7096 1.28019 22.6553 1.1834 22.5585C1.0866 22.4617 1.03223 22.3304 1.03223 22.1935V5.67738C1.03223 5.54049 1.0866 5.40922 1.1834 5.31242C1.28019 5.21563 1.41147 5.16125 1.54835 5.16125H30.4516C30.5885 5.16125 30.7198 5.21563 30.8166 5.31242C30.9133 5.40922 30.9677 5.54049 30.9677 5.67738V22.1935C30.9677 22.3304 30.9133 22.4617 30.8166 22.5585C30.7198 22.6553 30.5885 22.7096 30.4516 22.7096Z" fill="#A5CDFF"/>
<path d="M2.06445 6.19373H29.9357V21.6775H2.06445V6.19373Z" fill="#C4DEFF"/>
<path d="M25.2901 27.8709H6.70948C6.64169 27.8709 6.57456 27.8576 6.51192 27.8317C6.44929 27.8057 6.39237 27.7677 6.34444 27.7198C6.2965 27.6719 6.25849 27.6149 6.23256 27.5523C6.20664 27.4897 6.19332 27.4225 6.19336 27.3547C6.19333 27.287 6.20665 27.2198 6.23258 27.1572C6.25851 27.0946 6.29652 27.0377 6.34446 26.9897C6.39239 26.9418 6.4493 26.9038 6.51193 26.8778C6.57457 26.8519 6.6417 26.8386 6.70948 26.8386H25.2901C25.3579 26.8386 25.425 26.8519 25.4877 26.8778C25.5503 26.9037 25.6072 26.9418 25.6552 26.9897C25.7031 27.0376 25.7411 27.0945 25.767 27.1572C25.793 27.2198 25.8063 27.287 25.8062 27.3547C25.8063 27.4225 25.793 27.4897 25.767 27.5523C25.7411 27.6149 25.7031 27.6719 25.6552 27.7198C25.6072 27.7677 25.5503 27.8057 25.4877 27.8317C25.425 27.8576 25.3579 27.8709 25.2901 27.8709Z" fill="#867E88"/>
<path d="M10.5806 20.387C10.5128 20.3871 10.4457 20.3738 10.3831 20.3479C10.3204 20.3219 10.2635 20.2839 10.2157 20.2359C10.1677 20.1879 10.1297 20.1311 10.1038 20.0684C10.0778 20.0058 10.0645 19.9387 10.0645 19.8709C10.0645 19.8032 10.0778 19.7361 10.1038 19.6734C10.1297 19.6108 10.1677 19.554 10.2157 19.506L22.0866 7.63511C22.2882 7.43348 22.6149 7.43348 22.8164 7.63511C23.018 7.83673 23.0181 8.16336 22.8164 8.36492L10.9456 20.2358C10.8977 20.2838 10.8408 20.3219 10.7782 20.3478C10.7155 20.3738 10.6484 20.3871 10.5806 20.387Z" fill="white"/>
<path d="M11.0972 16.258C11.0294 16.2581 10.9623 16.2448 10.8997 16.2188C10.837 16.1929 10.7801 16.1548 10.7323 16.1068C10.6843 16.0589 10.6463 16.002 10.6204 15.9394C10.5944 15.8768 10.5811 15.8097 10.5811 15.7419C10.5811 15.6741 10.5944 15.607 10.6204 15.5444C10.6463 15.4818 10.6843 15.4249 10.7323 15.377L17.1839 8.92539C17.2318 8.87745 17.2887 8.83942 17.3513 8.81347C17.4139 8.78753 17.481 8.77417 17.5488 8.77417C17.6166 8.77417 17.6837 8.78753 17.7463 8.81347C17.8089 8.83942 17.8658 8.87745 17.9137 8.92539C17.9617 8.9733 17.9997 9.03019 18.0256 9.0928C18.0516 9.15541 18.0649 9.22252 18.0649 9.2903C18.0649 9.35808 18.0516 9.42519 18.0256 9.4878C17.9997 9.55041 17.9617 9.6073 17.9137 9.65521L11.4622 16.1068C11.4143 16.1548 11.3574 16.1929 11.2948 16.2188C11.2321 16.2448 11.165 16.2581 11.0972 16.258Z" fill="#E2EFFF"/>
<path d="M22.7094 25.8064L22.1933 24.7742H9.80616L9.29004 25.8064H22.7094Z" fill="#5D5360"/>
</svg>
