<svg width="30" height="22" viewBox="0 0 30 22" fill="none" xmlns="http://www.w3.org/2000/svg">
<path d="M10.5 18.271V20C10.5 20.3978 10.658 20.7794 10.9393 21.0607C11.2206 21.342 11.6022 21.5 12 21.5H18C18.3978 21.5 18.7794 21.342 19.0607 21.0607C19.342 20.7794 19.5 20.3978 19.5 20V18.271" fill="#296136"/>
<path d="M5 15L6.0955 15.8765C8.62297 17.8984 11.7633 19 15 19C18.2367 19 21.377 17.8984 23.9045 15.8765L25 15" fill="#37814F"/>
<path d="M5.4585 11.9565C2.125 12.3235 0 12.8785 0 13.5C0 14.6045 6.7155 15.5 15 15.5C23.2845 15.5 30 14.6045 30 13.5C30 12.93 28.2125 12.416 25.344 12.05" fill="#4BA86D"/>
<path d="M27 8.5V10.5C27 12.157 21.85 13.5 15.5 13.5C9.15 13.5 4 12.157 4 10.5V8.5" fill="#BC9834"/>
<path d="M15.5 11.5C21.8513 11.5 27 10.1569 27 8.5C27 6.84315 21.8513 5.5 15.5 5.5C9.14873 5.5 4 6.84315 4 8.5C4 10.1569 9.14873 11.5 15.5 11.5Z" fill="#E7B541"/>
<path d="M25.5 3.5V5.5C25.5 7.157 20.35 8.5 14 8.5C7.65 8.5 2.5 7.157 2.5 5.5V3.5" fill="#BC9834"/>
<path d="M14 6.5C20.3513 6.5 25.5 5.15685 25.5 3.5C25.5 1.84315 20.3513 0.5 14 0.5C7.64873 0.5 2.5 1.84315 2.5 3.5C2.5 5.15685 7.64873 6.5 14 6.5Z" fill="#E7B541"/>
<path d="M9 2H10V3H9V2ZM10.5 4H11.5V5H10.5V4ZM8 4H9V5H8V4ZM11.5 2H12.5V3H11.5V2ZM14 1.5H15V2.5H14V1.5ZM15 3H16V4H15V3ZM17.5 4H18.5V5H17.5V4ZM17.5 2H18.5V3H17.5V2ZM20 3H21V4H20V3ZM22.5 3H23.5V4H22.5V3ZM13.5 4.5H14.5V5.5H13.5V4.5ZM6 2.5H7V3.5H6V2.5Z" fill="#AF8D30"/>
</svg>
