<svg width="32" height="32" viewBox="0 0 32 32" fill="none" xmlns="http://www.w3.org/2000/svg">
<path d="M11.5 23.271V25C11.5 25.3978 11.658 25.7794 11.9393 26.0607C12.2206 26.342 12.6022 26.5 13 26.5H19C19.3978 26.5 19.7794 26.342 20.0607 26.0607C20.342 25.7794 20.5 25.3978 20.5 25V23.271" fill="#296136"/>
<path d="M6 20L7.0955 20.8765C9.62297 22.8984 12.7633 24 16 24C19.2367 24 22.377 22.8984 24.9045 20.8765L26 20" fill="#37814F"/>
<path d="M6.4585 16.9565C3.125 17.3235 1 17.8785 1 18.5C1 19.6045 7.7155 20.5 16 20.5C24.2845 20.5 31 19.6045 31 18.5C31 17.93 29.2125 17.416 26.344 17.05" fill="#4BA86D"/>
<path d="M28 13.5V15.5C28 17.157 22.85 18.5 16.5 18.5C10.15 18.5 5 17.157 5 15.5V13.5" fill="#BC9834"/>
<path d="M16.5 16.5C22.8513 16.5 28 15.1569 28 13.5C28 11.8431 22.8513 10.5 16.5 10.5C10.1487 10.5 5 11.8431 5 13.5C5 15.1569 10.1487 16.5 16.5 16.5Z" fill="#E7B541"/>
<path d="M26.5 8.5V10.5C26.5 12.157 21.35 13.5 15 13.5C8.65 13.5 3.5 12.157 3.5 10.5V8.5" fill="#BC9834"/>
<path d="M15 11.5C21.3513 11.5 26.5 10.1569 26.5 8.5C26.5 6.84315 21.3513 5.5 15 5.5C8.64873 5.5 3.5 6.84315 3.5 8.5C3.5 10.1569 8.64873 11.5 15 11.5Z" fill="#E7B541"/>
<path d="M10 7H11V8H10V7ZM11.5 9H12.5V10H11.5V9ZM9 9H10V10H9V9ZM12.5 7H13.5V8H12.5V7ZM15 6.5H16V7.5H15V6.5ZM16 8H17V9H16V8ZM18.5 9H19.5V10H18.5V9ZM18.5 7H19.5V8H18.5V7ZM21 8H22V9H21V8ZM23.5 8H24.5V9H23.5V8ZM14.5 9.5H15.5V10.5H14.5V9.5ZM7 7.5H8V8.5H7V7.5Z" fill="#AF8D30"/>
</svg>
