<svg width="32" height="32" viewBox="0 0 32 32" fill="none" xmlns="http://www.w3.org/2000/svg">
<circle cx="16" cy="16" r="16" fill="#D9ECCD"/>
<g clip-path="url(#clip0_1948_87050)">
<path fill-rule="evenodd" clip-rule="evenodd" d="M15.9977 23.0449C14.1496 23.0449 12.4137 22.3107 11.1051 20.981C9.79919 19.6514 9.07812 17.8812 9.07812 15.9995C9.07812 14.1178 9.79919 12.3504 11.1051 11.018C12.4111 9.68828 14.1496 8.9541 15.9977 8.9541C17.8458 8.9541 19.5844 9.68828 20.8903 11.018C22.1962 12.3504 22.9173 14.1151 22.9173 15.9995C22.9173 17.8812 22.1962 19.6486 20.8903 20.981C19.5844 22.3107 17.8458 23.0449 15.9977 23.0449ZM15.9977 9.27768C12.3577 9.27768 9.39593 12.2933 9.39593 15.9995C9.39593 19.7057 12.3577 22.7213 15.9977 22.7213C19.6378 22.7213 22.5995 19.7057 22.5995 15.9995C22.5995 12.2933 19.6378 9.27768 15.9977 9.27768ZM17.6081 17.2367H17.6108V17.2857H17.6081H17.5841H17.56C17.0393 17.2721 16.62 16.8343 16.62 16.3013C16.62 15.7575 17.0526 15.317 17.5867 15.317C18.1209 15.317 18.5535 15.7575 18.5535 16.3013C18.5535 16.5787 18.436 16.8506 18.2304 17.0355L18.2117 17.0518L17.998 16.8098L18.0167 16.7935C18.1556 16.6684 18.233 16.489 18.233 16.3013C18.233 15.937 17.9419 15.6406 17.5841 15.6406C17.2262 15.6406 16.9351 15.937 16.9351 16.3013C16.9351 16.6657 17.2262 16.9621 17.5841 16.9621H17.6081V17.2367ZM14.4487 21.1524C14.3125 21.1714 14.1763 21.1714 14.0401 21.1496C13.5888 21.0871 13.1909 20.8125 12.9585 20.4127C12.3683 20.304 11.893 19.839 11.7674 19.2408C11.2387 18.9525 10.9289 18.3598 10.9876 17.7534C10.8461 17.6011 10.7339 17.4216 10.6645 17.2259C10.5817 16.992 10.555 16.7391 10.587 16.4944C10.6057 16.3557 10.6431 16.2225 10.6992 16.0947C10.4401 15.5454 10.5309 14.8792 10.9289 14.4251C10.9102 14.2864 10.9102 14.1477 10.9315 14.0091C10.993 13.5495 11.2627 13.1444 11.6553 12.9078C11.7621 12.3069 12.2188 11.8228 12.8063 11.695C13.0894 11.1566 13.6716 10.8439 14.2671 10.901C14.4167 10.7542 14.593 10.6427 14.7879 10.572C15.0176 10.4877 15.2633 10.4605 15.5063 10.4932C15.6612 10.5149 15.8108 10.5639 15.9523 10.6318C15.971 10.6373 15.9897 10.6454 16.0031 10.6563C16.0538 10.6944 16.0752 10.7596 16.0618 10.8249L15.9122 11.4476C15.8535 11.6814 15.8882 11.9262 16.0004 12.1383L16.0725 12.2715C16.2728 12.6413 16.2781 13.09 16.0912 13.4652C16.0458 13.5604 16.0137 13.6583 16.0004 13.7616C15.971 13.9656 16.0111 14.1749 16.1072 14.3544C16.2354 14.5937 16.2888 14.8765 16.2487 15.1484C16.2301 15.2871 16.1873 15.4203 16.1259 15.5454C16.0805 15.6379 16.0485 15.7412 16.0351 15.8445C16.0057 16.0484 16.0538 16.2605 16.1446 16.4427L16.1473 16.4482V16.4509C16.3369 16.8125 16.3369 17.2503 16.1686 17.6229C16.1686 17.6283 16.166 17.631 16.1633 17.6337C16.0324 17.9138 16.0298 18.2483 16.1793 18.5202C16.3102 18.7649 16.3609 19.0395 16.3209 19.3142C16.3022 19.4529 16.2594 19.5861 16.198 19.7112L16.1312 19.8471C16.0271 20.0592 16.0031 20.3067 16.0645 20.5378L16.2007 21.0381C18.8499 20.9267 20.9544 18.6969 20.9544 15.9941C20.9544 13.3945 19.0422 11.2355 16.5025 10.9717L16.4784 10.969L16.5105 10.6482L16.5345 10.6509C17.8298 10.7868 19.0235 11.4041 19.8995 12.383C20.7835 13.3728 21.2722 14.6535 21.2722 15.9913C21.2722 18.9036 18.9781 21.2965 16.1179 21.3617C15.9096 21.4759 15.6799 21.5303 15.4449 21.5303C15.079 21.5303 14.7212 21.3944 14.4487 21.1442V21.1524ZM17.7096 19.9831C17.4505 19.9831 17.2102 19.8798 17.0259 19.6949C16.8443 19.51 16.7428 19.2625 16.7428 19.0015C16.7428 18.7377 16.8443 18.493 17.0259 18.3081C17.09 18.2455 17.1888 18.2428 17.2502 18.3081L18.3933 19.4719C18.4574 19.5372 18.4574 19.6378 18.3933 19.7003C18.209 19.8852 17.9686 19.9858 17.7096 19.9858V19.9831ZM19.5977 15.9397C19.571 15.975 19.5283 15.9913 19.4855 15.9913C19.4428 15.9913 19.4028 15.975 19.3734 15.9424L18.2304 14.7786C18.1663 14.7133 18.1663 14.6127 18.2304 14.5502C18.412 14.3653 18.655 14.2592 18.914 14.2592C19.1731 14.2592 19.4134 14.3626 19.595 14.5502C19.7766 14.7351 19.8808 14.9825 19.8808 15.2436C19.8808 15.5046 19.782 15.7521 19.5977 15.937V15.9397ZM19.1998 18.9308C18.6657 18.9308 18.233 18.4903 18.233 17.9464C18.233 17.4026 18.6657 16.9621 19.1998 16.9621C19.7339 16.9621 20.1666 17.4026 20.1666 17.9464C20.1666 18.4903 19.7339 18.9308 19.1998 18.9308ZM17.5841 13.9955C17.0526 13.9955 16.6173 13.555 16.6173 13.0111C16.6173 12.4673 17.0499 12.0268 17.5841 12.0268C18.1182 12.0268 18.5508 12.4673 18.5508 13.0111C18.5508 13.555 18.1182 13.9955 17.5841 13.9955ZM13.0574 11.9071C13.0547 11.9126 13.0547 11.9153 13.0493 11.918C13.0253 11.9588 12.9852 11.9941 12.9372 11.9996H12.9345H12.9318C12.4217 12.0839 12.0185 12.5054 11.9544 13.0274C11.9464 13.0818 11.917 13.1308 11.8689 13.1552C11.5298 13.332 11.2947 13.6692 11.2413 14.0526C11.2226 14.1831 11.2253 14.3163 11.252 14.4441C11.2627 14.4958 11.2467 14.5502 11.212 14.5882L11.2093 14.591C10.8434 14.9662 10.7633 15.5481 11.0143 16.0104L11.017 16.0158V16.0185C11.0384 16.0648 11.0384 16.1164 11.017 16.1627C10.9582 16.2823 10.9182 16.4074 10.8995 16.5379C10.8461 16.9213 10.9849 17.3156 11.26 17.5793C11.3001 17.6174 11.3161 17.6745 11.3081 17.7289C11.2306 18.2455 11.5031 18.7649 11.9677 18.9879C11.9731 18.9906 11.9758 18.9933 11.9811 18.996C12.0212 19.0205 12.0532 19.0613 12.0612 19.1102V19.113V19.1157C12.144 19.6351 12.5579 20.0456 13.0707 20.1109C13.1241 20.1191 13.1722 20.149 13.1962 20.1979C13.3698 20.5433 13.701 20.7825 14.0775 20.8369C14.2031 20.856 14.3339 20.8532 14.4594 20.8261C14.4701 20.8206 14.4808 20.8179 14.4941 20.8179C14.5342 20.8179 14.5769 20.8342 14.6063 20.8641L14.609 20.8668C14.7933 21.0545 15.0363 21.1741 15.2953 21.2067C15.4983 21.2312 15.7039 21.204 15.8909 21.1224L15.7574 20.633C15.6719 20.3257 15.7039 19.9967 15.8455 19.7112L15.9122 19.5752C15.9603 19.4828 15.9897 19.3822 16.0031 19.2788C16.0298 19.0749 15.995 18.8682 15.8989 18.6861C15.7039 18.3217 15.7039 17.8785 15.8749 17.5032C15.8775 17.4978 15.8775 17.4951 15.8829 17.4923C16.0111 17.2095 16.0111 16.8778 15.8642 16.6032C15.8615 16.6004 15.8615 16.6004 15.8615 16.5977L15.8588 16.595C15.7413 16.3557 15.6826 16.0756 15.72 15.8092C15.7387 15.6705 15.7814 15.5345 15.8401 15.4094C15.8882 15.317 15.9176 15.2164 15.9309 15.113C15.9603 14.9064 15.9229 14.7025 15.8241 14.5203C15.6933 14.281 15.6425 13.9982 15.6826 13.7263C15.7013 13.5876 15.744 13.4516 15.8054 13.3265C15.9443 13.0465 15.939 12.712 15.7894 12.4374L15.7173 12.3041C15.5651 12.0213 15.525 11.6923 15.5998 11.3823L15.7173 10.8902C15.6345 10.8575 15.549 10.8358 15.4609 10.8222C15.0844 10.7678 14.6971 10.9065 14.4407 11.1893C14.4033 11.2301 14.3473 11.2464 14.2939 11.2382C13.7864 11.1594 13.2763 11.4367 13.0574 11.9099V11.9071ZM14.4888 12.8724H14.2191V12.5489H14.5369V12.8507H14.7585V12.5489H15.0763V12.8724H14.8066V13.1743H14.4888V12.8724ZM12.9212 17.8159H13.1909V18.1395H12.8731V17.8377H12.6514V18.1395H12.3336V17.8159H12.6033V17.5141H12.9212V17.8159ZM17.1487 18.6643C17.0873 18.7676 17.0579 18.8818 17.0579 19.0042C17.0579 19.1809 17.1247 19.3468 17.2476 19.4719C17.3704 19.597 17.5333 19.665 17.7069 19.665C17.8244 19.665 17.9393 19.6351 18.0407 19.5725L17.1487 18.6643ZM18.5802 14.6834L19.4722 15.5916C19.5336 15.4883 19.563 15.3741 19.563 15.2517C19.563 15.075 19.4962 14.9091 19.3734 14.784C19.2505 14.6589 19.0876 14.591 18.914 14.591C18.7965 14.591 18.6817 14.6236 18.5802 14.6834ZM19.1998 17.2884C18.8419 17.2884 18.5508 17.5848 18.5508 17.9492C18.5508 18.3135 18.8419 18.6099 19.1998 18.6099C19.5577 18.6099 19.8487 18.3135 19.8487 17.9492C19.8487 17.5848 19.5577 17.2884 19.1998 17.2884ZM17.5841 13.6746C17.9419 13.6746 18.233 13.3782 18.233 13.0138C18.233 12.6495 17.9419 12.3531 17.5841 12.3531C17.2262 12.3531 16.9351 12.6495 16.9351 13.0138C16.9351 13.3782 17.2262 13.6746 17.5841 13.6746Z" fill="#338000"/>
</g>
<defs>
<clipPath id="clip0_1948_87050">
<rect width="18" height="16" fill="white" transform="translate(7 8)"/>
</clipPath>
</defs>
</svg>
