<svg width="24" height="24" viewBox="0 0 24 24" fill="none" xmlns="http://www.w3.org/2000/svg">
<path d="M12 24C18.6274 24 24 18.6274 24 12C24 5.37258 18.6274 0 12 0C5.37258 0 0 5.37258 0 12C0 18.6274 5.37258 24 12 24Z" fill="#29A71A"/>
<path d="M17.2908 6.70865C16.0423 5.4477 14.3843 4.67439 12.6158 4.52823C10.8474 4.38206 9.08493 4.87266 7.64635 5.91153C6.20777 6.95039 5.18778 8.46914 4.77035 10.1938C4.35293 11.9185 4.56556 13.7356 5.36988 15.3173L4.58034 19.1505C4.57215 19.1886 4.57191 19.2281 4.57966 19.2663C4.5874 19.3045 4.60295 19.3408 4.62534 19.3727C4.65813 19.4212 4.70495 19.4586 4.75953 19.4798C4.81411 19.501 4.87385 19.505 4.93079 19.4914L8.68761 18.6009C10.2649 19.3849 12.0691 19.5838 13.7793 19.1624C15.4895 18.7409 16.9947 17.7264 18.0271 16.2993C19.0595 14.8723 19.5521 13.1252 19.4173 11.369C19.2824 9.61281 18.5289 7.96142 17.2908 6.70865ZM16.1194 16.0577C15.2556 16.9191 14.1432 17.4878 12.9391 17.6835C11.735 17.8792 10.4998 17.6921 9.40761 17.1487L8.88397 16.8896L6.58079 17.435L6.58761 17.4064L7.06488 15.0882L6.80852 14.5823C6.25047 13.4863 6.0536 12.2418 6.24614 11.0271C6.43867 9.81235 7.01072 8.68972 7.88034 7.82002C8.97303 6.72767 10.4548 6.11402 11.9999 6.11402C13.5449 6.11402 15.0267 6.72767 16.1194 7.82002C16.1287 7.83069 16.1388 7.84071 16.1494 7.85002C17.2286 8.94518 17.831 10.4226 17.8254 11.9601C17.8198 13.4976 17.2065 14.9705 16.1194 16.0577Z" fill="white"/>
<path d="M15.9147 14.3577C15.6324 14.8022 15.1865 15.3463 14.626 15.4813C13.6442 15.7186 12.1374 15.4895 10.2624 13.7413L10.2392 13.7209C8.59057 12.1923 8.16239 10.92 8.26603 9.91089C8.3233 9.33816 8.80057 8.81998 9.20285 8.48179C9.26644 8.42752 9.34186 8.38887 9.42307 8.36895C9.50427 8.34903 9.58901 8.34838 9.67051 8.36707C9.75201 8.38575 9.828 8.42325 9.89242 8.47656C9.95683 8.52986 10.0079 8.5975 10.0415 8.67407L10.6483 10.0377C10.6877 10.1261 10.7023 10.2236 10.6906 10.3197C10.6788 10.4158 10.6411 10.5069 10.5815 10.5832L10.2747 10.9813C10.2088 11.0636 10.1691 11.1636 10.1606 11.2686C10.1521 11.3736 10.1752 11.4787 10.2269 11.5704C10.3988 11.8718 10.8106 12.315 11.2674 12.7254C11.7801 13.1891 12.3488 13.6132 12.7088 13.7577C12.8051 13.7971 12.911 13.8067 13.0128 13.7853C13.1147 13.7639 13.2078 13.7125 13.2801 13.6377L13.636 13.2791C13.7047 13.2113 13.7901 13.1631 13.8835 13.1391C13.977 13.1151 14.0751 13.1164 14.1678 13.1427L15.6092 13.5518C15.6887 13.5762 15.7616 13.6184 15.8223 13.6753C15.883 13.7322 15.9298 13.8022 15.9593 13.8799C15.9888 13.9577 16.0001 14.0412 15.9923 14.124C15.9846 14.2068 15.958 14.2867 15.9147 14.3577Z" fill="white"/>
</svg>
