<svg width="24" height="24" viewBox="0 0 24 24" fill="none" xmlns="http://www.w3.org/2000/svg">
<path d="M12 24C18.6274 24 24 18.6274 24 12C24 5.37258 18.6274 0 12 0C5.37258 0 0 5.37258 0 12C0 18.6274 5.37258 24 12 24Z" fill="#29A71A"/>
<path d="M17.2918 6.70865C16.0433 5.4477 14.3853 4.67439 12.6168 4.52823C10.8484 4.38206 9.08591 4.87266 7.64733 5.91153C6.20875 6.95039 5.18875 8.46914 4.77133 10.1938C4.35391 11.9185 4.56653 13.7356 5.37086 15.3173L4.58131 19.1505C4.57312 19.1886 4.57289 19.2281 4.58063 19.2663C4.58838 19.3045 4.60393 19.3408 4.62631 19.3727C4.65911 19.4212 4.70592 19.4586 4.7605 19.4798C4.81508 19.501 4.87483 19.505 4.93177 19.4914L8.68859 18.6009C10.2659 19.3849 12.0701 19.5838 13.7803 19.1624C15.4905 18.7409 16.9957 17.7264 18.0281 16.2993C19.0605 14.8723 19.5531 13.1252 19.4182 11.369C19.2834 9.61281 18.5299 7.96142 17.2918 6.70865ZM16.1204 16.0577C15.2566 16.9191 14.1442 17.4878 12.9401 17.6835C11.736 17.8792 10.5008 17.6921 9.40859 17.1487L8.88495 16.8896L6.58177 17.435L6.58859 17.4064L7.06586 15.0882L6.8095 14.5823C6.25144 13.4863 6.05458 12.2418 6.24711 11.0271C6.43965 9.81235 7.0117 8.68972 7.88131 7.82002C8.974 6.72767 10.4558 6.11402 12.0009 6.11402C13.5459 6.11402 15.0277 6.72767 16.1204 7.82002C16.1297 7.83069 16.1397 7.84071 16.1504 7.85002C17.2295 8.94518 17.832 10.4226 17.8264 11.9601C17.8207 13.4976 17.2075 14.9705 16.1204 16.0577Z" fill="white"/>
<path d="M15.9152 14.3577C15.6329 14.8022 15.187 15.3463 14.6265 15.4813C13.6447 15.7186 12.1379 15.4895 10.2629 13.7413L10.2397 13.7209C8.59106 12.1923 8.16288 10.92 8.26652 9.91089C8.32379 9.33816 8.80106 8.81998 9.20333 8.48179C9.26693 8.42752 9.34235 8.38887 9.42356 8.36895C9.50476 8.34903 9.5895 8.34838 9.671 8.36707C9.7525 8.38575 9.82849 8.42325 9.89291 8.47656C9.95732 8.52986 10.0084 8.5975 10.042 8.67407L10.6488 10.0377C10.6882 10.1261 10.7028 10.2236 10.6911 10.3197C10.6793 10.4158 10.6416 10.5069 10.582 10.5832L10.2752 10.9813C10.2093 11.0636 10.1696 11.1636 10.1611 11.2686C10.1526 11.3736 10.1757 11.4787 10.2274 11.5704C10.3992 11.8718 10.8111 12.315 11.2679 12.7254C11.7806 13.1891 12.3492 13.6132 12.7092 13.7577C12.8056 13.7971 12.9115 13.8067 13.0133 13.7853C13.1152 13.7639 13.2083 13.7125 13.2806 13.6377L13.6365 13.2791C13.7052 13.2113 13.7906 13.1631 13.884 13.1391C13.9774 13.1151 14.0755 13.1164 14.1683 13.1427L15.6097 13.5518C15.6892 13.5762 15.7621 13.6184 15.8228 13.6753C15.8834 13.7322 15.9303 13.8022 15.9598 13.8799C15.9893 13.9577 16.0006 14.0412 15.9928 14.124C15.9851 14.2068 15.9585 14.2867 15.9152 14.3577Z" fill="white"/>
</svg>
