<svg width="40" height="40" viewBox="0 0 40 40" fill="none" xmlns="http://www.w3.org/2000/svg">
<path d="M20 40C31.0457 40 40 31.0457 40 20C40 8.9543 31.0457 0 20 0C8.9543 0 0 8.9543 0 20C0 31.0457 8.9543 40 20 40Z" fill="#E4E4E4"/>
<path d="M40.0004 20.0004C40.0004 31.0504 31.0441 40.0004 20.0004 40.0004C13.7129 40.0004 8.10039 37.1004 4.43164 32.5566C7.86289 35.3316 12.2316 36.9879 16.9879 36.9879C28.0316 36.9879 36.9879 28.0379 36.9879 16.9879C36.9879 12.2316 35.3316 7.86289 32.5566 4.43164C37.0941 8.10039 40.0004 13.7129 40.0004 20.0004Z" fill="#E4E4E4"/>
<path d="M25.9722 30.0625C25.9722 30.6462 25.5059 31.1037 24.9309 31.1037H15.0722C14.4972 31.1037 14.0309 30.645 14.0309 30.0625C14.0309 29.4875 14.4972 29.0212 15.0722 29.0212H24.9309C25.5047 29.0212 25.9722 29.4875 25.9722 30.0625ZM8.73593 20.4437C9.22468 20.1562 10.6709 21.7062 12.9422 21.7912C15.2934 21.8787 16.6597 20.1562 17.1484 20.4437C17.7572 20.6525 16.9272 24.6275 12.9422 24.6425C8.95843 24.6275 8.12718 20.6525 8.73593 20.4437Z" fill="#3E4347"/>
<path d="M7.79656 18.6961C7.34281 18.6236 7.03281 18.1961 7.10656 17.7411C7.18031 17.2874 7.60031 16.9761 8.06156 17.0511C12.7466 17.8036 14.1703 14.4574 14.1841 14.4236C14.3566 13.9974 14.8416 13.7924 15.2703 13.9661C15.6966 14.1399 15.9016 14.6261 15.7278 15.0524C14.7878 17.3549 11.8353 19.3449 7.79656 18.6961Z" fill="#E4E4E4"/>
<path d="M31.2657 20.4437C30.777 20.1562 29.3307 21.7062 27.0595 21.7912C24.7082 21.8787 23.342 20.1562 22.8532 20.4437C22.2445 20.6525 23.0745 24.6275 27.0595 24.6425C31.0432 24.6275 31.8745 20.6525 31.2657 20.4437Z" fill="#3E4347"/>
<path d="M24.2708 15.0516C24.0971 14.6254 24.3021 14.1391 24.7283 13.9654C25.1533 13.7916 25.6383 13.9954 25.8133 14.4191C25.8758 14.5691 27.3071 17.7954 31.9371 17.0516C32.3958 16.9766 32.8196 17.2879 32.8921 17.7416C32.9646 18.1966 32.6558 18.6241 32.2021 18.6966C28.1921 19.3416 25.2183 17.3754 24.2708 15.0516Z" fill="#E4E4E4"/>
</svg>
